<svg width="22" height="17" viewBox="0 0 22 17" fill="none" xmlns="http://www.w3.org/2000/svg">
<path d="M7.61936 8.40483C9.94053 8.40483 11.8218 6.52359 11.8218 4.20241C11.8218 1.88124 9.94053 0 7.61936 0C5.29818 0 3.41695 1.88124 3.41695 4.20241C3.41695 6.52359 5.29818 8.40483 7.61936 8.40483ZM10.561 9.45543H10.0128C9.28391 9.79031 8.47297 9.98073 7.61936 9.98073C6.76574 9.98073 5.95809 9.79031 5.22595 9.45543H4.67767C2.24158 9.45543 0.265137 11.4319 0.265137 13.868V15.2337C0.265137 16.1038 0.971011 16.8097 1.84104 16.8097H10.8664C10.7876 16.5864 10.7548 16.35 10.781 16.1103L11.0043 14.1109L11.0437 13.7465L11.303 13.4871L13.8409 10.9493C13.0365 10.0398 11.871 9.45543 10.561 9.45543ZM12.0483 14.2258L11.8251 16.2285C11.7889 16.5634 12.0713 16.8458 12.4029 16.8064L14.4023 16.5831L18.9298 12.0557L16.5757 9.70166L12.0483 14.2258ZM21.0474 8.82835L19.8031 7.58404C19.4977 7.27871 18.9987 7.27871 18.6934 7.58404L17.4523 8.82507L17.3177 8.95967L19.675 11.3137L21.0474 9.94133C21.3527 9.63272 21.3527 9.13696 21.0474 8.82835Z"/>
</svg>
