<svg width="22" height="22" viewBox="0 0 22 22" fill="none" xmlns="http://www.w3.org/2000/svg">
<rect x="0.5" y="0.5" width="21" height="21" rx="10.5" stroke="white"/>
<path d="M11.5 7C11.5 6.72386 11.2761 6.5 11 6.5C10.7239 6.5 10.5 6.72386 10.5 7L11.5 7ZM10.5 15C10.5 15.2761 10.7239 15.5 11 15.5C11.2761 15.5 11.5 15.2761 11.5 15L10.5 15ZM10.5 7L10.5 15L11.5 15L11.5 7L10.5 7Z" fill="white"/>
<path d="M7 10.5C6.72386 10.5 6.5 10.7239 6.5 11C6.5 11.2761 6.72386 11.5 7 11.5V10.5ZM15 11.5C15.2761 11.5 15.5 11.2761 15.5 11C15.5 10.7239 15.2761 10.5 15 10.5V11.5ZM7 11.5H15V10.5H7V11.5Z" fill="white"/>
</svg>
