<svg width="22" height="22" viewBox="0 0 22 22" fill="none" xmlns="http://www.w3.org/2000/svg">
<path d="M7.48395 7.33355C6.95297 7.32524 6.44135 7.13278 6.03654 6.78905C5.19216 6.01467 4.68062 4.94328 4.60929 3.7998C4.38654 1.51455 5.63321 0.166132 6.97979 0.0157989C7.30424 -0.0201743 7.63262 0.0094934 7.94538 0.103036C8.25813 0.196579 8.54887 0.352085 8.80029 0.560299C9.17537 0.898397 9.4799 1.30732 9.69636 1.76353C9.91283 2.21975 10.037 2.71427 10.0616 3.21863C10.267 5.34897 9.28429 7.33355 7.48395 7.33355ZM7.18329 1.83355C6.65437 1.89222 6.33904 2.64297 6.43437 3.61738C6.46093 4.272 6.73095 4.89312 7.19154 5.35905C7.2788 5.44477 7.39475 5.49506 7.51696 5.50022C7.83871 5.46447 8.35662 4.63763 8.23471 3.39188C7.92121 1.68138 7.20621 1.83355 7.18329 1.83813V1.83355ZM2.90062 12.8336C2.36963 12.8252 1.85802 12.6328 1.45321 12.2891C0.608829 11.5147 0.0972838 10.4433 0.0259555 9.2998C-0.196795 7.01455 1.04987 5.66614 2.39646 5.5158C2.72089 5.48025 3.04917 5.51012 3.36186 5.60364C3.67456 5.69717 3.96532 5.85245 4.21696 6.0603C4.59203 6.3984 4.89656 6.80732 5.11303 7.26354C5.3295 7.71976 5.45363 8.21427 5.47829 8.71864C5.68362 10.849 4.65421 12.8336 2.90062 12.8336ZM2.59996 7.33355C2.07104 7.39222 1.75571 8.14297 1.85104 9.11739C1.8776 9.77201 2.14762 10.3931 2.60821 10.8591C2.69632 10.9435 2.81177 10.9936 2.93362 11.0002C3.25537 10.9645 3.77329 10.1376 3.65137 8.89189C3.40846 7.21622 2.62287 7.33355 2.59996 7.33814V7.33355ZM14.5166 7.33355C12.951 7.34455 11.7355 5.34805 11.9435 3.21588C11.9682 2.71152 12.0923 2.217 12.3088 1.76078C12.5253 1.30457 12.8298 0.895647 13.2049 0.557549C13.4561 0.350583 13.7461 0.196019 14.058 0.102974C14.3699 0.00992844 14.6973 -0.0197127 15.0208 0.0157989C16.3674 0.166132 17.614 1.51455 17.3913 3.7998C17.3202 4.94361 16.8086 6.01536 15.964 6.78997C15.5591 7.13336 15.0475 7.3255 14.5166 7.33355V7.33355ZM13.7686 3.39188C13.6467 4.63397 14.1646 5.4608 14.4864 5.50022C14.6063 5.4955 14.7206 5.4484 14.809 5.3673C15.2696 4.90137 15.5396 4.28025 15.5662 3.62563C15.7587 1.22305 13.9336 1.3798 13.7686 3.39188ZM19.1 12.8336C17.3931 12.8336 16.3188 10.8481 16.5269 8.71589C16.5515 8.21152 16.6757 7.717 16.8921 7.26079C17.1086 6.80457 17.4131 6.39565 17.7882 6.05755C18.039 5.84983 18.329 5.6946 18.6409 5.60107C18.9529 5.50753 19.2804 5.4776 19.6041 5.51305C20.9507 5.66338 22.1974 7.0118 21.9746 9.29705C21.9035 10.4409 21.392 11.5126 20.5474 12.2872C20.1428 12.6316 19.6312 12.8247 19.1 12.8336V12.8336ZM18.352 8.89189C18.23 10.134 18.748 10.9608 19.0697 11.0002C19.1892 10.9939 19.3031 10.947 19.3924 10.8673C19.853 10.4014 20.123 9.78026 20.1495 9.12564C20.2412 8.15122 19.9295 7.40047 19.4006 7.3418C19.3777 7.33355 18.439 7.25197 18.352 8.89189ZM14.667 22.0002C13.8834 22.0159 13.1096 21.8242 12.4239 21.4447C11.985 21.2135 11.4964 21.0927 11.0003 21.0927C10.5042 21.0927 10.0156 21.2135 9.5767 21.4447C6.81479 22.993 3.59546 21.2916 3.66696 17.4169C3.66696 13.1681 7.79837 9.16689 11.0003 9.16689C14.2022 9.16689 18.3336 13.1672 18.3336 17.4169C18.3336 20.1156 16.8257 22.0002 14.667 22.0002ZM11.0003 19.2502C11.7837 19.2348 12.5574 19.4261 13.2434 19.8048C15.294 20.9213 16.5324 19.4079 16.5003 17.4169C16.5003 14.3186 13.2727 11.0002 11.0003 11.0002C8.72787 11.0002 5.50029 14.3186 5.50029 17.4169C5.47096 19.4051 6.69929 20.9213 8.75721 19.8048C9.44319 19.4261 10.2169 19.2348 11.0003 19.2502Z" />
</svg>
