<svg width="23" height="23" viewBox="0 0 23 23" fill="none" xmlns="http://www.w3.org/2000/svg">
<g clip-path="url(#clip0_1697_121530)">
<path d="M16.4004 7.7147C16.1256 7.7877 15.8787 7.94054 15.6908 8.15387C15.5029 8.36721 15.3825 8.63148 15.3447 8.91325C15.307 9.19503 15.3537 9.48166 15.4789 9.73692C15.604 9.99217 15.8021 10.2046 16.048 10.3473C16.2938 10.49 16.5765 10.5566 16.8602 10.5386C17.144 10.5207 17.416 10.419 17.6419 10.2465C17.8679 10.074 18.0376 9.83831 18.1296 9.56933C18.2217 9.30034 18.2319 9.01011 18.1589 8.73533C18.1105 8.55283 18.0266 8.38166 17.912 8.23159C17.7974 8.08153 17.6544 7.95551 17.4911 7.86073C17.3278 7.76595 17.1474 7.70427 16.9603 7.67922C16.7731 7.65416 16.5829 7.66622 16.4004 7.7147Z"/>
<path d="M11.6113 4.8397C11.3366 4.9127 11.0896 5.06554 10.9017 5.27887C10.7138 5.49221 10.5934 5.75647 10.5557 6.03825C10.518 6.32003 10.5646 6.60666 10.6898 6.86192C10.815 7.11717 11.013 7.32958 11.2589 7.47228C11.5048 7.61498 11.7874 7.68158 12.0712 7.66364C12.3549 7.6457 12.6269 7.54404 12.8529 7.3715C13.0788 7.19897 13.2485 6.96331 13.3406 6.69433C13.4326 6.42534 13.4428 6.13511 13.3699 5.86033C13.3215 5.67783 13.2376 5.50666 13.123 5.35659C13.0084 5.20653 12.8653 5.08051 12.702 4.98573C12.5387 4.89095 12.3584 4.82927 12.1712 4.80422C11.9841 4.77916 11.7938 4.79122 11.6113 4.8397Z"/>
<path d="M6.81838 7.7147C6.54362 7.7877 6.29668 7.94054 6.10877 8.15387C5.92087 8.36721 5.80044 8.63148 5.76271 8.91325C5.72499 9.19503 5.77166 9.48166 5.89683 9.73692C6.022 9.99217 6.22005 10.2046 6.46593 10.3473C6.71181 10.49 6.99448 10.5566 7.2782 10.5386C7.56193 10.5207 7.83396 10.419 8.05991 10.2465C8.28586 10.074 8.45558 9.83831 8.5476 9.56933C8.63963 9.30034 8.64983 9.01011 8.57692 8.73533C8.52849 8.55283 8.44459 8.38166 8.33 8.23159C8.21541 8.08153 8.07238 7.95551 7.90907 7.86073C7.74577 7.76595 7.5654 7.70427 7.37825 7.67922C7.19111 7.65416 7.00086 7.66622 6.81838 7.7147Z"/>
<path d="M6.81838 13.4647C6.54362 13.5377 6.29668 13.6905 6.10877 13.9039C5.92087 14.1172 5.80044 14.3815 5.76271 14.6633C5.72499 14.945 5.77166 15.2317 5.89683 15.4869C6.022 15.7422 6.22005 15.9546 6.46593 16.0973C6.71181 16.24 6.99448 16.3066 7.2782 16.2886C7.56193 16.2707 7.83396 16.169 8.05991 15.9965C8.28586 15.824 8.45558 15.5883 8.5476 15.3193C8.63963 15.0503 8.64983 14.7601 8.57692 14.4853C8.52849 14.3028 8.44459 14.1317 8.33 13.9816C8.21541 13.8315 8.07238 13.7055 7.90907 13.6107C7.74577 13.5159 7.5654 13.4543 7.37825 13.4292C7.19111 13.4042 7.00086 13.4162 6.81838 13.4647Z"/>
<path d="M11.9778 0.00694598C10.4348 -0.0467032 8.89689 0.21087 7.45563 0.764309C6.01438 1.31775 4.69932 2.15572 3.58885 3.22827C2.47838 4.30082 1.59524 5.58599 0.992082 7.00715C0.388922 8.42832 0.0780932 9.95638 0.078125 11.5002C0.0816758 14.5491 1.29442 17.4721 3.45032 19.628C5.60622 21.7839 8.52923 22.9967 11.5781 23.0002C11.902 23.0002 12.2202 22.9792 12.5365 22.9523C12.7764 22.9321 13 22.8223 13.1626 22.6447C13.3253 22.4671 13.4151 22.2348 13.4143 21.994L13.3836 18.5555C13.3759 17.876 13.5708 17.2096 13.9435 16.6414C14.3163 16.0733 14.8499 15.6291 15.4762 15.3655C16.1026 15.102 16.7933 15.0312 17.4601 15.1621C18.1269 15.2929 18.7396 15.6196 19.2199 16.1002L19.3157 16.1961C19.5333 16.4155 19.8028 16.5763 20.0992 16.6636C20.3956 16.7509 20.7092 16.7618 21.011 16.6954C21.3079 16.633 21.5843 16.4971 21.8149 16.3C22.0455 16.1029 22.2229 15.851 22.3306 15.5674C22.8597 14.1781 23.1127 12.6989 23.0753 11.2127C22.9674 8.29367 21.7668 5.52166 19.7113 3.44615C17.6559 1.37064 14.8956 0.143137 11.9778 0.00694598ZM20.5855 14.7653L20.5721 14.7519C19.823 14.004 18.8684 13.4959 17.8297 13.2922C16.791 13.0884 15.7152 13.1983 14.7391 13.6077C13.763 14.0172 12.9308 14.7077 12.3483 15.5915C11.7658 16.4753 11.4593 17.5124 11.4679 18.5708L11.4909 21.0836C8.94926 21.0721 6.51624 20.0515 4.72711 18.2462C2.93797 16.4409 1.93927 13.9988 1.95071 11.4571C1.96215 8.91545 2.98278 6.48244 4.7881 4.6933C6.59341 2.90417 9.03551 1.90547 11.5772 1.9169C11.6893 1.9169 11.8024 1.9169 11.9155 1.92265C14.3462 2.03682 16.6453 3.05995 18.3572 4.78928C20.0692 6.51862 21.069 8.82796 21.1586 11.2597C21.1902 12.4515 20.9968 13.6385 20.5884 14.7586L20.5855 14.7653Z"/>
</g>
<defs>
<clipPath id="clip0_1697_121530">
<rect width="23" height="23" fll="whiite"/>
</clipPath>
</defs>
</svg>
