<svg width="22" height="22" viewBox="0 0 22 22" fill="none" xmlns="http://www.w3.org/2000/svg">
<g clip-path="url(#clip0_1697_135613)">
<path d="M10.8416 15.0902C9.60364 13.3993 8.47535 11.6308 7.46372 9.7955C8.85889 7.06658 10.0826 3.83992 10.0826 0.916667C10.0826 0.673551 9.98606 0.440394 9.81416 0.268485C9.64225 0.0965771 9.40909 0 9.16597 0C8.92286 0 8.6897 0.0965771 8.51779 0.268485C8.34589 0.440394 8.24931 0.673551 8.24931 0.916667C8.11893 3.28954 7.49615 5.60931 6.42056 7.72842C5.34207 5.6099 4.71616 3.29015 4.58264 0.916667C4.58264 0.673551 4.48606 0.440394 4.31416 0.268485C4.14225 0.0965771 3.90909 0 3.66597 0C3.42286 0 3.1897 0.0965771 3.01779 0.268485C2.84589 0.440394 2.74931 0.673551 2.74931 0.916667C2.74931 3.82617 3.97948 7.05833 5.37831 9.79458C4.37024 11.6343 3.23862 13.4035 1.99122 15.0902C1.51054 15.3351 1.09005 15.6834 0.759952 16.1101C0.429853 16.5368 0.198335 17.0313 0.0820248 17.558C-0.0342857 18.0848 -0.0325026 18.6308 0.0872459 19.1569C0.206994 19.6829 0.441737 20.1758 0.774616 20.6004C1.10749 21.0249 1.53025 21.3705 2.01252 21.6122C2.4948 21.854 3.02462 21.9859 3.56395 21.9986C4.10327 22.0113 4.63872 21.9044 5.13183 21.6856C5.62494 21.4668 6.06349 21.1416 6.41598 20.7332C6.76868 21.1405 7.20713 21.4648 7.6999 21.6827C8.19267 21.9007 8.72755 22.0069 9.26621 21.9939C9.80487 21.9808 10.334 21.8487 10.8156 21.6071C11.2972 21.3655 11.7194 21.0203 12.0519 20.5963C12.3844 20.1723 12.619 19.68 12.7389 19.1547C12.8588 18.6294 12.861 18.0841 12.7453 17.5578C12.6296 17.0316 12.399 16.5374 12.0698 16.1108C11.7407 15.6842 11.3213 15.3356 10.8416 15.0902ZM3.66597 20.1667C3.30338 20.1667 2.94892 20.0591 2.64743 19.8577C2.34594 19.6562 2.11096 19.3699 1.9722 19.0349C1.83343 18.6999 1.79713 18.3313 1.86787 17.9757C1.93861 17.62 2.11322 17.2934 2.36961 17.037C2.62601 16.7806 2.95268 16.606 3.30831 16.5352C3.66394 16.4645 4.03256 16.5008 4.36756 16.6396C4.70256 16.7783 4.98889 17.0133 5.19034 17.3148C5.39179 17.6163 5.49931 17.9707 5.49931 18.3333C5.49931 18.8196 5.30615 19.2859 4.96234 19.6297C4.61852 19.9735 4.1522 20.1667 3.66597 20.1667ZM4.47539 14.7629C5.01164 13.9892 5.70097 12.9378 6.42056 11.6994C7.13923 12.9369 7.82672 13.9911 8.36114 14.762C7.60474 14.9359 6.92341 15.3462 6.41598 15.9335C5.90941 15.3476 5.2299 14.9377 4.47539 14.7629ZM9.16597 20.1667C8.80338 20.1667 8.44892 20.0591 8.14743 19.8577C7.84594 19.6562 7.61096 19.3699 7.4722 19.0349C7.33344 18.6999 7.29713 18.3313 7.36787 17.9757C7.43861 17.62 7.61322 17.2934 7.86961 17.037C8.12601 16.7806 8.45268 16.606 8.80831 16.5352C9.16394 16.4645 9.53256 16.5008 9.86756 16.6396C10.2026 16.7783 10.4889 17.0133 10.6903 17.3148C10.8918 17.6163 10.9993 17.9707 10.9993 18.3333C10.9993 18.8196 10.8062 19.2859 10.4623 19.6297C10.1185 19.9735 9.6522 20.1667 9.16597 20.1667ZM16.4993 5.5V7.33333H21.0826C21.3258 7.33333 21.5589 7.42991 21.7308 7.60182C21.9027 7.77373 21.9993 8.00688 21.9993 8.25C21.9993 8.49311 21.9027 8.72627 21.7308 8.89818C21.5589 9.07009 21.3258 9.16667 21.0826 9.16667H16.4993V11H21.0826C21.3258 11 21.5589 11.0966 21.7308 11.2685C21.9027 11.4404 21.9993 11.6735 21.9993 11.9167C21.9993 12.1598 21.9027 12.3929 21.7308 12.5648C21.5589 12.7368 21.3258 12.8333 21.0826 12.8333H16.4993V14.6667H21.0826C21.3258 14.6667 21.5589 14.7632 21.7308 14.9352C21.9027 15.1071 21.9993 15.3402 21.9993 15.5833C21.9993 15.8264 21.9027 16.0596 21.7308 16.2315C21.5589 16.4034 21.3258 16.5 21.0826 16.5H16.4993V21.0833C16.4993 21.3264 16.4027 21.5596 16.2308 21.7315C16.0589 21.9034 15.8258 22 15.5826 22C15.3395 22 15.1064 21.9034 14.9345 21.7315C14.7626 21.5596 14.666 21.3264 14.666 21.0833V4.58333C14.6674 3.3682 15.1508 2.20326 16.01 1.34403C16.8692 0.484808 18.0342 0.00145554 19.2493 0L21.0826 0C21.3258 0 21.5589 0.0965771 21.7308 0.268485C21.9027 0.440394 21.9993 0.673551 21.9993 0.916667C21.9993 1.15978 21.9027 1.39294 21.7308 1.56485C21.5589 1.73676 21.3258 1.83333 21.0826 1.83333H19.2493C18.6826 1.83568 18.1304 2.01308 17.6683 2.34125C17.2063 2.66942 16.8569 3.13233 16.668 3.66667H21.0826C21.3258 3.66667 21.5589 3.76324 21.7308 3.93515C21.9027 4.10706 21.9993 4.34022 21.9993 4.58333C21.9993 4.82645 21.9027 5.05961 21.7308 5.23151C21.5589 5.40342 21.3258 5.5 21.0826 5.5H16.4993Z"/>
</g>
<defs>
<clipPath id="clip0_1697_135613">
<rect width="22" height="22"/>
</clipPath>
</defs>
</svg>
