<svg width="26" height="26" viewBox="0 0 26 26" fill="none" xmlns="http://www.w3.org/2000/svg">
<g clip-path="url(#clip0_1682_109565)">
<path d="M10.8052 20.5833H4.32262C4.03607 20.5833 3.76126 20.4692 3.55864 20.266C3.35602 20.0629 3.24219 19.7873 3.24219 19.5V4.33333C3.24219 4.04602 3.35602 3.77047 3.55864 3.5673C3.76126 3.36414 4.03607 3.25 4.32262 3.25H10.8052C11.3783 3.25 11.9279 3.47827 12.3331 3.8846C12.7384 4.29093 12.966 4.84203 12.966 5.41667C12.966 4.84203 13.1937 4.29093 13.5989 3.8846C14.0042 3.47827 14.5538 3.25 15.1269 3.25H21.6095C21.896 3.25 22.1708 3.36414 22.3735 3.5673C22.5761 3.77047 22.6899 4.04602 22.6899 4.33333V19.5C22.6899 19.7873 22.5761 20.0629 22.3735 20.266C22.1708 20.4692 21.896 20.5833 21.6095 20.5833H15.1269C14.5538 20.5833 14.0042 20.8116 13.5989 21.2179C13.1937 21.6243 12.966 22.1754 12.966 22.75C12.966 22.1754 12.7384 21.6243 12.3331 21.2179C11.9279 20.8116 11.3783 20.5833 10.8052 20.5833Z" stroke-width="2" stroke-linecap="round" stroke-linejoin="round"/>
<path d="M12.9648 5.4165V22.7498" stroke-width="2" stroke-linecap="round" stroke-linejoin="round"/>
<path d="M7.5625 7.5835H8.64293" stroke-width="2" stroke-linecap="round" stroke-linejoin="round"/>
<path d="M7.5625 11.9165H8.64293" stroke-width="2" stroke-linecap="round" stroke-linejoin="round"/>
<path d="M17.2852 7.5835H18.3656" stroke-width="2" stroke-linecap="round" stroke-linejoin="round"/>
<path d="M17.2852 11.9165H18.3656" stroke-width="2" stroke-linecap="round" stroke-linejoin="round"/>
<path d="M17.2852 16.25H18.3656" stroke-width="2" stroke-linecap="round" stroke-linejoin="round"/>
</g>
<defs>
<clipPath id="clip0_1682_109565">
<rect width="25.9303" height="26" fill="white"/>
</clipPath>
</defs>
</svg>
