<svg width="68" height="67" viewBox="0 0 68 67" fill="none" xmlns="http://www.w3.org/2000/svg">
<g opacity="0.5">
<path d="M42.375 22.3334H42.4029" stroke="#6D6D6D" stroke-width="4" stroke-linecap="round" stroke-linejoin="round"/>
<path d="M47.9583 11.1666H20.0416C15.4162 11.1666 11.6666 14.9162 11.6666 19.5416V47.4583C11.6666 52.0837 15.4162 55.8333 20.0416 55.8333H47.9583C52.5837 55.8333 56.3333 52.0837 56.3333 47.4583V19.5416C56.3333 14.9162 52.5837 11.1666 47.9583 11.1666Z" stroke="#6D6D6D" stroke-width="2.5" stroke-linecap="round" stroke-linejoin="round"/>
<path d="M11.6666 41.875L22.8333 30.7083C24.1065 29.4832 25.5507 28.8383 27.0208 28.8383C28.4909 28.8383 29.9351 29.4832 31.2083 30.7083L45.1666 44.6667" stroke="#6D6D6D" stroke-width="2.5" stroke-linecap="round" stroke-linejoin="round"/>
<path d="M39.5834 39.0834L42.375 36.2917C43.6482 35.0666 45.0924 34.4216 46.5625 34.4216C48.0327 34.4216 49.4769 35.0666 50.75 36.2917L56.3334 41.875" stroke="#6D6D6D" stroke-width="2.5" stroke-linecap="round" stroke-linejoin="round"/>
</g>
</svg>
