<svg width="24" height="18" viewBox="0 0 24 18" fill="none" xmlns="http://www.w3.org/2000/svg">
<path fill-rule="evenodd" clip-rule="evenodd" d="M24 17C24 17.5523 23.5523 18 23 18L1 18C0.447716 18 3.91405e-08 17.5523 8.74228e-08 17C1.35705e-07 16.4477 0.447716 16 1 16L23 16C23.5523 16 24 16.4477 24 17ZM19 9C19 9.55228 18.5523 10 18 10L1 10C0.447715 10 7.38523e-07 9.55228 7.86805e-07 9C8.35087e-07 8.44771 0.447715 8 1 8L18 8C18.5523 8 19 8.44772 19 9ZM23 2C23.5523 2 24 1.55228 24 1C24 0.447716 23.5523 -3.91406e-08 23 -8.74228e-08L1 -2.01072e-06C0.447717 -2.05901e-06 1.53447e-06 0.447714 1.48619e-06 0.999998C1.4379e-06 1.55228 0.447717 2 1 2L23 2Z" fill="#4F4F4F"/>
</svg>
