<svg width="24" height="20" viewBox="0 0 24 20" fill="none" xmlns="http://www.w3.org/2000/svg">
<path fill-rule="evenodd" clip-rule="evenodd" d="M24 18C24 19.1046 23.1046 20 22 20L2 20C0.89543 20 7.8281e-08 19.1046 1.74846e-07 18C2.7141e-07 16.8954 0.895432 16 2 16L22 16C23.1046 16 24 16.8954 24 18ZM19 10C19 11.1046 18.1046 12 17 12L2 12C0.89543 12 7.77663e-07 11.1046 8.74228e-07 10C9.70792e-07 8.89543 0.895431 8 2 8L17 8C18.1046 8 19 8.89543 19 10ZM22 4C23.1046 4 24 3.10457 24 2C24 0.89543 23.1046 -7.8281e-08 22 -1.74846e-07L2 -1.9233e-06C0.895433 -2.01987e-06 1.67017e-06 0.895428 1.57361e-06 2C1.47705e-06 3.10457 0.895431 4 2 4L22 4Z" fill="#4F4F4F"/>
</svg>
