<svg width="15" height="12" viewBox="0 0 15 12" fill="none" xmlns="http://www.w3.org/2000/svg">
<path fill-rule="evenodd" clip-rule="evenodd" d="M7.36625 8.75716C6.25903 8.75716 5.36145 7.90233 5.36145 6.84783C5.36145 5.79334 6.25903 4.9385 7.36625 4.9385C8.47347 4.9385 9.37104 5.79334 9.37104 6.84783C9.37104 7.90233 8.47347 8.75716 7.36625 8.75716ZM12.7124 1.75629C13.4475 1.75629 14.0489 2.32908 14.0489 3.02917V10.6665C14.0489 11.3666 13.4475 11.9394 12.7124 11.9394H2.02012C1.28503 11.9394 0.683594 11.3666 0.683594 10.6665V3.02917C0.683594 2.32908 1.28503 1.75629 2.02012 1.75629H4.13853L4.96049 0.897087C5.21443 0.636145 5.5753 0.483398 5.94953 0.483398H8.78297C9.1572 0.483398 9.51806 0.636145 9.76532 0.897087L10.594 1.75629H12.7124ZM7.36625 10.03C9.21066 10.03 10.7076 8.60441 10.7076 6.84783C10.7076 5.09125 9.21066 3.66562 7.36625 3.66562C5.52184 3.66562 4.02492 5.09125 4.02492 6.84783C4.02492 8.60441 5.52184 10.03 7.36625 10.03Z" fill="#4F4F4F"/>
</svg>
