<svg width="26" height="26" viewBox="0 0 26 26" fill="none" xmlns="http://www.w3.org/2000/svg">
<g clip-path="url(#clip0_2_4877)">
<path d="M12.966 11.9167V6.5M5.40305 18.4167H3.24219V11.9167L5.40305 6.5H15.1269L19.4486 11.9167H20.529C21.1021 11.9167 21.6518 12.1449 22.057 12.5513C22.4622 12.9576 22.6899 13.5087 22.6899 14.0833V18.4167H20.529H5.40305ZM16.2073 18.4167H9.72476H16.2073ZM3.24219 11.9167H19.4486H3.24219Z" stroke-width="2" stroke-linecap="round" stroke-linejoin="round"/>
<path d="M7.5632 20.5833C8.75661 20.5833 9.72406 19.6133 9.72406 18.4167C9.72406 17.22 8.75661 16.25 7.5632 16.25C6.36979 16.25 5.40234 17.22 5.40234 18.4167C5.40234 19.6133 6.36979 20.5833 7.5632 20.5833Z" stroke-width="2" stroke-linecap="round" stroke-linejoin="round"/>
<path d="M18.3679 20.5833C19.5613 20.5833 20.5287 19.6133 20.5287 18.4167C20.5287 17.22 19.5613 16.25 18.3679 16.25C17.1745 16.25 16.207 17.22 16.207 18.4167C16.207 19.6133 17.1745 20.5833 18.3679 20.5833Z" stroke-width="2" stroke-linecap="round" stroke-linejoin="round"/>
</g>
<defs>
<clipPath id="clip0_2_4877">
<rect width="25.9303" height="26"/>
</clipPath>
</defs>
</svg>
