<svg width="21" height="21" viewBox="0 0 21 21" fill="none" xmlns="http://www.w3.org/2000/svg">
<path d="M21 10.0627C20.9995 9.4593 20.8207 8.86947 20.4861 8.36729C20.1514 7.8651 19.6758 7.47293 19.119 7.24001C18.7636 5.21211 17.7043 3.37443 16.1273 2.0502C14.5504 0.725963 12.5568 0 10.4973 0C8.43774 0 6.44417 0.725963 4.86721 2.0502C3.29026 3.37443 2.23093 5.21211 1.87555 7.24001C1.24008 7.50726 0.713366 7.98096 0.380573 8.58451C0.0477805 9.18807 -0.0716341 9.88619 0.0416391 10.566C0.154912 11.2458 0.494251 11.8675 1.00478 12.3306C1.51532 12.7938 2.16719 13.0712 2.85501 13.1181C3.30709 14.0772 3.92021 14.9517 4.66776 15.7037C3.57239 16.8993 2.87723 18.4066 2.67907 20.0156C2.66473 20.1297 2.67301 20.2454 2.70343 20.3563C2.73385 20.4671 2.78583 20.5709 2.85638 20.6617C2.92694 20.7524 3.01469 20.8284 3.11463 20.8853C3.21457 20.9421 3.32474 20.9787 3.43883 20.993C3.47485 20.9974 3.51109 20.9997 3.54737 21C3.76039 20.9998 3.96601 20.9219 4.1257 20.7809C4.28538 20.64 4.38817 20.4457 4.4148 20.2344C4.57349 18.9658 5.12958 17.7799 6.00347 16.8465C7.30691 17.8082 8.87664 18.3423 10.4964 18.375C12.1113 18.342 13.6765 17.8102 14.9771 16.8526C15.8472 17.7844 16.401 18.967 16.5596 20.2318C16.586 20.4432 16.6887 20.6377 16.8484 20.7788C17.0081 20.92 17.2139 20.998 17.427 20.9982C17.4636 20.9981 17.5001 20.9957 17.5364 20.9912C17.7667 20.9624 17.9761 20.8434 18.1185 20.6602C18.261 20.4771 18.3249 20.245 18.2962 20.0148C18.0994 18.4098 17.4078 16.9058 16.3171 15.7116C17.0688 14.9573 17.6852 14.0794 18.1395 13.1164C18.9148 13.0649 19.6416 12.7209 20.1727 12.1539C20.7038 11.5869 20.9995 10.8394 21 10.0627ZM17.7159 11.3516C17.5117 11.3142 17.3009 11.351 17.1216 11.4555C16.9423 11.56 16.8062 11.7252 16.7382 11.9212C15.9364 14.1944 13.2361 16.6251 10.4964 16.6251C7.75669 16.6251 5.05639 14.1926 4.25462 11.9194C4.18637 11.7235 4.05034 11.5585 3.87106 11.454C3.69177 11.3496 3.48105 11.3126 3.2769 11.3498C3.20416 11.3641 3.13041 11.3726 3.05633 11.3752C2.73141 11.3713 2.41947 11.2471 2.18084 11.0266C1.94221 10.8062 1.79385 10.505 1.76445 10.1815C1.73505 9.85805 1.8267 9.53515 2.02167 9.27529C2.21665 9.01544 2.50109 8.83708 2.82 8.77473C3.0061 8.74101 3.17627 8.64793 3.30502 8.50945C3.43378 8.37095 3.5142 8.1945 3.53424 8.0065C3.65114 6.88767 4.03737 5.81378 4.6599 4.87667C5.28243 3.93955 6.12274 3.1671 7.10897 2.62535C6.96565 3.18193 6.95904 3.76489 7.08972 4.32457C7.26767 5.06471 7.68217 5.72668 8.27038 6.21013C8.85858 6.69357 9.58843 6.97214 10.3493 7.0036C11.1101 7.03506 11.8605 6.8177 12.4866 6.38446C13.1128 5.95122 13.5805 5.32574 13.819 4.60281C13.8579 4.47439 13.866 4.33862 13.8427 4.20649C13.8193 4.07436 13.7652 3.94957 13.6847 3.84223C13.6041 3.73489 13.4995 3.64801 13.3791 3.58861C13.2587 3.52922 13.1261 3.49897 12.9919 3.50033H12.8597C12.6987 3.50561 12.5436 3.56195 12.4167 3.66121C12.2899 3.76046 12.198 3.89749 12.1542 4.05245C12.0525 4.35835 11.8682 4.63022 11.6216 4.83805C11.3751 5.04589 11.076 5.18161 10.7572 5.23026C10.4384 5.2789 10.1124 5.23858 9.81503 5.11373C9.51771 4.98888 9.26067 4.78436 9.07226 4.52273C8.88385 4.2611 8.7714 3.95253 8.74731 3.63107C8.72322 3.3096 8.78842 2.98772 8.93573 2.70095C9.08304 2.41418 9.30673 2.17366 9.58212 2.00592C9.85751 1.83818 10.1739 1.74975 10.4964 1.75037C12.2258 1.74623 13.8953 2.38377 15.1815 3.53952C16.4676 4.69527 17.279 6.28701 17.4585 8.0065C17.4786 8.1945 17.559 8.37095 17.6877 8.50945C17.8165 8.64793 17.9867 8.74101 18.1728 8.77473C18.4917 8.83708 18.7761 9.01544 18.9711 9.27529C19.1661 9.53515 19.2577 9.85805 19.2283 10.1815C19.1989 10.505 19.0506 10.8062 18.8119 11.0266C18.5733 11.2471 18.2614 11.3713 17.9364 11.3752C17.8624 11.3731 17.7887 11.3652 17.7159 11.3516Z"/>
<path d="M8.30905 11.3754C9.03417 11.3754 9.622 10.7878 9.622 10.063C9.622 9.3381 9.03417 8.75049 8.30905 8.75049C7.58392 8.75049 6.99609 9.3381 6.99609 10.063C6.99609 10.7878 7.58392 11.3754 8.30905 11.3754Z"/>
<path d="M12.684 11.3754C13.4092 11.3754 13.997 10.7878 13.997 10.063C13.997 9.3381 13.4092 8.75049 12.684 8.75049C11.9589 8.75049 11.3711 9.3381 11.3711 10.063C11.3711 10.7878 11.9589 11.3754 12.684 11.3754Z"/>
</svg>
