<svg width="338" height="285" viewBox="0 0 338 285" fill="none" xmlns="http://www.w3.org/2000/svg">
<path d="M88.1358 210.892C106.856 216.282 121.306 232.462 138.306 241.432C155.306 250.402 174.706 256.892 193.956 258.202C241.066 261.422 259.656 225.102 282.866 191.202C301.326 164.202 347.756 135.532 334.776 99.1423C321.636 62.2923 270.966 41.7123 237.776 28.7023C207.116 16.7023 153.626 -2.99769 124.426 22.2523C91.0858 51.0623 129.526 108.512 80.3358 117.812C41.0458 125.242 -5.47419 145.232 0.525807 192.142C6.88581 241.872 57.2358 201.982 88.1358 210.892Z" fill="#32cd71"/>
<path d="M88.1358 210.892C106.856 216.282 121.306 232.462 138.306 241.432C155.306 250.402 174.706 256.892 193.956 258.202C241.066 261.422 259.656 225.102 282.866 191.202C301.326 164.202 347.756 135.532 334.776 99.1423C321.636 62.2923 270.966 41.7123 237.776 28.7023C207.116 16.7023 153.626 -2.99769 124.426 22.2523C91.0858 51.0623 129.526 108.512 80.3358 117.812C41.0458 125.242 -5.47419 145.232 0.525807 192.142C6.88581 241.872 57.2358 201.982 88.1358 210.892Z" fill="#F0F5FE"/>
<path d="M50.1057 102.539L35.4108 147.711C34.6316 150.107 35.9417 152.68 38.3369 153.459L56.3508 159.319C58.746 160.098 61.3193 158.788 62.0985 156.393L76.7934 111.221C77.5725 108.825 76.2625 106.252 73.8673 105.473L55.8534 99.6128C53.4582 98.8337 50.8849 100.144 50.1057 102.539Z" fill="#263238"/>
<path opacity="0.3" d="M50.1057 102.539L35.4108 147.711C34.6316 150.107 35.9417 152.68 38.3369 153.459L56.3508 159.319C58.746 160.098 61.3193 158.788 62.0985 156.393L76.7934 111.221C77.5725 108.825 76.2625 106.252 73.8673 105.473L55.8534 99.6128C53.4582 98.8337 50.8849 100.144 50.1057 102.539Z" fill="black"/>
<path d="M125.49 122.82L107.949 117.11L108.622 117.325C109.836 114.82 109.388 113.287 110.846 110.914C112.715 108.026 115.789 104.624 118.275 99.1291C120.144 95.0171 119.901 79.8589 119.901 79.8589C119.901 79.8589 116.845 78.8309 116.275 78.6907C112.734 77.7562 110.79 81.2046 109.369 86.167C107.715 91.9331 96.8276 98.8487 89.8373 102.419C82.8469 105.989 74.7258 111.259 74.679 111.297L61.8945 151.875L67.4083 157.164C71.2361 160.614 75.673 163.32 80.4919 165.145L108.734 174.304L125.49 122.82Z" fill="#263238"/>
<path d="M136.703 130.081C136.843 129.652 136.897 129.199 136.862 128.748C136.827 128.298 136.704 127.859 136.499 127.456C136.294 127.053 136.012 126.695 135.669 126.401C135.325 126.108 134.927 125.885 134.498 125.745L112.003 118.437C113.218 115.932 113.443 114.624 114.9 112.25C116.77 109.362 119.844 105.961 122.33 100.466C124.816 94.9704 126.199 83.27 121.47 80.5691C116.741 77.8683 115.069 81.7467 113.415 87.5221C111.76 93.2976 100.882 100.204 93.8826 103.774C86.8829 107.344 78.7805 112.624 78.7337 112.624L65.9492 153.183L71.463 158.472C75.2919 161.923 79.7283 164.632 84.5466 166.463L115.742 176.602C116.171 176.744 116.624 176.799 117.075 176.764C117.526 176.73 117.965 176.607 118.368 176.402C118.771 176.197 119.13 175.914 119.423 175.57C119.717 175.226 119.939 174.827 120.078 174.397L120.844 172.042C121.085 171.31 121.072 170.518 120.807 169.794C120.543 169.07 120.042 168.456 119.386 168.051L118.34 167.023C118.213 166.928 118.12 166.795 118.075 166.643C118.03 166.491 118.036 166.328 118.09 166.18C118.145 166.031 118.246 165.903 118.378 165.816C118.51 165.729 118.667 165.687 118.826 165.696L121.508 165.883C123.115 166.042 125.246 165.276 125.788 163.743L127.274 159.164C127.51 158.44 127.5 157.659 127.245 156.942C126.989 156.225 126.503 155.613 125.863 155.202L123.265 153.426C123.136 153.337 123.038 153.209 122.987 153.061C122.935 152.913 122.932 152.752 122.978 152.603C123.024 152.453 123.116 152.321 123.242 152.227C123.367 152.133 123.519 152.082 123.676 152.08L127.9 152.024C128.618 152.014 129.315 151.78 129.893 151.355C130.471 150.929 130.902 150.333 131.124 149.65L132.731 144.697C132.961 143.993 132.957 143.234 132.721 142.533C132.486 141.831 132.031 141.223 131.423 140.8L128.162 138.548C128.032 138.458 127.934 138.33 127.883 138.181C127.832 138.032 127.83 137.871 127.876 137.72C127.923 137.57 128.017 137.439 128.144 137.345C128.271 137.252 128.425 137.202 128.582 137.202H131.76C132.51 137.233 133.251 137.018 133.868 136.59C134.486 136.161 134.946 135.543 135.18 134.829L136.703 130.081Z" fill="#32cd71"/>
<path d="M53.4807 103.632L38.7858 148.805C38.0066 151.2 39.3167 153.773 41.7119 154.552L59.7258 160.412C62.121 161.191 64.6943 159.881 65.4734 157.486L80.1684 112.314C80.9475 109.918 79.6375 107.345 77.2423 106.566L59.2284 100.706C56.8332 99.9267 54.2599 101.237 53.4807 103.632Z" fill="#263238"/>
<path d="M92.4925 170.625L92.207 171.573L97.5943 173.195L97.8797 172.246L92.4925 170.625Z" fill="#32cd71"/>
<path opacity="0.4" d="M92.4925 170.625L92.207 171.573L97.5943 173.195L97.8797 172.246L92.4925 170.625Z" fill="black"/>
<path d="M102.996 173.77L102.711 174.719L115.597 178.597L115.883 177.648L102.996 173.77Z" fill="#32cd71"/>
<path opacity="0.4" d="M102.996 173.77L102.711 174.719L115.597 178.597L115.883 177.648L102.996 173.77Z" fill="black"/>
<path d="M159.256 11.105C154.676 12.5161 151.658 30.7303 161.125 36.6179C170.592 42.5055 191.385 33.6928 191.385 33.6928C191.385 33.6928 188.236 29.9546 189.282 20.0205C190.31 10.2919 190.731 -2.40849 174.563 0.395134C164.022 2.17076 158.527 7.95556 159.256 11.105Z" fill="#263238"/>
<path d="M199.481 55.9348C199.696 58.2151 199.967 60.7103 200.313 63.0934C200.659 65.4765 201.014 67.9063 201.49 70.28C202.375 74.9928 203.625 79.6296 205.228 84.1486L205.855 85.7934C205.967 86.0924 206.042 86.2419 206.135 86.4662C206.228 86.6905 206.35 86.8961 206.462 87.1204C206.982 88.0774 207.566 88.9984 208.21 89.8773C209.625 91.7941 211.141 93.6346 212.752 95.3911C214.368 97.2041 216.06 98.9891 217.807 100.737C219.555 102.484 221.331 104.251 223.097 105.961L220.592 109.185C216.275 106.372 212.168 103.248 208.303 99.8395C206.313 98.0956 204.44 96.2224 202.696 94.2323C201.758 93.1614 200.902 92.0212 200.135 90.8212C199.939 90.4848 199.743 90.1764 199.556 89.8212C199.369 89.4661 199.154 89.0736 199.042 88.7932L198.219 86.9242C197.163 84.488 196.252 81.9915 195.491 79.4478C194.687 76.9433 194.089 74.4013 193.519 71.8594C192.949 69.3174 192.481 66.7661 192.117 64.2055C191.752 61.6449 191.435 59.1123 191.285 56.3834L199.481 55.9348Z" fill="#FFB573"/>
<path d="M196.871 46.6362C200.189 47.4772 202.478 61.1402 202.478 61.1402L189.843 69.7754C189.843 69.7754 184.619 53.5798 187.171 49.9351C189.843 46.1315 192.021 45.4026 196.871 46.6362Z" fill="#263238"/>
<path opacity="0.2" d="M196.571 49.6829L199.122 63.458L193.973 66.9438L196.571 49.6829Z" fill="black"/>
<path d="M189.115 71.1771L203.385 60.9532L203.096 59.6355L188.152 69.6818L189.115 71.1771Z" fill="#32cd71"/>
<path d="M178.91 276.58H186.966L187.499 257.927H179.443L178.91 276.58Z" fill="#FFB573"/>
<path d="M123.203 252.842L130.661 255.88L140.109 239.591L132.651 236.544L123.203 252.842Z" fill="#FFB573"/>
<path d="M132.06 254.768L124.285 250.095C124.153 250.011 123.994 249.98 123.84 250.008C123.686 250.036 123.548 250.12 123.453 250.244L118.911 255.852C118.804 255.996 118.727 256.161 118.688 256.336C118.648 256.512 118.646 256.693 118.681 256.87C118.716 257.046 118.788 257.213 118.892 257.36C118.997 257.506 119.13 257.629 119.285 257.721C122.023 259.291 123.425 259.908 126.846 261.936C128.958 263.188 133.901 267.477 136.808 269.197C139.714 270.916 141.574 268.15 140.546 267.169C137.118 264.068 134.522 260.158 132.995 255.796C132.814 255.354 132.483 254.99 132.06 254.768Z" fill="#263238"/>
<path d="M187.239 275.645H178.192C178.036 275.642 177.883 275.696 177.764 275.798C177.645 275.899 177.568 276.041 177.547 276.197L176.519 283.355C176.5 283.536 176.518 283.719 176.574 283.892C176.63 284.065 176.722 284.224 176.844 284.359C176.966 284.494 177.114 284.602 177.281 284.675C177.447 284.749 177.627 284.786 177.809 284.785C180.958 284.729 182.482 284.551 186.463 284.551C188.911 284.551 193.939 284.804 197.36 284.804C200.78 284.804 200.92 281.458 199.509 281.159C193.201 279.795 190.715 277.925 188.584 276.14C188.209 275.82 187.732 275.644 187.239 275.645Z" fill="#263238"/>
<g opacity="0.2">
<path opacity="0.2" d="M187.496 257.927L187.216 267.543H179.16L179.441 257.927H187.496Z" fill="black"/>
<path opacity="0.2" d="M132.648 236.553L140.105 239.6L135.227 247.992L127.77 244.946L132.648 236.553Z" fill="black"/>
</g>
<path d="M196.869 46.6363C196.869 46.6363 200.701 47.982 193.019 95.2323H160.31C160.861 81.9152 160.88 73.7379 154.516 46.3839C159.093 45.423 163.734 44.7983 168.403 44.5149C173.35 44.164 178.315 44.164 183.262 44.5149C189.626 45.1503 196.869 46.6363 196.869 46.6363Z" fill="#263238"/>
<path d="M169.871 27.8425C170.806 32.6274 171.74 41.384 168.395 44.5708C171.499 50.0457 176.039 54.5694 181.525 57.6544C188.16 52.3555 183.254 44.5708 183.254 44.5708C177.918 43.2998 178.058 39.3467 178.983 35.6273L169.871 27.8425Z" fill="#FFB573"/>
<path opacity="0.2" d="M173.584 31.02L178.986 35.6273C178.757 36.4909 178.604 37.3726 178.528 38.2627C176.49 37.973 173.285 36.2348 172.855 34.0199C172.649 32.9732 173.416 31.5153 173.584 31.02Z" fill="black"/>
<path d="M161.854 20.17C164.069 27.8519 164.836 31.1508 169.658 34.2722C176.91 38.9449 185.863 34.5806 185.994 26.3847C186.115 19.0205 182.48 7.69387 174.172 6.29206C172.34 5.97311 170.457 6.12769 168.702 6.74112C166.947 7.35456 165.378 8.40648 164.144 9.79699C162.91 11.1875 162.052 12.8704 161.651 14.6859C161.25 16.5014 161.32 18.3892 161.854 20.17Z" fill="#FFB573"/>
<path d="M166.181 14.9179C168.106 17.6654 165.984 25.1978 162.826 25.9081C160.293 26.4314 158.919 22.254 158.471 20.5718C158.36 20.1447 158.338 19.6995 158.405 19.2635L159.237 13.8244C159.353 13.0547 159.741 12.352 160.33 11.8432L166.265 6.72194C166.718 6.32983 167.271 6.07104 167.863 5.97431L176.274 4.58184C176.886 4.47891 177.515 4.5535 178.087 4.79679C178.59 5.0093 179.033 5.34504 179.373 5.77316C179.713 6.20128 179.94 6.70804 180.033 7.24683C180.126 7.78562 180.082 8.33917 179.905 8.85656C179.729 9.37396 179.425 9.8386 179.021 10.2078C177.307 11.8155 175.287 13.0611 173.081 13.8704C170.874 14.6797 168.528 15.0359 166.181 14.9179Z" fill="#263238"/>
<path d="M193.02 95.251C193.02 95.251 199.375 157.295 198.842 181.864C198.254 207.414 188.908 265.683 188.908 265.683H178.04C178.04 265.683 179.759 208.9 178.796 183.808C177.75 156.454 169.059 95.251 169.059 95.251H193.02Z" fill="#757E98"/>
<path d="M177.097 266.075H189.881L190.816 261.991L176.508 261.496L177.097 266.075Z" fill="#263238"/>
<path opacity="0.2" d="M178.907 110.689C186.944 126.848 180.515 156.342 177.674 167.304C176.216 150.828 173.767 130.689 171.852 115.904C173.066 107.531 175.197 103.279 178.907 110.689Z" fill="black"/>
<path d="M184.375 95.2509C184.375 95.2509 176.964 159.734 171.375 180.462C164.731 205.05 137.732 247.002 137.732 247.002L127.555 242.852C127.555 242.852 144.984 195.088 150.068 182.107C160.908 154.463 151.628 113.259 160.292 95.1948L184.375 95.2509Z" fill="#757E98"/>
<path d="M126.184 242.908L138.8 248.058L141.762 244.637L127.193 237.908L126.184 242.908Z" fill="#263238"/>
<path d="M174.741 19.4785C174.881 20.1047 175.33 20.5439 175.741 20.4131C176.152 20.2822 176.376 19.7309 176.236 19.0954C176.096 18.4599 175.648 18.0206 175.236 18.1141C174.825 18.2076 174.601 18.843 174.741 19.4785Z" fill="#263238"/>
<path d="M181.909 17.8805C182.049 18.516 182.498 18.9552 182.909 18.815C183.32 18.6748 183.544 18.1328 183.404 17.4973C183.264 16.8618 182.815 16.4226 182.404 16.5628C181.993 16.703 181.769 17.245 181.909 17.8805Z" fill="#263238"/>
<path d="M182.227 16.6375L183.647 15.8618C183.647 15.8618 183.133 17.2262 182.227 16.6375Z" fill="#263238"/>
<path d="M179.945 19.5159C180.833 20.8368 181.899 22.0287 183.113 23.0578C182.842 23.3619 182.507 23.603 182.133 23.7644C181.758 23.9258 181.353 24.0036 180.945 23.9923L179.945 19.5159Z" fill="#ED893E"/>
<path d="M178.041 27.2351C178.356 27.2167 178.668 27.173 178.976 27.1043C179.025 27.0911 179.068 27.0597 179.096 27.0165C179.123 26.9733 179.134 26.9213 179.125 26.8707C179.12 26.8467 179.109 26.8241 179.095 26.8041C179.081 26.7841 179.063 26.7671 179.042 26.7541C179.021 26.7411 178.998 26.7323 178.974 26.7282C178.95 26.7242 178.925 26.7249 178.901 26.7305C178.114 26.9242 177.293 26.9295 176.503 26.746C175.714 26.5625 174.98 26.1954 174.359 25.6745C174.342 25.6563 174.322 25.6419 174.3 25.632C174.277 25.6221 174.253 25.6169 174.228 25.6169C174.203 25.6169 174.179 25.6221 174.157 25.632C174.134 25.6419 174.114 25.6563 174.097 25.6745C174.062 25.711 174.043 25.7595 174.043 25.81C174.043 25.8604 174.062 25.909 174.097 25.9455C174.634 26.4147 175.26 26.7708 175.938 26.9924C176.615 27.214 177.331 27.2966 178.041 27.2351Z" fill="#263238"/>
<path d="M161.347 27.8333C161.779 28.4671 162.331 29.0096 162.972 29.4298C163.614 29.8499 164.332 30.1395 165.085 30.2818C167.104 30.6556 167.889 28.8052 167.216 27.0015C166.571 25.3754 164.749 23.2634 162.796 23.6746C162.371 23.7791 161.979 23.988 161.655 24.2825C161.332 24.577 161.087 24.9477 160.943 25.3608C160.799 25.774 160.761 26.2166 160.831 26.6484C160.902 27.0802 161.079 27.4875 161.347 27.8333Z" fill="#FFB573"/>
<path d="M171.751 16.6748C171.829 16.6987 171.911 16.698 171.988 16.6729C172.065 16.6478 172.133 16.5995 172.181 16.5347C173.218 15.1048 175.489 15.1235 175.508 15.1235C175.558 15.1247 175.608 15.1161 175.655 15.0979C175.702 15.0798 175.745 15.0526 175.782 15.0179C175.818 14.9832 175.847 14.9416 175.868 14.8956C175.888 14.8496 175.899 14.8 175.901 14.7497C175.901 14.6487 175.862 14.5516 175.792 14.4785C175.723 14.4054 175.628 14.362 175.527 14.3572C175.415 14.3572 172.826 14.3572 171.564 16.0861C171.534 16.1262 171.512 16.1721 171.5 16.2209C171.487 16.2698 171.485 16.3206 171.493 16.3703C171.501 16.4201 171.519 16.4677 171.545 16.5104C171.572 16.5531 171.607 16.59 171.648 16.6188C171.677 16.6462 171.713 16.6656 171.751 16.6748Z" fill="#263238"/>
<path d="M183.393 12.6283C183.459 12.6236 183.523 12.6023 183.578 12.5664C183.634 12.5304 183.68 12.481 183.711 12.4227C183.757 12.3322 183.764 12.2273 183.733 12.131C183.701 12.0346 183.633 11.9547 183.543 11.9087C183.011 11.6184 182.417 11.4617 181.811 11.4519C181.206 11.4421 180.607 11.5797 180.066 11.8527C180.022 11.8769 179.983 11.9099 179.951 11.9497C179.92 11.9895 179.897 12.0353 179.884 12.0843C179.871 12.1332 179.868 12.1843 179.875 12.2345C179.882 12.2846 179.9 12.3328 179.926 12.376C179.977 12.4615 180.059 12.5239 180.155 12.55C180.251 12.5762 180.353 12.5641 180.44 12.5162C180.872 12.3065 181.348 12.2038 181.828 12.2168C182.307 12.2298 182.777 12.3581 183.197 12.5909C183.258 12.6214 183.326 12.6344 183.393 12.6283Z" fill="#263238"/>
<path d="M135.156 257.824H135.249C135.432 257.785 135.601 257.698 135.741 257.574C135.88 257.449 135.985 257.291 136.044 257.113C136.093 257.009 136.114 256.894 136.104 256.779C136.094 256.664 136.054 256.554 135.988 256.459C135.399 255.618 132.492 255.721 132.165 255.74C132.127 255.74 132.09 255.752 132.058 255.774C132.027 255.795 132.002 255.826 131.988 255.861C131.968 255.892 131.957 255.927 131.957 255.964C131.957 256 131.968 256.036 131.988 256.067C132.782 256.768 134.156 257.936 135.156 257.824ZM132.642 256.085C133.801 256.085 135.371 256.216 135.679 256.655C135.707 256.699 135.721 256.749 135.721 256.8C135.721 256.852 135.707 256.902 135.679 256.945C135.644 257.064 135.578 257.172 135.488 257.258C135.398 257.343 135.286 257.403 135.165 257.431C134.633 257.553 133.707 257.048 132.642 256.085Z" fill="#32cd71"/>
<path d="M132.463 256.085C133.453 255.973 135.266 255.291 135.5 254.496C135.548 254.353 135.547 254.198 135.496 254.055C135.445 253.913 135.348 253.792 135.22 253.711C135.105 253.622 134.972 253.558 134.829 253.526C134.687 253.494 134.54 253.493 134.397 253.525C133.248 253.739 132.052 255.73 132.005 255.814C131.986 255.842 131.977 255.874 131.977 255.908C131.977 255.941 131.986 255.973 132.005 256.001C132.018 256.032 132.04 256.059 132.069 256.077C132.097 256.095 132.13 256.105 132.164 256.104L132.463 256.085ZM134.528 253.889C134.609 253.878 134.692 253.884 134.771 253.906C134.85 253.929 134.923 253.967 134.986 254.02C135.182 254.169 135.173 254.282 135.145 254.375C134.958 254.908 133.5 255.562 132.528 255.693C132.967 255.057 133.781 254.029 134.472 253.898L134.528 253.889Z" fill="#32cd71"/>
<path d="M190.264 277.103C190.952 277.161 191.64 276.986 192.217 276.608C192.345 276.491 192.443 276.345 192.503 276.182C192.563 276.02 192.583 275.845 192.563 275.673C192.553 275.569 192.519 275.468 192.462 275.381C192.405 275.293 192.327 275.22 192.236 275.169C191.245 274.627 188.04 276.262 187.675 276.458C187.639 276.476 187.61 276.504 187.592 276.54C187.573 276.575 187.566 276.615 187.572 276.655C187.579 276.693 187.596 276.728 187.623 276.757C187.65 276.785 187.684 276.805 187.722 276.813C188.559 276.986 189.41 277.083 190.264 277.103ZM191.694 275.43C191.817 275.426 191.938 275.451 192.049 275.505C192.088 275.523 192.121 275.552 192.145 275.589C192.168 275.625 192.18 275.667 192.18 275.711C192.196 275.822 192.185 275.935 192.147 276.041C192.11 276.147 192.047 276.242 191.965 276.318C191.469 276.757 190.142 276.832 188.357 276.542C189.401 275.967 190.536 275.576 191.712 275.384L191.694 275.43Z" fill="#32cd71"/>
<path d="M187.757 276.767C187.785 276.775 187.814 276.775 187.841 276.767C188.776 276.337 190.701 274.599 190.552 273.683C190.552 273.468 190.365 273.206 189.832 273.15C189.643 273.127 189.451 273.144 189.269 273.2C189.087 273.257 188.919 273.351 188.776 273.477C187.767 274.318 187.58 276.486 187.57 276.58C187.569 276.613 187.576 276.645 187.591 276.675C187.606 276.704 187.628 276.729 187.655 276.748C187.685 276.767 187.722 276.774 187.757 276.767ZM189.682 273.505H189.841C190.187 273.505 190.215 273.683 190.225 273.729C190.309 274.281 189.019 275.645 188.038 276.234C188.121 275.32 188.479 274.454 189.066 273.748C189.24 273.603 189.456 273.518 189.682 273.505Z" fill="#32cd71"/>
<path d="M175.059 18.2356L176.479 17.46C176.479 17.46 175.965 18.8244 175.059 18.2356Z" fill="#263238"/>
<path d="M159.816 93.326L158.975 96.2604C158.863 96.4847 159.134 96.7184 159.507 96.7184H193.151C193.45 96.7184 193.693 96.5688 193.712 96.3913L194.001 93.4568C194.001 93.2606 193.768 93.083 193.45 93.083H160.349C160.246 93.0753 160.144 93.0936 160.051 93.1361C159.958 93.1786 159.877 93.2439 159.816 93.326Z" fill="#32cd71"/>
<path opacity="0.2" d="M159.816 93.326L158.975 96.2604C158.863 96.4847 159.134 96.7184 159.507 96.7184H193.151C193.45 96.7184 193.693 96.5688 193.712 96.3913L194.001 93.4568C194.001 93.2606 193.768 93.083 193.45 93.083H160.349C160.246 93.0753 160.144 93.0936 160.051 93.1361C159.958 93.1786 159.877 93.2439 159.816 93.326Z" fill="black"/>
<path d="M164.376 97.0358H163.488C163.311 97.0358 163.17 96.9424 163.189 96.8302L163.6 93.0266C163.6 92.9145 163.769 92.821 163.946 92.821H164.881C165.058 92.821 165.189 92.9145 165.18 93.0266L164.759 96.8302C164.703 96.9424 164.544 97.0358 164.376 97.0358Z" fill="#32cd71"/>
<path opacity="0.4" d="M164.376 97.0358H163.488C163.311 97.0358 163.17 96.9424 163.189 96.8302L163.6 93.0266C163.6 92.9145 163.769 92.821 163.946 92.821H164.881C165.058 92.821 165.189 92.9145 165.18 93.0266L164.759 96.8302C164.703 96.9424 164.544 97.0358 164.376 97.0358Z" fill="white"/>
<path d="M190.684 97.0358H189.842C189.665 97.0358 189.534 96.9424 189.543 96.8302L189.964 93.0266C189.964 92.9145 190.132 92.821 190.31 92.821H191.188C191.366 92.821 191.506 92.9145 191.487 93.0266L191.076 96.8302C191.02 96.9424 190.861 97.0358 190.684 97.0358Z" fill="#32cd71"/>
<path opacity="0.4" d="M190.684 97.0358H189.842C189.665 97.0358 189.534 96.9424 189.543 96.8302L189.964 93.0266C189.964 92.9145 190.132 92.821 190.31 92.821H191.188C191.366 92.821 191.506 92.9145 191.487 93.0266L191.076 96.8302C191.02 96.9424 190.861 97.0358 190.684 97.0358Z" fill="white"/>
<path d="M177.582 97.0358H176.694C176.516 97.0358 176.386 96.9424 176.395 96.8302L176.816 93.0266C176.816 92.9145 176.984 92.821 177.161 92.821H178.049C178.217 92.821 178.358 92.9145 178.348 93.0266L177.928 96.8302C177.918 96.9424 177.759 97.0358 177.582 97.0358Z" fill="#32cd71"/>
<path opacity="0.4" d="M177.582 97.0358H176.694C176.516 97.0358 176.386 96.9424 176.395 96.8302L176.816 93.0266C176.816 92.9145 176.984 92.821 177.161 92.821H178.049C178.217 92.821 178.358 92.9145 178.348 93.0266L177.928 96.8302C177.918 96.9424 177.759 97.0358 177.582 97.0358Z" fill="white"/>
<path d="M195.884 63.8398L181.342 74.2236C179.406 75.6064 178.957 78.297 180.34 80.2334L206.381 116.701C207.763 118.638 210.454 119.086 212.39 117.704L226.932 107.32C228.868 105.937 229.317 103.246 227.934 101.31L201.893 64.8423C200.511 62.9059 197.82 62.4571 195.884 63.8398Z" fill="#263238"/>
<path d="M237.989 34.3937L223.821 44.5055L224.363 44.113C223.139 41.786 221.728 41.3093 220.747 38.8328C219.607 35.7862 218.737 31.5621 215.962 26.5903C213.887 22.8522 202.252 14.5535 202.252 14.5535C202.252 14.5535 199.757 16.3011 199.327 16.6468C196.664 18.8337 198.159 22.2541 201.196 26.095C204.654 30.5808 203.794 42.7205 202.579 50.0286C201.364 57.3367 200.822 66.4578 200.822 66.5045L224.419 98.9424L231.522 97.7275C236.278 96.7636 240.813 94.9223 244.895 92.2979L267.735 75.9901L237.989 34.3937Z" fill="#263238"/>
<path d="M249.791 29.9545C249.543 29.6073 249.228 29.3124 248.866 29.0867C248.504 28.8611 248.101 28.7092 247.68 28.6398C247.259 28.5703 246.828 28.5847 246.412 28.682C245.997 28.7793 245.605 28.9577 245.258 29.2069L227.1 42.169C225.876 39.842 225.007 38.9355 224.025 36.4963C222.885 33.4497 222.025 29.2256 219.25 24.2539C216.474 19.2821 208.353 11.6936 203.652 13.7496C198.952 15.8056 200.961 19.2728 204.419 23.7585C207.877 28.2443 207.017 40.384 205.802 47.6921C204.587 55.0002 204.045 64.112 204.045 64.1681L227.651 96.6059L234.745 95.391C239.503 94.4261 244.041 92.585 248.127 89.9614L273.313 71.9715C273.661 71.725 273.956 71.4122 274.183 71.0511C274.409 70.69 274.562 70.2877 274.632 69.8673C274.703 69.4469 274.689 69.0168 274.593 68.6017C274.496 68.1865 274.319 67.7946 274.07 67.4483L272.715 65.5792C272.292 64.9873 271.683 64.5542 270.985 64.3492C270.287 64.1442 269.54 64.1791 268.865 64.4484L267.5 64.6727C267.356 64.7206 267.2 64.7198 267.057 64.6703C266.913 64.6209 266.79 64.5255 266.706 64.399C266.622 64.2725 266.582 64.1218 266.592 63.9703C266.602 63.8188 266.662 63.6748 266.762 63.5606L268.407 61.6261C269.425 60.4953 270.07 58.4113 269.182 57.1684L266.547 53.4302C266.128 52.8468 265.527 52.4185 264.839 52.2123C264.151 52.006 263.414 52.0334 262.743 52.2901L259.94 53.2246C259.8 53.2703 259.65 53.2711 259.51 53.2268C259.37 53.1824 259.247 53.0953 259.16 52.9775C259.072 52.8598 259.023 52.7175 259.021 52.5706C259.018 52.4238 259.062 52.2799 259.145 52.1592L261.472 48.9257C261.857 48.3783 262.063 47.7256 262.063 47.0566C262.063 46.3877 261.857 45.735 261.472 45.1875L258.613 41.1877C258.206 40.6198 257.628 40.1977 256.963 39.984C256.298 39.7702 255.583 39.7761 254.921 40.0008L251.389 41.2064C251.248 41.2516 251.098 41.2514 250.957 41.2058C250.817 41.1602 250.695 41.0717 250.608 40.9526C250.521 40.8336 250.474 40.6902 250.473 40.5429C250.472 40.3955 250.518 40.2516 250.604 40.1317L252.407 37.7299C252.853 37.1801 253.106 36.4987 253.126 35.791C253.147 35.0833 252.933 34.3886 252.52 33.8142L249.791 29.9545Z" fill="#5DC579"/>
<path d="M198.602 61.8794L184.061 72.2632C182.124 73.6459 181.676 76.3366 183.058 78.2729L209.099 114.741C210.482 116.677 213.173 117.126 215.109 115.743L229.651 105.359C231.587 103.977 232.036 101.286 230.653 99.3497L204.612 62.8818C203.229 60.9454 200.539 60.4966 198.602 61.8794Z" fill="#32cd71"/>
<path opacity="0.6" d="M198.602 61.8794L184.061 72.2632C182.124 73.6459 181.676 76.3366 183.058 78.2729L209.099 114.741C210.482 116.677 213.173 117.126 215.109 115.743L229.651 105.359C231.587 103.977 232.036 101.286 230.653 99.3497L204.612 62.8818C203.229 60.9454 200.539 60.4966 198.602 61.8794Z" fill="black"/>
<path d="M260.016 83.0454L255.766 86.2251L256.325 86.9734L260.576 83.7937L260.016 83.0454Z" fill="#32cd71"/>
<path d="M274.241 72.4476L264.07 80.0537L264.63 80.8021L274.801 73.1961L274.241 72.4476Z" fill="#32cd71"/>
<path d="M220.625 109.138L214.625 113.101L215.662 116.839L222.419 112.213L220.625 109.138Z" fill="#FFB573"/>
<path d="M173.414 82.504L178.19 75.2239L180.526 83.074C180.526 83.074 176.9 86.8122 173.685 85.8216L173.414 82.504Z" fill="#FFB573"/>
<path d="M158.872 57.0375C158.386 61.8878 157.798 66.738 157.171 71.5789C156.545 76.4199 155.891 81.2608 155.19 86.0924L155.059 87.0269L155.013 87.3353C155.007 87.3662 155.007 87.3979 155.013 87.4287C155.013 87.4755 155.013 87.4287 154.947 87.3259C154.888 87.1678 154.796 87.0244 154.676 86.9054C154.587 86.7902 154.467 86.7026 154.33 86.6531C154.274 86.6531 154.246 86.6531 154.33 86.6531C154.609 86.7523 154.903 86.8028 155.2 86.8026C156.183 86.819 157.166 86.7376 158.134 86.5596C159.199 86.3821 160.311 86.1204 161.424 85.8307C163.657 85.27 165.919 84.5504 168.171 83.756C170.423 82.9616 172.694 82.1299 174.909 81.2795L176.778 84.8961C172.522 87.6071 168.023 89.9161 163.339 91.7931C162.134 92.251 160.9 92.6715 159.601 93.036C158.199 93.4382 156.758 93.6858 155.302 93.7743C154.362 93.8283 153.419 93.7528 152.499 93.55C151.906 93.4131 151.335 93.1995 150.798 92.9145C150.115 92.5592 149.509 92.0724 149.015 91.4822C148.521 90.892 148.149 90.21 147.919 89.4754C147.723 88.8709 147.613 88.2416 147.592 87.6063C147.573 87.3325 147.573 87.0577 147.592 86.7839L147.639 86.1765L147.714 85.2419C148.106 80.3761 148.552 75.5165 149.05 70.6631C149.536 65.8035 150.05 60.9532 150.676 56.1123L158.872 57.0375Z" fill="#FFB573"/>
<path d="M154.508 46.4027C151.227 47.4026 147.293 58.6825 147.293 58.6825L160.003 67.7756C160.003 67.7756 164.675 58.3554 163.264 54.122C161.806 49.7016 158.246 45.2625 154.508 46.4027Z" fill="#263238"/>
<path d="M160.112 68.8971L146.402 58.9722L146.692 57.6545L161.308 67.5607L160.112 68.8971Z" fill="#32cd71"/>
<path d="M184.598 73.0557L186.206 79.7376L180.524 83.0739L178.188 75.2331L184.598 73.0557Z" fill="#FFB573"/>
</svg>
