<svg width="157" height="285" viewBox="0 0 157 285" fill="none" xmlns="http://www.w3.org/2000/svg">
<path d="M41.2556 11.105C36.6763 12.5161 33.6577 30.7303 43.1246 36.6179C52.5915 42.5055 73.385 33.6928 73.385 33.6928C73.385 33.6928 70.2356 29.9546 71.2823 20.0205C72.3103 10.2919 72.7309 -2.40849 56.5633 0.395134C46.0217 2.17076 40.5266 7.95556 41.2556 11.105Z" fill="#263238"/>
<path d="M81.4811 55.9348C81.696 58.2151 81.967 60.7103 82.3128 63.0934C82.6586 65.4765 83.0137 67.9063 83.4903 70.28C84.3751 74.9928 85.6249 79.6296 87.2285 84.1486L87.8546 85.7934C87.9668 86.0924 88.0415 86.2419 88.135 86.4662C88.2284 86.6905 88.3499 86.8961 88.4621 87.1204C88.9823 88.0774 89.5662 88.9984 90.2097 89.8773C91.6253 91.7941 93.1414 93.6346 94.7515 95.3911C96.3683 97.2041 98.0598 98.9891 99.8074 100.737C101.555 102.484 103.331 104.251 105.097 105.961L102.592 109.185C98.275 106.372 94.1678 103.248 90.3031 99.8395C88.313 98.0956 86.4398 96.2224 84.6959 94.2323C83.7575 93.1614 82.9016 92.0212 82.1353 90.8212C81.939 90.4848 81.7428 90.1764 81.5558 89.8212C81.3689 89.4661 81.154 89.0736 81.0418 88.7932L80.2194 86.9242C79.1634 84.488 78.2522 81.9915 77.4906 79.4478C76.6869 76.9433 76.0888 74.4013 75.5187 71.8594C74.9486 69.3174 74.4814 66.7661 74.1169 64.2055C73.7524 61.6449 73.4347 59.1123 73.2852 56.3834L81.4811 55.9348Z" fill="#FFB573"/>
<path d="M78.8712 46.6362C82.1888 47.4772 84.4784 61.1402 84.4784 61.1402L71.8435 69.7754C71.8435 69.7754 66.6194 53.5798 69.1707 49.9351C71.8435 46.1315 74.0209 45.4026 78.8712 46.6362Z" fill="#263238"/>
<path opacity="0.2" d="M78.5707 49.6829L81.122 63.458L75.9727 66.9438L78.5707 49.6829Z" fill="black"/>
<path d="M71.1149 71.1771L85.3853 60.9532L85.0956 59.6355L70.1523 69.6818L71.1149 71.1771Z" fill="#65C17E"/>
<path d="M60.9102 276.58H68.9659L69.4986 257.927H61.4429L60.9102 276.58Z" fill="#FFB573"/>
<path d="M5.20312 252.842L12.6608 255.88L22.109 239.591L14.6513 236.544L5.20312 252.842Z" fill="#FFB573"/>
<path d="M14.0603 254.768L6.28493 250.095C6.15266 250.011 5.99395 249.98 5.84002 250.008C5.6861 250.036 5.54811 250.12 5.45319 250.244L0.911325 255.852C0.803617 255.996 0.727451 256.161 0.687786 256.336C0.648121 256.512 0.645847 256.693 0.681113 256.87C0.716379 257.046 0.788386 257.213 0.892459 257.36C0.996532 257.506 1.13033 257.629 1.28514 257.721C4.02334 259.291 5.42514 259.908 8.84556 261.936C10.9576 263.188 15.9013 267.477 18.8078 269.197C21.7142 270.916 23.5739 268.15 22.5459 267.169C19.1179 264.068 16.5218 260.158 14.9948 255.796C14.8141 255.354 14.4831 254.99 14.0603 254.768Z" fill="#263238"/>
<path d="M69.2385 275.645H60.1922C60.0357 275.642 59.8833 275.696 59.7643 275.798C59.6453 275.899 59.568 276.041 59.5474 276.197L58.5194 283.355C58.4996 283.536 58.5183 283.719 58.5742 283.892C58.6301 284.065 58.7219 284.224 58.8437 284.359C58.9655 284.494 59.1145 284.602 59.2808 284.675C59.4472 284.749 59.6272 284.786 59.809 284.785C62.9584 284.729 64.4817 284.551 68.4629 284.551C70.9114 284.551 75.9392 284.804 79.3596 284.804C82.78 284.804 82.9202 281.458 81.5091 281.159C75.2009 279.795 72.715 277.925 70.5843 276.14C70.2093 275.82 69.7319 275.644 69.2385 275.645Z" fill="#263238"/>
<g opacity="0.2">
<path opacity="0.2" d="M69.4962 257.927L69.2159 267.543H61.1602L61.4405 257.927H69.4962Z" fill="black"/>
<path opacity="0.2" d="M14.6478 236.553L22.1055 239.6L17.2272 247.992L9.76953 244.946L14.6478 236.553Z" fill="black"/>
</g>
<path d="M78.869 46.6363C78.869 46.6363 82.7006 47.982 75.0187 95.2323H42.3098C42.8611 81.9152 42.8798 73.7379 36.5156 46.3839C41.0929 45.423 45.7344 44.7983 50.4029 44.5149C55.3497 44.164 60.3152 44.164 65.2621 44.5149C71.6263 45.1503 78.869 46.6363 78.869 46.6363Z" fill="#263238"/>
<path d="M51.8711 27.8425C52.8056 32.6274 53.7402 41.384 50.3945 44.5708C53.499 50.0457 58.0389 54.5694 63.5248 57.6544C70.1601 52.3555 65.2537 44.5708 65.2537 44.5708C59.9175 43.2998 60.0577 39.3467 60.9829 35.6273L51.8711 27.8425Z" fill="#FFB573"/>
<path opacity="0.2" d="M55.584 31.02L60.9857 35.6273C60.757 36.4909 60.6038 37.3726 60.5277 38.2627C58.4904 37.973 55.285 36.2348 54.8551 34.0199C54.6495 32.9732 55.4158 31.5153 55.584 31.02Z" fill="black"/>
<path d="M43.8544 20.17C46.0693 27.8519 46.8356 31.1508 51.6578 34.2722C58.9098 38.9449 67.8627 34.5806 67.9936 26.3847C68.1151 19.0205 64.4797 7.69387 56.1716 6.29206C54.34 5.97311 52.4572 6.12769 50.7022 6.74112C48.9471 7.35456 47.378 8.40648 46.1439 9.79699C44.9097 11.1875 44.0515 12.8704 43.6508 14.6859C43.2501 16.5014 43.3202 18.3892 43.8544 20.17Z" fill="#FFB573"/>
<path d="M48.1806 14.9179C50.1058 17.6654 47.9844 25.1978 44.8257 25.9081C42.293 26.4314 40.9193 22.254 40.4707 20.5718C40.3601 20.1447 40.3379 19.6995 40.4053 19.2635L41.237 13.8244C41.3534 13.0547 41.7412 12.352 42.3304 11.8432L48.2648 6.72194C48.7181 6.32983 49.2713 6.07104 49.8628 5.97431L58.2737 4.58184C58.8862 4.47891 59.5153 4.5535 60.0867 4.79679C60.5905 5.0093 61.0328 5.34504 61.3729 5.77316C61.713 6.20128 61.94 6.70804 62.033 7.24683C62.1261 7.78562 62.0822 8.33917 61.9054 8.85656C61.7286 9.37396 61.4246 9.8386 61.0212 10.2078C59.3073 11.8155 57.2868 13.0611 55.0806 13.8704C52.8744 14.6797 50.5276 15.0359 48.1806 14.9179Z" fill="#263238"/>
<path d="M75.0202 95.251C75.0202 95.251 81.3751 157.295 80.8424 181.864C80.2536 207.414 70.9082 265.683 70.9082 265.683H60.0395C60.0395 265.683 61.7591 208.9 60.7965 183.808C59.7498 156.454 51.0586 95.251 51.0586 95.251H75.0202Z" fill="#757E98"/>
<path d="M59.0965 266.075H71.8811L72.8156 261.991L58.5078 261.496L59.0965 266.075Z" fill="#263238"/>
<path opacity="0.2" d="M60.9073 110.689C68.9444 126.848 62.5148 156.342 59.6738 167.304C58.2159 150.828 55.7674 130.689 53.8516 115.904C55.0665 107.531 57.1972 103.279 60.9073 110.689Z" fill="black"/>
<path d="M66.3747 95.2509C66.3747 95.2509 58.9638 159.734 53.3753 180.462C46.7307 205.05 19.7318 247.002 19.7318 247.002L9.55469 242.852C9.55469 242.852 26.9839 195.088 32.0678 182.107C42.9084 154.463 33.6284 113.259 42.2916 95.1948L66.3747 95.2509Z" fill="#757E98"/>
<path d="M8.18359 242.908L20.7999 248.058L23.7624 244.637L9.1929 237.908L8.18359 242.908Z" fill="#263238"/>
<path d="M56.741 19.4785C56.8812 20.1047 57.3298 20.5439 57.741 20.4131C58.1522 20.2822 58.3765 19.7309 58.2363 19.0954C58.0961 18.4599 57.6475 18.0206 57.2363 18.1141C56.8251 18.2076 56.6008 18.843 56.741 19.4785Z" fill="#263238"/>
<path d="M63.909 17.8805C64.0492 18.516 64.4977 18.9552 64.9089 18.815C65.3201 18.6748 65.5444 18.1328 65.4042 17.4973C65.264 16.8618 64.8155 16.4226 64.4043 16.5628C63.9931 16.703 63.7688 17.245 63.909 17.8805Z" fill="#263238"/>
<path d="M64.2266 16.6375L65.6471 15.8618C65.6471 15.8618 65.1331 17.2262 64.2266 16.6375Z" fill="#263238"/>
<path d="M61.9453 19.5159C62.8332 20.8368 63.8993 22.0287 65.1134 23.0578C64.8417 23.3619 64.507 23.603 64.1325 23.7644C63.758 23.9258 63.3529 24.0036 62.9453 23.9923L61.9453 19.5159Z" fill="#ED893E"/>
<path d="M60.041 27.2351C60.3555 27.2167 60.6681 27.173 60.9756 27.1043C61.0251 27.0911 61.068 27.0597 61.0957 27.0165C61.1233 26.9733 61.1338 26.9213 61.1251 26.8707C61.1196 26.8467 61.1094 26.8241 61.0951 26.8041C61.0809 26.7841 61.0628 26.7671 61.042 26.7541C61.0212 26.7411 60.998 26.7323 60.9738 26.7282C60.9495 26.7242 60.9247 26.7249 60.9008 26.7305C60.1141 26.9242 59.2927 26.9295 58.5035 26.746C57.7143 26.5625 56.9795 26.1954 56.3589 25.6745C56.3423 25.6563 56.3221 25.6419 56.2996 25.632C56.277 25.6221 56.2527 25.6169 56.2281 25.6169C56.2035 25.6169 56.1792 25.6221 56.1566 25.632C56.1341 25.6419 56.1139 25.6563 56.0973 25.6745C56.0624 25.711 56.043 25.7595 56.043 25.81C56.043 25.8604 56.0624 25.909 56.0973 25.9455C56.634 26.4147 57.26 26.7708 57.9376 26.9924C58.6153 27.214 59.3307 27.2966 60.041 27.2351Z" fill="#263238"/>
<path d="M43.3472 27.8333C43.7788 28.4671 44.331 29.0096 44.9725 29.4298C45.6139 29.8499 46.3319 30.1395 47.0854 30.2818C49.104 30.6556 49.889 28.8052 49.2162 27.0015C48.5713 25.3754 46.749 23.2634 44.7958 23.6746C44.3709 23.7791 43.9789 23.988 43.6553 24.2825C43.3318 24.577 43.0869 24.9477 42.943 25.3608C42.7991 25.774 42.7607 26.2166 42.8313 26.6484C42.9019 27.0802 43.0792 27.4875 43.3472 27.8333Z" fill="#FFB573"/>
<path d="M53.7512 16.6748C53.8286 16.6987 53.9114 16.698 53.9884 16.6729C54.0653 16.6478 54.1327 16.5995 54.1811 16.5347C55.2185 15.1048 57.4894 15.1235 57.5081 15.1235C57.5584 15.1247 57.6085 15.1161 57.6554 15.0979C57.7024 15.0798 57.7453 15.0526 57.7818 15.0179C57.8182 14.9832 57.8475 14.9416 57.8679 14.8956C57.8882 14.8496 57.8994 14.8 57.9006 14.7497C57.9007 14.6487 57.8619 14.5516 57.7923 14.4785C57.7227 14.4054 57.6276 14.362 57.5268 14.3572C57.4146 14.3572 54.8259 14.3572 53.5643 16.0861C53.5339 16.1262 53.5118 16.1721 53.4996 16.2209C53.4873 16.2698 53.485 16.3206 53.4929 16.3703C53.5007 16.4201 53.5185 16.4677 53.5453 16.5104C53.572 16.5531 53.6071 16.59 53.6484 16.6188C53.6771 16.6462 53.7126 16.6656 53.7512 16.6748Z" fill="#263238"/>
<path d="M65.3932 12.6283C65.4591 12.6236 65.5229 12.6023 65.5784 12.5664C65.634 12.5304 65.6796 12.481 65.7109 12.4227C65.7565 12.3322 65.7645 12.2273 65.7329 12.131C65.7014 12.0346 65.633 11.9547 65.5427 11.9087C65.0111 11.6184 64.4169 11.4617 63.8114 11.4519C63.2058 11.4421 62.6069 11.5797 62.0662 11.8527C62.0217 11.8769 61.9825 11.9099 61.9512 11.9497C61.9198 11.9895 61.8969 12.0353 61.8838 12.0843C61.8707 12.1332 61.8677 12.1843 61.8749 12.2345C61.8822 12.2846 61.8996 12.3328 61.926 12.376C61.9768 12.4615 62.0588 12.5239 62.1547 12.55C62.2506 12.5762 62.3529 12.5641 62.44 12.5162C62.8718 12.3065 63.3477 12.2038 63.8276 12.2168C64.3074 12.2298 64.7771 12.3581 65.1969 12.5909C65.2576 12.6214 65.3255 12.6344 65.3932 12.6283Z" fill="#263238"/>
<path d="M17.1559 257.824H17.2494C17.4321 257.785 17.6015 257.698 17.7408 257.574C17.8801 257.449 17.9845 257.291 18.0437 257.113C18.0929 257.009 18.1136 256.894 18.1037 256.779C18.0939 256.664 18.0538 256.554 17.9877 256.459C17.3989 255.618 14.4925 255.721 14.1654 255.74C14.1272 255.74 14.09 255.752 14.0585 255.774C14.0269 255.795 14.0024 255.826 13.9878 255.861C13.9677 255.892 13.957 255.927 13.957 255.964C13.957 256 13.9677 256.036 13.9878 256.067C14.7822 256.768 16.156 257.936 17.1559 257.824ZM14.642 256.085C15.8008 256.085 17.3709 256.216 17.6793 256.655C17.7067 256.699 17.7212 256.749 17.7212 256.8C17.7212 256.852 17.7067 256.902 17.6793 256.945C17.6444 257.064 17.5784 257.172 17.4881 257.258C17.3977 257.343 17.2863 257.403 17.1653 257.431C16.6326 257.553 15.7074 257.048 14.642 256.085Z" fill="#65C17E"/>
<path d="M14.4628 256.085C15.4535 255.973 17.2665 255.291 17.5001 254.496C17.5484 254.353 17.547 254.198 17.4961 254.055C17.4452 253.913 17.3479 253.792 17.2197 253.711C17.1048 253.622 16.9716 253.558 16.8294 253.526C16.6873 253.494 16.5397 253.493 16.3973 253.525C15.2478 253.739 14.0516 255.73 14.0049 255.814C13.9864 255.842 13.9766 255.874 13.9766 255.908C13.9766 255.941 13.9864 255.973 14.0049 256.001C14.018 256.032 14.0402 256.059 14.0685 256.077C14.0969 256.095 14.13 256.105 14.1638 256.104L14.4628 256.085ZM16.5282 253.889C16.6094 253.878 16.6921 253.884 16.771 253.906C16.8498 253.929 16.9231 253.967 16.9861 254.02C17.1823 254.169 17.173 254.282 17.145 254.375C16.9581 254.908 15.5002 255.562 14.5283 255.693C14.9675 255.057 15.7805 254.029 16.4721 253.898L16.5282 253.889Z" fill="#65C17E"/>
<path d="M72.2639 277.103C72.952 277.161 73.6396 276.986 74.2171 276.608C74.3447 276.491 74.4426 276.345 74.5027 276.182C74.5628 276.02 74.5834 275.845 74.5629 275.673C74.5535 275.569 74.5188 275.468 74.4618 275.381C74.4048 275.293 74.3272 275.22 74.2358 275.169C73.2452 274.627 70.0397 276.262 69.6752 276.458C69.6394 276.476 69.6102 276.504 69.5917 276.54C69.5732 276.575 69.5664 276.615 69.5725 276.655C69.5789 276.693 69.5965 276.728 69.6231 276.757C69.6497 276.785 69.6841 276.805 69.722 276.813C70.559 276.986 71.4097 277.083 72.2639 277.103ZM73.6938 275.43C73.8165 275.426 73.9385 275.451 74.0489 275.505C74.0882 275.523 74.1215 275.552 74.1447 275.589C74.1679 275.625 74.1801 275.667 74.1797 275.711C74.1959 275.822 74.1848 275.935 74.1473 276.041C74.1099 276.147 74.0472 276.242 73.9648 276.318C73.4695 276.757 72.1424 276.832 70.3575 276.542C71.4015 275.967 72.5362 275.576 73.7125 275.384L73.6938 275.43Z" fill="#65C17E"/>
<path d="M69.7573 276.767C69.7847 276.775 69.8141 276.775 69.8414 276.767C70.776 276.337 72.7012 274.599 72.5516 273.683C72.5516 273.468 72.3647 273.206 71.832 273.15C71.6429 273.127 71.4509 273.144 71.2689 273.2C71.0868 273.257 70.9188 273.351 70.776 273.477C69.7667 274.318 69.5798 276.486 69.5704 276.58C69.5693 276.613 69.5763 276.645 69.591 276.675C69.6057 276.704 69.6276 276.729 69.6545 276.748C69.6851 276.767 69.7219 276.774 69.7573 276.767ZM71.6825 273.505H71.8414C72.1871 273.505 72.2152 273.683 72.2245 273.729C72.3086 274.281 71.019 275.645 70.0377 276.234C70.1209 275.32 70.4794 274.454 71.0657 273.748C71.2399 273.603 71.4561 273.518 71.6825 273.505Z" fill="#65C17E"/>
<path d="M57.0586 18.2356L58.4791 17.46C58.4791 17.46 57.9651 18.8244 57.0586 18.2356Z" fill="#263238"/>
<path d="M41.8159 93.326L40.9748 96.2604C40.8626 96.4847 41.1337 96.7184 41.5075 96.7184H75.1509C75.45 96.7184 75.693 96.5688 75.7117 96.3913L76.0014 93.4568C76.0014 93.2606 75.7677 93.083 75.45 93.083H42.3486C42.2465 93.0753 42.1441 93.0936 42.051 93.1361C41.9579 93.1786 41.877 93.2439 41.8159 93.326Z" fill="#65C17E"/>
<path opacity="0.2" d="M41.8159 93.326L40.9748 96.2604C40.8626 96.4847 41.1337 96.7184 41.5075 96.7184H75.1509C75.45 96.7184 75.693 96.5688 75.7117 96.3913L76.0014 93.4568C76.0014 93.2606 75.7677 93.083 75.45 93.083H42.3486C42.2465 93.0753 42.1441 93.0936 42.051 93.1361C41.9579 93.1786 41.877 93.2439 41.8159 93.326Z" fill="black"/>
<path d="M46.376 97.0358H45.4882C45.3107 97.0358 45.1705 96.9424 45.1892 96.8302L45.6004 93.0266C45.6004 92.9145 45.7686 92.821 45.9461 92.821H46.8807C47.0583 92.821 47.1891 92.9145 47.1797 93.0266L46.7592 96.8302C46.7031 96.9424 46.5443 97.0358 46.376 97.0358Z" fill="#65C17E"/>
<path opacity="0.4" d="M46.376 97.0358H45.4882C45.3107 97.0358 45.1705 96.9424 45.1892 96.8302L45.6004 93.0266C45.6004 92.9145 45.7686 92.821 45.9461 92.821H46.8807C47.0583 92.821 47.1891 92.9145 47.1797 93.0266L46.7592 96.8302C46.7031 96.9424 46.5443 97.0358 46.376 97.0358Z" fill="white"/>
<path d="M72.6836 97.0358H71.8425C71.6649 97.0358 71.5341 96.9424 71.5434 96.8302L71.964 93.0266C71.964 92.9145 72.1322 92.821 72.3098 92.821H73.1882C73.3658 92.821 73.506 92.9145 73.4873 93.0266L73.0761 96.8302C73.02 96.9424 72.8611 97.0358 72.6836 97.0358Z" fill="#65C17E"/>
<path opacity="0.4" d="M72.6836 97.0358H71.8425C71.6649 97.0358 71.5341 96.9424 71.5434 96.8302L71.964 93.0266C71.964 92.9145 72.1322 92.821 72.3098 92.821H73.1882C73.3658 92.821 73.506 92.9145 73.4873 93.0266L73.0761 96.8302C73.02 96.9424 72.8611 97.0358 72.6836 97.0358Z" fill="white"/>
<path d="M59.5819 97.0358H58.6941C58.5165 97.0358 58.3857 96.9424 58.395 96.8302L58.8156 93.0266C58.8156 92.9145 58.9838 92.821 59.1613 92.821H60.0492C60.2174 92.821 60.3576 92.9145 60.3482 93.0266L59.9277 96.8302C59.9183 96.9424 59.7594 97.0358 59.5819 97.0358Z" fill="#65C17E"/>
<path opacity="0.4" d="M59.5819 97.0358H58.6941C58.5165 97.0358 58.3857 96.9424 58.395 96.8302L58.8156 93.0266C58.8156 92.9145 58.9838 92.821 59.1613 92.821H60.0492C60.2174 92.821 60.3576 92.9145 60.3482 93.0266L59.9277 96.8302C59.9183 96.9424 59.7594 97.0358 59.5819 97.0358Z" fill="white"/>
<path d="M77.8835 63.8398L63.342 74.2236C61.4057 75.6064 60.9569 78.297 62.3396 80.2334L88.3807 116.701C89.7634 118.638 92.454 119.086 94.3904 117.704L108.932 107.32C110.868 105.937 111.317 103.246 109.934 101.31L83.8933 64.8423C82.5105 62.9059 79.8199 62.4571 77.8835 63.8398Z" fill="#263238"/>
<path d="M119.989 34.3937L105.821 44.5055L106.363 44.113C105.139 41.786 103.728 41.3093 102.747 38.8328C101.607 35.7862 100.737 31.5621 97.9619 26.5903C95.8872 22.8522 84.2521 14.5535 84.2521 14.5535C84.2521 14.5535 81.7569 16.3011 81.327 16.6468C78.6636 18.8337 80.1588 22.2541 83.1961 26.095C86.6539 30.5808 85.7941 42.7205 84.5792 50.0286C83.3643 57.3367 82.8223 66.4578 82.8223 66.5045L106.419 98.9424L113.522 97.7275C118.278 96.7636 122.813 94.9223 126.895 92.2979L149.735 75.9901L119.989 34.3937Z" fill="#263238"/>
<path d="M131.791 29.9545C131.543 29.6073 131.228 29.3124 130.866 29.0867C130.504 28.8611 130.101 28.7092 129.68 28.6398C129.259 28.5703 128.828 28.5847 128.412 28.682C127.997 28.7793 127.605 28.9577 127.258 29.2069L109.1 42.169C107.876 39.842 107.007 38.9355 106.025 36.4963C104.885 33.4497 104.025 29.2256 101.25 24.2539C98.4743 19.2821 90.3532 11.6936 85.6524 13.7496C80.9517 15.8056 82.961 19.2728 86.4188 23.7585C89.8766 28.2443 89.0168 40.384 87.8019 47.6921C86.587 55.0002 86.045 64.112 86.045 64.1681L109.651 96.6059L116.745 95.391C121.503 94.4261 126.041 92.585 130.127 89.9614L155.313 71.9715C155.661 71.725 155.956 71.4122 156.183 71.0511C156.409 70.69 156.562 70.2877 156.632 69.8673C156.703 69.4469 156.689 69.0168 156.593 68.6017C156.496 68.1865 156.319 67.7946 156.07 67.4483L154.715 65.5792C154.292 64.9873 153.683 64.5542 152.985 64.3492C152.287 64.1442 151.54 64.1791 150.865 64.4484L149.5 64.6727C149.356 64.7206 149.2 64.7198 149.057 64.6703C148.913 64.6209 148.79 64.5255 148.706 64.399C148.622 64.2725 148.582 64.1218 148.592 63.9703C148.602 63.8188 148.662 63.6748 148.762 63.5606L150.407 61.6261C151.425 60.4953 152.07 58.4113 151.182 57.1684L148.547 53.4302C148.128 52.8468 147.527 52.4185 146.839 52.2123C146.151 52.006 145.414 52.0334 144.743 52.2901L141.94 53.2246C141.8 53.2703 141.65 53.2711 141.51 53.2268C141.37 53.1824 141.247 53.0953 141.16 52.9775C141.072 52.8598 141.023 52.7175 141.021 52.5706C141.018 52.4238 141.062 52.2799 141.145 52.1592L143.472 48.9257C143.857 48.3783 144.063 47.7256 144.063 47.0566C144.063 46.3877 143.857 45.735 143.472 45.1875L140.613 41.1877C140.206 40.6198 139.628 40.1977 138.963 39.984C138.298 39.7702 137.583 39.7761 136.921 40.0008L133.389 41.2064C133.248 41.2516 133.098 41.2514 132.957 41.2058C132.817 41.1602 132.695 41.0717 132.608 40.9526C132.521 40.8336 132.474 40.6902 132.473 40.5429C132.472 40.3955 132.518 40.2516 132.604 40.1317L134.407 37.7299C134.853 37.1801 135.106 36.4987 135.126 35.791C135.147 35.0833 134.933 34.3886 134.52 33.8142L131.791 29.9545Z" fill="#5DC579"/>
<path d="M80.6023 61.8794L66.0608 72.2632C64.1244 73.6459 63.6756 76.3366 65.0583 78.2729L91.0994 114.741C92.4821 116.677 95.1728 117.126 97.1091 115.743L111.651 105.359C113.587 103.977 114.036 101.286 112.653 99.3497L86.612 62.8818C85.2293 60.9454 82.5386 60.4966 80.6023 61.8794Z" fill="#65C17E"/>
<path opacity="0.6" d="M80.6023 61.8794L66.0608 72.2632C64.1244 73.6459 63.6756 76.3366 65.0583 78.2729L91.0994 114.741C92.4821 116.677 95.1728 117.126 97.1091 115.743L111.651 105.359C113.587 103.977 114.036 101.286 112.653 99.3497L86.612 62.8818C85.2293 60.9454 82.5386 60.4966 80.6023 61.8794Z" fill="black"/>
<path d="M142.016 83.0454L137.766 86.2251L138.325 86.9734L142.576 83.7937L142.016 83.0454Z" fill="#65C17E"/>
<path d="M156.241 72.4476L146.07 80.0537L146.63 80.8021L156.801 73.1961L156.241 72.4476Z" fill="#65C17E"/>
<path d="M102.625 109.138L96.625 113.101L97.6624 116.839L104.419 112.213L102.625 109.138Z" fill="#FFB573"/>
<path d="M55.4141 82.504L60.1896 75.2239L62.5259 83.074C62.5259 83.074 58.8999 86.8122 55.6851 85.8216L55.4141 82.504Z" fill="#FFB573"/>
<path d="M40.8723 57.0375C40.3863 61.8878 39.7975 66.738 39.1714 71.5789C38.5453 76.4199 37.8911 81.2608 37.1902 86.0924L37.0593 87.0269L37.0126 87.3353C37.0068 87.3662 37.0068 87.3979 37.0126 87.4287C37.0126 87.4755 37.0126 87.4287 36.9472 87.3259C36.8883 87.1678 36.7958 87.0244 36.6762 86.9054C36.5872 86.7902 36.4673 86.7026 36.3304 86.6531C36.2743 86.6531 36.2463 86.6531 36.3304 86.6531C36.6094 86.7523 36.9034 86.8028 37.1995 86.8026C38.1833 86.819 39.1663 86.7376 40.134 86.5596C41.1994 86.3821 42.3115 86.1204 43.4236 85.8307C45.6571 85.27 47.9187 84.5504 50.1709 83.756C52.4232 82.9616 54.6941 82.1299 56.909 81.2795L58.778 84.8961C54.5222 87.6071 50.0232 89.9161 45.3394 91.7931C44.1338 92.251 42.9002 92.6715 41.6012 93.036C40.1995 93.4382 38.7579 93.6858 37.3023 93.7743C36.3619 93.8283 35.4186 93.7528 34.4987 93.55C33.9065 93.4131 33.3347 93.1995 32.7978 92.9145C32.1151 92.5592 31.5094 92.0724 31.0154 91.4822C30.5215 90.892 30.149 90.21 29.9195 89.4754C29.7229 88.8709 29.6128 88.2416 29.5924 87.6063C29.5734 87.3325 29.5734 87.0577 29.5924 86.7839L29.6391 86.1765L29.7139 85.2419C30.1064 80.3761 30.5518 75.5165 31.0503 70.6631C31.5362 65.8035 32.0502 60.9532 32.6764 56.1123L40.8723 57.0375Z" fill="#FFB573"/>
<path d="M36.5076 46.4027C33.2274 47.4026 29.293 58.6825 29.293 58.6825L42.0027 67.7756C42.0027 67.7756 46.6754 58.3554 45.2643 54.122C43.8064 49.7016 40.2458 45.2625 36.5076 46.4027Z" fill="#263238"/>
<path d="M42.112 68.8971L28.4023 58.9722L28.692 57.6545L43.3083 67.5607L42.112 68.8971Z" fill="#65C17E"/>
<path d="M66.5985 73.0557L68.2058 79.7376L62.5238 83.0739L60.1875 75.2331L66.5985 73.0557Z" fill="#FFB573"/>
</svg>
