<svg width="58" height="66" viewBox="0 0 58 66" fill="none" xmlns="http://www.w3.org/2000/svg">
<g clip-path="url(#clip0_147_11577)">
<path d="M9.74081 4.37454C9.74081 3.50214 9.73872 2.66949 9.74081 1.83684C9.74291 0.560677 10.3038 0 11.5721 0C23.0561 0 34.5401 0 46.0241 0C47.2904 0 47.8576 0.575322 47.8471 1.84103C47.8408 2.66112 47.845 3.48122 47.845 4.32433C47.9099 4.34106 47.979 4.38081 48.0417 4.37244C51.5495 3.97077 55.0657 5.87456 56.7065 9.96039C59.1511 16.0462 56.2314 24.2807 50.4863 27.4292C48.7785 28.3665 46.9618 28.8288 45.007 28.5318C44.6093 28.4711 44.4691 28.6113 44.3414 28.9565C43.4875 31.2431 42.3594 33.3791 40.7939 35.2662C38.9374 37.5026 36.6289 39.0654 33.8369 39.9001C33.6799 39.9461 33.5209 39.9901 33.3639 40.0403C33.3304 40.0508 33.3032 40.0779 33.2279 40.124C33.2509 41.2119 33.5523 42.2537 34.0818 43.2182C35.1094 45.0948 36.6582 46.3082 38.7658 46.7747C39.8562 47.0153 40.2497 47.4902 40.2518 48.5948C40.256 50.5467 40.2539 52.5007 40.2539 54.4526C40.2539 54.6681 40.2539 54.8836 40.2539 55.1702C40.932 55.1702 41.5641 55.166 42.1982 55.1702C45.3188 55.1974 47.3678 57.2602 47.3678 60.3753C47.3678 61.5071 47.3741 62.6389 47.3594 63.7686C47.3448 64.7352 46.8174 65.2854 45.8525 65.3649C45.5993 65.3858 45.3418 65.3754 45.0865 65.3754C34.0964 65.3775 23.1043 65.3795 12.1142 65.3816C10.781 65.3816 10.2034 64.8063 10.2096 63.4883C10.2159 62.3942 10.2034 61.2979 10.2117 60.2037C10.2327 57.3773 12.2419 55.2936 15.0715 55.1807C15.7999 55.1514 16.5303 55.1765 17.3445 55.1765C17.3445 54.9484 17.3445 54.756 17.3445 54.5656C17.3445 52.576 17.3445 50.5865 17.3466 48.599C17.3466 47.4881 17.7275 47.0216 18.8221 46.7789C21.9615 46.0822 24.2617 43.3249 24.3538 40.1303C23.5605 39.8332 22.7464 39.5717 21.9678 39.2286C19.0628 37.944 16.8757 35.8394 15.2934 33.126C14.5065 31.7787 13.9037 30.3226 13.2339 28.9062C13.1167 28.6594 13.0456 28.4753 12.6961 28.5213C9.37664 28.9606 6.62023 27.7075 4.42473 25.3748C0.385341 21.0882 -1.04414 16.0274 0.785094 10.3307C1.8504 7.01056 4.16311 4.87664 7.74414 4.38709C8.38458 4.30131 9.04596 4.37454 9.74081 4.37454ZM12.8572 3.10883C12.8447 3.31385 12.8237 3.45821 12.8279 3.60047C12.9472 9.20305 13.1795 14.7994 14.1339 20.3371C14.7241 23.7639 15.5739 27.1196 17.1687 30.2389C18.2884 32.4293 19.7242 34.3561 21.8422 35.6992C24.4145 37.329 27.2567 37.6658 30.2119 37.4566C32.3446 37.3039 34.3308 36.6972 36.1015 35.4649C38.3158 33.9231 39.7537 31.7745 40.8483 29.3686C42.4808 25.7786 43.2698 21.9606 43.8056 18.0818C44.4419 13.4834 44.647 8.85368 44.7474 4.21972C44.7558 3.86198 44.7474 3.50214 44.7474 3.11092C34.109 3.10883 23.5103 3.10883 12.8572 3.10883ZM13.2946 62.2498C23.6631 62.2498 33.9625 62.2498 44.3079 62.2498C44.3079 61.6013 44.3121 61.0008 44.3079 60.4025C44.2975 58.9506 43.6089 58.2518 42.1585 58.2518C33.322 58.2477 24.4877 58.2477 15.6513 58.2497C15.4148 58.2497 15.1762 58.2435 14.9397 58.2686C14.0565 58.3627 13.3616 59.028 13.303 59.9109C13.257 60.6703 13.2946 61.436 13.2946 62.2498ZM45.5365 25.5108C46.8446 25.6468 48.0208 25.3121 49.1133 24.674C51.4825 23.2911 52.9518 21.1802 53.8141 18.6341C54.7475 15.881 54.8501 13.1236 53.542 10.4374C52.5123 8.32438 50.4549 7.16118 48.3599 7.41851C47.8659 7.47918 47.709 7.65701 47.6901 8.15701C47.5353 12.2784 47.2381 16.3893 46.5432 20.4584C46.2565 22.1258 45.8839 23.7786 45.5365 25.5108ZM12.1058 25.5024C11.9593 24.8936 11.8275 24.3664 11.7082 23.8371C10.5885 18.9103 10.1552 13.8998 9.92918 8.86623C9.8622 7.37876 9.69686 7.24487 8.19203 7.41223C8.15645 7.41642 8.11878 7.4227 8.0832 7.42688C5.92746 7.74069 4.57961 9.05452 3.80312 10.9876C2.5934 14.0023 2.96594 16.9709 4.26566 19.8517C5.31842 22.1823 6.90696 24.0422 9.31176 25.0798C10.1741 25.4522 11.0803 25.6321 12.1058 25.5024ZM20.4441 49.8982C20.4441 51.6471 20.4441 53.3836 20.4441 55.1325C26.0302 55.1325 31.5723 55.1325 37.1438 55.1325C37.1438 53.3752 37.1438 51.6534 37.1438 49.8982C31.5828 49.8982 26.0595 49.8982 20.4441 49.8982ZM27.4346 40.578C27.2253 42.8939 26.3483 44.942 24.7724 46.758C27.5099 46.758 30.1031 46.758 32.826 46.758C31.2291 44.9378 30.3689 42.896 30.1533 40.578C29.2534 40.578 28.3994 40.578 27.4346 40.578Z" fill="#32cd71"/>
<path d="M12.8565 3.10889C23.5096 3.10889 34.1083 3.10889 44.7488 3.10889C44.7488 3.50011 44.7551 3.85785 44.7488 4.21769C44.6462 8.85373 44.4411 13.4814 43.807 18.0798C43.2712 21.9585 42.4821 25.7766 40.8496 29.3666C39.755 31.7725 38.3172 33.921 36.1028 35.4629C34.3322 36.6951 32.346 37.3039 30.2133 37.4545C27.2601 37.6658 24.4158 37.3269 21.8436 35.6972C19.7255 34.3562 18.2898 32.4273 17.17 30.2369C15.5752 27.1176 14.7255 23.7619 14.1353 20.3351C13.1809 14.7973 12.9486 9.20311 12.8293 3.59843C12.823 3.45826 12.8439 3.316 12.8565 3.10889ZM22.214 24.082C22.1868 25.4104 23.3966 26.1364 24.5288 25.5611C25.7804 24.923 27.0257 24.2703 28.2564 23.5966C28.6289 23.3916 28.9157 23.3623 29.3091 23.5799C30.5189 24.2556 31.76 24.8749 32.9844 25.5276C33.6039 25.8581 34.2087 25.8853 34.7801 25.4502C35.3368 25.0276 35.4477 24.446 35.3284 23.7849C35.0857 22.4397 34.8701 21.0882 34.621 19.743C34.5436 19.3309 34.6189 19.038 34.9454 18.7367C35.9626 17.7953 36.9358 16.8078 37.9363 15.8455C38.4469 15.3538 38.6395 14.7764 38.4009 14.1069C38.1686 13.4521 37.6432 13.1739 36.9735 13.0818C35.5629 12.8894 34.1543 12.6885 32.7499 12.4521C32.5302 12.4145 32.2602 12.2178 32.1576 12.019C31.5172 10.7889 30.904 9.54621 30.3117 8.29306C29.9977 7.62778 29.5582 7.16961 28.7817 7.17589C28.0052 7.18216 27.5762 7.65288 27.2643 8.31398C26.6783 9.5504 26.0504 10.7659 25.4602 12.0002C25.32 12.2952 25.1442 12.4375 24.8156 12.4814C23.4238 12.6655 22.0361 12.8894 20.6422 13.0755C19.9537 13.1676 19.4095 13.4479 19.1793 14.13C18.9428 14.8287 19.1856 15.404 19.7109 15.9019C20.6632 16.8057 21.5757 17.7555 22.551 18.6342C22.957 19.0024 23.047 19.3539 22.9466 19.8706C22.6682 21.3058 22.4422 22.7493 22.214 24.082Z" fill="white"/>
<path d="M13.2953 62.2498C13.2953 61.436 13.2576 60.6703 13.3057 59.9108C13.3623 59.028 14.0571 58.3648 14.9424 58.2685C15.1768 58.2434 15.4154 58.2497 15.654 58.2497C24.4904 58.2497 33.3248 58.2497 42.1612 58.2518C43.6116 58.2518 44.3002 58.9506 44.3107 60.4025C44.3148 61.0029 44.3107 61.6012 44.3107 62.2498C33.9652 62.2498 23.6658 62.2498 13.2953 62.2498Z" fill="white"/>
<path d="M45.5371 25.5109C45.8845 23.7787 46.2571 22.1259 46.5417 20.4585C47.2366 16.3895 47.5338 12.2785 47.6887 8.15712C47.7075 7.65712 47.8645 7.47929 48.3584 7.41862C50.4534 7.16129 52.5108 8.32449 53.5405 10.4375C54.8486 13.1237 54.7461 15.8811 53.8126 18.6343C52.9503 21.1782 51.4811 23.2891 49.1119 24.6741C48.0214 25.3122 46.8473 25.6469 45.5371 25.5109Z" fill="white"/>
<path d="M12.1051 25.5022C11.0816 25.6319 10.1754 25.452 9.31309 25.0796C6.9083 24.042 5.31766 22.1821 4.267 19.8515C2.96519 16.9707 2.59473 14 3.80446 10.9874C4.57885 9.05431 5.92671 7.74048 8.08035 7.42876C8.11593 7.42458 8.1536 7.4183 8.18918 7.41412C9.6961 7.24466 9.85935 7.38065 9.92633 8.86811C10.1545 13.9017 10.5877 18.9122 11.7053 23.839C11.8267 24.3683 11.9586 24.8955 12.1051 25.5022Z" fill="white"/>
<path d="M20.4434 49.8979C26.0587 49.8979 31.5841 49.8979 37.143 49.8979C37.143 51.6532 37.143 53.375 37.143 55.1323C31.5716 55.1323 26.0315 55.1323 20.4434 55.1323C20.4434 53.3834 20.4434 51.6469 20.4434 49.8979Z" fill="white"/>
<path d="M27.4337 40.5781C28.3986 40.5781 29.2504 40.5781 30.1525 40.5781C30.368 42.8941 31.2282 44.9359 32.8251 46.7581C30.1043 46.7581 27.5091 46.7581 24.7715 46.7581C26.3496 44.9422 27.2265 42.8941 27.4337 40.5781Z" fill="white"/>
<path d="M22.2155 24.0821C22.4436 22.7495 22.6697 21.306 22.9459 19.875C23.0464 19.3582 22.9564 19.0068 22.5504 18.6386C21.5771 17.7578 20.6646 16.8101 19.7102 15.9063C19.1849 15.4084 18.9421 14.831 19.1786 14.1343C19.4088 13.4523 19.953 13.172 20.6416 13.0799C22.0334 12.8937 23.421 12.6699 24.8149 12.4858C25.1456 12.4418 25.3193 12.2975 25.4596 12.0046C26.0498 10.7702 26.6797 9.55475 27.2637 8.31833C27.5776 7.65723 28.0046 7.18652 28.7811 7.18024C29.5575 7.17396 29.9971 7.63213 30.311 8.29741C30.9033 9.55056 31.5165 10.7954 32.157 12.0234C32.2595 12.2221 32.5295 12.4188 32.7493 12.4565C34.1516 12.6929 35.5622 12.8937 36.9729 13.0862C37.6426 13.1761 38.1679 13.4565 38.4002 14.1113C38.6388 14.7808 38.4463 15.3582 37.9356 15.8498C36.9352 16.8101 35.9599 17.7975 34.9448 18.7411C34.6204 19.0423 34.545 19.3352 34.6204 19.7474C34.8694 21.0926 35.0871 22.444 35.3278 23.7893C35.4471 24.4503 35.3362 25.0319 34.7795 25.4545C34.206 25.8897 33.6032 25.8625 32.9837 25.532C31.7593 24.8813 30.5182 24.2621 29.3085 23.5842C28.9171 23.3646 28.6304 23.3959 28.2557 23.601C27.0251 24.2767 25.7798 24.9273 24.5282 25.5654C23.398 26.1366 22.1883 25.4106 22.2155 24.0821ZM33.5886 15.7076C32.8749 15.5988 32.2156 15.4523 31.5479 15.4084C30.6375 15.3477 30.0724 14.9042 29.7271 14.0799C29.4717 13.4711 29.1452 12.8916 28.7936 12.1866C28.4169 12.9502 28.082 13.5736 27.7974 14.218C27.4772 14.9419 26.9539 15.3142 26.1649 15.3896C25.4575 15.4565 24.7563 15.5946 23.9715 15.7138C24.4654 16.2076 24.8421 16.6594 25.2942 17.0193C26.1523 17.7055 26.4223 18.5214 26.1146 19.5821C25.9535 20.1386 25.9179 20.7306 25.8091 21.4147C26.5458 21.0277 27.1695 20.7285 27.7639 20.3833C28.4629 19.9754 29.1285 19.9712 29.8296 20.3813C30.4366 20.7348 31.0728 21.0403 31.8012 21.4231C31.6589 20.5675 31.5563 19.8331 31.4077 19.1072C31.2633 18.3938 31.4538 17.8331 31.9854 17.3373C32.5253 16.8352 33.0235 16.285 33.5886 15.7076Z" fill="#32cd71"/>
<path d="M33.5879 15.7074C33.0228 16.2869 32.5247 16.835 31.9826 17.3392C31.451 17.8329 31.2585 18.3957 31.405 19.1091C31.5536 19.835 31.6541 20.5714 31.7985 21.425C31.0701 21.0422 30.4339 20.7367 29.8269 20.3832C29.1258 19.9752 28.4623 19.9773 27.7612 20.3852C27.1668 20.7325 26.5431 21.0317 25.8064 21.4166C25.9152 20.7325 25.9508 20.1384 26.1119 19.584C26.4196 18.5233 26.1496 17.7074 25.2915 17.0212C24.8415 16.6613 24.4627 16.2095 23.9688 15.7157C24.7536 15.5965 25.4547 15.4584 26.1622 15.3914C26.9512 15.3161 27.4765 14.9458 27.7947 14.2199C28.0793 13.5755 28.4142 12.9521 28.7909 12.1885C29.1425 12.8935 29.469 13.473 29.7244 14.0818C30.0718 14.9061 30.6348 15.3496 31.5452 15.4103C32.215 15.4521 32.8742 15.5986 33.5879 15.7074Z" fill="white"/>
</g>
<defs>
<clipPath id="clip0_147_11577">
<rect width="57.5749" height="65.3816" fill="white"/>
</clipPath>
</defs>
</svg>
