<svg width="20" height="20" viewBox="0 0 20 20" fill="none" xmlns="http://www.w3.org/2000/svg">
<path d="M17.4602 10.6495L9.98418 19L2.50816 10.6495C2.01505 10.1083 1.62663 9.45782 1.36737 8.73903C1.1081 8.02024 0.983611 7.2487 1.00173 6.47298C1.01985 5.69726 1.18018 4.93418 1.47264 4.23178C1.76509 3.52938 2.18334 2.90289 2.70103 2.39174C3.21872 1.8806 3.82464 1.49588 4.48064 1.26181C5.13664 1.02775 5.82851 0.949401 6.51268 1.03171C7.19685 1.11402 7.8585 1.35521 8.45595 1.74008C9.05341 2.12494 9.57374 2.64516 9.98418 3.26797C10.3964 2.64968 10.9173 2.13401 11.5144 1.75323C12.1114 1.37244 12.7717 1.13474 13.454 1.055C14.1362 0.975265 14.8257 1.0552 15.4793 1.28982C16.1329 1.52443 16.7365 1.90867 17.2524 2.41848C17.7683 2.92829 18.1853 3.55271 18.4774 4.25264C18.7694 4.95258 18.9302 5.71297 18.9497 6.48622C18.9692 7.25947 18.847 8.02894 18.5907 8.74647C18.3344 9.46399 17.9495 10.1141 17.4602 10.6562" stroke-width="2" stroke-linecap="round" stroke-linejoin="round"/>
</svg>
