<svg width="24" height="24" viewBox="0 0 24 24" fill="none" xmlns="http://www.w3.org/2000/svg">
<path d="M13.9999 11V17M3.99988 7H19.9999H3.99988ZM15.9999 7V4C15.9999 3.73478 15.8945 3.48043 15.707 3.29289C15.5194 3.10536 15.2651 3 14.9999 3H8.99988C8.73466 3 8.48031 3.10536 8.29277 3.29289C8.10523 3.48043 7.99988 3.73478 7.99988 4V7H15.9999ZM17.9999 20V7H5.99988V20C5.99988 20.2652 6.10523 20.5196 6.29277 20.7071C6.48031 20.8946 6.73466 21 6.99988 21H16.9999C17.2651 21 17.5194 20.8946 17.707 20.7071C17.8945 20.5196 17.9999 20.2652 17.9999 20ZM9.99988 11V17V11Z" stroke-width="2" stroke-linecap="round" stroke-linejoin="round"/>
</svg>
