<svg width="37" height="37" viewBox="0 0 37 37" fill="none" xmlns="http://www.w3.org/2000/svg">
<path fill-rule="evenodd" clip-rule="evenodd" d="M27.7488 20.7976V16.1769H18.5V11.5517H27.7488V6.93331L37 13.8666L27.7488 20.7999V20.7976ZM23.1256 27.7309H13.8744V6.931L4.62789 2.31033H23.1279V9.24364H25.4418V2.31033C25.4418 1.03838 24.4006 0 23.1279 0H2.31163C1.69893 0.00122228 1.11166 0.245024 0.678412 0.678031C0.245162 1.11104 0.00122297 1.69797 0 2.31033L0 28.6097C0 29.5117 0.509068 30.298 1.27267 30.7142L13.8744 37V30.0436H23.1256C24.3983 30.0436 25.4395 29.0029 25.4395 27.7309V18.4896H23.1256V27.7355V27.7309Z" fill="#32cd71"/>
</svg>
