<svg width="27" height="28" viewBox="0 0 27 28" fill="none" xmlns="http://www.w3.org/2000/svg">
<mask id="path-1-inside-1_1505_21556" fill="white">
<path d="M0 14.2115C0 6.83005 5.98386 0.846191 13.3653 0.846191V0.846191C20.7468 0.846191 26.7306 6.83005 26.7306 14.2115V14.2115C26.7306 21.593 20.7468 27.5768 13.3653 27.5768V27.5768C5.98386 27.5768 0 21.593 0 14.2115V14.2115Z"/>
</mask>
<path d="M0 14.2115C0 6.83005 5.98386 0.846191 13.3653 0.846191V0.846191C20.7468 0.846191 26.7306 6.83005 26.7306 14.2115V14.2115C26.7306 21.593 20.7468 27.5768 13.3653 27.5768V27.5768C5.98386 27.5768 0 21.593 0 14.2115V14.2115Z" fill="#F5F7FE"/>
<path d="M13.3653 26.5768C6.53614 26.5768 1 21.0407 1 14.2115H-1C-1 22.1452 5.43157 28.5768 13.3653 28.5768V26.5768ZM25.7306 14.2115C25.7306 21.0407 20.1945 26.5768 13.3653 26.5768V28.5768C21.299 28.5768 27.7306 22.1452 27.7306 14.2115H25.7306ZM13.3653 1.84619C20.1945 1.84619 25.7306 7.38233 25.7306 14.2115H27.7306C27.7306 6.27776 21.299 -0.153809 13.3653 -0.153809V1.84619ZM13.3653 -0.153809C5.43157 -0.153809 -1 6.27776 -1 14.2115H1C1 7.38233 6.53614 1.84619 13.3653 1.84619V-0.153809Z" fill="white" mask="url(#path-1-inside-1_1505_21556)"/>
<g clip-path="url(#clip0_1505_21556)">
<path fill-rule="evenodd" clip-rule="evenodd" d="M13.3662 16.7572C12.259 16.7572 11.3615 15.9023 11.3615 14.8478C11.3615 13.7933 12.259 12.9385 13.3662 12.9385C14.4735 12.9385 15.371 13.7933 15.371 14.8478C15.371 15.9023 14.4735 16.7572 13.3662 16.7572ZM18.7124 9.75629C19.4475 9.75629 20.0489 10.3291 20.0489 11.0292V18.6665C20.0489 19.3666 19.4475 19.9394 18.7124 19.9394H8.02012C7.28503 19.9394 6.68359 19.3666 6.68359 18.6665V11.0292C6.68359 10.3291 7.28503 9.75629 8.02012 9.75629H10.1385L10.9605 8.89709C11.2144 8.63614 11.5753 8.4834 11.9495 8.4834H14.783C15.1572 8.4834 15.5181 8.63614 15.7653 8.89709L16.594 9.75629H18.7124ZM13.3662 18.03C15.2107 18.03 16.7076 16.6044 16.7076 14.8478C16.7076 13.0912 15.2107 11.6656 13.3662 11.6656C11.5218 11.6656 10.0249 13.0912 10.0249 14.8478C10.0249 16.6044 11.5218 18.03 13.3662 18.03Z" fill="#4F4F4F"/>
</g>
<defs>
<clipPath id="clip0_1505_21556">
<rect width="13.3653" height="11.456" fill="white" transform="translate(6.68359 8.4834)"/>
</clipPath>
</defs>
</svg>
