<svg width="236" height="236" viewBox="0 0 236 236" fill="none" xmlns="http://www.w3.org/2000/svg">
<path d="M118 201.808C168.543 201.808 209.517 199.416 209.517 196.465C209.517 193.514 168.543 191.122 118 191.122C67.4575 191.122 26.4844 193.514 26.4844 196.465C26.4844 199.416 67.4575 201.808 118 201.808Z" fill="#F5F5F5"/>
<path d="M47.6406 116.78L45.1621 117.212L56.7272 183.614L59.2057 183.182L47.6406 116.78Z" fill="#263238"/>
<path opacity="0.2" d="M47.6406 116.78L45.1621 117.212L56.7272 183.614L59.2057 183.182L47.6406 116.78Z" fill="white"/>
<path d="M57.4659 115.352C60.7001 108.441 57.7198 100.217 50.8091 96.9827C43.8985 93.7485 35.6744 96.7288 32.4401 103.639C29.2059 110.55 32.1862 118.774 39.0969 122.008C46.0075 125.243 54.2316 122.262 57.4659 115.352Z" fill="#32cd71"/>
<path opacity="0.6" d="M57.4659 115.352C60.7001 108.441 57.7198 100.217 50.8091 96.9827C43.8985 93.7485 35.6744 96.7288 32.4401 103.639C29.2059 110.55 32.1862 118.774 39.0969 122.008C46.0075 125.243 54.2316 122.262 57.4659 115.352Z" fill="white"/>
<path d="M55.2282 117.088C59.4207 111.412 58.2179 103.412 52.5418 99.2196C46.8657 95.0272 38.8656 96.2299 34.6731 101.906C30.4807 107.582 31.6834 115.582 37.3596 119.775C43.0357 123.967 51.0358 122.764 55.2282 117.088Z" fill="#32cd71"/>
<path d="M37.4922 110.703L41.0794 109.759C41.0794 109.759 41.3107 107.026 39.9607 101.447C40.5676 101.222 41.2032 101.084 41.8487 101.036C42.4954 101.069 44.2087 107.238 44.2087 107.238C44.2087 107.238 50.5949 105.251 51.0103 105.445C51.2746 105.567 51.5578 106.521 51.7277 107.196C51.778 107.387 51.758 107.591 51.6715 107.769C51.5849 107.947 51.4374 108.089 51.2557 108.168L51.0433 108.267L52.2139 114.535C52.2535 114.768 52.2048 115.007 52.0773 115.205C51.9498 115.403 51.7527 115.546 51.5247 115.607L45.4831 117.112C44.8854 117.26 44.2569 117.224 43.6801 117.009L42.9155 116.721L39.248 117.882L37.4922 110.703Z" fill="#32cd71"/>
<path opacity="0.7" d="M37.4922 110.703L41.0794 109.759C41.0794 109.759 41.3107 107.026 39.9607 101.447C40.5676 101.222 41.2032 101.084 41.8487 101.036C42.4954 101.069 44.2087 107.238 44.2087 107.238C44.2087 107.238 50.5949 105.251 51.0103 105.445C51.2746 105.567 51.5578 106.521 51.7277 107.196C51.778 107.387 51.758 107.591 51.6715 107.769C51.5849 107.947 51.4374 108.089 51.2557 108.168L51.0433 108.267L52.2139 114.535C52.2535 114.768 52.2048 115.007 52.0773 115.205C51.9498 115.403 51.7527 115.546 51.5247 115.607L45.4831 117.112C44.8854 117.26 44.2569 117.224 43.6801 117.009L42.9155 116.721L39.248 117.882L37.4922 110.703Z" fill="white"/>
<path d="M92.2899 159.135L91.2184 156.303C76.8885 156.964 75.2837 151.583 75.1327 149.846C74.8636 146.66 77.7428 143.757 81.5566 143.375C86.8099 142.837 90.3122 147.543 92.0963 150.644C94.8009 147.387 100.035 144.696 103.981 144.696C107.002 144.696 109.15 146.113 109.867 148.992C110.443 151.3 109.626 152.73 108.838 153.617C105.506 157.393 95.8912 156.648 93.0026 156.35L92.2899 159.135ZM93.9891 153.424C98.3409 153.806 104.67 153.523 106.45 151.536C106.733 151.215 107.026 150.884 106.771 149.86C106.407 148.402 105.544 147.92 103.981 147.92C100.489 147.901 95.5797 150.875 93.9891 153.424ZM82.3684 146.537C82.2107 146.538 82.0531 146.548 81.8964 146.566C79.7347 146.783 78.2337 148.34 78.3375 149.591C78.4603 151.007 81.0987 153.391 89.9582 153.169C88.8443 150.96 86.1822 146.537 82.3684 146.537Z" fill="#263238"/>
<path d="M123.084 154.641H60.8789V197.371H123.084V154.641Z" fill="#32cd71"/>
<path opacity="0.2" d="M123.084 154.641H60.8789V197.371H123.084V154.641Z" fill="white"/>
<path opacity="0.2" d="M123.084 169.405H60.8789V197.371H123.084V169.405Z" fill="black"/>
<path d="M107.389 154.641H102.334V197.371H107.389V154.641Z" fill="#263238"/>
<path d="M73.3212 154.641H69.6113V197.371H73.3212V154.641Z" fill="#263238"/>
<path opacity="0.2" d="M85.5928 154.641H60.8789V197.371H85.5928V154.641Z" fill="black"/>
<path d="M54.3235 169.627C52.3647 169.83 45.8653 170.326 43.6091 167.782C43.2294 167.366 42.9654 166.857 42.8437 166.307C42.7219 165.757 42.7466 165.185 42.9153 164.648C43.3873 162.703 44.8505 161.735 46.8942 161.735C49.5658 161.735 53.1058 163.562 54.9182 165.766C56.1266 163.666 58.4913 160.485 62.0454 160.848C64.6273 161.108 66.5766 163.071 66.3926 165.228C66.2934 166.389 65.2031 170.043 55.5082 169.594L54.7861 171.506L54.3235 169.627ZM46.899 163.864C45.8417 163.864 45.2611 164.209 45.011 165.195C44.9303 165.386 44.9079 165.596 44.9466 165.799C44.9852 166.002 45.0832 166.19 45.2281 166.337C46.4317 167.697 50.7127 167.876 53.6627 167.616C52.5818 165.889 49.259 163.864 46.899 163.864ZM56.3956 167.465C62.39 167.616 64.1789 165.997 64.2591 165.044C64.3299 164.199 63.3151 163.156 61.8519 163C61.7403 162.993 61.6284 162.993 61.5168 163C58.9397 162.981 57.1366 165.974 56.3956 167.465Z" fill="#32cd71"/>
<path d="M33.9751 197.372H76.0586V168.462H33.9751V197.372Z" fill="#32cd71"/>
<path opacity="0.6" d="M33.9751 197.372H76.0586V168.462H33.9751V197.372Z" fill="white"/>
<path opacity="0.1" d="M33.9751 197.372H76.0586V178.449H33.9751V197.372Z" fill="black"/>
<path opacity="0.2" d="M59.3298 197.372H76.0527V168.462H59.3298V197.372Z" fill="white"/>
<path d="M44.5905 197.372H48.0078V168.462H44.5905V197.372Z" fill="#32cd71"/>
<path d="M67.6374 197.372H70.1484V168.462H67.6374V197.372Z" fill="#32cd71"/>
<path d="M182.324 161.811C182.324 161.811 185.628 159.055 188.46 161.811C191.292 164.568 191.844 181.635 191.844 181.635" stroke="#32cd71" stroke-miterlimit="10"/>
<path d="M192.104 184.953C192.104 184.953 190.154 164.903 197.494 156.478" stroke="#32cd71" stroke-miterlimit="10"/>
<path d="M191.387 182.839C191.387 182.839 192.888 160.008 187.385 154.948" stroke="#32cd71" stroke-miterlimit="10"/>
<path d="M192.105 182.839C192.105 182.839 192.233 167.735 196.325 165.412C200.417 163.09 202.489 170.713 202.489 170.713" stroke="#32cd71" stroke-miterlimit="10"/>
<path d="M190.467 182.839C190.467 182.839 191.137 171.26 187.965 167.121C184.793 162.982 181.461 168.896 181.461 168.896" stroke="#32cd71" stroke-miterlimit="10"/>
<path d="M191.576 184.391C191.576 184.391 189.523 157.308 192.917 152.72" stroke="#32cd71" stroke-miterlimit="10"/>
<path d="M199.808 167.607C199.808 167.607 197.769 168.362 198.392 170.137C199.015 171.912 205.472 174.857 205.472 174.857C205.472 174.857 208.172 172.379 205.694 168.353C203.216 164.326 199.864 166.337 199.808 167.607Z" fill="#32cd71"/>
<path opacity="0.2" d="M199.808 167.607C199.808 167.607 197.769 168.362 198.392 170.137C199.015 171.912 205.472 174.857 205.472 174.857C205.472 174.857 208.172 172.379 205.694 168.353C203.216 164.326 199.864 166.337 199.808 167.607Z" fill="white"/>
<path d="M190.939 164.228C190.939 164.228 193.111 164.138 193.238 166.012C193.365 167.886 188.518 173.064 188.518 173.064C188.518 173.064 185.072 171.817 185.813 167.145C186.554 162.472 190.401 163.076 190.939 164.228Z" fill="#32cd71"/>
<path opacity="0.2" d="M190.939 164.228C190.939 164.228 193.111 164.138 193.238 166.012C193.365 167.886 188.518 173.064 188.518 173.064C188.518 173.064 185.072 171.817 185.813 167.145C186.554 162.472 190.401 163.076 190.939 164.228Z" fill="white"/>
<path d="M189.099 155.288C189.099 155.288 190.548 155.132 190.435 154.249C190.321 153.367 184.804 151.096 181.547 154.769C181.547 154.769 183.633 158.346 186.644 158.394C189.656 158.441 189.099 155.288 189.099 155.288Z" fill="#32cd71"/>
<path opacity="0.2" d="M189.099 155.288C189.099 155.288 190.548 155.132 190.435 154.249C190.321 153.367 184.804 151.096 181.547 154.769C181.547 154.769 183.633 158.346 186.644 158.394C189.656 158.441 189.099 155.288 189.099 155.288Z" fill="white"/>
<path d="M191.797 153.121C191.797 153.121 190.485 153.759 190.122 152.947C189.758 152.135 193.232 147.283 197.933 148.699C197.933 148.699 198.056 152.838 195.526 154.467C192.996 156.095 191.797 153.121 191.797 153.121Z" fill="#32cd71"/>
<path opacity="0.2" d="M191.797 153.121C191.797 153.121 190.485 153.759 190.122 152.947C189.758 152.135 193.232 147.283 197.933 148.699C197.933 148.699 198.056 152.838 195.526 154.467C192.996 156.095 191.797 153.121 191.797 153.121Z" fill="white"/>
<path d="M184.94 166.894C184.94 166.894 185.94 166.087 184.864 165.696C183.788 165.304 178.492 165.412 178.436 170.656C178.436 170.656 184.6 171.681 185.365 169.684C186.129 167.687 184.94 166.894 184.94 166.894Z" fill="#32cd71"/>
<path opacity="0.2" d="M184.94 166.894C184.94 166.894 185.94 166.087 184.864 165.696C183.788 165.304 178.492 165.412 178.436 170.656C178.436 170.656 184.6 171.681 185.365 169.684C186.129 167.687 184.94 166.894 184.94 166.894Z" fill="white"/>
<path d="M197.513 155.132C197.513 155.132 196.512 154.325 197.593 153.933C198.674 153.542 203.965 153.65 204.017 158.894C204.017 158.894 197.853 159.918 197.093 157.922C196.333 155.925 197.513 155.132 197.513 155.132Z" fill="#32cd71"/>
<path opacity="0.2" d="M197.513 155.132C197.513 155.132 196.512 154.325 197.593 153.933C198.674 153.542 203.965 153.65 204.017 158.894C204.017 158.894 197.853 159.918 197.093 157.922C196.333 155.925 197.513 155.132 197.513 155.132Z" fill="white"/>
<path d="M194.252 159.356C194.252 159.356 194.167 158.375 194.96 158.762C195.753 159.149 198.51 162.122 195.65 164.95C195.65 164.95 191.798 162.094 192.492 160.612C193.186 159.13 194.252 159.356 194.252 159.356Z" fill="#32cd71"/>
<path opacity="0.2" d="M194.252 159.356C194.252 159.356 194.167 158.375 194.96 158.762C195.753 159.149 198.51 162.122 195.65 164.95C195.65 164.95 191.798 162.094 192.492 160.612C193.186 159.13 194.252 159.356 194.252 159.356Z" fill="white"/>
<path d="M184.047 160.759C184.047 160.759 184.647 159.975 183.769 159.876C182.891 159.777 178.973 160.82 179.884 164.742C179.884 164.742 184.666 164.384 184.869 162.755C185.072 161.127 184.047 160.759 184.047 160.759Z" fill="#32cd71"/>
<path opacity="0.2" d="M184.047 160.759C184.047 160.759 184.647 159.975 183.769 159.876C182.891 159.777 178.973 160.82 179.884 164.742C179.884 164.742 184.666 164.384 184.869 162.755C185.072 161.127 184.047 160.759 184.047 160.759Z" fill="white"/>
<path d="M200.19 197.376H183.797L182.027 179.426H201.96L200.19 197.376Z" fill="#32cd71"/>
<path opacity="0.5" d="M200.19 197.376H183.797L182.027 179.426H201.96L200.19 197.376Z" fill="white"/>
<path d="M202.834 177.443H181.15V181.403H202.834V177.443Z" fill="#32cd71"/>
<path opacity="0.2" d="M202.834 177.443H181.15V181.403H202.834V177.443Z" fill="white"/>
<path d="M170.528 65.8537C170.528 65.8537 169.31 63.0547 165.393 63.0547C161.475 63.0547 158.204 65.3864 158.388 68.3741C158.572 71.3619 156.335 71.0834 155.962 73.9768C155.589 76.8701 156.987 77.6159 157.081 78.8337C157.175 80.0514 155.589 79.6738 154.56 81.727C153.532 83.7802 152.229 86.6736 156.614 90.5015C160.999 94.3294 173.422 93.6781 176.126 91.3417C178.831 89.0053 178.741 84.526 176.126 83.3177C173.511 82.1093 175.942 82.2887 176.221 79.5841C176.499 76.8796 174.073 75.8506 174.262 73.703C174.451 71.5554 175.111 66.0425 170.528 65.8537Z" fill="#263238"/>
<path d="M147.735 105.058L143.87 102.948C143.87 102.948 142.775 100.116 142.194 99.814C141.613 99.5119 137.413 99.5922 136.879 99.5922C136.346 99.5922 136.492 103.524 136.747 104.18C137.002 104.836 141.642 105.053 142.095 105.124L146.815 108.546L147.735 105.058Z" fill="#F7A9A0"/>
<path d="M154.234 83.9219C151.322 83.9219 148.957 104.444 148.957 104.444L144.974 102.948L142.486 106.559C142.486 106.559 146.966 112.284 151.322 111.539C155.679 110.793 157.93 88.354 157.93 88.354L154.234 83.9219Z" fill="#32cd71"/>
<path opacity="0.2" d="M157.921 88.354C157.921 88.354 157.864 88.9392 157.746 89.9304C157.142 95.0469 154.98 110.916 151.322 111.539C150.975 111.6 150.621 111.619 150.27 111.595C146.272 111.402 142.486 106.559 142.486 106.559L144.974 102.953L148.957 104.444C148.957 104.444 151.317 83.903 154.234 83.9219L157.921 88.354Z" fill="white"/>
<path opacity="0.2" d="M157.746 89.9305C157.142 95.0469 154.98 110.916 151.322 111.539C150.974 111.6 150.621 111.619 150.269 111.595C150.175 98.417 154.187 86.7681 154.187 86.7681L157.746 89.9305Z" fill="black"/>
<path d="M156.368 114.262C156.368 114.262 151.251 141.525 149.887 152.721C148.103 167.324 140.811 188.687 140.811 188.687L143.728 189.442C143.728 189.442 154.008 171.285 156 154.953C164.165 138.259 164.826 117.698 164.826 117.698L156.368 114.262Z" fill="#F7A9A0"/>
<path d="M135.383 195.295C135.856 195.084 136.363 194.963 136.88 194.936C136.88 194.936 138.673 193.879 140.448 189.782H142.449C142.787 189.786 143.115 189.894 143.389 190.091C143.663 190.288 143.87 190.563 143.983 190.882C144.016 190.971 144.035 191.065 144.04 191.16C144.021 191.643 143.969 192.124 143.884 192.6C143.591 194.195 143.202 195.771 142.718 197.32L142.378 197.23L142.997 194.252C143.2 193.237 142.133 194.214 141.642 195.238C141.151 196.262 140.391 197.287 138.182 196.782C135.615 196.13 134.576 195.757 135.383 195.295Z" fill="#263238"/>
<path d="M161.678 113.828C161.678 113.828 162.315 141.558 163.292 152.791C164.571 167.452 161.876 189.862 161.876 189.862L164.887 189.994C164.887 189.994 171.189 170.104 169.773 153.712C174.308 135.686 170.717 115.437 170.717 115.437L161.678 113.828Z" fill="#F7A9A0"/>
<path d="M157.176 196.211C157.622 195.943 158.113 195.759 158.625 195.668C158.625 195.668 160.291 194.426 161.618 190.16L163.6 189.933C163.938 189.901 164.278 189.975 164.573 190.144C164.868 190.313 165.104 190.569 165.247 190.877C165.29 190.962 165.318 191.052 165.332 191.146C165.363 191.629 165.363 192.113 165.332 192.595C165.211 194.205 164.992 195.807 164.676 197.391L164.332 197.343L164.62 194.313C164.714 193.284 163.765 194.37 163.383 195.441C163.001 196.513 162.363 197.612 160.112 197.329C157.492 197.013 156.421 196.753 157.176 196.211Z" fill="#263238"/>
<path d="M140.811 188.687C140.811 188.687 138.295 193.907 136.879 194.936C136.879 194.936 138.805 196.083 140.811 193.52C143.402 190.216 144.039 191.16 144.039 191.16C143.988 190.59 143.883 190.026 143.728 189.475C143.336 188.375 140.811 188.687 140.811 188.687Z" fill="#F7A9A0"/>
<path d="M162.159 188.645C162.159 188.645 161.451 190.575 160.507 192.699C160.074 193.8 159.433 194.808 158.619 195.668C158.619 195.668 160.257 196.201 161.144 195.172C162.032 194.143 163.542 190.452 165.241 190.858C165.151 190.556 165.024 190.266 164.864 189.994C164.609 189.574 162.159 188.645 162.159 188.645Z" fill="#F7A9A0"/>
<path d="M154.617 109.712C154.617 109.712 152.592 129.895 149.58 150.129C147.815 161.659 145.109 173.025 141.49 184.113L147.466 184.614C147.466 184.614 158.916 156.228 162.405 139.797C162.405 139.797 163.646 168.924 161.654 185.109L166.884 184.859C166.884 184.859 179.628 130.041 170.122 110.283L154.617 109.712Z" fill="#32cd71"/>
<path opacity="0.4" d="M166.884 184.864L161.654 185.109C163.646 168.929 162.405 139.797 162.405 139.797C161.522 143.946 160.134 148.85 158.553 153.872C153.866 168.745 147.466 184.614 147.466 184.614L141.49 184.113C145.11 173.025 147.815 161.659 149.58 150.129C152.592 129.895 154.617 109.712 154.617 109.712L170.122 110.297C179.642 130.041 166.884 184.864 166.884 184.864Z" fill="white"/>
<path opacity="0.2" d="M162.404 139.797C161.521 143.946 160.134 148.85 158.553 153.872C157.948 144.432 160.351 127.473 160.351 127.473L162.404 139.797Z" fill="black"/>
<path d="M170.089 109.315L170.131 111.595L154.532 110.694L154.484 107.999L170.089 109.315Z" fill="#263238"/>
<path d="M157.906 111.087L161.314 111.328L161.497 108.743L158.088 108.503L157.906 111.087Z" fill="white"/>
<path d="M164.709 112.4L165.482 112.425L165.609 108.486L164.835 108.461L164.709 112.4Z" fill="#32cd71"/>
<path opacity="0.4" d="M164.709 112.4L165.482 112.425L165.609 108.486L164.835 108.461L164.709 112.4Z" fill="white"/>
<path d="M155.179 111.526L155.953 111.551L156.08 107.612L155.306 107.587L155.179 111.526Z" fill="#32cd71"/>
<path opacity="0.4" d="M155.179 111.526L155.953 111.551L156.08 107.612L155.306 107.587L155.179 111.526Z" fill="white"/>
<path d="M154.542 107.375L170.118 108.72C170.269 104.859 170.825 101.025 171.774 97.2792C172.147 95.7877 172.615 94.1215 173.214 92.1957C173.535 91.1668 173.889 90.0623 174.285 88.8917C174.583 87.9902 174.904 87.0321 175.258 86.022C173.143 85.3467 170.981 84.8246 168.791 84.4597C166.48 84.0492 164.142 83.8031 161.796 83.7233C158.766 83.6997 155.283 84.0396 155.283 84.0396C155.283 84.0396 154.787 84.1576 154.476 87.3719C154.197 90.3691 153.919 96.4013 154.542 107.375Z" fill="#32cd71"/>
<path d="M154.512 108.286L170.088 109.315C170.334 105.445 170.612 101.895 171.778 97.2792C172.151 95.7877 172.618 94.1215 173.218 92.1957C173.539 91.1668 173.893 90.0623 174.289 88.8917C174.586 87.9902 174.907 87.0321 175.261 86.022C173.146 85.3467 170.985 84.8246 168.795 84.4597C166.484 84.0492 164.146 83.8031 161.8 83.7233C158.77 83.6997 155.286 84.0396 155.286 84.0396C155.286 84.0396 154.791 84.1576 154.479 87.3719C154.196 90.3691 153.87 97.3122 154.512 108.286Z" fill="#263238"/>
<g opacity="0.1">
<path opacity="0.1" d="M154.542 107.375L170.118 108.72C170.269 104.859 170.825 101.025 171.774 97.2792C172.147 95.7877 172.615 94.1215 173.214 92.1957C173.535 91.1668 173.889 90.0623 174.285 88.8917C174.583 87.9902 174.904 87.0321 175.258 86.022C173.143 85.3467 170.981 84.8246 168.791 84.4597C166.48 84.0492 164.142 83.8031 161.796 83.7233C158.766 83.6997 155.283 84.0396 155.283 84.0396C155.283 84.0396 154.787 84.1576 154.476 87.3719C154.197 90.3691 153.919 96.4013 154.542 107.375Z" fill="white"/>
</g>
<path d="M163.085 87.1457C166.927 86.6737 168.079 85.0123 168.079 85.0123C165.643 82.7137 167.668 78.73 167.668 78.73L163.047 79.5937C163.151 80.2372 163.211 80.8869 163.227 81.5384C163.26 84.3468 161.995 84.3704 161.995 84.3704C161.183 85.9044 163.085 87.1457 163.085 87.1457Z" fill="#F7A9A0"/>
<path opacity="0.2" d="M163.047 79.5937C163.15 80.2372 163.21 80.8869 163.226 81.5384C166.346 81.5384 167.668 78.73 167.668 78.73L163.047 79.5937Z" fill="black"/>
<path d="M165.6 66.6702C161.583 66.4531 160.172 68.5299 159.648 72.6552C158.997 77.8094 159.946 81.5477 165.029 80.7169C171.934 79.5889 172.279 67.0242 165.6 66.6702Z" fill="#F7A9A0"/>
<path d="M162.258 72.5747C161.905 73.1572 161.481 73.6945 160.998 74.1748C161.107 74.3472 161.26 74.4864 161.443 74.5771C161.625 74.6679 161.829 74.7067 162.032 74.6893L162.258 72.5747Z" fill="#E08A82"/>
<path d="M164.727 72.3814C164.727 72.7071 164.859 72.9903 165.076 73.0092C165.293 73.0281 165.496 72.7732 165.524 72.4428C165.553 72.1124 165.392 71.8292 165.17 71.815C164.948 71.8009 164.764 72.051 164.727 72.3814Z" fill="#263238"/>
<path d="M165.27 71.8384L164.576 71.4985C164.576 71.4985 164.888 72.131 165.27 71.8384Z" fill="#263238"/>
<path d="M160.645 71.9897C160.621 72.3201 160.777 72.5986 160.994 72.6175C161.211 72.6364 161.414 72.3815 161.466 72.0511C161.518 71.7207 161.334 71.4422 161.112 71.4233C160.89 71.4045 160.673 71.6593 160.645 71.9897Z" fill="#263238"/>
<path d="M161.178 71.4469L160.484 71.1118C160.484 71.1118 160.796 71.7443 161.178 71.4469Z" fill="#263238"/>
<path d="M164.93 69.6063C165.249 69.5848 165.57 69.637 165.866 69.7589C166.162 69.8809 166.426 70.0693 166.638 70.3096" stroke="#2E353A" stroke-width="0.72468" stroke-linecap="round" stroke-linejoin="round"/>
<path d="M162.017 69.2756C161.746 69.1924 161.46 69.1712 161.18 69.2137C160.9 69.2562 160.633 69.3613 160.398 69.5211" stroke="#2E353A" stroke-width="0.72468" stroke-linecap="round" stroke-linejoin="round"/>
<path d="M162.533 76.299C162.698 76.7607 162.829 77.234 162.925 77.715C163.011 77.7197 163.098 77.7197 163.185 77.715C164.36 77.6631 164.888 77.243 165.12 76.8087C165.226 76.59 165.278 76.3487 165.271 76.1055C165.272 75.9669 165.255 75.8288 165.219 75.6948C164.508 76.0517 163.729 76.2513 162.934 76.2801C162.689 76.299 162.533 76.299 162.533 76.299Z" fill="#263238"/>
<path d="M162.934 76.2752L163.061 76.6906C164.166 76.6387 164.949 76.4499 165.27 76.1006C165.271 75.962 165.254 75.8239 165.218 75.6899C164.507 76.0468 163.728 76.2465 162.934 76.2752Z" fill="white"/>
<path d="M163.184 77.7104C164.359 77.6585 164.888 77.2384 165.119 76.8042C164.671 76.8324 164.231 76.9395 163.821 77.1204C163.553 77.2471 163.33 77.4531 163.184 77.7104Z" fill="#DE5753"/>
<path d="M169.622 73.6839C169.622 73.6839 167.922 70.2808 168.347 67.7461C168.347 67.7461 160.564 64.0598 159.729 72.1169C159.729 72.1169 159.341 64.9 166.256 65.1171C173.171 65.3342 172.591 75.4397 168.857 78.2529C168.857 78.2529 170.669 75.8126 169.622 73.6839Z" fill="#263238"/>
<path d="M170.028 66.2879C170.028 66.2879 166.884 63.489 164.024 64.0176C161.164 64.5463 161.664 68.3128 165.44 69.743C169.216 71.1731 169.985 73.0139 169.985 73.0139L173.251 70.0875L170.028 66.2879Z" fill="#263238"/>
<path d="M163.184 65.1978C163.184 65.1978 161.843 65.2874 162.216 67.2793C162.589 69.2711 165.421 70.2718 168.097 71.2063C170.773 72.1409 170.556 73.1934 170.556 73.1934" stroke="#263238" stroke-width="0.5" stroke-miterlimit="10"/>
<path d="M168.918 74.496C168.982 74.0335 169.226 73.615 169.598 73.3327C169.969 73.0503 170.438 72.9272 170.901 72.9903C172.142 73.1933 172.595 75.7798 169.461 76.2282C169.013 76.2896 168.786 75.8412 168.918 74.496Z" fill="#F7A9A0"/>
<path d="M171.637 85.4323C171.637 85.4323 167.13 89.0903 162.934 89.0337C158.737 88.977 157.27 84.2523 157.27 84.2523C157.27 84.2523 163.783 82.3313 171.637 85.4323Z" fill="#F7A9A0"/>
<path d="M168.891 84.1533C167.386 94.3957 167.465 104.809 169.127 115.027L173.606 114.527L175.726 85.7723L168.891 84.1533Z" fill="#32cd71"/>
<path opacity="0.2" d="M175.725 85.7723L175.498 88.8214L174.361 104.261L173.605 114.527L169.126 115.027C169.074 114.701 169.022 114.375 168.975 114.055C168.206 108.993 167.822 103.881 167.828 98.7617V98.2378C167.831 93.5231 168.186 88.8152 168.89 84.1533L170.967 84.6253L175.725 85.7723Z" fill="white"/>
<path d="M160.285 83.5444C160.285 83.5444 155.287 98.2189 154.56 113.28L152.927 112.808C152.927 112.808 151.728 96.515 154.22 83.9456L160.285 83.5444Z" fill="#32cd71"/>
<path opacity="0.2" d="M160.285 83.5444C158.871 87.9361 157.697 92.4015 156.768 96.9209C156.514 98.1434 156.263 99.4225 156.032 100.744C155.598 103.189 155.22 105.776 154.942 108.424C154.772 110.033 154.64 111.661 154.559 113.299L152.926 112.808C152.926 112.808 152.771 110.717 152.69 107.451C152.634 105.209 152.61 102.41 152.69 99.3611C152.778 94.1897 153.288 89.0341 154.215 83.9456L158.364 83.6766L160.285 83.5444Z" fill="white"/>
<path opacity="0.2" d="M169.499 89.7088L171.085 91.9508L167.828 98.2378C167.831 93.5231 168.186 88.8152 168.89 84.1533L170.967 84.6253L172.298 87.5895L169.499 89.7088Z" fill="white"/>
<path opacity="0.2" d="M160.286 83.5444C158.872 87.9361 157.698 92.4015 156.77 96.9209L155.59 90.4687L157.922 88.3683L156.43 86.0366L158.384 83.6766L160.286 83.5444Z" fill="white"/>
<path opacity="0.2" d="M175.498 88.8213L174.361 104.26C173.034 107.564 171.231 111.251 168.975 114.054C168.206 108.993 167.822 103.881 167.828 98.7616C169.891 95.3963 172.831 91.0397 175.38 88.9157L175.498 88.8213Z" fill="black"/>
<path opacity="0.2" d="M156.034 100.73C155.599 103.175 155.222 105.761 154.943 108.409C154.202 108.093 153.442 107.758 152.706 107.427C152.649 105.185 152.626 102.387 152.706 99.3374L156.034 100.73Z" fill="black"/>
<path d="M140.287 102.245C140.287 102.245 136.775 100.829 138.272 97.1943C138.272 97.1943 137.257 98.1383 134.897 96.9678C134.897 96.9678 137.356 98.1431 137.011 98.9077C136.723 99.5449 133.49 99.8895 133.49 99.8895C133.49 99.8895 137.129 99.6393 137.516 100.423C137.757 100.918 135.312 103.85 135.312 103.85C135.312 103.85 137.885 101.362 138.432 101.683C138.98 102.004 138.257 104.076 138.257 104.076C138.257 104.076 138.956 102.287 139.357 102.344C139.758 102.4 139.697 103.595 139.697 103.595C139.697 103.595 139.711 102.325 140.287 102.245Z" fill="#32cd71"/>
<path d="M143.109 94.3484C143.109 94.3484 140.183 91.9554 137.714 95.0328C137.714 95.0328 138.059 93.6829 135.883 92.2008C135.883 92.2008 138.101 93.782 138.606 93.107C139.022 92.5501 137.757 89.5529 137.757 89.5529C137.757 89.5529 139.3 92.8569 140.173 92.8144C140.726 92.7861 142.104 89.2319 142.104 89.2319C142.104 89.2319 141.16 92.687 141.721 93.0079C142.283 93.3289 143.727 91.6958 143.727 91.6958C143.727 91.6958 142.505 93.1731 142.746 93.4988C142.986 93.8245 144.006 93.192 144.006 93.192C144.006 93.192 142.887 93.7867 143.109 94.3484Z" fill="#32cd71"/>
<path opacity="0.7" d="M140.287 102.245C140.287 102.245 136.775 100.829 138.272 97.1943C138.272 97.1943 137.257 98.1383 134.897 96.9678C134.897 96.9678 137.356 98.1431 137.011 98.9077C136.723 99.5449 133.49 99.8895 133.49 99.8895C133.49 99.8895 137.129 99.6393 137.516 100.423C137.757 100.918 135.312 103.85 135.312 103.85C135.312 103.85 137.885 101.362 138.432 101.683C138.98 102.004 138.257 104.076 138.257 104.076C138.257 104.076 138.956 102.287 139.357 102.344C139.758 102.4 139.697 103.595 139.697 103.595C139.697 103.595 139.711 102.325 140.287 102.245Z" fill="white"/>
<path opacity="0.7" d="M143.109 94.3484C143.109 94.3484 140.183 91.9554 137.714 95.0328C137.714 95.0328 138.059 93.6829 135.883 92.2008C135.883 92.2008 138.101 93.782 138.606 93.107C139.022 92.5501 137.757 89.5529 137.757 89.5529C137.757 89.5529 139.3 92.8569 140.173 92.8144C140.726 92.7861 142.104 89.2319 142.104 89.2319C142.104 89.2319 141.16 92.687 141.721 93.0079C142.283 93.3289 143.727 91.6958 143.727 91.6958C143.727 91.6958 142.505 93.1731 142.746 93.4988C142.986 93.8245 144.006 93.192 144.006 93.192C144.006 93.192 142.887 93.7867 143.109 94.3484Z" fill="white"/>
<path d="M154.14 101.4L147.801 97.0904C147.801 97.0904 145.753 91.0583 145.262 90.9544C144.771 90.8506 141.382 92.6867 141.217 93.2247C141.051 93.7628 143.053 98.0722 143.577 98.6197C144.101 99.1672 145.422 99.2239 145.422 99.2239L151.596 104.076L154.14 101.4Z" fill="#F7A9A0"/>
<path d="M175.724 85.7721C173.917 85.6541 167.257 103.448 166.261 104.94C165.265 106.432 150.265 98.5302 150.265 98.5302L148.027 103.477C148.027 103.477 164.363 113.191 168.876 111.789C172.142 110.774 175.224 100.461 176.593 95.9767C178.778 88.8353 177.376 85.8759 175.724 85.7721Z" fill="#32cd71"/>
<path opacity="0.2" d="M175.724 85.7721C173.917 85.6541 167.257 103.448 166.261 104.94C165.265 106.432 150.265 98.5302 150.265 98.5302L148.027 103.477C148.027 103.477 164.363 113.191 168.876 111.789C172.142 110.774 175.224 100.461 176.593 95.9767C178.778 88.8353 177.376 85.8759 175.724 85.7721Z" fill="white"/>
<path d="M120.437 43.8146L114.056 42.7101C113.108 42.5461 112.207 43.1814 112.043 44.1292L110.938 50.5102C110.774 51.458 111.41 52.3594 112.357 52.5234L118.738 53.6279C119.686 53.792 120.588 53.1566 120.752 52.2088L121.856 45.8278C122.02 44.88 121.385 43.9787 120.437 43.8146Z" fill="#32cd71"/>
<path opacity="0.6" d="M119.417 46.6996C118.916 45.4582 117.529 45.6612 116.684 46.4164C116.151 45.4205 114.904 44.7597 114.012 45.765C112.516 47.4595 114.621 49.6354 115.641 50.5228L115.929 50.773L116.287 50.6361C117.557 50.1405 120.271 48.8 119.417 46.6996Z" fill="white"/>
<path d="M116.731 52.4958C116.731 52.4958 114.932 55.2145 111.893 55.6346C111.893 55.6346 113.648 54.9926 114.054 51.9058L116.731 52.4958Z" fill="#32cd71"/>
<path d="M94.665 192.996H89.9922C89.9159 192.997 89.8421 193.023 89.7829 193.071C89.7236 193.119 89.6826 193.186 89.6665 193.26L88.9066 196.682C88.8758 196.83 88.9046 196.984 88.9869 197.11C89.0691 197.237 89.198 197.326 89.3455 197.357C89.3861 197.365 89.4277 197.365 89.4682 197.357C90.9786 197.357 92.0831 197.244 93.9806 197.244C95.1511 197.244 98.677 197.362 100.291 197.362C101.905 197.362 102.118 195.771 101.457 195.62C98.4929 194.979 96.265 194.082 95.321 193.232C95.2325 193.152 95.1291 193.089 95.0165 193.049C94.9039 193.008 94.7845 192.99 94.665 192.996Z" fill="#263238"/>
<path d="M114.479 192.873H109.807C109.73 192.874 109.657 192.9 109.597 192.948C109.538 192.996 109.497 193.063 109.481 193.138L108.721 196.56C108.69 196.707 108.719 196.861 108.801 196.988C108.884 197.114 109.013 197.203 109.16 197.235C109.201 197.24 109.242 197.24 109.283 197.235C110.798 197.206 111.898 197.117 113.795 197.117C114.966 197.117 118.491 197.239 120.106 197.239C121.72 197.239 121.932 195.644 121.271 195.498C118.307 194.851 116.079 193.954 115.135 193.105C114.956 192.944 114.72 192.861 114.479 192.873Z" fill="#263238"/>
<path d="M92.1868 106.384H112.601C114.541 116.981 120.091 159.876 115.735 193.294L108.919 194.039C108.919 194.039 109.976 142.686 103.888 126.284C103.184 135.063 102.349 144.404 101.627 149.369C99.8521 161.604 95.8495 193.482 95.8495 193.482L88.9395 193.667C88.9395 193.667 90.4546 162.746 91.1154 150.715C91.847 137.678 92.1585 109.065 92.1868 106.384Z" fill="#263238"/>
<path opacity="0.2" d="M92.1868 106.384H112.601C114.541 116.981 120.091 159.876 115.735 193.294L108.919 194.039C108.919 194.039 109.976 142.686 103.888 126.284C103.184 135.063 102.349 144.404 101.627 149.369C99.8521 161.604 95.8495 193.482 95.8495 193.482L88.9395 193.667C88.9395 193.667 90.4546 162.746 91.1154 150.715C91.847 137.678 92.1585 109.065 92.1868 106.384Z" fill="white"/>
<path opacity="0.2" d="M103.889 126.288C104.893 129.163 105.656 132.117 106.168 135.12C106.74 127.308 104.455 119.024 104.455 119.024L103.889 126.288Z" fill="black"/>
<path d="M112.771 106.63H92.2246V109.075L113.035 108.82L112.771 106.63Z" fill="#263238"/>
<path d="M98.8329 109.873H99.5645V105.53H98.8329V109.873Z" fill="#263238"/>
<path d="M109.225 109.873H109.957V105.53H109.225V109.873Z" fill="#263238"/>
<path d="M103.405 108.938H107.205V106.2H103.405V108.938Z" fill="white"/>
<path opacity="0.2" d="M98.8329 109.873H99.5645V105.53H98.8329V109.873Z" fill="white"/>
<path opacity="0.2" d="M109.225 109.873H109.957V105.53H109.225V109.873Z" fill="white"/>
<path d="M134.125 81.609L135.853 79.8343C135.853 79.8343 136.542 77.1675 136.938 76.6766C137.335 76.1857 140.341 74.7886 140.341 74.7886C140.341 74.7886 141.375 74.8405 141.521 75.034C141.668 75.2275 141.177 79.721 140.733 80.311C140.289 80.901 138.123 81.3966 137.825 81.4957C137.528 81.5948 134.474 84.7006 134.474 84.7006L134.125 81.609Z" fill="#F7A9A0"/>
<path d="M110.736 71.0645C113.96 71.4562 120.308 86.1118 122.734 87.4193C125.16 88.7267 134.78 80.5139 134.78 80.5139L137.206 83.5017C137.206 83.5017 126.284 95.1695 121.988 93.8857C117.693 92.6018 111.604 81.5617 109.759 78.1067C107.913 74.6517 110.736 71.0645 110.736 71.0645Z" fill="#32cd71"/>
<path opacity="0.6" d="M137.206 83.5015C137.206 83.5015 126.284 95.1693 121.989 93.8855C120.101 93.3144 117.901 90.893 115.853 88.061C113.62 84.8731 111.587 81.5502 109.764 78.1113C109.366 77.3236 109.15 76.4566 109.132 75.5743C109.114 74.6919 109.295 73.8168 109.66 73.0137C109.936 72.3278 110.299 71.6805 110.741 71.0879C113.965 71.4797 120.313 86.14 122.739 87.4474C125.165 88.7549 134.785 80.5373 134.785 80.5373L137.206 83.5015Z" fill="white"/>
<path opacity="0.2" d="M115.849 88.0376C113.616 84.8497 111.583 81.5268 109.76 78.0878C109.362 77.3002 109.146 76.4332 109.128 75.5509C109.11 74.6685 109.291 73.7934 109.656 72.9902C111.492 75.2511 115.226 80.6791 115.849 88.0376Z" fill="black"/>
<path d="M110.736 71.0646C110.736 71.0646 97.7514 70.451 88.0801 72.896C88.0801 72.896 92.3281 94.3956 92.1865 106.63H112.77C112.77 106.63 114.111 83.6859 110.736 71.0646Z" fill="#32cd71"/>
<path opacity="0.6" d="M112.77 106.63H92.1912C92.1912 105.299 92.1912 103.864 92.0968 102.353C91.9174 98.8229 91.5162 94.91 91.0301 91.1245L90.8885 90.0201C90.5581 87.561 90.2041 85.1821 89.8595 83.0109C88.9155 77.1817 88.0801 72.8959 88.0801 72.8959C97.7514 70.4557 110.736 71.0645 110.736 71.0645C114.106 83.6905 112.77 106.63 112.77 106.63Z" fill="white"/>
<path opacity="0.2" d="M104.719 93.5836C104.719 93.5836 101.165 102.056 92.098 102.353C91.9186 98.8228 91.5174 94.91 91.0312 91.1245L104.719 93.5836Z" fill="black"/>
<path d="M95.6602 71.919C97.5482 73.6135 102.094 72.9857 102.094 72.9857C102.094 72.9857 104.926 72.2069 104.345 71.3148C102.665 71.0364 101.853 70.2528 101.513 69.2522C101.326 68.6301 101.268 67.9764 101.343 67.3312C101.369 66.9731 101.417 66.6169 101.485 66.2644L95.8206 62.0825C96.5806 64.839 97.4868 69.9177 95.6602 71.919Z" fill="#F7A9A0"/>
<path opacity="0.2" d="M97.1484 64.7397C97.3703 68.1287 100.155 69.0633 101.519 69.2521C101.332 68.63 101.275 67.9763 101.349 67.331L97.1484 64.7397Z" fill="black"/>
<path d="M105.398 53.2983C105.398 53.2983 106.975 58.3959 104.506 60.8173C102.038 63.2387 100.584 53.5296 100.584 53.5296L105.398 53.2983Z" fill="#263238"/>
<path d="M97.0904 66.1698C97.7998 66.941 98.7425 67.4582 99.7741 67.6424C100.806 67.8265 101.869 67.6674 102.802 67.1894C104.019 66.5926 104.964 65.5548 105.445 64.2866C105.511 64.1119 105.567 63.9326 105.619 63.7485C106.502 60.3548 106.091 54.7144 102.415 53.1332C101.603 52.7803 100.714 52.6407 99.8334 52.7278C98.9525 52.815 98.1086 53.1258 97.3817 53.6309C96.6547 54.136 96.0691 54.8186 95.6802 55.6137C95.2913 56.4089 95.1122 57.2903 95.1599 58.1742C95.3062 61.9643 95.2118 64.1922 97.0904 66.1698Z" fill="#F7A9A0"/>
<path d="M100.89 59.3497C100.861 59.6565 101.041 59.9114 101.244 59.9161C101.447 59.9208 101.612 59.6706 101.621 59.3638C101.631 59.057 101.466 58.8022 101.267 58.7974C101.069 58.7927 100.899 59.0381 100.89 59.3497Z" fill="#263238"/>
<path d="M104.378 59.4205C104.35 59.7273 104.534 59.9821 104.732 59.9869C104.93 59.9916 105.1 59.7414 105.109 59.4346C105.119 59.1278 104.954 58.8729 104.755 58.8682C104.557 58.8635 104.387 59.1278 104.378 59.4205Z" fill="#263238"/>
<path d="M103.269 59.5479C103.614 60.5001 104.091 61.3993 104.685 62.2194C104.469 62.3661 104.224 62.464 103.966 62.5064C103.709 62.5488 103.445 62.5346 103.193 62.4648L103.269 59.5479Z" fill="#EE807C"/>
<path d="M99.828 58.1977C99.861 58.2032 99.8949 58.1999 99.9264 58.1883C99.9578 58.1768 99.9857 58.1572 100.007 58.1316C100.144 57.9504 100.321 57.8033 100.524 57.7018C100.727 57.6003 100.951 57.5471 101.178 57.5463C101.201 57.5489 101.225 57.5469 101.248 57.5402C101.271 57.5335 101.292 57.5224 101.311 57.5075C101.329 57.4926 101.344 57.4741 101.356 57.4532C101.367 57.4324 101.374 57.4095 101.376 57.3859C101.38 57.3378 101.365 57.29 101.334 57.2529C101.303 57.2159 101.259 57.1924 101.211 57.1876C100.924 57.1802 100.639 57.2414 100.381 57.3662C100.122 57.491 99.8969 57.6757 99.7241 57.9051C99.6942 57.9423 99.68 57.9897 99.6844 58.0373C99.6888 58.0848 99.7115 58.1288 99.7477 58.1599C99.7717 58.1777 99.799 58.1905 99.828 58.1977Z" fill="#263238"/>
<path d="M105.904 58.2451C105.937 58.2567 105.974 58.2567 106.007 58.2451C106.052 58.2255 106.086 58.1892 106.104 58.1441C106.122 58.0991 106.121 58.0489 106.102 58.0044C105.986 57.7404 105.808 57.5079 105.584 57.3264C105.36 57.145 105.096 57.0198 104.813 56.9613C104.766 56.9545 104.719 56.9666 104.681 56.9949C104.643 57.0232 104.617 57.0655 104.61 57.1123C104.606 57.1594 104.619 57.2066 104.646 57.2448C104.674 57.2831 104.715 57.3099 104.761 57.32C104.983 57.3709 105.19 57.4735 105.365 57.6195C105.539 57.7656 105.677 57.9508 105.767 58.1602C105.78 58.1849 105.8 58.2056 105.824 58.2205C105.848 58.2354 105.875 58.2438 105.904 58.2451Z" fill="#263238"/>
<path d="M98.0345 53.5015L98.2846 55.1676C98.0064 55.3108 97.7922 55.5534 97.6847 55.8472C97.5771 56.1411 97.584 56.4646 97.7041 56.7535C98.2799 58.1412 97.5436 60.3407 96.491 61.2423C96.491 61.2423 96.4391 60.6334 95.9293 60.7939C95.4196 60.9543 95.6509 64.0979 96.694 65.5988C95.3608 64.2235 94.4077 62.5255 93.9281 60.6711C93.0549 57.6173 93.1445 55.3517 93.744 54.1434L98.0345 53.5015Z" fill="#263238"/>
<path d="M93.4556 61.2471C93.6515 61.6809 93.9319 62.0712 94.2803 62.3954C94.6288 62.7195 95.0384 62.971 95.4852 63.1351C96.6746 63.5646 97.3732 62.5168 97.1088 61.3462C96.8728 60.3078 95.9808 58.7974 94.7488 58.8871C93.5169 58.9768 92.9836 60.1804 93.4556 61.2471Z" fill="#F7A9A0"/>
<path d="M103.481 63.3945C103.323 63.8327 103.198 64.2824 103.108 64.7397H102.863C101.749 64.6878 101.249 64.296 101.032 63.876C100.929 63.6693 100.879 63.4409 100.885 63.2104C100.884 63.0812 100.902 62.9525 100.937 62.8281C101.611 63.1626 102.347 63.3507 103.099 63.3804L103.481 63.3945Z" fill="#263238"/>
<path d="M103.1 63.3711L102.982 63.7628C101.935 63.7109 101.203 63.5363 100.887 63.2012C100.886 63.0719 100.903 62.9432 100.939 62.8188C101.612 63.1533 102.349 63.3415 103.1 63.3711Z" fill="white"/>
<path d="M102.863 64.7305C101.749 64.6785 101.248 64.2868 101.031 63.8667C101.455 63.8942 101.87 63.9964 102.258 64.1688C102.513 64.2886 102.725 64.485 102.863 64.7305Z" fill="#DE5753"/>
<path d="M99.1905 54.0725C99.1905 54.0725 99.4407 56.0643 96.9532 57.0933C94.4658 58.1222 93.5596 58.9813 93.5596 58.9813C93.5596 58.9813 91.8792 54.0961 94.9284 52.293C94.9284 52.293 94.9897 51.349 97.6046 50.457C100.219 49.5649 103.967 49.985 105.666 53.1332C106.941 55.4932 105.761 57.1782 105.761 57.1782C105.761 57.1782 105.511 55.8094 103.085 55.4979C101.698 55.3126 100.369 54.826 99.1905 54.0725Z" fill="#263238"/>
<path d="M103.954 72.7118L103.407 75.3974C103.407 75.3974 106.536 88.4435 107.183 95.2214L106.045 96.3637L104.251 95.2214C104.251 95.2214 104.091 81.439 102.51 75.6523L99.6777 73.3301L101.91 72.6079L103.954 72.7118Z" fill="#263238"/>
<path d="M96.289 69.3843L101.717 71.8292L102.033 69.8657L104.025 70.569C104.373 70.6912 104.671 70.9272 104.868 71.2389C105.066 71.5506 105.153 71.9198 105.115 72.2871L104.889 74.4394L102.137 72.9337L100.764 74.8736L94.25 71.7348L96.289 69.3843Z" fill="#32cd71"/>
<path opacity="0.7" d="M96.289 69.3843L101.717 71.8292L102.033 69.8657L104.025 70.569C104.373 70.6912 104.671 70.9272 104.868 71.2389C105.066 71.5506 105.153 71.9198 105.115 72.2871L104.889 74.4394L102.137 72.9337L100.764 74.8736L94.25 71.7348L96.289 69.3843Z" fill="white"/>
<path d="M110.693 90.1522L117.226 88.9391C117.226 88.9391 118.439 87.7261 119.001 87.7261C119.562 87.7261 126.845 89.9634 126.845 89.9634C126.845 89.9634 124.882 91.9269 123.947 92.2998C123.013 92.6726 118.722 91.7381 118.722 91.7381L112.374 93.4184L110.693 90.1522Z" fill="#F7A9A0"/>
<path d="M88.0804 72.8957C91.0635 71.8101 95.4719 89.4723 96.4065 90.8742C97.3411 92.276 114.895 88.8162 114.895 88.8162L116.311 92.9274C116.311 92.9274 101.466 98.0627 95.3067 97.0385C89.1471 96.0142 87.7547 87.0462 86.2491 81.7268C84.7434 76.4074 85.9045 73.6792 88.0804 72.8957Z" fill="#32cd71"/>
<path opacity="0.7" d="M88.0804 72.8957C91.0635 71.8101 95.4719 89.4723 96.4065 90.8742C97.3411 92.276 114.895 88.8162 114.895 88.8162L116.311 92.9274C116.311 92.9274 101.466 98.0627 95.3067 97.0385C89.1471 96.0142 87.7547 87.0462 86.2491 81.7268C84.7434 76.4074 85.9045 73.6792 88.0804 72.8957Z" fill="white"/>
<path d="M135.237 72.8817C135.372 72.5868 135.568 72.3239 135.812 72.1106C136.056 71.8974 136.343 71.7387 136.653 71.6451C137.225 71.4762 137.835 71.4878 138.4 71.6781C138.968 71.863 139.464 72.2232 139.816 72.7071C139.906 72.826 139.983 72.9541 140.047 73.0894C140.114 73.2221 140.168 73.3613 140.207 73.5047L140.269 73.7124L140.297 73.9107L140.349 74.3071C140.438 75.3839 140.098 76.4523 139.405 77.2807C138.748 78.0616 137.894 78.6518 136.932 78.9894C136.013 79.318 135.042 79.4779 134.067 79.4614C133.593 79.4615 133.119 79.4267 132.651 79.3576C132.223 79.2729 131.788 79.2287 131.353 79.2254C130.965 79.2209 130.586 79.3454 130.276 79.5794C130.139 79.6724 130.034 79.8065 129.978 79.9624C129.921 80.1184 129.915 80.2882 129.96 80.4479C130.018 80.5921 130.127 80.7102 130.266 80.7797C130.405 80.8493 130.565 80.8655 130.715 80.8255C130.803 80.792 130.88 80.7355 130.938 80.6619C130.996 80.5883 131.033 80.5005 131.045 80.4076C131.057 80.3147 131.044 80.2202 131.006 80.1343C130.969 80.0483 130.909 79.974 130.833 79.9192C130.962 79.9486 131.077 80.0187 131.162 80.1191C131.247 80.2195 131.297 80.3448 131.305 80.4762C131.314 80.6245 131.282 80.7723 131.214 80.9043C131.146 81.0363 131.044 81.1476 130.918 81.2267C130.787 81.3075 130.638 81.3549 130.484 81.3648C130.33 81.3746 130.176 81.3467 130.036 81.2833C129.752 81.1715 129.523 80.9529 129.398 80.6744C129.294 80.3975 129.278 80.0946 129.354 79.8084C129.431 79.5223 129.595 79.2672 129.823 79.0791C130.233 78.7301 130.745 78.5231 131.282 78.4891C131.764 78.4666 132.248 78.4888 132.726 78.5551C133.164 78.5984 133.604 78.6063 134.043 78.5787C134.908 78.5435 135.76 78.3549 136.559 78.0218C137.329 77.7179 138.007 77.2165 138.522 76.568C139.015 75.9116 139.232 75.0883 139.126 74.2741C139.103 74.0608 139.036 73.8544 138.931 73.667C138.827 73.4797 138.685 73.3152 138.516 73.1833C138.347 73.0513 138.153 72.9546 137.946 72.8987C137.738 72.8429 137.522 72.8291 137.309 72.8581C136.422 73.0139 135.775 73.8021 135.383 74.5573L135.237 72.8817Z" fill="#32cd71"/>
<path d="M122.976 68.7044C123.049 68.3859 123.053 68.0553 122.987 67.7351C122.921 67.415 122.787 67.1129 122.593 66.8494C122.241 66.3639 121.746 66.0007 121.177 65.811C120.614 65.6091 120.001 65.5909 119.426 65.7591C119.281 65.7973 119.142 65.8527 119.011 65.9243C118.876 65.9848 118.75 66.0609 118.633 66.1509L118.454 66.2783L118.307 66.4199L118.024 66.6984C117.299 67.4995 116.919 68.5545 116.967 69.6342C117.01 70.6533 117.325 71.6424 117.878 72.4993C118.402 73.3248 119.07 74.0491 119.851 74.6374C120.229 74.9315 120.63 75.1951 121.05 75.4257C121.438 75.6244 121.809 75.8549 122.159 76.1148C122.465 76.3546 122.688 76.685 122.796 77.0588C122.846 77.2171 122.846 77.3871 122.795 77.5451C122.744 77.7032 122.646 77.8417 122.513 77.9414C122.379 78.0196 122.222 78.0465 122.07 78.0169C121.918 77.9874 121.782 77.9035 121.687 77.781C121.638 77.6998 121.612 77.607 121.612 77.5123C121.612 77.4177 121.638 77.3248 121.686 77.2434C121.734 77.1621 121.804 77.0954 121.887 77.0505C121.971 77.0055 122.064 76.9839 122.159 76.988C122.039 76.9284 121.903 76.91 121.772 76.9356C121.64 76.9612 121.521 77.0294 121.432 77.1296C121.333 77.2409 121.267 77.3771 121.239 77.5234C121.212 77.6697 121.225 77.8207 121.276 77.9603C121.331 78.1049 121.42 78.2339 121.536 78.3359C121.652 78.438 121.791 78.51 121.942 78.5456C122.235 78.6294 122.549 78.5973 122.82 78.4559C123.072 78.3005 123.269 78.0697 123.384 77.7962C123.498 77.5227 123.524 77.2202 123.457 76.9314C123.348 76.4039 123.07 75.9265 122.664 75.572C122.295 75.2605 121.898 74.9825 121.479 74.7413C121.107 74.5074 120.754 74.2455 120.422 73.9578C119.759 73.4011 119.2 72.7316 118.77 71.9801C118.342 71.2667 118.112 70.452 118.104 69.6201C118.113 68.8002 118.442 68.0161 119.02 67.4347C119.171 67.2803 119.35 67.1575 119.549 67.0737C119.748 66.9899 119.961 66.9468 120.177 66.9468C120.392 66.9468 120.606 66.9899 120.804 67.0737C121.003 67.1575 121.183 67.2803 121.333 67.4347C121.937 68.1002 121.97 69.1198 121.805 69.9552L122.976 68.7044Z" fill="#32cd71"/>
<g opacity="0.2">
<path opacity="0.2" d="M135.237 72.8817C135.372 72.5868 135.568 72.3239 135.812 72.1106C136.056 71.8974 136.343 71.7387 136.653 71.6451C137.225 71.4762 137.835 71.4878 138.4 71.6781C138.968 71.863 139.464 72.2232 139.816 72.7071C139.906 72.826 139.983 72.9541 140.047 73.0894C140.114 73.2221 140.168 73.3613 140.207 73.5047L140.269 73.7124L140.297 73.9107L140.349 74.3071C140.438 75.3839 140.098 76.4523 139.405 77.2807C138.748 78.0616 137.894 78.6518 136.932 78.9894C136.013 79.318 135.042 79.4779 134.067 79.4614C133.593 79.4615 133.119 79.4267 132.651 79.3576C132.223 79.2729 131.788 79.2287 131.353 79.2254C130.965 79.2209 130.586 79.3454 130.276 79.5794C130.139 79.6724 130.034 79.8065 129.978 79.9624C129.921 80.1184 129.915 80.2882 129.96 80.4479C130.018 80.5921 130.127 80.7102 130.266 80.7797C130.405 80.8493 130.565 80.8655 130.715 80.8255C130.803 80.792 130.88 80.7355 130.938 80.6619C130.996 80.5883 131.033 80.5005 131.045 80.4076C131.057 80.3147 131.044 80.2202 131.006 80.1343C130.969 80.0483 130.909 79.974 130.833 79.9192C130.962 79.9486 131.077 80.0187 131.162 80.1191C131.247 80.2195 131.297 80.3448 131.305 80.4762C131.314 80.6245 131.282 80.7723 131.214 80.9043C131.146 81.0363 131.044 81.1476 130.918 81.2267C130.787 81.3075 130.638 81.3549 130.484 81.3648C130.33 81.3746 130.176 81.3467 130.036 81.2833C129.752 81.1715 129.523 80.9529 129.398 80.6744C129.294 80.3975 129.278 80.0946 129.354 79.8084C129.431 79.5223 129.595 79.2672 129.823 79.0791C130.233 78.7301 130.745 78.5231 131.282 78.4891C131.764 78.4666 132.248 78.4888 132.726 78.5551C133.164 78.5984 133.604 78.6063 134.043 78.5787C134.908 78.5435 135.76 78.3549 136.559 78.0218C137.329 77.7179 138.007 77.2165 138.522 76.568C139.015 75.9116 139.232 75.0883 139.126 74.2741C139.103 74.0608 139.036 73.8544 138.931 73.667C138.827 73.4797 138.685 73.3152 138.516 73.1833C138.347 73.0513 138.153 72.9546 137.946 72.8987C137.738 72.8429 137.522 72.8291 137.309 72.8581C136.422 73.0139 135.775 73.8021 135.383 74.5573L135.237 72.8817Z" fill="black"/>
<path opacity="0.2" d="M122.976 68.7044C123.049 68.3859 123.053 68.0553 122.987 67.7351C122.921 67.415 122.787 67.1129 122.593 66.8494C122.241 66.3639 121.746 66.0007 121.177 65.811C120.614 65.6091 120.001 65.5909 119.426 65.7591C119.281 65.7973 119.142 65.8527 119.011 65.9243C118.876 65.9848 118.75 66.0609 118.633 66.1509L118.454 66.2783L118.307 66.4199L118.024 66.6984C117.299 67.4995 116.919 68.5545 116.967 69.6342C117.01 70.6533 117.325 71.6424 117.878 72.4993C118.402 73.3248 119.07 74.0491 119.851 74.6374C120.229 74.9315 120.63 75.1951 121.05 75.4257C121.438 75.6244 121.809 75.8549 122.159 76.1148C122.465 76.3546 122.688 76.685 122.796 77.0588C122.846 77.2171 122.846 77.3871 122.795 77.5451C122.744 77.7032 122.646 77.8417 122.513 77.9414C122.379 78.0196 122.222 78.0465 122.07 78.0169C121.918 77.9874 121.782 77.9035 121.687 77.781C121.638 77.6998 121.612 77.607 121.612 77.5123C121.612 77.4177 121.638 77.3248 121.686 77.2434C121.734 77.1621 121.804 77.0954 121.887 77.0505C121.971 77.0055 122.064 76.9839 122.159 76.988C122.039 76.9284 121.903 76.91 121.772 76.9356C121.64 76.9612 121.521 77.0294 121.432 77.1296C121.333 77.2409 121.267 77.3771 121.239 77.5234C121.212 77.6697 121.225 77.8207 121.276 77.9603C121.331 78.1049 121.42 78.2339 121.536 78.3359C121.652 78.438 121.791 78.51 121.942 78.5456C122.235 78.6294 122.549 78.5973 122.82 78.4559C123.072 78.3005 123.269 78.0697 123.384 77.7962C123.498 77.5227 123.524 77.2202 123.457 76.9314C123.348 76.4039 123.07 75.9265 122.664 75.572C122.295 75.2605 121.898 74.9825 121.479 74.7413C121.107 74.5074 120.754 74.2455 120.422 73.9578C119.759 73.4011 119.2 72.7316 118.77 71.9801C118.342 71.2667 118.112 70.452 118.104 69.6201C118.113 68.8002 118.442 68.0161 119.02 67.4347C119.171 67.2803 119.35 67.1575 119.549 67.0737C119.748 66.9899 119.961 66.9468 120.177 66.9468C120.392 66.9468 120.606 66.9899 120.804 67.0737C121.003 67.1575 121.183 67.2803 121.333 67.4347C121.937 68.1002 121.97 69.1198 121.805 69.9552L122.976 68.7044Z" fill="black"/>
</g>
<path d="M128.385 79.7207C131.316 79.395 134.233 77.1719 135.856 73.7546L136.602 72.1829L122.305 67.3071L121.937 69.0063C121.139 72.7068 122.093 76.2421 124.212 78.2906C124.489 78.5651 124.685 78.9111 124.778 79.2903C124.87 79.6694 124.856 80.0668 124.736 80.4382L123.726 83.6006C123.608 83.9748 123.36 84.2943 123.026 84.5006C122.693 84.7069 122.296 84.7861 121.909 84.7239C121.202 84.6029 120.475 84.7439 119.865 85.1204L119.119 85.5924L127.979 88.6132L127.681 87.7825C127.427 87.1116 126.937 86.5563 126.303 86.2202C125.958 86.0341 125.691 85.7297 125.553 85.3629C125.414 84.9961 125.412 84.5916 125.548 84.2236L126.681 81.099C126.81 80.7347 127.038 80.4132 127.339 80.17C127.639 79.9268 128.001 79.7713 128.385 79.7207Z" fill="#32cd71"/>
<path d="M118.907 84.6958L128.696 88.0281L127.983 91.3368L117.453 87.7496L118.907 84.6958Z" fill="#263238"/>
<path opacity="0.2" d="M121.138 85.4556L126.463 87.268L125.75 90.572L119.689 88.5094L121.138 85.4556Z" fill="white"/>
<path d="M125.08 87.8404L121.898 86.7568L121.477 87.9945L124.658 89.078L125.08 87.8404Z" fill="white"/>
<path opacity="0.3" d="M124.726 78.0689C124.987 78.384 125.161 78.7615 125.233 79.1645C125.304 79.5675 125.269 79.9821 125.131 80.3675L123.918 83.9406C123.678 84.6391 123.385 84.8374 122.545 84.8846C122.052 84.8751 121.564 84.9921 121.129 85.2244L122.616 85.7342C122.79 85.6605 122.975 85.6144 123.163 85.5973H123.404C123.565 85.5863 123.719 85.528 123.846 85.4297C123.974 85.3314 124.07 85.1976 124.121 85.0451L126.099 79.2395C126.17 79.0334 126.192 78.8138 126.165 78.5976C126.137 78.3815 126.059 78.1747 125.939 77.9934L125.688 77.6111C124.638 76.0104 124.25 74.0641 124.608 72.1831L125.226 68.7375L123.078 68.0059L122.606 71.9943C122.333 73.9059 123.192 76.4311 124.726 78.0689Z" fill="white"/>
<path d="M99.8574 85.2338L98.1959 84.776L96.5911 85.5406L96.2324 81.7458L99.5034 81.439L99.8574 85.2338Z" fill="#32cd71"/>
<path opacity="0.2" d="M99.8574 85.2338L98.1959 84.776L96.5911 85.5406L96.2324 81.7458L99.5034 81.439L99.8574 85.2338Z" fill="white"/>
<path d="M97.582 78.4468L97.9266 78.6309L98.2853 78.4704L98.5732 78.7347L98.965 78.6686L99.1774 78.9943L99.5691 79.0273L99.6966 79.4002L100.069 79.5277L100.098 79.9194L100.428 80.1318L100.357 80.5189L100.622 80.8115L100.461 81.1702L100.645 81.5148L100.4 81.8216L100.49 82.2039L100.173 82.4399L100.169 82.8317L99.8051 82.9827L99.7013 83.3603L99.3142 83.4122L99.1207 83.7568L98.729 83.7096L98.4552 83.9928L98.087 83.8559L97.7519 84.0589L97.431 83.8323L97.0581 83.9503L96.8032 83.6482L96.4114 83.6671L96.2368 83.3131L95.8545 83.2376L95.7742 82.8505L95.4202 82.6806L95.4391 82.2841L95.1418 82.0293L95.2598 81.6564L95.0332 81.3354L95.2362 81.0003L95.0993 80.6321L95.3825 80.3584L95.34 79.9713L95.6798 79.7731L95.7365 79.3861L96.1141 79.2822L96.2651 78.9188L96.6569 78.9141L96.8929 78.6025L97.2752 78.6922L97.582 78.4468Z" fill="#32cd71"/>
<path opacity="0.4" d="M98.4412 83.5367C99.709 83.202 100.465 81.9029 100.131 80.6351C99.7959 79.3673 98.4969 78.611 97.2291 78.9457C95.9613 79.2804 95.2049 80.5795 95.5397 81.8473C95.8744 83.115 97.1735 83.8714 98.4412 83.5367Z" fill="white"/>
<path d="M97.9067 81.057L97.8784 81.4818L98.2182 81.4534V81.7933L97.869 81.8216L97.8359 82.355L97.5008 82.388L97.5386 81.8546L97.2506 81.883L97.2129 82.4116L96.8825 82.4446L96.9155 81.9113L96.5898 81.9443V81.6045L96.9202 81.5714L96.9533 81.1466L96.6229 81.1797V80.8398L96.9533 80.8068L96.9958 80.1979L97.3262 80.1696L97.2837 80.7738H97.5716L97.6141 80.1649L97.9492 80.1318L97.9067 80.7407L98.2513 80.7077V81.0475L97.9067 81.057ZM97.5716 81.09H97.2837L97.2554 81.5195L97.5433 81.4912L97.5716 81.09Z" fill="#32cd71"/>
<path d="M98.9372 82.2509L98.7814 80.547L98.4982 80.5754L98.4746 80.3441C98.5552 80.3247 98.6297 80.2858 98.6917 80.2308C98.7591 80.1797 98.8087 80.1087 98.8333 80.0278H99.0646L99.2723 82.2368L98.9372 82.2509Z" fill="#32cd71"/>
</svg>
