<svg width="50" height="69" viewBox="0 0 50 69" fill="none" xmlns="http://www.w3.org/2000/svg">
<g clip-path="url(#clip0_1508_21684)">
<path d="M25.0888 39.5734C28.6085 39.5734 32.1356 39.4325 35.6497 39.6035C42.9046 39.953 49.2433 46.3794 49.9457 53.6947C50.2672 57.0451 49.2006 59.518 46.5469 61.538C41.4346 65.4334 35.7965 67.9419 29.4262 68.7161C19.3336 69.9432 10.3839 67.211 2.53253 60.7338C0.711378 59.2305 -0.102566 57.2236 0.0126497 54.8691C0.42148 46.5354 6.57624 40.0995 14.8086 39.5865C18.2242 39.3742 21.6621 39.5508 25.0907 39.5508C25.0888 39.5584 25.0888 39.5659 25.0888 39.5734Z" fill="#C2CAE8"/>
<path d="M40.6951 15.7956C40.7509 24.4921 33.7227 31.6438 25.0611 31.7059C16.4719 31.766 9.41957 24.6443 9.36939 15.8614C9.32108 7.15561 16.2582 0.073336 24.9031 5.16213e-05C33.6186 -0.0713536 40.6375 6.94891 40.6951 15.7956Z" fill="#C2CAE8"/>
</g>
<defs>
<clipPath id="clip0_1508_21684">
<rect width="50" height="69" fill="white"/>
</clipPath>
</defs>
</svg>
