<svg width="348" height="287" viewBox="0 0 348 287" fill="none" xmlns="http://www.w3.org/2000/svg">
<path d="M0.949219 257.022L44.2299 256.805L87.5106 256.724L174.081 256.571L260.642 256.724L303.932 256.805L347.213 257.022L303.932 257.247L260.642 257.319L174.081 257.472L87.5106 257.319L44.2299 257.238L0.949219 257.022Z" fill="#263238"/>
<path d="M201.366 140.485C201.334 140.692 201.376 140.902 201.483 141.081C201.59 141.261 201.755 141.397 201.952 141.468C202.898 141.612 204.052 141.765 205.332 141.946C209.145 133.67 213.04 127.152 211.94 129.731C210.26 133.781 209.159 138.048 208.668 142.405C210.155 142.604 213.626 143.028 215.357 143.235C219.341 128.468 223.732 117.614 223.218 121.022C221.126 134.77 221.496 139.259 221.974 144.064C238.137 146.029 259.368 148.355 274.756 149.681C277.271 141.567 279.624 132.696 279.841 133.345C281.526 138.168 281.49 144.984 281.067 150.212C285.971 150.6 289.901 150.807 292.308 150.807C292.308 150.807 294.111 143.938 294.436 141.666C295.401 135.854 295.346 129.917 294.273 124.123C293.165 118.209 290.803 112.891 288.594 107.455C288.587 107.421 288.578 107.388 288.567 107.355C287.102 103.794 286.05 100.077 285.43 96.2761C285.424 96.2464 285.424 96.2157 285.43 96.186C285.018 93.4142 284.84 90.6127 284.898 87.8111C285.096 77.5521 280.499 68.3298 271.763 64.9943C256.843 49.75 236.353 56.7456 230.565 69.637C228.302 75.4156 226.057 82.961 224.101 88.7757C224.107 88.7853 224.11 88.7962 224.11 88.8072C224.11 88.8183 224.107 88.8292 224.101 88.8388C223.363 91.1196 222.487 93.3534 221.478 95.5279C216.114 105.913 205.783 111.268 201.366 140.485Z" fill="#263238"/>
<path d="M275.361 68.0233C280.959 71.7285 284.15 76.7858 284.376 84.3043C284.52 88.6856 284.376 92.9496 285.611 97.1596C286.846 101.505 289.081 105.165 291.398 108.816C295.067 114.622 297.483 120.319 297.474 127.675C297.465 135.031 296.356 143.902 293.39 150.654C293.39 150.699 293.318 150.654 293.336 150.654C295.861 143.758 296.78 134.04 296.266 126.593C295.698 118.408 291.876 113.017 288.036 106.553C284.941 101.422 283.23 95.5767 283.068 89.587C282.96 85.8729 283.357 82.0416 282.275 78.4716C280.995 74.2166 277.93 71.3408 274.865 68.7716C274.459 68.402 274.937 67.7439 275.361 68.0233Z" fill="#263238"/>
<path d="M210.459 106.283C215.129 100.793 219.898 96.1679 222.981 89.1543C225.785 82.7627 227.669 75.9384 230.508 69.5648C230.508 69.4566 230.698 69.5107 230.653 69.6279C226.145 80.9867 224.414 92.6521 216.535 101.91C212.244 106.941 207.998 111.583 204.915 117.759C201.762 124.271 199.791 131.291 199.091 138.493C199.091 138.745 198.758 138.709 198.758 138.493C198.753 126.715 202.896 115.311 210.459 106.283Z" fill="#263238"/>
<path d="M165.06 246.185C165.06 246.185 208.575 257.905 215.769 256.643C222.963 255.381 247.249 222.693 252.64 210.838C258.031 198.983 266.983 140.008 265.261 133.517C263.539 127.026 254.533 126.936 246.933 143.668C239.334 160.399 221.367 197.18 218.167 200.209C214.966 203.238 161.553 243.048 165.06 246.185Z" fill="#FFAC92"/>
<path d="M211.993 252.766C205.322 249.277 197.199 240.812 191.664 239.929C190.31 239.664 188.907 239.842 187.662 240.436C186.416 241.03 185.395 242.009 184.75 243.228C184.75 243.228 182.207 237.576 177.051 237.603C174.41 237.603 172.102 241.858 172.102 241.858C172.102 241.858 169.857 237.414 165.286 237.72C161.635 237.964 159.877 242.183 159.877 242.183C159.877 242.183 155.749 238.919 152.107 240.38C144.732 243.292 143.506 274.636 154.865 279.937C160.157 282.407 160.04 274.736 160.04 274.736C160.04 274.736 162.87 285.734 169.325 286.148C175.78 286.563 175.032 276.611 175.032 276.611C175.032 276.611 177.871 287.239 184.605 286.996C191.619 286.752 189.167 276.917 189.167 276.917C189.167 276.917 193.62 284.075 198.732 282.705C207.179 280.451 198.101 263.485 200.012 256.661H210.623L211.993 252.766Z" fill="#FFAC92"/>
<path d="M202.362 246.095C208.97 248.854 216.506 238.423 223.304 240.848C232.12 243.995 223.971 254.876 210.611 256.643H200L202.362 246.095Z" fill="#FFAC92"/>
<path d="M159.49 242.805C159.49 242.783 159.482 242.763 159.467 242.747C159.451 242.732 159.431 242.724 159.409 242.724C159.388 242.724 159.367 242.732 159.352 242.747C159.337 242.763 159.328 242.783 159.328 242.805C156.416 253.019 156.335 265.135 159.986 275.177C160.103 275.502 160.698 275.457 160.635 275.069C158.85 263.963 158.147 253.992 159.49 242.805Z" fill="#263238"/>
<path d="M172.037 241.678C172.037 241.552 171.848 241.525 171.812 241.678C168.864 252.225 169.107 265.865 174.724 276.953C174.913 277.332 175.472 277.476 175.282 277.025C172.136 269.381 170.775 251.766 172.037 241.678Z" fill="#263238"/>
<path d="M189.816 277.575C184.885 266.757 183.92 255.426 184.605 243.652C184.605 243.499 184.398 243.499 184.353 243.652C182.45 249.322 182.802 256.868 183.568 262.719C184.168 268.148 186.179 273.326 189.401 277.737C189.563 277.927 189.924 277.81 189.816 277.575Z" fill="#263238"/>
<path d="M223.831 240.019C219.504 238.577 215.06 242.038 211.418 243.977C210.252 244.67 209.023 245.253 207.749 245.717C204.864 246.618 202.727 246.041 201.438 245.239C199.419 243.95 193.117 237.657 188.565 239.749C186.994 240.484 185.649 241.626 184.67 243.057C183.282 240.533 181.506 237.783 178.432 237.279C177.755 237.164 177.061 237.193 176.396 237.366C175.731 237.538 175.11 237.85 174.574 238.279C174.001 238.721 173.491 239.24 173.059 239.821C172.631 240.342 172.279 240.922 172.013 241.543C172.012 241.522 172.012 241.501 172.013 241.479L171.914 241.29L171.725 240.903C171.468 240.383 171.102 239.925 170.652 239.559C170.566 239.472 170.464 239.403 170.351 239.356C170.238 239.31 170.116 239.287 169.994 239.289C169.975 239.289 169.957 239.296 169.943 239.31C169.929 239.324 169.922 239.342 169.922 239.361C169.922 239.38 169.929 239.398 169.943 239.412C169.957 239.426 169.975 239.433 169.994 239.433C170.205 239.533 170.376 239.702 170.481 239.911C170.625 240.127 170.76 240.353 170.914 240.56C171.067 240.767 171.211 240.984 171.364 241.191L171.59 241.525L171.689 241.696C171.732 241.751 171.78 241.802 171.833 241.849C171.846 241.866 171.862 241.88 171.881 241.889C171.9 241.898 171.92 241.903 171.941 241.903C171.962 241.903 171.983 241.898 172.002 241.889C172.02 241.88 172.037 241.866 172.049 241.849C172.513 241.437 172.933 240.978 173.302 240.479C173.757 239.951 174.261 239.468 174.808 239.036C175.328 238.634 175.926 238.346 176.565 238.191C177.203 238.036 177.867 238.017 178.513 238.135C181.272 238.676 183.021 241.128 184.49 243.319C184.49 243.319 184.49 243.319 184.535 243.319C184.49 243.391 184.589 243.454 184.643 243.4C186.158 242.074 187.6 240.587 189.692 240.281C191.945 239.947 194.082 241.029 195.948 242.165C196.883 242.714 197.786 243.316 198.652 243.968C199.419 244.563 200.149 245.23 200.969 245.771C204.476 247.979 208.316 246.266 209.272 245.861C211.157 245.012 212.984 244.042 214.744 242.958C216.513 241.772 218.508 240.965 220.604 240.587C221.566 240.445 222.549 240.55 223.46 240.89C224.371 241.231 225.181 241.796 225.814 242.534C226.473 243.382 227.311 244.968 225.589 248.583C225.589 248.583 225.589 248.655 225.643 248.628C226.545 247.691 229.411 241.885 223.831 240.019Z" fill="#263238"/>
<path d="M261.844 188.291L220.781 181.728C220.781 181.728 240.398 142.883 252.18 131.614C263.81 120.49 269.471 131.885 267.758 149.067C265.865 168.116 261.844 188.291 261.844 188.291Z" fill="#37474F"/>
<path d="M260.514 180.647C259.36 180.376 258.179 180.205 257.025 179.944C255.871 179.682 254.762 179.52 253.626 179.349C251.309 178.988 248.984 178.664 246.667 178.348C242.087 177.717 237.508 177.023 232.91 176.545C230.296 176.257 227.699 175.86 225.076 175.644C224.995 175.644 224.986 175.77 225.076 175.788C229.629 176.852 234.262 177.591 238.878 178.393C243.493 179.195 248.037 179.845 252.635 180.34C253.924 180.485 255.222 180.647 256.511 180.71C257.8 180.773 259.17 180.899 260.496 180.917C260.531 180.92 260.567 180.908 260.594 180.884C260.621 180.86 260.637 180.827 260.64 180.791C260.642 180.755 260.63 180.72 260.607 180.693C260.583 180.666 260.55 180.649 260.514 180.647Z" fill="#263238"/>
<path d="M238.984 257.003H347.731C347.731 257.003 302.53 144.822 279.551 128.433C272.655 123.51 261.665 122.961 254.255 132.841C248.179 140.954 231.312 173.183 230.546 184.776C229.78 196.369 238.876 207.827 238.876 207.827L238.984 257.003Z" fill="#455A64"/>
<path d="M274.992 180.989C275.272 180.917 275.542 180.881 275.813 180.827C276.051 180.773 276.299 180.773 276.537 180.828C276.775 180.882 276.998 180.99 277.19 181.142C277.381 181.294 277.536 181.488 277.642 181.708C277.748 181.928 277.804 182.169 277.805 182.414C277.798 182.631 277.848 182.847 277.949 183.039C278.05 183.232 278.199 183.395 278.382 183.513C278.586 183.642 278.818 183.722 279.058 183.748C279.334 183.788 279.608 183.842 279.878 183.91C279.608 183.982 279.337 184.018 279.058 184.072C278.756 184.132 278.443 184.104 278.156 183.991C277.851 183.861 277.592 183.643 277.411 183.366C277.229 183.088 277.134 182.763 277.138 182.432C277.133 182.215 277.073 182.003 276.964 181.816C276.855 181.628 276.701 181.471 276.516 181.359C276.301 181.242 276.065 181.171 275.822 181.151C275.542 181.097 275.272 181.061 274.992 180.989Z" fill="white"/>
<path d="M233.395 180.989C233.665 180.917 233.935 180.881 234.206 180.827C234.444 180.773 234.692 180.773 234.93 180.828C235.169 180.882 235.392 180.99 235.583 181.142C235.774 181.294 235.929 181.488 236.035 181.708C236.142 181.928 236.197 182.169 236.198 182.414C236.193 182.632 236.245 182.848 236.347 183.04C236.45 183.233 236.6 183.396 236.784 183.513C236.987 183.645 237.219 183.725 237.46 183.748C237.731 183.802 238.001 183.829 238.272 183.91C238.001 183.982 237.731 184.018 237.46 184.072C237.158 184.131 236.846 184.103 236.559 183.991C236.256 183.858 235.998 183.64 235.817 183.363C235.637 183.086 235.54 182.762 235.54 182.432C235.535 182.215 235.475 182.003 235.367 181.816C235.258 181.628 235.104 181.471 234.918 181.359C234.704 181.241 234.467 181.17 234.224 181.151C233.935 181.097 233.665 181.061 233.395 180.989Z" fill="white"/>
<path d="M290.098 235.025C290.368 234.953 290.648 234.917 290.918 234.863C291.156 234.812 291.403 234.815 291.64 234.871C291.878 234.928 292.099 235.036 292.289 235.189C292.479 235.342 292.633 235.535 292.738 235.755C292.844 235.974 292.9 236.215 292.901 236.458C292.899 236.676 292.951 236.891 293.054 237.083C293.156 237.275 293.305 237.439 293.487 237.558C293.692 237.684 293.924 237.761 294.163 237.784C294.434 237.838 294.713 237.874 294.984 237.946C294.713 238.027 294.434 238.063 294.163 238.117C293.86 238.174 293.548 238.143 293.262 238.027C292.957 237.896 292.697 237.679 292.514 237.402C292.331 237.124 292.234 236.8 292.234 236.467C292.233 236.251 292.174 236.039 292.065 235.852C291.956 235.666 291.8 235.511 291.612 235.404C291.403 235.281 291.169 235.21 290.927 235.196C290.648 235.142 290.368 235.106 290.098 235.025Z" fill="white"/>
<path d="M308.902 183.91C309.173 183.829 309.452 183.802 309.723 183.748C309.961 183.693 310.208 183.694 310.446 183.748C310.684 183.803 310.906 183.91 311.097 184.063C311.288 184.215 311.441 184.409 311.547 184.629C311.652 184.849 311.707 185.09 311.706 185.334C311.703 185.552 311.755 185.767 311.857 185.96C311.96 186.152 312.109 186.315 312.292 186.434C312.495 186.565 312.727 186.642 312.968 186.659C313.239 186.723 313.518 186.75 313.788 186.831C313.518 186.903 313.239 186.939 312.968 186.993C312.666 187.054 312.353 187.025 312.067 186.912C311.761 186.781 311.501 186.564 311.319 186.286C311.136 186.009 311.039 185.684 311.039 185.352C311.037 185.135 310.979 184.922 310.87 184.734C310.761 184.545 310.605 184.389 310.417 184.279C310.206 184.161 309.972 184.091 309.732 184.072C309.452 183.982 309.173 183.982 308.902 183.91Z" fill="white"/>
<path d="M260.828 156.424C261.108 156.352 261.378 156.316 261.648 156.262C261.949 156.196 262.262 156.218 262.55 156.325C262.863 156.442 263.133 156.651 263.325 156.924C263.516 157.198 263.62 157.523 263.623 157.857C263.622 158.075 263.675 158.289 263.777 158.481C263.88 158.673 264.028 158.837 264.209 158.957C264.416 159.079 264.646 159.156 264.885 159.183C265.164 159.237 265.435 159.273 265.705 159.345C265.435 159.426 265.164 159.453 264.885 159.516C264.582 159.568 264.27 159.537 263.983 159.426C263.674 159.294 263.412 159.072 263.23 158.789C263.048 158.506 262.956 158.175 262.965 157.839C262.961 157.624 262.901 157.413 262.792 157.226C262.683 157.04 262.529 156.885 262.343 156.776C262.131 156.652 261.893 156.578 261.648 156.559C261.378 156.532 261.108 156.505 260.828 156.424Z" fill="white"/>
<path d="M290.422 155.802C290.692 155.73 290.963 155.693 291.242 155.639C291.543 155.576 291.855 155.598 292.144 155.703C292.456 155.821 292.726 156.03 292.919 156.303C293.112 156.576 293.219 156.901 293.226 157.235C293.221 157.453 293.273 157.669 293.376 157.861C293.478 158.054 293.628 158.217 293.811 158.335C294.016 158.462 294.248 158.539 294.488 158.56C294.758 158.614 295.029 158.65 295.308 158.723C295.029 158.804 294.758 158.84 294.488 158.894C294.185 158.951 293.872 158.92 293.586 158.804C293.281 158.673 293.021 158.455 292.838 158.178C292.655 157.901 292.558 157.576 292.558 157.244C292.555 157.028 292.496 156.817 292.387 156.63C292.278 156.444 292.123 156.289 291.936 156.18C291.728 156.058 291.493 155.987 291.251 155.973C290.972 155.93 290.695 155.873 290.422 155.802Z" fill="white"/>
<path d="M271.266 127.396C271.536 127.324 271.816 127.288 272.086 127.233C272.324 127.179 272.571 127.179 272.809 127.234C273.047 127.288 273.27 127.396 273.46 127.548C273.651 127.701 273.805 127.894 273.91 128.115C274.016 128.335 274.07 128.576 274.069 128.82C274.064 129.038 274.116 129.254 274.218 129.447C274.321 129.639 274.471 129.802 274.655 129.92C274.859 130.05 275.091 130.13 275.331 130.154C275.602 130.208 275.881 130.235 276.152 130.317C275.881 130.389 275.602 130.425 275.331 130.479C275.029 130.539 274.716 130.511 274.43 130.398C274.125 130.267 273.864 130.05 273.682 129.772C273.499 129.495 273.402 129.17 273.402 128.838C273.4 128.621 273.342 128.407 273.233 128.219C273.124 128.031 272.968 127.875 272.78 127.765C272.57 127.647 272.336 127.576 272.095 127.558C271.816 127.504 271.536 127.468 271.266 127.396Z" fill="white"/>
<path d="M253.57 203.599C253.841 203.527 254.111 203.491 254.382 203.437C254.682 203.371 254.995 203.393 255.283 203.5C255.596 203.615 255.867 203.822 256.061 204.094C256.254 204.366 256.36 204.69 256.365 205.024C256.36 205.242 256.411 205.458 256.514 205.65C256.617 205.843 256.767 206.006 256.951 206.123C257.154 206.255 257.386 206.335 257.627 206.358C257.897 206.412 258.168 206.448 258.438 206.52C258.168 206.601 257.897 206.628 257.627 206.682C257.325 206.741 257.012 206.713 256.726 206.601C256.423 206.468 256.165 206.25 255.984 205.973C255.803 205.696 255.707 205.372 255.707 205.042C255.702 204.825 255.642 204.613 255.533 204.425C255.425 204.238 255.27 204.081 255.085 203.969C254.87 203.852 254.634 203.781 254.391 203.761C254.111 203.707 253.841 203.68 253.57 203.599Z" fill="white"/>
<path d="M285.863 253.118C286.134 253.037 286.413 253.001 286.684 252.947C286.922 252.896 287.169 252.899 287.406 252.955C287.643 253.012 287.865 253.12 288.055 253.273C288.245 253.426 288.398 253.619 288.504 253.839C288.61 254.058 288.666 254.299 288.667 254.542C288.664 254.76 288.717 254.975 288.819 255.167C288.922 255.359 289.071 255.523 289.253 255.642C289.456 255.772 289.689 255.849 289.929 255.868C290.199 255.922 290.479 255.958 290.749 256.03C290.479 256.111 290.199 256.147 289.929 256.201C289.626 256.258 289.313 256.227 289.028 256.111C288.722 255.981 288.461 255.764 288.278 255.487C288.095 255.209 287.998 254.884 288 254.551C287.998 254.335 287.94 254.123 287.831 253.936C287.722 253.75 287.566 253.595 287.378 253.488C287.169 253.365 286.934 253.294 286.693 253.28C286.386 253.226 286.107 253.19 285.863 253.118Z" fill="white"/>
<path d="M269.949 226.506C270.22 226.434 270.49 226.398 270.761 226.343C271.061 226.282 271.373 226.303 271.662 226.407C271.976 226.523 272.247 226.732 272.44 227.005C272.633 227.279 272.739 227.604 272.744 227.939C272.74 228.157 272.791 228.373 272.894 228.565C272.997 228.758 273.147 228.921 273.33 229.039C273.534 229.167 273.766 229.245 274.006 229.264C274.276 229.318 274.547 229.354 274.826 229.427C274.547 229.508 274.276 229.535 274.006 229.598C273.703 229.649 273.392 229.618 273.104 229.508C272.802 229.375 272.544 229.156 272.363 228.879C272.182 228.603 272.086 228.279 272.086 227.948C272.08 227.733 272.02 227.522 271.911 227.337C271.802 227.151 271.649 226.995 271.464 226.884C271.254 226.757 271.015 226.686 270.77 226.677C270.535 226.614 270.22 226.587 269.949 226.506Z" fill="white"/>
<path d="M240.551 231.347C240.83 231.266 241.101 231.23 241.371 231.176C241.61 231.125 241.856 231.128 242.094 231.184C242.331 231.241 242.552 231.349 242.742 231.502C242.932 231.655 243.086 231.848 243.192 232.068C243.297 232.287 243.353 232.528 243.354 232.771C243.352 232.989 243.404 233.204 243.507 233.396C243.609 233.588 243.758 233.752 243.94 233.871C244.144 234.001 244.376 234.078 244.617 234.097C244.896 234.151 245.166 234.187 245.437 234.259C245.167 234.33 244.893 234.387 244.617 234.43C244.314 234.487 244.001 234.456 243.715 234.34C243.409 234.21 243.148 233.993 242.965 233.716C242.783 233.438 242.686 233.113 242.687 232.78C242.686 232.565 242.629 232.354 242.521 232.168C242.414 231.981 242.26 231.826 242.074 231.717C241.862 231.596 241.624 231.525 241.38 231.509C241.101 231.455 240.83 231.419 240.551 231.347Z" fill="white"/>
<path d="M283.48 204.248C283.751 204.176 284.021 204.14 284.292 204.086C284.531 204.035 284.778 204.038 285.015 204.094C285.253 204.151 285.475 204.259 285.666 204.412C285.856 204.565 286.011 204.758 286.118 204.977C286.225 205.197 286.281 205.437 286.284 205.681C286.28 205.9 286.332 206.115 286.434 206.307C286.537 206.5 286.687 206.663 286.87 206.781C287.074 206.91 287.306 206.987 287.546 207.007C287.817 207.061 288.087 207.097 288.358 207.169C288.087 207.25 287.817 207.277 287.546 207.34C287.243 207.395 286.931 207.364 286.645 207.25C286.342 207.117 286.084 206.899 285.903 206.622C285.722 206.345 285.626 206.021 285.626 205.69C285.62 205.475 285.56 205.265 285.451 205.079C285.343 204.893 285.189 204.737 285.004 204.627C284.793 204.502 284.555 204.431 284.31 204.419C284.057 204.356 283.751 204.329 283.48 204.248Z" fill="white"/>
<path d="M321.066 240.677C321.337 240.605 321.616 240.569 321.887 240.515C322.187 240.449 322.5 240.471 322.788 240.578C323.101 240.695 323.371 240.904 323.563 241.178C323.754 241.451 323.858 241.777 323.861 242.111C323.86 242.328 323.913 242.543 324.016 242.734C324.118 242.926 324.266 243.09 324.447 243.211C324.654 243.332 324.884 243.409 325.123 243.436C325.403 243.49 325.673 243.526 325.943 243.598C325.673 243.679 325.403 243.706 325.123 243.77C324.883 243.814 324.637 243.804 324.401 243.741C324.166 243.678 323.947 243.564 323.762 243.406C323.576 243.248 323.428 243.05 323.328 242.828C323.229 242.605 323.18 242.364 323.185 242.12C323.183 241.904 323.125 241.692 323.016 241.505C322.907 241.318 322.751 241.163 322.563 241.056C322.355 240.931 322.12 240.857 321.878 240.84C321.616 240.777 321.337 240.777 321.066 240.677Z" fill="white"/>
<path d="M306.145 218.438C306.415 218.366 306.694 218.33 306.965 218.275C307.203 218.225 307.45 218.227 307.687 218.284C307.924 218.34 308.146 218.449 308.336 218.602C308.526 218.754 308.679 218.948 308.785 219.167C308.891 219.387 308.947 219.627 308.948 219.871C308.944 220.089 308.996 220.305 309.098 220.497C309.201 220.69 309.351 220.853 309.534 220.971C309.737 221.102 309.97 221.179 310.21 221.196C310.481 221.25 310.76 221.286 311.031 221.359C310.76 221.44 310.481 221.476 310.21 221.53C309.907 221.587 309.594 221.556 309.309 221.44C309.003 221.31 308.742 221.093 308.559 220.815C308.376 220.538 308.28 220.212 308.281 219.88C308.28 219.664 308.221 219.452 308.112 219.265C308.003 219.078 307.847 218.924 307.659 218.816C307.45 218.694 307.215 218.623 306.974 218.609C306.694 218.555 306.415 218.519 306.145 218.438Z" fill="white"/>
<path d="M337.859 250.846C338.139 250.774 338.409 250.738 338.68 250.684C338.918 250.633 339.165 250.636 339.402 250.692C339.639 250.748 339.861 250.857 340.051 251.01C340.241 251.163 340.394 251.356 340.5 251.575C340.606 251.795 340.662 252.035 340.663 252.279C340.661 252.497 340.713 252.712 340.815 252.904C340.918 253.096 341.067 253.26 341.249 253.379C341.452 253.509 341.685 253.586 341.925 253.604C342.205 253.659 342.475 253.695 342.745 253.767C342.475 253.838 342.201 253.895 341.925 253.938C341.622 253.995 341.309 253.963 341.024 253.848C340.718 253.719 340.458 253.501 340.276 253.224C340.095 252.946 340 252.62 340.005 252.288C339.999 252.073 339.939 251.863 339.83 251.677C339.722 251.491 339.568 251.335 339.383 251.225C339.17 251.104 338.933 251.033 338.689 251.017C338.409 250.963 338.148 250.927 337.859 250.846Z" fill="white"/>
<path d="M263.322 171.776C263.187 172.02 263.015 172.236 262.862 172.47C262.731 172.677 262.555 172.852 262.348 172.981C262.14 173.111 261.906 173.192 261.663 173.219C261.419 173.246 261.173 173.218 260.942 173.136C260.711 173.055 260.502 172.923 260.329 172.75C260.179 172.592 259.99 172.476 259.781 172.413C259.573 172.35 259.351 172.341 259.139 172.389C258.903 172.442 258.684 172.55 258.499 172.705C258.276 172.87 258.044 173.024 257.805 173.164C257.949 172.921 258.111 172.705 258.264 172.47C258.441 172.211 258.688 172.008 258.977 171.884C259.281 171.765 259.614 171.737 259.935 171.804C260.255 171.871 260.549 172.031 260.78 172.263C260.936 172.414 261.128 172.522 261.338 172.577C261.548 172.632 261.768 172.633 261.979 172.579C262.213 172.515 262.429 172.397 262.61 172.236C262.898 172.083 263.114 171.911 263.322 171.776Z" fill="white"/>
<path d="M252.443 153.521C252.308 153.764 252.136 153.981 251.983 154.215C251.852 154.422 251.676 154.596 251.469 154.726C251.261 154.855 251.027 154.937 250.784 154.964C250.54 154.99 250.294 154.962 250.063 154.881C249.833 154.8 249.623 154.668 249.45 154.494C249.3 154.336 249.112 154.219 248.903 154.156C248.694 154.093 248.473 154.085 248.26 154.134C248.025 154.187 247.805 154.295 247.62 154.449C247.397 154.615 247.165 154.768 246.926 154.909C247.07 154.666 247.232 154.449 247.386 154.215C247.562 153.956 247.809 153.753 248.098 153.629C248.402 153.509 248.735 153.481 249.056 153.548C249.376 153.616 249.67 153.775 249.901 154.008C250.057 154.159 250.249 154.267 250.459 154.323C250.669 154.378 250.89 154.378 251.1 154.323C251.334 154.259 251.55 154.142 251.731 153.981C251.983 153.827 252.2 153.656 252.443 153.521Z" fill="white"/>
<path d="M307.497 203.554C307.352 203.806 307.19 204.023 307.037 204.248C306.866 204.51 306.625 204.719 306.343 204.852C306.044 204.982 305.713 205.021 305.392 204.963C305.071 204.905 304.775 204.754 304.54 204.528C304.388 204.372 304.199 204.257 303.991 204.194C303.783 204.131 303.562 204.122 303.35 204.167C303.114 204.22 302.895 204.328 302.71 204.482C302.475 204.636 302.259 204.807 302.016 204.942C302.151 204.699 302.322 204.482 302.475 204.248C302.649 203.989 302.893 203.786 303.179 203.662C303.484 203.546 303.816 203.52 304.136 203.587C304.455 203.654 304.749 203.811 304.982 204.041C305.135 204.192 305.326 204.301 305.535 204.356C305.743 204.411 305.963 204.411 306.171 204.356C306.407 204.294 306.626 204.18 306.812 204.023C307.064 203.869 307.28 203.698 307.497 203.554Z" fill="white"/>
<path d="M279.966 144.389C279.831 144.632 279.66 144.849 279.507 145.083C279.338 145.341 279.101 145.547 278.821 145.678C278.517 145.816 278.178 145.859 277.849 145.803C277.52 145.747 277.215 145.593 276.973 145.363C276.822 145.205 276.634 145.089 276.426 145.024C276.218 144.96 275.997 144.949 275.783 144.993C275.549 145.048 275.33 145.156 275.143 145.308C274.909 145.462 274.693 145.633 274.449 145.777C274.584 145.525 274.756 145.308 274.909 145.074C275.084 144.815 275.332 144.614 275.621 144.497C275.926 144.377 276.259 144.349 276.579 144.417C276.9 144.484 277.193 144.644 277.424 144.876C277.582 145.033 277.778 145.148 277.992 145.208C278.207 145.268 278.434 145.271 278.65 145.218C278.883 145.151 279.098 145.034 279.281 144.876C279.552 144.695 279.723 144.524 279.966 144.389Z" fill="white"/>
<path d="M260.873 130.902C260.737 131.146 260.566 131.362 260.413 131.596C260.243 131.855 260.006 132.064 259.728 132.2C259.422 132.337 259.083 132.379 258.754 132.321C258.425 132.263 258.12 132.108 257.88 131.876C257.729 131.718 257.541 131.602 257.332 131.539C257.124 131.476 256.902 131.467 256.69 131.515C256.454 131.566 256.234 131.675 256.05 131.831C255.815 131.984 255.599 132.155 255.355 132.29C255.491 132.047 255.662 131.831 255.815 131.596C255.99 131.335 256.238 131.131 256.527 131.01C256.832 130.891 257.165 130.863 257.486 130.93C257.806 130.997 258.1 131.157 258.33 131.389C258.486 131.541 258.678 131.65 258.888 131.705C259.098 131.761 259.319 131.76 259.529 131.704C259.763 131.641 259.979 131.523 260.16 131.362C260.413 131.209 260.62 131.037 260.873 130.902Z" fill="white"/>
<path d="M278.895 161.553C278.976 161.824 279.003 162.103 279.066 162.374C279.122 162.675 279.1 162.985 279.003 163.275C278.884 163.587 278.675 163.855 278.402 164.047C278.128 164.238 277.804 164.343 277.471 164.348C277.253 164.345 277.038 164.397 276.845 164.499C276.653 164.602 276.49 164.751 276.371 164.934C276.24 165.137 276.162 165.369 276.145 165.61C276.082 165.88 276.055 166.16 275.974 166.43C275.902 166.16 275.866 165.88 275.812 165.61C275.75 165.307 275.782 164.993 275.902 164.708C276.031 164.402 276.248 164.14 276.526 163.957C276.803 163.774 277.129 163.678 277.462 163.681C277.678 163.678 277.889 163.62 278.076 163.511C278.262 163.402 278.417 163.246 278.525 163.059C278.644 162.848 278.714 162.614 278.733 162.374C278.787 162.103 278.823 161.824 278.895 161.553Z" fill="white"/>
<path d="M272.393 209.576C272.466 209.846 272.502 210.126 272.556 210.396C272.607 210.634 272.604 210.881 272.547 211.118C272.491 211.356 272.382 211.577 272.229 211.767C272.077 211.957 271.883 212.111 271.664 212.216C271.444 212.322 271.204 212.378 270.96 212.379C270.742 212.375 270.526 212.427 270.334 212.529C270.142 212.632 269.978 212.782 269.86 212.965C269.733 213.17 269.656 213.402 269.635 213.641C269.581 213.912 269.545 214.191 269.473 214.462C269.391 214.191 269.355 213.912 269.301 213.641C269.244 213.338 269.275 213.026 269.391 212.74C269.522 212.435 269.74 212.175 270.017 211.992C270.294 211.809 270.619 211.712 270.951 211.712C271.167 211.711 271.379 211.653 271.566 211.543C271.753 211.434 271.907 211.278 272.015 211.09C272.137 210.881 272.208 210.647 272.222 210.405C272.276 210.126 272.339 209.846 272.393 209.576Z" fill="white"/>
<path d="M335.446 231.824C335.527 232.095 335.563 232.365 335.617 232.636C335.668 232.874 335.665 233.122 335.608 233.359C335.552 233.597 335.443 233.819 335.291 234.01C335.138 234.2 334.945 234.354 334.725 234.461C334.506 234.568 334.265 234.625 334.021 234.628C333.803 234.624 333.588 234.675 333.395 234.778C333.203 234.881 333.04 235.031 332.921 235.214C332.789 235.416 332.711 235.649 332.696 235.89C332.642 236.16 332.606 236.431 332.534 236.701C332.453 236.431 332.417 236.16 332.362 235.89C332.307 235.587 332.339 235.275 332.453 234.988C332.585 234.685 332.803 234.427 333.08 234.246C333.357 234.065 333.681 233.969 334.012 233.97C334.228 233.964 334.438 233.904 334.624 233.795C334.81 233.686 334.965 233.533 335.076 233.348C335.197 233.135 335.268 232.898 335.283 232.654C335.346 232.365 335.382 232.095 335.446 231.824Z" fill="white"/>
<path d="M306.237 168.206C306.309 168.477 306.345 168.747 306.399 169.026C306.462 169.327 306.44 169.639 306.336 169.928C306.217 170.24 306.008 170.51 305.735 170.703C305.462 170.896 305.137 171.003 304.803 171.01C304.585 171.006 304.37 171.057 304.177 171.16C303.985 171.262 303.822 171.412 303.703 171.596C303.576 171.8 303.499 172.032 303.478 172.272C303.424 172.542 303.388 172.813 303.316 173.092C303.235 172.813 303.208 172.542 303.144 172.272C303.1 172.032 303.11 171.786 303.173 171.55C303.236 171.315 303.35 171.096 303.508 170.91C303.666 170.725 303.864 170.577 304.086 170.477C304.309 170.377 304.55 170.328 304.794 170.334C305.01 170.33 305.221 170.271 305.408 170.162C305.594 170.053 305.749 169.898 305.858 169.712C305.984 169.504 306.055 169.269 306.065 169.026C306.128 168.747 306.155 168.477 306.237 168.206Z" fill="white"/>
<path d="M306.237 245.284C306.309 245.554 306.345 245.825 306.399 246.095C306.45 246.334 306.447 246.581 306.391 246.819C306.334 247.056 306.226 247.278 306.073 247.469C305.921 247.66 305.727 247.814 305.508 247.921C305.288 248.028 305.048 248.085 304.804 248.087C304.586 248.083 304.37 248.135 304.178 248.237C303.985 248.34 303.822 248.49 303.704 248.673C303.575 248.877 303.498 249.109 303.478 249.349C303.424 249.62 303.388 249.89 303.316 250.161C303.235 249.89 303.208 249.62 303.145 249.349C303.094 249.046 303.125 248.735 303.235 248.448C303.368 248.145 303.586 247.887 303.863 247.707C304.14 247.526 304.464 247.429 304.795 247.429C305.01 247.423 305.22 247.363 305.406 247.255C305.592 247.146 305.748 246.992 305.858 246.807C305.986 246.597 306.057 246.358 306.066 246.113C306.129 245.852 306.156 245.581 306.237 245.284Z" fill="white"/>
<path d="M321.063 201.156C321.144 201.426 321.171 201.706 321.225 201.976C321.28 202.214 321.279 202.461 321.225 202.699C321.17 202.937 321.063 203.16 320.91 203.35C320.758 203.541 320.564 203.695 320.344 203.8C320.124 203.906 319.883 203.96 319.639 203.959C319.421 203.956 319.206 204.008 319.013 204.111C318.821 204.213 318.658 204.363 318.539 204.545C318.408 204.748 318.33 204.981 318.313 205.222C318.25 205.492 318.223 205.771 318.142 206.042C318.07 205.771 318.034 205.492 317.98 205.222C317.918 204.919 317.95 204.605 318.07 204.32C318.198 204.015 318.414 203.754 318.69 203.571C318.966 203.389 319.29 203.291 319.621 203.292C319.838 203.291 320.051 203.232 320.239 203.123C320.427 203.014 320.584 202.858 320.693 202.67C320.812 202.46 320.882 202.226 320.901 201.985C320.955 201.706 321.018 201.426 321.063 201.156Z" fill="white"/>
<path d="M245.917 211.297C245.998 211.568 246.025 211.838 246.079 212.109C246.133 212.347 246.133 212.595 246.079 212.833C246.024 213.071 245.917 213.295 245.764 213.486C245.612 213.677 245.419 213.832 245.199 213.938C244.978 214.045 244.737 214.1 244.493 214.101C244.274 214.096 244.059 214.147 243.866 214.25C243.673 214.353 243.51 214.503 243.393 214.687C243.261 214.889 243.183 215.122 243.167 215.363C243.104 215.634 243.077 215.904 242.996 216.174C242.924 215.904 242.888 215.634 242.834 215.363C242.775 215.06 242.806 214.747 242.924 214.462C243.054 214.158 243.27 213.899 243.546 213.718C243.821 213.537 244.145 213.441 244.475 213.443C244.691 213.438 244.903 213.378 245.091 213.269C245.278 213.161 245.435 213.006 245.547 212.821C245.667 212.608 245.738 212.371 245.755 212.127C245.809 211.838 245.845 211.568 245.917 211.297Z" fill="white"/>
<path d="M247.376 168.206C247.444 168.477 247.498 168.75 247.538 169.026C247.605 169.326 247.586 169.638 247.484 169.928C247.366 170.24 247.156 170.51 246.883 170.703C246.61 170.896 246.286 171.003 245.952 171.01C245.733 171.005 245.518 171.056 245.325 171.159C245.132 171.261 244.969 171.412 244.852 171.596C244.721 171.798 244.643 172.031 244.626 172.272C244.563 172.542 244.536 172.813 244.455 173.092C244.383 172.813 244.347 172.542 244.293 172.272C244.232 171.97 244.26 171.657 244.374 171.37C244.505 171.065 244.722 170.805 244.999 170.622C245.277 170.44 245.601 170.342 245.934 170.343C246.151 170.339 246.363 170.28 246.551 170.171C246.739 170.062 246.895 169.907 247.006 169.721C247.124 169.51 247.195 169.276 247.214 169.035C247.268 168.747 247.304 168.477 247.376 168.206Z" fill="white"/>
<path d="M263.099 140.197C263.171 140.467 263.207 140.738 263.261 141.017C263.325 141.318 263.303 141.63 263.198 141.919C263.08 142.231 262.871 142.501 262.597 142.694C262.324 142.887 262 142.993 261.666 143C261.448 142.996 261.232 143.048 261.04 143.151C260.847 143.253 260.684 143.403 260.566 143.586C260.439 143.791 260.362 144.023 260.341 144.263C260.286 144.533 260.25 144.803 260.178 145.083C260.097 144.803 260.07 144.533 260.007 144.263C259.952 143.96 259.983 143.647 260.097 143.361C260.23 143.058 260.448 142.801 260.725 142.62C261.002 142.439 261.326 142.342 261.657 142.342C261.873 142.339 262.084 142.28 262.27 142.171C262.457 142.062 262.612 141.907 262.72 141.72C262.846 141.513 262.918 141.277 262.928 141.035C262.991 140.711 263.018 140.467 263.099 140.197Z" fill="white"/>
<path d="M258.88 183.496C258.952 183.775 258.989 184.046 259.043 184.316C259.093 184.555 259.09 184.802 259.034 185.04C258.978 185.277 258.869 185.499 258.717 185.69C258.564 185.881 258.371 186.035 258.151 186.142C257.932 186.249 257.691 186.306 257.447 186.308C257.229 186.304 257.013 186.356 256.821 186.458C256.628 186.561 256.465 186.711 256.347 186.894C256.219 187.098 256.141 187.33 256.122 187.57C256.068 187.841 256.032 188.111 255.96 188.382C255.878 188.111 255.842 187.841 255.788 187.57C255.733 187.267 255.764 186.955 255.878 186.669C256.011 186.366 256.23 186.108 256.507 185.928C256.784 185.747 257.107 185.65 257.438 185.65C257.653 185.644 257.864 185.584 258.05 185.476C258.236 185.367 258.391 185.213 258.502 185.028C258.623 184.815 258.693 184.578 258.709 184.334C258.763 184.046 258.817 183.775 258.88 183.496Z" fill="white"/>
<path d="M296.772 189.319C296.844 189.59 296.88 189.869 296.934 190.14C296.985 190.378 296.982 190.625 296.926 190.862C296.869 191.099 296.761 191.321 296.608 191.511C296.455 191.701 296.262 191.854 296.042 191.96C295.823 192.066 295.582 192.122 295.339 192.123C295.121 192.121 294.906 192.173 294.714 192.275C294.522 192.378 294.358 192.527 294.239 192.709C294.113 192.914 294.036 193.145 294.013 193.385C293.959 193.655 293.923 193.935 293.851 194.205C293.77 193.935 293.743 193.655 293.68 193.385C293.623 193.082 293.654 192.769 293.77 192.484C293.901 192.178 294.118 191.918 294.395 191.735C294.673 191.553 294.998 191.456 295.33 191.456C295.546 191.454 295.758 191.396 295.945 191.287C296.131 191.178 296.286 191.022 296.393 190.834C296.519 190.627 296.591 190.391 296.601 190.149C296.682 189.869 296.682 189.59 296.772 189.319Z" fill="white"/>
<path d="M261.747 237.946C261.819 238.225 261.855 238.496 261.909 238.766C261.963 239.005 261.963 239.252 261.908 239.491C261.854 239.729 261.746 239.952 261.594 240.143C261.442 240.335 261.248 240.489 261.028 240.596C260.808 240.702 260.567 240.758 260.322 240.758C260.104 240.752 259.887 240.802 259.694 240.905C259.501 241.008 259.339 241.159 259.223 241.344C259.093 241.545 259.012 241.774 258.988 242.012C258.948 242.288 258.894 242.561 258.826 242.832C258.754 242.561 258.718 242.291 258.664 242.012C258.604 241.709 258.632 241.397 258.745 241.11C258.875 240.805 259.092 240.546 259.37 240.364C259.648 240.183 259.973 240.088 260.304 240.091C260.521 240.086 260.733 240.027 260.92 239.918C261.108 239.809 261.265 239.655 261.377 239.469C261.494 239.255 261.565 239.019 261.584 238.775C261.639 238.496 261.675 238.225 261.747 237.946Z" fill="white"/>
<path d="M290.27 175.571C290.414 175.328 290.585 175.112 290.738 174.877C290.904 174.617 291.142 174.41 291.423 174.282C291.722 174.152 292.052 174.113 292.372 174.169C292.693 174.225 292.99 174.374 293.226 174.598C293.379 174.755 293.569 174.871 293.779 174.936C293.988 175 294.211 175.011 294.425 174.967C294.657 174.912 294.873 174.804 295.056 174.652C295.291 174.49 295.507 174.327 295.76 174.183C295.615 174.436 295.444 174.652 295.291 174.886C295.117 175.142 294.873 175.343 294.588 175.463C294.283 175.581 293.95 175.608 293.63 175.54C293.31 175.473 293.017 175.315 292.785 175.085C292.629 174.936 292.438 174.83 292.23 174.774C292.022 174.719 291.804 174.717 291.595 174.769C291.362 174.837 291.147 174.954 290.964 175.112C290.738 175.265 290.522 175.436 290.27 175.571Z" fill="white"/>
<path d="M268.172 195.593C268.307 195.35 268.478 195.133 268.632 194.899C268.763 194.692 268.938 194.518 269.146 194.388C269.354 194.259 269.588 194.177 269.831 194.15C270.074 194.124 270.321 194.152 270.551 194.233C270.782 194.314 270.992 194.446 271.165 194.62C271.315 194.778 271.503 194.895 271.712 194.958C271.921 195.021 272.142 195.029 272.355 194.98C272.59 194.928 272.81 194.819 272.995 194.665C273.218 194.499 273.45 194.346 273.689 194.205C273.545 194.448 273.382 194.665 273.229 194.899C273.091 195.101 272.91 195.27 272.699 195.392C272.487 195.515 272.251 195.589 272.008 195.609C271.764 195.629 271.519 195.594 271.29 195.507C271.062 195.42 270.856 195.283 270.687 195.106C270.533 194.956 270.342 194.848 270.133 194.792C269.925 194.737 269.706 194.737 269.497 194.791C269.265 194.858 269.049 194.975 268.866 195.133C268.632 195.287 268.415 195.458 268.172 195.593Z" fill="white"/>
<path d="M253.191 225.09C253.336 224.838 253.507 224.621 253.66 224.396C253.791 224.189 253.967 224.015 254.175 223.885C254.382 223.756 254.616 223.674 254.86 223.648C255.103 223.621 255.349 223.649 255.58 223.73C255.811 223.811 256.02 223.943 256.193 224.117C256.345 224.273 256.533 224.388 256.742 224.451C256.95 224.514 257.171 224.523 257.383 224.477C257.619 224.425 257.838 224.316 258.023 224.162C258.246 223.996 258.478 223.843 258.718 223.702C258.573 223.945 258.411 224.162 258.258 224.396C258.121 224.598 257.94 224.766 257.73 224.889C257.519 225.012 257.284 225.086 257.041 225.106C256.798 225.126 256.553 225.091 256.326 225.004C256.098 224.917 255.893 224.78 255.725 224.603C255.569 224.452 255.377 224.344 255.167 224.288C254.956 224.233 254.736 224.233 254.526 224.288C254.292 224.348 254.076 224.462 253.895 224.621C253.66 224.784 253.408 224.946 253.191 225.09Z" fill="white"/>
<path d="M259.664 255.732C259.808 255.489 259.98 255.273 260.133 255.038C260.299 254.778 260.537 254.571 260.818 254.443C261.117 254.315 261.446 254.277 261.766 254.333C262.086 254.389 262.383 254.537 262.621 254.759C262.771 254.917 262.96 255.033 263.168 255.098C263.376 255.163 263.598 255.173 263.811 255.128C264.047 255.072 264.266 254.961 264.451 254.804C264.676 254.651 264.893 254.488 265.145 254.344C265.001 254.596 264.839 254.813 264.685 255.038C264.509 255.298 264.262 255.501 263.973 255.624C263.668 255.742 263.336 255.768 263.016 255.701C262.696 255.634 262.402 255.476 262.17 255.245C262.014 255.097 261.824 254.99 261.616 254.935C261.408 254.88 261.189 254.878 260.98 254.93C260.748 254.998 260.533 255.114 260.349 255.273C260.133 255.426 259.916 255.597 259.664 255.732Z" fill="white"/>
<path d="M288.648 222.052C288.784 221.809 288.955 221.593 289.108 221.358C289.277 221.1 289.514 220.894 289.793 220.763C290.098 220.626 290.436 220.582 290.766 220.639C291.095 220.695 291.4 220.848 291.641 221.079C291.792 221.237 291.98 221.354 292.188 221.418C292.397 221.483 292.618 221.493 292.831 221.448C293.065 221.392 293.284 221.284 293.471 221.133C293.697 220.98 293.913 220.808 294.166 220.664C294.021 220.917 293.859 221.133 293.706 221.367C293.531 221.626 293.283 221.827 292.994 221.944C292.689 222.064 292.356 222.092 292.035 222.025C291.715 221.957 291.421 221.798 291.191 221.566C291.033 221.417 290.841 221.311 290.631 221.256C290.422 221.2 290.202 221.199 289.992 221.25C289.759 221.318 289.544 221.435 289.361 221.593C289.108 221.746 288.892 221.917 288.648 222.052Z" fill="white"/>
<path d="M308.59 234.259C308.725 234.015 308.896 233.799 309.05 233.565C309.22 233.308 309.457 233.103 309.735 232.97C310.034 232.842 310.363 232.804 310.683 232.86C311.003 232.916 311.3 233.063 311.538 233.285C311.689 233.442 311.877 233.559 312.085 233.623C312.293 233.688 312.514 233.699 312.728 233.655C312.962 233.6 313.181 233.492 313.368 233.339C313.602 233.186 313.819 233.015 314.062 232.87C313.927 233.123 313.755 233.339 313.602 233.574C313.43 233.834 313.181 234.036 312.89 234.15C312.585 234.27 312.252 234.298 311.932 234.231C311.611 234.164 311.318 234.004 311.087 233.772C310.929 233.623 310.737 233.517 310.528 233.462C310.318 233.407 310.098 233.405 309.888 233.456C309.655 233.524 309.44 233.641 309.257 233.799C309.05 233.952 308.833 234.123 308.59 234.259Z" fill="white"/>
<path d="M275.043 243.526C275.178 243.282 275.349 243.066 275.503 242.831C275.669 242.571 275.907 242.364 276.188 242.236C276.492 242.099 276.831 242.056 277.16 242.112C277.489 242.168 277.794 242.321 278.036 242.552C278.186 242.71 278.375 242.827 278.583 242.891C278.791 242.956 279.013 242.966 279.226 242.922C279.462 242.865 279.681 242.754 279.866 242.597C280.091 242.444 280.308 242.282 280.56 242.137C280.416 242.39 280.254 242.606 280.1 242.831C279.926 243.093 279.678 243.297 279.388 243.417C279.083 243.537 278.75 243.565 278.43 243.498C278.11 243.431 277.816 243.271 277.585 243.039C277.428 242.89 277.235 242.784 277.026 242.729C276.816 242.674 276.596 242.672 276.386 242.723C276.154 242.791 275.938 242.908 275.755 243.066C275.503 243.219 275.286 243.39 275.043 243.526Z" fill="white"/>
<path d="M318.316 255.732C318.461 255.489 318.623 255.272 318.776 255.038C318.944 254.78 319.182 254.573 319.461 254.443C319.766 254.306 320.104 254.262 320.434 254.318C320.763 254.375 321.068 254.528 321.309 254.759C321.46 254.916 321.649 255.032 321.857 255.097C322.065 255.161 322.286 255.172 322.499 255.128C322.734 255.074 322.953 254.966 323.139 254.813C323.374 254.65 323.59 254.488 323.834 254.344C323.698 254.596 323.527 254.813 323.374 255.047C323.2 255.303 322.956 255.503 322.671 255.624C322.366 255.743 322.033 255.77 321.713 255.703C321.393 255.635 321.099 255.477 320.868 255.245C320.711 255.098 320.521 254.991 320.313 254.936C320.105 254.881 319.887 254.879 319.678 254.93C319.442 254.995 319.223 255.112 319.038 255.272C318.767 255.426 318.551 255.597 318.316 255.732Z" fill="white"/>
<path d="M323.191 222.747C323.327 222.494 323.498 222.278 323.651 222.043C323.822 221.787 324.059 221.582 324.336 221.448C324.641 221.311 324.979 221.268 325.309 221.324C325.638 221.38 325.943 221.533 326.184 221.764C326.335 221.921 326.524 222.037 326.732 222.102C326.94 222.167 327.161 222.178 327.374 222.134C327.609 222.079 327.828 221.971 328.014 221.818C328.249 221.665 328.465 221.493 328.709 221.349C328.573 221.602 328.402 221.818 328.249 222.052C328.076 222.313 327.828 222.515 327.537 222.629C327.232 222.749 326.899 222.777 326.578 222.71C326.258 222.643 325.964 222.483 325.734 222.251C325.577 222.103 325.387 221.997 325.179 221.942C324.971 221.887 324.753 221.884 324.544 221.935C324.308 222 324.089 222.117 323.904 222.278C323.651 222.44 323.435 222.611 323.191 222.747Z" fill="white"/>
<path d="M244.168 247.754C244.312 247.501 244.474 247.285 244.628 247.051C244.798 246.794 245.035 246.589 245.313 246.456C245.617 246.318 245.956 246.275 246.285 246.331C246.614 246.387 246.919 246.541 247.161 246.771C247.312 246.928 247.5 247.045 247.708 247.109C247.916 247.174 248.137 247.185 248.351 247.141C248.586 247.086 248.805 246.978 248.991 246.825C249.225 246.672 249.442 246.501 249.685 246.357C249.55 246.609 249.379 246.825 249.225 247.06C249.054 247.318 248.809 247.519 248.522 247.637C248.217 247.755 247.885 247.783 247.564 247.715C247.244 247.648 246.951 247.489 246.719 247.258C246.563 247.11 246.372 247.004 246.164 246.95C245.956 246.897 245.737 246.897 245.529 246.952C245.292 247.01 245.073 247.124 244.889 247.285C244.628 247.438 244.393 247.61 244.168 247.754Z" fill="white"/>
<path d="M241.688 196.288C241.823 196.044 241.994 195.828 242.147 195.593C242.317 195.334 242.554 195.126 242.832 194.989C243.138 194.853 243.477 194.811 243.806 194.869C244.135 194.927 244.44 195.082 244.68 195.314C244.831 195.472 245.019 195.588 245.228 195.651C245.436 195.714 245.658 195.722 245.87 195.675C246.108 195.628 246.329 195.519 246.51 195.359C246.745 195.206 246.961 195.035 247.205 194.899C247.064 195.139 246.91 195.371 246.745 195.593C246.572 195.852 246.327 196.056 246.042 196.179C245.737 196.298 245.404 196.325 245.084 196.258C244.764 196.191 244.47 196.032 244.239 195.801C244.084 195.651 243.893 195.543 243.685 195.488C243.477 195.433 243.258 195.432 243.049 195.485C242.813 195.551 242.594 195.668 242.409 195.828C242.156 195.981 241.94 196.152 241.688 196.288Z" fill="white"/>
<path d="M271.101 127.621C270.767 129.307 263.159 140.404 255.514 140.305C253.026 140.26 252.629 126.666 252.629 126.666L252.368 125.674L248.762 111.719L264.925 100.567L267.269 99.0889C267.269 99.0889 268 102.974 268.874 107.815C268.874 108.041 268.955 108.266 268.991 108.509C269.027 108.753 269.108 109.032 269.144 109.294C269.289 110.015 269.424 110.754 269.55 111.493C269.649 112.052 269.739 112.593 269.821 113.188C269.902 113.783 269.992 114.36 270.091 114.991C270.715 119.173 271.052 123.393 271.101 127.621Z" fill="#FFAC92"/>
<path d="M268.874 107.815C267.583 111.811 265.437 115.478 262.587 118.562C259.737 121.646 256.25 124.073 252.368 125.674L248.762 111.719L264.925 100.567L267.269 99.0889C267.269 99.0889 268 102.974 268.874 107.815Z" fill="#263238"/>
<path d="M228.951 90.9932C228.284 116.289 243.375 119.543 248.784 119.679C253.733 119.805 270.609 119.607 273.891 94.518C277.172 69.4294 265.615 61.1627 254.31 60.2613C243.005 59.3598 229.618 65.6973 228.951 90.9932Z" fill="#FFAC92"/>
<path d="M232.789 83.3399C233.384 83.2408 233.907 83.0605 234.484 82.9072C235.1 82.832 235.675 82.5601 236.124 82.1319C236.239 81.9694 236.297 81.7733 236.289 81.5743C236.281 81.3754 236.207 81.1847 236.079 81.0321C235.779 80.7703 235.415 80.593 235.023 80.5186C234.632 80.4441 234.228 80.4751 233.853 80.6084C233.054 80.7594 232.34 81.203 231.851 81.8525C231.749 82.0073 231.693 82.1884 231.691 82.374C231.689 82.5596 231.741 82.7419 231.84 82.8989C231.939 83.0559 232.081 83.1811 232.249 83.2593C232.418 83.3375 232.605 83.3655 232.789 83.3399Z" fill="#263238"/>
<path d="M249.704 87.0358C249.122 86.9719 248.544 86.8755 247.973 86.7473C247.355 86.7305 246.76 86.512 246.278 86.1253C246.149 85.9737 246.073 85.7835 246.064 85.5846C246.054 85.3856 246.11 85.189 246.224 85.0254C246.5 84.7374 246.847 84.5279 247.23 84.4186C247.614 84.3092 248.019 84.304 248.406 84.4034C249.215 84.4866 249.964 84.8692 250.506 85.4762C250.624 85.6203 250.698 85.7959 250.718 85.9812C250.737 86.1666 250.702 86.3537 250.617 86.5194C250.532 86.6852 250.4 86.8224 250.238 86.9142C250.075 87.0059 249.89 87.0482 249.704 87.0358Z" fill="#263238"/>
<path d="M236.521 91.5706C236.521 91.5075 236.395 91.6607 236.395 91.7328C236.566 93.4457 236.476 95.438 234.962 96.1141C234.907 96.1141 234.962 96.2223 234.962 96.2132C236.855 95.8166 236.954 93.1662 236.521 91.5706Z" fill="#263238"/>
<path d="M234.863 89.8755C232.086 89.8755 232.24 95.4107 234.818 95.4377C237.396 95.4647 237.18 89.9025 234.863 89.8755Z" fill="#263238"/>
<path d="M233.72 90.2811C233.287 90.5876 232.873 91.1285 232.341 91.1826C231.809 91.2366 231.268 90.6507 230.862 90.0827C230.862 90.0286 230.781 90.0827 230.781 90.1458C230.781 91.2096 231.169 92.3094 232.188 92.4807C233.206 92.652 233.783 91.7144 233.991 90.6777C234.054 90.4523 233.891 90.1548 233.72 90.2811Z" fill="#263238"/>
<path d="M247.838 106.292C247.414 106.679 246.982 107.193 246.351 107.256C245.721 107.215 245.107 107.043 244.548 106.751C244.535 106.745 244.521 106.744 244.508 106.746C244.495 106.749 244.482 106.756 244.473 106.766C244.464 106.776 244.458 106.789 244.457 106.803C244.456 106.816 244.459 106.83 244.467 106.842C244.702 107.19 245.027 107.469 245.408 107.647C245.789 107.825 246.212 107.895 246.63 107.851C246.986 107.776 247.312 107.594 247.563 107.33C247.814 107.066 247.979 106.733 248.037 106.373C248 106.274 247.901 106.238 247.838 106.292Z" fill="#263238"/>
<path d="M239.22 99.3773C239.22 99.3773 239.021 101.956 239.084 103.164C241.445 103.034 243.813 103.24 246.116 103.777C246.657 103.921 246.621 103.479 246.008 103.155C244.182 102.203 242.113 101.82 240.067 102.055C239.959 101.721 240.455 98.0882 240.265 98.0882C239.333 98.225 238.424 98.4858 237.561 98.8635C237.831 93.4545 238.967 88.1898 239.156 82.8259C239.159 82.7866 239.147 82.7477 239.123 82.7165C239.099 82.6852 239.065 82.6637 239.026 82.656C238.988 82.6483 238.948 82.6548 238.913 82.6745C238.879 82.6942 238.854 82.7255 238.841 82.7628C237.254 88.2349 236.803 94.4191 236.38 99.9723C236.326 100.657 238.751 99.6117 239.22 99.3773Z" fill="#263238"/>
<path d="M251.251 91.6602C250.239 91.2632 249.131 91.1754 248.069 91.4078C247.5 91.5372 246.961 91.776 246.482 92.1109C245.989 92.479 245.586 92.9536 245.301 93.4992L244.77 94.4819L245.86 94.3647C246.627 94.2834 247.401 94.2834 248.168 94.3647C248.969 94.4346 249.738 94.7077 250.404 95.158C249.968 94.3616 249.236 93.7689 248.366 93.5082C247.519 93.2282 246.623 93.1269 245.734 93.2108L246.293 94.1122C246.76 93.3299 247.478 92.7292 248.33 92.4084C249.269 92.0387 250.25 91.7874 251.251 91.6602Z" fill="#263238"/>
<path d="M248.126 96.1409C247.309 95.9493 246.524 95.646 245.791 95.2394C245.619 95.1313 244.961 94.6354 244.997 94.4912C245.09 94.072 245.236 93.6662 245.43 93.2832C245.127 93.6236 244.897 94.0224 244.754 94.4551C244.804 94.6935 244.906 94.9178 245.053 95.1125C245.199 95.3072 245.386 95.4675 245.601 95.582C246.376 95.9937 247.249 96.1869 248.126 96.1409Z" fill="#263238"/>
<path d="M242.141 102.983C242.141 102.983 243.709 105.237 245.512 105.508C247.586 105.832 247.829 103.966 245.512 102.902C244.34 102.352 242.141 102.983 242.141 102.983Z" fill="#263238"/>
<path d="M245.5 105.553C244.715 105.39 243.992 105.005 243.418 104.444C243.851 103.804 244.842 103.092 247.069 104.291C247.394 105.048 246.817 105.715 245.5 105.553Z" fill="#FF99BA"/>
<path d="M273.734 95.1221C269.569 95.645 268.181 86.9275 268.181 86.9275C268.181 86.9275 259.689 87.3603 256.29 75.2803C256.712 78.9298 258.191 82.3765 260.546 85.1967C260.546 85.1967 245.482 84.2952 238.567 72.098C238.567 72.098 241.398 78.3634 243.868 80.5179C243.868 80.5179 237.494 79.0756 234.186 74.1173C234.186 74.1173 231.914 81.4825 229.994 83.583C229.994 83.583 229.336 57.3406 253.757 58.9452C253.757 58.9452 269.011 59.2157 275.06 70.9892C281.109 82.7627 273.734 95.1221 273.734 95.1221Z" fill="#263238"/>
<path d="M269.843 96.3482C269.843 96.3482 274.883 88.1356 278.579 89.8845C282.275 91.6334 278.813 103.317 274.711 105.129C274.201 105.399 273.642 105.562 273.067 105.61C272.492 105.658 271.913 105.589 271.365 105.407C270.818 105.225 270.313 104.934 269.881 104.551C269.449 104.169 269.099 103.703 268.852 103.182L269.843 96.3482Z" fill="#FFAC92"/>
<path d="M277.505 93.2109C277.568 93.2109 277.586 93.2921 277.505 93.3191C274.629 94.6894 273.25 97.5111 272.331 100.414C273.142 99.269 274.296 98.6109 275.819 99.5124C275.901 99.5575 275.819 99.6837 275.747 99.6746C275.221 99.5395 274.665 99.572 274.158 99.7675C273.65 99.963 273.216 100.312 272.917 100.765C272.412 101.521 271.995 102.332 271.673 103.181C271.546 103.452 271.069 103.344 271.15 103.037C271.145 103.013 271.145 102.989 271.15 102.965C270.897 99.2419 273.494 93.833 277.505 93.2109Z" fill="#263238"/>
<path d="M272.338 103.813C272.351 104.046 272.433 104.27 272.574 104.457C272.714 104.644 272.907 104.785 273.128 104.862C273.348 104.939 273.587 104.949 273.813 104.891C274.04 104.832 274.243 104.708 274.399 104.533C274.555 104.359 274.655 104.142 274.687 103.91C274.719 103.679 274.682 103.443 274.58 103.232C274.478 103.022 274.316 102.847 274.114 102.728C273.913 102.61 273.68 102.555 273.447 102.569C273.292 102.577 273.141 102.615 273.001 102.682C272.861 102.749 272.736 102.843 272.633 102.959C272.53 103.075 272.451 103.21 272.4 103.356C272.35 103.503 272.329 103.658 272.338 103.813Z" fill="white"/>
<path d="M275.169 101.856C275.177 102.006 275.229 102.15 275.318 102.271C275.408 102.391 275.531 102.482 275.672 102.532C275.814 102.583 275.967 102.59 276.112 102.553C276.258 102.516 276.389 102.436 276.489 102.325C276.589 102.213 276.654 102.074 276.675 101.925C276.697 101.777 276.673 101.625 276.608 101.49C276.543 101.355 276.439 101.242 276.31 101.166C276.18 101.09 276.031 101.054 275.882 101.063C275.782 101.067 275.685 101.092 275.596 101.134C275.506 101.177 275.426 101.237 275.359 101.31C275.293 101.384 275.242 101.47 275.21 101.564C275.177 101.658 275.163 101.757 275.169 101.856Z" fill="white"/>
<path d="M193.135 151.056L180.043 154.098L189.46 194.631L202.553 191.589L193.135 151.056Z" fill="#65C17E"/>
<path d="M161.221 43.4667C150.283 46.0116 140.344 51.7424 132.662 59.9346C124.98 68.1269 119.899 78.4128 118.062 89.4921C116.225 100.571 117.714 111.947 122.34 122.18C126.967 132.414 134.523 141.046 144.055 146.985C153.586 152.924 164.665 155.905 175.89 155.549C187.115 155.193 197.983 151.517 207.119 144.986C216.255 138.455 223.25 129.362 227.219 118.856C231.189 108.351 231.954 96.9038 229.419 85.963C227.735 78.6931 224.634 71.8264 220.294 65.7554C215.954 59.6845 210.461 54.5283 204.127 50.5816C197.793 46.635 190.744 43.9752 183.382 42.7544C176.02 41.5336 168.49 41.7756 161.221 43.4667ZM184.227 142.514C175.585 144.524 166.54 143.926 158.237 140.795C149.935 137.664 142.747 132.142 137.584 124.925C132.42 117.709 129.513 109.124 129.229 100.255C128.946 91.3862 131.299 82.6326 135.991 75.1013C140.683 67.5701 147.503 61.5995 155.589 57.9449C163.675 54.2903 172.663 53.1157 181.416 54.5699C190.169 56.024 198.295 60.0415 204.765 66.1141C211.234 72.1867 215.758 80.0417 217.763 88.6855C220.45 100.27 218.427 112.448 212.138 122.542C205.85 132.636 195.811 139.819 184.227 142.514Z" fill="#65C17E"/>
<path d="M197.603 180.119L188.822 182.159C185.781 182.865 183.889 185.903 184.596 188.944L195.827 237.283C196.533 240.324 199.571 242.216 202.612 241.51L211.393 239.47C214.433 238.763 216.326 235.725 215.619 232.685L204.388 184.345C203.682 181.304 200.644 179.412 197.603 180.119Z" fill="#65C17E"/>
<g opacity="0.3">
<path d="M217.762 88.6677C219.766 97.308 219.162 106.349 216.029 114.646C212.895 122.944 207.371 130.126 200.156 135.284C192.94 140.443 184.357 143.346 175.492 143.627C166.627 143.908 157.877 141.554 150.35 136.862C142.823 132.171 136.855 125.353 133.202 117.27C129.55 109.188 128.376 100.203 129.829 91.4536C131.281 82.7037 135.296 74.5811 141.365 68.1128C147.434 61.6445 155.285 57.1209 163.924 55.1141C169.663 53.78 175.608 53.5897 181.419 54.5542C187.231 55.5186 192.796 57.6189 197.796 60.735C202.796 63.851 207.132 67.9218 210.558 72.7146C213.984 77.5075 216.432 82.9284 217.762 88.6677Z" fill="white"/>
<path d="M218.862 101.307C218.2 113.114 212.904 124.182 204.126 132.106C195.348 140.03 183.797 144.169 171.984 143.623L218.862 101.307Z" fill="#EBEBEB"/>
<path d="M198.224 61.0185L134.011 118.976C132.414 115.793 131.203 112.43 130.405 108.96C129.471 104.984 129.095 100.897 129.287 96.8168L176.697 54.0229C184.353 54.4734 191.766 56.8822 198.224 61.0185Z" fill="#EBEBEB"/>
<path d="M216.524 84.3675L155.357 139.566C152.684 138.338 150.139 136.849 147.758 135.122L212.891 76.3442C214.371 78.8885 215.588 81.5768 216.524 84.3675Z" fill="#EBEBEB"/>
<path d="M203.156 64.6791L137.112 124.268C136.806 123.817 136.499 123.366 136.211 122.906L201.876 63.6514C202.326 63.9759 202.75 64.3095 203.156 64.6791Z" fill="#EBEBEB"/>
<path d="M161.744 55.6821L132.445 82.1139C132.941 80.8608 133.5 79.6348 134.113 78.4448L157.94 56.9352C159.175 56.4755 160.446 56.0517 161.744 55.6821Z" fill="#EBEBEB"/>
</g>
<path d="M142.234 106.571C142.23 106.511 142.23 106.451 142.234 106.391C142.072 105.489 142.351 107.247 142.234 106.661C142.117 106.075 142.054 105.273 141.999 104.579C141.792 102.131 141.792 99.6702 141.999 97.2226C141.999 96.871 142.063 96.5284 142.09 96.1859C142.09 96.0777 141.99 96.9972 142.09 96.267L142.171 95.6359C142.279 94.8246 142.414 94.0133 142.576 93.2109C142.918 91.442 143.379 89.6982 143.956 87.9913C144.091 87.5856 144.244 87.1799 144.388 86.7743C144.578 86.2244 144.136 87.3783 144.433 86.6571L144.731 85.9449C145.119 85.0434 145.542 84.1419 145.993 83.2404C146.444 82.3389 147.03 81.3743 147.598 80.4818C147.868 80.0672 148.139 79.6615 148.418 79.2558C148.896 78.5617 148.193 79.5353 148.562 79.0485L149.094 78.3453C150.736 76.2816 152.571 74.3798 154.575 72.6659C154.575 72.6659 154.99 72.3323 154.683 72.5848C154.377 72.8372 154.846 72.4495 154.9 72.4045L155.801 71.6923C156.405 71.2415 157.018 70.7908 157.649 70.3941C158.971 69.5106 160.337 68.6952 161.742 67.9511C162.119 67.7143 162.445 67.4057 162.702 67.0429C162.959 66.6801 163.142 66.2702 163.241 65.8365C163.34 65.4029 163.352 64.9541 163.278 64.5157C163.203 64.0772 163.043 63.6578 162.806 63.2814C162.569 62.9049 162.261 62.5787 161.898 62.3215C161.535 62.0643 161.125 61.8811 160.691 61.7823C160.258 61.6836 159.809 61.6712 159.37 61.7458C158.932 61.8205 158.513 61.9808 158.136 62.2176C149.229 66.9685 141.909 74.4689 138.231 83.9255C135.741 90.2851 134.679 97.1143 135.121 103.93C135.211 105.443 135.404 106.949 135.698 108.437C135.955 109.295 136.541 110.017 137.328 110.444C138.115 110.871 139.039 110.97 139.899 110.718C140.744 110.44 141.452 109.849 141.876 109.066C142.3 108.283 142.408 107.368 142.18 106.508L142.234 106.571Z" fill="white"/>
<path d="M145.229 116.163C145.415 116.792 145.411 117.462 145.217 118.088C145.023 118.715 144.647 119.27 144.138 119.683C143.628 120.096 143.008 120.349 142.355 120.41C141.702 120.47 141.045 120.336 140.468 120.024C139.892 119.711 139.42 119.235 139.114 118.655C138.808 118.075 138.681 117.417 138.748 116.765C138.816 116.112 139.075 115.494 139.494 114.989C139.912 114.484 140.471 114.115 141.1 113.927C141.518 113.801 141.956 113.759 142.39 113.804C142.825 113.848 143.246 113.978 143.629 114.186C144.013 114.394 144.352 114.675 144.627 115.015C144.901 115.354 145.106 115.744 145.229 116.163Z" fill="white"/>
<path d="M288.681 144.587C296.795 173.922 300.689 203.374 296.2 218.564C293.333 228.246 286.418 234.791 282.019 236.954C271.733 242.039 237.612 234.827 215.381 230.355C209.918 229.255 222.8 185.236 228.29 187.57C236.404 191.005 261.24 195.639 261.925 195.864C263.394 196.369 266.432 164.537 268.578 145.876C271.544 119.877 284.002 127.648 288.681 144.587Z" fill="#FFAC92"/>
<path d="M172.663 179.186C170.247 183.126 173.384 186.732 173.384 186.732C171.325 187.762 169.692 189.481 168.769 191.591C167.317 195.377 172.618 199.317 172.618 199.317C170.705 200.829 169.294 202.884 168.57 205.212C167.543 208.981 172.33 213.714 172.33 213.714C171.341 216.073 171.235 218.71 172.032 221.142C174.421 227.551 184.653 229.652 191.144 231.058C197.635 232.465 217.359 230.337 221.163 230.319L230.494 188.733C230.494 188.733 203.17 174.174 195.336 173.615C188.674 173.164 175.377 174.769 172.663 179.186Z" fill="#FFAC92"/>
<path d="M173.818 186.128C181.03 184.947 188.116 185.938 195.283 186.524C195.316 186.524 195.348 186.538 195.372 186.561C195.396 186.585 195.409 186.617 195.409 186.651C195.409 186.684 195.396 186.716 195.372 186.74C195.348 186.763 195.316 186.777 195.283 186.777C188.152 186.11 180.985 186.858 173.854 186.479C173.813 186.475 173.774 186.457 173.745 186.428C173.715 186.398 173.697 186.36 173.692 186.318C173.688 186.277 173.698 186.235 173.721 186.2C173.744 186.166 173.778 186.14 173.818 186.128Z" fill="#263238"/>
<path d="M172.877 198.803C174.531 198.688 176.192 198.794 177.817 199.118C179.554 199.347 181.288 199.605 183.019 199.894C186.487 200.495 189.936 201.159 193.368 201.886C193.521 201.886 193.512 202.156 193.368 202.129C189.906 201.561 186.445 201.048 182.974 200.624C181.234 200.407 179.494 200.218 177.745 200.029C176.091 199.962 174.449 199.711 172.85 199.281C172.801 199.261 172.759 199.226 172.731 199.182C172.702 199.137 172.689 199.085 172.692 199.032C172.695 198.979 172.714 198.929 172.748 198.888C172.781 198.846 172.826 198.817 172.877 198.803Z" fill="#263238"/>
<path d="M172.47 213.732C173.876 213.488 175.517 213.993 176.905 214.254C178.483 214.552 180.051 214.831 181.629 215.111C184.784 215.67 187.939 216.22 191.113 216.67C191.266 216.67 191.248 216.941 191.113 216.914C187.885 216.481 184.658 216.084 181.44 215.625C179.862 215.399 178.275 215.156 176.698 214.912C175.355 214.705 173.66 214.597 172.461 213.894C172.446 213.886 172.434 213.873 172.425 213.859C172.417 213.844 172.413 213.827 172.414 213.81C172.415 213.793 172.421 213.777 172.431 213.763C172.441 213.749 172.454 213.738 172.47 213.732Z" fill="#263238"/>
<path d="M181.566 174.877C178.294 175.301 174.543 176.022 172.425 178.808C171.445 179.99 170.964 181.506 171.082 183.036C171.268 184.465 171.99 185.77 173.101 186.687C171.793 187.108 170.63 187.89 169.747 188.943C168.864 189.995 168.295 191.276 168.107 192.637C168.052 193.318 168.138 194.004 168.36 194.651C168.581 195.297 168.934 195.892 169.396 196.396C169.847 196.928 170.36 197.397 170.856 197.883C171.352 198.37 171.902 198.785 172.416 199.209C171.86 199.643 171.339 200.119 170.856 200.633C170.315 201.153 169.829 201.727 169.405 202.346C168.527 203.572 168.032 205.031 167.98 206.538C168.055 208.035 168.577 209.476 169.477 210.676C170.209 211.915 171.241 212.951 172.479 213.687C172.494 213.694 172.512 213.696 172.529 213.691C172.545 213.687 172.56 213.677 172.57 213.663C172.579 213.649 172.584 213.631 172.582 213.614C172.58 213.597 172.573 213.581 172.56 213.569C171.587 212.681 170.762 211.644 170.117 210.495C169.337 209.27 168.91 207.854 168.882 206.403C169.001 205.026 169.466 203.702 170.234 202.553C170.616 201.93 171.031 201.328 171.478 200.75C171.923 200.277 172.339 199.778 172.722 199.254C172.722 199.254 171.65 198.118 171.271 197.631C170.892 197.144 170.523 196.621 170.18 196.089C169.454 195.08 169.133 193.835 169.279 192.601C169.491 191.448 170.015 190.376 170.793 189.5C171.55 188.598 172.533 187.886 173.326 187.002C173.355 186.956 173.373 186.903 173.381 186.849C173.389 186.795 173.386 186.74 173.371 186.687C171.568 183.874 171.794 181.206 173.723 179.123C174.706 178.114 175.856 177.281 177.122 176.662C178.579 176 180.086 175.454 181.629 175.031C181.692 175.022 181.665 174.868 181.566 174.877Z" fill="#263238"/>
<path d="M241.337 235.448C239.417 234.853 237.389 234.547 235.424 234.114C233.458 233.681 231.475 233.276 229.492 232.879C227.509 232.482 225.444 232.086 223.425 231.707C221.405 231.328 219.521 230.905 217.556 230.67C215.659 230.487 213.746 230.529 211.859 230.797C209.953 231.013 208.042 231.166 206.125 231.256C202.263 231.443 198.392 231.358 194.541 231.004C190.184 230.599 185.869 229.83 181.641 228.705C181.55 228.705 181.523 228.813 181.641 228.84C188.972 231.288 196.657 232.506 204.385 232.446C206.296 232.446 208.217 232.329 210.119 232.14C212.019 231.87 213.933 231.707 215.852 231.653C217.881 231.787 219.895 232.088 221.874 232.554C223.866 232.924 225.85 233.303 227.842 233.654C230.096 234.051 232.35 234.457 234.612 234.808C236.875 235.16 239.12 235.665 241.337 235.827C241.5 235.791 241.509 235.493 241.337 235.448Z" fill="#263238"/>
<path d="M269.334 197.685C266.45 196.703 263.403 196.09 260.437 195.378C257.471 194.665 254.469 193.98 251.485 193.304C245.787 192.015 240.018 190.924 234.356 189.347C232.869 188.932 231.4 188.445 229.948 187.958C229.218 187.697 228.506 187.408 227.794 187.057C227.081 186.705 226.261 186.489 225.558 186.155C225.477 186.101 225.414 186.227 225.495 186.281C226.063 186.633 226.586 187.057 227.172 187.399C227.758 187.742 228.47 188.084 229.137 188.391C230.356 188.948 231.605 189.439 232.878 189.86C235.528 190.762 238.287 191.384 240.991 192.015C246.941 193.376 252.9 194.719 258.868 196.009C260.545 196.369 262.231 196.73 263.916 197.063C265.602 197.397 267.441 197.812 269.226 198.01C269.268 198.022 269.314 198.017 269.352 197.996C269.391 197.975 269.42 197.941 269.434 197.899C269.448 197.857 269.445 197.812 269.427 197.772C269.408 197.733 269.375 197.701 269.334 197.685Z" fill="#263238"/>
<path d="M259.949 186.777L301.183 192.384C301.183 192.384 293.647 149.518 285.633 135.32C277.727 121.311 269 130.569 265.674 147.517C261.941 166.304 259.949 186.777 259.949 186.777Z" fill="#37474F"/>
<path d="M298.096 186.173C296.942 185.902 295.761 185.731 294.607 185.479C293.453 185.226 292.344 185.055 291.208 184.875C288.892 184.514 286.566 184.189 284.24 183.874C279.66 183.243 275.09 182.549 270.492 182.071C267.878 181.782 265.272 181.395 262.658 181.169C262.639 181.169 262.621 181.177 262.607 181.191C262.594 181.204 262.586 181.222 262.586 181.242C262.586 181.261 262.594 181.279 262.607 181.293C262.621 181.306 262.639 181.314 262.658 181.314C267.211 182.377 271.853 183.171 276.469 183.919C281.085 184.667 285.628 185.37 290.226 185.875C291.515 186.01 292.804 186.182 294.102 186.245C295.4 186.308 296.762 186.425 298.087 186.452C298.124 186.453 298.16 186.44 298.187 186.414C298.214 186.389 298.23 186.354 298.231 186.317C298.232 186.28 298.219 186.244 298.193 186.217C298.168 186.19 298.133 186.174 298.096 186.173Z" fill="#263238"/>
<path d="M320.689 30.6474C320.161 35.7225 318.239 40.5525 315.135 44.6025C313.611 46.641 311.788 48.4372 309.726 49.9303C305.631 53.0047 300.769 54.8945 295.672 55.3934C294.402 55.5121 293.124 55.5362 291.85 55.4655C290.573 55.4374 289.301 55.3048 288.045 55.0688C282.969 54.1391 278.252 51.8134 274.424 48.3527L274.748 48.4519L261.001 50.5614L260 50.7146L260.505 49.8131L267.356 37.8864V38.3551C265.354 33.4291 264.804 28.0331 265.77 22.8043C266.735 17.5755 269.177 12.7322 272.806 8.84606C276.435 4.95997 281.101 2.19338 286.251 0.872912C291.402 -0.447554 296.823 -0.266767 301.874 1.39393C305.852 2.74549 309.477 4.96933 312.485 7.90271C315.486 10.8245 317.785 14.3902 319.206 18.3304C320.627 22.2707 321.134 26.4824 320.689 30.6474ZM320.689 30.6474C321.123 26.5054 320.601 22.3189 319.164 18.4102C317.726 14.5014 315.411 10.9746 312.396 8.10105C309.382 5.22752 305.748 3.0839 301.775 1.83516C297.802 0.586425 293.595 0.265856 289.479 0.898112C285.392 1.51349 281.501 3.05529 278.102 5.40558C274.735 7.77619 271.927 10.8527 269.871 14.4205C267.841 17.989 266.645 21.9711 266.374 26.0678C266.124 30.1586 266.786 34.2539 268.312 38.0577L268.411 38.3101L268.285 38.5354L261.352 50.4171L260.856 49.6869L274.64 47.7577H274.83L274.965 47.8839C278.647 51.3253 283.213 53.6755 288.154 54.6722C289.383 54.9245 290.631 55.0782 291.886 55.1319C293.14 55.2176 294.399 55.2176 295.654 55.1319C298.167 54.936 300.64 54.3898 303.001 53.5092C305.382 52.6429 307.621 51.4276 309.645 49.9033C310.663 49.1573 311.633 48.3473 312.548 47.4783C313.44 46.5833 314.277 45.635 315.054 44.6385C318.192 40.5869 320.143 35.743 320.689 30.6474Z" fill="#263238"/>
<path d="M279.851 40.6447C279.834 40.2791 279.891 39.9138 280.019 39.571C280.147 39.2282 280.344 38.9149 280.597 38.6503C280.85 38.3856 281.153 38.175 281.49 38.0313C281.827 37.8876 282.189 37.8137 282.555 37.8141C283.306 37.8141 284.026 38.1123 284.557 38.6431C285.088 39.174 285.386 39.894 285.386 40.6447C285.386 41.3955 285.088 42.1155 284.557 42.6463C284.026 43.1772 283.306 43.4754 282.555 43.4754C282.189 43.4758 281.827 43.4019 281.49 43.2582C281.153 43.1144 280.85 42.9039 280.597 42.6392C280.344 42.3746 280.147 42.0613 280.019 41.7185C279.891 41.3757 279.834 41.0104 279.851 40.6447ZM280.996 34.1179L280.355 12.2026H284.737L284.061 34.0909L280.996 34.1179Z" fill="#65C17E"/>
<path d="M290.37 40.6447C290.353 40.2791 290.41 39.9138 290.539 39.571C290.667 39.2282 290.863 38.9149 291.116 38.6503C291.369 38.3856 291.673 38.175 292.01 38.0313C292.346 37.8876 292.709 37.8137 293.075 37.8141C293.825 37.8141 294.545 38.1123 295.076 38.6431C295.607 39.174 295.905 39.894 295.905 40.6447C295.905 41.3955 295.607 42.1155 295.076 42.6463C294.545 43.1772 293.825 43.4754 293.075 43.4754C292.709 43.4758 292.346 43.4019 292.01 43.2582C291.673 43.1144 291.369 42.9039 291.116 42.6392C290.863 42.3746 290.667 42.0613 290.539 41.7185C290.41 41.3757 290.353 41.0104 290.37 40.6447ZM291.515 34.1179L290.875 12.2026H295.256L294.616 34.1179H291.515Z" fill="#65C17E"/>
<path d="M300.855 40.6447C300.837 40.2791 300.895 39.9138 301.023 39.571C301.151 39.2282 301.348 38.9149 301.601 38.6503C301.853 38.3856 302.157 38.175 302.494 38.0313C302.831 37.8876 303.193 37.8137 303.559 37.8141C304.31 37.8141 305.03 38.1123 305.561 38.6431C306.091 39.174 306.39 39.894 306.39 40.6447C306.39 41.3955 306.091 42.1155 305.561 42.6463C305.03 43.1772 304.31 43.4754 303.559 43.4754C303.193 43.4758 302.831 43.4019 302.494 43.2582C302.157 43.1144 301.853 42.9039 301.601 42.6392C301.348 42.3746 301.151 42.0613 301.023 41.7185C300.895 41.3757 300.837 41.0104 300.855 40.6447ZM301.999 34.1179L301.359 12.2026H305.741L305.101 34.1179H301.999Z" fill="#65C17E"/>
</svg>
