<svg width="348" height="246" viewBox="0 0 348 246" fill="none" xmlns="http://www.w3.org/2000/svg">
<path d="M0.949219 216.022L44.2299 215.805L87.5106 215.724L174.081 215.571L260.642 215.724L303.932 215.805L347.213 216.022L303.932 216.247L260.642 216.319L174.081 216.472L87.5106 216.319L44.2299 216.238L0.949219 216.022Z" fill="#263238"/>
<path d="M201.366 99.4853C201.334 99.6916 201.376 99.9023 201.483 100.081C201.59 100.261 201.755 100.397 201.952 100.468C202.898 100.612 204.052 100.765 205.332 100.946C209.145 92.67 213.04 86.1522 211.94 88.7305C210.26 92.7811 209.159 97.0479 208.668 101.405C210.155 101.604 213.626 102.028 215.357 102.235C219.341 87.4684 223.732 76.6144 223.218 80.0221C221.126 93.7699 221.496 98.2593 221.974 103.064C238.137 105.029 259.368 107.355 274.756 108.681C277.271 100.567 279.624 91.6964 279.841 92.3455C281.526 97.1685 281.49 103.984 281.067 109.212C285.971 109.6 289.901 109.807 292.308 109.807C292.308 109.807 294.111 102.938 294.436 100.666C295.401 94.8535 295.346 88.9171 294.273 83.1232C293.165 77.2094 290.803 71.8906 288.594 66.4546C288.587 66.421 288.578 66.3878 288.567 66.3554C287.102 62.7941 286.05 59.0768 285.43 55.2761C285.424 55.2464 285.424 55.2157 285.43 55.186C285.018 52.4142 284.84 49.6127 284.898 46.8111C285.096 36.5521 280.499 27.3298 271.763 23.9943C256.843 8.75004 236.353 15.7456 230.565 28.637C228.302 34.4156 226.057 41.961 224.101 47.7757C224.107 47.7853 224.11 47.7962 224.11 47.8072C224.11 47.8183 224.107 47.8292 224.101 47.8388C223.363 50.1196 222.487 52.3534 221.478 54.5279C216.114 64.9131 205.783 70.2679 201.366 99.4853Z" fill="#263238"/>
<path d="M275.361 27.0233C280.959 30.7285 284.15 35.7858 284.376 43.3043C284.52 47.6856 284.376 51.9496 285.611 56.1596C286.846 60.5048 289.081 64.1648 291.398 67.8159C295.067 73.6215 297.483 79.3189 297.474 86.6751C297.465 94.0313 296.356 102.902 293.39 109.654C293.39 109.699 293.318 109.654 293.336 109.654C295.861 102.758 296.78 93.0397 296.266 85.5933C295.698 77.4078 291.876 72.0169 288.036 65.5531C284.941 60.4222 283.23 54.5767 283.068 48.587C282.96 44.8729 283.357 41.0416 282.275 37.4716C280.995 33.2166 277.93 30.3408 274.865 27.7716C274.459 27.402 274.937 26.7439 275.361 27.0233Z" fill="#263238"/>
<path d="M210.459 65.2826C215.129 59.7925 219.898 55.1679 222.981 48.1543C225.785 41.7627 227.669 34.9384 230.508 28.5648C230.508 28.4566 230.698 28.5107 230.653 28.6279C226.145 39.9867 224.414 51.6521 216.535 60.9104C212.244 65.9407 207.998 70.5834 204.915 76.7586C201.762 83.2711 199.791 90.2914 199.091 97.493C199.091 97.7454 198.758 97.7093 198.758 97.493C198.753 85.715 202.896 74.3115 210.459 65.2826Z" fill="#263238"/>
<path d="M165.06 205.185C165.06 205.185 208.575 216.905 215.769 215.643C222.963 214.381 247.249 181.693 252.64 169.838C258.031 157.983 266.983 99.0076 265.261 92.5169C263.539 86.0261 254.533 85.936 246.933 102.668C239.334 119.399 221.367 156.18 218.167 159.209C214.966 162.238 161.553 202.048 165.06 205.185Z" fill="#FFAC92"/>
<path d="M211.993 211.766C205.322 208.277 197.199 199.812 191.664 198.929C190.31 198.664 188.907 198.842 187.662 199.436C186.416 200.03 185.395 201.009 184.75 202.228C184.75 202.228 182.207 196.576 177.051 196.603C174.41 196.603 172.102 200.858 172.102 200.858C172.102 200.858 169.857 196.414 165.286 196.72C161.635 196.964 159.877 201.183 159.877 201.183C159.877 201.183 155.749 197.919 152.107 199.38C144.732 202.292 143.506 233.636 154.865 238.937C160.157 241.407 160.04 233.736 160.04 233.736C160.04 233.736 162.87 244.734 169.325 245.148C175.78 245.563 175.032 235.611 175.032 235.611C175.032 235.611 177.871 246.239 184.605 245.996C191.619 245.752 189.167 235.917 189.167 235.917C189.167 235.917 193.62 243.075 198.732 241.705C207.179 239.451 198.101 222.485 200.012 215.661H210.623L211.993 211.766Z" fill="#FFAC92"/>
<path d="M202.362 205.095C208.97 207.854 216.506 197.423 223.304 199.848C232.12 202.995 223.971 213.876 210.611 215.643H200L202.362 205.095Z" fill="#FFAC92"/>
<path d="M159.49 201.805C159.49 201.783 159.482 201.763 159.467 201.747C159.451 201.732 159.431 201.724 159.409 201.724C159.388 201.724 159.367 201.732 159.352 201.747C159.337 201.763 159.328 201.783 159.328 201.805C156.416 212.019 156.335 224.135 159.986 234.177C160.103 234.502 160.698 234.457 160.635 234.069C158.85 222.963 158.147 212.992 159.49 201.805Z" fill="#263238"/>
<path d="M172.037 200.678C172.037 200.552 171.848 200.525 171.812 200.678C168.864 211.225 169.107 224.865 174.724 235.953C174.913 236.332 175.472 236.476 175.282 236.025C172.136 228.381 170.775 210.766 172.037 200.678Z" fill="#263238"/>
<path d="M189.816 236.575C184.885 225.757 183.92 214.426 184.605 202.652C184.605 202.499 184.398 202.499 184.353 202.652C182.45 208.322 182.802 215.868 183.568 221.719C184.168 227.148 186.179 232.326 189.401 236.737C189.563 236.927 189.924 236.81 189.816 236.575Z" fill="#263238"/>
<path d="M223.831 199.019C219.504 197.577 215.06 201.038 211.418 202.977C210.252 203.67 209.023 204.253 207.749 204.717C204.864 205.618 202.727 205.041 201.438 204.239C199.419 202.95 193.117 196.657 188.565 198.749C186.994 199.484 185.649 200.626 184.67 202.057C183.282 199.533 181.506 196.783 178.432 196.279C177.755 196.164 177.061 196.193 176.396 196.366C175.731 196.538 175.11 196.85 174.574 197.279C174.001 197.721 173.491 198.24 173.059 198.821C172.631 199.342 172.279 199.922 172.013 200.543C172.012 200.522 172.012 200.501 172.013 200.479L171.914 200.29L171.725 199.903C171.468 199.383 171.102 198.925 170.652 198.559C170.566 198.472 170.464 198.403 170.351 198.356C170.238 198.31 170.116 198.287 169.994 198.289C169.975 198.289 169.957 198.296 169.943 198.31C169.929 198.324 169.922 198.342 169.922 198.361C169.922 198.38 169.929 198.398 169.943 198.412C169.957 198.426 169.975 198.433 169.994 198.433C170.205 198.533 170.376 198.702 170.481 198.911C170.625 199.127 170.76 199.353 170.914 199.56C171.067 199.767 171.211 199.984 171.364 200.191L171.59 200.525L171.689 200.696C171.732 200.751 171.78 200.802 171.833 200.849C171.846 200.866 171.862 200.88 171.881 200.889C171.9 200.898 171.92 200.903 171.941 200.903C171.962 200.903 171.983 200.898 172.002 200.889C172.02 200.88 172.037 200.866 172.049 200.849C172.513 200.437 172.933 199.978 173.302 199.479C173.757 198.951 174.261 198.468 174.808 198.036C175.328 197.634 175.926 197.346 176.565 197.191C177.203 197.036 177.867 197.017 178.513 197.135C181.272 197.676 183.021 200.128 184.49 202.319C184.49 202.319 184.49 202.319 184.535 202.319C184.49 202.391 184.589 202.454 184.643 202.4C186.158 201.074 187.6 199.587 189.692 199.281C191.945 198.947 194.082 200.029 195.948 201.165C196.883 201.714 197.786 202.316 198.652 202.968C199.419 203.563 200.149 204.23 200.969 204.771C204.476 206.979 208.316 205.266 209.272 204.861C211.157 204.012 212.984 203.042 214.744 201.958C216.513 200.772 218.508 199.965 220.604 199.587C221.566 199.445 222.549 199.55 223.46 199.89C224.371 200.231 225.181 200.796 225.814 201.534C226.473 202.382 227.311 203.968 225.589 207.583C225.589 207.583 225.589 207.655 225.643 207.628C226.545 206.691 229.411 200.885 223.831 199.019Z" fill="#263238"/>
<path d="M261.844 147.291L220.781 140.728C220.781 140.728 240.398 101.883 252.18 90.6143C263.81 79.4899 269.471 90.8847 267.758 108.067C265.865 127.116 261.844 147.291 261.844 147.291Z" fill="#37474F"/>
<path d="M260.514 139.647C259.36 139.376 258.179 139.205 257.025 138.944C255.871 138.682 254.762 138.52 253.626 138.349C251.309 137.988 248.984 137.664 246.667 137.348C242.087 136.717 237.508 136.023 232.91 135.545C230.296 135.257 227.699 134.86 225.076 134.644C224.995 134.644 224.986 134.77 225.076 134.788C229.629 135.852 234.262 136.591 238.878 137.393C243.493 138.195 248.037 138.845 252.635 139.34C253.924 139.485 255.222 139.647 256.511 139.71C257.8 139.773 259.17 139.899 260.496 139.917C260.531 139.92 260.567 139.908 260.594 139.884C260.621 139.86 260.637 139.827 260.64 139.791C260.642 139.755 260.63 139.72 260.607 139.693C260.583 139.666 260.55 139.649 260.514 139.647Z" fill="#263238"/>
<path d="M238.984 216.003H347.731C347.731 216.003 302.53 103.822 279.551 87.4326C272.655 82.5104 261.665 81.9605 254.255 91.8409C248.179 99.9543 231.312 132.183 230.546 143.776C229.78 155.369 238.876 166.827 238.876 166.827L238.984 216.003Z" fill="#455A64"/>
<path d="M274.992 139.989C275.272 139.917 275.542 139.881 275.813 139.827C276.051 139.773 276.299 139.773 276.537 139.828C276.775 139.882 276.998 139.99 277.19 140.142C277.381 140.294 277.536 140.488 277.642 140.708C277.748 140.928 277.804 141.169 277.805 141.414C277.798 141.631 277.848 141.847 277.949 142.039C278.05 142.232 278.199 142.395 278.382 142.513C278.586 142.642 278.818 142.722 279.058 142.748C279.334 142.788 279.608 142.842 279.878 142.91C279.608 142.982 279.337 143.018 279.058 143.072C278.756 143.132 278.443 143.104 278.156 142.991C277.851 142.861 277.592 142.643 277.411 142.366C277.229 142.088 277.134 141.763 277.138 141.432C277.133 141.215 277.073 141.003 276.964 140.816C276.855 140.628 276.701 140.471 276.516 140.359C276.301 140.242 276.065 140.171 275.822 140.151C275.542 140.097 275.272 140.061 274.992 139.989Z" fill="white"/>
<path d="M233.395 139.989C233.665 139.917 233.935 139.881 234.206 139.827C234.444 139.773 234.692 139.773 234.93 139.828C235.169 139.882 235.392 139.99 235.583 140.142C235.774 140.294 235.929 140.488 236.035 140.708C236.142 140.928 236.197 141.169 236.198 141.414C236.193 141.632 236.245 141.848 236.347 142.04C236.45 142.233 236.6 142.396 236.784 142.513C236.987 142.645 237.219 142.725 237.46 142.748C237.731 142.802 238.001 142.829 238.272 142.91C238.001 142.982 237.731 143.018 237.46 143.072C237.158 143.131 236.846 143.103 236.559 142.991C236.256 142.858 235.998 142.64 235.817 142.363C235.637 142.086 235.54 141.762 235.54 141.432C235.535 141.215 235.475 141.003 235.367 140.816C235.258 140.628 235.104 140.471 234.918 140.359C234.704 140.241 234.467 140.17 234.224 140.151C233.935 140.097 233.665 140.061 233.395 139.989Z" fill="white"/>
<path d="M290.098 194.025C290.368 193.953 290.648 193.917 290.918 193.863C291.156 193.812 291.403 193.815 291.64 193.871C291.878 193.928 292.099 194.036 292.289 194.189C292.479 194.342 292.633 194.535 292.738 194.755C292.844 194.974 292.9 195.215 292.901 195.458C292.899 195.676 292.951 195.891 293.054 196.083C293.156 196.275 293.305 196.439 293.487 196.558C293.692 196.684 293.924 196.761 294.163 196.784C294.434 196.838 294.713 196.874 294.984 196.946C294.713 197.027 294.434 197.063 294.163 197.117C293.86 197.174 293.548 197.143 293.262 197.027C292.957 196.896 292.697 196.679 292.514 196.402C292.331 196.124 292.234 195.8 292.234 195.467C292.233 195.251 292.174 195.039 292.065 194.852C291.956 194.666 291.8 194.511 291.612 194.404C291.403 194.281 291.169 194.21 290.927 194.196C290.648 194.142 290.368 194.106 290.098 194.025Z" fill="white"/>
<path d="M308.902 142.91C309.173 142.829 309.452 142.802 309.723 142.748C309.961 142.693 310.208 142.694 310.446 142.748C310.684 142.803 310.906 142.91 311.097 143.063C311.288 143.215 311.441 143.409 311.547 143.629C311.652 143.849 311.707 144.09 311.706 144.334C311.703 144.552 311.755 144.767 311.857 144.96C311.96 145.152 312.109 145.315 312.292 145.434C312.495 145.565 312.727 145.642 312.968 145.659C313.239 145.723 313.518 145.75 313.788 145.831C313.518 145.903 313.239 145.939 312.968 145.993C312.666 146.054 312.353 146.025 312.067 145.912C311.761 145.781 311.501 145.564 311.319 145.286C311.136 145.009 311.039 144.684 311.039 144.352C311.037 144.135 310.979 143.922 310.87 143.734C310.761 143.545 310.605 143.389 310.417 143.279C310.206 143.161 309.972 143.091 309.732 143.072C309.452 142.982 309.173 142.982 308.902 142.91Z" fill="white"/>
<path d="M260.828 115.424C261.108 115.352 261.378 115.316 261.648 115.262C261.949 115.196 262.262 115.218 262.55 115.325C262.863 115.442 263.133 115.651 263.325 115.924C263.516 116.198 263.62 116.523 263.623 116.857C263.622 117.075 263.675 117.289 263.777 117.481C263.88 117.673 264.028 117.837 264.209 117.957C264.416 118.079 264.646 118.156 264.885 118.183C265.164 118.237 265.435 118.273 265.705 118.345C265.435 118.426 265.164 118.453 264.885 118.516C264.582 118.568 264.27 118.537 263.983 118.426C263.674 118.294 263.412 118.072 263.23 117.789C263.048 117.506 262.956 117.175 262.965 116.839C262.961 116.624 262.901 116.413 262.792 116.226C262.683 116.04 262.529 115.885 262.343 115.776C262.131 115.652 261.893 115.578 261.648 115.559C261.378 115.532 261.108 115.505 260.828 115.424Z" fill="white"/>
<path d="M290.422 114.802C290.692 114.73 290.963 114.693 291.242 114.639C291.543 114.576 291.855 114.598 292.144 114.703C292.456 114.821 292.726 115.03 292.919 115.303C293.112 115.576 293.219 115.901 293.226 116.235C293.221 116.453 293.273 116.669 293.376 116.861C293.478 117.054 293.628 117.217 293.811 117.335C294.016 117.462 294.248 117.539 294.488 117.56C294.758 117.614 295.029 117.65 295.308 117.723C295.029 117.804 294.758 117.84 294.488 117.894C294.185 117.951 293.872 117.92 293.586 117.804C293.281 117.673 293.021 117.455 292.838 117.178C292.655 116.901 292.558 116.576 292.558 116.244C292.555 116.028 292.496 115.817 292.387 115.63C292.278 115.444 292.123 115.289 291.936 115.18C291.728 115.058 291.493 114.987 291.251 114.973C290.972 114.93 290.695 114.873 290.422 114.802Z" fill="white"/>
<path d="M271.266 86.3957C271.536 86.3236 271.816 86.2875 272.086 86.2334C272.324 86.1792 272.571 86.1793 272.809 86.2339C273.047 86.2884 273.27 86.396 273.46 86.5485C273.651 86.701 273.805 86.8945 273.91 87.1147C274.016 87.3348 274.07 87.576 274.069 87.8201C274.064 88.0383 274.116 88.2541 274.218 88.4467C274.321 88.6394 274.471 88.8023 274.655 88.9199C274.859 89.05 275.091 89.1303 275.331 89.1543C275.602 89.2084 275.881 89.2354 276.152 89.3166C275.881 89.3887 275.602 89.4247 275.331 89.4788C275.029 89.5394 274.716 89.5112 274.43 89.3977C274.125 89.267 273.864 89.0495 273.682 88.7722C273.499 88.495 273.402 88.1702 273.402 87.8381C273.4 87.6207 273.342 87.4075 273.233 87.2194C273.124 87.0313 272.968 86.8748 272.78 86.7653C272.57 86.6472 272.336 86.5764 272.095 86.558C271.816 86.5039 271.536 86.4678 271.266 86.3957Z" fill="white"/>
<path d="M253.57 162.599C253.841 162.527 254.111 162.491 254.382 162.437C254.682 162.371 254.995 162.393 255.283 162.5C255.596 162.615 255.867 162.822 256.061 163.094C256.254 163.366 256.36 163.69 256.365 164.024C256.36 164.242 256.411 164.458 256.514 164.65C256.617 164.843 256.767 165.006 256.951 165.123C257.154 165.255 257.386 165.335 257.627 165.358C257.897 165.412 258.168 165.448 258.438 165.52C258.168 165.601 257.897 165.628 257.627 165.682C257.325 165.741 257.012 165.713 256.726 165.601C256.423 165.468 256.165 165.25 255.984 164.973C255.803 164.696 255.707 164.372 255.707 164.042C255.702 163.825 255.642 163.613 255.533 163.425C255.425 163.238 255.27 163.081 255.085 162.969C254.87 162.852 254.634 162.781 254.391 162.761C254.111 162.707 253.841 162.68 253.57 162.599Z" fill="white"/>
<path d="M285.863 212.118C286.134 212.037 286.413 212.001 286.684 211.947C286.922 211.896 287.169 211.899 287.406 211.955C287.643 212.012 287.865 212.12 288.055 212.273C288.245 212.426 288.398 212.619 288.504 212.839C288.61 213.058 288.666 213.299 288.667 213.542C288.664 213.76 288.717 213.975 288.819 214.167C288.922 214.359 289.071 214.523 289.253 214.642C289.456 214.772 289.689 214.849 289.929 214.868C290.199 214.922 290.479 214.958 290.749 215.03C290.479 215.111 290.199 215.147 289.929 215.201C289.626 215.258 289.313 215.227 289.028 215.111C288.722 214.981 288.461 214.764 288.278 214.487C288.095 214.209 287.998 213.884 288 213.551C287.998 213.335 287.94 213.123 287.831 212.936C287.722 212.75 287.566 212.595 287.378 212.488C287.169 212.365 286.934 212.294 286.693 212.28C286.386 212.226 286.107 212.19 285.863 212.118Z" fill="white"/>
<path d="M269.949 185.506C270.22 185.434 270.49 185.398 270.761 185.343C271.061 185.282 271.373 185.303 271.662 185.407C271.976 185.523 272.247 185.732 272.44 186.005C272.633 186.279 272.739 186.604 272.744 186.939C272.74 187.157 272.791 187.373 272.894 187.565C272.997 187.758 273.147 187.921 273.33 188.039C273.534 188.167 273.766 188.245 274.006 188.264C274.276 188.318 274.547 188.354 274.826 188.427C274.547 188.508 274.276 188.535 274.006 188.598C273.703 188.649 273.392 188.618 273.104 188.508C272.802 188.375 272.544 188.156 272.363 187.879C272.182 187.603 272.086 187.279 272.086 186.948C272.08 186.733 272.02 186.522 271.911 186.337C271.802 186.151 271.649 185.995 271.464 185.884C271.254 185.757 271.015 185.686 270.77 185.677C270.535 185.614 270.22 185.587 269.949 185.506Z" fill="white"/>
<path d="M240.551 190.347C240.83 190.266 241.101 190.23 241.371 190.176C241.61 190.125 241.856 190.128 242.094 190.184C242.331 190.241 242.552 190.349 242.742 190.502C242.932 190.655 243.086 190.848 243.192 191.068C243.297 191.287 243.353 191.528 243.354 191.771C243.352 191.989 243.404 192.204 243.507 192.396C243.609 192.588 243.758 192.752 243.94 192.871C244.144 193.001 244.376 193.078 244.617 193.097C244.896 193.151 245.166 193.187 245.437 193.259C245.167 193.33 244.893 193.387 244.617 193.43C244.314 193.487 244.001 193.456 243.715 193.34C243.409 193.21 243.148 192.993 242.965 192.716C242.783 192.438 242.686 192.113 242.687 191.78C242.686 191.565 242.629 191.354 242.521 191.168C242.414 190.981 242.26 190.826 242.074 190.717C241.862 190.596 241.624 190.525 241.38 190.509C241.101 190.455 240.83 190.419 240.551 190.347Z" fill="white"/>
<path d="M283.48 163.248C283.751 163.176 284.021 163.14 284.292 163.086C284.531 163.035 284.778 163.038 285.015 163.094C285.253 163.151 285.475 163.259 285.666 163.412C285.856 163.565 286.011 163.758 286.118 163.977C286.225 164.197 286.281 164.437 286.284 164.681C286.28 164.9 286.332 165.115 286.434 165.307C286.537 165.5 286.687 165.663 286.87 165.781C287.074 165.91 287.306 165.987 287.546 166.007C287.817 166.061 288.087 166.097 288.358 166.169C288.087 166.25 287.817 166.277 287.546 166.34C287.243 166.395 286.931 166.364 286.645 166.25C286.342 166.117 286.084 165.899 285.903 165.622C285.722 165.345 285.626 165.021 285.626 164.69C285.62 164.475 285.56 164.265 285.451 164.079C285.343 163.893 285.189 163.737 285.004 163.627C284.793 163.502 284.555 163.431 284.31 163.419C284.057 163.356 283.751 163.329 283.48 163.248Z" fill="white"/>
<path d="M321.066 199.677C321.337 199.605 321.616 199.569 321.887 199.515C322.187 199.449 322.5 199.471 322.788 199.578C323.101 199.695 323.371 199.904 323.563 200.178C323.754 200.451 323.858 200.777 323.861 201.111C323.86 201.328 323.913 201.543 324.016 201.734C324.118 201.926 324.266 202.09 324.447 202.211C324.654 202.332 324.884 202.409 325.123 202.436C325.403 202.49 325.673 202.526 325.943 202.598C325.673 202.679 325.403 202.706 325.123 202.77C324.883 202.814 324.637 202.804 324.401 202.741C324.166 202.678 323.947 202.564 323.762 202.406C323.576 202.248 323.428 202.05 323.328 201.828C323.229 201.605 323.18 201.364 323.185 201.12C323.183 200.904 323.125 200.692 323.016 200.505C322.907 200.318 322.751 200.163 322.563 200.056C322.355 199.931 322.12 199.857 321.878 199.84C321.616 199.777 321.337 199.777 321.066 199.677Z" fill="white"/>
<path d="M306.145 177.438C306.415 177.366 306.694 177.33 306.965 177.275C307.203 177.225 307.45 177.227 307.687 177.284C307.924 177.34 308.146 177.449 308.336 177.602C308.526 177.754 308.679 177.948 308.785 178.167C308.891 178.387 308.947 178.627 308.948 178.871C308.944 179.089 308.996 179.305 309.098 179.497C309.201 179.69 309.351 179.853 309.534 179.971C309.737 180.102 309.97 180.179 310.21 180.196C310.481 180.25 310.76 180.286 311.031 180.359C310.76 180.44 310.481 180.476 310.21 180.53C309.907 180.587 309.594 180.556 309.309 180.44C309.003 180.31 308.742 180.093 308.559 179.815C308.376 179.538 308.28 179.212 308.281 178.88C308.28 178.664 308.221 178.452 308.112 178.265C308.003 178.078 307.847 177.924 307.659 177.816C307.45 177.694 307.215 177.623 306.974 177.609C306.694 177.555 306.415 177.519 306.145 177.438Z" fill="white"/>
<path d="M337.859 209.846C338.139 209.774 338.409 209.738 338.68 209.684C338.918 209.633 339.165 209.636 339.402 209.692C339.639 209.748 339.861 209.857 340.051 210.01C340.241 210.163 340.394 210.356 340.5 210.575C340.606 210.795 340.662 211.035 340.663 211.279C340.661 211.497 340.713 211.712 340.815 211.904C340.918 212.096 341.067 212.26 341.249 212.379C341.452 212.509 341.685 212.586 341.925 212.604C342.205 212.659 342.475 212.695 342.745 212.767C342.475 212.838 342.201 212.895 341.925 212.938C341.622 212.995 341.309 212.963 341.024 212.848C340.718 212.719 340.458 212.501 340.276 212.224C340.095 211.946 340 211.62 340.005 211.288C339.999 211.073 339.939 210.863 339.83 210.677C339.722 210.491 339.568 210.335 339.383 210.225C339.17 210.104 338.933 210.033 338.689 210.017C338.409 209.963 338.148 209.927 337.859 209.846Z" fill="white"/>
<path d="M263.322 130.776C263.187 131.02 263.015 131.236 262.862 131.47C262.731 131.677 262.555 131.852 262.348 131.981C262.14 132.111 261.906 132.192 261.663 132.219C261.419 132.246 261.173 132.218 260.942 132.136C260.711 132.055 260.502 131.923 260.329 131.75C260.179 131.592 259.99 131.476 259.781 131.413C259.573 131.35 259.351 131.341 259.139 131.389C258.903 131.442 258.684 131.55 258.499 131.705C258.276 131.87 258.044 132.024 257.805 132.164C257.949 131.921 258.111 131.705 258.264 131.47C258.441 131.211 258.688 131.008 258.977 130.884C259.281 130.765 259.614 130.737 259.935 130.804C260.255 130.871 260.549 131.031 260.78 131.263C260.936 131.414 261.128 131.522 261.338 131.577C261.548 131.632 261.768 131.633 261.979 131.579C262.213 131.515 262.429 131.397 262.61 131.236C262.898 131.083 263.114 130.911 263.322 130.776Z" fill="white"/>
<path d="M252.443 112.521C252.308 112.764 252.136 112.981 251.983 113.215C251.852 113.422 251.676 113.596 251.469 113.726C251.261 113.855 251.027 113.937 250.784 113.964C250.54 113.99 250.294 113.962 250.063 113.881C249.833 113.8 249.623 113.668 249.45 113.494C249.3 113.336 249.112 113.219 248.903 113.156C248.694 113.093 248.473 113.085 248.26 113.134C248.025 113.187 247.805 113.295 247.62 113.449C247.397 113.615 247.165 113.768 246.926 113.909C247.07 113.666 247.232 113.449 247.386 113.215C247.562 112.956 247.809 112.753 248.098 112.629C248.402 112.509 248.735 112.481 249.056 112.548C249.376 112.616 249.67 112.775 249.901 113.008C250.057 113.159 250.249 113.267 250.459 113.323C250.669 113.378 250.89 113.378 251.1 113.323C251.334 113.259 251.55 113.142 251.731 112.981C251.983 112.827 252.2 112.656 252.443 112.521Z" fill="white"/>
<path d="M307.497 162.554C307.352 162.806 307.19 163.023 307.037 163.248C306.866 163.51 306.625 163.719 306.343 163.852C306.044 163.982 305.713 164.021 305.392 163.963C305.071 163.905 304.775 163.754 304.54 163.528C304.388 163.372 304.199 163.257 303.991 163.194C303.783 163.131 303.562 163.122 303.35 163.167C303.114 163.22 302.895 163.328 302.71 163.482C302.475 163.636 302.259 163.807 302.016 163.942C302.151 163.699 302.322 163.482 302.475 163.248C302.649 162.989 302.893 162.786 303.179 162.662C303.484 162.546 303.816 162.52 304.136 162.587C304.455 162.654 304.749 162.811 304.982 163.041C305.135 163.192 305.326 163.301 305.535 163.356C305.743 163.411 305.963 163.411 306.171 163.356C306.407 163.294 306.626 163.18 306.812 163.023C307.064 162.869 307.28 162.698 307.497 162.554Z" fill="white"/>
<path d="M279.966 103.389C279.831 103.632 279.66 103.849 279.507 104.083C279.338 104.341 279.101 104.547 278.821 104.678C278.517 104.816 278.178 104.859 277.849 104.803C277.52 104.747 277.215 104.593 276.973 104.363C276.822 104.205 276.634 104.089 276.426 104.024C276.218 103.96 275.997 103.949 275.783 103.993C275.549 104.048 275.33 104.156 275.143 104.308C274.909 104.462 274.693 104.633 274.449 104.777C274.584 104.525 274.756 104.308 274.909 104.074C275.084 103.815 275.332 103.614 275.621 103.497C275.926 103.377 276.259 103.349 276.579 103.417C276.9 103.484 277.193 103.644 277.424 103.876C277.582 104.033 277.778 104.148 277.992 104.208C278.207 104.268 278.434 104.271 278.65 104.218C278.883 104.151 279.098 104.034 279.281 103.876C279.552 103.695 279.723 103.524 279.966 103.389Z" fill="white"/>
<path d="M260.873 89.9021C260.737 90.1455 260.566 90.3619 260.413 90.5963C260.243 90.8553 260.006 91.0639 259.728 91.2003C259.422 91.3366 259.083 91.3786 258.754 91.3207C258.425 91.2629 258.12 91.1079 257.88 90.8758C257.729 90.718 257.541 90.6019 257.332 90.5388C257.124 90.4756 256.902 90.4674 256.69 90.5152C256.454 90.5662 256.234 90.6745 256.05 90.8307C255.815 90.9839 255.599 91.1552 255.355 91.2905C255.491 91.047 255.662 90.8307 255.815 90.5963C255.99 90.3351 256.238 90.1313 256.527 90.0103C256.832 89.8905 257.165 89.8626 257.486 89.9298C257.806 89.9971 258.1 90.1567 258.33 90.389C258.486 90.541 258.678 90.6501 258.888 90.7054C259.098 90.7607 259.319 90.7604 259.529 90.7045C259.763 90.6406 259.979 90.5234 260.16 90.3619C260.413 90.2087 260.62 90.0374 260.873 89.9021Z" fill="white"/>
<path d="M278.895 120.553C278.976 120.824 279.003 121.103 279.066 121.374C279.122 121.675 279.1 121.985 279.003 122.275C278.884 122.587 278.675 122.855 278.402 123.047C278.128 123.238 277.804 123.343 277.471 123.348C277.253 123.345 277.038 123.397 276.845 123.499C276.653 123.602 276.49 123.751 276.371 123.934C276.24 124.137 276.162 124.369 276.145 124.61C276.082 124.88 276.055 125.16 275.974 125.43C275.902 125.16 275.866 124.88 275.812 124.61C275.75 124.307 275.782 123.993 275.902 123.708C276.031 123.402 276.248 123.14 276.526 122.957C276.803 122.774 277.129 122.678 277.462 122.681C277.678 122.678 277.889 122.62 278.076 122.511C278.262 122.402 278.417 122.246 278.525 122.059C278.644 121.848 278.714 121.614 278.733 121.374C278.787 121.103 278.823 120.824 278.895 120.553Z" fill="white"/>
<path d="M272.393 168.576C272.466 168.846 272.502 169.126 272.556 169.396C272.607 169.634 272.604 169.881 272.547 170.118C272.491 170.356 272.382 170.577 272.229 170.767C272.077 170.957 271.883 171.111 271.664 171.216C271.444 171.322 271.204 171.378 270.96 171.379C270.742 171.375 270.526 171.427 270.334 171.529C270.142 171.632 269.978 171.782 269.86 171.965C269.733 172.17 269.656 172.402 269.635 172.641C269.581 172.912 269.545 173.191 269.473 173.462C269.391 173.191 269.355 172.912 269.301 172.641C269.244 172.338 269.275 172.026 269.391 171.74C269.522 171.435 269.74 171.175 270.017 170.992C270.294 170.809 270.619 170.712 270.951 170.712C271.167 170.711 271.379 170.653 271.566 170.543C271.753 170.434 271.907 170.278 272.015 170.09C272.137 169.881 272.208 169.647 272.222 169.405C272.276 169.126 272.339 168.846 272.393 168.576Z" fill="white"/>
<path d="M335.446 190.824C335.527 191.095 335.563 191.365 335.617 191.636C335.668 191.874 335.665 192.122 335.608 192.359C335.552 192.597 335.443 192.819 335.291 193.01C335.138 193.2 334.945 193.354 334.725 193.461C334.506 193.568 334.265 193.625 334.021 193.628C333.803 193.624 333.588 193.675 333.395 193.778C333.203 193.881 333.04 194.031 332.921 194.214C332.789 194.416 332.711 194.649 332.696 194.89C332.642 195.16 332.606 195.431 332.534 195.701C332.453 195.431 332.417 195.16 332.362 194.89C332.307 194.587 332.339 194.275 332.453 193.988C332.585 193.685 332.803 193.427 333.08 193.246C333.357 193.065 333.681 192.969 334.012 192.97C334.228 192.964 334.438 192.904 334.624 192.795C334.81 192.686 334.965 192.533 335.076 192.348C335.197 192.135 335.268 191.898 335.283 191.654C335.346 191.365 335.382 191.095 335.446 190.824Z" fill="white"/>
<path d="M306.237 127.206C306.309 127.477 306.345 127.747 306.399 128.026C306.462 128.327 306.44 128.639 306.336 128.928C306.217 129.24 306.008 129.51 305.735 129.703C305.462 129.896 305.137 130.003 304.803 130.01C304.585 130.006 304.37 130.057 304.177 130.16C303.985 130.262 303.822 130.412 303.703 130.596C303.576 130.8 303.499 131.032 303.478 131.272C303.424 131.542 303.388 131.813 303.316 132.092C303.235 131.813 303.208 131.542 303.144 131.272C303.1 131.032 303.11 130.786 303.173 130.55C303.236 130.315 303.35 130.096 303.508 129.91C303.666 129.725 303.864 129.577 304.086 129.477C304.309 129.377 304.55 129.328 304.794 129.334C305.01 129.33 305.221 129.271 305.408 129.162C305.594 129.053 305.749 128.898 305.858 128.712C305.984 128.504 306.055 128.269 306.065 128.026C306.128 127.747 306.155 127.477 306.237 127.206Z" fill="white"/>
<path d="M306.237 204.284C306.309 204.554 306.345 204.825 306.399 205.095C306.45 205.334 306.447 205.581 306.391 205.819C306.334 206.056 306.226 206.278 306.073 206.469C305.921 206.66 305.727 206.814 305.508 206.921C305.288 207.028 305.048 207.085 304.804 207.087C304.586 207.083 304.37 207.135 304.178 207.237C303.985 207.34 303.822 207.49 303.704 207.673C303.575 207.877 303.498 208.109 303.478 208.349C303.424 208.62 303.388 208.89 303.316 209.161C303.235 208.89 303.208 208.62 303.145 208.349C303.094 208.046 303.125 207.735 303.235 207.448C303.368 207.145 303.586 206.887 303.863 206.707C304.14 206.526 304.464 206.429 304.795 206.429C305.01 206.423 305.22 206.363 305.406 206.255C305.592 206.146 305.748 205.992 305.858 205.807C305.986 205.597 306.057 205.358 306.066 205.113C306.129 204.852 306.156 204.581 306.237 204.284Z" fill="white"/>
<path d="M321.063 160.156C321.144 160.426 321.171 160.706 321.225 160.976C321.28 161.214 321.279 161.461 321.225 161.699C321.17 161.937 321.063 162.16 320.91 162.35C320.758 162.541 320.564 162.695 320.344 162.8C320.124 162.906 319.883 162.96 319.639 162.959C319.421 162.956 319.206 163.008 319.013 163.111C318.821 163.213 318.658 163.363 318.539 163.545C318.408 163.748 318.33 163.981 318.313 164.222C318.25 164.492 318.223 164.771 318.142 165.042C318.07 164.771 318.034 164.492 317.98 164.222C317.918 163.919 317.95 163.605 318.07 163.32C318.198 163.015 318.414 162.754 318.69 162.571C318.966 162.389 319.29 162.291 319.621 162.292C319.838 162.291 320.051 162.232 320.239 162.123C320.427 162.014 320.584 161.858 320.693 161.67C320.812 161.46 320.882 161.226 320.901 160.985C320.955 160.706 321.018 160.426 321.063 160.156Z" fill="white"/>
<path d="M245.917 170.297C245.998 170.568 246.025 170.838 246.079 171.109C246.133 171.347 246.133 171.595 246.079 171.833C246.024 172.071 245.917 172.295 245.764 172.486C245.612 172.677 245.419 172.832 245.199 172.938C244.978 173.045 244.737 173.1 244.493 173.101C244.274 173.096 244.059 173.147 243.866 173.25C243.673 173.353 243.51 173.503 243.393 173.687C243.261 173.889 243.183 174.122 243.167 174.363C243.104 174.634 243.077 174.904 242.996 175.174C242.924 174.904 242.888 174.634 242.834 174.363C242.775 174.06 242.806 173.747 242.924 173.462C243.054 173.158 243.27 172.899 243.546 172.718C243.821 172.537 244.145 172.441 244.475 172.443C244.691 172.438 244.903 172.378 245.091 172.269C245.278 172.161 245.435 172.006 245.547 171.821C245.667 171.608 245.738 171.371 245.755 171.127C245.809 170.838 245.845 170.568 245.917 170.297Z" fill="white"/>
<path d="M247.376 127.206C247.444 127.477 247.498 127.75 247.538 128.026C247.605 128.326 247.586 128.638 247.484 128.928C247.366 129.24 247.156 129.51 246.883 129.703C246.61 129.896 246.286 130.003 245.952 130.01C245.733 130.005 245.518 130.056 245.325 130.159C245.132 130.261 244.969 130.412 244.852 130.596C244.721 130.798 244.643 131.031 244.626 131.272C244.563 131.542 244.536 131.813 244.455 132.092C244.383 131.813 244.347 131.542 244.293 131.272C244.232 130.97 244.26 130.657 244.374 130.37C244.505 130.065 244.722 129.805 244.999 129.622C245.277 129.44 245.601 129.342 245.934 129.343C246.151 129.339 246.363 129.28 246.551 129.171C246.739 129.062 246.895 128.907 247.006 128.721C247.124 128.51 247.195 128.276 247.214 128.035C247.268 127.747 247.304 127.477 247.376 127.206Z" fill="white"/>
<path d="M263.099 99.1968C263.171 99.4672 263.207 99.7377 263.261 100.017C263.325 100.318 263.303 100.63 263.198 100.919C263.08 101.231 262.871 101.501 262.597 101.694C262.324 101.887 262 101.993 261.666 102C261.448 101.996 261.232 102.048 261.04 102.151C260.847 102.253 260.684 102.403 260.566 102.586C260.439 102.791 260.362 103.023 260.341 103.263C260.286 103.533 260.25 103.803 260.178 104.083C260.097 103.803 260.07 103.533 260.007 103.263C259.952 102.96 259.983 102.647 260.097 102.361C260.23 102.058 260.448 101.801 260.725 101.62C261.002 101.439 261.326 101.342 261.657 101.342C261.873 101.339 262.084 101.28 262.27 101.171C262.457 101.062 262.612 100.907 262.72 100.72C262.846 100.513 262.918 100.277 262.928 100.035C262.991 99.7106 263.018 99.4672 263.099 99.1968Z" fill="white"/>
<path d="M258.88 142.496C258.952 142.775 258.989 143.046 259.043 143.316C259.093 143.555 259.09 143.802 259.034 144.04C258.978 144.277 258.869 144.499 258.717 144.69C258.564 144.881 258.371 145.035 258.151 145.142C257.932 145.249 257.691 145.306 257.447 145.308C257.229 145.304 257.013 145.356 256.821 145.458C256.628 145.561 256.465 145.711 256.347 145.894C256.219 146.098 256.141 146.33 256.122 146.57C256.068 146.841 256.032 147.111 255.96 147.382C255.878 147.111 255.842 146.841 255.788 146.57C255.733 146.267 255.764 145.955 255.878 145.669C256.011 145.366 256.23 145.108 256.507 144.928C256.784 144.747 257.107 144.65 257.438 144.65C257.653 144.644 257.864 144.584 258.05 144.476C258.236 144.367 258.391 144.213 258.502 144.028C258.623 143.815 258.693 143.578 258.709 143.334C258.763 143.046 258.817 142.775 258.88 142.496Z" fill="white"/>
<path d="M296.772 148.319C296.844 148.59 296.88 148.869 296.934 149.14C296.985 149.378 296.982 149.625 296.926 149.862C296.869 150.099 296.761 150.321 296.608 150.511C296.455 150.701 296.262 150.854 296.042 150.96C295.823 151.066 295.582 151.122 295.339 151.123C295.121 151.121 294.906 151.173 294.714 151.275C294.522 151.378 294.358 151.527 294.239 151.709C294.113 151.914 294.036 152.145 294.013 152.385C293.959 152.655 293.923 152.935 293.851 153.205C293.77 152.935 293.743 152.655 293.68 152.385C293.623 152.082 293.654 151.769 293.77 151.484C293.901 151.178 294.118 150.918 294.395 150.735C294.673 150.553 294.998 150.456 295.33 150.456C295.546 150.454 295.758 150.396 295.945 150.287C296.131 150.178 296.286 150.022 296.393 149.834C296.519 149.627 296.591 149.391 296.601 149.149C296.682 148.869 296.682 148.59 296.772 148.319Z" fill="white"/>
<path d="M261.747 196.946C261.819 197.225 261.855 197.496 261.909 197.766C261.963 198.005 261.963 198.252 261.908 198.491C261.854 198.729 261.746 198.952 261.594 199.143C261.442 199.335 261.248 199.489 261.028 199.596C260.808 199.702 260.567 199.758 260.322 199.758C260.104 199.752 259.887 199.802 259.694 199.905C259.501 200.008 259.339 200.159 259.223 200.344C259.093 200.545 259.012 200.774 258.988 201.012C258.948 201.288 258.894 201.561 258.826 201.832C258.754 201.561 258.718 201.291 258.664 201.012C258.604 200.709 258.632 200.397 258.745 200.11C258.875 199.805 259.092 199.546 259.37 199.364C259.648 199.183 259.973 199.088 260.304 199.091C260.521 199.086 260.733 199.027 260.92 198.918C261.108 198.809 261.265 198.655 261.377 198.469C261.494 198.255 261.565 198.019 261.584 197.775C261.639 197.496 261.675 197.225 261.747 196.946Z" fill="white"/>
<path d="M290.27 134.571C290.414 134.328 290.585 134.112 290.738 133.877C290.904 133.617 291.142 133.41 291.423 133.282C291.722 133.152 292.052 133.113 292.372 133.169C292.693 133.225 292.99 133.374 293.226 133.598C293.379 133.755 293.569 133.871 293.779 133.936C293.988 134 294.211 134.011 294.425 133.967C294.657 133.912 294.873 133.804 295.056 133.652C295.291 133.49 295.507 133.327 295.76 133.183C295.615 133.436 295.444 133.652 295.291 133.886C295.117 134.142 294.873 134.343 294.588 134.463C294.283 134.581 293.95 134.608 293.63 134.54C293.31 134.473 293.017 134.315 292.785 134.085C292.629 133.936 292.438 133.83 292.23 133.774C292.022 133.719 291.804 133.717 291.595 133.769C291.362 133.837 291.147 133.954 290.964 134.112C290.738 134.265 290.522 134.436 290.27 134.571Z" fill="white"/>
<path d="M268.172 154.593C268.307 154.35 268.478 154.133 268.632 153.899C268.763 153.692 268.938 153.518 269.146 153.388C269.354 153.259 269.588 153.177 269.831 153.15C270.074 153.124 270.321 153.152 270.551 153.233C270.782 153.314 270.992 153.446 271.165 153.62C271.315 153.778 271.503 153.895 271.712 153.958C271.921 154.021 272.142 154.029 272.355 153.98C272.59 153.928 272.81 153.819 272.995 153.665C273.218 153.499 273.45 153.346 273.689 153.205C273.545 153.448 273.382 153.665 273.229 153.899C273.091 154.101 272.91 154.27 272.699 154.392C272.487 154.515 272.251 154.589 272.008 154.609C271.764 154.629 271.519 154.594 271.29 154.507C271.062 154.42 270.856 154.283 270.687 154.106C270.533 153.956 270.342 153.848 270.133 153.792C269.925 153.737 269.706 153.737 269.497 153.791C269.265 153.858 269.049 153.975 268.866 154.133C268.632 154.287 268.415 154.458 268.172 154.593Z" fill="white"/>
<path d="M253.191 184.09C253.336 183.838 253.507 183.621 253.66 183.396C253.791 183.189 253.967 183.015 254.175 182.885C254.382 182.756 254.616 182.674 254.86 182.648C255.103 182.621 255.349 182.649 255.58 182.73C255.811 182.811 256.02 182.943 256.193 183.117C256.345 183.273 256.533 183.388 256.742 183.451C256.95 183.514 257.171 183.523 257.383 183.477C257.619 183.425 257.838 183.316 258.023 183.162C258.246 182.996 258.478 182.843 258.718 182.702C258.573 182.945 258.411 183.162 258.258 183.396C258.121 183.598 257.94 183.766 257.73 183.889C257.519 184.012 257.284 184.086 257.041 184.106C256.798 184.126 256.553 184.091 256.326 184.004C256.098 183.917 255.893 183.78 255.725 183.603C255.569 183.452 255.377 183.344 255.167 183.288C254.956 183.233 254.736 183.233 254.526 183.288C254.292 183.348 254.076 183.462 253.895 183.621C253.66 183.784 253.408 183.946 253.191 184.09Z" fill="white"/>
<path d="M259.664 214.732C259.808 214.489 259.98 214.273 260.133 214.038C260.299 213.778 260.537 213.571 260.818 213.443C261.117 213.315 261.446 213.277 261.766 213.333C262.086 213.389 262.383 213.537 262.621 213.759C262.771 213.917 262.96 214.033 263.168 214.098C263.376 214.163 263.598 214.173 263.811 214.128C264.047 214.072 264.266 213.961 264.451 213.804C264.676 213.651 264.893 213.488 265.145 213.344C265.001 213.596 264.839 213.813 264.685 214.038C264.509 214.298 264.262 214.501 263.973 214.624C263.668 214.742 263.336 214.768 263.016 214.701C262.696 214.634 262.402 214.476 262.17 214.245C262.014 214.097 261.824 213.99 261.616 213.935C261.408 213.88 261.189 213.878 260.98 213.93C260.748 213.998 260.533 214.114 260.349 214.273C260.133 214.426 259.916 214.597 259.664 214.732Z" fill="white"/>
<path d="M288.648 181.052C288.784 180.809 288.955 180.593 289.108 180.358C289.277 180.1 289.514 179.894 289.793 179.763C290.098 179.626 290.436 179.582 290.766 179.639C291.095 179.695 291.4 179.848 291.641 180.079C291.792 180.237 291.98 180.354 292.188 180.418C292.397 180.483 292.618 180.493 292.831 180.448C293.065 180.392 293.284 180.284 293.471 180.133C293.697 179.98 293.913 179.808 294.166 179.664C294.021 179.917 293.859 180.133 293.706 180.367C293.531 180.626 293.283 180.827 292.994 180.944C292.689 181.064 292.356 181.092 292.035 181.025C291.715 180.957 291.421 180.798 291.191 180.566C291.033 180.417 290.841 180.311 290.631 180.256C290.422 180.2 290.202 180.199 289.992 180.25C289.759 180.318 289.544 180.435 289.361 180.593C289.108 180.746 288.892 180.917 288.648 181.052Z" fill="white"/>
<path d="M308.59 193.259C308.725 193.015 308.896 192.799 309.05 192.565C309.22 192.308 309.457 192.103 309.735 191.97C310.034 191.842 310.363 191.804 310.683 191.86C311.003 191.916 311.3 192.063 311.538 192.285C311.689 192.442 311.877 192.559 312.085 192.623C312.293 192.688 312.514 192.699 312.728 192.655C312.962 192.6 313.181 192.492 313.368 192.339C313.602 192.186 313.819 192.015 314.062 191.87C313.927 192.123 313.755 192.339 313.602 192.574C313.43 192.834 313.181 193.036 312.89 193.15C312.585 193.27 312.252 193.298 311.932 193.231C311.611 193.164 311.318 193.004 311.087 192.772C310.929 192.623 310.737 192.517 310.528 192.462C310.318 192.407 310.098 192.405 309.888 192.456C309.655 192.524 309.44 192.641 309.257 192.799C309.05 192.952 308.833 193.123 308.59 193.259Z" fill="white"/>
<path d="M275.043 202.526C275.178 202.282 275.349 202.066 275.503 201.831C275.669 201.571 275.907 201.364 276.188 201.236C276.492 201.099 276.831 201.056 277.16 201.112C277.489 201.168 277.794 201.321 278.036 201.552C278.186 201.71 278.375 201.827 278.583 201.891C278.791 201.956 279.013 201.966 279.226 201.922C279.462 201.865 279.681 201.754 279.866 201.597C280.091 201.444 280.308 201.282 280.56 201.137C280.416 201.39 280.254 201.606 280.1 201.831C279.926 202.093 279.678 202.297 279.388 202.417C279.083 202.537 278.75 202.565 278.43 202.498C278.11 202.431 277.816 202.271 277.585 202.039C277.428 201.89 277.235 201.784 277.026 201.729C276.816 201.674 276.596 201.672 276.386 201.723C276.154 201.791 275.938 201.908 275.755 202.066C275.503 202.219 275.286 202.39 275.043 202.526Z" fill="white"/>
<path d="M318.316 214.732C318.461 214.489 318.623 214.272 318.776 214.038C318.944 213.78 319.182 213.573 319.461 213.443C319.766 213.306 320.104 213.262 320.434 213.318C320.763 213.375 321.068 213.528 321.309 213.759C321.46 213.916 321.649 214.032 321.857 214.097C322.065 214.161 322.286 214.172 322.499 214.128C322.734 214.074 322.953 213.966 323.139 213.813C323.374 213.65 323.59 213.488 323.834 213.344C323.698 213.596 323.527 213.813 323.374 214.047C323.2 214.303 322.956 214.503 322.671 214.624C322.366 214.743 322.033 214.77 321.713 214.703C321.393 214.635 321.099 214.477 320.868 214.245C320.711 214.098 320.521 213.991 320.313 213.936C320.105 213.881 319.887 213.879 319.678 213.93C319.442 213.995 319.223 214.112 319.038 214.272C318.767 214.426 318.551 214.597 318.316 214.732Z" fill="white"/>
<path d="M323.191 181.747C323.327 181.494 323.498 181.278 323.651 181.043C323.822 180.787 324.059 180.582 324.336 180.448C324.641 180.311 324.979 180.268 325.309 180.324C325.638 180.38 325.943 180.533 326.184 180.764C326.335 180.921 326.524 181.037 326.732 181.102C326.94 181.167 327.161 181.178 327.374 181.134C327.609 181.079 327.828 180.971 328.014 180.818C328.249 180.665 328.465 180.493 328.709 180.349C328.573 180.602 328.402 180.818 328.249 181.052C328.076 181.313 327.828 181.515 327.537 181.629C327.232 181.749 326.899 181.777 326.578 181.71C326.258 181.643 325.964 181.483 325.734 181.251C325.577 181.103 325.387 180.997 325.179 180.942C324.971 180.887 324.753 180.884 324.544 180.935C324.308 181 324.089 181.117 323.904 181.278C323.651 181.44 323.435 181.611 323.191 181.747Z" fill="white"/>
<path d="M244.168 206.754C244.312 206.501 244.474 206.285 244.628 206.051C244.798 205.794 245.035 205.589 245.313 205.456C245.617 205.318 245.956 205.275 246.285 205.331C246.614 205.387 246.919 205.541 247.161 205.771C247.312 205.928 247.5 206.045 247.708 206.109C247.916 206.174 248.137 206.185 248.351 206.141C248.586 206.086 248.805 205.978 248.991 205.825C249.225 205.672 249.442 205.501 249.685 205.357C249.55 205.609 249.379 205.825 249.225 206.06C249.054 206.318 248.809 206.519 248.522 206.637C248.217 206.755 247.885 206.783 247.564 206.715C247.244 206.648 246.951 206.489 246.719 206.258C246.563 206.11 246.372 206.004 246.164 205.95C245.956 205.897 245.737 205.897 245.529 205.952C245.292 206.01 245.073 206.124 244.889 206.285C244.628 206.438 244.393 206.61 244.168 206.754Z" fill="white"/>
<path d="M241.688 155.288C241.823 155.044 241.994 154.828 242.147 154.593C242.317 154.334 242.554 154.126 242.832 153.989C243.138 153.853 243.477 153.811 243.806 153.869C244.135 153.927 244.44 154.082 244.68 154.314C244.831 154.472 245.019 154.588 245.228 154.651C245.436 154.714 245.658 154.722 245.87 154.675C246.108 154.628 246.329 154.519 246.51 154.359C246.745 154.206 246.961 154.035 247.205 153.899C247.064 154.139 246.91 154.371 246.745 154.593C246.572 154.852 246.327 155.056 246.042 155.179C245.737 155.298 245.404 155.325 245.084 155.258C244.764 155.191 244.47 155.032 244.239 154.801C244.084 154.651 243.893 154.543 243.685 154.488C243.477 154.433 243.258 154.432 243.049 154.485C242.813 154.551 242.594 154.668 242.409 154.828C242.156 154.981 241.94 155.152 241.688 155.288Z" fill="white"/>
<path d="M271.101 86.6211C270.767 88.3069 263.159 99.4043 255.514 99.3051C253.026 99.2601 252.629 85.6655 252.629 85.6655L252.368 84.6739L248.762 70.7188L264.925 59.5673L267.269 58.0889C267.269 58.0889 268 61.9743 268.874 66.8153C268.874 67.0407 268.955 67.2661 268.991 67.5095C269.027 67.7529 269.108 68.0323 269.144 68.2938C269.289 69.015 269.424 69.7542 269.55 70.4934C269.649 71.0523 269.739 71.5932 269.821 72.1882C269.902 72.7832 269.992 73.3602 270.091 73.9912C270.715 78.1733 271.052 82.3931 271.101 86.6211Z" fill="#FFAC92"/>
<path d="M268.874 66.8153C267.583 70.8112 265.437 74.4782 262.587 77.562C259.737 80.6459 256.25 83.0726 252.368 84.6739L248.762 70.7188L264.925 59.5673L267.269 58.0889C267.269 58.0889 268 61.9743 268.874 66.8153Z" fill="#263238"/>
<path d="M228.951 49.9932C228.284 75.289 243.375 78.5434 248.784 78.6787C253.733 78.8049 270.609 78.6065 273.891 53.518C277.172 28.4294 265.615 20.1627 254.31 19.2613C243.005 18.3598 229.618 24.6973 228.951 49.9932Z" fill="#FFAC92"/>
<path d="M232.789 42.3399C233.384 42.2408 233.907 42.0605 234.484 41.9072C235.1 41.832 235.675 41.5601 236.124 41.1319C236.239 40.9694 236.297 40.7733 236.289 40.5743C236.281 40.3754 236.207 40.1847 236.079 40.0321C235.779 39.7703 235.415 39.593 235.023 39.5186C234.632 39.4441 234.228 39.4751 233.853 39.6084C233.054 39.7594 232.34 40.203 231.851 40.8525C231.749 41.0073 231.693 41.1884 231.691 41.374C231.689 41.5596 231.741 41.7419 231.84 41.8989C231.939 42.0559 232.081 42.1811 232.249 42.2593C232.418 42.3375 232.605 42.3655 232.789 42.3399Z" fill="#263238"/>
<path d="M249.704 46.0358C249.122 45.9719 248.544 45.8755 247.973 45.7473C247.355 45.7305 246.76 45.512 246.278 45.1253C246.149 44.9737 246.073 44.7835 246.064 44.5846C246.054 44.3856 246.11 44.189 246.224 44.0254C246.5 43.7374 246.847 43.5279 247.23 43.4186C247.614 43.3092 248.019 43.304 248.406 43.4034C249.215 43.4866 249.964 43.8692 250.506 44.4762C250.624 44.6203 250.698 44.7959 250.718 44.9812C250.737 45.1666 250.702 45.3537 250.617 45.5194C250.532 45.6852 250.4 45.8224 250.238 45.9142C250.075 46.0059 249.89 46.0482 249.704 46.0358Z" fill="#263238"/>
<path d="M236.521 50.5706C236.521 50.5075 236.395 50.6607 236.395 50.7328C236.566 52.4457 236.476 54.438 234.962 55.1141C234.907 55.1141 234.962 55.2223 234.962 55.2132C236.855 54.8166 236.954 52.1662 236.521 50.5706Z" fill="#263238"/>
<path d="M234.863 48.8755C232.086 48.8755 232.24 54.4107 234.818 54.4377C237.396 54.4647 237.18 48.9025 234.863 48.8755Z" fill="#263238"/>
<path d="M233.72 49.2811C233.287 49.5876 232.873 50.1285 232.341 50.1826C231.809 50.2366 231.268 49.6507 230.862 49.0827C230.862 49.0286 230.781 49.0827 230.781 49.1458C230.781 50.2096 231.169 51.3094 232.188 51.4807C233.206 51.652 233.783 50.7144 233.991 49.6777C234.054 49.4523 233.891 49.1548 233.72 49.2811Z" fill="#263238"/>
<path d="M247.838 65.2917C247.414 65.6794 246.982 66.1932 246.351 66.2563C245.721 66.2145 245.107 66.0426 244.548 65.7515C244.535 65.7455 244.521 65.7437 244.508 65.7463C244.495 65.7489 244.482 65.7558 244.473 65.766C244.464 65.7762 244.458 65.7891 244.457 65.8027C244.456 65.8163 244.459 65.83 244.467 65.8416C244.702 66.1905 245.027 66.4688 245.408 66.6466C245.789 66.8245 246.212 66.8953 246.63 66.8513C246.986 66.7758 247.312 66.5941 247.563 66.3302C247.814 66.0662 247.979 65.7325 248.037 65.3729C248 65.2737 247.901 65.2376 247.838 65.2917Z" fill="#263238"/>
<path d="M239.22 58.3773C239.22 58.3773 239.021 60.9556 239.084 62.1636C241.445 62.034 243.813 62.2404 246.116 62.7766C246.657 62.9209 246.621 62.4791 246.008 62.1546C244.182 61.2031 242.113 60.8201 240.067 61.0548C239.959 60.7212 240.455 57.0882 240.265 57.0882C239.333 57.225 238.424 57.4858 237.561 57.8635C237.831 52.4545 238.967 47.1898 239.156 41.8259C239.159 41.7866 239.147 41.7477 239.123 41.7165C239.099 41.6852 239.065 41.6637 239.026 41.656C238.988 41.6483 238.948 41.6548 238.913 41.6745C238.879 41.6942 238.854 41.7255 238.841 41.7628C237.254 47.2349 236.803 53.4191 236.38 58.9723C236.326 59.6575 238.751 58.6117 239.22 58.3773Z" fill="#263238"/>
<path d="M251.251 50.6602C250.239 50.2632 249.131 50.1754 248.069 50.4078C247.5 50.5372 246.961 50.776 246.482 51.1109C245.989 51.479 245.586 51.9536 245.301 52.4992L244.77 53.4819L245.86 53.3647C246.627 53.2834 247.401 53.2834 248.168 53.3647C248.969 53.4346 249.738 53.7077 250.404 54.158C249.968 53.3616 249.236 52.7689 248.366 52.5082C247.519 52.2282 246.623 52.1269 245.734 52.2108L246.293 53.1122C246.76 52.3299 247.478 51.7292 248.33 51.4084C249.269 51.0387 250.25 50.7874 251.251 50.6602Z" fill="#263238"/>
<path d="M248.126 55.1409C247.309 54.9493 246.524 54.646 245.791 54.2394C245.619 54.1313 244.961 53.6354 244.997 53.4912C245.09 53.072 245.236 52.6662 245.43 52.2832C245.127 52.6236 244.897 53.0224 244.754 53.4551C244.804 53.6935 244.906 53.9178 245.053 54.1125C245.199 54.3072 245.386 54.4675 245.601 54.582C246.376 54.9937 247.249 55.1869 248.126 55.1409Z" fill="#263238"/>
<path d="M242.141 61.9834C242.141 61.9834 243.709 64.2371 245.512 64.5076C247.586 64.8321 247.829 62.966 245.512 61.9023C244.34 61.3523 242.141 61.9834 242.141 61.9834Z" fill="#263238"/>
<path d="M245.5 64.5526C244.715 64.3895 243.992 64.0047 243.418 63.4438C243.851 62.8037 244.842 62.0916 247.069 63.2906C247.394 64.0478 246.817 64.7149 245.5 64.5526Z" fill="#FF99BA"/>
<path d="M273.734 54.1221C269.569 54.645 268.181 45.9275 268.181 45.9275C268.181 45.9275 259.689 46.3603 256.29 34.2803C256.712 37.9298 258.191 41.3765 260.546 44.1967C260.546 44.1967 245.482 43.2952 238.567 31.098C238.567 31.098 241.398 37.3634 243.868 39.5179C243.868 39.5179 237.494 38.0756 234.186 33.1173C234.186 33.1173 231.914 40.4825 229.994 42.583C229.994 42.583 229.336 16.3406 253.757 17.9452C253.757 17.9452 269.011 18.2157 275.06 29.9892C281.109 41.7627 273.734 54.1221 273.734 54.1221Z" fill="#263238"/>
<path d="M269.843 55.3482C269.843 55.3482 274.883 47.1356 278.579 48.8845C282.275 50.6334 278.813 62.3167 274.711 64.1287C274.201 64.3986 273.642 64.5623 273.067 64.6101C272.492 64.6578 271.913 64.5887 271.365 64.4067C270.818 64.2247 270.313 63.9338 269.881 63.5514C269.449 63.1689 269.099 62.7029 268.852 62.1815L269.843 55.3482Z" fill="#FFAC92"/>
<path d="M277.505 52.2109C277.568 52.2109 277.586 52.2921 277.505 52.3191C274.629 53.6894 273.25 56.5111 272.331 59.4139C273.142 58.269 274.296 57.6109 275.819 58.5124C275.901 58.5575 275.819 58.6837 275.747 58.6746C275.221 58.5395 274.665 58.572 274.158 58.7675C273.65 58.963 273.216 59.3118 272.917 59.7655C272.412 60.5211 271.995 61.3316 271.673 62.1814C271.546 62.4519 271.069 62.3437 271.15 62.0372C271.145 62.0135 271.145 61.9889 271.15 61.9651C270.897 58.2419 273.494 52.833 277.505 52.2109Z" fill="#263238"/>
<path d="M272.338 62.8126C272.351 63.046 272.433 63.2703 272.574 63.4572C272.714 63.644 272.907 63.785 273.128 63.8621C273.348 63.9393 273.587 63.9492 273.813 63.8907C274.04 63.8321 274.243 63.7077 274.399 63.5331C274.555 63.3586 274.655 63.1418 274.687 62.9103C274.719 62.6787 274.682 62.4428 274.58 62.2324C274.478 62.022 274.316 61.8466 274.114 61.7284C273.913 61.6102 273.68 61.5546 273.447 61.5685C273.292 61.5765 273.141 61.6152 273.001 61.6822C272.861 61.7493 272.736 61.8434 272.633 61.9591C272.53 62.0748 272.451 62.2098 272.4 62.3563C272.35 62.5028 272.329 62.6579 272.338 62.8126Z" fill="white"/>
<path d="M275.169 60.8561C275.177 61.006 275.229 61.1503 275.318 61.2707C275.408 61.3911 275.531 61.4822 275.672 61.5324C275.814 61.5826 275.967 61.5897 276.112 61.5527C276.258 61.5157 276.389 61.4363 276.489 61.3246C276.589 61.213 276.654 61.0741 276.675 60.9255C276.697 60.7769 276.673 60.6254 276.608 60.4902C276.543 60.355 276.439 60.2422 276.31 60.1661C276.18 60.09 276.031 60.0541 275.882 60.0628C275.782 60.0674 275.685 60.0917 275.596 60.1342C275.506 60.1767 275.426 60.2366 275.359 60.3104C275.293 60.3842 275.242 60.4705 275.21 60.5642C275.177 60.6579 275.163 60.7571 275.169 60.8561Z" fill="white"/>
<path d="M193.135 110.056L180.043 113.098L189.46 153.631L202.553 150.589L193.135 110.056Z" fill="#65C17E"/>
<path d="M161.221 2.46666C150.283 5.01157 140.344 10.7424 132.662 18.9346C124.98 27.1269 119.899 37.4128 118.062 48.4921C116.225 59.5715 117.714 70.9468 122.34 81.1802C126.967 91.4136 134.523 100.046 144.055 105.985C153.586 111.924 164.665 114.905 175.89 114.549C187.115 114.193 197.983 110.517 207.119 103.986C216.255 97.4553 223.25 88.3622 227.219 77.8564C231.189 67.3506 231.954 55.9038 229.419 44.963C227.735 37.6931 224.634 30.8264 220.294 24.7554C215.954 18.6845 210.461 13.5283 204.127 9.58165C197.793 5.635 190.744 2.97523 183.382 1.7544C176.02 0.533566 168.49 0.775602 161.221 2.46666ZM184.227 101.514C175.585 103.524 166.54 102.926 158.237 99.7951C149.935 96.6643 142.747 91.1416 137.584 83.9254C132.42 76.7092 129.513 68.1237 129.229 59.255C128.946 50.3862 131.299 41.6326 135.991 34.1013C140.683 26.5701 147.503 20.5995 155.589 16.9449C163.675 13.2903 172.663 12.1157 181.416 13.5699C190.169 15.024 198.295 19.0415 204.765 25.1141C211.234 31.1867 215.758 39.0417 217.763 47.6855C220.45 59.2704 218.427 71.4483 212.138 81.5421C205.85 91.6359 195.811 98.8195 184.227 101.514Z" fill="#65C17E"/>
<path d="M197.603 139.119L188.822 141.159C185.781 141.865 183.889 144.903 184.596 147.944L195.827 196.283C196.533 199.324 199.571 201.216 202.612 200.51L211.393 198.47C214.433 197.763 216.326 194.725 215.619 191.685L204.388 143.345C203.682 140.304 200.644 138.412 197.603 139.119Z" fill="#65C17E"/>
<g opacity="0.3">
<path d="M217.762 47.6677C219.766 56.308 219.162 65.3486 216.029 73.6462C212.895 81.9439 207.371 89.126 200.156 94.2845C192.94 99.443 184.357 102.346 175.492 102.627C166.627 102.908 157.877 100.554 150.35 95.8625C142.823 91.1711 136.855 84.353 133.202 76.2704C129.55 68.1877 128.376 59.2035 129.829 50.4536C131.281 41.7037 135.296 33.5811 141.365 27.1128C147.434 20.6445 155.285 16.1209 163.924 14.1141C169.663 12.78 175.608 12.5897 181.419 13.5542C187.231 14.5186 192.796 16.6189 197.796 19.735C202.796 22.851 207.132 26.9218 210.558 31.7146C213.984 36.5075 216.432 41.9284 217.762 47.6677Z" fill="white"/>
<path d="M218.862 60.3066C218.2 72.1136 212.904 83.182 204.126 91.1059C195.348 99.0298 183.797 103.169 171.984 102.623L218.862 60.3066Z" fill="#EBEBEB"/>
<path d="M198.224 20.0185L134.011 77.9755C132.414 74.7929 131.203 71.4305 130.405 67.9599C129.471 63.9837 129.095 59.8968 129.287 55.8168L176.697 13.0229C184.353 13.4734 191.766 15.8822 198.224 20.0185Z" fill="#EBEBEB"/>
<path d="M216.524 43.3675L155.357 98.5659C152.684 97.3376 150.139 95.849 147.758 94.1216L212.891 35.3442C214.371 37.8885 215.588 40.5768 216.524 43.3675Z" fill="#EBEBEB"/>
<path d="M203.156 23.6791L137.112 83.2677C136.806 82.817 136.499 82.3663 136.211 81.9065L201.876 22.6514C202.326 22.9759 202.75 23.3095 203.156 23.6791Z" fill="#EBEBEB"/>
<path d="M161.744 14.6821L132.445 41.1139C132.941 39.8608 133.5 38.6348 134.113 37.4448L157.94 15.9352C159.175 15.4755 160.446 15.0517 161.744 14.6821Z" fill="#EBEBEB"/>
</g>
<path d="M142.234 65.5711C142.23 65.511 142.23 65.4508 142.234 65.3907C142.072 64.4893 142.351 66.2472 142.234 65.6612C142.117 65.0752 142.054 64.2729 141.999 63.5788C141.792 61.1311 141.792 58.6702 141.999 56.2226C141.999 55.871 142.063 55.5284 142.09 55.1859C142.09 55.0777 141.99 55.9972 142.09 55.267L142.171 54.6359C142.279 53.8246 142.414 53.0133 142.576 52.2109C142.918 50.442 143.379 48.6982 143.956 46.9913C144.091 46.5856 144.244 46.1799 144.388 45.7743C144.578 45.2244 144.136 46.3783 144.433 45.6571L144.731 44.9449C145.119 44.0434 145.542 43.1419 145.993 42.2404C146.444 41.3389 147.03 40.3743 147.598 39.4818C147.868 39.0672 148.139 38.6615 148.418 38.2558C148.896 37.5617 148.193 38.5353 148.562 38.0485L149.094 37.3453C150.736 35.2816 152.571 33.3798 154.575 31.6659C154.575 31.6659 154.99 31.3323 154.683 31.5848C154.377 31.8372 154.846 31.4495 154.9 31.4045L155.801 30.6923C156.405 30.2415 157.018 29.7908 157.649 29.3941C158.971 28.5106 160.337 27.6952 161.742 26.9511C162.119 26.7143 162.445 26.4057 162.702 26.0429C162.959 25.6801 163.142 25.2702 163.241 24.8365C163.34 24.4029 163.352 23.9541 163.278 23.5157C163.203 23.0772 163.043 22.6578 162.806 22.2814C162.569 21.9049 162.261 21.5787 161.898 21.3215C161.535 21.0643 161.125 20.8811 160.691 20.7823C160.258 20.6836 159.809 20.6712 159.37 20.7458C158.932 20.8205 158.513 20.9808 158.136 21.2176C149.229 25.9685 141.909 33.4689 138.231 42.9255C135.741 49.2851 134.679 56.1143 135.121 62.9297C135.211 64.4435 135.404 65.9495 135.698 67.4371C135.955 68.2952 136.541 69.0168 137.328 69.4441C138.115 69.8715 139.039 69.9699 139.899 69.7179C140.744 69.4396 141.452 68.8486 141.876 68.066C142.3 67.2833 142.408 66.3682 142.18 65.5079L142.234 65.5711Z" fill="white"/>
<path d="M145.229 75.163C145.415 75.7918 145.411 76.4618 145.217 77.0884C145.023 77.7149 144.647 78.2698 144.138 78.6829C143.628 79.0961 143.008 79.349 142.355 79.4096C141.702 79.4703 141.045 79.3359 140.468 79.0236C139.892 78.7113 139.42 78.235 139.114 77.6549C138.808 77.0748 138.681 76.417 138.748 75.7646C138.816 75.1122 139.075 74.4944 139.494 73.9894C139.912 73.4844 140.471 73.1148 141.1 72.9273C141.518 72.8014 141.956 72.7594 142.39 72.8038C142.825 72.8481 143.246 72.9779 143.629 73.1858C144.013 73.3936 144.352 73.6753 144.627 74.0146C144.901 74.3539 145.106 74.7442 145.229 75.163Z" fill="white"/>
<path d="M288.681 103.587C296.795 132.922 300.689 162.374 296.2 177.564C293.333 187.246 286.418 193.791 282.019 195.954C271.733 201.039 237.612 193.827 215.381 189.355C209.918 188.255 222.8 144.236 228.29 146.57C236.404 150.005 261.24 154.639 261.925 154.864C263.394 155.369 266.432 123.537 268.578 104.876C271.544 78.8773 284.002 86.6482 288.681 103.587Z" fill="#FFAC92"/>
<path d="M172.663 138.186C170.247 142.126 173.384 145.732 173.384 145.732C171.325 146.762 169.692 148.481 168.769 150.591C167.317 154.377 172.618 158.317 172.618 158.317C170.705 159.829 169.294 161.884 168.57 164.212C167.543 167.981 172.33 172.714 172.33 172.714C171.341 175.073 171.235 177.71 172.032 180.142C174.421 186.551 184.653 188.652 191.144 190.058C197.635 191.465 217.359 189.337 221.163 189.319L230.494 147.733C230.494 147.733 203.17 133.174 195.336 132.615C188.674 132.164 175.377 133.769 172.663 138.186Z" fill="#FFAC92"/>
<path d="M173.818 145.128C181.03 143.947 188.116 144.938 195.283 145.524C195.316 145.524 195.348 145.538 195.372 145.561C195.396 145.585 195.409 145.617 195.409 145.651C195.409 145.684 195.396 145.716 195.372 145.74C195.348 145.763 195.316 145.777 195.283 145.777C188.152 145.11 180.985 145.858 173.854 145.479C173.813 145.475 173.774 145.457 173.745 145.428C173.715 145.398 173.697 145.36 173.692 145.318C173.688 145.277 173.698 145.235 173.721 145.2C173.744 145.166 173.778 145.14 173.818 145.128Z" fill="#263238"/>
<path d="M172.877 157.803C174.531 157.688 176.192 157.794 177.817 158.118C179.554 158.347 181.288 158.605 183.019 158.894C186.487 159.495 189.936 160.159 193.368 160.886C193.521 160.886 193.512 161.156 193.368 161.129C189.906 160.561 186.445 160.048 182.974 159.624C181.234 159.407 179.494 159.218 177.745 159.029C176.091 158.962 174.449 158.711 172.85 158.281C172.801 158.261 172.759 158.226 172.731 158.182C172.702 158.137 172.689 158.085 172.692 158.032C172.695 157.979 172.714 157.929 172.748 157.888C172.781 157.846 172.826 157.817 172.877 157.803Z" fill="#263238"/>
<path d="M172.47 172.732C173.876 172.488 175.517 172.993 176.905 173.254C178.483 173.552 180.051 173.831 181.629 174.111C184.784 174.67 187.939 175.22 191.113 175.67C191.266 175.67 191.248 175.941 191.113 175.914C187.885 175.481 184.658 175.084 181.44 174.625C179.862 174.399 178.275 174.156 176.698 173.912C175.355 173.705 173.66 173.597 172.461 172.894C172.446 172.886 172.434 172.873 172.425 172.859C172.417 172.844 172.413 172.827 172.414 172.81C172.415 172.793 172.421 172.777 172.431 172.763C172.441 172.749 172.454 172.738 172.47 172.732Z" fill="#263238"/>
<path d="M181.566 133.877C178.294 134.301 174.543 135.022 172.425 137.808C171.445 138.99 170.964 140.506 171.082 142.036C171.268 143.465 171.99 144.77 173.101 145.687C171.793 146.108 170.63 146.89 169.747 147.943C168.864 148.995 168.295 150.276 168.107 151.637C168.052 152.318 168.138 153.004 168.36 153.651C168.581 154.297 168.934 154.892 169.396 155.396C169.847 155.928 170.36 156.397 170.856 156.883C171.352 157.37 171.902 157.785 172.416 158.209C171.86 158.643 171.339 159.119 170.856 159.633C170.315 160.153 169.829 160.727 169.405 161.346C168.527 162.572 168.032 164.031 167.98 165.538C168.055 167.035 168.577 168.476 169.477 169.676C170.209 170.915 171.241 171.951 172.479 172.687C172.494 172.694 172.512 172.696 172.529 172.691C172.545 172.687 172.56 172.677 172.57 172.663C172.579 172.649 172.584 172.631 172.582 172.614C172.58 172.597 172.573 172.581 172.56 172.569C171.587 171.681 170.762 170.644 170.117 169.495C169.337 168.27 168.91 166.854 168.882 165.403C169.001 164.026 169.466 162.702 170.234 161.553C170.616 160.93 171.031 160.328 171.478 159.75C171.923 159.277 172.339 158.778 172.722 158.254C172.722 158.254 171.65 157.118 171.271 156.631C170.892 156.144 170.523 155.621 170.18 155.089C169.454 154.08 169.133 152.835 169.279 151.601C169.491 150.448 170.015 149.376 170.793 148.5C171.55 147.598 172.533 146.886 173.326 146.002C173.355 145.956 173.373 145.903 173.381 145.849C173.389 145.795 173.386 145.74 173.371 145.687C171.568 142.874 171.794 140.206 173.723 138.123C174.706 137.114 175.856 136.281 177.122 135.662C178.579 135 180.086 134.454 181.629 134.031C181.692 134.022 181.665 133.868 181.566 133.877Z" fill="#263238"/>
<path d="M241.337 194.448C239.417 193.853 237.389 193.547 235.424 193.114C233.458 192.681 231.475 192.276 229.492 191.879C227.509 191.482 225.444 191.086 223.425 190.707C221.405 190.328 219.521 189.905 217.556 189.67C215.659 189.487 213.746 189.529 211.859 189.797C209.953 190.013 208.042 190.166 206.125 190.256C202.263 190.443 198.392 190.358 194.541 190.004C190.184 189.599 185.869 188.83 181.641 187.705C181.55 187.705 181.523 187.813 181.641 187.84C188.972 190.288 196.657 191.506 204.385 191.446C206.296 191.446 208.217 191.329 210.119 191.14C212.019 190.87 213.933 190.707 215.852 190.653C217.881 190.787 219.895 191.088 221.874 191.554C223.866 191.924 225.85 192.303 227.842 192.654C230.096 193.051 232.35 193.457 234.612 193.808C236.875 194.16 239.12 194.665 241.337 194.827C241.5 194.791 241.509 194.493 241.337 194.448Z" fill="#263238"/>
<path d="M269.334 156.685C266.45 155.703 263.403 155.09 260.437 154.378C257.471 153.665 254.469 152.98 251.485 152.304C245.787 151.015 240.018 149.924 234.356 148.347C232.869 147.932 231.4 147.445 229.948 146.958C229.218 146.697 228.506 146.408 227.794 146.057C227.081 145.705 226.261 145.489 225.558 145.155C225.477 145.101 225.414 145.227 225.495 145.281C226.063 145.633 226.586 146.057 227.172 146.399C227.758 146.742 228.47 147.084 229.137 147.391C230.356 147.948 231.605 148.439 232.878 148.86C235.528 149.762 238.287 150.384 240.991 151.015C246.941 152.376 252.9 153.719 258.868 155.009C260.545 155.369 262.231 155.73 263.916 156.063C265.602 156.397 267.441 156.812 269.226 157.01C269.268 157.022 269.314 157.017 269.352 156.996C269.391 156.975 269.42 156.941 269.434 156.899C269.448 156.857 269.445 156.812 269.427 156.772C269.408 156.733 269.375 156.701 269.334 156.685Z" fill="#263238"/>
<path d="M259.949 145.777L301.183 151.384C301.183 151.384 293.647 108.518 285.633 94.3198C277.727 80.3106 269 89.5689 265.674 106.517C261.941 125.304 259.949 145.777 259.949 145.777Z" fill="#37474F"/>
<path d="M298.096 145.173C296.942 144.902 295.761 144.731 294.607 144.479C293.453 144.226 292.344 144.055 291.208 143.875C288.892 143.514 286.566 143.189 284.24 142.874C279.66 142.243 275.09 141.549 270.492 141.071C267.878 140.782 265.272 140.395 262.658 140.169C262.639 140.169 262.621 140.177 262.607 140.191C262.594 140.204 262.586 140.222 262.586 140.242C262.586 140.261 262.594 140.279 262.607 140.293C262.621 140.306 262.639 140.314 262.658 140.314C267.211 141.377 271.853 142.171 276.469 142.919C281.085 143.667 285.628 144.37 290.226 144.875C291.515 145.01 292.804 145.182 294.102 145.245C295.4 145.308 296.762 145.425 298.087 145.452C298.124 145.453 298.16 145.44 298.187 145.414C298.214 145.389 298.23 145.354 298.231 145.317C298.232 145.28 298.219 145.244 298.193 145.217C298.168 145.19 298.133 145.174 298.096 145.173Z" fill="#263238"/>
</svg>
