<svg width="23" height="23" viewBox="0 0 23 23" fill="none" xmlns="http://www.w3.org/2000/svg">
<g clip-path="url(#clip0_1706_162537)">
<path d="M18.2096 22.9999H13.4179C12.1475 22.9984 10.9296 22.4931 10.0314 21.5948C9.13308 20.6965 8.62776 19.4786 8.62623 18.2082V13.4166C8.62776 12.1462 9.13308 10.9283 10.0314 10.03C10.9296 9.13175 12.1475 8.62643 13.4179 8.6249H18.2096C19.4799 8.62643 20.6978 9.13175 21.5961 10.03C22.4944 10.9283 22.9997 12.1462 23.0012 13.4166V18.2082C22.9997 19.4786 22.4944 20.6965 21.5961 21.5948C20.6978 22.4931 19.4799 22.9984 18.2096 22.9999ZM13.4179 10.5416C12.6554 10.5416 11.9241 10.8445 11.385 11.3836C10.8458 11.9228 10.5429 12.6541 10.5429 13.4166V18.2082C10.5429 18.9707 10.8458 19.702 11.385 20.2412C11.9241 20.7803 12.6554 21.0832 13.4179 21.0832H18.2096C18.9721 21.0832 19.7033 20.7803 20.2425 20.2412C20.7817 19.702 21.0846 18.9707 21.0846 18.2082V13.4166C21.0846 12.6541 20.7817 11.9228 20.2425 11.3836C19.7033 10.8445 18.9721 10.5416 18.2096 10.5416H13.4179ZM13.4179 12.4582C13.2284 12.4582 13.0431 12.5144 12.8855 12.6197C12.7279 12.725 12.6051 12.8747 12.5325 13.0498C12.46 13.2249 12.441 13.4176 12.478 13.6035C12.515 13.7894 12.6062 13.9602 12.7403 14.0942C12.8743 14.2282 13.045 14.3195 13.2309 14.3565C13.4168 14.3935 13.6095 14.3745 13.7846 14.302C13.9598 14.2294 14.1094 14.1066 14.2147 13.949C14.32 13.7914 14.3762 13.6061 14.3762 13.4166C14.3762 13.1624 14.2753 12.9187 14.0955 12.7389C13.9158 12.5592 13.6721 12.4582 13.4179 12.4582ZM18.2096 17.2499C18.02 17.2499 17.8347 17.3061 17.6771 17.4114C17.5196 17.5167 17.3967 17.6664 17.3242 17.8415C17.2516 18.0166 17.2327 18.2093 17.2696 18.3952C17.3066 18.5811 17.3979 18.7519 17.5319 18.8859C17.666 19.0199 17.8367 19.1112 18.0226 19.1482C18.2085 19.1851 18.4012 19.1662 18.5763 19.0936C18.7514 19.0211 18.9011 18.8983 19.0064 18.7407C19.1117 18.5831 19.1679 18.3978 19.1679 18.2082C19.1679 17.9541 19.0669 17.7103 18.8872 17.5306C18.7075 17.3509 18.4637 17.2499 18.2096 17.2499ZM8.62623 6.70824C8.81577 6.70824 9.00106 6.65203 9.15866 6.54673C9.31625 6.44142 9.43909 6.29175 9.51162 6.11664C9.58415 5.94153 9.60313 5.74884 9.56615 5.56294C9.52918 5.37704 9.4379 5.20628 9.30388 5.07226C9.16985 4.93823 8.99909 4.84696 8.8132 4.80998C8.6273 4.77301 8.43461 4.79198 8.2595 4.86452C8.08438 4.93705 7.93471 5.05988 7.82941 5.21748C7.72411 5.37508 7.6679 5.56036 7.6679 5.7499C7.6679 6.00407 7.76887 6.24782 7.94859 6.42755C8.12831 6.60727 8.37207 6.70824 8.62623 6.70824ZM6.70957 8.6249C6.70957 8.43536 6.65336 8.25008 6.54806 8.09248C6.44276 7.93488 6.29308 7.81205 6.11797 7.73952C5.94286 7.66699 5.75017 7.64801 5.56427 7.68498C5.37837 7.72196 5.20761 7.81323 5.07359 7.94726C4.93956 8.08129 4.84829 8.25204 4.81131 8.43794C4.77434 8.62384 4.79331 8.81653 4.86585 8.99164C4.93838 9.16675 5.06121 9.31643 5.21881 9.42173C5.37641 9.52703 5.56169 9.58324 5.75123 9.58324C6.0054 9.58324 6.24916 9.48227 6.42888 9.30255C6.6086 9.12283 6.70957 8.87907 6.70957 8.6249ZM6.49873 15.1665C6.65758 14.9683 6.73125 14.7152 6.70358 14.4627C6.67591 14.2103 6.54915 13.9791 6.35115 13.82C6.2671 13.7516 6.18681 13.6786 6.11061 13.6015L2.7459 10.1908C2.21147 9.64735 1.9143 8.91417 1.91951 8.15197C1.92472 7.38977 2.23188 6.66073 2.77369 6.12461L6.18536 2.7599C6.72203 2.2277 7.4478 1.92996 8.20361 1.9319H8.22469C8.60233 1.9335 8.97591 2.00996 9.32382 2.15685C9.67173 2.30374 9.98705 2.51816 10.2516 2.78769L13.6096 6.19553C13.6642 6.25111 13.7159 6.30765 13.7658 6.36707C13.9295 6.5624 14.164 6.6847 14.4179 6.70708C14.6717 6.72945 14.9241 6.65006 15.1194 6.48638C15.3147 6.3227 15.4371 6.08813 15.4594 5.83427C15.4818 5.58041 15.4024 5.32806 15.2387 5.13274C15.1592 5.0369 15.0758 4.94682 14.9838 4.8529L11.6162 1.44219C11.1744 0.994158 10.6486 0.637542 10.0689 0.392707C9.48925 0.147872 8.86702 0.0196123 8.23777 0.0152518C7.60852 0.0108913 6.98458 0.130515 6.40156 0.367293C5.81855 0.604072 5.28788 0.953367 4.83986 1.39523L1.42819 4.75994C0.524978 5.65319 0.0128243 6.86815 0.00402161 8.13843C-0.00478105 9.40871 0.490485 10.6306 1.38123 11.5363L4.74594 14.9499C4.87382 15.0794 5.00918 15.2013 5.15132 15.315C5.24941 15.3939 5.36208 15.4526 5.48289 15.4879C5.6037 15.5233 5.73027 15.5344 5.85539 15.5208C5.98052 15.5072 6.10173 15.4691 6.21211 15.4086C6.3225 15.3481 6.41989 15.2665 6.49873 15.1684V15.1665Z"/>
</g>
<defs>
<clipPath id="clip0_1706_162537">
<rect width="23" height="23"/>
</clipPath>
</defs>
</svg>
