<svg width="22" height="22" viewBox="0 0 22 22" fill="none" xmlns="http://www.w3.org/2000/svg">
<rect y="1" width="20" height="20" rx="5" fill="#EB5757"/>
<path d="M10.096 12.528C9.59467 12.528 9.31733 12.2347 9.264 11.648L8.752 6.176C8.69867 5.70667 8.78933 5.32267 9.024 5.024C9.26933 4.72533 9.62667 4.576 10.096 4.576C10.5547 4.576 10.9013 4.72533 11.136 5.024C11.3707 5.32267 11.4613 5.70667 11.408 6.176L10.896 11.648C10.832 12.2347 10.5653 12.528 10.096 12.528ZM10.096 16.08C9.66933 16.08 9.328 15.952 9.072 15.696C8.82667 15.44 8.704 15.1093 8.704 14.704C8.704 14.3093 8.82667 13.9893 9.072 13.744C9.328 13.488 9.66933 13.36 10.096 13.36C10.5227 13.36 10.8533 13.488 11.088 13.744C11.3333 13.9893 11.456 14.3093 11.456 14.704C11.456 15.1093 11.3333 15.44 11.088 15.696C10.8533 15.952 10.5227 16.08 10.096 16.08Z" fill="white"/>
</svg>
