<svg width="14" height="14" viewBox="0 0 14 14" fill="none" xmlns="http://www.w3.org/2000/svg">
<path d="M6.625 8.875C6.8125 8.6875 6.8125 8.34375 6.625 8.15625L5.84375 7.375C5.65625 7.1875 5.3125 7.1875 5.125 7.375L2.25 10.25L1.25 9.25C0.78125 8.75 0 9.09375 0 9.75V13.25C0 13.6875 0.3125 14 0.71875 14H4.21875C4.90625 14 5.25 13.2188 4.75 12.75L3.75 11.75L6.625 8.875ZM7.34375 5.15625C7.15625 5.34375 7.15625 5.6875 7.34375 5.875L8.125 6.65625C8.3125 6.84375 8.65625 6.84375 8.84375 6.65625L11.75 3.75L12.7188 4.78125C13.1875 5.28125 14 4.9375 14 4.25V0.75C14 0.34375 13.6562 0 13.25 0H9.75C9.0625 0 8.71875 0.8125 9.21875 1.28125L10.25 2.25L7.34375 5.15625Z"/>
</svg>
