<svg width="25" height="25" viewBox="0 0 25 25" fill="none" xmlns="http://www.w3.org/2000/svg">
<path d="M10.418 15.625H13.0221C13.4365 15.625 13.834 15.4604 14.127 15.1674C14.42 14.8743 14.5846 14.4769 14.5846 14.0625V14.0625C14.5846 13.6481 14.42 13.2507 14.127 12.9576C13.834 12.6646 13.4365 12.5 13.0221 12.5H11.9805C11.5661 12.5 11.1686 12.3354 10.8756 12.0424C10.5826 11.7493 10.418 11.3519 10.418 10.9375C10.418 10.5231 10.5826 10.1257 10.8756 9.83265C11.1686 9.53962 11.5661 9.375 11.9805 9.375H14.5846" stroke-width="2" stroke-linecap="round" stroke-linejoin="round"/>
<path d="M12.5 16.6668V15.6252M12.5 9.37516V8.3335V9.37516Z" stroke-width="2" stroke-linecap="round" stroke-linejoin="round"/>
<path d="M20.832 12.5C20.8344 11.6704 20.7115 10.8451 20.4674 10.0521C19.9999 8.53896 19.1109 7.19035 17.9045 6.16426C16.6982 5.13818 15.2244 4.47711 13.6558 4.25849C12.0872 4.03988 10.4888 4.27276 9.04784 4.92988C7.60686 5.587 6.38297 6.64113 5.51953 7.96879" stroke-width="2" stroke-linecap="round" stroke-linejoin="round"/>
<path d="M4.168 12.5C4.16559 13.3297 4.28851 14.155 4.53259 14.9479C5.00009 16.4611 5.88911 17.8097 7.09549 18.8358C8.30188 19.8619 9.77568 20.5229 11.3443 20.7415C12.9128 20.9602 14.5112 20.7273 15.9522 20.0702C17.3932 19.413 18.6171 18.3589 19.4805 17.0312" stroke-width="2" stroke-linecap="round" stroke-linejoin="round"/>
<path d="M19.793 11.4585L20.8346 12.5002L21.8763 11.4585" stroke-width="2" stroke-linecap="round" stroke-linejoin="round"/>
<path d="M5.20833 13.5417L4.16667 12.5L3.125 13.5417" stroke-width="2" stroke-linecap="round" stroke-linejoin="round"/>
</svg>
