<svg width="28" height="28" viewBox="0 0 28 28" fill="none" xmlns="http://www.w3.org/2000/svg">
<path d="M14.0004 5.83333C15.8866 5.83333 17.6185 6.47912 19.0011 7.55307L23.2445 3.50477C20.7773 1.32995 17.5478 0 14.0004 0C8.62488 0 3.9632 3.03323 1.61719 7.47816L6.33569 11.2032C7.47872 8.0726 10.4741 5.83333 14.0004 5.83333Z" fill="#F44336"/>
<path d="M27.8787 15.7521C27.9516 15.1785 28 14.5934 28 13.9999C28 12.9991 27.8907 12.0245 27.6911 11.0833H14V16.9166H21.5672C20.9551 18.5076 19.8651 19.854 18.4777 20.7893L23.2137 24.5283C25.7243 22.3246 27.4423 19.2387 27.8787 15.7521Z" fill="#2196F3"/>
<path d="M5.83333 14.0001C5.83333 13.0161 6.01634 12.077 6.33528 11.2034L1.61677 7.47827C0.588389 9.4268 0 11.6436 0 14.0001C0 16.3302 0.577566 18.5225 1.58458 20.4552L6.30907 16.7254C6.00651 15.872 5.83333 14.9573 5.83333 14.0001Z" fill="#FFC107"/>
<path d="M13.9994 22.1667C10.4463 22.1667 7.43156 19.8935 6.30847 16.7253L1.58398 20.4552C3.91853 24.9358 8.59751 28.0001 13.9994 28.0001C17.5318 28.0001 20.7529 26.6878 23.2131 24.5284L18.4771 20.7894C17.1975 21.6521 15.6659 22.1667 13.9994 22.1667Z" fill="#00B060"/>
<path opacity="0.1" d="M13.9992 27.7083C9.87893 27.7083 6.17406 26.0083 3.55469 23.2998C6.1188 26.1774 9.84176 27.9999 13.9992 27.9999C18.1182 27.9999 21.8103 26.2133 24.3687 23.3808C21.7571 26.0454 18.0803 27.7083 13.9992 27.7083Z" fill="#4F4F4F"/>
<path opacity="0.1" d="M14 16.625V16.9167H21.5672L21.6854 16.625H14Z" fill="#4F4F4F"/>
<path d="M27.9942 14.1715C27.995 14.1141 27.9998 14.0576 27.9998 14C27.9998 13.9837 27.9976 13.968 27.9975 13.9517C27.9968 14.0251 27.9937 14.0978 27.9942 14.1715Z" fill="#E6E6E6"/>
<path opacity="0.2" d="M14 11.0833V11.3749H27.7498C27.7315 11.2786 27.7114 11.1788 27.6911 11.0833H14Z" fill="#4F4F4F"/>
<path d="M27.6911 11.0833H14V16.9167H21.5672C20.3905 19.9752 17.4734 22.1667 14 22.1667C9.48971 22.1667 5.83333 18.5103 5.83333 14C5.83333 9.48963 9.48971 5.83333 14 5.83333C15.6355 5.83333 17.1429 6.33577 18.4199 7.16413C18.6154 7.29117 18.8171 7.41044 19.0007 7.55307L23.244 3.50477L23.1483 3.43114C20.6931 1.30324 17.5041 0 14 0C6.26798 0 0 6.26798 0 14C0 21.7319 6.26798 28 14 28C21.1373 28 27.0147 22.6552 27.8787 15.7521C27.9516 15.1786 28 14.5934 28 14C28 12.9992 27.8907 12.0246 27.6911 11.0833Z" fill="url(#paint0_linear_2_12110)"/>
<path opacity="0.1" d="M18.4206 6.87258C17.1435 6.04422 15.6361 5.54178 14.0007 5.54178C9.49036 5.54178 5.83398 9.19808 5.83398 13.7084C5.83398 13.7577 5.83465 13.7961 5.8355 13.8452C5.91419 9.40287 9.53956 5.83345 14.0007 5.83345C15.6361 5.83345 17.1435 6.33589 18.4206 7.16425C18.616 7.29128 18.8177 7.41055 19.0014 7.55318L23.2447 3.50488L19.0014 7.26152C18.8177 7.11889 18.616 6.99961 18.4206 6.87258Z" fill="#4F4F4F"/>
<path opacity="0.2" d="M14 0.291667C17.4709 0.291667 20.6301 1.57312 23.0758 3.6652L23.244 3.50477L23.1157 3.39298C20.6604 1.26509 17.5041 0 14 0C6.26798 0 0 6.26798 0 14C0 14.0492 0.00683597 14.0967 0.00733437 14.1458C0.0863749 6.48182 6.31719 0.291667 14 0.291667Z" fill="#4F4F4F"/>
<defs>
<linearGradient id="paint0_linear_2_12110" x1="0" y1="14" x2="28" y2="14" gradientUnits="userSpaceOnUse">
<stop stop-color="white" stop-opacity="0.2"/>
<stop offset="1" stop-color="white" stop-opacity="0"/>
</linearGradient>
</defs>
</svg>
