<svg width="22" height="20" viewBox="0 0 22 20" fill="none" xmlns="http://www.w3.org/2000/svg">
<path d="M17.4167 3.63636H14.6667V2.72727C14.6667 2.00396 14.3769 1.31026 13.8612 0.7988C13.3455 0.287337 12.646 0 11.9167 0H10.0833C9.35399 0 8.65451 0.287337 8.13879 0.7988C7.62306 1.31026 7.33333 2.00396 7.33333 2.72727V3.63636H4.58333C3.3682 3.63781 2.20326 4.11717 1.34403 4.96929C0.484808 5.82142 0.00145554 6.97673 0 8.18182L0 15.4545C0.00145554 16.6596 0.484808 17.8149 1.34403 18.6671C2.20326 19.5192 3.3682 19.9986 4.58333 20H17.4167C18.6318 19.9986 19.7967 19.5192 20.656 18.6671C21.5152 17.8149 21.9985 16.6596 22 15.4545V8.18182C21.9985 6.97673 21.5152 5.82142 20.656 4.96929C19.7967 4.11717 18.6318 3.63781 17.4167 3.63636ZM9.16667 2.72727C9.16667 2.48617 9.26324 2.25494 9.43515 2.08445C9.60706 1.91396 9.84022 1.81818 10.0833 1.81818H11.9167C12.1598 1.81818 12.3929 1.91396 12.5648 2.08445C12.7368 2.25494 12.8333 2.48617 12.8333 2.72727V3.63636H9.16667V2.72727ZM20.1667 15.4545C20.1667 16.1779 19.8769 16.8716 19.3612 17.383C18.8455 17.8945 18.146 18.1818 17.4167 18.1818H4.58333C3.85399 18.1818 3.15451 17.8945 2.63879 17.383C2.12306 16.8716 1.83333 16.1779 1.83333 15.4545V8.18182C1.83333 7.4585 2.12306 6.76481 2.63879 6.25335C3.15451 5.74188 3.85399 5.45455 4.58333 5.45455H17.4167C18.146 5.45455 18.8455 5.74188 19.3612 6.25335C19.8769 6.76481 20.1667 7.4585 20.1667 8.18182V15.4545ZM14.6667 11.8182C14.6667 12.0593 14.5701 12.2905 14.3982 12.461C14.2263 12.6315 13.9931 12.7273 13.75 12.7273H11.9167V14.5455C11.9167 14.7866 11.8201 15.0178 11.6482 15.1883C11.4763 15.3588 11.2431 15.4545 11 15.4545C10.7569 15.4545 10.5237 15.3588 10.3518 15.1883C10.1799 15.0178 10.0833 14.7866 10.0833 14.5455V12.7273H8.25C8.00688 12.7273 7.77373 12.6315 7.60182 12.461C7.42991 12.2905 7.33333 12.0593 7.33333 11.8182C7.33333 11.5771 7.42991 11.3458 7.60182 11.1754C7.77373 11.0049 8.00688 10.9091 8.25 10.9091H10.0833V9.09091C10.0833 8.8498 10.1799 8.61857 10.3518 8.44808C10.5237 8.2776 10.7569 8.18182 11 8.18182C11.2431 8.18182 11.4763 8.2776 11.6482 8.44808C11.8201 8.61857 11.9167 8.8498 11.9167 9.09091V10.9091H13.75C13.9931 10.9091 14.2263 11.0049 14.3982 11.1754C14.5701 11.3458 14.6667 11.5771 14.6667 11.8182Z"/>
</svg>
