<svg width="21" height="20" viewBox="0 0 21 20" fill="none" xmlns="http://www.w3.org/2000/svg">
<path d="M18.3744 10.6495L10.8984 19L3.42234 10.6495C2.92923 10.1083 2.54081 9.45782 2.28155 8.73903C2.02229 8.02024 1.8978 7.2487 1.91591 6.47298C1.93403 5.69726 2.09437 4.93418 2.38682 4.23178C2.67928 3.52938 3.09752 2.90289 3.61521 2.39174C4.1329 1.8806 4.73883 1.49588 5.39483 1.26181C6.05083 1.02775 6.7427 0.949401 7.42687 1.03171C8.11103 1.11402 8.77268 1.35521 9.37014 1.74008C9.9676 2.12494 10.4879 2.64516 10.8984 3.26797C11.3106 2.64968 11.8315 2.13401 12.4286 1.75323C13.0256 1.37244 13.6859 1.13474 14.3682 1.055C15.0504 0.975265 15.7399 1.0552 16.3935 1.28982C17.0471 1.52443 17.6507 1.90867 18.1666 2.41848C18.6825 2.92829 19.0995 3.55271 19.3915 4.25264C19.6836 4.95258 19.8444 5.71297 19.8639 6.48622C19.8834 7.25947 19.7612 8.02894 19.5049 8.74647C19.2486 9.464 18.8637 10.1141 18.3744 10.6562" stroke-width="2" stroke-linecap="round" stroke-linejoin="round"/>
</svg>
