<svg width="18" height="18" viewBox="0 0 18 18" fill="none" xmlns="http://www.w3.org/2000/svg">
<path d="M14.6922 4.29725C14.6922 4.50325 14.6312 4.70463 14.5168 4.87592C14.4024 5.04722 14.2397 5.18074 14.0494 5.25959C13.8591 5.33844 13.6497 5.35908 13.4477 5.3189C13.2456 5.27872 13.06 5.17953 12.9144 5.03387C12.7687 4.88821 12.6695 4.70263 12.6293 4.50059C12.5892 4.29855 12.6098 4.08913 12.6887 3.89883C12.7675 3.70852 12.901 3.54587 13.0723 3.43146C13.2436 3.31704 13.445 3.25599 13.651 3.25603C13.9271 3.25609 14.1919 3.36581 14.3872 3.56106C14.5824 3.75632 14.6921 4.02112 14.6922 4.29725ZM18 8.99957L17.9998 9.01268L17.9406 12.7886C17.9253 14.1501 17.3776 15.4515 16.4148 16.4143C15.4521 17.377 14.1507 17.9247 12.7892 17.9401L9 17.9996L8.98689 17.9994L5.21096 17.9404C3.84946 17.925 2.54806 17.3774 1.58525 16.4146C0.622435 15.4518 0.0747059 14.1504 0.0592714 12.7889L0 8.99957L0.000257165 8.98645L0.0592286 5.21037C0.0747067 3.84888 0.622449 2.54752 1.58525 1.58476C2.54805 0.622003 3.84943 0.0743224 5.21091 0.0589122L9 -0.000488281L9.01311 -0.000231115L12.789 0.0587406C14.1505 0.0741521 15.4519 0.621842 16.4146 1.58461C17.3774 2.54737 17.9251 3.84873 17.9405 5.2102L18 8.99957ZM16.3238 8.99957L16.2649 5.23669C16.2544 4.31113 15.8821 3.42642 15.2276 2.77191C14.5731 2.11739 13.6884 1.74506 12.7629 1.73459L9 1.67584L5.23714 1.73459C4.31159 1.74508 3.4269 2.11742 2.77239 2.77193C2.11787 3.42644 1.74553 4.31113 1.73503 5.23669L1.67627 8.99957L1.73503 12.7624C1.7455 13.688 2.11783 14.5727 2.77235 15.2272C3.42687 15.8818 4.31158 16.2541 5.23714 16.2645L9 16.3233L12.7629 16.2645C13.6884 16.2541 14.5731 15.8818 15.2276 15.2273C15.8822 14.5727 16.2545 13.688 16.2649 12.7624L16.3238 8.99957ZM13.6217 8.99957C13.6217 9.91367 13.3507 10.8072 12.8428 11.5673C12.335 12.3273 11.6131 12.9197 10.7686 13.2695C9.9241 13.6194 8.99482 13.7109 8.09828 13.5325C7.20175 13.3542 6.37823 12.914 5.73187 12.2676C5.0855 11.6213 4.64533 10.7977 4.467 9.90121C4.28867 9.00466 4.38021 8.07538 4.73002 7.23086C5.07984 6.38634 5.67223 5.66451 6.43228 5.15667C7.19233 4.64883 8.0859 4.37777 9 4.37778C10.2253 4.37917 11.4001 4.86655 12.2665 5.733C13.133 6.59946 13.6203 7.77422 13.6217 8.99957ZM11.9457 8.99957C11.9457 8.41695 11.7729 7.84741 11.4493 7.36299C11.1256 6.87856 10.6655 6.50099 10.1272 6.27803C9.58897 6.05508 8.99668 5.99674 8.42526 6.11041C7.85384 6.22408 7.32896 6.50464 6.91699 6.91661C6.50502 7.32859 6.22447 7.85348 6.11081 8.4249C5.99715 8.99633 6.05549 9.58862 6.27846 10.1269C6.50142 10.6652 6.87899 11.1252 7.36342 11.4489C7.84785 11.7726 8.41739 11.9453 9 11.9453C9.78097 11.9444 10.5297 11.6338 11.0819 11.0815C11.6341 10.5293 11.9448 9.78054 11.9457 8.99957H11.9457Z" fill="#4F4F4F"/>
</svg>
