<svg width="24" height="24" viewBox="0 0 24 24" fill="none" xmlns="http://www.w3.org/2000/svg">
<path d="M19.5896 5.72934C19.5897 6.004 19.5083 6.27251 19.3557 6.50091C19.2031 6.7293 18.9863 6.90732 18.7325 7.01246C18.4788 7.11759 18.1996 7.14511 17.9302 7.09154C17.6608 7.03797 17.4134 6.90572 17.2192 6.7115C17.0249 6.51729 16.8927 6.26984 16.8391 6.00046C16.7856 5.73107 16.8131 5.45185 16.9182 5.19811C17.0233 4.94437 17.2014 4.72751 17.4298 4.57495C17.6581 4.42239 17.9267 4.34099 18.2013 4.34105C18.5695 4.34113 18.9226 4.48742 19.1829 4.74776C19.4432 5.0081 19.5895 5.36117 19.5896 5.72934ZM24 11.9991L23.9997 12.0166L23.9209 17.0512C23.9004 18.8665 23.1701 20.6017 21.8864 21.8854C20.6028 23.1691 18.8676 23.8993 17.0523 23.9198L12 23.9992L11.9825 23.9988L6.94794 23.9202C5.13261 23.8997 3.39741 23.1695 2.11366 21.8858C0.829913 20.6021 0.0996078 18.8669 0.0790285 17.0516L0 11.9991L0.000342887 11.9816L0.0789714 6.94684C0.0996089 5.13151 0.829933 3.39637 2.11367 2.11269C3.3974 0.829013 5.13257 0.098771 6.94789 0.078224L12 -0.000976562L12.0175 -0.000633674L17.0521 0.0779954C18.8673 0.098544 20.6025 0.828797 21.8862 2.11248C23.1698 3.39617 23.9001 5.13132 23.9206 6.94661L24 11.9991ZM21.765 11.9991L21.6865 6.98192C21.6726 5.74784 21.1761 4.56824 20.3035 3.69555C19.4308 2.82287 18.2512 2.32642 17.0171 2.31247L12 2.23412L6.98286 2.31247C5.74878 2.32645 4.5692 2.8229 3.69651 3.69558C2.82383 4.56826 2.32737 5.74784 2.31337 6.98192L2.23503 11.9991L2.31337 17.0163C2.32733 18.2504 2.82377 19.43 3.69647 20.3027C4.56916 21.1754 5.74877 21.6718 6.98286 21.6857L12 21.7641L17.0171 21.6857C18.2512 21.6718 19.4308 21.1754 20.3035 20.3027C21.1762 19.43 21.6726 18.2504 21.6865 17.0163L21.765 11.9991ZM18.1623 11.9991C18.1623 13.2179 17.8009 14.4093 17.1237 15.4227C16.4466 16.4361 15.4842 17.226 14.3582 17.6924C13.2321 18.1588 11.9931 18.2808 10.7977 18.0431C9.60233 17.8053 8.5043 17.2184 7.64249 16.3565C6.78067 15.4947 6.19377 14.3967 5.956 13.2013C5.71823 12.0059 5.84027 10.7668 6.3067 9.64082C6.77312 8.51479 7.56297 7.55236 8.57637 6.87524C9.58977 6.19811 10.7812 5.83671 12 5.83672C13.6338 5.83856 15.2001 6.48841 16.3554 7.64368C17.5106 8.79895 18.1605 10.3653 18.1623 11.9991ZM15.9276 11.9991C15.9276 11.2223 15.6972 10.4629 15.2657 9.81699C14.8341 9.17108 14.2207 8.66766 13.503 8.37039C12.7853 8.07311 11.9956 7.99533 11.2337 8.14689C10.4718 8.29844 9.77194 8.67253 9.22265 9.22183C8.67336 9.77113 8.29929 10.471 8.14775 11.2329C7.9962 11.9948 8.07399 12.7845 8.37128 13.5022C8.66856 14.2199 9.17199 14.8333 9.81789 15.2649C10.4638 15.6964 11.2232 15.9268 12 15.9268C13.0413 15.9256 14.0396 15.5114 14.7759 14.775C15.5122 14.0387 15.9264 13.0404 15.9275 11.9991H15.9276Z"/>
</svg>
