<svg width="17" height="17" viewBox="0 0 17 17" fill="none" xmlns="http://www.w3.org/2000/svg">
<path d="M8.47997 16.9976C7.27668 16.9976 6.07339 17.001 4.87009 16.9967C2.08828 16.9865 0.0142843 14.9171 0.00575636 12.1346C-0.00191879 9.71289 -0.00191879 7.29205 0.00575636 4.87036C0.0142843 2.087 2.08657 0.0124806 4.86413 0.00480349C7.28521 -0.00202058 9.70544 -0.00116757 12.1265 0.00480349C14.9075 0.0116276 16.9781 2.07591 16.9909 4.86439C17.0019 7.29973 17.0019 9.73592 16.9909 12.1713C16.9781 14.9043 14.8998 16.9805 12.1743 16.9967C10.9428 17.0036 9.71141 16.9976 8.47997 16.9976ZM12.5742 8.50759C12.57 6.26247 10.7416 4.4268 8.50556 4.42253C6.25162 4.41912 4.41214 6.27015 4.42152 8.53403C4.43091 10.7442 6.27124 12.5739 8.48935 12.5781C10.722 12.5833 12.5785 10.7331 12.5742 8.50759ZM12.9068 5.09897C13.4714 5.10323 13.9268 4.65114 13.9327 4.08133C13.9387 3.52943 13.4594 3.05772 12.9017 3.0654C12.3585 3.07307 11.8997 3.52858 11.8971 4.06427C11.8946 4.63664 12.3423 5.0947 12.9068 5.09897Z"/>
<path d="M8.48461 5.78421C9.94289 5.77738 11.1991 7.0151 11.2127 8.47204C11.2272 9.96992 10.0068 11.2068 8.50678 11.2162C7.01354 11.2255 5.78125 9.9921 5.78125 8.48995C5.7821 7.0296 7.01951 5.79103 8.48461 5.78421Z"/>
</svg>
