<svg width="23" height="22" viewBox="0 0 23 22" fill="none" xmlns="http://www.w3.org/2000/svg">
<path d="M11.8928 19.25C16.4369 19.25 20.1207 15.5563 20.1207 11C20.1207 6.44365 16.4369 2.75 11.8928 2.75C7.34866 2.75 3.66492 6.44365 3.66492 11C3.66492 15.5563 7.34866 19.25 11.8928 19.25Z" stroke-width="2" stroke-linecap="round" stroke-linejoin="round"/>
<path d="M4.21338 8.25H19.5721" stroke-width="2" stroke-linecap="round" stroke-linejoin="round"/>
<path d="M4.21338 13.75H19.5721" stroke-width="2" stroke-linecap="round" stroke-linejoin="round"/>
<path d="M11.4356 2.75C9.89549 5.22464 9.07898 8.08304 9.07898 11C9.07898 13.917 9.89549 16.7754 11.4356 19.25" stroke-width="2" stroke-linecap="round" stroke-linejoin="round"/>
<path d="M12.3499 2.75C13.89 5.22464 14.7065 8.08304 14.7065 11C14.7065 13.917 13.89 16.7754 12.3499 19.25" stroke-width="2" stroke-linecap="round" stroke-linejoin="round"/>
</svg>
