<svg width="19" height="20" viewBox="0 0 19 20" fill="none" xmlns="http://www.w3.org/2000/svg">
<path d="M1 12.1125C1 10.5316 2.28159 9.25 3.86251 9.25V9.25C4.62799 9.25 5.3194 8.79259 5.61881 8.08809L8.03736 2.39739C8.20419 2.00486 8.58942 1.75 9.01593 1.75V1.75C10.2885 1.75 11.2762 2.86016 11.128 4.12407L10.8949 6.11364C10.7928 6.9848 11.4736 7.75 12.3507 7.75H14.539C16.449 7.75 17.8726 9.51105 17.4724 11.3786L16.5082 15.8786C16.2118 17.2618 14.9894 18.25 13.5748 18.25H4C2.34315 18.25 1 16.9069 1 15.25V12.1125Z" stroke-width="2"/>
<path d="M5.5 8.5V18.25" stroke-width="2"/>
</svg>
