<svg width="19" height="19" viewBox="0 0 19 19" fill="none" xmlns="http://www.w3.org/2000/svg">
<g clip-path="url(#clip0_1387_17546)">
<path d="M14.8079 -0.000117187C15.0855 0.0622266 15.369 0.104531 15.6392 0.189883C16.8117 0.560235 17.721 1.27682 18.3698 2.31959C18.8163 3.03766 19.0152 3.83068 18.9989 4.66899C18.977 5.77893 18.5995 6.76307 17.8383 7.57873C17.3966 8.05188 16.9268 8.4983 16.4673 8.95512C15.5828 9.83424 14.7028 10.7174 13.8098 11.5877C13.193 12.1892 12.5023 12.6917 11.6839 12.9863C10.2379 13.507 8.96147 13.2023 7.8328 12.1799C7.39001 11.7788 7.2371 11.2414 7.47018 10.7382C7.7994 10.0272 8.72542 9.79528 9.37159 10.3916C9.44397 10.4584 9.51337 10.5289 9.59094 10.5898C10.1046 10.9939 10.6584 10.9613 11.1735 10.6425C11.5985 10.3794 11.9986 10.0588 12.3575 9.7103C13.5983 8.50535 14.8186 7.27963 16.0419 6.05651C16.7193 5.37926 16.854 4.32127 16.3329 3.51414C15.8489 2.76453 15.159 2.33369 14.2366 2.37897C13.89 2.39604 13.5849 2.55486 13.3336 2.79385C12.8738 3.23174 12.4317 3.6893 11.9641 4.11865C11.6319 4.42406 11.2177 4.47973 10.8054 4.32721C10.3934 4.17506 10.1273 3.86668 10.0586 3.41729C9.99661 3.01354 10.108 2.66619 10.4038 2.37748C10.8725 1.91992 11.3213 1.44047 11.8075 1.00221C12.4243 0.445938 13.154 0.113066 13.9902 0.0343945C14.0162 0.0317969 14.0407 0.0113867 14.0659 -0.000488281C14.3127 -0.000117187 14.5603 -0.000117187 14.8079 -0.000117187Z"/>
<path d="M4.04445 18.9999C3.81433 18.9506 3.58273 18.9082 3.35485 18.85C2.3802 18.6017 1.58185 18.0774 0.956463 17.2921C0.529638 16.7559 0.241624 16.1506 0.100958 15.479C-0.096495 14.5371 -0.00482055 13.6228 0.380435 12.7403C0.622797 12.1851 0.983928 11.7153 1.41372 11.2908C2.55724 10.1616 3.69185 9.02342 4.83463 7.89344C5.54501 7.19096 6.33742 6.60537 7.28497 6.2584C8.13602 5.94668 9.00897 5.87877 9.87041 6.17713C10.514 6.40016 11.1108 6.74194 11.479 7.34496C11.9058 8.0441 11.4493 8.89799 10.7085 9.05608C10.2865 9.14625 9.9324 9.02082 9.62657 8.73805C9.07875 8.23188 8.48528 8.26528 7.85506 8.55993C7.30427 8.81746 6.85481 9.20823 6.42947 9.62682C5.29782 10.7405 4.17658 11.8641 3.04976 12.9826C2.67081 13.3585 2.41769 13.7927 2.37092 14.3371C2.267 15.5458 3.15442 16.5744 4.36401 16.6401C5.00239 16.6746 5.54538 16.4579 6.00376 16.0204C6.37008 15.6708 6.71748 15.2997 7.10088 14.9698C7.41784 14.6971 7.80718 14.66 8.19652 14.8091C8.60404 14.9654 8.86237 15.2652 8.94179 15.699C9.01973 16.125 8.88129 16.4869 8.57695 16.786C8.17611 17.1801 7.78677 17.5879 7.36291 17.9556C6.75682 18.4811 6.04421 18.7995 5.24846 18.9272C5.14305 18.9439 5.04025 18.975 4.93595 18.9995C4.63829 18.9999 4.34137 18.9999 4.04445 18.9999Z"/>
</g>
<defs>
<clipPath id="clip0_1387_17546">
<rect width="19" height="19"/>
</clipPath>
</defs>
</svg>
