<svg width="61" height="65" viewBox="0 0 61 65" fill="none" xmlns="http://www.w3.org/2000/svg">
<path d="M27.7344 48.5331C26.7164 48.5331 25.8958 47.6921 25.8958 46.6606C25.8958 45.6291 26.7216 44.788 27.7344 44.788H38.0438C39.0618 44.788 39.8824 45.6291 39.8824 46.6606C39.8824 47.6921 39.0566 48.5331 38.0438 48.5331H27.7344ZM12.065 46.6764C11.6495 46.0417 11.8157 45.1847 12.4389 44.7563C13.0622 44.3331 13.9035 44.5024 14.3242 45.1371L15.0617 46.2585L17.9962 42.6192C18.474 42.0321 19.3258 41.9474 19.9075 42.4288C20.484 42.9154 20.5671 43.783 20.0944 44.3754L16.033 49.4059C15.9447 49.5223 15.8356 49.6281 15.7109 49.7127C15.0877 50.1359 14.2463 49.9666 13.8256 49.3319L12.065 46.6764ZM12.065 33.505C11.6495 32.8703 11.8157 32.0133 12.4389 31.5849C13.0622 31.1617 13.9035 31.331 14.3242 31.9657L15.0617 33.0872L17.9962 29.4478C18.474 28.8607 19.3258 28.776 19.9075 29.2574C20.484 29.7441 20.5671 30.6116 20.0944 31.204L16.033 36.2345C15.9447 36.3509 15.8356 36.4567 15.7109 36.5413C15.0877 36.9645 14.2463 36.7952 13.8256 36.1605L12.065 33.505ZM12.065 20.3284C11.6495 19.6936 11.8157 18.8367 12.4389 18.4082C13.0622 17.985 13.9035 18.1543 14.3242 18.7891L15.0617 19.9105L17.9962 16.2712C18.474 15.684 19.3258 15.5994 19.9075 16.0807C20.484 16.5674 20.5671 17.4349 20.0944 18.0273L16.033 23.0579C15.9447 23.1742 15.8356 23.28 15.7109 23.3647C15.0877 23.7878 14.2463 23.6186 13.8256 22.9838L12.065 20.3284ZM27.7344 20.6458C26.7164 20.6458 25.8958 19.8047 25.8958 18.7732C25.8958 17.7417 26.7216 16.9006 27.7344 16.9006H46.5823C47.6003 16.9006 48.4209 17.7417 48.4209 18.7732C48.4209 19.8047 47.5951 20.6458 46.5823 20.6458H27.7344ZM4.26922 0H56.736C57.9149 0 58.9848 0.486654 59.7535 1.26953C60.5222 2.05241 61 3.14209 61 4.34285V60.6466C61 61.8473 60.5222 62.937 59.7535 63.7199C58.9848 64.5028 57.9149 64.9894 56.736 64.9894H4.26922C3.09025 64.9894 2.02035 64.5028 1.25168 63.7199C0.47782 62.9476 0 61.8526 0 60.6519V4.34814C0 3.14738 0.47782 2.05241 1.24649 1.26953C2.01516 0.486654 3.09025 0 4.26922 0ZM56.736 3.74512H4.26922C4.10302 3.74512 3.95241 3.81388 3.84334 3.92497C3.73427 4.03605 3.66675 4.18945 3.66675 4.35872V60.6624C3.66675 60.8317 3.73427 60.9851 3.84334 61.0962C3.95241 61.2073 4.10302 61.276 4.26922 61.276H56.736C56.9022 61.276 57.0528 61.2073 57.1619 61.0962C57.2709 60.9851 57.3384 60.8317 57.3384 60.6624V4.35872C57.3384 4.18945 57.2709 4.03605 57.1619 3.92497C57.0476 3.81388 56.897 3.74512 56.736 3.74512ZM27.7344 34.5894C26.7164 34.5894 25.8958 33.7484 25.8958 32.7169C25.8958 31.6854 26.7216 30.8443 27.7344 30.8443H46.5823C47.6003 30.8443 48.4209 31.6854 48.4209 32.7169C48.4209 33.7484 47.5951 34.5894 46.5823 34.5894H27.7344Z" fill="#65C17E"/>
</svg>
