<svg width="465" height="472" viewBox="0 0 465 472" fill="none" xmlns="http://www.w3.org/2000/svg">
<path d="M363.761 406.911C386.458 406.911 404.857 396.13 404.857 382.83C404.857 369.53 386.458 358.748 363.761 358.748C341.064 358.748 322.664 369.53 322.664 382.83C322.664 396.13 341.064 406.911 363.761 406.911Z" fill="white"/>
<path d="M337.98 72.8201L345.114 77.002C345.075 76.6888 345.053 76.3737 345.048 76.058V73.9434C345.048 70.1674 347.634 68.6948 350.814 70.5639C352.185 71.4182 353.358 72.561 354.255 73.9151C354.776 69.1951 358.403 67.477 362.811 70.0542C367.573 72.8862 371.433 79.6358 371.433 85.2242V88.3583C371.464 89.6098 371.216 90.8523 370.707 91.9927L376.622 95.4666C377.559 96.0866 378.337 96.9232 378.893 97.9078C379.449 98.8925 379.767 99.997 379.821 101.131C379.821 103.198 378.389 104.038 376.622 103.019L337.98 80.3626C337.044 79.7427 336.265 78.9061 335.709 77.9214C335.153 76.9368 334.835 75.8323 334.781 74.6986C334.8 72.6218 336.213 71.7439 337.98 72.8201Z" fill="white"/>
<path d="M307.457 93.909L312.842 97.0619C312.813 96.8239 312.797 96.5844 312.795 96.3445V94.7586C312.795 91.9266 314.748 90.8032 317.148 92.2098C318.183 92.8522 319.068 93.7154 319.742 94.7397C320.133 91.1997 322.867 89.8781 326.197 91.8227C328.092 93.0777 329.669 94.7686 330.8 96.7581C331.931 98.7476 332.584 100.98 332.707 103.273V105.643C332.731 106.586 332.544 107.522 332.158 108.381L336.622 111.005C337.325 111.468 337.91 112.094 338.331 112.83C338.751 113.567 338.994 114.394 339.04 115.243C339.04 116.81 337.961 117.443 336.622 116.659L307.457 99.5635C306.756 99.1018 306.172 98.4793 305.752 97.7463C305.332 97.0133 305.088 96.1904 305.039 95.3439C305.039 93.7579 306.127 93.1255 307.457 93.909Z" fill="white"/>
<path d="M68.7081 272.457C68.178 272.75 58.4781 275.554 54.8511 270.72C51.2241 265.887 57.2226 258.363 53.8467 255.616C50.4708 252.869 41.0034 255.616 38.7249 249.792C36.4464 243.967 43.1982 241.437 39.4038 235.556C37.0137 231.856 31.1361 229.779 30.6153 226.352C29.7597 220.632 39.0969 217.998 47.0949 223.407C55.0929 228.816 59.9196 226.333 62.4585 225.965C64.9974 225.597 70.4565 226.409 70.2798 235.405C70.1031 244.402 68.7081 272.457 68.7081 272.457Z" fill="#65C17E"/>
<path d="M69.3504 259.6C69.2242 259.601 69.1019 259.556 69.0061 259.473C68.9103 259.389 68.8476 259.274 68.8296 259.147C66.0396 242.004 46.4073 228.042 36.1959 225.05C36.0602 225.011 35.9453 224.919 35.8764 224.794C35.8075 224.669 35.7903 224.522 35.8285 224.384C35.8668 224.246 35.9573 224.13 36.0803 224.06C36.2032 223.99 36.3485 223.972 36.4842 224.011C46.9281 227.079 67.0161 241.381 69.8712 258.939C69.8927 259.079 69.8588 259.222 69.7769 259.337C69.6951 259.452 69.5719 259.53 69.4341 259.553L69.3504 259.6Z" fill="white"/>
<path d="M46.1932 245.251C46.0762 245.256 45.9613 245.22 45.8669 245.149C45.7725 245.079 45.7043 244.978 45.6731 244.864C45.6419 244.749 45.6497 244.627 45.6951 244.518C45.7406 244.408 45.821 244.318 45.9235 244.26C46.2397 244.062 53.7913 239.54 61.2406 241.674C61.3757 241.715 61.4897 241.808 61.5589 241.933C61.6282 242.058 61.6474 242.205 61.6126 242.344C61.5737 242.48 61.4835 242.595 61.3616 242.664C61.2398 242.733 61.096 242.75 60.9616 242.712C53.9401 240.72 46.5001 245.138 46.5001 245.185C46.4064 245.237 46.2997 245.26 46.1932 245.251Z" fill="white"/>
<path d="M72.4746 279.046C72.574 280.419 72.9903 281.749 73.6899 282.928C74.3894 284.107 75.3526 285.103 76.5015 285.834L189.338 351.914C190.586 352.556 191.966 352.891 193.365 352.891C194.765 352.891 196.144 352.556 197.392 351.914L351.772 261.431C352.989 260.779 354.008 259.803 354.718 258.607C355.428 257.411 355.804 256.041 355.804 254.644C355.804 253.247 355.428 251.877 354.718 250.681C354.008 249.485 352.989 248.509 351.772 247.857L238.945 181.777C237.697 181.134 236.317 180.799 234.918 180.799C233.518 180.799 232.139 181.134 230.891 181.777L76.5108 272.259C75.3602 272.989 74.3952 273.984 73.694 275.163C72.9927 276.343 72.575 277.673 72.4746 279.046Z" fill="#525365"/>
<path d="M193.367 344.088V352.933C191.967 352.972 190.581 352.647 189.34 351.989L76.5028 285.909C75.3231 285.278 74.3293 284.341 73.6227 283.193C72.916 282.045 72.5218 280.728 72.4802 279.375C72.4386 278.022 72.7511 276.682 73.3859 275.492C74.0207 274.302 74.955 273.303 76.0936 272.599C74.2894 273.911 74.4289 275.837 76.5028 277.055L189.34 343.135C190.58 343.796 191.966 344.124 193.367 344.088Z" fill="#404152"/>
<path d="M68.6996 272.401C67.5769 271.629 66.6497 270.6 65.9935 269.396C65.3373 268.191 64.9708 266.847 64.9238 265.472V128.79C65.0002 127.372 65.4045 125.992 66.1041 124.762C66.8037 123.532 67.7789 122.486 68.9507 121.71L223.331 31.237C224.529 30.5929 225.859 30.2437 227.214 30.2174C228.57 30.1912 229.912 30.4887 231.133 31.086C232.257 31.8593 233.185 32.8905 233.843 34.096C234.5 35.3015 234.869 36.6473 234.919 38.0244V174.697C234.844 176.115 234.44 177.496 233.74 178.726C233.04 179.956 232.064 181.002 230.892 181.777L76.5116 272.259C75.3125 272.905 73.9799 273.255 72.6223 273.28C71.2648 273.304 69.9208 273.003 68.6996 272.401Z" fill="#9395B3"/>
<path d="M76.028 272.505C74.8735 273.033 73.6188 273.297 72.3525 273.28C71.0862 273.262 69.8392 272.962 68.6996 272.401C67.5785 271.628 66.6524 270.598 65.9965 269.394C65.3405 268.19 64.973 266.847 64.9238 265.472V128.79C64.9695 127.369 65.3764 125.983 66.1049 124.769L73.6565 129.186C72.9333 130.404 72.5269 131.787 72.4754 133.208V269.899C72.4754 272.316 74.0285 273.401 76.028 272.505Z" fill="#404152"/>
<path d="M72.4746 133.217V269.899C72.4746 272.505 74.2788 273.562 76.5015 272.259L230.882 181.777C232.054 181.002 233.03 179.956 233.73 178.726C234.43 177.496 234.834 176.115 234.908 174.697V38.0244C234.908 35.419 233.104 34.3617 230.882 35.6644L76.5015 126.137C75.3302 126.914 74.3554 127.96 73.6559 129.19C72.9563 130.42 72.5517 131.799 72.4746 133.217Z" fill="#525365"/>
<path d="M76.5018 276.979L189.339 343.059C190.587 343.702 191.966 344.037 193.366 344.037C194.765 344.037 196.145 343.702 197.392 343.059L351.772 252.577C353.995 251.274 353.995 249.159 351.772 247.857L238.945 181.777C237.697 181.134 236.317 180.799 234.918 180.799C233.519 180.799 232.139 181.134 230.891 181.777L76.5111 272.259C74.2791 273.562 74.2791 275.648 76.5018 276.979Z" fill="#9395B3"/>
<path d="M78.67 133.727L227.47 46.5205C228.809 45.737 229.888 46.3694 229.888 47.9365V166.248C229.843 167.099 229.601 167.928 229.181 168.666C228.76 169.404 228.174 170.031 227.47 170.496L78.67 257.712C77.3308 258.496 76.252 257.863 76.252 256.296V137.975C76.2966 137.124 76.539 136.295 76.9592 135.557C77.3794 134.819 77.9656 134.192 78.67 133.727Z" fill="white"/>
<path opacity="0.6" d="M78.67 133.727L227.47 46.5205C228.809 45.737 229.888 46.3694 229.888 47.9365V166.248C229.843 167.099 229.601 167.928 229.181 168.666C228.76 169.404 228.174 170.031 227.47 170.496L78.67 257.712C77.3308 258.496 76.252 257.863 76.252 256.296V137.975C76.2966 137.124 76.539 136.295 76.9592 135.557C77.3794 134.819 77.9656 134.192 78.67 133.727Z" fill="#65C17E"/>
<path d="M152.772 126.241C156.734 123.919 159.951 125.807 159.951 130.451C159.815 132.978 159.094 135.437 157.847 137.628C156.599 139.819 154.861 141.681 152.772 143.063C148.81 145.385 145.602 143.507 145.602 138.862C145.735 136.335 146.454 133.875 147.7 131.682C148.946 129.489 150.684 127.625 152.772 126.241Z" fill="white"/>
<path d="M166.916 151.087C166.916 143.46 161.634 140.071 155.124 143.885L151.06 146.32C144.55 150.096 139.268 159.413 139.268 167.088V169.146L166.916 152.947V151.087Z" fill="white"/>
<path d="M180.895 154.816C180.635 154.202 179.965 154.051 179.212 154.486L130.926 182.806C130.408 183.152 129.976 183.617 129.666 184.162C129.356 184.708 129.176 185.32 129.141 185.949V191.708C129.141 192.652 129.717 193.171 130.498 192.954L130.629 192.906C130.73 192.865 130.83 192.818 130.926 192.765L179.212 164.445C179.732 164.101 180.165 163.637 180.476 163.09C180.786 162.544 180.965 161.931 180.997 161.301V155.571C181.006 155.315 180.972 155.06 180.895 154.816Z" fill="white"/>
<path d="M135.288 183.523C136.218 182.966 136.99 183.419 136.99 184.514C136.96 185.113 136.79 185.696 136.494 186.214C136.198 186.733 135.785 187.173 135.288 187.497C134.358 188.045 133.596 187.601 133.596 186.497C133.626 185.901 133.795 185.32 134.09 184.803C134.384 184.286 134.795 183.848 135.288 183.523Z" fill="#65C17E"/>
<path d="M140.905 180.228C141.835 179.681 142.598 180.125 142.598 181.229C142.567 181.825 142.398 182.406 142.104 182.923C141.809 183.439 141.399 183.878 140.905 184.203C139.975 184.76 139.203 184.307 139.203 183.259C139.226 182.652 139.392 182.06 139.689 181.532C139.985 181.005 140.402 180.557 140.905 180.228Z" fill="#65C17E"/>
<path d="M146.512 176.944C147.442 176.396 148.205 176.84 148.205 177.935C148.176 178.533 148.007 179.115 147.713 179.633C147.419 180.152 147.007 180.592 146.512 180.918C145.582 181.465 144.811 181.022 144.811 179.927C144.841 179.328 145.011 178.745 145.307 178.226C145.603 177.708 146.016 177.268 146.512 176.944Z" fill="#65C17E"/>
<path d="M152.12 173.696C153.05 173.139 153.822 173.592 153.822 174.64C153.792 175.239 153.622 175.821 153.326 176.34C153.03 176.859 152.617 177.299 152.12 177.623C151.19 178.17 150.428 177.727 150.428 176.679C150.457 176.081 150.625 175.499 150.92 174.98C151.214 174.462 151.625 174.021 152.12 173.696Z" fill="#65C17E"/>
<path d="M157.728 170.364C158.658 169.816 159.43 170.26 159.43 171.364C159.396 171.962 159.224 172.543 158.929 173.062C158.633 173.58 158.222 174.02 157.728 174.347C156.798 174.895 156.035 174.451 156.035 173.347C156.068 172.75 156.238 172.169 156.532 171.651C156.826 171.133 157.235 170.692 157.728 170.364Z" fill="#65C17E"/>
<path d="M163.346 167.088C164.276 166.541 165.039 166.984 165.039 168.032C165.01 168.63 164.841 169.212 164.547 169.731C164.253 170.249 163.841 170.69 163.346 171.015C162.416 171.563 161.645 171.119 161.645 170.071C161.675 169.472 161.845 168.89 162.141 168.371C162.437 167.852 162.85 167.412 163.346 167.088Z" fill="#65C17E"/>
<path d="M168.954 163.793C169.884 163.246 170.647 163.69 170.647 164.785C170.618 165.382 170.449 165.965 170.155 166.483C169.861 167.002 169.449 167.442 168.954 167.768C168.024 168.315 167.262 167.871 167.262 166.776C167.291 166.179 167.459 165.596 167.754 165.078C168.048 164.559 168.459 164.119 168.954 163.793Z" fill="#65C17E"/>
<path d="M174.562 160.48C175.492 159.932 176.264 160.376 176.264 161.481C176.23 162.078 176.058 162.66 175.763 163.178C175.467 163.696 175.056 164.136 174.562 164.464C173.632 165.011 172.869 164.567 172.869 163.463C172.903 162.866 173.074 162.286 173.368 161.768C173.662 161.25 174.07 160.809 174.562 160.48Z" fill="#65C17E"/>
<path d="M89.5968 273.439L232.9 189.423C233.525 189.102 234.214 188.935 234.914 188.935C235.614 188.935 236.303 189.102 236.927 189.423L244.256 193.718C244.499 193.802 244.71 193.961 244.859 194.172C245.009 194.384 245.089 194.638 245.089 194.898C245.089 195.159 245.009 195.412 244.859 195.624C244.71 195.836 244.499 195.995 244.256 196.078L100.934 280.085C100.309 280.406 99.6197 280.573 98.9201 280.573C98.2205 280.573 97.5307 280.406 96.9066 280.085L89.5968 275.799C89.3539 275.715 89.1429 275.557 88.9935 275.345C88.844 275.133 88.7637 274.879 88.7637 274.619C88.7637 274.359 88.844 274.105 88.9935 273.893C89.1429 273.682 89.3539 273.523 89.5968 273.439Z" fill="#525365"/>
<path d="M108.485 284.512L251.788 200.496C252.413 200.175 253.102 200.008 253.802 200.008C254.502 200.008 255.191 200.175 255.815 200.496L300.902 226.928C301.145 227.012 301.356 227.171 301.505 227.382C301.655 227.594 301.735 227.848 301.735 228.108C301.735 228.369 301.655 228.623 301.505 228.834C301.356 229.046 301.145 229.205 300.902 229.288L157.766 313.172C157.139 313.491 156.448 313.657 155.747 313.657C155.047 313.657 154.356 313.491 153.729 313.172L108.494 286.853C108.253 286.771 108.043 286.614 107.895 286.405C107.746 286.196 107.665 285.944 107.664 285.686C107.663 285.428 107.742 285.176 107.889 284.966C108.036 284.755 108.244 284.597 108.485 284.512Z" fill="#404152"/>
<path d="M236.946 238.313L241.438 235.679C241.624 235.566 241.615 235.377 241.438 235.264L236.221 232.224C236.11 232.166 235.987 232.136 235.863 232.136C235.738 232.136 235.615 232.166 235.504 232.224L231.013 234.858C230.827 234.962 230.836 235.15 231.013 235.273L236.202 238.313C236.316 238.376 236.444 238.408 236.574 238.408C236.704 238.408 236.832 238.376 236.946 238.313ZM228.092 227.863L223.61 230.487C223.414 230.6 223.424 230.789 223.61 230.912L228.799 233.951C228.911 234.007 229.033 234.036 229.157 234.036C229.281 234.036 229.404 234.007 229.515 233.951L234.007 231.318C234.193 231.204 234.184 231.016 234.007 230.902L228.781 227.882C228.675 227.825 228.558 227.794 228.439 227.791C228.319 227.788 228.201 227.812 228.092 227.863ZM213.594 236.359L206.005 240.805C205.81 240.918 205.828 241.107 206.005 241.23L211.185 244.269C211.296 244.325 211.419 244.354 211.543 244.354C211.667 244.354 211.79 244.325 211.901 244.269L219.499 239.823C219.685 239.71 219.676 239.521 219.499 239.408L214.31 236.359C214.198 236.303 214.076 236.274 213.952 236.274C213.828 236.274 213.705 236.303 213.594 236.359ZM221.536 231.705L217.044 234.339C216.858 234.442 216.867 234.631 217.044 234.754L222.271 237.794C222.382 237.849 222.504 237.878 222.629 237.878C222.753 237.878 222.875 237.849 222.987 237.794L227.469 235.16C227.665 235.047 227.655 234.858 227.469 234.744L222.271 231.724C222.159 231.66 222.034 231.624 221.906 231.621C221.777 231.618 221.65 231.646 221.536 231.705ZM203.931 242.023L199.448 244.647C199.253 244.76 199.262 244.949 199.448 245.072L204.638 248.111C204.749 248.169 204.871 248.2 204.996 248.2C205.12 248.2 205.243 248.169 205.354 248.111L209.846 245.487C210.032 245.374 210.022 245.185 209.846 245.062L204.656 242.023C204.544 241.965 204.42 241.936 204.294 241.936C204.168 241.936 204.044 241.965 203.931 242.023ZM197.374 245.865L192.892 248.489C192.697 248.602 192.706 248.791 192.892 248.914L198.091 251.954C198.202 252.009 198.324 252.038 198.449 252.038C198.573 252.038 198.695 252.009 198.807 251.954L203.299 249.32C203.485 249.207 203.475 249.018 203.299 248.904L198.091 245.884C197.981 245.823 197.859 245.789 197.735 245.786C197.61 245.783 197.487 245.81 197.374 245.865ZM217.779 258.231L222.271 255.597C222.457 255.484 222.447 255.295 222.271 255.182L217.081 252.142C216.97 252.084 216.848 252.054 216.723 252.054C216.599 252.054 216.476 252.084 216.365 252.142L211.882 254.776C211.687 254.88 211.706 255.069 211.882 255.191L217.063 258.231C217.173 258.289 217.296 258.319 217.421 258.319C217.545 258.319 217.668 258.289 217.779 258.231ZM211.269 262.073L215.761 259.439C215.947 259.326 215.937 259.147 215.761 259.024L210.571 255.984C210.46 255.927 210.338 255.896 210.213 255.896C210.089 255.896 209.966 255.927 209.855 255.984L205.372 258.618C205.177 258.731 205.187 258.911 205.372 259.034L210.562 262.073C210.665 262.122 210.778 262.148 210.892 262.148C211.006 262.148 211.119 262.122 211.222 262.073H211.269ZM204.712 265.915L209.204 263.282C209.39 263.178 209.381 262.989 209.204 262.866L204.015 259.827C203.904 259.769 203.781 259.738 203.657 259.738C203.532 259.738 203.409 259.769 203.299 259.827L198.742 262.432C198.546 262.545 198.556 262.734 198.742 262.847L203.931 265.887C204.042 265.953 204.167 265.989 204.295 265.994C204.423 265.999 204.55 265.972 204.666 265.915H204.712ZM198.202 269.757L202.694 267.124C202.88 267.02 202.871 266.831 202.694 266.708L197.505 263.669C197.393 263.613 197.271 263.584 197.147 263.584C197.022 263.584 196.9 263.613 196.789 263.669L192.297 266.302C192.111 266.416 192.12 266.604 192.297 266.718L197.486 269.757C197.582 269.798 197.685 269.819 197.788 269.819C197.892 269.819 197.995 269.798 198.091 269.757H198.202ZM230.482 242.155L234.965 239.521C235.16 239.408 235.151 239.228 234.965 239.106L229.711 236.066C229.6 236.008 229.477 235.978 229.353 235.978C229.228 235.978 229.105 236.008 228.994 236.066L224.503 238.7C224.317 238.813 224.326 238.992 224.503 239.115L229.711 242.136C229.815 242.191 229.93 242.221 230.048 242.224C230.165 242.227 230.282 242.204 230.389 242.155H230.482ZM224.437 254.427L234.361 248.517C234.547 248.404 234.537 248.215 234.361 248.102L221.722 240.72C221.611 240.662 221.488 240.632 221.364 240.632C221.239 240.632 221.117 240.662 221.006 240.72L215.835 243.75C215.64 243.863 215.649 244.052 215.835 244.175L222.512 248.083C222.717 248.206 222.726 248.395 222.512 248.499L218.374 250.925C218.179 251.038 218.197 251.227 218.374 251.349L223.563 254.389C223.683 254.456 223.817 254.491 223.954 254.491C224.09 254.491 224.225 254.456 224.344 254.389L224.437 254.427ZM190.958 249.707L186.466 252.341C186.28 252.444 186.289 252.633 186.466 252.756L191.581 255.824C191.692 255.88 191.814 255.909 191.939 255.909C192.063 255.909 192.185 255.88 192.297 255.824L196.779 253.19C196.975 253.077 196.965 252.888 196.779 252.775L191.581 249.726C191.466 249.657 191.335 249.619 191.202 249.615C191.068 249.612 190.936 249.644 190.818 249.707H190.958ZM184.401 253.549L179.909 256.183C179.723 256.296 179.732 256.475 179.909 256.598L185.099 259.638C185.209 259.696 185.332 259.726 185.457 259.726C185.581 259.726 185.704 259.696 185.815 259.638L190.297 257.004C190.493 256.891 190.483 256.702 190.297 256.589L185.108 253.549C184.982 253.466 184.835 253.423 184.685 253.423C184.535 253.423 184.388 253.466 184.262 253.549H184.401ZM151.628 296.643C151.739 296.7 151.861 296.731 151.986 296.731C152.11 296.731 152.233 296.7 152.344 296.643L156.836 294.009C157.022 293.896 157.013 293.707 156.836 293.593L151.646 290.554C151.536 290.496 151.413 290.466 151.288 290.466C151.164 290.466 151.041 290.496 150.93 290.554L146.448 293.187C146.252 293.291 146.262 293.48 146.448 293.603L151.628 296.643ZM131.94 284.295L127.308 286.976C127.122 287.08 127.132 287.269 127.308 287.391L132.498 290.431C132.609 290.487 132.732 290.516 132.856 290.516C132.98 290.516 133.102 290.487 133.214 290.431L137.696 287.797C137.892 287.684 137.882 287.495 137.696 287.382L132.507 284.342C132.401 284.278 132.282 284.241 132.159 284.233C132.036 284.224 131.913 284.246 131.8 284.295H131.94ZM142.495 293.31C142.606 293.368 142.729 293.398 142.853 293.398C142.978 293.398 143.101 293.368 143.211 293.31L147.694 290.676C147.889 290.563 147.871 290.374 147.694 290.261L142.505 287.221C142.394 287.163 142.271 287.133 142.146 287.133C142.022 287.133 141.899 287.163 141.788 287.221L137.306 289.855C137.12 289.968 137.129 290.148 137.306 290.271L142.495 293.31ZM163.206 298.974L167.698 296.34C167.884 296.227 167.875 296.038 167.698 295.925L162.509 292.885C162.398 292.827 162.275 292.797 162.151 292.797C162.026 292.797 161.903 292.827 161.793 292.885L157.171 295.472C156.975 295.576 156.985 295.765 157.171 295.887L162.36 298.927C162.466 298.99 162.585 299.028 162.707 299.038C162.829 299.048 162.952 299.029 163.067 298.984L163.206 298.974ZM155.934 302.75C156.044 302.808 156.167 302.838 156.292 302.838C156.416 302.838 156.539 302.808 156.65 302.75L161.142 300.116C161.328 300.003 161.318 299.814 161.142 299.701L155.952 296.661C155.842 296.603 155.719 296.573 155.594 296.573C155.47 296.573 155.347 296.603 155.236 296.661L150.744 299.295C150.558 299.399 150.568 299.588 150.744 299.711L155.934 302.75ZM138.496 280.396L134.004 283.021C133.818 283.134 133.828 283.323 134.004 283.445L139.194 286.485C139.305 286.541 139.428 286.57 139.552 286.57C139.676 286.57 139.798 286.541 139.91 286.485L144.392 283.851C144.588 283.738 144.578 283.549 144.392 283.436L139.203 280.387C139.07 280.317 138.92 280.287 138.771 280.298C138.621 280.31 138.478 280.363 138.357 280.453L138.496 280.396ZM171.121 261.233L166.629 263.867C166.443 263.98 166.452 264.169 166.629 264.282L171.818 267.322C171.929 267.38 172.052 267.41 172.176 267.41C172.301 267.41 172.424 267.38 172.534 267.322L177.017 264.688C177.212 264.584 177.194 264.395 177.017 264.273L171.827 261.233C171.718 261.177 171.597 261.148 171.474 261.148C171.351 261.148 171.23 261.177 171.121 261.233ZM144.913 276.592L140.431 279.235C140.235 279.348 140.245 279.537 140.431 279.66L145.62 282.7C145.731 282.758 145.853 282.788 145.978 282.788C146.103 282.788 146.225 282.758 146.336 282.7L150.828 280.075C151.014 279.962 151.005 279.773 150.828 279.651L145.629 276.592C145.518 276.536 145.395 276.507 145.271 276.507C145.147 276.507 145.025 276.536 144.913 276.592ZM177.705 257.372L173.213 260.006C173.027 260.119 173.036 260.308 173.213 260.421L178.403 263.461C178.513 263.519 178.636 263.549 178.761 263.549C178.885 263.549 179.008 263.519 179.119 263.461L183.601 260.827C183.797 260.714 183.778 260.535 183.601 260.412L178.412 257.372C178.301 257.319 178.179 257.292 178.056 257.296C177.933 257.299 177.813 257.332 177.705 257.391V257.372ZM164.611 265.075L160.128 267.709C159.933 267.822 159.951 268.011 160.128 268.124L165.317 271.164C165.428 271.222 165.551 271.252 165.675 271.252C165.8 271.252 165.923 271.222 166.034 271.164L170.516 268.54C170.702 268.426 170.693 268.238 170.516 268.115L165.327 265.075C165.215 265.019 165.093 264.99 164.969 264.99C164.844 264.99 164.722 265.019 164.611 265.075ZM158.054 268.927L153.572 271.551C153.376 271.664 153.395 271.853 153.572 271.966L158.752 275.015C158.863 275.071 158.985 275.1 159.11 275.1C159.234 275.1 159.356 275.071 159.468 275.015L163.96 272.391C164.146 272.278 164.136 272.089 163.96 271.966L158.77 268.927C158.656 268.864 158.528 268.831 158.398 268.831C158.268 268.831 158.14 268.864 158.026 268.927H158.054ZM151.544 272.769L147.062 275.393C146.866 275.506 146.876 275.695 147.062 275.818L152.251 278.858C152.362 278.913 152.485 278.942 152.609 278.942C152.733 278.942 152.856 278.913 152.967 278.858L157.459 276.233C157.645 276.12 157.636 275.931 157.459 275.808L152.186 272.816C152.074 272.76 151.952 272.731 151.828 272.731C151.704 272.731 151.581 272.76 151.47 272.816L151.544 272.769ZM185.024 277.442L189.507 274.817C189.702 274.704 189.683 274.515 189.507 274.392L184.317 271.353C184.207 271.295 184.084 271.265 183.959 271.265C183.835 271.265 183.712 271.295 183.601 271.353L179.109 273.977C178.923 274.09 178.933 274.279 179.109 274.402L184.299 277.442C184.408 277.494 184.527 277.522 184.647 277.522C184.768 277.522 184.887 277.494 184.996 277.442H185.024ZM242.619 219.367L238.081 222C237.895 222.104 237.904 222.293 238.081 222.416L243.27 225.455C243.381 225.511 243.504 225.54 243.628 225.54C243.752 225.54 243.875 225.511 243.986 225.455L248.469 222.822C248.664 222.708 248.655 222.52 248.469 222.406L243.279 219.367C243.172 219.313 243.054 219.286 242.935 219.286C242.816 219.286 242.698 219.313 242.591 219.367H242.619ZM234.677 224.021L230.194 226.645C229.999 226.758 230.008 226.947 230.194 227.07L235.384 230.109C235.494 230.167 235.617 230.198 235.742 230.198C235.866 230.198 235.989 230.167 236.1 230.109L240.592 227.485C240.778 227.372 240.768 227.183 240.592 227.06L235.402 224.021C235.286 223.959 235.157 223.926 235.026 223.926C234.894 223.926 234.765 223.959 234.649 224.021H234.677ZM249.175 215.525L244.684 218.149C244.498 218.262 244.507 218.451 244.684 218.574L249.873 221.613C249.984 221.669 250.107 221.698 250.231 221.698C250.355 221.698 250.478 221.669 250.589 221.613L255.072 218.98C255.267 218.866 255.258 218.678 255.072 218.564L249.882 215.515C249.768 215.458 249.642 215.429 249.514 215.43C249.386 215.432 249.261 215.464 249.148 215.525H249.175ZM215.203 251.104L219.694 248.47C219.88 248.357 219.871 248.168 219.694 248.055L214.505 245.006C214.394 244.95 214.271 244.921 214.147 244.921C214.023 244.921 213.9 244.95 213.789 245.006L209.251 247.573C209.065 247.687 209.074 247.875 209.251 247.998L214.44 251.038C214.552 251.112 214.68 251.157 214.813 251.168C214.946 251.18 215.08 251.158 215.203 251.104ZM256.42 211.739C256.309 211.683 256.186 211.654 256.062 211.654C255.938 211.654 255.815 211.683 255.704 211.739L251.221 214.288C251.026 214.401 251.035 214.59 251.221 214.713L256.411 217.752C256.522 217.81 256.644 217.841 256.769 217.841C256.894 217.841 257.016 217.81 257.127 217.752L261.619 215.128C261.805 215.015 261.796 214.826 261.619 214.703L256.42 211.739ZM191.581 273.599L196.063 270.975C196.259 270.862 196.249 270.673 196.063 270.55L190.874 267.511C190.762 267.455 190.64 267.426 190.516 267.426C190.392 267.426 190.269 267.455 190.158 267.511L185.666 270.144C185.48 270.258 185.489 270.447 185.666 270.56L190.855 273.609C190.968 273.665 191.093 273.693 191.219 273.691C191.345 273.69 191.469 273.658 191.581 273.599ZM271.998 226.475L276.48 223.841C276.676 223.728 276.666 223.539 276.48 223.426L271.291 220.386C271.18 220.328 271.057 220.298 270.933 220.298C270.808 220.298 270.686 220.328 270.575 220.386L266.083 223.02C265.897 223.124 265.906 223.313 266.083 223.435L271.272 226.475C271.381 226.53 271.5 226.558 271.621 226.558C271.742 226.558 271.861 226.53 271.97 226.475H271.998ZM258.048 225.975L262.53 223.341C262.726 223.228 262.716 223.039 262.53 222.926L257.341 219.886C257.23 219.828 257.107 219.798 256.983 219.798C256.858 219.798 256.736 219.828 256.625 219.886L252.031 222.501C251.845 222.605 251.854 222.793 252.031 222.916L257.22 225.956C257.337 226.028 257.471 226.068 257.608 226.072C257.745 226.075 257.881 226.041 258.001 225.975H258.048ZM263.879 216.034C263.767 215.979 263.645 215.95 263.521 215.95C263.397 215.95 263.274 215.979 263.163 216.034L258.671 218.659C258.485 218.772 258.494 218.961 258.671 219.083L263.86 222.123C263.972 222.179 264.094 222.208 264.218 222.208C264.342 222.208 264.465 222.179 264.576 222.123L269.068 219.489C269.254 219.376 269.245 219.187 269.068 219.074L263.879 216.034ZM265.255 215.232L277.857 222.614C277.968 222.67 278.091 222.699 278.215 222.699C278.339 222.699 278.461 222.67 278.573 222.614L283.065 219.98C283.251 219.867 283.241 219.678 283.065 219.565L270.463 212.173C270.352 212.118 270.229 212.089 270.105 212.089C269.981 212.089 269.858 212.118 269.747 212.173L265.264 214.798C264.995 214.92 265.051 215.109 265.209 215.232H265.255ZM250.05 223.728L245.521 226.343C245.335 226.456 245.344 226.635 245.521 226.758L250.71 229.798C250.821 229.856 250.943 229.886 251.068 229.886C251.193 229.886 251.315 229.856 251.426 229.798L255.909 227.164C256.104 227.051 256.095 226.871 255.909 226.749L250.719 223.728C250.609 223.67 250.486 223.64 250.361 223.64C250.237 223.64 250.114 223.67 250.003 223.728H250.05ZM200.695 252.652L196.203 255.286C196.017 255.399 196.026 255.579 196.203 255.701L201.392 258.741C201.503 258.799 201.626 258.829 201.75 258.829C201.875 258.829 201.997 258.799 202.108 258.741L206.591 256.107C206.786 255.994 206.768 255.815 206.591 255.692L201.411 252.652C201.296 252.583 201.165 252.545 201.032 252.542C200.898 252.538 200.766 252.57 200.648 252.633L200.695 252.652ZM264.697 230.336C264.808 230.394 264.931 230.424 265.055 230.424C265.18 230.424 265.303 230.394 265.413 230.336L269.896 227.702C270.091 227.589 270.082 227.41 269.896 227.287L264.706 224.247C264.596 224.189 264.473 224.159 264.348 224.159C264.224 224.159 264.101 224.189 263.99 224.247L259.471 226.843C259.285 226.956 259.294 227.136 259.471 227.259L264.697 230.336ZM207.205 248.791L202.741 251.425C202.555 251.529 202.564 251.718 202.741 251.84L207.93 254.88C208.041 254.938 208.163 254.968 208.288 254.968C208.413 254.968 208.535 254.938 208.646 254.88L213.129 252.246C213.324 252.133 213.315 251.944 213.129 251.831L207.939 248.791C207.826 248.73 207.7 248.698 207.572 248.698C207.444 248.698 207.318 248.73 207.205 248.791ZM158.045 292.8C158.156 292.856 158.279 292.885 158.403 292.885C158.527 292.885 158.65 292.856 158.761 292.8L163.253 290.167C163.439 290.053 163.43 289.865 163.253 289.751L158.063 286.712C157.953 286.654 157.83 286.623 157.705 286.623C157.581 286.623 157.458 286.654 157.347 286.712L152.865 289.345C152.669 289.449 152.679 289.638 152.865 289.761L158.045 292.8ZM148.187 283.36L143.695 286.032C143.509 286.136 143.518 286.325 143.695 286.447L148.884 289.487C148.996 289.543 149.118 289.572 149.242 289.572C149.367 289.572 149.489 289.543 149.6 289.487L154.083 286.853C154.278 286.74 154.26 286.551 154.083 286.438L148.903 283.398C148.794 283.337 148.672 283.304 148.547 283.301C148.423 283.297 148.299 283.324 148.187 283.379V283.36ZM165.317 288.958L169.809 286.325C169.995 286.211 169.986 286.023 169.809 285.909L164.611 282.879C164.499 282.823 164.377 282.794 164.253 282.794C164.128 282.794 164.006 282.823 163.895 282.879L159.412 285.503C159.217 285.617 159.235 285.805 159.412 285.928L164.611 288.958C164.719 289.016 164.839 289.047 164.962 289.05C165.084 289.054 165.206 289.029 165.317 288.977V288.958ZM171.883 285.107L176.366 282.483C176.552 282.369 176.543 282.18 176.366 282.058L171.121 279.037C171.009 278.981 170.887 278.952 170.763 278.952C170.638 278.952 170.516 278.981 170.405 279.037L165.922 281.661C165.727 281.775 165.745 281.963 165.922 282.086L171.111 285.126C171.232 285.188 171.367 285.217 171.502 285.211C171.638 285.204 171.769 285.162 171.883 285.088V285.107ZM178.44 281.265L182.922 278.64C183.118 278.527 183.099 278.338 182.922 278.216L177.733 275.176C177.623 275.12 177.502 275.091 177.38 275.091C177.257 275.091 177.136 275.12 177.026 275.176L172.534 277.8C172.348 277.914 172.358 278.102 172.534 278.225L177.724 281.312C177.835 281.368 177.957 281.397 178.082 281.397C178.206 281.397 178.328 281.368 178.44 281.312V281.265ZM154.743 279.518L150.251 282.143C150.065 282.256 150.075 282.445 150.251 282.567L155.441 285.607C155.552 285.663 155.675 285.692 155.799 285.692C155.923 285.692 156.046 285.663 156.157 285.607L160.64 282.973C160.835 282.86 160.826 282.671 160.64 282.558L155.45 279.509C155.338 279.459 155.216 279.436 155.093 279.441C154.971 279.445 154.851 279.479 154.743 279.537V279.518ZM161.3 275.676L156.808 278.301C156.622 278.414 156.631 278.603 156.808 278.725L161.997 281.765C162.108 281.823 162.231 281.853 162.355 281.853C162.48 281.853 162.603 281.823 162.713 281.765L167.196 279.141C167.391 279.027 167.382 278.839 167.196 278.716L162.007 275.676C161.895 275.625 161.774 275.6 161.651 275.603C161.529 275.606 161.409 275.638 161.3 275.695V275.676ZM187.526 260.299L183.043 262.932C182.848 263.046 182.867 263.234 183.043 263.348L188.233 266.387C188.342 266.445 188.463 266.475 188.586 266.475C188.709 266.475 188.83 266.445 188.939 266.387L193.431 263.754C193.617 263.65 193.608 263.461 193.431 263.338L188.242 260.299C188.129 260.246 188.006 260.22 187.882 260.223C187.757 260.226 187.636 260.259 187.526 260.317V260.299ZM181.016 264.141L176.533 266.774C176.338 266.888 176.357 267.076 176.533 267.19L181.713 270.239C181.825 270.295 181.947 270.324 182.071 270.324C182.196 270.324 182.318 270.295 182.429 270.239L186.921 267.615C187.107 267.501 187.098 267.312 186.921 267.19L181.732 264.15C181.614 264.088 181.482 264.056 181.349 264.058C181.216 264.059 181.086 264.094 180.969 264.159L181.016 264.141ZM194.138 256.456L189.646 259.09C189.46 259.203 189.47 259.392 189.646 259.506L194.836 262.545C194.946 262.603 195.069 262.633 195.194 262.633C195.318 262.633 195.441 262.603 195.552 262.545L200.034 259.911C200.23 259.808 200.211 259.619 200.034 259.496L194.845 256.456C194.728 256.393 194.598 256.362 194.466 256.365C194.334 256.368 194.205 256.406 194.092 256.475L194.138 256.456ZM167.856 271.872L163.374 274.496C163.178 274.61 163.188 274.798 163.374 274.921L168.563 277.961C168.674 278.017 168.797 278.046 168.921 278.046C169.045 278.046 169.168 278.017 169.279 277.961L173.771 275.336C173.957 275.223 173.948 275.034 173.771 274.912L168.572 271.872C168.461 271.816 168.339 271.787 168.214 271.787C168.09 271.787 167.968 271.816 167.856 271.872ZM174.366 268.03L169.884 270.654C169.688 270.767 169.698 270.956 169.884 271.079L175.073 274.119C175.184 274.174 175.307 274.203 175.431 274.203C175.555 274.203 175.678 274.174 175.789 274.119L180.281 271.494C180.467 271.381 180.458 271.192 180.281 271.07L175.092 268.03C174.987 267.975 174.872 267.945 174.754 267.942C174.637 267.938 174.52 267.962 174.413 268.011L174.366 268.03ZM169.577 295.16L174.069 292.527C174.255 292.413 174.245 292.225 174.069 292.111L168.879 289.062C168.768 289.006 168.645 288.977 168.521 288.977C168.397 288.977 168.275 289.006 168.163 289.062L163.681 291.696C163.485 291.809 163.495 291.998 163.681 292.121L168.861 295.16C168.98 295.221 169.111 295.251 169.244 295.248C169.377 295.245 169.508 295.208 169.623 295.142L169.577 295.16ZM131.131 291.196L125.951 288.156C125.84 288.098 125.717 288.068 125.592 288.068C125.468 288.068 125.345 288.098 125.234 288.156L120.752 290.752C120.566 290.856 120.575 291.045 120.752 291.167L125.941 294.207C126.052 294.265 126.175 294.295 126.299 294.295C126.424 294.295 126.547 294.265 126.657 294.207L131.14 291.573C131.363 291.498 131.345 291.309 131.131 291.196ZM140.961 294.122L135.781 291.082C135.67 291.024 135.547 290.994 135.423 290.994C135.298 290.994 135.175 291.024 135.065 291.082L128.164 295.132C127.978 295.245 127.987 295.425 128.164 295.547L133.353 298.587C133.464 298.645 133.587 298.675 133.711 298.675C133.836 298.675 133.959 298.645 134.069 298.587L140.97 294.537C141.184 294.424 141.175 294.245 140.97 294.122H140.961ZM123.179 285.315L117.999 282.256C117.888 282.2 117.765 282.171 117.641 282.171C117.517 282.171 117.394 282.2 117.283 282.256L111.759 285.494C111.563 285.607 111.582 285.796 111.759 285.919L116.939 288.958C117.05 289.014 117.173 289.043 117.297 289.043C117.421 289.043 117.544 289.014 117.655 288.958L123.179 285.72C123.402 285.626 123.393 285.437 123.188 285.315H123.179ZM127.411 282.832C127.521 282.89 127.644 282.92 127.769 282.92C127.893 282.92 128.016 282.89 128.127 282.832L132.609 280.198C132.805 280.085 132.786 279.905 132.609 279.783L127.411 276.762C127.3 276.704 127.177 276.674 127.053 276.674C126.928 276.674 126.805 276.704 126.695 276.762L122.203 279.424C122.017 279.537 122.026 279.717 122.203 279.839L127.411 282.832ZM150.103 297.454L144.913 294.415C144.803 294.357 144.68 294.327 144.555 294.327C144.431 294.327 144.308 294.357 144.197 294.415L135.567 299.475C135.381 299.588 135.39 299.777 135.567 299.89L140.756 302.93C140.867 302.988 140.99 303.018 141.114 303.018C141.239 303.018 141.361 302.988 141.472 302.93L150.093 297.87C150.326 297.756 150.317 297.577 150.112 297.454H150.103ZM154.409 303.619L149.219 300.579C149.108 300.521 148.986 300.491 148.861 300.491C148.736 300.491 148.614 300.521 148.503 300.579L142.979 303.817C142.793 303.93 142.802 304.119 142.979 304.232L148.168 307.281C148.28 307.337 148.402 307.366 148.526 307.366C148.65 307.366 148.773 307.337 148.884 307.281L154.399 304.043C154.632 303.968 154.622 303.741 154.381 303.619H154.409ZM176.161 254.257C176.272 254.315 176.395 254.345 176.519 254.345C176.644 254.345 176.767 254.315 176.877 254.257L181.369 251.623C181.555 251.519 181.546 251.331 181.369 251.208L176.18 248.168C176.069 248.11 175.946 248.08 175.822 248.08C175.697 248.08 175.574 248.11 175.464 248.168L170.981 250.802C170.786 250.915 170.804 251.104 170.981 251.217L176.161 254.257ZM163.048 261.951C163.16 262.006 163.282 262.035 163.406 262.035C163.53 262.035 163.653 262.006 163.764 261.951L168.256 259.326C168.442 259.213 168.433 259.024 168.256 258.901L163.067 255.862C162.955 255.806 162.833 255.777 162.709 255.777C162.585 255.777 162.462 255.806 162.351 255.862L157.868 258.495C157.673 258.609 157.682 258.798 157.868 258.911L163.048 261.951ZM133.967 278.99C134.078 279.048 134.201 279.078 134.325 279.078C134.45 279.078 134.573 279.048 134.683 278.99L139.166 276.356C139.361 276.243 139.352 276.054 139.166 275.941L133.976 272.901C133.866 272.843 133.743 272.813 133.618 272.813C133.494 272.813 133.371 272.843 133.26 272.901L128.768 275.535C128.582 275.639 128.592 275.827 128.768 275.95L133.967 278.99ZM169.605 258.099C169.715 258.157 169.838 258.187 169.963 258.187C170.087 258.187 170.21 258.157 170.321 258.099L174.813 255.465C174.999 255.361 174.989 255.173 174.813 255.05L169.605 252.048C169.493 251.992 169.371 251.963 169.247 251.963C169.122 251.963 169 251.992 168.889 252.048L164.406 254.682C164.211 254.795 164.22 254.984 164.406 255.097L169.605 258.099ZM156.492 265.793C156.603 265.848 156.726 265.877 156.85 265.877C156.974 265.877 157.096 265.848 157.208 265.793L161.7 263.168C161.886 263.055 161.876 262.866 161.7 262.743L156.51 259.704C156.4 259.646 156.277 259.616 156.152 259.616C156.028 259.616 155.905 259.646 155.794 259.704L151.302 262.328C151.116 262.441 151.126 262.63 151.302 262.753L156.492 265.793ZM158.008 304.11C157.897 304.052 157.774 304.021 157.65 304.021C157.525 304.021 157.402 304.052 157.292 304.11L150.391 308.15C150.205 308.263 150.214 308.452 150.391 308.575L155.58 311.614C155.692 311.67 155.814 311.699 155.938 311.699C156.063 311.699 156.185 311.67 156.296 311.614L163.197 307.574C163.383 307.461 163.374 307.272 163.197 307.149L158.008 304.11ZM147.089 271.306C147.2 271.364 147.323 271.394 147.447 271.394C147.572 271.394 147.695 271.364 147.806 271.306L152.297 268.681C152.483 268.568 152.474 268.379 152.297 268.256L147.08 265.264C146.969 265.208 146.846 265.179 146.722 265.179C146.598 265.179 146.475 265.208 146.364 265.264L141.881 267.888C141.686 268.002 141.695 268.19 141.881 268.313L147.089 271.306ZM140.579 275.148C140.691 275.203 140.813 275.232 140.937 275.232C141.062 275.232 141.184 275.203 141.296 275.148L145.778 272.514C145.973 272.401 145.964 272.212 145.778 272.099L140.524 269.04C140.413 268.982 140.29 268.952 140.166 268.952C140.041 268.952 139.918 268.982 139.808 269.04L135.316 271.664C135.13 271.778 135.139 271.966 135.316 272.089L140.579 275.148ZM279.559 232.913C279.447 232.857 279.325 232.828 279.201 232.828C279.076 232.828 278.954 232.857 278.842 232.913L267.794 239.389C267.608 239.502 267.617 239.691 267.794 239.814L272.983 242.853C273.095 242.909 273.217 242.938 273.342 242.938C273.466 242.938 273.588 242.909 273.7 242.853L284.739 236.378C284.934 236.274 284.925 236.085 284.739 235.962L279.559 232.913ZM265.06 241.409C264.949 241.351 264.826 241.321 264.702 241.321C264.577 241.321 264.454 241.351 264.344 241.409L259.861 244.043C259.666 244.156 259.675 244.345 259.861 244.458L265.051 247.498C265.161 247.556 265.284 247.586 265.409 247.586C265.533 247.586 265.656 247.556 265.767 247.498L270.259 244.864C270.445 244.76 270.435 244.571 270.259 244.449L265.06 241.409ZM176.226 291.29L180.718 288.666C180.904 288.552 180.895 288.364 180.718 288.241L175.529 285.201C175.417 285.145 175.295 285.116 175.171 285.116C175.047 285.116 174.924 285.145 174.813 285.201L170.33 287.826C170.135 287.939 170.153 288.128 170.33 288.25L175.52 291.29C175.623 291.34 175.735 291.366 175.85 291.366C175.964 291.366 176.077 291.34 176.18 291.29H176.226ZM251.947 249.093C251.836 249.035 251.713 249.005 251.589 249.005C251.464 249.005 251.342 249.035 251.231 249.093L246.739 251.718C246.553 251.831 246.562 252.02 246.739 252.142L251.928 255.182C252.04 255.238 252.162 255.267 252.286 255.267C252.411 255.267 252.533 255.238 252.644 255.182L257.127 252.558C257.322 252.444 257.313 252.256 257.127 252.133L251.947 249.093ZM286.115 229.071C286.004 229.013 285.882 228.983 285.757 228.983C285.632 228.983 285.51 229.013 285.399 229.071L280.861 231.686C280.675 231.799 280.684 231.988 280.861 232.101L286.05 235.141C286.161 235.199 286.283 235.229 286.408 235.229C286.533 235.229 286.655 235.199 286.766 235.141L291.249 232.507C291.444 232.403 291.435 232.215 291.249 232.092L286.115 229.071ZM297.861 228.269L285.213 220.896C285.102 220.838 284.98 220.808 284.855 220.808C284.73 220.808 284.608 220.838 284.497 220.896L280.014 223.53C279.819 223.634 279.828 223.822 280.014 223.945L292.634 231.28C292.745 231.338 292.868 231.368 292.992 231.368C293.117 231.368 293.24 231.338 293.35 231.28L297.842 228.646C298.028 228.571 298.019 228.391 297.814 228.269H297.861ZM227.441 263.451C227.33 263.396 227.208 263.367 227.083 263.367C226.959 263.367 226.837 263.396 226.725 263.451L221.201 266.689C221.006 266.793 221.024 266.982 221.201 267.105L226.39 270.144C226.501 270.202 226.624 270.233 226.749 270.233C226.873 270.233 226.996 270.202 227.107 270.144L232.622 266.907C232.817 266.793 232.808 266.604 232.622 266.491L227.441 263.451ZM244.005 253.747C243.893 253.691 243.771 253.662 243.647 253.662C243.522 253.662 243.4 253.691 243.289 253.747L236.388 257.797C236.193 257.91 236.211 258.099 236.388 258.212L241.577 261.252C241.688 261.31 241.811 261.34 241.935 261.34C242.06 261.34 242.183 261.31 242.293 261.252L249.194 257.202C249.38 257.098 249.371 256.91 249.194 256.787L244.005 253.747ZM212.254 272.353C212.144 272.295 212.021 272.265 211.896 272.265C211.772 272.265 211.649 272.295 211.538 272.353L174.562 293.98C174.366 294.094 174.385 294.283 174.562 294.405L179.742 297.445C179.853 297.501 179.976 297.53 180.1 297.53C180.224 297.53 180.346 297.501 180.458 297.445L217.388 275.808C217.583 275.695 217.574 275.506 217.388 275.384L212.254 272.353ZM173.25 295.208C173.139 295.152 173.016 295.123 172.892 295.123C172.768 295.123 172.646 295.152 172.534 295.208L167.01 298.446C166.824 298.549 166.833 298.738 167.01 298.861L172.199 301.901C172.31 301.959 172.433 301.989 172.557 301.989C172.682 301.989 172.805 301.959 172.916 301.901L178.44 298.663C178.626 298.549 178.616 298.361 178.44 298.247L173.25 295.208ZM219.843 267.907C219.733 267.849 219.61 267.819 219.485 267.819C219.361 267.819 219.238 267.849 219.127 267.907L213.612 271.145C213.417 271.258 213.426 271.447 213.612 271.56L218.802 274.61C218.913 274.665 219.036 274.694 219.16 274.694C219.284 274.694 219.406 274.665 219.518 274.61L225.042 271.372C225.228 271.258 225.219 271.079 225.042 270.956L219.843 267.907ZM165.662 299.663C165.551 299.605 165.428 299.575 165.303 299.575C165.179 299.575 165.056 299.605 164.945 299.663L159.421 302.901C159.226 303.015 159.245 303.203 159.421 303.317L164.611 306.366C164.72 306.421 164.841 306.45 164.964 306.45C165.087 306.45 165.208 306.421 165.317 306.366L170.842 303.128C171.037 303.015 171.028 302.835 170.842 302.712L165.662 299.663ZM235.03 259.005C234.919 258.949 234.796 258.92 234.672 258.92C234.548 258.92 234.425 258.949 234.314 259.005L228.781 262.224C228.595 262.338 228.604 262.526 228.781 262.649L233.97 265.689C234.081 265.747 234.203 265.777 234.328 265.777C234.453 265.777 234.575 265.747 234.686 265.689L240.21 262.46C240.396 262.347 240.387 262.158 240.21 262.035L235.03 259.005ZM258.503 245.251C258.392 245.195 258.27 245.166 258.145 245.166C258.021 245.166 257.899 245.195 257.787 245.251L253.295 247.885C253.109 247.998 253.119 248.187 253.295 248.3L258.485 251.349C258.596 251.405 258.719 251.434 258.843 251.434C258.967 251.434 259.09 251.405 259.201 251.349L263.683 248.725C263.879 248.612 263.869 248.423 263.683 248.3L258.503 245.251ZM272.872 234.659L277.354 232.026C277.55 231.922 277.54 231.733 277.354 231.61L272.165 228.571C272.054 228.513 271.932 228.482 271.807 228.482C271.682 228.482 271.56 228.513 271.449 228.571L266.911 231.186C266.725 231.299 266.734 231.488 266.911 231.601L272.1 234.641C272.21 234.703 272.334 234.737 272.46 234.741C272.587 234.744 272.712 234.716 272.825 234.659H272.872ZM243.549 234.471L248.041 231.837C248.227 231.724 248.218 231.535 248.041 231.422L242.852 228.382C242.741 228.324 242.618 228.294 242.493 228.294C242.369 228.294 242.246 228.324 242.135 228.382L237.653 231.006C237.457 231.119 237.467 231.308 237.653 231.431L242.842 234.471C242.946 234.518 243.059 234.542 243.172 234.542C243.286 234.542 243.399 234.518 243.502 234.471H243.549ZM228.669 260.553L241.782 252.86C241.968 252.756 241.959 252.567 241.782 252.444L236.593 249.405C236.482 249.347 236.359 249.317 236.235 249.317C236.11 249.317 235.987 249.347 235.877 249.405L222.763 257.089C222.568 257.202 222.587 257.391 222.763 257.514L227.953 260.553C228.062 260.605 228.182 260.631 228.303 260.629C228.423 260.627 228.542 260.598 228.65 260.544L228.669 260.553ZM265.571 238.483C265.682 238.541 265.805 238.571 265.929 238.571C266.054 238.571 266.177 238.541 266.287 238.483L270.77 235.858C270.965 235.745 270.947 235.556 270.77 235.434L265.59 232.394C265.479 232.338 265.356 232.309 265.232 232.309C265.108 232.309 264.985 232.338 264.874 232.394L260.335 235.056C260.149 235.169 260.159 235.358 260.335 235.471L265.571 238.483ZM258.875 234.159L263.358 231.525C263.553 231.422 263.544 231.233 263.358 231.11L258.178 228.07C258.067 228.012 257.944 227.982 257.82 227.982C257.695 227.982 257.573 228.012 257.462 228.07L252.961 230.685C252.775 230.799 252.784 230.987 252.961 231.101L258.15 234.14C258.258 234.2 258.378 234.232 258.501 234.236C258.624 234.239 258.746 234.213 258.857 234.159H258.875ZM222.103 264.367L226.595 261.733C226.781 261.62 226.772 261.431 226.595 261.318L221.341 258.307C221.23 258.249 221.107 258.219 220.983 258.219C220.858 258.219 220.735 258.249 220.624 258.307L216.142 260.94C215.947 261.044 215.965 261.233 216.142 261.356L221.322 264.395C221.439 264.459 221.57 264.492 221.703 264.492C221.836 264.492 221.967 264.459 222.085 264.395L222.103 264.367ZM251.101 246.979C251.211 247.037 251.334 247.067 251.459 247.067C251.583 247.067 251.706 247.037 251.817 246.979L256.299 244.345C256.495 244.241 256.485 244.052 256.299 243.93L251.11 240.89C250.999 240.832 250.876 240.802 250.752 240.802C250.627 240.802 250.505 240.832 250.394 240.89L245.837 243.552C245.651 243.665 245.66 243.854 245.837 243.967L251.101 246.979ZM189.349 283.606L193.831 280.982C194.027 280.868 194.008 280.679 193.831 280.557L188.577 277.536C188.466 277.478 188.343 277.448 188.219 277.448C188.094 277.448 187.971 277.478 187.861 277.536L183.369 280.16C183.183 280.274 183.192 280.462 183.369 280.585L188.558 283.625C188.675 283.682 188.803 283.711 188.932 283.707C189.062 283.704 189.189 283.669 189.302 283.606H189.349ZM195.859 279.764L200.341 277.139C200.536 277.026 200.527 276.837 200.341 276.715L195.152 273.675C195.04 273.619 194.918 273.59 194.794 273.59C194.67 273.59 194.547 273.619 194.436 273.675L189.944 276.309C189.758 276.422 189.767 276.611 189.944 276.724L195.133 279.764C195.245 279.823 195.37 279.854 195.496 279.854C195.622 279.854 195.747 279.823 195.859 279.764ZM182.746 287.448L187.228 284.824C187.424 284.71 187.405 284.522 187.228 284.399L182.039 281.359C181.927 281.303 181.805 281.274 181.681 281.274C181.557 281.274 181.434 281.303 181.323 281.359L176.84 283.983C176.654 284.097 176.663 284.286 176.84 284.408L182.03 287.448C182.141 287.504 182.263 287.533 182.388 287.533C182.512 287.533 182.634 287.504 182.746 287.448ZM208.972 272.08L213.463 269.446C213.649 269.333 213.64 269.153 213.463 269.031L208.274 265.991C208.163 265.933 208.041 265.903 207.916 265.903C207.791 265.903 207.669 265.933 207.558 265.991L203.075 268.625C202.88 268.738 202.889 268.917 203.075 269.04L208.265 272.08C208.374 272.136 208.495 272.165 208.618 272.165C208.741 272.165 208.862 272.136 208.972 272.08ZM202.462 275.922L206.944 273.288C207.14 273.184 207.13 272.995 206.944 272.873L201.755 269.833C201.644 269.775 201.521 269.745 201.397 269.745C201.272 269.745 201.149 269.775 201.039 269.833L196.547 272.467C196.361 272.58 196.37 272.769 196.547 272.882L201.736 275.922C201.842 275.974 201.958 276 202.076 276C202.193 276 202.309 275.974 202.415 275.922H202.462ZM215.575 268.238L220.066 265.604C220.253 265.491 220.243 265.302 220.066 265.188L214.831 262.149C214.72 262.091 214.597 262.061 214.473 262.061C214.348 262.061 214.225 262.091 214.114 262.149L209.632 264.783C209.437 264.886 209.446 265.075 209.632 265.198L214.821 268.238C214.931 268.294 215.052 268.323 215.175 268.323C215.297 268.323 215.419 268.294 215.528 268.238H215.575ZM245.521 211.38C245.631 211.438 245.754 211.469 245.879 211.469C246.003 211.469 246.126 211.438 246.237 211.38L250.729 208.747C250.915 208.633 250.905 208.454 250.729 208.331L249.343 207.519C249.232 207.462 249.109 207.431 248.985 207.431C248.86 207.431 248.738 207.462 248.627 207.519L244.144 210.144C243.958 210.257 243.967 210.446 244.144 210.569L245.521 211.38ZM213.259 232.526C213.37 232.582 213.493 232.611 213.617 232.611C213.741 232.611 213.864 232.582 213.975 232.526L218.458 229.902C218.653 229.788 218.644 229.6 218.458 229.477L213.277 226.437C213.167 226.379 213.044 226.349 212.919 226.349C212.795 226.349 212.672 226.379 212.561 226.437L208.069 229.062C207.883 229.175 207.893 229.364 208.069 229.486L213.259 232.526ZM226.372 224.832C226.483 224.89 226.605 224.921 226.73 224.921C226.855 224.921 226.977 224.89 227.088 224.832L231.571 222.218C231.766 222.114 231.757 221.925 231.571 221.802L226.381 218.763C226.27 218.707 226.147 218.678 226.023 218.678C225.899 218.678 225.776 218.707 225.665 218.763L221.173 221.396C220.987 221.51 220.996 221.698 221.173 221.812L226.372 224.832ZM205.252 237.218C205.363 237.273 205.485 237.303 205.61 237.303C205.734 237.303 205.856 237.273 205.968 237.218L210.45 234.593C210.646 234.48 210.627 234.291 210.45 234.169L205.27 231.129C205.159 231.073 205.036 231.044 204.912 231.044C204.788 231.044 204.665 231.073 204.554 231.129L200.062 233.753C199.876 233.867 199.885 234.055 200.062 234.178L205.252 237.218ZM219.815 228.722C219.927 228.778 220.049 228.807 220.173 228.807C220.298 228.807 220.42 228.778 220.532 228.722L225.014 226.097C225.209 225.984 225.2 225.795 225.014 225.673L219.825 222.633C219.713 222.577 219.591 222.548 219.467 222.548C219.342 222.548 219.22 222.577 219.109 222.633L214.617 225.267C214.431 225.38 214.44 225.569 214.617 225.682L219.815 228.722ZM192.139 244.94C192.248 244.995 192.369 245.024 192.492 245.024C192.615 245.024 192.736 244.995 192.845 244.94L197.337 242.306C197.523 242.193 197.514 242.004 197.337 241.891L192.129 238.832C192.018 238.776 191.895 238.747 191.771 238.747C191.647 238.747 191.525 238.776 191.413 238.832L186.931 241.437C186.735 241.551 186.754 241.739 186.931 241.862L192.139 244.94ZM198.649 241.098C198.759 241.156 198.882 241.186 199.007 241.186C199.131 241.186 199.254 241.156 199.365 241.098L203.847 238.473C204.043 238.36 204.024 238.171 203.847 238.048L198.658 235.009C198.548 234.953 198.427 234.924 198.304 234.924C198.182 234.924 198.061 234.953 197.951 235.009L193.459 237.633C193.273 237.746 193.283 237.935 193.459 238.058L198.649 241.098ZM232.361 219.102C232.472 219.16 232.595 219.191 232.719 219.191C232.844 219.191 232.966 219.16 233.077 219.102L237.56 216.469C237.755 216.365 237.746 216.176 237.56 216.053L236.221 215.232C236.109 215.176 235.987 215.147 235.863 215.147C235.738 215.147 235.616 215.176 235.504 215.232L231.022 217.856C230.827 217.97 230.836 218.158 231.022 218.281L232.361 219.102ZM252.031 207.576C252.141 207.634 252.264 207.664 252.389 207.664C252.513 207.664 252.636 207.634 252.747 207.576L257.239 204.942C257.425 204.829 257.415 204.64 257.239 204.527L255.862 203.715C255.751 203.659 255.628 203.63 255.504 203.63C255.38 203.63 255.257 203.659 255.146 203.715L250.654 206.349C250.468 206.462 250.477 206.651 250.654 206.764L252.031 207.576ZM262.93 213.967C263.042 214.023 263.164 214.052 263.288 214.052C263.412 214.052 263.535 214.023 263.646 213.967L268.138 211.343C268.324 211.229 268.315 211.041 268.138 210.918L262.949 207.878C262.837 207.822 262.715 207.793 262.591 207.793C262.467 207.793 262.344 207.822 262.233 207.878L257.778 210.512C257.583 210.625 257.592 210.814 257.778 210.937L262.93 213.967ZM279.326 230.855L283.809 228.221C284.004 228.108 283.995 227.929 283.809 227.806L278.619 224.766C278.509 224.708 278.386 224.678 278.261 224.678C278.137 224.678 278.014 224.708 277.903 224.766L273.421 227.343C273.235 227.457 273.244 227.636 273.421 227.759L278.61 230.799C278.726 230.869 278.858 230.908 278.993 230.912C279.129 230.915 279.263 230.882 279.382 230.817L279.326 230.855ZM239.011 215.232C239.121 215.29 239.244 215.32 239.369 215.32C239.493 215.32 239.616 215.29 239.727 215.232L244.209 212.598C244.405 212.494 244.395 212.306 244.209 212.183L242.824 211.371C242.712 211.315 242.59 211.286 242.466 211.286C242.341 211.286 242.219 211.315 242.107 211.371L237.625 213.995C237.43 214.109 237.448 214.297 237.625 214.42L239.011 215.232ZM185.582 248.744C185.693 248.802 185.816 248.832 185.94 248.832C186.065 248.832 186.188 248.802 186.298 248.744L190.79 246.11C190.976 245.997 190.967 245.808 190.79 245.695L185.601 242.655C185.49 242.597 185.367 242.567 185.243 242.567C185.118 242.567 184.995 242.597 184.885 242.655L180.421 245.289C180.225 245.393 180.244 245.582 180.421 245.704L185.582 248.744Z" fill="#9395B3"/>
<path d="M214.663 288.704L258.941 262.753C259.69 262.367 260.518 262.165 261.359 262.165C262.199 262.165 263.028 262.367 263.777 262.753L289.166 277.63C290.505 278.414 290.505 279.679 289.166 280.462L244.888 306.413C244.139 306.799 243.311 307.001 242.47 307.001C241.63 307.001 240.802 306.799 240.052 306.413L214.663 291.536C213.334 290.752 213.334 289.478 214.663 288.704Z" fill="#404152"/>
<path d="M296.095 163.917H296.039L288.478 159.499C288.041 159.301 287.399 159.499 286.618 160.084C279.587 165.54 270.129 167.24 262.438 164.747C261.941 164.276 261.469 163.778 261.024 163.256L260.885 163.095C260.663 162.835 260.399 162.614 260.104 162.444L259.973 162.369L252.403 157.96C251.538 157.545 250.757 157.96 250.236 159.263C242.927 177.699 227.349 196.381 216.961 201.054C216.175 201.411 215.477 201.94 214.915 202.602C214.168 203.425 213.756 204.504 213.762 205.623L215.259 247.017C215.259 258.978 220.235 271.608 230.381 277.754L238.211 282.342L238.351 282.417C242.585 284.83 247.372 286.064 252.227 285.995C253.315 285.995 254.421 285.948 255.565 285.834C257.79 285.463 259.853 284.417 261.48 282.832C284.181 259.034 295.22 226.825 295.22 209.002L296.671 165.654C296.727 164.719 296.504 164.143 296.095 163.917Z" fill="#65C17E"/>
<path d="M296.67 165.653L295.173 208.955C295.173 226.777 284.133 258.986 261.432 282.785C259.805 284.369 257.743 285.416 255.517 285.787C254.373 285.9 253.267 285.947 252.179 285.947C247.324 286.017 242.537 284.782 238.303 282.369L238.164 282.294L237.894 282.124C227.748 275.978 222.772 263.348 222.772 251.387L221.34 209.993C221.335 208.874 221.747 207.795 222.493 206.972C223.055 206.31 223.754 205.782 224.539 205.424C234.927 200.704 250.505 182.069 257.814 163.633C258.335 162.33 259.126 161.906 259.991 162.321L260.121 162.396C260.416 162.567 260.68 162.787 260.902 163.048L261.042 163.208C268.798 172.375 284.05 172.365 294.233 164.454C295.005 163.86 295.647 163.671 296.093 163.869H296.149C296.502 164.143 296.726 164.719 296.67 165.653Z" fill="#65C17E"/>
<path opacity="0.4" d="M296.047 163.86C295.61 163.661 294.968 163.86 294.187 164.445C284.599 171.893 270.509 172.337 262.428 164.69C270.156 167.192 279.596 165.493 286.608 160.027C287.38 159.432 288.021 159.244 288.468 159.442L296.047 163.86Z" fill="white"/>
<path opacity="0.4" d="M259.945 162.311C259.08 161.896 258.29 162.311 257.769 163.624C250.459 182.06 234.882 200.742 224.493 205.414C223.708 205.772 223.009 206.301 222.447 206.963C222.252 207.188 222.078 207.432 221.927 207.689L214.375 203.262C214.526 203.009 214.697 202.769 214.887 202.545C214.991 202.421 215.103 202.305 215.221 202.195L215.352 202.063L215.482 201.941C215.911 201.552 216.398 201.234 216.923 200.997C227.311 196.324 242.889 177.642 250.199 159.206C250.719 157.903 251.501 157.488 252.365 157.903L259.945 162.311Z" fill="white"/>
<path d="M215.231 202.176C215.269 202.13 215.313 202.089 215.36 202.054L215.231 202.185C215.231 202.185 215.221 202.176 215.231 202.176Z" fill="#65C17E"/>
<path opacity="0.15" d="M215.36 202.016L215.23 202.148C215.269 202.099 215.312 202.055 215.36 202.016Z" fill="black"/>
<path opacity="0.15" d="M238.322 282.36L238.183 282.294L230.352 277.697C220.206 271.551 215.231 258.92 215.231 246.96L213.733 205.566C213.717 204.75 213.94 203.948 214.375 203.262L221.927 207.69C221.499 208.375 221.279 209.172 221.294 209.983L222.791 251.378C222.791 263.338 227.767 275.922 237.913 282.115L238.183 282.284L238.322 282.36Z" fill="black"/>
<path d="M265.051 244.279L252.961 251.359L254.821 229.166C253.379 228.391 252.449 226.485 252.449 223.738C252.449 218.857 255.379 213.174 258.959 211.06C262.54 208.945 265.469 211.192 265.469 216.072C265.397 218.969 264.583 221.796 263.107 224.276L265.051 244.279Z" fill="#999999"/>
<path d="M265.032 244.279L254.086 237.86L252.951 251.359L265.032 244.279Z" fill="#525252"/>
<path d="M258.996 211.06C256.625 212.447 254.569 215.355 253.416 218.564L263.19 224.276C264.666 221.796 265.48 218.969 265.553 216.072C265.525 211.192 262.604 208.945 258.996 211.06Z" fill="#525252"/>
<path d="M107.805 373.201V376.883C107.805 381.225 110.595 385.558 116.249 388.872C124.749 393.846 137.23 395.064 147.692 392.525L157.402 398.189L164.842 396.471L169.929 399.463L170.208 405.703L172.998 407.317L179.889 407.931L184.837 410.763V414.284L191.058 417.918H206.868L212.532 414.605V410.886L161.996 384.992C164.14 382.861 165.392 379.974 165.493 376.93V373.154C164.73 369.548 161.773 367.688 157.057 364.922C145.795 358.314 127.549 358.314 116.286 364.922C111.19 367.943 108.316 369.321 107.805 373.201ZM123.28 368.887C125.07 367.966 127.048 367.486 129.055 367.486C131.062 367.486 133.041 367.966 134.83 368.887C138.02 370.775 138.02 373.786 134.83 375.656C133.041 376.577 131.062 377.057 129.055 377.057C127.048 377.057 125.07 376.577 123.28 375.656C120.09 373.824 120.09 370.756 123.28 368.887Z" fill="#65C17E"/>
<path opacity="0.1" d="M107.805 373.201V376.883C107.805 381.225 110.595 385.558 116.249 388.872C124.749 393.846 137.23 395.064 147.692 392.525L157.402 398.189L164.842 396.471L169.929 399.463L170.208 405.703L172.998 407.317L179.889 407.931L184.837 410.763V414.284L191.058 417.918H206.868L212.532 414.605V410.886L161.996 384.992C164.14 382.861 165.392 379.974 165.493 376.93V373.154C164.73 369.548 161.773 367.688 157.057 364.922C145.795 358.314 127.549 358.314 116.286 364.922C111.19 367.943 108.316 369.321 107.805 373.201ZM123.28 368.887C125.07 367.966 127.048 367.486 129.055 367.486C131.062 367.486 133.041 367.966 134.83 368.887C138.02 370.775 138.02 373.786 134.83 375.656C133.041 376.577 131.062 377.057 129.055 377.057C127.048 377.057 125.07 376.577 123.28 375.656C120.09 373.824 120.09 370.756 123.28 368.887Z" fill="black"/>
<path d="M116.248 385.152C124.749 390.136 137.229 391.354 147.692 388.805L157.401 394.469L164.841 392.761L169.928 395.744L170.207 401.993L172.997 403.598L179.888 404.211L185.264 407.251L184.836 410.536L191.058 414.18H206.868L212.531 410.867L161.995 381.244C167.947 374.834 166.31 366.65 157.057 361.231C145.795 354.623 127.548 354.623 116.286 361.231C105.023 367.839 104.986 378.544 116.248 385.152ZM123.279 365.168C125.069 364.246 127.048 363.766 129.055 363.766C131.061 363.766 133.04 364.246 134.83 365.168C138.02 367.056 138.02 370.067 134.83 371.936C133.04 372.857 131.061 373.338 129.055 373.338C127.048 373.338 125.069 372.857 123.279 371.936C120.089 370.048 120.089 367.027 123.279 365.158V365.168Z" fill="#65C17E"/>
<path opacity="0.3" d="M136.634 386.851C129.483 386.851 122.814 385.247 117.848 382.339C113.496 379.79 110.994 376.458 110.994 373.201C110.994 369.944 113.496 366.593 117.848 364.054C122.814 361.146 129.483 359.542 136.634 359.542C143.786 359.542 150.454 361.146 155.42 364.054C159.773 366.612 162.274 369.935 162.274 373.201C162.274 376.467 159.773 379.809 155.42 382.339C150.454 385.247 143.786 386.851 136.634 386.851ZM136.634 360.844C129.706 360.844 123.261 362.383 118.481 365.177C114.537 367.49 112.278 370.416 112.278 373.201C112.278 375.986 114.537 378.865 118.481 381.216C123.261 384.048 129.706 385.558 136.634 385.558C143.563 385.558 150.008 384.01 154.788 381.216C158.731 378.903 160.991 375.977 160.991 373.201C160.991 370.426 158.731 367.537 154.788 365.177C150.008 362.383 143.563 360.844 136.634 360.844Z" fill="black"/>
<path opacity="0.1" d="M126.256 388.928V392.704C133.324 394.264 140.646 394.213 147.692 392.553V388.834C140.641 390.47 133.321 390.502 126.256 388.928Z" fill="black"/>
<path opacity="0.1" d="M157.402 394.488V398.217L164.861 396.499V392.78L157.402 394.488Z" fill="black"/>
<path opacity="0.1" d="M169.947 395.763V399.491L170.226 405.731V402.012L169.947 395.763Z" fill="black"/>
<path opacity="0.1" d="M172.971 403.617V407.346L179.862 407.959V404.23L172.971 403.617Z" fill="black"/>
<path opacity="0.1" d="M206.832 414.199H191.031V417.928H206.832V414.199Z" fill="black"/>
<path opacity="0.15" d="M212.494 410.876V414.605L206.83 417.918V414.199L209.304 412.745V414.35L210.68 413.548V411.924L212.494 410.876Z" fill="black"/>
<path d="M210.681 411.924L209.305 412.745V414.35L210.681 413.548V411.924Z" fill="#65C17E"/>
<path opacity="0.15" d="M210.68 411.924V413.548L158.852 383.17L160.219 382.358L210.68 411.924Z" fill="black"/>
<path opacity="0.15" d="M160.219 382.358V383.982L158.852 383.17L160.219 382.358Z" fill="black"/>
<path d="M385.513 272.401C386.173 247.857 384.23 241.919 377.776 237.416L375.283 251.661C375.283 251.661 378.222 268.455 377.906 274.043C377.627 278.961 377.153 285.107 376.046 289.072C375.835 289.775 375.378 290.375 374.762 290.761C373.423 291.722 372.229 292.876 371.219 294.188C370.289 295.217 369.434 295.472 369.554 295.802C369.743 296.162 370.059 296.437 370.438 296.571C370.817 296.706 371.232 296.691 371.6 296.529C372.426 296.203 373.207 295.771 373.925 295.245C373.361 296.756 372.556 298.162 371.545 299.408C369.238 302.24 369.136 304.034 373.786 304.081C376.706 304.081 379.031 302.278 381.226 295.765C382.079 293.379 382.763 290.934 383.272 288.449C384.341 282.001 385.411 276.356 385.513 272.401Z" fill="#FFB1A7"/>
<path d="M372.354 235.547C374.336 235.191 376.378 235.497 378.174 236.42C379.97 237.342 381.423 238.831 382.314 240.663C385.02 245.563 385.68 254.002 386.034 262.375C386.034 262.375 380.668 266.935 374.232 264.698L372.354 235.547Z" fill="#65C17E"/>
<path opacity="0.7" d="M372.354 235.547C374.336 235.191 376.378 235.497 378.174 236.42C379.97 237.342 381.423 238.831 382.314 240.663C385.02 245.563 385.68 254.002 386.034 262.375C386.034 262.375 380.668 266.935 374.232 264.698L372.354 235.547Z" fill="black"/>
<path d="M381.412 370.784C381.895 370.973 382.016 371.917 382.091 373.795C382.146 375.211 382.453 377.694 380.807 378.195C379.161 378.695 376.762 378.431 375.711 377.09C374.439 375.294 373.08 373.565 371.637 371.907C370.019 370.142 368.262 368.481 367.601 365.998C367.015 363.761 367.508 362.788 369.015 362.137C371.089 361.193 374.344 364.167 375.971 364.629C377.366 365.026 380.919 370.595 381.412 370.784Z" fill="#6D6D6D"/>
<path d="M381.413 369.038V371.351C380.559 371.903 379.572 372.209 378.56 372.235C377.547 372.262 376.547 372.008 375.666 371.502C375.563 371.284 375.07 368.207 375.07 368.207L381.413 369.038Z" fill="#FFB1A7"/>
<path d="M362.998 384.076C363.398 385.316 363.733 386.576 364.002 387.852C364.281 389.249 364.681 391.628 364.207 392.628C363.732 393.629 361.845 394.356 358.934 394.337C357.074 394.337 354.116 395.621 352.107 396.763C350.099 397.905 345.709 398.406 343.505 398.141C340.92 397.83 338.241 396.31 337.823 395.224C337.404 394.139 337.953 393.006 344.063 390.363C344.119 390.363 352.545 387.531 355.493 384.255L362.998 384.076Z" fill="#6D6D6D"/>
<path d="M362.999 381.584V384.274C362.999 385.218 361.873 386.71 358.925 386.606C356.861 386.53 355.41 385.964 355.494 384.236V381.735L362.999 381.584Z" fill="#FFB1A7"/>
<path d="M382.89 338.424C382.385 334.338 381.485 330.313 380.203 326.407C380.203 326.407 381.012 316.023 381.402 306.215C381.821 295.595 381.402 282.256 381.579 279.603C381.579 279.603 347.829 272.674 347.225 284.946C346.62 297.218 348.564 328.455 348.964 333.845C349.364 339.236 350.275 344.012 351.373 352.725C352.47 361.438 355.493 381.716 355.493 381.716C356.66 382.318 357.955 382.619 359.264 382.593C360.573 382.567 361.855 382.214 362.998 381.565C362.998 381.565 365.379 357.021 365.127 350.8C364.935 346.192 364.153 341.629 362.802 337.225C362.802 337.225 363.444 327.105 364.011 318.345C364.579 309.585 365.174 305.308 365.304 301.485L366.03 301.117C366.03 301.117 366.774 316.306 367.173 321.696C367.573 327.086 368.41 332.25 369.963 342.266C371.303 350.96 375.274 369.34 375.274 369.34C379.124 371.454 381.43 369.057 381.43 369.057C381.43 369.057 383.923 345.966 382.89 338.424Z" fill="#525252"/>
<path d="M365.305 301.466C365.305 301.466 373.489 297.36 377.581 293.678C377.581 293.678 373.777 299.116 368.783 301.532C368.783 301.532 367.007 320.412 367.016 320.016L365.984 301.438L365.305 301.466Z" fill="#6D6D6D"/>
<path d="M358.014 231.667L360.013 242.825L369.946 242.079L367.862 229.439L358.014 231.667Z" fill="#FFB1A7"/>
<path d="M380.426 241.267C379.449 238.237 375.655 234.933 371.861 235.603C366.228 236.59 360.678 238.013 355.26 239.861C351.791 241.116 348.62 244.165 348.331 255.767C348.331 255.767 347.169 282.803 347.15 288.033C354.4 290.92 362.297 291.711 369.963 290.318C380.398 288.005 381.663 283.606 381.663 283.606C381.663 283.606 381.793 264.159 381.477 255.767C381.198 248.631 381.105 243.354 380.426 241.267Z" fill="#65C17E"/>
<g opacity="0.15">
<path opacity="0.15" d="M380.426 241.267C379.449 238.237 375.655 234.933 371.861 235.603C366.228 236.59 360.678 238.013 355.26 239.861C351.791 241.116 348.62 244.165 348.331 255.767C348.331 255.767 347.169 282.803 347.15 288.033C354.4 290.92 362.297 291.711 369.963 290.318C380.398 288.005 381.663 283.606 381.663 283.606C381.663 283.606 381.793 264.159 381.477 255.767C381.198 248.631 381.105 243.354 380.426 241.267Z" fill="black"/>
</g>
<path d="M350.36 218.064C350.36 218.064 347.84 222.142 348.147 222.529C348.454 222.916 350.379 223.228 350.379 223.228L350.36 218.064Z" fill="#9A4A4D"/>
<path d="M357.344 206.821C352.098 208.067 350.629 210.455 350.322 218.98C349.997 227.872 350.955 230.648 352.126 231.818C352.926 232.611 357.241 232.658 359.408 231.997C362.114 231.176 368.225 228.816 371.005 224.285C374.279 218.942 375.014 211.796 371.321 208.954C366.113 204.952 359.483 206.311 357.344 206.821Z" fill="#FFB1A7"/>
<path d="M350.378 209.039C351.582 210.821 353.282 212.198 355.261 212.995C356.265 214.156 355.716 218.659 357.483 219.414C357.483 219.414 358.246 216.11 360.98 216.469C363.714 216.827 364.189 220.358 362.505 222.557C360.822 224.757 359.194 223.964 359.194 223.964C359.194 223.964 359.38 228.684 361.492 231.27C361.492 231.27 363.835 231.988 368.113 230.959C370.736 230.326 374.391 226.9 375.879 223.322C379.031 215.77 379.106 209.002 374.353 207.085C373.768 203.64 371.052 202.158 367.983 201.516C361.371 200.128 357.111 204.348 352.024 203.951C349.113 203.743 348.574 205.896 350.378 209.039Z" fill="#6D6D6D"/>
<path d="M374.456 208.237L377.572 206.283C377.472 206.026 377.317 205.795 377.12 205.606C376.922 205.416 376.686 205.273 376.428 205.186C376.17 205.099 375.896 205.071 375.626 205.103C375.356 205.135 375.096 205.227 374.865 205.372C374.633 205.517 374.436 205.712 374.287 205.943C374.138 206.173 374.041 206.435 374.002 206.708C373.963 206.981 373.983 207.259 374.062 207.524C374.14 207.788 374.275 208.031 374.456 208.237Z" fill="#6D6D6D"/>
<path d="M313.262 259.949C314.889 260.686 334.131 275.11 337.126 273.43C340.12 271.749 355.512 253.502 355.512 253.502C356.812 251.463 357.504 249.086 357.504 246.658C357.504 244.229 356.812 241.852 355.512 239.814C355.512 239.814 350.583 240.758 347.997 244.704C345.412 248.65 334.271 262.857 334.271 262.857C331.518 261.46 328.771 260.044 326.031 258.609C323.78 257.419 321.52 256.239 319.316 254.965C318.697 254.673 318.113 254.309 317.577 253.879C316.489 252.784 316.647 250.103 316.703 248.706C316.703 248.036 316.703 247.366 316.796 246.695C316.889 245.874 317.047 243.863 315.587 244.505C315.311 244.639 315.071 244.84 314.889 245.091C314.665 245.398 314.49 245.739 314.369 246.101C314.099 246.969 314.183 247.923 313.932 248.801C313.901 248.93 313.841 249.05 313.755 249.15C313.625 249.252 313.463 249.303 313.299 249.291C311.179 249.225 309.17 246.205 308.194 244.571C307.856 243.793 307.295 243.135 306.585 242.683C305.431 242.127 304.036 242.919 303.283 243.977C302.376 245.367 302.005 247.047 302.241 248.697C302.438 250.955 303.428 253.066 305.031 254.644C307.454 256.879 310.239 258.674 313.262 259.949Z" fill="#FFB1A7"/>
<path d="M357.121 239.229C355.001 239.474 351.476 239.634 348.016 243.609C343.943 248.272 338.633 255.824 338.633 255.824C339.175 258.058 340.341 260.085 341.991 261.662C343.641 263.239 345.704 264.3 347.933 264.717C347.933 264.717 355.215 257.165 357.233 252.973C359.251 248.782 359.586 242.042 357.121 239.229Z" fill="#65C17E"/>
<path opacity="0.7" d="M357.121 239.229C355.001 239.474 351.476 239.634 348.016 243.609C343.943 248.272 338.633 255.824 338.633 255.824C339.175 258.058 340.341 260.085 341.991 261.662C343.641 263.239 345.704 264.3 347.933 264.717C347.933 264.717 355.215 257.165 357.233 252.973C359.251 248.782 359.586 242.042 357.121 239.229Z" fill="black"/>
</svg>
