<svg width="138" height="36" viewBox="0 0 138 36" fill="none" xmlns="http://www.w3.org/2000/svg">
<path d="M33.3643 29.3076C37.9199 29.3076 40.8789 26.2754 40.8789 21.2363C40.8789 16.2119 37.8906 13.1504 33.3643 13.1504C28.8379 13.1504 25.8496 16.2266 25.8496 21.2363C25.8496 26.2754 28.8086 29.3076 33.3643 29.3076ZM33.3643 26.4219C31.0498 26.4219 29.5557 24.5469 29.5557 21.2363C29.5557 17.9404 31.0645 16.0508 33.3643 16.0508C35.6787 16.0508 37.1729 17.9404 37.1729 21.2363C37.1729 24.5469 35.6787 26.4219 33.3643 26.4219ZM44.6752 29H48.3227V7.8623H44.6752V29ZM66.4598 19.0098C66.2107 15.7432 63.6766 13.1504 59.575 13.1504C55.0633 13.1504 52.1336 16.2705 52.1336 21.2363C52.1336 26.2754 55.0633 29.3076 59.6043 29.3076C63.5008 29.3076 66.1814 27.0225 66.4744 23.5508H63.032C62.6951 25.3086 61.4939 26.3633 59.6482 26.3633C57.3338 26.3633 55.8396 24.4883 55.8396 21.2363C55.8396 18.043 57.3191 16.1094 59.6189 16.1094C61.5672 16.1094 62.7244 17.3545 63.0174 19.0098H66.4598ZM70.1096 29H73.757V20.0791C73.757 17.7939 75.09 16.2705 77.2873 16.2705C79.3967 16.2705 80.4807 17.5742 80.4807 19.7422V29H84.1281V18.9951C84.1281 15.4355 82.1213 13.1797 78.6936 13.1797C76.3352 13.1797 74.6213 14.249 73.7863 16.1387H73.7131V7.8623H70.1096V29ZM95.1021 15.9775C97.1969 15.9775 98.6031 17.5156 98.6764 19.7129H91.4254C91.5719 17.5449 93.0514 15.9775 95.1021 15.9775ZM98.691 24.3564C98.2955 25.6455 97.0064 26.4951 95.3072 26.4951C92.9195 26.4951 91.3961 24.8252 91.3961 22.335V22.1152H102.251V20.9287C102.251 16.2119 99.4967 13.1504 95.0875 13.1504C90.6051 13.1504 87.7633 16.3877 87.7633 21.2949C87.7633 26.2461 90.5758 29.3076 95.234 29.3076C98.9107 29.3076 101.635 27.2861 102.104 24.3564H98.691ZM119.641 19.0098C119.392 15.7432 116.857 13.1504 112.756 13.1504C108.244 13.1504 105.314 16.2705 105.314 21.2363C105.314 26.2754 108.244 29.3076 112.785 29.3076C116.682 29.3076 119.362 27.0225 119.655 23.5508H116.213C115.876 25.3086 114.675 26.3633 112.829 26.3633C110.515 26.3633 109.021 24.4883 109.021 21.2363C109.021 18.043 110.5 16.1094 112.8 16.1094C114.748 16.1094 115.905 17.3545 116.198 19.0098H119.641ZM126.982 19.9473H126.938V7.8623H123.29V29H126.938V23.6094L128.168 22.3643L133.076 29H137.294L130.82 20.1523L137.031 13.4727H132.827L126.982 19.9473Z" fill="#4F4F4F"/>
<circle cx="11" cy="21" r="11" fill="#4F4F4F"/>
</svg>
