<svg width="11" height="12" viewBox="0 0 11 12" fill="none" xmlns="http://www.w3.org/2000/svg">
<path fill-rule="evenodd" clip-rule="evenodd" d="M5.98546 11.3807L8.68318 8.68299C9.3945 7.97163 9.87891 7.06531 10.0751 6.07865C10.2714 5.09198 10.1706 4.06929 9.78566 3.13988C9.40067 2.21047 8.74873 1.41609 7.91228 0.8572C7.07582 0.298307 6.09242 0 5.08643 0C4.08044 0 3.09704 0.298307 2.26059 0.8572C1.42414 1.41609 0.772196 2.21047 0.387209 3.13988C0.00222124 4.06929 -0.0985224 5.09198 0.0977175 6.07865C0.293957 7.06531 0.778367 7.97163 1.48969 8.68299L4.18804 11.3807C4.23235 11.425 4.27796 11.4742 4.32504 11.5249C4.53132 11.7474 4.76559 12 5.04 12C5.36645 12 5.72382 11.6425 5.96261 11.4035C5.97036 11.3958 5.97797 11.3882 5.98546 11.3807ZM5.08692 7.62977C6.4915 7.62977 7.63013 6.49113 7.63013 5.08655C7.63013 3.68197 6.4915 2.54333 5.08692 2.54333C3.68234 2.54333 2.5437 3.68197 2.5437 5.08655C2.5437 6.49113 3.68234 7.62977 5.08692 7.62977Z"/>
</svg>
