<svg width="25" height="24" viewBox="0 0 25 24" fill="none" xmlns="http://www.w3.org/2000/svg">
<path d="M6.90614 20C8.55855 20 9.8981 18.6569 9.8981 17C9.8981 15.3431 8.55855 14 6.90614 14C5.25373 14 3.91418 15.3431 3.91418 17C3.91418 18.6569 5.25373 20 6.90614 20Z" stroke-width="2" stroke-linecap="round" stroke-linejoin="round"/>
<path d="M16.8793 20C18.5317 20 19.8712 18.6569 19.8712 17C19.8712 15.3431 18.5317 14 16.8793 14C15.2269 14 13.8873 15.3431 13.8873 17C13.8873 18.6569 15.2269 20 16.8793 20Z" stroke-width="2" stroke-linecap="round" stroke-linejoin="round"/>
<path d="M9.89807 17V4H19.8713V17" stroke-width="2" stroke-linecap="round" stroke-linejoin="round"/>
<path d="M9.89807 8H19.8713" stroke-width="2" stroke-linecap="round" stroke-linejoin="round"/>
</svg>
