<svg width="24" height="24" viewBox="0 0 24 24" fill="none" xmlns="http://www.w3.org/2000/svg">
<path d="M5.98414 20C7.63656 20 8.9761 18.6569 8.9761 17C8.9761 15.3431 7.63656 14 5.98414 14C4.33173 14 2.99219 15.3431 2.99219 17C2.99219 18.6569 4.33173 20 5.98414 20Z" stroke-width="2" stroke-linecap="round" stroke-linejoin="round"/>
<path d="M15.9568 20C17.6092 20 18.9488 18.6569 18.9488 17C18.9488 15.3431 17.6092 14 15.9568 14C14.3044 14 12.9648 15.3431 12.9648 17C12.9648 18.6569 14.3044 20 15.9568 20Z" stroke-width="2" stroke-linecap="round" stroke-linejoin="round"/>
<path d="M8.97656 17V4H18.9498V17" stroke-width="2" stroke-linecap="round" stroke-linejoin="round"/>
<path d="M8.97656 8H18.9498" stroke-width="2" stroke-linecap="round" stroke-linejoin="round"/>
</svg>
