<svg width="25" height="24" viewBox="0 0 25 24" fill="none" xmlns="http://www.w3.org/2000/svg">
<path d="M6.90613 15C6.90613 16.5913 7.53657 18.1174 8.65878 19.2426C9.78098 20.3679 11.303 21 12.89 21C14.4771 21 15.9991 20.3679 17.1213 19.2426C18.2435 18.1174 18.874 16.5913 18.874 15" stroke-width="2" stroke-linecap="round" stroke-linejoin="round"/>
<path d="M18.8739 15C17.2869 15 15.7649 15.6321 14.6427 16.7574C13.5205 17.8826 12.89 19.4087 12.89 21" stroke-width="2" stroke-linecap="round" stroke-linejoin="round"/>
<path d="M12.89 21C12.89 19.4087 12.2596 17.8826 11.1374 16.7574C10.0152 15.6321 8.49316 15 6.90613 15" stroke-width="2" stroke-linecap="round" stroke-linejoin="round"/>
<path d="M12.89 21V11" stroke-width="2" stroke-linecap="round" stroke-linejoin="round"/>
<path d="M12.89 11C11.5675 11 10.2992 10.4732 9.36398 9.53553C8.42881 8.59785 7.90344 7.32608 7.90344 6V3L10.8954 5L12.89 3L14.8847 5L17.8766 3V6C17.8766 7.32608 17.3513 8.59785 16.4161 9.53553C15.4809 10.4732 14.2126 11 12.89 11V11Z" stroke-width="2" stroke-linecap="round" stroke-linejoin="round"/>
</svg>
