<svg width="12" height="12" viewBox="0 0 12 12" fill="none" xmlns="http://www.w3.org/2000/svg">
<path d="M6.5 1C6.5 0.723858 6.27614 0.5 6 0.5C5.72386 0.5 5.5 0.723858 5.5 1L6.5 1ZM5.5 11C5.5 11.2761 5.72386 11.5 6 11.5C6.27614 11.5 6.5 11.2761 6.5 11L5.5 11ZM5.5 1L5.5 11L6.5 11L6.5 1L5.5 1Z" fill="#4F4F4F"/>
<path d="M1 5.5C0.723858 5.5 0.5 5.72386 0.5 6C0.5 6.27614 0.723858 6.5 1 6.5V5.5ZM11 6.5C11.2761 6.5 11.5 6.27614 11.5 6C11.5 5.72386 11.2761 5.5 11 5.5V6.5ZM1 6.5H11V5.5H1V6.5Z" fill="#4F4F4F"/>
</svg>
