<svg width="312" height="295" viewBox="0 0 312 295" fill="none" xmlns="http://www.w3.org/2000/svg">
<path d="M264.234 88.6391C272.25 108.701 262.554 135.748 243.669 146.004C238.054 149.043 232.063 150.602 225.657 149.574C224.321 149.386 223.868 149.842 223.453 150.951C220.647 158.47 216.941 165.473 211.725 171.68C205.63 179.062 197.977 184.15 188.838 186.888C188.302 187.008 187.821 187.2 187.277 187.383C187.204 187.437 187.068 187.483 186.85 187.647C186.932 191.226 187.876 194.666 189.637 197.831C192.986 204.008 198.064 208.028 204.98 209.582C208.57 210.345 209.837 211.95 209.846 215.583C209.853 222.005 209.796 228.418 209.803 234.839C209.832 235.557 209.798 236.265 209.791 237.237C211.998 237.223 214.069 237.254 216.213 237.23C226.45 237.304 233.206 244.154 233.132 254.391C233.132 258.088 233.124 261.848 233.06 265.536C233.005 268.706 231.256 270.536 228.114 270.744C227.26 270.818 226.425 270.766 225.58 270.777C189.466 270.704 153.288 270.623 117.174 270.55C112.769 270.516 110.893 268.631 110.918 264.289C110.973 260.665 110.891 257.087 110.946 253.462C111.013 244.197 117.681 237.35 126.945 236.964C129.36 236.849 131.741 236.988 134.402 236.972C134.373 236.255 134.398 235.61 134.424 234.965C134.435 228.416 134.446 221.867 134.511 215.391C134.502 211.758 135.761 210.183 139.374 209.393C149.677 207.142 157.302 198.094 157.612 187.566C155.03 186.555 152.294 185.717 149.793 184.588C140.273 180.334 133.071 173.422 127.907 164.461C125.353 160.017 123.361 155.262 121.16 150.608C120.758 149.774 120.521 149.157 119.395 149.323C108.49 150.776 99.4143 146.585 92.2558 138.9C78.9955 124.782 74.3304 108.108 80.3873 89.4367C83.9295 78.5192 91.5235 71.5426 103.291 69.9507C105.407 69.6639 107.578 69.9036 109.849 69.8979C109.86 67.0459 109.862 64.2574 109.855 61.5325C109.863 57.318 111.738 55.5058 115.889 55.5044C153.62 55.6095 191.36 55.651 229.155 55.765C233.306 55.7637 235.181 57.6482 235.11 61.8538C235.053 64.5698 235.069 67.2311 235.067 70.0196C235.258 70.0463 235.495 70.2092 235.694 70.1724C247.354 68.8897 258.859 75.1734 264.234 88.6391ZM254.668 117.066C257.752 108.029 258.12 98.9364 253.847 90.1003C250.478 83.1421 243.756 79.2805 236.827 80.1245C235.247 80.292 234.713 80.8655 234.608 82.5371C234.07 96.0811 233.078 109.626 230.749 122.984C229.782 128.491 228.57 133.898 227.385 139.569C231.664 140.04 235.522 138.895 239.122 136.806C246.941 132.39 251.801 125.484 254.668 117.066ZM225.002 69.6452C225.036 68.4825 225.014 67.2472 224.993 66.012C190.051 65.909 155.172 65.8149 120.157 65.7666C120.122 66.4751 120.06 66.9203 120.061 67.3745C120.398 85.7758 121.125 104.167 124.214 122.371C126.131 133.665 128.866 144.685 134.105 154.954C137.765 162.147 142.45 168.512 149.419 172.927C157.87 178.328 167.183 179.44 176.937 178.798C183.947 178.29 190.446 176.348 196.331 172.309C203.593 167.232 208.335 160.244 211.976 152.324C217.387 140.566 219.99 128.025 221.783 115.241C223.907 100.103 224.614 84.8965 225.002 69.6452ZM223.083 260.374C223.123 258.24 223.073 256.287 223.095 254.28C223.056 249.475 220.843 247.219 216.047 247.195C187 247.14 157.961 247.022 128.914 246.968C128.132 246.988 127.36 246.945 126.57 247.029C123.674 247.336 121.363 249.476 121.143 252.428C120.986 254.936 121.092 257.415 121.099 260.14C155.26 260.263 189.104 260.342 223.083 260.374ZM199.581 236.972C199.612 231.204 199.625 225.564 199.593 219.787C181.308 219.751 163.16 219.67 144.677 219.671C144.646 225.438 144.624 231.143 144.665 236.856C163.086 236.846 181.297 236.936 199.581 236.972ZM185.488 209.377C180.232 203.386 177.417 196.636 176.735 189.017C173.756 188.988 170.967 188.986 167.788 188.994C167.108 196.616 164.155 203.336 158.974 209.289C167.985 209.321 176.541 209.354 185.488 209.377ZM117.544 139.4C117.049 137.385 116.644 135.642 116.24 133.899C112.612 117.695 111.226 101.222 110.504 84.6471C110.282 79.7519 109.755 79.3536 104.815 79.8928C104.688 79.8749 104.551 79.9207 104.488 79.9118C97.4056 80.9287 92.9748 85.2361 90.3931 91.6188C86.4123 101.502 87.5722 111.263 91.8196 120.744C95.2814 128.429 100.456 134.538 108.339 137.979C111.158 139.152 114.184 139.772 117.544 139.4Z" fill="#FFC840"/>
<path d="M224.992 66.012C225.004 67.3108 225.035 68.4824 225.001 69.6452C224.613 84.8965 223.906 100.103 221.791 115.177C220.006 127.898 217.404 140.439 211.984 152.26C208.343 160.181 203.592 167.232 196.339 172.246C190.517 176.293 183.946 178.29 176.944 178.734C167.255 179.385 157.878 178.264 149.426 172.863C142.458 168.448 137.773 162.084 134.113 154.89C128.873 144.621 126.139 133.601 124.221 122.307C121.133 104.103 120.406 85.7121 120.069 67.3109C120.059 66.9203 120.13 66.4115 120.156 65.7665C155.171 65.8149 190.05 65.909 224.992 66.012ZM202.526 107.805C204.238 106.229 204.833 104.302 204.037 102.115C203.305 99.9369 201.55 99.0421 199.324 98.7297C194.681 98.0783 190.038 97.4269 185.476 96.6573C184.777 96.5591 183.894 95.9164 183.538 95.2179C181.448 91.1631 179.421 87.1172 177.476 82.953C176.426 80.7303 175.014 79.2351 172.48 79.2687C169.946 79.3023 168.497 80.8501 167.485 82.978C165.551 87.0521 163.436 91.0357 161.502 95.1098C161.042 96.0828 160.461 96.5202 159.399 96.6955C154.841 97.2882 150.265 98.0082 145.707 98.601C143.464 98.87 141.65 99.7828 140.874 102.074C140.099 104.365 140.867 106.288 142.587 107.892C145.738 110.863 148.734 114.007 151.893 116.915C153.213 118.138 153.506 119.281 153.202 120.99C152.278 125.724 151.554 130.422 150.748 134.784C150.65 139.18 154.598 141.55 158.363 139.679C162.481 137.597 166.608 135.453 170.617 133.226C171.815 132.551 172.804 132.431 174.06 133.19C178.026 135.433 182.082 137.494 186.129 139.618C188.184 140.685 190.11 140.825 192.06 139.412C193.873 138.045 194.277 136.092 193.863 133.958C193.116 129.573 192.378 125.124 191.577 120.666C191.31 119.332 191.58 118.332 192.622 117.376C195.984 114.216 199.227 110.974 202.526 107.805Z" fill="white"/>
<path d="M223.086 254.343C223.073 256.287 223.051 258.295 223.074 260.438C189.104 260.342 155.197 260.254 121.153 260.213C121.138 257.551 121.04 255.008 121.198 252.501C121.408 249.612 123.664 247.399 126.625 247.101C127.415 247.017 128.187 247.061 128.968 247.041C158.016 247.095 187.063 247.149 216.102 247.267C220.843 247.219 223.11 249.547 223.086 254.343Z" fill="#FFEDCA"/>
<path d="M204.039 102.115C204.835 104.302 204.176 106.22 202.527 107.805C199.229 110.974 195.986 114.216 192.633 117.312C191.582 118.332 191.32 119.268 191.587 120.603C192.389 125.061 193.126 129.509 193.873 133.895C194.278 136.092 193.883 137.982 192.07 139.349C190.185 140.771 188.186 140.685 186.14 139.555C182.092 137.43 178.036 135.369 174.07 133.127C172.806 132.431 171.825 132.488 170.628 133.163C166.555 135.38 162.5 137.47 158.373 139.615C154.672 141.496 150.66 139.117 150.758 134.72C151.501 130.35 152.298 125.597 153.212 120.926C153.581 119.227 153.287 118.083 151.903 116.851C148.744 113.944 145.739 110.863 142.598 107.828C140.886 106.161 140.046 104.292 140.885 102.01C141.651 99.7828 143.466 98.87 145.717 98.5373C150.275 97.9446 154.851 97.2246 159.41 96.6319C160.472 96.4566 161.052 96.0192 161.513 95.0461C163.446 90.9721 165.562 86.9884 167.495 82.9144C168.516 80.7229 169.957 79.2387 172.491 79.2051C175.025 79.1715 176.5 80.6756 177.487 82.8893C179.441 86.9899 181.395 91.0905 183.548 95.1543C183.913 95.7892 184.787 96.4955 185.487 96.5936C190.112 97.3722 194.746 98.0872 199.334 98.6661C201.552 99.042 203.307 99.9368 204.039 102.115ZM182.911 112.641C184.696 111.01 186.318 109.162 188.202 107.287C185.849 106.956 183.713 106.462 181.469 106.277C178.453 106.049 176.642 104.627 175.527 101.941C174.705 99.9451 173.61 98.0404 172.45 95.6726C171.185 98.2191 170.127 100.211 169.179 102.348C168.131 104.73 166.4 105.979 163.775 106.194C161.478 106.391 159.145 106.842 156.557 107.257C158.142 108.906 159.426 110.383 160.882 111.561C163.676 113.833 164.6 116.492 163.528 119.974C163.015 121.783 162.866 123.772 162.49 125.989C164.939 124.712 166.953 123.762 168.93 122.613C171.261 121.253 173.396 121.293 175.742 122.595C177.716 123.78 179.844 124.792 182.2 126.031C181.748 123.243 181.442 120.801 180.936 118.395C180.54 116.134 181.19 114.28 182.911 112.641Z" fill="#FFC840"/>
<path d="M199.666 219.732C199.635 225.5 199.622 231.141 199.655 236.917C181.307 236.873 163.15 236.855 144.739 236.801C144.769 231.033 144.792 225.329 144.75 219.616C163.225 219.679 181.382 219.697 199.666 219.732Z" fill="white"/>
<path d="M176.726 189.08C177.408 196.699 180.223 203.45 185.479 209.441C176.532 209.418 167.976 209.385 159.029 209.362C164.21 203.408 167.099 196.68 167.843 189.066C170.959 189.049 173.747 189.052 176.726 189.08Z" fill="white"/>
<path opacity="0.2" d="M82.0861 176.778C127.422 183.738 169.816 152.629 176.777 107.294C183.737 61.9581 152.628 19.5637 107.292 12.6032C61.9568 5.64264 19.5624 36.7518 12.6019 82.0874C5.64134 127.423 36.7505 169.817 82.0861 176.778Z" fill="#FFDC48"/>
<path opacity="0.4" d="M275.029 234.37C290.404 236.73 304.781 226.18 307.142 210.805C309.502 195.43 298.952 181.052 283.577 178.692C268.202 176.331 253.825 186.882 251.464 202.257C249.103 217.632 259.654 232.009 275.029 234.37Z" fill="#FFDC48"/>
<path opacity="0.4" d="M67.8991 291.877C76.1742 293.147 83.9124 287.469 85.1829 279.194C86.4534 270.919 80.7751 263.181 72.5 261.91C64.2249 260.64 56.4867 266.318 55.2161 274.593C53.9456 282.868 59.624 290.606 67.8991 291.877Z" fill="#FFDC48"/>
</svg>
