<svg width="357" height="357" viewBox="0 0 357 357" fill="none" xmlns="http://www.w3.org/2000/svg">
<path d="M113.269 321.386C141.283 321.386 163.992 308.276 163.992 292.105C163.992 275.933 141.283 262.823 113.269 262.823C85.2561 262.823 62.5469 275.933 62.5469 292.105C62.5469 308.276 85.2561 321.386 113.269 321.386Z" fill="#E0E0E0"/>
<path d="M230.503 278.419C265.675 259.449 286.534 229.882 277.094 212.38C267.654 194.877 231.489 196.066 196.317 215.036C161.145 234.006 140.285 263.573 149.725 281.075C159.165 298.578 195.331 297.389 230.503 278.419Z" fill="#E0E0E0"/>
<path d="M265.501 236.842C272.534 228.459 283.551 222.997 295.939 219.77C308.177 216.593 310.369 209.06 302.257 206.625C293.068 203.855 281.601 208.939 274.204 216.014C261.324 228.345 259.703 237.763 259.703 237.763L265.501 236.842Z" fill="#32cd71"/>
<path opacity="0.15" d="M265.501 236.842C272.534 228.459 283.551 222.997 295.939 219.77C308.177 216.593 310.369 209.06 302.257 206.625C293.068 203.855 281.601 208.939 274.204 216.014C261.324 228.345 259.703 237.763 259.703 237.763L265.501 236.842Z" fill="#4F4F4F"/>
<path d="M261.881 236.335C261.829 236.346 261.776 236.346 261.724 236.335C261.682 236.314 261.644 236.286 261.613 236.25C261.582 236.215 261.558 236.174 261.543 236.13C261.528 236.085 261.521 236.038 261.524 235.991C261.527 235.945 261.539 235.899 261.56 235.857C271.999 214.437 295.118 209.167 300.716 209.567C300.809 209.574 300.896 209.618 300.958 209.689C301.019 209.76 301.05 209.852 301.044 209.946C301.035 210.04 300.99 210.126 300.918 210.188C300.846 210.249 300.753 210.28 300.659 210.274C295.175 209.86 272.477 215.079 262.203 236.171C262.167 236.223 262.119 236.266 262.063 236.294C262.007 236.323 261.944 236.337 261.881 236.335Z" fill="white"/>
<path d="M259.703 239.069C259.704 239.413 259.795 239.752 259.969 240.049C260.142 240.346 260.392 240.592 260.691 240.762C260.991 240.932 261.33 241.019 261.675 241.015C262.019 241.011 262.356 240.916 262.652 240.74C269.192 236.934 278.731 234.828 294.168 239.226C302.379 241.561 306.42 239.997 308.148 236.656C310.076 232.943 306.006 229.351 301.365 227.659C285.564 221.883 271.306 225.824 259.703 237.348V239.069Z" fill="#32cd71"/>
<path d="M260.612 239.376C260.562 239.377 260.511 239.367 260.465 239.348C260.418 239.328 260.376 239.299 260.341 239.262C260.275 239.194 260.238 239.103 260.238 239.008C260.238 238.914 260.275 238.823 260.341 238.755C273.986 226.56 295.12 228.937 303.117 233.693C303.198 233.74 303.257 233.818 303.281 233.909C303.305 234 303.292 234.097 303.245 234.178C303.196 234.26 303.117 234.319 303.025 234.343C302.933 234.367 302.835 234.354 302.753 234.307C294.899 229.644 274.193 227.324 260.819 239.305C260.759 239.348 260.687 239.373 260.612 239.376Z" fill="white"/>
<path d="M271.906 104.365L271.792 104.308L244.575 88.6431L244.41 88.5646C231.694 82.1386 214.729 84.0735 196.48 95.8688C159.823 119.574 131.891 174.137 134.09 217.741C135.183 239.468 143.565 254.37 156.224 260.924L156.331 260.981L183.556 276.654L183.685 276.725C196.401 283.151 213.38 281.245 231.644 269.435C268.301 245.73 296.232 191.166 294.033 147.562C292.955 125.821 284.573 110.92 271.906 104.365Z" fill="#D7DDE9"/>
<path d="M182.621 276.147L156.368 260.967L156.239 260.888C143.58 254.32 135.205 239.418 134.105 217.72C133.127 198.271 138.146 176.658 147.243 156.587L147.421 156.145L174.468 172.252C165.357 192.323 160.352 213.936 161.33 233.385C162.365 254.655 170.412 269.378 182.621 276.147Z" fill="#C3CBDC"/>
<path d="M231.658 269.421C268.315 245.716 296.246 191.152 294.047 147.548C291.848 103.944 260.347 87.8221 223.69 111.527C187.033 135.232 159.094 189.796 161.293 233.392C163.492 276.989 195.001 293.126 231.658 269.421Z" fill="#F0F5FE"/>
<path d="M262.705 100.981L216.759 195.636L206.87 184.926C203.921 181.856 199.886 180.065 195.632 179.937C191.377 179.81 187.242 181.356 184.115 184.244C180.987 187.132 179.118 191.131 178.907 195.382C178.696 199.634 180.161 203.798 182.987 206.981L209.041 235.206C211.905 238.318 215.876 240.184 220.1 240.404C220.4 240.404 220.7 240.404 221 240.404C221.788 240.403 222.576 240.346 223.356 240.232C225.979 239.851 228.468 238.832 230.606 237.267C232.745 235.701 234.467 233.635 235.623 231.25L288.316 122.722C282.911 110.67 273.915 103.201 262.705 100.981Z" fill="#C3CBDC"/>
<path d="M300.018 69.8076C299.733 69.6433 299.433 69.4863 299.133 69.3435C295.765 67.7116 291.888 67.4823 288.351 68.7057C284.815 69.9292 281.908 72.5055 280.269 75.8694L221.807 196.293L218.479 192.723C217.519 191.673 216.401 190.78 215.166 190.074C213.424 189.074 206.013 184.783 204.813 184.09C201.89 182.399 198.456 181.812 195.137 182.436C191.817 183.06 188.831 184.854 186.721 187.492C184.612 190.129 183.517 193.436 183.638 196.812C183.758 200.187 185.085 203.408 187.378 205.889L213.431 234.106C214.408 235.166 215.542 236.069 216.794 236.784C218.494 237.747 225.876 242.031 227.09 242.731C228.769 243.703 230.63 244.319 232.558 244.54C234.485 244.761 236.438 244.582 238.293 244.014C240.148 243.447 241.866 242.503 243.341 241.242C244.815 239.98 246.013 238.429 246.861 236.684L316.026 94.2192C317.581 91.0083 317.865 87.3283 316.82 83.9171C315.775 80.5059 313.479 77.6158 310.393 75.8266L300.018 69.8076Z" fill="#32cd71"/>
<path opacity="0.15" d="M300.018 69.8076C299.733 69.6433 299.433 69.4863 299.133 69.3435C295.765 67.7116 291.888 67.4823 288.351 68.7057C284.815 69.9292 281.908 72.5055 280.269 75.8694L221.807 196.293L218.479 192.723C217.519 191.673 216.401 190.78 215.166 190.074C213.424 189.074 206.013 184.783 204.813 184.09C201.89 182.399 198.456 181.812 195.137 182.436C191.817 183.06 188.831 184.854 186.721 187.492C184.612 190.129 183.517 193.436 183.638 196.812C183.758 200.187 185.085 203.408 187.378 205.889L213.431 234.106C214.408 235.166 215.542 236.069 216.794 236.784C218.494 237.747 225.876 242.031 227.09 242.731C228.769 243.703 230.63 244.319 232.558 244.54C234.485 244.761 236.438 244.582 238.293 244.014C240.148 243.447 241.866 242.503 243.341 241.242C244.815 239.98 246.013 238.429 246.861 236.684L316.026 94.2192C317.581 91.0083 317.865 87.3283 316.82 83.9171C315.775 80.5059 313.479 77.6158 310.393 75.8266L300.018 69.8076Z" fill="#4F4F4F"/>
<path opacity="0.15" d="M227.054 242.703C225.854 241.989 218.486 237.705 216.765 236.755C215.513 236.04 214.379 235.137 213.402 234.077L187.348 205.86C186.199 204.607 185.287 203.155 184.656 201.576L195.016 207.552C195.645 209.136 196.562 210.589 197.722 211.836L223.769 240.054C224.728 241.094 225.834 241.986 227.054 242.703Z" fill="#4F4F4F"/>
<path opacity="0.15" d="M293.904 77.5114C292.543 78.7328 291.433 80.2072 290.634 81.8525L230.501 205.717L221.805 196.292L280.267 75.8692C281.064 74.221 282.177 72.7458 283.544 71.5281L293.904 77.5114Z" fill="#4F4F4F"/>
<path d="M309.497 75.3272C306.129 73.6993 302.253 73.472 298.717 74.695C295.182 75.9181 292.275 78.4919 290.633 81.8532L230.5 205.718L218.483 192.695C215.912 190.082 212.424 188.573 208.76 188.487C205.095 188.401 201.541 189.745 198.85 192.234C196.158 194.723 194.542 198.162 194.341 201.822C194.141 205.482 195.374 209.077 197.777 211.844L223.824 240.068C225.383 241.755 227.331 243.036 229.497 243.8C231.664 244.563 233.984 244.787 236.256 244.45C238.529 244.114 240.685 243.228 242.537 241.87C244.389 240.512 245.882 238.722 246.886 236.656L316.051 94.1911C317.681 90.82 317.906 86.9399 316.677 83.4029C315.448 79.8659 312.866 76.9614 309.497 75.3272Z" fill="#32cd71"/>
<path d="M112.264 89.2506C106.816 89.2506 103.089 90.6786 99.219 96.1764C95.649 101.232 85.91 118.082 85.91 118.082C85.91 118.082 78.77 103.431 78.056 100.51C77.342 97.5902 77.3849 96.2907 78.056 95.0198C79.0387 93.5176 79.655 91.8056 79.8553 90.0218C80.1338 86.5089 80.9906 83.5029 80.2052 83.403C78.0275 83.2816 77.9418 86.0805 76.7994 87.7298C76.6543 87.889 76.4737 88.0118 76.2723 88.0882C76.0709 88.1646 75.8543 88.1925 75.6401 88.1695C75.4259 88.1466 75.2201 88.0735 75.0395 87.9561C74.8588 87.8388 74.7083 87.6805 74.6003 87.4942C74.1219 86.516 74.3789 84.9095 74.1504 83.7528C74.2123 83.1092 74.3149 82.47 74.4575 81.8393C75.2822 81.9877 76.1246 82.0117 76.9565 81.9107C77.8989 83.3887 78.5415 84.0099 79.8553 83.4101C80.0267 83.1388 79.2912 81.2681 78.4273 79.8401C78.2976 79.6216 78.0874 79.4627 77.8418 79.3974C76.2579 78.9963 74.6048 78.95 73.0009 79.2618C72.8796 79.2742 72.7621 79.311 72.6554 79.3699C72.5487 79.4287 72.4549 79.5085 72.3797 79.6045C71.7769 80.4876 71.2966 81.4484 70.9517 82.4605C70.8589 82.7675 70.5733 82.7604 70.5019 82.4962C69.7879 79.0476 69.7879 74.1495 69.7879 71.8576C69.7879 70.0512 67.1532 69.7656 67.0604 72.3502C66.9039 75.8183 66.9635 79.2926 67.2389 82.7532C67.2389 83.0674 66.9248 83.2173 66.7962 82.8746C66.3393 81.6537 65.2183 77.9623 64.7471 71.5934C64.6185 69.8798 61.8482 69.6013 61.8911 72.0075C61.9996 76.2735 62.5548 80.5164 63.5475 84.6668C63.6332 84.9666 63.3548 85.2308 63.1477 84.8881C61.8479 82.3834 60.8095 79.7515 60.0489 77.0341C59.4563 74.9635 56.6931 75.4918 57.1929 78.0694C58.0569 82.689 59.4278 88.5295 61.4769 92.7064C63.6618 97.1689 65.5467 99.4037 66.632 102.909C67.7173 106.415 72.2084 126.272 77.0136 134.011C80.7764 140.08 85.0818 139.516 89.7156 136.318C94.3495 133.119 110.907 110.049 110.907 110.049L112.264 89.2506Z" fill="#FFBCB5"/>
<path d="M85.9102 118.074C85.9102 118.074 88.2307 122.008 88.5877 125.157C89.1775 122.099 88.591 118.932 86.9455 116.289L85.9102 118.074Z" fill="#A57464"/>
<path d="M113.419 89.2491C110.649 88.9635 107.2 88.8707 103.359 91.2911C99.5175 93.7116 98.1752 97.0817 96.3116 100.031C94.4481 102.979 88.0078 113.425 88.0078 113.425C88.0078 113.425 90.3711 123.343 99.7674 125.385L113.84 106.292L113.419 89.2491Z" fill="#3C3C3C"/>
<path d="M126.035 263.63C126.749 263.537 127.698 265.972 127.712 266.765C127.727 267.557 126.927 269.264 125.877 270.863C124.475 272.767 123.311 274.837 122.415 277.025C121.608 279.224 120.865 280.666 118.616 283.544C116.117 286.75 110.248 292.112 101.337 289.784C99.1596 289.213 98.0743 288.527 97.2817 287.735C96.934 287.383 96.6915 286.942 96.5818 286.46C96.472 285.978 96.4993 285.475 96.6606 285.007L126.035 263.63Z" fill="#4F4F4F"/>
<path d="M108.527 260.845V260.923C108.425 261.59 108.445 262.27 108.584 262.93C108.829 264.896 108.655 266.892 108.073 268.786C107.491 270.68 106.514 272.429 105.207 273.918C103.966 275.214 102.565 276.346 101.037 277.288C96.525 280.144 96.0395 282.094 96.6749 285.007C98.1886 288.398 108.42 290.462 114.304 285.414C116.842 283.443 118.783 280.805 119.908 277.795C120.762 275.639 121.754 273.54 122.879 271.512C124.014 269.37 126.17 266.957 126.235 264.75C126.27 263.537 125.071 261.28 123.907 259.424C122.836 257.718 121.729 256.097 120.765 256.282L121.037 257.246C120.23 258.082 119.066 258.396 118.366 259.388C117.495 260.595 117.524 262.244 116.988 263.601C116.971 263.671 116.938 263.736 116.892 263.791C116.847 263.847 116.789 263.892 116.724 263.922C116.649 263.935 116.571 263.923 116.503 263.888C116.435 263.853 116.38 263.798 116.346 263.729C116.287 263.589 116.261 263.438 116.267 263.287L116.203 261.209C116.235 260.81 116.129 260.411 115.903 260.081C115.346 259.453 113.975 259.524 113.211 259.495C112.183 259.503 111.156 259.565 110.134 259.681C109.78 259.646 109.425 259.74 109.134 259.945C108.842 260.174 108.63 260.489 108.527 260.845Z" fill="#323232"/>
<path d="M93.4084 219.334C95.786 227.152 106.903 254.22 107.567 255.848L109.78 261.217C111.238 261.696 112.8 261.763 114.293 261.41C114.529 264.002 114.921 268.064 115.071 270.114C115.128 272.491 115.335 275.433 114.821 277.782C114.386 279.781 113.879 281.88 113.5 283.887C113.336 284.772 113.172 285.664 113.036 286.557C112.806 287.492 112.884 288.476 113.258 289.363C113.485 289.75 113.786 290.09 114.143 290.363C115.729 291.608 117.733 292.196 119.741 292.005C120.802 291.954 121.829 291.613 122.711 291.019C124.439 289.784 125.046 287.635 125.924 285.807C126.881 283.829 126.574 283.608 126.638 281.488C126.695 280.002 127.109 276.233 127.702 272.291C128.294 268.35 130.851 254.498 132.079 240.697C132.579 234.567 132.579 228.406 132.079 222.276C141.832 195.779 146.173 180.021 147.451 171.225C148.743 162.285 148.122 159.087 147.958 153.953L100.527 155.095C96.7285 179.614 90.2168 208.852 93.4084 219.334Z" fill="#FFBCB5"/>
<path d="M92.666 199.769C93.6441 190.758 100.384 156.122 100.384 156.122H148.165C148.165 156.122 148.472 162.77 148.387 165.826C148.301 168.881 147.316 174.458 145.609 181.534C143.903 188.609 137.577 208.58 136.327 211.522C135.078 214.463 132.757 222.996 132.757 222.996C133.928 239.018 130.879 253.398 128.594 272.511C128.594 272.511 127.93 275.089 121.162 274.582C114.579 274.082 113.251 271.655 113.251 271.655L112.815 255.168C112.815 255.168 109.245 256.268 107.103 255.768C107.103 255.768 92.9587 220.846 92.2733 218.747C91.5878 216.648 91.6878 208.78 92.666 199.769Z" fill="#32cd71"/>
<path d="M92.666 199.769C93.6441 190.758 100.384 156.122 100.384 156.122H148.165C148.165 156.122 148.472 162.77 148.387 165.826C148.301 168.881 147.316 174.458 145.609 181.534C143.903 188.609 137.577 208.58 136.327 211.522C135.078 214.463 132.757 222.996 132.757 222.996C133.928 239.018 130.879 253.398 128.594 272.511C128.594 272.511 127.93 275.089 121.162 274.582C114.579 274.082 113.251 271.655 113.251 271.655L112.815 255.168C112.815 255.168 109.245 256.268 107.103 255.768C107.103 255.768 92.9587 220.846 92.2733 218.747C91.5878 216.648 91.6878 208.78 92.666 199.769Z" fill="#8D8D8D"/>
<path opacity="0.2" d="M112.935 178.7C106.167 172.603 104.66 167.747 104.66 167.747C108.063 171.581 112.093 174.809 116.577 177.293C116.577 177.293 110.151 211.223 110.622 218.199C111.093 225.174 112.814 255.169 112.814 255.169C112.814 255.455 108.259 223.446 108.123 220.897C107.816 214.15 112.935 178.7 112.935 178.7Z" fill="#4F4F4F"/>
<path d="M127.809 289.499C128.473 289.691 128.388 291.676 128.088 292.419C127.345 293.715 126.292 294.806 125.025 295.596C123.167 296.861 121.618 298.528 120.491 300.473C118.658 303.277 116.233 305.646 113.387 307.413C109.596 309.564 105.128 310.189 100.892 309.162C96.4077 307.891 95.9936 306.792 96.0293 305.099L127.809 289.499Z" fill="#4F4F4F"/>
<path d="M113.957 279.117C112.779 284.829 110.73 289.027 105.982 292.554C102.198 295.367 99.4558 296.795 96.4356 299.301C95.1575 300.372 95.0504 302.65 96.0286 305.106C98.0706 306.741 100.969 307.684 104.861 307.677C109.216 307.677 110.887 306.898 113.386 305.192C114.613 304.353 115.757 303.396 116.799 302.336C118.891 300.237 120.369 297.645 121.854 295.981C123.339 294.318 126.631 292.618 127.566 290.612C128.08 289.512 127.866 286.963 127.523 284.793C127.209 282.801 127.816 279.302 126.859 279.081L126.723 280.509C126.645 280.83 126.445 280.994 125.774 281.223C125.171 281.354 124.548 281.371 123.939 281.273C123.722 281.194 123.487 281.186 123.265 281.249C123.043 281.312 122.847 281.442 122.704 281.623C122.061 282.38 121.89 283.451 121.061 284.079C121.008 284.126 120.944 284.16 120.876 284.179C120.844 284.197 120.808 284.205 120.771 284.204C120.735 284.203 120.699 284.192 120.669 284.172C120.647 284.137 120.632 284.098 120.626 284.058C120.62 284.017 120.622 283.976 120.633 283.936L120.869 281.794C120.897 281.581 120.897 281.365 120.869 281.151C120.824 280.952 120.737 280.765 120.614 280.603C120.491 280.44 120.334 280.306 120.155 280.209C119.553 279.859 118.907 279.592 118.234 279.416C117.533 279.226 116.816 279.104 116.092 279.052C115.381 278.961 114.661 278.983 113.957 279.117Z" fill="#323232"/>
<path d="M143.852 91.2994C143.852 91.2994 145.816 93.9983 147.422 99.5603C149.378 108.695 150.383 118.008 150.421 127.349C150.421 139.966 148.722 160.407 148.722 160.407C134.077 167.747 110.458 163.406 100.062 156.245C100.484 153.974 100.841 142.036 101.662 134.161C102.212 120.652 102.669 113.576 102.761 107.564C102.954 95.5548 108.93 89.3501 113.471 89.2573L124.938 89.4358L143.852 91.2994Z" fill="#555555"/>
<path d="M147.464 156.702C145.286 158.494 141.038 161.935 140.231 163.67C139.331 165.655 138.803 168.668 138.196 169.796C137.589 170.925 138.503 171.496 139.76 171.089C141.017 170.682 141.766 169.618 142.737 167.019C143.708 164.42 146.407 162.385 146.407 162.385L147.464 156.702Z" fill="#A57464"/>
<path d="M139.511 180.071C140.032 181.077 141.246 181.085 142.367 181.17C143.734 181.327 145.118 181.171 146.415 180.713C147.974 180.263 149.342 179.312 150.307 178.007C151.406 176.422 151.692 174.437 152.32 172.617C153.634 168.797 157.547 166.041 158.189 161.992C158.453 160.321 158.453 158.351 158.903 157.316C159.182 156.701 165.615 145.627 167.914 140.829C170.113 136.217 171.762 134.046 169.763 128.506C167.764 122.965 160.959 103.466 156.14 96.6898C153.412 92.8484 149.079 91.7489 143.823 91.2991C139.825 101.709 144.473 112.469 144.473 112.469L155.083 132.875C155.083 132.875 150.971 146.927 148.4 154.738C147.686 156.88 146.258 158.251 144.623 160.657C143.909 161.699 142.296 163.513 141.724 164.648C141.01 166.076 141.01 167.019 140.653 169.039C140.096 172.26 139.232 179.592 139.511 180.071Z" fill="#FFBCB5"/>
<path d="M143.288 91.2422C146.051 91.3493 150.021 91.8205 152.391 93.02C154.762 94.2196 156.411 95.6975 159.138 101.167C161.866 106.636 165.857 117.26 165.857 117.26C165.857 117.26 164.536 125.279 151.856 127.356L143.288 111.555C143.288 111.555 139.468 101.709 143.288 91.2422Z" fill="#3C3C3C"/>
<path d="M110.344 65.7235C110.719 66.401 111.043 67.105 111.315 67.8298C111.737 68.7766 112.277 69.6666 112.922 70.4788C114.564 72.3709 116.87 73.756 118.976 75.0984C120.247 75.9123 121.704 76.6763 123.26 76.455C124.817 76.2336 126.552 76.5692 128.158 76.712L133.777 77.2189L133.463 83.1237C133.463 83.1237 134.177 81.5601 135.113 79.6894C135.927 78.0829 139.34 69.9361 139.354 69.9004C141.046 65.8663 143.052 60.4828 141.032 56.2416C140.572 55.1972 139.805 54.3179 138.833 53.7212C139.028 53.0692 139.091 52.3845 139.018 51.7077C138.906 50.7468 138.579 49.8234 138.063 49.0053C137.546 48.1873 136.853 47.4956 136.034 46.981C134.435 45.9003 132.632 45.1569 130.736 44.7962C128.221 44.2177 125.648 43.9326 123.067 43.9465C120.539 44.0237 118.022 44.3127 115.542 44.8105C114.159 45.066 112.757 45.2116 111.351 45.246C110.745 45.2857 110.137 45.257 109.537 45.1603C108.792 44.9377 108.06 44.6731 107.345 44.3678C107.283 44.3417 107.216 44.3282 107.149 44.3282C107.081 44.3282 107.015 44.3417 106.952 44.3678C106.896 44.4055 106.848 44.455 106.812 44.5129C106.776 44.5708 106.754 44.6358 106.745 44.7034C106.56 45.5948 106.568 46.5156 106.768 47.4037C106.969 48.2918 107.358 49.1265 107.909 49.8513C107.588 49.8075 107.275 49.716 106.981 49.58C106.647 49.4254 106.325 49.2464 106.017 49.0445C105.493 48.6932 105.034 48.2535 104.661 47.745C104.609 47.6653 104.53 47.607 104.439 47.5808C104.296 47.5808 104.182 47.6808 104.096 47.795C103.711 48.3681 103.449 49.0148 103.326 49.6944C103.203 50.374 103.222 51.0717 103.382 51.7434C103.697 53.0917 104.334 54.3436 105.239 55.392C104.798 56.1049 104.543 56.9173 104.498 57.7546C104.453 58.5918 104.619 59.4269 104.982 60.1829C105.299 60.8534 105.727 61.4664 106.246 61.9965C106.888 62.6533 107.674 63.1888 108.323 63.8029C109.068 64.3634 109.746 65.0078 110.344 65.7235Z" fill="#503838"/>
<path d="M127.459 55.8845C127.438 56.9507 127.575 58.0142 127.866 59.0403C128.204 59.9417 128.75 60.7511 129.458 61.4037C130.259 62.0832 130.999 62.831 131.671 63.6385C132.396 64.8955 132.822 66.3029 132.913 67.7511C132.918 68.1777 133.017 68.5979 133.205 68.981C133.393 69.364 133.664 69.7001 133.999 69.9645C135.527 70.9142 136.441 69.0792 137.255 68.1795C138.304 67.2085 141.424 66.0375 142.867 69.3362C144.359 72.7634 141.603 77.3045 139.097 78.0042C134.777 79.2108 133.835 76.2692 133.835 76.2692L133.006 91.6916C130.572 96.3111 124.845 97.782 121.083 97.0466C117.834 96.4111 116.049 94.1334 119.105 90.8348L119.269 86.1366C119.269 86.1366 115.371 86.6007 113.493 86.2437C110.358 85.6583 108.809 82.995 107.959 79.5607C106.61 74.0415 105.989 68.2367 107.666 55.8059C108.43 55.3847 111.522 57.7908 116.234 58.1121C120.108 58.3852 123.983 57.6159 127.459 55.8845Z" fill="#FFBCB5"/>
<path d="M119.24 86.1222C119.24 86.1222 126.309 84.937 128.808 83.7089C130.274 83.0026 131.493 81.8704 132.306 80.4602C131.889 81.8843 131.19 83.2101 130.25 84.3586C128.379 86.5935 119.176 87.9929 119.176 87.9929L119.24 86.1222Z" fill="#A57464"/>
<path d="M122.918 61.4037L126.209 62.4105C126.335 61.9609 126.282 61.4799 126.061 61.0686C125.84 60.6573 125.469 60.3475 125.024 60.2042C124.807 60.1406 124.58 60.1214 124.355 60.1476C124.13 60.1739 123.913 60.2451 123.717 60.357C123.52 60.469 123.348 60.6193 123.211 60.7992C123.074 60.979 122.974 61.1846 122.918 61.4037Z" fill="#4F4F4F"/>
<path d="M121.774 76.9978L116.926 78.64C117.02 78.964 117.179 79.2658 117.392 79.5274C117.605 79.7891 117.869 80.0052 118.167 80.163C118.465 80.3208 118.792 80.4171 119.129 80.4462C119.465 80.4753 119.804 80.4365 120.125 80.3322C120.777 80.097 121.313 79.6185 121.62 78.997C121.928 78.3754 121.983 77.659 121.774 76.9978Z" fill="#A57464"/>
<path d="M121.384 78.1831C120.751 78.1836 120.137 78.3942 119.637 78.7819C119.136 79.1696 118.779 79.7124 118.621 80.3251C119.11 80.4859 119.638 80.4859 120.128 80.3251C120.579 80.1654 120.979 79.8855 121.283 79.5156C121.588 79.1458 121.786 78.6999 121.856 78.2259C121.7 78.1976 121.542 78.1833 121.384 78.1831Z" fill="#F28F8F"/>
<path d="M108.222 61.9251L111.571 61.4895C111.545 61.2727 111.477 61.0632 111.369 60.8733C111.261 60.6835 111.117 60.5171 110.944 60.384C110.771 60.2509 110.573 60.1538 110.362 60.0984C110.15 60.043 109.93 60.0305 109.714 60.0615C109.273 60.1188 108.871 60.3449 108.592 60.6924C108.314 61.0399 108.181 61.4818 108.222 61.9251Z" fill="#4F4F4F"/>
<path d="M128.805 63.3523L139.85 67.1151C139.231 67.1222 138.622 67.2714 138.07 67.5512C137.518 67.831 137.038 68.2338 136.666 68.7287L128.848 65.7585L128.805 63.3523Z" fill="#4F4F4F"/>
<path d="M109.871 67.6658C109.858 67.8435 109.881 68.0219 109.938 68.1906C109.996 68.3592 110.087 68.5146 110.205 68.6477C110.323 68.7808 110.467 68.8888 110.628 68.9654C110.789 69.042 110.963 69.0857 111.141 69.0938C111.319 69.0957 111.494 69.0627 111.659 68.9966C111.823 68.9305 111.973 68.8327 112.1 68.7087C112.226 68.5847 112.327 68.437 112.397 68.274C112.467 68.111 112.503 67.9359 112.505 67.7586C112.518 67.5809 112.495 67.4025 112.437 67.2339C112.38 67.0653 112.289 66.9098 112.171 66.7768C112.052 66.6437 111.908 66.5357 111.748 66.459C111.587 66.3824 111.412 66.3388 111.234 66.3306C111.057 66.3288 110.881 66.3618 110.717 66.4279C110.552 66.494 110.402 66.5918 110.276 66.7158C110.149 66.8398 110.048 66.9875 109.979 67.1505C109.909 67.3135 109.872 67.4886 109.871 67.6658Z" fill="#4F4F4F"/>
<path d="M122.488 67.6655C122.49 67.9246 122.568 68.1775 122.712 68.3928C122.856 68.608 123.06 68.7761 123.299 68.8762C123.538 68.9762 123.801 69.0037 124.056 68.9553C124.31 68.9069 124.545 68.7848 124.731 68.604C124.916 68.4232 125.045 68.1919 125.1 67.9387C125.155 67.6856 125.134 67.4218 125.041 67.1802C124.947 66.9386 124.784 66.73 124.573 66.5801C124.362 66.4303 124.111 66.3459 123.852 66.3375C123.495 66.3337 123.152 66.4712 122.896 66.7201C122.641 66.9689 122.494 67.3089 122.488 67.6655Z" fill="#4F4F4F"/>
<path d="M104.068 65.7097C103.683 65.2718 103.435 64.7307 103.354 64.1532C103.337 63.884 103.408 63.6165 103.556 63.3911C103.704 63.1657 103.921 62.9946 104.175 62.9037L104.889 62.8323C107.217 62.6181 110.266 62.5967 112.108 63.1964C114.428 63.9533 115.164 64.7958 116.527 64.7958C117.891 64.7958 118.741 64.0318 121.183 63.3678C123.132 62.8394 126.388 62.968 128.887 63.275L129.665 63.3749C129.937 63.4681 130.17 63.6477 130.33 63.8862C130.49 64.1248 130.567 64.4092 130.55 64.6958C130.466 65.2553 130.218 65.7772 129.836 66.1952C129.718 66.3807 129.636 66.5865 129.594 66.8021C129.351 67.8517 129.222 69.8652 128.73 70.9719C128.499 71.5204 128.173 72.0233 127.766 72.457C127.615 72.6171 127.45 72.7629 127.273 72.8926C127.182 72.9633 127.087 73.0277 126.988 73.0854C126.717 73.2506 126.43 73.387 126.131 73.4923L125.981 73.5352C125.906 73.5608 125.83 73.5823 125.752 73.5994L125.517 73.6566C125.265 73.7122 125.01 73.748 124.753 73.7637C124.643 73.771 124.534 73.771 124.424 73.7637H124.017C120.826 73.7208 119.526 72.1572 118.684 70.5578C117.841 68.9584 117.97 66.6951 116.542 66.6951H116.399H116.27C115.199 66.9378 115.371 68.9941 114.714 70.465C114.469 71.0478 114.129 71.5858 113.707 72.0572C113.632 72.1457 113.551 72.2292 113.464 72.3071C113.427 72.3506 113.383 72.389 113.336 72.4213L113.2 72.5284L113.079 72.6284L112.943 72.7212L112.836 72.7855L112.765 72.8355C112.371 73.0586 111.948 73.2245 111.508 73.3281H111.394C110.887 73.4329 110.369 73.4761 109.852 73.4566C108.88 73.4971 107.921 73.2306 107.109 72.6948C106.298 72.1591 105.676 71.3814 105.332 70.4721C104.825 69.344 104.604 67.3305 104.347 66.2666C104.296 66.0628 104.201 65.8726 104.068 65.7097Z" fill="#4F4F4F"/>
<path d="M116.928 66.7293L116.678 75.9114L111.559 74.4263L116.335 66.6508C116.536 66.6316 116.739 66.6585 116.928 66.7293Z" fill="#A57464"/>
<path d="M256.768 66.6298L252.763 67.8365L249.871 58.1761L253.862 56.9766L256.768 66.6298Z" fill="#32cd71"/>
<path d="M269.27 58.055C269.304 58.4469 269.212 58.8392 269.008 59.1754C268.804 59.5116 268.498 59.7743 268.135 59.9257C268.395 60.221 268.588 60.5694 268.699 60.9467C268.928 61.6607 268.321 62.696 267.114 63.0887L257.953 65.8447L255.262 56.8698C255.262 56.8698 256.811 52.9071 256.89 52.3073C256.968 51.7075 256.054 49.5084 255.926 49.0943C255.797 48.6802 257.282 48.1375 258.453 48.6088C258.726 48.7299 258.969 48.9075 259.167 49.13C259.588 49.5785 259.942 50.086 260.217 50.6365C260.606 51.4211 260.797 52.2888 260.774 53.1641L266.322 51.4719C266.704 51.3334 267.124 51.3334 267.507 51.4719C267.757 51.571 267.978 51.7331 268.148 51.9426C268.317 52.1522 268.43 52.4019 268.474 52.6678C268.519 52.9336 268.494 53.2064 268.402 53.4598C268.31 53.7131 268.154 53.9384 267.949 54.1137C268.28 54.0898 268.608 54.1774 268.883 54.3625C269.157 54.5477 269.362 54.8196 269.463 55.1347C269.548 55.5011 269.503 55.8855 269.336 56.2226C269.17 56.5597 268.892 56.8287 268.549 56.984C268.92 57.2339 269.178 57.6179 269.27 58.055Z" fill="#32cd71"/>
<path d="M314.157 166.797L309.023 165.562L312.015 153.181L317.149 154.416L314.157 166.797Z" fill="#32cd71"/>
<path d="M333.27 165.404C333.057 165.853 332.707 166.222 332.271 166.46C331.834 166.697 331.334 166.79 330.842 166.725C330.935 167.213 330.922 167.714 330.806 168.196C330.578 169.16 329.271 169.867 327.729 169.489L315.977 166.633L318.747 155.13C318.747 155.13 322.967 151.796 323.431 151.189C323.895 150.582 324.295 147.619 324.423 147.069C324.552 146.519 326.515 146.89 327.493 148.154C327.731 148.461 327.897 148.817 327.979 149.197C328.152 149.952 328.215 150.729 328.165 151.503C328.087 152.608 327.744 153.678 327.165 154.623L334.262 156.337C334.766 156.443 335.216 156.724 335.533 157.129C335.709 157.36 335.834 157.626 335.899 157.91C335.964 158.193 335.968 158.486 335.911 158.771C335.816 159.147 335.618 159.488 335.339 159.757C335.06 160.025 334.712 160.211 334.333 160.292C334.709 160.476 335.012 160.781 335.193 161.158C335.375 161.535 335.424 161.962 335.333 162.37C335.188 162.821 334.893 163.209 334.497 163.469C334.1 163.729 333.627 163.845 333.155 163.798C333.401 164.298 333.442 164.874 333.27 165.404Z" fill="#32cd71"/>
<path d="M54.8477 159.392L60.4526 161.077L64.5081 147.553L58.9103 145.868L54.8477 159.392Z" fill="#6FCF97"/>
<path d="M37.3345 147.376C37.2878 147.925 37.4168 148.475 37.703 148.946C37.9892 149.417 38.4178 149.784 38.9267 149.996C38.5669 150.411 38.2992 150.898 38.1413 151.424C37.82 152.474 38.6768 153.88 40.3547 154.38L53.2067 158.243L56.9624 145.655C56.9624 145.655 54.7847 140.1 54.6776 139.229C54.5705 138.358 55.8557 135.316 56.027 134.731C56.1698 134.259 54.1278 133.395 52.457 134.059C52.0598 134.215 51.7033 134.459 51.4146 134.773C50.8213 135.411 50.3256 136.133 49.9437 136.915C49.3966 138.024 49.1271 139.249 49.1583 140.485L41.4471 138.158C40.9034 137.979 40.3137 137.999 39.7835 138.215C39.4321 138.353 39.1225 138.58 38.885 138.874C38.6475 139.167 38.4901 139.518 38.4283 139.89C38.3664 140.263 38.4022 140.645 38.5321 141C38.662 141.354 38.8816 141.669 39.1695 141.913C38.7035 141.873 38.2377 141.993 37.8485 142.252C37.4593 142.512 37.1698 142.896 37.0275 143.341C36.9088 143.856 36.9711 144.395 37.204 144.868C37.4368 145.342 37.8259 145.721 38.3055 145.94C37.8163 146.283 37.4706 146.794 37.3345 147.376Z" fill="#6FCF97"/>
</svg>
