<svg width="259" height="162" viewBox="0 0 259 162" fill="none" xmlns="http://www.w3.org/2000/svg">
<path d="M0 56.6265L227.97 89.4465L258.56 120.316L0 56.6265Z" fill="#65C17E"/>
<path opacity="0.6" d="M0 56.6265L227.97 89.4465L258.56 120.316L0 56.6265Z" fill="white"/>
<path d="M0 56.6265L227.97 89.4465L217.39 134.086L0 56.6265Z" fill="#65C17E"/>
<path opacity="0.2" d="M0 56.6265L227.97 89.4465L217.39 134.086L0 56.6265Z" fill="black"/>
<path d="M212.712 4.94655L225.942 66.9466C226.286 68.5655 225.974 70.2549 225.074 71.6441C224.174 73.0332 222.76 74.0087 221.142 74.3565L103.062 99.5566C101.443 99.898 99.7549 99.5847 98.3664 98.6853C96.9779 97.7859 96.0019 96.3734 95.6517 94.7566L82.4117 32.7565C82.0706 31.1364 82.3851 29.4471 83.2866 28.0583C84.1881 26.6696 85.603 25.6945 87.2217 25.3465L205.302 0.146551C206.922 -0.194587 208.611 0.12 210 1.02147C211.389 1.92293 212.364 3.33785 212.712 4.95655V4.94655Z" fill="#65C17E"/>
<path opacity="0.4" d="M212.712 4.94655L225.942 66.9466C226.286 68.5655 225.974 70.2549 225.074 71.6441C224.174 73.0332 222.76 74.0087 221.142 74.3565L103.062 99.5566C101.443 99.898 99.7549 99.5847 98.3664 98.6853C96.9779 97.7859 96.0019 96.3734 95.6517 94.7566L82.4117 32.7565C82.0706 31.1364 82.3851 29.4471 83.2866 28.0583C84.1881 26.6696 85.603 25.6945 87.2217 25.3465L205.302 0.146551C206.922 -0.194587 208.611 0.12 210 1.02147C211.389 1.92293 212.364 3.33785 212.712 4.95655V4.94655Z" fill="black"/>
<path d="M209.8 0.886503L170.35 49.3165C166.691 53.8066 161.61 56.9133 155.945 58.1225C150.281 59.3318 144.373 58.5712 139.2 55.9665L83.4102 27.8665C84.3128 26.5699 85.6749 25.6654 87.2202 25.3365L205.3 0.136503C206.841 -0.191449 208.449 0.076535 209.8 0.886503Z" fill="#65C17E"/>
<path d="M0 56.6265L188.03 101.316L217.39 134.086L0 56.6265Z" fill="#65C17E"/>
<path opacity="0.6" d="M0 56.6265L188.03 101.316L217.39 134.086L0 56.6265Z" fill="white"/>
<path d="M68.5875 99.7016L68.082 100.564L89.0066 112.821L89.512 111.958L68.5875 99.7016Z" fill="#65C17E"/>
<path d="M98.7515 117.362L98.2461 118.225L105.77 122.632L106.276 121.77L98.7515 117.362Z" fill="#65C17E"/>
<path d="M0 56.6265L188.03 101.316L151.48 145.366L0 56.6265Z" fill="#65C17E"/>
<path d="M251.499 161.327C251.246 161.327 250.995 161.28 250.759 161.187L220.139 149.067C219.65 148.869 219.258 148.486 219.049 148.001C218.841 147.516 218.833 146.968 219.027 146.476C219.221 145.985 219.601 145.591 220.085 145.379C220.569 145.167 221.117 145.156 221.609 145.347L252.239 157.467C252.673 157.638 253.033 157.955 253.257 158.363C253.481 158.772 253.556 159.246 253.469 159.703C253.381 160.161 253.136 160.573 252.777 160.87C252.417 161.166 251.965 161.328 251.499 161.327Z" fill="#65C17E"/>
<path opacity="0.3" d="M251.499 161.327C251.246 161.327 250.995 161.28 250.759 161.187L220.139 149.067C219.65 148.869 219.258 148.486 219.049 148.001C218.841 147.516 218.833 146.968 219.027 146.476C219.221 145.985 219.601 145.591 220.085 145.379C220.569 145.167 221.117 145.156 221.609 145.347L252.239 157.467C252.673 157.638 253.033 157.955 253.257 158.363C253.481 158.772 253.556 159.246 253.469 159.703C253.381 160.161 253.136 160.573 252.777 160.87C252.417 161.166 251.965 161.328 251.499 161.327Z" fill="black"/>
<path d="M249.692 143.767C249.441 143.765 249.193 143.714 248.962 143.617L232.512 137.067C232.266 136.971 232.041 136.828 231.851 136.646C231.66 136.463 231.508 136.245 231.402 136.003C231.296 135.762 231.239 135.501 231.235 135.238C231.23 134.974 231.277 134.712 231.374 134.467C231.471 134.221 231.616 133.998 231.8 133.808C231.983 133.619 232.203 133.468 232.445 133.364C232.687 133.26 232.948 133.205 233.212 133.202C233.475 133.199 233.737 133.248 233.982 133.347L250.432 139.867C250.925 140.061 251.321 140.442 251.532 140.928C251.744 141.413 251.755 141.963 251.562 142.457C251.421 142.84 251.166 143.17 250.832 143.405C250.498 143.639 250.1 143.765 249.692 143.767Z" fill="#65C17E"/>
<path opacity="0.5" d="M249.692 143.767C249.441 143.765 249.193 143.714 248.962 143.617L232.512 137.067C232.266 136.971 232.041 136.828 231.851 136.646C231.66 136.463 231.508 136.245 231.402 136.003C231.296 135.762 231.239 135.501 231.235 135.238C231.23 134.974 231.277 134.712 231.374 134.467C231.471 134.221 231.616 133.998 231.8 133.808C231.983 133.619 232.203 133.468 232.445 133.364C232.687 133.26 232.948 133.205 233.212 133.202C233.475 133.199 233.737 133.248 233.982 133.347L250.432 139.867C250.925 140.061 251.321 140.442 251.532 140.928C251.744 141.413 251.755 141.963 251.562 142.457C251.421 142.84 251.166 143.17 250.832 143.405C250.498 143.639 250.1 143.765 249.692 143.767Z" fill="white"/>
<path d="M215.299 161.067C215.049 161.064 214.802 161.016 214.569 160.927L184.699 149.067C184.453 148.971 184.229 148.828 184.038 148.646C183.848 148.463 183.695 148.245 183.59 148.003C183.484 147.762 183.427 147.501 183.422 147.238C183.417 146.974 183.465 146.712 183.562 146.467C183.659 146.221 183.803 145.998 183.987 145.808C184.171 145.619 184.39 145.468 184.632 145.364C184.875 145.26 185.135 145.205 185.399 145.202C185.663 145.199 185.925 145.248 186.169 145.347L216.039 157.167C216.472 157.338 216.832 157.655 217.057 158.063C217.281 158.472 217.356 158.945 217.268 159.403C217.181 159.861 216.936 160.273 216.576 160.57C216.217 160.866 215.765 161.028 215.299 161.027V161.067Z" fill="#65C17E"/>
<path opacity="0.3" d="M215.299 161.067C215.049 161.064 214.802 161.016 214.569 160.927L184.699 149.067C184.453 148.971 184.229 148.828 184.038 148.646C183.848 148.463 183.695 148.245 183.59 148.003C183.484 147.762 183.427 147.501 183.422 147.238C183.417 146.974 183.465 146.712 183.562 146.467C183.659 146.221 183.803 145.998 183.987 145.808C184.171 145.619 184.39 145.468 184.632 145.364C184.875 145.26 185.135 145.205 185.399 145.202C185.663 145.199 185.925 145.248 186.169 145.347L216.039 157.167C216.472 157.338 216.832 157.655 217.057 158.063C217.281 158.472 217.356 158.945 217.268 159.403C217.181 159.861 216.936 160.273 216.576 160.57C216.217 160.866 215.765 161.028 215.299 161.027V161.067Z" fill="black"/>
</svg>
