<svg width="20" height="21" viewBox="0 0 20 21" fill="none" xmlns="http://www.w3.org/2000/svg">
<path d="M18.4033 11.8459L18.0147 11.6213C17.5523 11.3546 17.276 10.876 17.276 10.3419C17.276 9.80779 17.5523 9.32911 18.0147 9.06244L18.4033 8.83787C19.464 8.22474 19.8267 6.87144 19.2144 5.81066L18.4757 4.53122C17.8647 3.47265 16.5063 3.10921 15.4484 3.72012L15.0599 3.94395C14.5975 4.21136 14.0442 4.21136 13.5825 3.94395C13.12 3.67654 12.8438 3.19859 12.8438 2.66451V2.21612C12.8438 0.994297 11.8495 0 10.6277 0H9.15024C7.92842 0 6.93413 0.994297 6.93413 2.21612V2.66525C6.93413 3.19933 6.65785 3.67727 6.19542 3.94469C5.73299 4.21136 5.18044 4.2121 4.71801 3.94469L4.32945 3.72012C3.27163 3.10921 1.91315 3.47265 1.3015 4.53122L0.562793 5.81066C-0.0495934 6.87144 0.313111 8.22548 1.37389 8.83787L1.76319 9.06244C2.22562 9.32911 2.50189 9.80779 2.50189 10.3419C2.50189 10.876 2.22562 11.3546 1.76319 11.6213L1.37463 11.8459C0.31385 12.4583 -0.0488547 13.8123 0.563532 14.8731L1.30224 16.1525C1.91388 17.2111 3.27236 17.5745 4.32945 16.9636L4.71801 16.7398C5.18044 16.4716 5.73299 16.4731 6.19542 16.7398C6.65785 17.0072 6.93413 17.4852 6.93413 18.0192V18.4676C6.93413 19.6894 7.92842 20.6837 9.15024 20.6837H10.6277C11.8495 20.6837 12.8438 19.6894 12.8438 18.4676V18.0185C12.8438 17.4844 13.12 17.0065 13.5825 16.7391C14.0442 16.4724 14.5975 16.4716 15.0599 16.7391L15.4484 16.9636C16.5063 17.5738 17.8647 17.2104 18.4757 16.1525L19.2144 14.8731C19.8267 13.8123 19.464 12.4583 18.4033 11.8459ZM9.88895 14.0354C7.85234 14.0354 6.19542 12.3785 6.19542 10.3419C6.19542 8.30526 7.85234 6.64835 9.88895 6.64835C11.9256 6.64835 13.5825 8.30526 13.5825 10.3419C13.5825 12.3785 11.9256 14.0354 9.88895 14.0354Z"/>
</svg>
