<svg width="20" height="18" viewBox="0 0 20 18" fill="none" xmlns="http://www.w3.org/2000/svg">
<path d="M11.0003 4.55073V1.12364C11.0003 0.82563 11.1057 0.539828 11.2932 0.329106C11.4807 0.118383 11.7351 0 12.0003 0C12.2626 0.00124119 12.514 0.118269 12.7003 0.325855L19.7003 8.19131C19.794 8.29577 19.8684 8.42005 19.9192 8.55697C19.97 8.6939 19.9961 8.84076 19.9961 8.9891C19.9961 9.13743 19.97 9.2843 19.9192 9.42122C19.8684 9.55815 19.794 9.68242 19.7003 9.78688L12.7003 17.6523C12.5599 17.807 12.3821 17.9117 12.189 17.9533C11.996 17.995 11.7963 17.9719 11.6149 17.8868C11.4335 17.8016 11.2785 17.6583 11.1692 17.4747C11.0598 17.2911 11.0011 17.0754 11.0003 16.8546V13.3713H10.1503C8.57038 13.3448 7.00425 13.705 5.56063 14.4268C4.117 15.1486 2.83046 16.2147 1.7903 17.5512C1.66494 17.7387 1.49051 17.8775 1.29146 17.948C1.09241 18.0185 0.8787 18.0173 0.680296 17.9445C0.47839 17.8679 0.30353 17.7209 0.181208 17.5248C0.0588856 17.3288 -0.00449753 17.0939 0.000295639 16.8546C0.000295639 6.60699 8.0803 4.85411 11.0003 4.55073ZM10.1503 11.1015C10.8191 11.0992 11.4874 11.148 12.1503 11.2476C12.387 11.288 12.603 11.4224 12.759 11.6266C12.915 11.8307 13.0006 12.091 13.0003 12.36V14.1466L17.5803 8.9891L13.0003 3.8316V5.61819C13.0003 5.91619 12.8949 6.20199 12.7074 6.41272C12.5199 6.62344 12.2655 6.74182 12.0003 6.74182C11.0903 6.74182 3.8903 6.96655 2.3303 13.9668C4.5946 12.091 7.33713 11.0861 10.1503 11.1015Z"/>
</svg>
