<svg width="20" height="18" viewBox="0 0 20 18" fill="none" xmlns="http://www.w3.org/2000/svg">
<path d="M11.0042 4.55073V1.12364C11.0042 0.82563 11.1096 0.539828 11.2971 0.329106C11.4846 0.118383 11.739 0 12.0042 0C12.2665 0.00124119 12.5179 0.118269 12.7042 0.325855L19.7042 8.19131C19.7979 8.29577 19.8723 8.42005 19.9231 8.55697C19.9739 8.6939 20 8.84076 20 8.9891C20 9.13743 19.9739 9.2843 19.9231 9.42122C19.8723 9.55815 19.7979 9.68242 19.7042 9.78688L12.7042 17.6523C12.5638 17.807 12.386 17.9117 12.1929 17.9533C11.9999 17.995 11.8002 17.9719 11.6188 17.8868C11.4374 17.8016 11.2824 17.6583 11.1731 17.4747C11.0637 17.2911 11.005 17.0754 11.0042 16.8546V13.3713H10.1542C8.57428 13.3448 7.00816 13.705 5.56453 14.4268C4.12091 15.1486 2.83437 16.2147 1.7942 17.5512C1.66885 17.7387 1.49442 17.8775 1.29537 17.948C1.09631 18.0185 0.882607 18.0173 0.684202 17.9445C0.482296 17.8679 0.307436 17.7209 0.185114 17.5248C0.0627918 17.3288 -0.000591278 17.0939 0.00420189 16.8546C0.00420189 6.60699 8.0842 4.85411 11.0042 4.55073ZM10.1542 11.1015C10.823 11.0992 11.4913 11.148 12.1542 11.2476C12.3909 11.288 12.6069 11.4224 12.7629 11.6266C12.9189 11.8307 13.0045 12.091 13.0042 12.36V14.1466L17.5842 8.9891L13.0042 3.8316V5.61819C13.0042 5.91619 12.8988 6.20199 12.7113 6.41272C12.5238 6.62344 12.2694 6.74182 12.0042 6.74182C11.0942 6.74182 3.8942 6.96655 2.3342 13.9668C4.59851 12.091 7.34103 11.0861 10.1542 11.1015Z"/>
</svg>
