<svg width="25" height="24" viewBox="0 0 25 24" fill="none" xmlns="http://www.w3.org/2000/svg">
<path d="M12.8901 21C17.8473 21 21.8659 16.9706 21.8659 12C21.8659 7.02944 17.8473 3 12.8901 3C7.93282 3 3.91418 7.02944 3.91418 12C3.91418 16.9706 7.93282 21 12.8901 21Z" stroke-width="2" stroke-linecap="round" stroke-linejoin="round"/>
<path d="M6.55713 5.6499L19.2231 18.3499" stroke-width="2" stroke-linecap="round" stroke-linejoin="round"/>
<path d="M6.55713 18.3499L19.2231 5.6499" stroke-width="2" stroke-linecap="round" stroke-linejoin="round"/>
<path d="M12.89 3C12.89 5.38695 13.8357 7.67613 15.519 9.36396C17.2023 11.0518 19.4853 12 21.8659 12" stroke-width="2" stroke-linecap="round" stroke-linejoin="round"/>
<path d="M3.91418 12C6.29473 12 8.57778 12.9482 10.2611 14.636C11.9444 16.3239 12.8901 18.6131 12.8901 21" stroke-width="2" stroke-linecap="round" stroke-linejoin="round"/>
</svg>
