<svg width="24" height="17" viewBox="0 0 24 17" fill="none" xmlns="http://www.w3.org/2000/svg">
<path d="M22.9217 4.4002L22.6405 3.70021C22.2802 2.88774 21.6965 2.19994 20.9606 1.72056C20.2247 1.24118 19.3683 0.990921 18.4958 1.00025C17.545 0.99922 16.6145 1.28156 15.8183 1.81274L6.2573 7.92514L4.66788 6.80015C4.45261 6.6529 4.19943 6.5743 3.94042 6.5743C3.68141 6.5743 3.42823 6.6529 3.21296 6.80015L1 8.17513L5.36478 13.0875C5.55911 13.2913 5.81047 13.4283 6.0842 13.4798C6.35793 13.5313 6.64054 13.4947 6.89307 13.375L11.3312 11.2126L10.781 16L14.131 13.725C14.3369 13.581 14.4948 13.376 14.5834 13.1375L16.0506 9.28761C16.1659 8.98912 16.3892 8.74743 16.6741 8.61262L22.3349 5.85017C22.5981 5.73425 22.8068 5.51787 22.9164 5.24706C23.026 4.97626 23.0279 4.67242 22.9217 4.4002Z" stroke-width="2" stroke-linecap="round" stroke-linejoin="round"/>
</svg>
