<svg width="27" height="26" viewBox="0 0 27 26" fill="none" xmlns="http://www.w3.org/2000/svg">
<path d="M11.7266 20.5833H5.244C4.95746 20.5833 4.68264 20.4692 4.48002 20.266C4.2774 20.0629 4.16357 19.7873 4.16357 19.5V4.33333C4.16357 4.04602 4.2774 3.77047 4.48002 3.5673C4.68264 3.36414 4.95746 3.25 5.244 3.25H11.7266C12.2997 3.25 12.8493 3.47827 13.2545 3.8846C13.6598 4.29093 13.8874 4.84203 13.8874 5.41667C13.8874 4.84203 14.1151 4.29093 14.5203 3.8846C14.9256 3.47827 15.4752 3.25 16.0483 3.25H22.5309C22.8174 3.25 23.0922 3.36414 23.2948 3.5673C23.4975 3.77047 23.6113 4.04602 23.6113 4.33333V19.5C23.6113 19.7873 23.4975 20.0629 23.2948 20.266C23.0922 20.4692 22.8174 20.5833 22.5309 20.5833H16.0483C15.4752 20.5833 14.9256 20.8116 14.5203 21.2179C14.1151 21.6243 13.8874 22.1754 13.8874 22.75C13.8874 22.1754 13.6598 21.6243 13.2545 21.2179C12.8493 20.8116 12.2997 20.5833 11.7266 20.5833Z" stroke-width="2" stroke-linecap="round" stroke-linejoin="round"/>
<path d="M13.8873 5.4165V22.7498" stroke-width="2" stroke-linecap="round" stroke-linejoin="round"/>
<path d="M8.48523 7.5835H9.56566" stroke-width="2" stroke-linecap="round" stroke-linejoin="round"/>
<path d="M8.48523 11.9165H9.56566" stroke-width="2" stroke-linecap="round" stroke-linejoin="round"/>
<path d="M18.2091 7.5835H19.2895" stroke-width="2" stroke-linecap="round" stroke-linejoin="round"/>
<path d="M18.2091 11.9165H19.2895" stroke-width="2" stroke-linecap="round" stroke-linejoin="round"/>
<path d="M18.2091 16.25H19.2895" stroke-width="2" stroke-linecap="round" stroke-linejoin="round"/>
</svg>
