<svg width="25" height="25" viewBox="0 0 25 25" fill="none" xmlns="http://www.w3.org/2000/svg">
<path d="M13.5417 15.625H11.4583V13.5417H13.5417V15.625ZM16.6667 4.16667C16.6667 3.8904 16.5569 3.62545 16.3616 3.4301C16.1662 3.23475 15.9013 3.125 15.625 3.125H9.375C9.09873 3.125 8.83378 3.23475 8.63843 3.4301C8.44308 3.62545 8.33333 3.8904 8.33333 4.16667V7.29167H16.6667V4.16667ZM21.875 20.8333V8.33333C21.875 8.05707 21.7653 7.79211 21.5699 7.59676C21.3746 7.40141 21.1096 7.29167 20.8333 7.29167H4.16667C3.8904 7.29167 3.62545 7.40141 3.4301 7.59676C3.23475 7.79211 3.125 8.05707 3.125 8.33333V20.8333C3.125 21.1096 3.23475 21.3746 3.4301 21.5699C3.62545 21.7653 3.8904 21.875 4.16667 21.875H20.8333C21.1096 21.875 21.3746 21.7653 21.5699 21.5699C21.7653 21.3746 21.875 21.1096 21.875 20.8333Z" stroke-width="2" stroke-linecap="round" stroke-linejoin="round"/>
<path d="M11.4583 14.5835H9C8.19157 14.5765 7.40264 14.3344 6.72939 13.8868C6.05614 13.4392 5.52765 12.8054 5.20833 12.0627L3.3125 7.73975" stroke-width="2" stroke-linecap="round" stroke-linejoin="round"/>
<path d="M21.6888 7.73975L19.793 12.0627C19.4737 12.8054 18.9452 13.4392 18.2719 13.8868C17.5987 14.3344 16.8097 14.5765 16.0013 14.5835H13.543" stroke-width="2" stroke-linecap="round" stroke-linejoin="round"/>
</svg>
