<svg xmlns="http://www.w3.org/2000/svg" viewBox="0 0 595.28 538.09"><path d="M271.69,22.3h27.95c1.45.3,2.89.66,4.35.88,11.66,1.7,23.46,2.7,35,5.16,165.79,35.43,246.93,227.94,156.91,372-55.93,89.5-159.73,133.2-263.66,111-96.7-20.64-173.67-101-190.09-198.55-1.61-9.62-2.64-19.34-4-29V255.83c.31-1.6.65-3.19.91-4.79,2.07-13.27,3.25-26.74,6.32-39.77,22.24-94.61,101.79-169.06,197.27-185C252.29,24.65,262,23.61,271.69,22.3Zm167,399.5C477.11,382.22,498.13,334.32,501,278H404.93a315.2,315.2,0,0,1-23.42,112.56Zm-306,0,57.18-31.23C175.07,354.89,167.51,317,166.3,278H70.36C73.19,334.29,94.18,382.18,132.69,421.79ZM405,261.59h95.51c2.43-39.76-28.63-116.21-53.41-133.7l-59.92,35.25C398.28,194.31,404,227.51,405,261.59ZM124.05,127.78C94.9,155.94,67.48,224.34,70.92,261.63h95.47a318.33,318.33,0,0,1,17.75-98.5ZM277.4,374.16V278H182.11c1.16,37.66,8.44,73.6,23.08,108.32A266.55,266.55,0,0,1,277.4,374.16Zm88.81,12.2A298.73,298.73,0,0,0,389.14,278H293.88v96.15A268.24,268.24,0,0,1,366.21,386.36Zm23-124.75c-1-32.46-6.24-63.76-17.4-94.45a270.57,270.57,0,0,1-77.9,14.35v80.1Zm-207,0h95.42V181.44a269,269,0,0,1-78.12-14.25A300.9,300.9,0,0,0,182.16,261.57ZM293.88,54.1V165.26c16.87,1.14,59.56-6.55,71.73-13.43C349.32,114.1,326.32,81.33,293.88,54.1ZM277.39,165.29V54.15c-32.45,27.28-55.54,60.11-71.79,98.06C221.23,159.19,261.71,166.53,277.39,165.29ZM190.78,146.8A296.65,296.65,0,0,1,249,58c-43.59,7.4-81.06,26.36-112.9,56.79C146.29,124.55,177.17,142.57,190.78,146.8ZM323,57.62c10.95,14.25,22.55,27.75,32.29,42.49s17.62,30.72,26.55,46.56a238.22,238.22,0,0,0,53.74-31.62C403.27,84.36,365.88,65.38,323,57.62ZM277.5,389.92c-22.73.8-44.39,4.05-65.83,10.94C227.89,433.6,249,461.8,277.5,485.53Zm16.31,95.67c28.58-24,49.74-52.08,65.65-84.36-11.81-5.67-52.87-12.39-65.65-10.74ZM145,432.49c24.48,23.63,83.74,51,104.25,48.62-21.78-22.09-39.06-47.12-53.14-76Zm280.65,1a233.29,233.29,0,0,0-50.18-26.9c-8.3,13.51-15.69,26.93-24.45,39.39s-18.84,23.87-28.57,36C361.06,475.23,395.13,459.22,425.69,433.52Z"/></svg>