<svg width="571" height="571" viewBox="0 0 571 571" fill="none" xmlns="http://www.w3.org/2000/svg">
<path d="M241.123 265.605C255.679 214.389 212.884 151.709 252.759 106.782C284.527 70.9902 358.282 73.3734 393.7 98.7607C414.086 113.38 427.735 136.086 449.382 150.727C472.61 166.416 503.659 163.967 523.304 189.178C549.85 223.127 534.929 286.27 498.847 313.345C471.449 333.878 448.541 332.94 419.384 342.318C376.998 355.955 358.858 372.108 321.604 393.314C269.373 423.103 198.98 442.246 140.754 407.988C108.876 389.231 78.3247 339.582 126.507 314.846C167.079 294.004 219.288 342.396 241.123 265.605Z" fill="white"/>
<path d="M285.501 488.273C407.789 488.273 506.923 482.485 506.923 475.346C506.923 468.206 407.789 462.418 285.501 462.418C163.212 462.418 64.0781 468.206 64.0781 475.346C64.0781 482.485 163.212 488.273 285.501 488.273Z" fill="#C8D4FF"/>
<path d="M420.141 154.593C413.289 158.338 411.005 169.439 414.214 174.269C402.338 177.832 408.504 198.251 427.918 199.393C447.332 200.535 462.11 193.444 452.574 178.301C462.007 165.59 457.668 151.395 449.399 152.96C440.526 135.179 410.811 135.704 420.141 154.593Z" fill="#263238"/>
<path d="M440.813 200.764C437.818 200.755 434.882 199.934 432.317 198.389C432.276 198.374 432.238 198.35 432.208 198.319C432.177 198.288 432.153 198.251 432.139 198.21C432.124 198.169 432.118 198.125 432.122 198.081C432.127 198.038 432.14 197.996 432.162 197.958C432.185 197.921 432.215 197.889 432.251 197.864C432.287 197.84 432.328 197.823 432.371 197.816C432.414 197.809 432.458 197.812 432.5 197.824C432.542 197.836 432.581 197.857 432.614 197.886C435.922 199.867 439.832 200.594 443.631 199.936C447.431 199.278 450.868 197.278 453.318 194.3C456.436 190.44 457.886 184.251 452.439 178.472C452.413 178.444 452.392 178.412 452.378 178.376C452.365 178.34 452.358 178.302 452.359 178.264C452.36 178.226 452.369 178.188 452.385 178.154C452.4 178.119 452.422 178.087 452.45 178.061C452.478 178.035 452.511 178.014 452.546 178.001C452.582 177.987 452.62 177.98 452.658 177.982C452.696 177.983 452.734 177.991 452.769 178.007C452.804 178.022 452.835 178.045 452.861 178.072C458.503 184.125 457.03 190.634 453.763 194.666C452.182 196.567 450.202 198.098 447.965 199.151C445.727 200.205 443.286 200.755 440.813 200.764Z" fill="#263238"/>
<path d="M412.069 178.061C412.011 178.059 411.954 178.04 411.907 178.005C411.86 177.97 411.825 177.922 411.806 177.867C408.769 169.165 412.834 157.482 420.017 154.284C420.087 154.259 420.164 154.261 420.234 154.288C420.303 154.315 420.36 154.367 420.394 154.433C420.409 154.467 420.417 154.504 420.418 154.542C420.419 154.58 420.412 154.617 420.398 154.652C420.385 154.687 420.364 154.719 420.338 154.746C420.312 154.773 420.28 154.795 420.246 154.81C413.302 157.893 409.385 169.222 412.343 177.65C412.356 177.686 412.361 177.724 412.358 177.762C412.356 177.8 412.346 177.837 412.329 177.871C412.312 177.905 412.288 177.935 412.259 177.96C412.23 177.985 412.197 178.004 412.16 178.015L412.069 178.061Z" fill="#263238"/>
<path d="M410.206 165.487H410.103C410.034 165.459 409.978 165.406 409.946 165.338C409.914 165.27 409.909 165.193 409.932 165.122C411.988 159.674 415.87 155.529 420.05 154.296C420.123 154.274 420.201 154.283 420.267 154.319C420.334 154.356 420.383 154.417 420.404 154.49C420.425 154.562 420.417 154.641 420.38 154.707C420.344 154.773 420.283 154.823 420.21 154.844C416.202 155.986 412.467 160.04 410.469 165.327C410.445 165.376 410.407 165.417 410.361 165.446C410.314 165.474 410.261 165.488 410.206 165.487Z" fill="#263238"/>
<path d="M426.195 469.26L419.594 469.271L418.486 444.478L429.598 444.752L426.195 469.26Z" fill="#FFB8A2"/>
<path d="M414.718 255.317C414.718 255.317 414.136 324.123 412.685 354.077C412.628 354.967 412.628 355.86 412.685 356.75C414.855 386.773 418.453 444.478 418.453 444.478L429.633 444.763C429.633 444.763 439.374 398.684 433.344 356.944C443.04 309.733 448.259 267.605 439.477 255.306L414.718 255.317Z" fill="#C3D1FF"/>
<path opacity="0.2" d="M433.446 282.645C430.02 294.134 433.355 331.066 435.125 348.104C437.535 335.794 439.59 323.951 441.109 313.034L433.446 282.645Z" fill="black"/>
<path d="M418.852 466.062H427.429C427.609 466.055 427.785 466.118 427.921 466.237C428.057 466.356 428.142 466.522 428.16 466.702L429.027 473.725C429.032 473.942 428.993 474.158 428.913 474.36C428.833 474.562 428.714 474.746 428.561 474.902C428.409 475.057 428.228 475.18 428.027 475.265C427.827 475.349 427.612 475.392 427.394 475.392C423.614 475.392 421.81 475.118 417.048 475.129C414.113 475.129 412.343 475.426 408.289 475.426C404.235 475.426 404.235 471.544 405.936 471.19C413.576 469.602 414.558 468.723 417.219 466.622C417.686 466.259 418.261 466.062 418.852 466.062Z" fill="#263238"/>
<path d="M421.672 204.681C421.25 207.045 420.77 209.249 420.256 211.533C419.743 213.817 419.217 216.101 418.612 218.385C417.413 222.953 416.168 227.429 414.524 231.952C413.698 234.29 412.737 236.577 411.646 238.804C411.041 240.039 410.342 241.226 409.556 242.355C409.327 242.664 409.122 242.96 408.825 243.303C408.541 243.667 408.223 244.003 407.877 244.308C407.001 245.135 405.946 245.749 404.794 246.101C403.586 246.466 402.304 246.517 401.071 246.249C400.1 246.025 399.173 245.639 398.33 245.107C397.05 244.288 395.916 243.261 394.973 242.07C393.353 240.054 392.062 237.796 391.147 235.378C390.946 234.863 390.929 234.296 391.098 233.77C391.267 233.245 391.612 232.794 392.075 232.493C392.538 232.193 393.09 232.061 393.639 232.121C394.187 232.18 394.699 232.427 395.087 232.819L395.224 232.968C396.641 234.465 398.168 235.854 399.792 237.125C400.426 237.609 401.131 237.995 401.882 238.267C402.156 238.335 402.35 238.335 402.373 238.267C402.396 238.198 402.213 238.153 402.053 238.164C401.893 238.175 401.79 238.233 401.836 238.164C401.89 238.064 401.951 237.969 402.019 237.879C402.132 237.74 402.232 237.591 402.316 237.433C402.794 236.647 403.214 235.826 403.572 234.978C404.403 233.021 405.135 231.024 405.764 228.994C407.066 224.814 408.254 220.463 409.282 216.089C410.31 211.715 411.326 207.25 412.24 202.888C412.521 201.682 413.259 200.632 414.299 199.959C415.338 199.285 416.598 199.041 417.814 199.278C419.029 199.515 420.106 200.213 420.817 201.227C421.528 202.241 421.818 203.491 421.627 204.715L421.672 204.681Z" fill="#FFB8A2"/>
<path d="M411.291 245.976C411.291 248.785 455.075 249.333 455.075 245.622L432.703 239.912L411.291 245.976Z" fill="#263238"/>
<path d="M419.332 197.315C430.876 195.384 442.67 195.5 454.174 197.657C454.849 197.764 455.494 198.008 456.071 198.374C456.648 198.74 457.144 199.22 457.528 199.785C457.912 200.35 458.177 200.988 458.305 201.659C458.433 202.33 458.422 203.02 458.274 203.687C452.084 231.404 452.438 240.722 453.032 255.317H414.729C412.811 230.97 411.794 217.071 411.543 209.18C411.338 203.162 413.405 198.194 419.332 197.315Z" fill="#FFB8A2"/>
<path opacity="0.2" d="M454.06 205.366C453.819 209.235 454.331 213.113 455.567 216.786C456.058 214.148 456.629 211.316 457.28 208.221L454.06 205.366Z" fill="black"/>
<path d="M441.6 177.079C440.458 182.617 439.419 192.793 443.302 196.493C443.302 196.493 441.783 202.123 431.482 202.123C420.142 202.123 426.058 196.493 426.058 196.493C432.247 195.008 432.088 190.417 431.014 186.112L441.6 177.079Z" fill="#FFB8A2"/>
<path opacity="0.2" d="M437.283 180.768L431.014 186.146C431.28 187.149 431.46 188.173 431.55 189.207C433.914 188.864 437.158 186.272 437.409 183.794C437.55 182.786 437.507 181.761 437.283 180.768Z" fill="black"/>
<path d="M447.584 167.463C445.459 176.496 444.763 180.368 439.35 184.262C431.219 190.132 420.575 185.564 419.936 176.074C419.365 167.543 422.916 154.193 432.498 152.092C434.602 151.617 436.793 151.688 438.862 152.298C440.932 152.908 442.811 154.036 444.322 155.576C445.833 157.115 446.926 159.015 447.497 161.096C448.067 163.176 448.097 165.368 447.584 167.463Z" fill="#FFB8A2"/>
<path d="M444.135 153.873C434.565 154.935 437.477 172.773 444.671 174.498C453.099 170.375 458.295 154.718 444.135 153.873Z" fill="#263238"/>
<path d="M490.981 452.929L484.369 454.939L474.719 434.725L484.894 431.95L490.981 452.929Z" fill="#FFB8A2"/>
<path d="M482.461 452.917L490.957 449.628C491.106 449.571 491.27 449.568 491.421 449.62C491.571 449.673 491.698 449.776 491.78 449.914L495.582 456.332C495.674 456.492 495.729 456.669 495.746 456.853C495.762 457.036 495.738 457.221 495.676 457.395C495.615 457.568 495.516 457.726 495.387 457.858C495.259 457.99 495.103 458.093 494.932 458.159C491.951 459.301 490.512 459.883 486.778 461.334C484.494 462.224 480.908 465.194 477.733 466.416C474.558 467.638 473.165 464.737 474.307 463.732C477.401 461.031 479.838 457.661 481.433 453.876C481.53 453.655 481.671 453.455 481.848 453.29C482.024 453.125 482.233 452.998 482.461 452.917Z" fill="#263238"/>
<path d="M425.236 255.317C425.236 255.317 439.317 327.343 444.65 355.813C450.166 385.505 474.742 434.68 474.742 434.68L484.94 431.893C484.94 431.893 470.973 379.293 464.464 353.221C463.185 306.011 464.692 267.571 453.044 255.271L425.236 255.317Z" fill="#C3D1FF"/>
<path d="M432.602 167.406C432.477 168.148 431.985 168.685 431.46 168.548C430.935 168.411 430.684 167.794 430.809 167.052C430.935 166.309 431.437 165.773 431.951 165.853C432.465 165.933 432.739 166.663 432.602 167.406Z" fill="#263238"/>
<path d="M424.207 165.978C424.081 166.721 423.579 167.257 423.065 167.12C422.551 166.983 422.288 166.378 422.414 165.624C422.54 164.871 423.042 164.345 423.556 164.482C424.07 164.619 424.332 165.236 424.207 165.978Z" fill="#263238"/>
<path d="M423.762 164.562L422.061 163.74C422.061 163.74 422.746 165.293 423.762 164.562Z" fill="#263238"/>
<path d="M426.561 167.76C425.618 169.339 424.465 170.784 423.135 172.054C423.468 172.387 423.869 172.644 424.31 172.807C424.752 172.971 425.223 173.037 425.693 173.002L426.561 167.76Z" fill="#D99766"/>
<path d="M429.232 176.599C428.849 176.599 428.467 176.565 428.09 176.496C428.061 176.492 428.034 176.482 428.009 176.467C427.984 176.452 427.963 176.432 427.946 176.409C427.929 176.386 427.917 176.359 427.91 176.331C427.903 176.303 427.903 176.273 427.907 176.245C427.919 176.188 427.951 176.138 427.997 176.104C428.044 176.07 428.101 176.055 428.159 176.062C429.08 176.238 430.031 176.195 430.933 175.937C431.835 175.679 432.665 175.214 433.355 174.578C433.375 174.555 433.4 174.538 433.427 174.526C433.455 174.514 433.484 174.507 433.515 174.507C433.545 174.507 433.574 174.514 433.602 174.526C433.629 174.538 433.654 174.555 433.674 174.578C433.713 174.62 433.734 174.675 433.734 174.732C433.734 174.789 433.713 174.844 433.674 174.886C432.479 176.022 430.881 176.638 429.232 176.599Z" fill="#263238"/>
<path d="M448.887 175.251C447.977 176.798 446.497 177.925 444.764 178.392C442.48 178.974 441.338 176.907 442.046 174.76C442.652 172.83 444.593 170.192 446.888 170.546C447.387 170.637 447.855 170.851 448.251 171.168C448.646 171.484 448.957 171.894 449.155 172.361C449.353 172.827 449.432 173.335 449.386 173.84C449.339 174.344 449.168 174.829 448.887 175.251Z" fill="#FFB8A2"/>
<path d="M436.245 166.264C436.152 166.263 436.063 166.233 435.989 166.177C435.915 166.122 435.86 166.044 435.834 165.956C435.228 164.003 432.727 163.158 432.705 163.158C432.648 163.141 432.596 163.113 432.551 163.075C432.506 163.038 432.469 162.991 432.442 162.939C432.415 162.887 432.399 162.829 432.396 162.771C432.392 162.712 432.4 162.653 432.419 162.598C432.436 162.542 432.464 162.489 432.501 162.444C432.539 162.399 432.585 162.362 432.638 162.335C432.69 162.309 432.747 162.293 432.806 162.289C432.864 162.285 432.923 162.293 432.979 162.313C433.093 162.313 435.936 163.306 436.679 165.739C436.696 165.795 436.703 165.854 436.697 165.913C436.692 165.971 436.675 166.028 436.647 166.08C436.619 166.132 436.582 166.178 436.536 166.216C436.491 166.253 436.438 166.281 436.382 166.298L436.245 166.264Z" fill="#263238"/>
<path d="M422.336 161.662C422.259 161.661 422.185 161.64 422.119 161.602C422.053 161.564 421.998 161.51 421.959 161.445C421.901 161.342 421.887 161.22 421.919 161.107C421.951 160.993 422.027 160.897 422.13 160.839C422.731 160.476 423.411 160.261 424.112 160.213C424.814 160.166 425.516 160.286 426.161 160.565C426.265 160.619 426.344 160.711 426.38 160.822C426.416 160.934 426.407 161.054 426.355 161.159C426.302 161.263 426.209 161.341 426.098 161.378C425.987 161.414 425.866 161.405 425.762 161.353C425.246 161.142 424.688 161.055 424.133 161.099C423.578 161.142 423.04 161.316 422.564 161.605C422.495 161.646 422.416 161.666 422.336 161.662Z" fill="#263238"/>
<path d="M457.303 199.245C460.558 203.504 463.515 207.81 466.325 212.355C467.718 214.639 469.088 216.923 470.345 219.355C471.709 221.876 472.837 224.518 473.713 227.247C473.839 227.612 473.93 228.035 474.033 228.389L474.113 228.72L474.216 229.199C474.262 229.498 474.293 229.8 474.307 230.102C474.36 231.093 474.287 232.087 474.09 233.059C473.765 234.602 473.279 236.106 472.64 237.548C471.514 240.094 470.185 242.546 468.666 244.879C465.775 249.364 462.524 253.607 458.947 257.567C458.555 258.005 458.015 258.283 457.43 258.346C456.845 258.409 456.257 258.252 455.781 257.907C455.305 257.562 454.974 257.052 454.852 256.476C454.73 255.901 454.826 255.3 455.122 254.792V254.735C457.645 250.338 460.146 245.816 462.305 241.339C463.363 239.181 464.283 236.957 465.057 234.681C465.391 233.715 465.62 232.715 465.742 231.7C465.784 231.401 465.784 231.098 465.742 230.798V230.73V230.593C465.662 230.364 465.605 230.159 465.502 229.919C464.613 227.778 463.567 225.705 462.373 223.718C461.117 221.605 459.781 219.492 458.411 217.38C455.624 213.2 452.701 208.997 449.731 204.932C449.02 203.912 448.734 202.655 448.933 201.427C449.132 200.2 449.802 199.098 450.8 198.356C451.798 197.613 453.045 197.289 454.278 197.45C455.511 197.612 456.633 198.247 457.406 199.222L457.303 199.245Z" fill="#FFB8A2"/>
<path d="M432.166 165.99L430.465 165.167C430.465 165.167 431.139 166.732 432.166 165.99Z" fill="#263238"/>
<path d="M412.616 206.451C413.322 203.57 414.23 200.742 415.334 197.989C417.086 197.465 418.877 197.084 420.69 196.847C424.384 200.12 427.422 204.065 429.643 208.472C434.542 203.516 443.918 198.503 449.628 196.675C451.56 196.554 453.497 196.798 455.338 197.395C451.444 209.683 447.47 222.039 454.516 225.214C454.39 231.05 454.722 238.29 455.018 245.61C448.361 244.879 421.958 243.612 411.234 245.964C410.686 238.541 410.492 232.26 410.526 226.836C405.536 220.475 410.538 211.818 412.616 206.451Z" fill="#263238"/>
<g opacity="0.2">
<path opacity="0.2" d="M423.111 229.302C423.052 229.309 422.995 229.332 422.947 229.368C422.899 229.404 422.861 229.453 422.837 229.508C422.028 231.779 422.052 234.265 422.906 236.52C422.118 235.857 421.341 235.206 420.622 234.544C421.265 233.169 421.514 231.642 421.34 230.134C421.167 228.626 420.578 227.195 419.64 226.002C419.604 225.955 419.557 225.918 419.503 225.894C419.449 225.87 419.39 225.86 419.331 225.865C419.271 225.87 419.213 225.891 419.164 225.928C419.116 225.964 419.079 226.014 419.057 226.07C418.221 228.405 418.274 230.966 419.206 233.265C418.178 232.329 417.196 231.392 416.294 230.49C416.968 229.108 417.239 227.564 417.075 226.034C416.912 224.505 416.32 223.053 415.369 221.845C415.333 221.798 415.286 221.761 415.232 221.737C415.178 221.713 415.119 221.703 415.06 221.708C415 221.713 414.942 221.735 414.893 221.771C414.845 221.807 414.808 221.857 414.786 221.914C413.956 224.253 414.009 226.816 414.935 229.12C413.37 227.487 412.068 226.002 411.097 224.769C410.749 223.388 410.056 222.118 409.083 221.077C408.11 220.037 406.89 219.26 405.536 218.819C405.481 218.809 405.424 218.813 405.371 218.829C405.317 218.846 405.268 218.875 405.228 218.914C405.188 218.953 405.158 219.001 405.14 219.054C405.122 219.107 405.117 219.163 405.125 219.218C406.153 224.277 409.876 225.157 410.629 225.282C411.166 225.956 411.771 226.699 412.502 227.498C410.712 226.696 408.721 226.457 406.792 226.813C406.734 226.826 406.68 226.856 406.638 226.898C406.595 226.941 406.566 226.994 406.552 227.053C406.535 227.109 406.532 227.169 406.544 227.227C406.556 227.285 406.583 227.339 406.621 227.384C407.603 228.503 408.878 229.326 410.302 229.76C411.727 230.194 413.244 230.221 414.683 229.839C415.323 230.501 416.008 231.175 416.728 231.872C414.309 231.18 411.727 231.333 409.407 232.306C409.352 232.335 409.306 232.378 409.274 232.432C409.242 232.485 409.225 232.546 409.225 232.608C409.225 232.671 409.242 232.732 409.274 232.785C409.306 232.838 409.352 232.882 409.407 232.911C410.711 233.723 412.205 234.179 413.74 234.233C415.275 234.287 416.797 233.937 418.155 233.219C419.114 234.122 420.131 235.024 421.181 235.926C418.841 234.87 416.194 234.715 413.747 235.492C413.69 235.515 413.64 235.552 413.602 235.6C413.564 235.648 413.539 235.705 413.53 235.766C413.524 235.825 413.532 235.885 413.554 235.941C413.576 235.997 413.611 236.046 413.656 236.086C414.858 237.06 416.306 237.682 417.84 237.883C419.374 238.085 420.933 237.858 422.346 237.228L422.438 237.171C422.473 237.133 422.497 237.085 422.506 237.034L423.797 238.084C423.836 238.138 423.892 238.178 423.956 238.198C424.642 238.747 425.338 239.283 426.046 239.809C426.108 239.862 426.187 239.891 426.269 239.891C426.351 239.891 426.43 239.862 426.492 239.809C426.518 239.772 426.537 239.73 426.547 239.686C426.557 239.642 426.559 239.597 426.551 239.552C426.544 239.508 426.528 239.465 426.504 239.427C426.48 239.388 426.449 239.355 426.412 239.329C425.761 238.838 425.11 238.347 424.482 237.833C425.075 236.473 425.288 234.977 425.099 233.505C424.91 232.033 424.326 230.64 423.408 229.474C423.378 229.421 423.335 229.378 423.283 229.348C423.231 229.318 423.171 229.302 423.111 229.302Z" fill="white"/>
<path opacity="0.2" d="M411.853 211.613C411.912 211.605 411.969 211.583 412.017 211.547C412.065 211.51 412.103 211.462 412.127 211.407C412.937 209.136 412.912 206.65 412.058 204.395C412.846 205.057 413.623 205.708 414.342 206.371C413.699 207.746 413.45 209.273 413.624 210.781C413.797 212.289 414.386 213.72 415.324 214.913C415.36 214.96 415.407 214.997 415.461 215.021C415.515 215.045 415.574 215.055 415.633 215.05C415.693 215.045 415.751 215.023 415.8 214.987C415.848 214.951 415.885 214.901 415.907 214.844C416.743 212.509 416.69 209.948 415.758 207.65C416.786 208.586 417.768 209.523 418.67 210.425C417.996 211.807 417.725 213.351 417.889 214.881C418.052 216.41 418.644 217.862 419.596 219.07C419.631 219.117 419.678 219.154 419.732 219.177C419.786 219.201 419.845 219.212 419.904 219.207C419.964 219.202 420.022 219.18 420.071 219.144C420.119 219.108 420.156 219.058 420.178 219.001C421.008 216.661 420.955 214.099 420.029 211.795C421.594 213.428 422.896 214.913 423.867 216.146C424.215 217.527 424.908 218.797 425.881 219.838C426.854 220.878 428.074 221.655 429.428 222.096C429.483 222.106 429.54 222.102 429.593 222.086C429.647 222.069 429.696 222.04 429.736 222.001C429.776 221.962 429.806 221.914 429.824 221.861C429.842 221.808 429.847 221.752 429.839 221.696C428.811 216.637 425.089 215.758 424.335 215.632C423.798 214.959 423.193 214.216 422.462 213.417C424.251 214.222 426.245 214.457 428.172 214.091C428.23 214.081 428.284 214.054 428.327 214.013C428.369 213.972 428.399 213.92 428.412 213.862C428.429 213.806 428.432 213.746 428.42 213.688C428.408 213.63 428.381 213.576 428.343 213.531C427.361 212.412 426.086 211.588 424.662 211.155C423.237 210.721 421.72 210.694 420.281 211.076C419.641 210.413 418.956 209.74 418.237 209.043C420.655 209.735 423.237 209.582 425.557 208.609C425.612 208.58 425.658 208.536 425.69 208.483C425.722 208.43 425.739 208.369 425.739 208.306C425.739 208.244 425.722 208.183 425.69 208.13C425.658 208.077 425.612 208.033 425.557 208.004C424.253 207.192 422.759 206.736 421.224 206.682C419.689 206.628 418.167 206.977 416.809 207.696C415.85 206.793 414.833 205.891 413.783 204.989C416.123 206.045 418.77 206.199 421.217 205.423C421.273 205.398 421.322 205.36 421.359 205.313C421.397 205.265 421.423 205.209 421.434 205.149C421.44 205.089 421.432 205.029 421.41 204.974C421.388 204.918 421.353 204.869 421.309 204.829C420.106 203.855 418.658 203.233 417.124 203.032C415.591 202.83 414.031 203.057 412.618 203.687L412.527 203.744C412.491 203.782 412.467 203.83 412.458 203.881L411.168 202.831C411.128 202.777 411.072 202.737 411.008 202.716C410.322 202.168 409.626 201.631 408.918 201.106C408.856 201.053 408.777 201.024 408.695 201.024C408.613 201.024 408.534 201.053 408.472 201.106C408.421 201.18 408.399 201.27 408.412 201.36C408.424 201.449 408.471 201.53 408.541 201.586C409.203 202.077 409.854 202.568 410.482 203.082C409.889 204.442 409.676 205.938 409.865 207.41C410.054 208.882 410.638 210.275 411.556 211.441C411.586 211.493 411.629 211.537 411.681 211.567C411.733 211.597 411.793 211.613 411.853 211.613Z" fill="white"/>
<path opacity="0.2" d="M447.06 237.639C447.002 237.647 446.947 237.669 446.899 237.703C446.852 237.736 446.813 237.781 446.786 237.833C445.986 240.106 446.01 242.588 446.854 244.845C446.066 244.194 445.29 243.532 444.57 242.869C445.214 241.496 445.463 239.971 445.289 238.465C445.116 236.958 444.527 235.529 443.588 234.338C443.553 234.291 443.506 234.254 443.452 234.231C443.399 234.207 443.34 234.198 443.281 234.203C443.223 234.209 443.166 234.23 443.118 234.263C443.07 234.297 443.031 234.343 443.006 234.396C442.176 236.735 442.228 239.298 443.154 241.602C442.126 240.654 441.144 239.729 440.242 238.827C440.92 237.447 441.192 235.904 441.029 234.376C440.865 232.848 440.271 231.398 439.317 230.193C439.284 230.144 439.237 230.105 439.183 230.081C439.128 230.056 439.068 230.048 439.009 230.056C438.951 230.063 438.895 230.085 438.847 230.118C438.799 230.152 438.761 230.198 438.735 230.25C437.904 232.59 437.957 235.152 438.883 237.456C437.319 235.834 436.017 234.338 435.046 233.105C434.693 231.726 433.999 230.458 433.027 229.418C432.055 228.378 430.837 227.6 429.485 227.155C429.43 227.144 429.373 227.147 429.319 227.163C429.265 227.178 429.216 227.207 429.176 227.247C429.135 227.288 429.104 227.338 429.086 227.394C429.068 227.45 429.064 227.509 429.073 227.566C430.101 232.614 433.836 233.493 434.578 233.619C435.115 234.293 435.72 235.047 436.451 235.846C434.661 235.043 432.669 234.804 430.741 235.161C430.683 235.176 430.631 235.207 430.589 235.249C430.547 235.291 430.517 235.343 430.501 235.401C430.484 235.455 430.481 235.513 430.493 235.569C430.505 235.626 430.531 235.677 430.569 235.72C431.546 236.848 432.82 237.676 434.247 238.11C435.673 238.545 437.193 238.567 438.632 238.176C439.271 238.838 439.957 239.523 440.676 240.22C438.258 239.522 435.674 239.675 433.356 240.654C433.304 240.685 433.26 240.728 433.228 240.78C433.196 240.832 433.177 240.89 433.173 240.951C433.172 241.011 433.187 241.071 433.217 241.123C433.248 241.175 433.292 241.218 433.344 241.248C434.648 242.06 436.141 242.517 437.676 242.573C439.211 242.629 440.733 242.283 442.092 241.567C443.052 242.458 444.068 243.36 445.119 244.274C442.779 243.218 440.131 243.063 437.684 243.84C437.627 243.863 437.577 243.9 437.539 243.948C437.501 243.996 437.477 244.053 437.467 244.114C437.46 244.173 437.469 244.233 437.493 244.287C437.518 244.341 437.556 244.388 437.604 244.422C438.806 245.396 440.254 246.018 441.788 246.22C443.322 246.421 444.882 246.195 446.295 245.564L446.375 245.496C446.408 245.458 446.435 245.416 446.455 245.37L447.745 246.421C447.781 246.474 447.833 246.514 447.894 246.535C448.579 247.083 449.275 247.62 449.983 248.157C450.046 248.21 450.125 248.239 450.206 248.239C450.288 248.239 450.367 248.21 450.429 248.157C450.483 248.084 450.507 247.993 450.494 247.903C450.481 247.813 450.433 247.732 450.36 247.677C449.698 247.186 449.058 246.684 448.419 246.181C449.015 244.822 449.231 243.327 449.044 241.854C448.857 240.382 448.274 238.988 447.357 237.822C447.327 237.768 447.285 237.723 447.232 237.691C447.18 237.659 447.121 237.641 447.06 237.639Z" fill="white"/>
<path opacity="0.2" d="M469.02 245.53C468.96 245.535 468.902 245.557 468.853 245.593C468.805 245.629 468.767 245.679 468.746 245.735C467.932 248.005 467.952 250.491 468.803 252.747C468.015 252.085 467.25 251.423 466.519 250.772C467.165 249.398 467.416 247.871 467.245 246.363C467.074 244.855 466.486 243.423 465.548 242.23C465.511 242.181 465.463 242.143 465.407 242.119C465.351 242.095 465.289 242.086 465.229 242.093C465.169 242.101 465.113 242.124 465.065 242.16C465.017 242.196 464.979 242.243 464.955 242.298C464.124 244.634 464.177 247.193 465.103 249.493C464.075 248.556 463.105 247.62 462.202 246.718C462.877 245.335 463.148 243.791 462.984 242.262C462.82 240.733 462.229 239.281 461.277 238.073C461.241 238.026 461.194 237.989 461.141 237.965C461.087 237.941 461.028 237.931 460.969 237.936C460.909 237.94 460.851 237.962 460.802 237.999C460.754 238.035 460.716 238.084 460.695 238.141C459.859 240.48 459.912 243.045 460.843 245.347C459.279 243.714 457.966 242.23 457.006 240.996C456.657 239.615 455.964 238.345 454.992 237.305C454.019 236.264 452.799 235.487 451.445 235.046C451.389 235.034 451.331 235.036 451.277 235.051C451.222 235.066 451.172 235.095 451.131 235.135C451.09 235.175 451.06 235.224 451.043 235.278C451.026 235.333 451.023 235.39 451.034 235.446C452.061 240.505 455.784 241.384 456.538 241.51C457.063 242.184 457.68 242.926 458.411 243.726C456.621 242.926 454.63 242.687 452.701 243.04C452.645 243.058 452.593 243.089 452.552 243.131C452.51 243.173 452.479 243.224 452.461 243.28C452.446 243.338 452.445 243.398 452.459 243.456C452.473 243.514 452.501 243.567 452.541 243.611C453.522 244.729 454.795 245.551 456.217 245.984C457.64 246.418 459.155 246.447 460.592 246.067C461.243 246.729 461.917 247.403 462.636 248.099C460.222 247.408 457.643 247.561 455.328 248.533C455.272 248.561 455.226 248.603 455.194 248.656C455.162 248.708 455.145 248.769 455.145 248.83C455.144 248.891 455.158 248.951 455.186 249.005C455.214 249.059 455.255 249.105 455.305 249.139C456.612 249.947 458.107 250.401 459.643 250.455C461.179 250.509 462.703 250.162 464.064 249.447C465.023 250.345 466.028 251.248 467.079 252.154C464.739 251.098 462.091 250.943 459.644 251.72C459.588 251.741 459.538 251.778 459.502 251.827C459.465 251.875 459.443 251.933 459.439 251.994C459.433 252.053 459.441 252.113 459.463 252.169C459.485 252.224 459.52 252.274 459.564 252.313C460.767 253.286 462.215 253.907 463.749 254.109C465.282 254.31 466.842 254.084 468.255 253.455C468.281 253.461 468.309 253.461 468.335 253.455C468.378 253.421 468.406 253.373 468.415 253.318L469.705 254.369C469.744 254.42 469.795 254.459 469.854 254.483C470.539 255.031 471.236 255.568 471.944 256.093C472.006 256.147 472.085 256.176 472.166 256.176C472.248 256.176 472.327 256.147 472.389 256.093C472.418 256.058 472.438 256.017 472.451 255.973C472.463 255.93 472.465 255.884 472.459 255.839C472.453 255.794 472.437 255.751 472.413 255.712C472.389 255.673 472.358 255.64 472.32 255.614L470.379 254.118C470.975 252.759 471.191 251.263 471.004 249.791C470.817 248.319 470.234 246.925 469.317 245.758C469.294 245.696 469.254 245.642 469.201 245.602C469.149 245.561 469.086 245.536 469.02 245.53Z" fill="white"/>
<path opacity="0.2" d="M418.807 246.821C418.748 246.825 418.691 246.846 418.643 246.88C418.595 246.914 418.557 246.961 418.533 247.015C417.718 249.285 417.738 251.77 418.59 254.027C417.802 253.376 417.037 252.713 416.306 252.051C416.952 250.677 417.203 249.151 417.032 247.642C416.86 246.134 416.273 244.703 415.335 243.509C415.297 243.462 415.249 243.426 415.194 243.404C415.138 243.381 415.078 243.373 415.019 243.38C414.96 243.387 414.903 243.408 414.855 243.443C414.806 243.477 414.767 243.524 414.741 243.577C413.911 245.917 413.964 248.48 414.89 250.783C413.862 249.835 412.891 248.91 411.989 248.008C412.663 246.626 412.934 245.082 412.771 243.553C412.607 242.023 412.015 240.571 411.064 239.363C411.029 239.316 410.982 239.279 410.927 239.257C410.873 239.235 410.814 239.228 410.756 239.238C410.696 239.24 410.638 239.26 410.59 239.294C410.541 239.329 410.504 239.376 410.481 239.432C409.646 241.771 409.699 244.335 410.63 246.638C409.277 245.254 407.996 243.802 406.793 242.287C406.44 240.908 405.746 239.64 404.774 238.6C403.802 237.56 402.583 236.782 401.231 236.337C401.175 236.326 401.116 236.328 401.06 236.344C401.005 236.36 400.954 236.389 400.911 236.428C400.875 236.47 400.848 236.519 400.832 236.573C400.817 236.626 400.812 236.682 400.82 236.737C401.848 241.796 405.571 242.675 406.325 242.801C406.85 243.474 407.467 244.217 408.197 245.085C406.41 244.273 404.416 244.034 402.487 244.399C402.431 244.414 402.38 244.443 402.338 244.483C402.296 244.523 402.265 244.573 402.248 244.628C402.232 244.685 402.231 244.746 402.245 244.804C402.259 244.862 402.287 244.915 402.328 244.959C403.301 246.086 404.574 246.915 405.998 247.35C407.423 247.784 408.942 247.807 410.379 247.414C411.03 248.077 411.703 248.762 412.423 249.459C410.01 248.756 407.427 248.909 405.114 249.892C405.06 249.918 405.014 249.959 404.982 250.009C404.949 250.06 404.932 250.118 404.931 250.178C404.929 250.239 404.943 250.299 404.971 250.353C404.999 250.407 405.04 250.453 405.091 250.486C406.397 251.299 407.892 251.756 409.428 251.812C410.965 251.868 412.489 251.521 413.85 250.806C414.81 251.697 415.815 252.599 416.865 253.501C414.524 252.448 411.876 252.297 409.431 253.079C409.376 253.099 409.327 253.135 409.291 253.181C409.255 253.227 409.232 253.283 409.225 253.341C409.217 253.401 409.225 253.462 409.247 253.517C409.269 253.573 409.305 253.623 409.351 253.661C410.554 254.634 412.002 255.255 413.535 255.457C415.069 255.658 416.628 255.432 418.042 254.803C418.068 254.808 418.095 254.808 418.121 254.803C418.162 254.772 418.19 254.727 418.201 254.677L419.492 255.728C419.53 255.779 419.581 255.818 419.64 255.842C420.337 256.39 421.022 256.927 421.73 257.464C421.792 257.517 421.871 257.546 421.953 257.546C422.035 257.546 422.113 257.517 422.176 257.464C422.204 257.429 422.225 257.388 422.237 257.344C422.249 257.3 422.252 257.254 422.246 257.209C422.239 257.164 422.224 257.121 422.2 257.082C422.176 257.044 422.144 257.01 422.107 256.984L420.166 255.488C420.761 254.127 420.977 252.63 420.79 251.156C420.603 249.682 420.02 248.287 419.104 247.117C419.098 247.04 419.065 246.968 419.011 246.913C418.956 246.859 418.884 246.826 418.807 246.821Z" fill="white"/>
<path opacity="0.2" d="M446.328 198.708C446.269 198.716 446.212 198.74 446.164 198.775C446.117 198.811 446.079 198.859 446.054 198.914C445.254 201.187 445.278 203.668 446.122 205.925C445.335 205.263 444.558 204.612 443.839 203.95C444.482 202.575 444.73 201.048 444.557 199.54C444.384 198.031 443.795 196.601 442.856 195.408C442.82 195.361 442.773 195.324 442.72 195.3C442.666 195.276 442.607 195.266 442.548 195.271C442.488 195.275 442.43 195.297 442.381 195.334C442.333 195.37 442.295 195.419 442.274 195.476C441.443 197.812 441.496 200.371 442.422 202.671C441.395 201.734 440.412 200.798 439.51 199.896C440.185 198.514 440.456 196.969 440.292 195.44C440.128 193.911 439.537 192.459 438.585 191.251C438.55 191.203 438.503 191.166 438.449 191.142C438.395 191.118 438.336 191.108 438.277 191.114C438.216 191.118 438.159 191.14 438.11 191.177C438.062 191.213 438.024 191.263 438.003 191.319C437.173 193.659 437.225 196.222 438.151 198.525C436.587 196.892 435.285 195.408 434.314 194.174C433.965 192.793 433.272 191.523 432.3 190.483C431.327 189.443 430.107 188.666 428.753 188.224C428.698 188.215 428.641 188.218 428.588 188.235C428.534 188.251 428.485 188.28 428.445 188.319C428.405 188.358 428.375 188.406 428.357 188.459C428.339 188.512 428.334 188.569 428.342 188.624C429.369 193.683 433.104 194.563 433.846 194.688C434.383 195.362 434.988 196.104 435.719 196.904C433.929 196.101 431.938 195.862 430.009 196.218C429.953 196.236 429.901 196.267 429.859 196.309C429.818 196.351 429.787 196.402 429.769 196.458C429.752 196.515 429.749 196.575 429.761 196.633C429.773 196.69 429.799 196.744 429.838 196.789C430.819 197.909 432.094 198.732 433.519 199.166C434.944 199.6 436.461 199.627 437.9 199.245C438.54 199.907 439.225 200.581 439.944 201.278C437.526 200.586 434.944 200.739 432.624 201.712C432.572 201.743 432.528 201.786 432.496 201.838C432.465 201.889 432.446 201.948 432.441 202.008C432.44 202.07 432.456 202.131 432.486 202.185C432.516 202.24 432.56 202.285 432.613 202.317C433.916 203.129 435.41 203.584 436.945 203.638C438.48 203.693 440.003 203.343 441.36 202.625C442.32 203.527 443.336 204.429 444.387 205.332C442.047 204.276 439.399 204.121 436.952 204.898C436.895 204.921 436.846 204.958 436.808 205.006C436.77 205.054 436.745 205.111 436.735 205.172C436.729 205.232 436.738 205.294 436.762 205.35C436.786 205.406 436.824 205.455 436.872 205.492C438.073 206.464 439.519 207.086 441.051 207.287C442.583 207.489 444.14 207.263 445.552 206.634L445.643 206.576C445.679 206.539 445.703 206.491 445.711 206.439L447.002 207.49C447.044 207.542 447.099 207.581 447.162 207.604C447.847 208.152 448.544 208.689 449.252 209.214C449.314 209.268 449.393 209.297 449.474 209.297C449.556 209.297 449.635 209.268 449.697 209.214C449.751 209.142 449.775 209.05 449.762 208.96C449.749 208.87 449.701 208.789 449.628 208.735C448.966 208.244 448.327 207.753 447.687 207.239C448.283 205.88 448.499 204.384 448.312 202.912C448.125 201.44 447.542 200.046 446.625 198.879C446.593 198.829 446.549 198.788 446.497 198.758C446.445 198.728 446.388 198.711 446.328 198.708Z" fill="white"/>
<path opacity="0.2" d="M435.481 220.406C435.54 220.401 435.596 220.38 435.644 220.346C435.692 220.312 435.731 220.266 435.755 220.212C436.569 217.942 436.549 215.456 435.698 213.2C436.486 213.851 437.251 214.513 437.982 215.175C437.336 216.549 437.084 218.076 437.256 219.584C437.427 221.093 438.015 222.524 438.952 223.718C438.99 223.764 439.038 223.8 439.094 223.823C439.149 223.845 439.209 223.853 439.268 223.847C439.327 223.84 439.384 223.818 439.433 223.784C439.481 223.749 439.52 223.703 439.546 223.649C440.377 221.309 440.324 218.747 439.398 216.443C440.426 217.387 441.396 218.312 442.31 219.218C441.635 220.6 441.365 222.145 441.528 223.674C441.692 225.203 442.283 226.655 443.235 227.863C443.272 227.909 443.321 227.946 443.376 227.968C443.431 227.991 443.491 227.999 443.551 227.992C443.61 227.985 443.666 227.964 443.715 227.929C443.764 227.895 443.803 227.848 443.829 227.795C444.661 225.454 444.604 222.89 443.669 220.589C445.022 221.972 446.302 223.425 447.506 224.94C447.859 226.32 448.554 227.59 449.529 228.63C450.503 229.67 451.724 230.447 453.079 230.889C453.134 230.901 453.191 230.898 453.244 230.882C453.298 230.866 453.347 230.837 453.387 230.798C453.427 230.756 453.456 230.705 453.471 230.649C453.487 230.594 453.49 230.535 453.479 230.478C452.462 225.431 448.728 224.551 447.974 224.426C447.449 223.752 446.832 223.01 446.101 222.142C447.889 222.953 449.883 223.192 451.811 222.827C451.867 222.812 451.919 222.784 451.961 222.744C452.003 222.704 452.034 222.654 452.051 222.599C452.067 222.541 452.068 222.481 452.054 222.423C452.04 222.365 452.011 222.311 451.971 222.267C450.998 221.14 449.725 220.311 448.3 219.877C446.876 219.442 445.357 219.42 443.92 219.812C443.281 219.15 442.595 218.464 441.876 217.768C444.289 218.471 446.871 218.317 449.185 217.334C449.24 217.306 449.286 217.264 449.318 217.211C449.351 217.159 449.368 217.099 449.367 217.037C449.371 216.977 449.358 216.918 449.33 216.866C449.302 216.813 449.259 216.77 449.208 216.74C447.902 215.928 446.407 215.471 444.871 215.415C443.334 215.358 441.81 215.705 440.448 216.42C439.489 215.53 438.484 214.627 437.434 213.725C439.776 214.773 442.422 214.924 444.868 214.148C444.923 214.127 444.971 214.092 445.008 214.045C445.044 213.999 445.067 213.943 445.074 213.885C445.084 213.825 445.078 213.764 445.055 213.708C445.033 213.651 444.996 213.602 444.948 213.565C443.747 212.589 442.299 211.966 440.764 211.764C439.23 211.562 437.67 211.791 436.257 212.423C436.231 212.418 436.204 212.418 436.177 212.423C436.144 212.461 436.117 212.503 436.097 212.549L434.807 211.498C434.771 211.445 434.719 211.405 434.658 211.384C433.973 210.836 433.277 210.242 432.569 209.762C432.507 209.709 432.428 209.68 432.346 209.68C432.264 209.68 432.185 209.709 432.123 209.762C432.069 209.835 432.045 209.926 432.058 210.016C432.071 210.106 432.119 210.188 432.192 210.242L434.133 211.738C433.537 213.099 433.322 214.596 433.509 216.07C433.696 217.544 434.278 218.94 435.195 220.109C435.206 220.182 435.239 220.25 435.29 220.303C435.342 220.356 435.408 220.392 435.481 220.406Z" fill="white"/>
</g>
<path d="M440.493 230.227L363.979 237.947C361.938 238.155 360.063 239.164 358.765 240.753C357.468 242.341 356.854 244.38 357.058 246.421L359.685 272.584C361.677 271.172 364.006 270.307 366.437 270.076C368.868 269.844 371.318 270.254 373.541 271.265C375.765 272.276 377.684 273.853 379.108 275.837C380.532 277.822 381.41 280.145 381.656 282.575C381.902 285.005 381.506 287.457 380.508 289.686C379.51 291.915 377.945 293.844 375.969 295.279C373.993 296.715 371.675 297.607 369.246 297.867C366.818 298.127 364.364 297.745 362.128 296.76L364.767 322.923C364.977 324.964 365.986 326.838 367.574 328.137C369.162 329.435 371.199 330.053 373.24 329.855L449.754 322.147C451.795 321.933 453.67 320.922 454.968 319.332C456.267 317.743 456.884 315.705 456.686 313.662L448.978 237.148C448.761 235.109 447.748 233.237 446.159 231.941C444.57 230.645 442.534 230.029 440.493 230.227Z" fill="#65C17E"/>
<path d="M461.367 253.696L457.827 252.154L449.513 254.278C448.56 254.527 447.717 255.086 447.115 255.865L445.357 258.149C444.982 258.65 444.792 259.264 444.819 259.889C444.846 260.513 445.088 261.109 445.505 261.575L447.492 263.768C447.969 264.29 448.63 264.606 449.336 264.649C450.041 264.691 450.736 264.457 451.272 263.996L455.783 260.125C455.783 260.125 461.219 257.578 461.367 253.696Z" fill="#FFB8A2"/>
<path d="M389.297 239.432L392.974 238.964C393.47 238.908 393.933 238.691 394.294 238.346C394.655 238.002 394.893 237.549 394.973 237.057L395.475 234.133C395.542 233.785 395.527 233.426 395.432 233.084C395.336 232.743 395.162 232.429 394.924 232.166C394.686 231.903 394.39 231.7 394.059 231.571C393.729 231.443 393.373 231.393 393.02 231.426L388.726 231.735C388.122 231.767 387.555 232.038 387.151 232.488C386.746 232.937 386.536 233.529 386.567 234.133L386.682 237.216C386.688 237.541 386.763 237.86 386.902 238.152C387.042 238.445 387.242 238.705 387.489 238.915C387.736 239.124 388.025 239.279 388.337 239.368C388.649 239.457 388.976 239.479 389.297 239.432Z" fill="#FFB8A2"/>
<path d="M446.522 155.506C437.454 160.074 421.523 157.973 421.523 157.973C421.523 157.973 430.408 143.447 446.522 155.506Z" fill="#263238"/>
<path d="M286.96 445.254L282.403 468.974L270.869 466.187L275.426 442.468L286.96 445.254Z" fill="#EF9E96"/>
<path d="M271.235 461.368L284.059 464.154C284.258 464.193 284.435 464.305 284.555 464.468C284.676 464.63 284.731 464.832 284.71 465.034L283.819 474.455C283.79 474.692 283.712 474.919 283.589 475.124C283.467 475.328 283.303 475.505 283.109 475.642C282.914 475.78 282.693 475.875 282.459 475.923C282.226 475.97 281.985 475.968 281.752 475.917C277.721 474.969 276.522 474.375 271.417 473.268C265.467 471.954 263.355 472.308 256.366 470.778C252.14 469.853 252.334 465.422 254.23 465.411C259.237 465.423 264.158 464.111 268.494 461.608C269.344 461.182 270.324 461.096 271.235 461.368Z" fill="#263238"/>
<path opacity="0.2" d="M286.972 445.266L284.62 457.485L273.074 454.699L275.427 442.468L286.972 445.266Z" fill="black"/>
<path d="M307.037 353.906C320.57 314.096 331.282 267.114 331.282 267.114L292.682 264.67C292.682 264.67 286.972 325.63 284.026 353.746C280.943 382.958 271.361 448.909 271.361 448.909L288.777 452.438C288.777 452.438 305.107 390.336 307.037 353.906Z" fill="#263238"/>
<path opacity="0.2" d="M313.477 289.269L322.842 300.848C320.455 309.79 317.668 319.84 314.608 330.106C312.851 316.567 312.473 302.884 313.477 289.269Z" fill="#263238"/>
<path d="M271.612 451.387L287.6 454.881C287.919 454.952 288.253 454.902 288.537 454.742C288.822 454.582 289.037 454.322 289.142 454.013L290.9 448.863C290.961 448.688 290.985 448.503 290.969 448.319C290.953 448.135 290.899 447.956 290.81 447.794C290.72 447.633 290.598 447.492 290.45 447.381C290.302 447.27 290.133 447.191 289.953 447.15L272.606 443.096C272.423 443.052 272.234 443.049 272.05 443.084C271.865 443.12 271.691 443.194 271.538 443.302C271.384 443.41 271.256 443.549 271.16 443.71C271.065 443.872 271.005 444.051 270.984 444.238L270.584 449.948C270.548 450.272 270.633 450.598 270.823 450.864C271.013 451.129 271.294 451.315 271.612 451.387Z" fill="#263238"/>
<path opacity="0.1" d="M271.612 451.387L287.6 454.881C287.919 454.952 288.253 454.902 288.537 454.742C288.822 454.582 289.037 454.322 289.142 454.013L290.9 448.863C290.961 448.688 290.985 448.503 290.969 448.319C290.953 448.135 290.899 447.956 290.81 447.794C290.72 447.633 290.598 447.492 290.45 447.381C290.302 447.27 290.133 447.191 289.953 447.15L272.606 443.096C272.423 443.052 272.234 443.049 272.05 443.084C271.865 443.12 271.691 443.194 271.538 443.302C271.384 443.41 271.256 443.549 271.16 443.71C271.065 443.872 271.005 444.051 270.984 444.238L270.584 449.948C270.548 450.272 270.633 450.598 270.823 450.864C271.013 451.129 271.294 451.315 271.612 451.387Z" fill="white"/>
<path d="M350.455 444.432L351.175 468.905L339.469 468.745L338.75 444.272L350.455 444.432Z" fill="#EF9E96"/>
<path d="M339.173 463.72L351.621 463.903C351.823 463.902 352.018 463.976 352.168 464.111C352.318 464.247 352.412 464.433 352.432 464.634L353.437 474.044C353.456 474.282 353.425 474.522 353.346 474.747C353.267 474.973 353.142 475.179 352.979 475.353C352.815 475.528 352.617 475.666 352.397 475.759C352.177 475.852 351.94 475.898 351.701 475.894C347.567 475.768 346.265 475.426 341.046 475.346C334.948 475.243 333.635 476.008 326.486 475.905C322.157 475.837 321.461 471.452 323.311 471.063C328.223 470.082 332.789 467.82 336.547 464.508C337.29 463.921 338.229 463.639 339.173 463.72Z" fill="#263238"/>
<path opacity="0.2" d="M350.467 444.443L350.832 457.051L339.115 456.891L338.75 444.272L350.467 444.443Z" fill="black"/>
<path d="M347.544 353.095C344.232 311.218 347.03 288.629 342.165 267.833L307.037 265.652C307.037 265.652 317.943 327.206 323.962 355.048C329.98 382.89 336.455 450.519 336.455 450.519L353.722 450.736C353.722 450.736 355.835 385.767 347.544 353.095Z" fill="#263238"/>
<path d="M336.502 453.625L352.844 453.876C353.182 453.88 353.508 453.754 353.757 453.525C354.005 453.296 354.157 452.98 354.18 452.643L354.534 447.253C354.548 447.075 354.525 446.896 354.468 446.726C354.41 446.557 354.319 446.402 354.199 446.269C354.079 446.137 353.934 446.03 353.772 445.956C353.609 445.881 353.433 445.841 353.255 445.837L335.474 445.288C335.276 445.281 335.079 445.319 334.898 445.399C334.717 445.478 334.556 445.598 334.428 445.748C334.299 445.898 334.207 446.076 334.156 446.267C334.106 446.459 334.1 446.659 334.138 446.853L335.28 452.563C335.341 452.849 335.493 453.106 335.713 453.298C335.934 453.49 336.21 453.604 336.502 453.625Z" fill="#263238"/>
<path opacity="0.1" d="M336.502 453.625L352.844 453.876C353.182 453.88 353.508 453.754 353.757 453.525C354.005 453.296 354.157 452.98 354.18 452.643L354.534 447.253C354.548 447.075 354.525 446.896 354.468 446.726C354.41 446.557 354.319 446.402 354.199 446.269C354.079 446.137 353.934 446.03 353.772 445.956C353.609 445.881 353.433 445.841 353.255 445.837L335.474 445.288C335.276 445.281 335.079 445.319 334.898 445.399C334.717 445.478 334.556 445.598 334.428 445.748C334.299 445.898 334.207 446.076 334.156 446.267C334.106 446.459 334.1 446.659 334.138 446.853L335.28 452.563C335.341 452.849 335.493 453.106 335.713 453.298C335.934 453.49 336.21 453.604 336.502 453.625Z" fill="white"/>
<path d="M305.907 201.232C304.559 204.144 303.154 206.725 301.624 209.385C300.094 212.046 298.484 214.627 296.702 217.162C294.901 219.78 292.933 222.279 290.809 224.643C288.453 227.364 285.691 229.706 282.621 231.586L282.222 231.814C281.539 232.216 280.779 232.468 279.991 232.555C279.204 232.642 278.407 232.56 277.654 232.317C275.427 231.597 273.268 230.786 271.156 229.919C269.043 229.051 266.987 228.091 264.966 227.086C262.945 226.081 260.969 225.019 259.028 223.877C257.086 222.735 255.19 221.593 253.318 220.212C252.647 219.736 252.164 219.041 251.951 218.247C251.738 217.453 251.808 216.61 252.151 215.863C252.493 215.116 253.086 214.511 253.827 214.154C254.567 213.797 255.409 213.71 256.207 213.908H256.332C258.377 214.399 260.489 214.993 262.545 215.529L268.723 217.162C270.767 217.722 272.823 218.19 274.844 218.693C276.866 219.195 278.887 219.583 280.874 219.995L275.952 220.737C277.662 219.319 279.195 217.701 280.52 215.918C282.085 213.908 283.592 211.692 285.088 209.408C286.584 207.124 287.943 204.737 289.291 202.316C290.638 199.895 292.009 197.394 293.219 195.088L293.288 194.962C294.198 193.446 295.646 192.328 297.343 191.832C299.04 191.335 300.862 191.496 302.446 192.282C304.03 193.069 305.26 194.422 305.89 196.075C306.521 197.727 306.507 199.556 305.85 201.197L305.907 201.232Z" fill="#EF9E96"/>
<path d="M308.716 181.27C295.081 182.823 284.734 203.938 284.734 203.938L298.804 218.91C298.804 218.91 305.073 211.441 311.811 201.997C319.166 191.708 319.508 180.048 308.716 181.27Z" fill="#9CA7CC"/>
<path d="M307.038 184.433C312.28 182.571 335.759 185.575 335.759 185.575C331.191 191.467 327.377 240.265 326.954 268.313C321.964 268.998 302.824 267.684 298.404 266.657C298.975 255.648 303.566 204.007 307.038 184.433Z" fill="white"/>
<path d="M291.882 199.233C292.498 194.159 294.956 189.487 298.79 186.106C302.624 182.725 307.566 180.87 312.678 180.893C322.488 180.971 332.265 182.05 341.856 184.113C343.35 184.429 344.765 185.042 346.018 185.915C347.271 186.787 348.336 187.902 349.151 189.194C349.965 190.485 350.512 191.927 350.76 193.434C351.008 194.94 350.951 196.481 350.592 197.966C343.363 228.286 345.27 257.053 343.341 270.437C336.46 272.967 329.152 274.131 321.825 273.863C321.825 273.863 321.997 262.317 323.607 242.823C324.886 227.327 327.181 190.885 331.909 184.833C331.909 184.833 314.962 182.549 309.72 184.387C305.826 206.371 302.971 272.961 302.971 272.972C294.68 272.378 290.774 267.765 290.9 266.394C289.221 239.455 290.066 215.027 291.882 199.233Z" fill="#9CA7CC"/>
<path d="M332.516 165.51C330.928 170.078 329.089 178.175 332.024 182.72C332.173 182.931 332.273 183.172 332.318 183.427C332.362 183.682 332.349 183.943 332.28 184.192C332.212 184.441 332.088 184.671 331.92 184.867C331.751 185.063 331.541 185.219 331.305 185.323C326.588 188.045 321.136 189.219 315.717 188.681C308.351 188.087 308.865 184.764 310.76 182.606C311.208 182.107 311.829 181.797 312.496 181.738C319.451 180.904 319.52 176.713 318.515 172.602L332.516 165.51Z" fill="#EF9E96"/>
<path opacity="0.2" d="M326.805 168.422L318.525 172.636C318.787 173.609 318.937 174.609 318.971 175.616C321.986 175.616 326.257 173.595 326.748 171.277C327 170.344 327.02 169.364 326.805 168.422Z" fill="black"/>
<path d="M321.474 149.632C321.785 145.513 319.544 141.985 316.469 141.752C313.393 141.52 310.648 144.671 310.337 148.791C310.026 152.91 312.267 156.438 315.342 156.67C318.417 156.902 321.163 153.751 321.474 149.632Z" fill="#263238"/>
<path d="M336.992 153.028C335.462 162.038 335.017 167.394 330.015 171.585C322.489 177.878 311.926 172.556 310.784 163.271C309.744 154.923 312.417 141.573 321.53 138.878C330.643 136.183 338.523 144.006 336.992 153.028Z" fill="#EF9E96"/>
<path d="M335.028 160.645C334.914 160.645 334.777 160.497 334.652 160.565C330.563 162.849 329.238 157.938 329.49 154.672C329.574 153.583 329.887 152.523 330.408 151.563C330.93 150.603 331.648 149.763 332.516 149.099C328.085 149.602 323.791 146.747 323.723 144.086C318.823 146.244 312.919 146.37 310.258 141.802C307.598 137.234 311.4 131.261 316.471 132.849C314.415 129.172 323.106 121.817 332.208 132.666C332.493 124.798 345.215 132.666 343.125 140.397C349.018 142.43 354.066 153.622 344.073 156.008C343.411 166.378 335.028 160.645 335.028 160.645Z" fill="#263238"/>
<path d="M339.846 163.477C338.463 165.175 336.488 166.284 334.319 166.584C331.578 166.892 330.973 164.105 332.377 161.57C333.645 159.286 336.591 156.386 339.035 157.276C341.479 158.167 341.628 161.308 339.846 163.477Z" fill="#EF9E96"/>
<path d="M323.927 153.702C323.859 154.455 323.413 155.015 322.922 154.969C322.431 154.924 322.089 154.284 322.157 153.53C322.226 152.777 322.671 152.228 323.162 152.274C323.653 152.32 323.984 152.959 323.927 153.702Z" fill="#263238"/>
<path d="M315.077 152.719C315.009 153.462 314.563 154.021 314.072 153.976C313.581 153.93 313.25 153.29 313.307 152.548C313.364 151.806 313.821 151.235 314.312 151.28C314.803 151.326 315.191 151.966 315.077 152.719Z" fill="#263238"/>
<path d="M318.537 153.142C317.445 155.331 316.058 157.36 314.414 159.172C314.888 159.585 315.446 159.89 316.049 160.065C316.653 160.241 317.287 160.283 317.909 160.188L318.537 153.142Z" fill="#C17070"/>
<path d="M320.215 163.82C321.044 163.878 321.877 163.767 322.662 163.494C323.447 163.221 324.169 162.792 324.783 162.232C324.803 162.211 324.819 162.186 324.83 162.159C324.841 162.132 324.846 162.103 324.845 162.074C324.845 162.045 324.838 162.016 324.827 161.989C324.815 161.963 324.798 161.938 324.777 161.918C324.756 161.898 324.732 161.882 324.704 161.871C324.677 161.861 324.648 161.855 324.619 161.856C324.59 161.857 324.561 161.863 324.534 161.874C324.508 161.886 324.484 161.903 324.463 161.924C323.768 162.539 322.936 162.981 322.037 163.213C321.138 163.446 320.197 163.462 319.29 163.26C319.262 163.253 319.233 163.253 319.205 163.258C319.177 163.263 319.15 163.274 319.127 163.29C319.103 163.306 319.083 163.327 319.068 163.351C319.053 163.376 319.043 163.403 319.039 163.431C319.028 163.489 319.04 163.548 319.072 163.597C319.104 163.646 319.153 163.68 319.21 163.694C319.576 163.751 319.895 163.797 320.215 163.82Z" fill="#263238"/>
<path d="M326.85 151.886C326.922 151.902 326.996 151.902 327.067 151.886C327.12 151.862 327.168 151.829 327.208 151.786C327.248 151.744 327.279 151.695 327.299 151.64C327.319 151.586 327.328 151.528 327.326 151.47C327.323 151.412 327.309 151.356 327.284 151.303C327.016 150.657 326.599 150.084 326.067 149.629C325.536 149.175 324.904 148.852 324.224 148.688C324.109 148.672 323.992 148.701 323.898 148.769C323.805 148.837 323.741 148.939 323.721 149.054C323.705 149.168 323.734 149.285 323.802 149.379C323.87 149.473 323.972 149.536 324.087 149.556C324.623 149.694 325.119 149.956 325.536 150.321C325.952 150.686 326.277 151.144 326.485 151.657C326.523 151.722 326.576 151.776 326.64 151.816C326.703 151.856 326.776 151.88 326.85 151.886Z" fill="#263238"/>
<path d="M311.366 149.076C311.437 149.095 311.511 149.097 311.583 149.081C311.655 149.065 311.721 149.032 311.777 148.985C312.184 148.616 312.673 148.349 313.202 148.204C313.732 148.059 314.289 148.041 314.827 148.151C314.937 148.183 315.056 148.17 315.156 148.114C315.257 148.058 315.331 147.965 315.363 147.854C315.395 147.742 315.382 147.622 315.327 147.52C315.271 147.417 315.178 147.341 315.066 147.306C314.387 147.152 313.68 147.163 313.006 147.34C312.332 147.517 311.711 147.854 311.195 148.323C311.154 148.363 311.122 148.411 311.1 148.464C311.078 148.517 311.066 148.574 311.066 148.631C311.066 148.688 311.078 148.745 311.1 148.798C311.122 148.851 311.154 148.899 311.195 148.939C311.239 149 311.298 149.047 311.366 149.076Z" fill="#263238"/>
<path d="M353.31 197.349C354.053 198.799 354.658 200.056 355.252 201.415C355.846 202.774 356.394 204.087 356.988 205.434C358.13 208.13 359.123 210.87 360.06 213.645C361.964 219.258 363.423 225.013 364.422 230.855L364.73 233.139L364.89 234.281V234.555V235.058C364.89 235.423 364.947 235.789 364.947 236.2C364.903 238.281 364.489 240.339 363.725 242.275C362.588 245.233 361.141 248.062 359.409 250.715C357.836 253.198 356.132 255.596 354.304 257.898C352.513 260.189 350.607 262.388 348.594 264.487C348.015 265.1 347.236 265.484 346.398 265.571C345.56 265.657 344.719 265.44 344.028 264.959C343.336 264.478 342.841 263.764 342.631 262.948C342.421 262.132 342.511 261.268 342.884 260.513V260.422C345.248 255.5 347.749 250.521 349.736 245.667C350.25 244.457 350.707 243.246 351.106 242.07C351.504 240.972 351.836 239.85 352.1 238.712C352.285 238.005 352.351 237.272 352.294 236.543C352.294 236.543 352.294 236.611 352.294 236.543L352.237 236.314L352.02 235.366L351.597 233.482C350.28 228.368 348.667 223.335 346.767 218.408C345.853 215.895 344.814 213.417 343.809 210.927C343.306 209.694 342.77 208.461 342.233 207.239L340.634 203.676L340.543 203.47C339.74 201.789 339.638 199.858 340.259 198.102C340.88 196.346 342.174 194.908 343.855 194.106C345.536 193.303 347.467 193.201 349.223 193.822C350.979 194.443 352.416 195.737 353.219 197.418L353.31 197.349Z" fill="#EF9E96"/>
<path d="M343.032 184.433C358.244 188.27 362.446 207.718 362.446 207.718L343.558 221.262C343.558 221.262 338.876 216.363 337.459 204.852C336.809 199.359 339.949 184.284 343.032 184.433Z" fill="#9CA7CC"/>
<path d="M345.373 258.092L336.58 261.381L343.318 270.403C343.318 270.403 350.912 266.463 349.473 262.089L345.373 258.092Z" fill="#EF9E96"/>
<path d="M330.037 262.66C327.669 262.262 325.238 262.482 322.98 263.299L327.342 237.376C327.679 235.352 327.2 233.276 326.01 231.604C324.82 229.933 323.016 228.801 320.992 228.457L245.164 215.689C243.143 215.355 241.072 215.834 239.403 217.022C237.734 218.209 236.603 220.009 236.256 222.028L231.825 248.008C234.081 247.18 236.515 246.959 238.883 247.368C240.988 247.722 242.985 248.553 244.718 249.8C246.452 251.046 247.877 252.673 248.883 254.556C249.889 256.439 250.449 258.528 250.521 260.662C250.593 262.796 250.174 264.918 249.297 266.864C248.42 268.811 247.108 270.53 245.462 271.89C243.816 273.25 241.88 274.214 239.803 274.708C237.726 275.202 235.563 275.213 233.481 274.74C231.399 274.266 229.453 273.322 227.794 271.979L223.42 297.902C223.083 299.926 223.562 302.002 224.752 303.674C225.942 305.345 227.746 306.477 229.769 306.821L305.598 319.589C307.62 319.923 309.693 319.444 311.364 318.257C313.034 317.07 314.168 315.27 314.517 313.25L318.88 287.316C320.541 288.638 322.483 289.563 324.556 290.021C326.629 290.48 328.779 290.459 330.843 289.96C332.907 289.462 334.83 288.499 336.466 287.146C338.102 285.792 339.407 284.083 340.282 282.148C341.158 280.214 341.58 278.105 341.517 275.983C341.455 273.861 340.908 271.781 339.92 269.901C338.933 268.022 337.529 266.393 335.816 265.138C334.103 263.883 332.127 263.036 330.037 262.66Z" fill="#65C17E"/>
<path d="M330.037 262.66C327.669 262.262 325.238 262.482 322.98 263.299L327.342 237.376C327.679 235.352 327.2 233.276 326.01 231.604C324.82 229.933 323.016 228.801 320.992 228.457L245.164 215.689C243.143 215.355 241.072 215.834 239.403 217.022C237.734 218.209 236.603 220.009 236.256 222.028L231.825 248.008C234.081 247.18 236.515 246.959 238.883 247.368C240.988 247.722 242.985 248.553 244.718 249.8C246.452 251.046 247.877 252.673 248.883 254.556C249.889 256.439 250.449 258.528 250.521 260.662C250.593 262.796 250.174 264.918 249.297 266.864C248.42 268.811 247.108 270.53 245.462 271.89C243.816 273.25 241.88 274.214 239.803 274.708C237.726 275.202 235.563 275.213 233.481 274.74C231.399 274.266 229.453 273.322 227.794 271.979L223.42 297.902C223.083 299.926 223.562 302.002 224.752 303.674C225.942 305.345 227.746 306.477 229.769 306.821L305.598 319.589C307.62 319.923 309.693 319.444 311.364 318.257C313.034 317.07 314.168 315.27 314.517 313.25L318.88 287.316C320.541 288.638 322.483 289.563 324.556 290.021C326.629 290.48 328.779 290.459 330.843 289.96C332.907 289.462 334.83 288.499 336.466 287.146C338.102 285.792 339.407 284.083 340.282 282.148C341.158 280.214 341.58 278.105 341.517 275.983C341.455 273.861 340.908 271.781 339.92 269.901C338.933 268.022 337.529 266.393 335.816 265.138C334.103 263.883 332.127 263.036 330.037 262.66Z" fill="#3E7C4F"/>
<path d="M332.469 270.243L335.358 273.006C335.914 273.541 336.643 273.861 337.413 273.907C338.183 273.953 338.945 273.723 339.561 273.258L343.318 270.437L336.58 261.415L332.412 265.595C332.105 265.901 331.863 266.265 331.699 266.666C331.535 267.068 331.454 267.498 331.459 267.931C331.465 268.364 331.557 268.792 331.73 269.189C331.903 269.586 332.155 269.944 332.469 270.243Z" fill="#EF9E96"/>
<path d="M247.813 218.122L248.864 214.227C249.04 213.769 249.355 213.378 249.764 213.107C250.174 212.837 250.658 212.702 251.148 212.72C252.636 212.659 254.121 212.888 255.522 213.394L261.46 215.586L261.175 218.007C260.935 220.086 258.617 221.822 255.99 221.902C254.227 221.925 252.467 221.737 250.748 221.342L250.109 221.205C249.745 221.179 249.39 221.075 249.07 220.9C248.75 220.725 248.472 220.483 248.254 220.19C248.036 219.897 247.883 219.561 247.808 219.204C247.732 218.847 247.734 218.478 247.813 218.122Z" fill="#EF9E96"/>
<path d="M154.275 164.368C158.077 159.948 163.799 148.471 153.041 144.086C145.104 140.843 128.26 142.499 118.587 157.562C111.975 159.846 110.022 174.555 125.291 177.649C140.559 180.744 154.275 164.368 154.275 164.368Z" fill="#263238"/>
<path d="M188.774 447.755L171.324 449.206L174.282 469.716L188.865 468.528L188.774 447.755Z" fill="#FFAC92"/>
<path opacity="0.2" d="M188.774 447.767L171.312 449.217L172.98 460.706L188.831 459.392L188.774 447.767Z" fill="black"/>
<path d="M155.415 387.378C148.563 361.112 130.817 329.844 142.065 304.571L190.954 304.423C190.954 304.423 192.165 356.441 192.507 380.937C192.85 406.552 190.715 454.744 190.715 454.744L170.718 456.263C170.718 456.263 157.014 416.83 155.415 387.378Z" fill="#C3D1FF"/>
<path d="M169.725 457.051L191.332 455.464C191.516 455.448 191.689 455.366 191.819 455.235C191.949 455.103 192.027 454.929 192.04 454.744L192.497 446.75C192.504 446.639 192.487 446.528 192.447 446.424C192.406 446.321 192.344 446.227 192.263 446.151C192.182 446.075 192.085 446.017 191.98 445.982C191.874 445.948 191.762 445.937 191.652 445.951L167.67 449.137C167.561 449.149 167.456 449.185 167.362 449.242C167.269 449.299 167.189 449.376 167.129 449.468C167.069 449.56 167.03 449.664 167.015 449.772C167 449.881 167.009 449.991 167.042 450.096L168.937 456.514C168.99 456.679 169.097 456.821 169.239 456.918C169.382 457.015 169.553 457.062 169.725 457.051Z" fill="#515870"/>
<path opacity="0.2" d="M141.895 329.432C141.706 335.636 141.957 341.845 142.649 348.013C145.035 356.269 148.085 364.538 150.825 372.554C154.411 349.851 154.423 323.391 141.895 329.432Z" fill="black"/>
<path d="M124.182 449.034L106.663 449.205L106.641 469.876L121.281 469.761L124.182 449.034Z" fill="#FFAC92"/>
<path d="M105.259 466.701C105.276 466.586 105.317 466.476 105.379 466.377C105.442 466.279 105.524 466.195 105.621 466.131C105.717 466.066 105.827 466.022 105.941 466.003C106.056 465.983 106.174 465.987 106.286 466.016C110.683 467.763 119.02 466.427 122.172 465.822C122.519 465.75 122.878 465.75 123.226 465.823C123.574 465.896 123.903 466.039 124.193 466.244C126.771 467.898 129.565 469.189 132.495 470.081C133.124 471.762 133.282 473.582 132.952 475.346H103.42C104.253 472.515 104.868 469.625 105.259 466.701Z" fill="#263238"/>
<path d="M172.352 466.701C172.369 466.586 172.411 466.476 172.473 466.377C172.535 466.279 172.618 466.195 172.714 466.131C172.811 466.066 172.92 466.022 173.035 466.003C173.15 465.983 173.267 465.987 173.38 466.016C177.777 467.763 186.113 466.427 189.265 465.822C189.613 465.75 189.972 465.75 190.32 465.823C190.668 465.896 190.997 466.039 191.287 466.244C194.644 468.619 203.597 470.081 203.597 470.081C204.226 471.762 204.38 473.583 204.043 475.346H170.514C171.347 472.515 171.962 469.625 172.352 466.701Z" fill="#263238"/>
<path opacity="0.2" d="M124.182 449.046L106.652 449.206L106.641 460.786L122.56 460.649L124.182 449.046Z" fill="black"/>
<path d="M104.196 378.881C101.821 352.353 94.375 316.619 102.826 304.423H160.04C160.04 304.423 148.38 357.32 143.595 381.805C138.628 407.26 124.341 456.138 124.341 456.138L105.395 456.195C105.395 456.195 98.2122 409.167 104.196 378.881Z" fill="#C3D1FF"/>
<path opacity="0.2" d="M107.635 450.77C107.512 450.768 107.392 450.727 107.294 450.653C107.195 450.58 107.123 450.476 107.087 450.359C105.728 445.791 105.945 393.316 109.371 378.949C109.371 377.054 108.971 373.331 108.514 368.614C106.95 352.626 104.049 322.934 108.377 306.09C108.415 305.938 108.511 305.808 108.645 305.728C108.779 305.648 108.939 305.624 109.091 305.662C109.242 305.699 109.372 305.796 109.453 305.93C109.533 306.064 109.557 306.224 109.519 306.375C105.237 323.037 108.126 352.615 109.679 368.512C110.147 373.308 110.524 377.088 110.547 379.007C110.553 379.056 110.553 379.106 110.547 379.155C107.258 392.745 106.938 445.619 108.263 450.039C108.306 450.183 108.29 450.338 108.22 450.47C108.149 450.603 108.029 450.702 107.886 450.747C107.806 450.779 107.719 450.787 107.635 450.77Z" fill="white"/>
<path d="M104.083 456.902H125.542C125.713 456.907 125.881 456.85 126.013 456.741C126.145 456.631 126.233 456.478 126.261 456.308L127.677 448.691C127.698 448.576 127.692 448.458 127.661 448.345C127.63 448.232 127.574 448.127 127.497 448.039C127.421 447.95 127.326 447.88 127.218 447.833C127.111 447.786 126.995 447.763 126.878 447.766L103.512 448.806C103.414 448.808 103.317 448.831 103.227 448.873C103.138 448.915 103.058 448.974 102.993 449.048C102.928 449.122 102.878 449.209 102.848 449.303C102.817 449.396 102.806 449.495 102.816 449.594L103.295 456.171C103.312 456.369 103.403 456.554 103.548 456.689C103.694 456.824 103.885 456.9 104.083 456.902Z" fill="#515870"/>
<path d="M179.477 212.024C180.619 216.592 181.67 221.16 182.686 225.728C183.702 230.296 184.662 234.864 185.552 239.432L186.923 246.284L188.202 253.136C189.081 257.704 189.858 262.34 190.657 266.954L188.796 262.785C189.045 263.64 189.581 264.382 190.315 264.887C191.776 265.874 193.424 266.554 195.157 266.885C197.467 267.418 199.822 267.728 202.191 267.81C203.459 267.879 204.761 267.924 206.074 267.902C206.725 267.902 207.388 267.902 208.05 267.902C208.712 267.902 209.432 267.902 209.888 267.902L211.51 268.016C212.875 268.103 214.174 268.632 215.211 269.523C216.249 270.413 216.969 271.616 217.263 272.952C217.557 274.287 217.409 275.682 216.841 276.926C216.273 278.169 215.316 279.195 214.114 279.847C213.2 280.349 212.549 280.726 211.773 281.126C210.996 281.526 210.277 281.868 209.489 282.268C207.959 282.93 206.394 283.558 204.772 284.084C203.127 284.623 201.453 285.073 199.759 285.431C197.975 285.787 196.171 286.039 194.357 286.185C192.398 286.325 190.43 286.294 188.476 286.094C186.304 285.911 184.163 285.459 182.104 284.746C179.793 283.976 177.599 282.893 175.583 281.526C173.457 280.053 171.563 278.271 169.964 276.238C169.274 275.381 168.762 274.395 168.457 273.338L168.103 272.07C166.847 267.57 165.556 263.082 164.368 258.56L162.553 251.799L160.828 245.016C159.686 240.448 158.544 235.948 157.505 231.403C156.466 226.858 155.427 222.267 154.524 217.699C153.878 214.431 154.532 211.039 156.349 208.245C158.165 205.452 161 203.478 164.25 202.742C167.5 202.007 170.908 202.569 173.75 204.309C176.592 206.049 178.642 208.829 179.466 212.058L179.477 212.024Z" fill="#FFAC92"/>
<path d="M209.09 269.032L209.33 276.409C212.31 283.57 220.852 278.134 220.852 278.134L226.014 277.186C226.913 276.957 227.702 276.418 228.241 275.663C228.78 274.909 229.035 273.988 228.961 273.063L228.824 267.901C228.858 266.836 228.475 265.799 227.756 265.012C227.037 264.225 226.039 263.749 224.975 263.688L220.407 263.779C219.074 263.802 217.767 264.155 216.604 264.807L209.09 269.032Z" fill="#FFAC92"/>
<path d="M170.73 199.302C181.237 204.829 188.1 224.334 188.1 224.334C185.885 233.47 176.954 250.132 168.686 250.029C168.686 250.029 156.547 234.373 155.234 223.044C153.635 209.351 149.489 188.133 170.73 199.302Z" fill="#515870"/>
<path d="M161.024 196.058C144.809 194.517 128.474 194.777 112.317 196.835C102.976 198.148 96.3294 203.961 97.4714 223.101C99.7554 261.929 96.2152 292.192 101.149 306.147C101.149 306.147 173.003 326.703 193.491 307.004C198.47 260.284 181.705 221.502 174.077 205.366C172.882 202.825 171.054 200.634 168.768 199.004C166.482 197.374 163.815 196.36 161.024 196.058Z" fill="#515870"/>
<path d="M155.621 200.307C153.76 198.479 151.807 199.542 150.905 196.789C150.507 194.629 150.87 192.397 151.933 190.474L129.766 178.506C130.2 186.66 130.531 193.101 126.911 196.344C125.861 202.419 137.189 208.483 152.275 208.575C161.879 208.632 158.305 202.933 155.621 200.307Z" fill="#FFAC92"/>
<path opacity="0.2" d="M151.601 191.159L134.105 186.785C138.525 193.74 146.485 197.543 150.767 195.864C150.645 194.251 150.932 192.632 151.601 191.159Z" fill="black"/>
<path d="M144.36 151.258C132.78 148.688 122.777 158.304 125.015 168.787C127.253 179.271 129.023 186.351 136.275 189.914C150.687 197.018 157.722 190.166 158.898 179.214C159.96 169.347 156.111 153.85 144.36 151.258Z" fill="#FFAC92"/>
<path opacity="0.2" d="M142.088 169.872C140.728 169.532 139.288 169.741 138.08 170.455C139.442 170.527 140.804 170.329 142.088 169.872Z" fill="black"/>
<path opacity="0.2" d="M142.168 170.843C141.528 170.813 140.889 170.924 140.297 171.169C139.705 171.414 139.174 171.786 138.742 172.259C139.973 172.042 141.143 171.558 142.168 170.843Z" fill="black"/>
<path d="M126.478 177.649C132.953 179.1 135.614 175.856 135.614 172.225C135.614 168.365 131.971 161.844 127.974 160.645C129.401 152.08 153.006 164.071 150.757 152.205C150.757 152.205 150.117 150.173 144.019 149.031C137.92 147.889 121.624 151.566 122.766 163.751C123.908 175.936 126.478 177.649 126.478 177.649Z" fill="#263238"/>
<path d="M118.232 158.167C119.817 154.986 120.265 151.359 119.5 147.889C119.5 147.889 126.603 152.582 118.232 158.167Z" fill="#263238"/>
<path d="M148.015 180.904C148.499 180.868 148.98 180.795 149.454 180.687C149.491 180.679 149.526 180.664 149.556 180.642C149.587 180.621 149.614 180.593 149.634 180.561C149.654 180.529 149.668 180.494 149.674 180.457C149.68 180.419 149.679 180.381 149.671 180.345C149.664 180.307 149.65 180.271 149.629 180.24C149.607 180.208 149.58 180.181 149.547 180.16C149.515 180.14 149.479 180.127 149.441 180.121C149.404 180.115 149.365 180.118 149.328 180.128C148.142 180.417 146.905 180.425 145.715 180.152C144.526 179.878 143.417 179.33 142.476 178.552C142.45 178.524 142.418 178.502 142.382 178.487C142.347 178.472 142.309 178.464 142.271 178.464C142.232 178.464 142.194 178.472 142.159 178.487C142.124 178.502 142.092 178.524 142.065 178.552C142.012 178.607 141.982 178.681 141.982 178.757C141.982 178.834 142.012 178.908 142.065 178.963C142.879 179.665 143.824 180.197 144.845 180.531C145.867 180.864 146.944 180.991 148.015 180.904Z" fill="#263238"/>
<path d="M122.377 178.152C123.118 179.156 124.05 180.005 125.12 180.647C126.191 181.29 127.377 181.715 128.612 181.898C131.935 182.354 133.18 179.282 131.901 176.382C130.759 173.767 127.653 170.386 124.501 171.254C121.349 172.122 120.573 175.651 122.377 178.152Z" fill="#FFAC92"/>
<path d="M143.972 169.987C144.109 170.912 144.703 171.597 145.309 171.505C145.914 171.414 146.302 170.58 146.165 169.655C146.028 168.73 145.446 168.057 144.84 168.148C144.235 168.239 143.892 169.016 143.972 169.987Z" fill="#263238"/>
<path d="M154.856 168.525C154.993 169.461 155.587 170.135 156.192 170.043C156.797 169.952 157.185 169.13 157.048 168.205C156.911 167.28 156.329 166.595 155.724 166.686C155.118 166.777 154.73 167.6 154.856 168.525Z" fill="#263238"/>
<path d="M150.744 169.747L151.269 177.581C151.269 177.581 153.839 178.026 155.232 176.541C154.348 173.927 152.802 171.586 150.744 169.747Z" fill="#F49678"/>
<path d="M140.387 167.874C140.293 167.899 140.195 167.899 140.101 167.873C140.008 167.847 139.923 167.796 139.857 167.726C139.79 167.656 139.743 167.569 139.722 167.474C139.701 167.379 139.706 167.281 139.736 167.189C139.953 166.34 140.368 165.555 140.948 164.898C141.528 164.24 142.255 163.73 143.07 163.409C143.208 163.366 143.357 163.379 143.486 163.445C143.614 163.511 143.711 163.625 143.756 163.763C143.799 163.902 143.786 164.053 143.72 164.183C143.654 164.313 143.54 164.412 143.402 164.459C142.758 164.722 142.185 165.133 141.731 165.659C141.276 166.185 140.953 166.811 140.786 167.486C140.761 167.58 140.71 167.666 140.64 167.734C140.569 167.803 140.482 167.851 140.387 167.874Z" fill="#263238"/>
<path d="M158.43 164.368C158.34 164.376 158.249 164.361 158.167 164.323C158.085 164.285 158.014 164.225 157.962 164.151C157.571 163.584 157.05 163.119 156.441 162.795C155.833 162.471 155.156 162.298 154.467 162.29C154.316 162.29 154.171 162.229 154.064 162.122C153.957 162.015 153.896 161.87 153.896 161.719C153.896 161.567 153.957 161.422 154.064 161.315C154.171 161.208 154.316 161.148 154.467 161.148C155.337 161.141 156.196 161.345 156.97 161.743C157.744 162.14 158.409 162.72 158.91 163.432C158.952 163.49 158.982 163.556 158.998 163.626C159.015 163.697 159.017 163.769 159.006 163.84C158.994 163.911 158.968 163.979 158.93 164.041C158.892 164.102 158.843 164.155 158.784 164.197C158.74 164.248 158.686 164.29 158.625 164.319C158.564 164.349 158.498 164.365 158.43 164.368Z" fill="#263238"/>
<path d="M224.975 239.055C222.584 239.223 220.278 240.01 218.283 241.339L216.216 215.073C216.047 213.03 215.077 211.136 213.517 209.805C211.957 208.475 209.935 207.815 207.891 207.969L131.228 214.011C129.186 214.183 127.294 215.153 125.964 216.712C124.634 218.271 123.973 220.292 124.125 222.336L130.177 298.998C130.341 301.044 131.309 302.941 132.87 304.273C134.431 305.605 136.457 306.262 138.503 306.102L215.154 300.049C217.199 299.883 219.095 298.914 220.428 297.354C221.761 295.794 222.423 293.77 222.268 291.724L220.19 265.515C222.366 266.535 224.772 266.968 227.168 266.771C230.608 266.192 233.708 264.345 235.854 261.594C238 258.843 239.038 255.387 238.763 251.909C238.488 248.43 236.919 245.181 234.367 242.802C231.815 240.423 228.464 239.086 224.975 239.055Z" fill="#65C17E"/>
<path d="M113.813 228.571L112.671 230.672L111.357 233.025C110.512 234.624 109.644 236.222 108.856 237.844C107.273 241.004 105.855 244.244 104.608 247.551C104.003 249.15 103.466 250.737 103.066 252.302C102.61 253.8 102.252 255.326 101.993 256.87C101.514 259.354 101.433 261.898 101.753 264.407L99.1266 259.839C100.22 261.339 101.524 262.673 102.998 263.802C104.935 265.348 106.968 266.771 109.085 268.061C111.289 269.477 113.653 270.836 116.028 272.195L119.66 274.217C120.802 274.902 122.172 275.587 123.257 276.25L123.805 276.581C125.018 277.315 125.955 278.428 126.472 279.748C126.99 281.068 127.059 282.521 126.67 283.884C126.281 285.247 125.454 286.444 124.317 287.291C123.18 288.138 121.797 288.588 120.379 288.572C118.643 288.572 117.159 288.458 115.56 288.332C113.961 288.206 112.442 288.012 110.889 287.761C107.733 287.287 104.609 286.616 101.536 285.751C98.2843 284.84 95.1138 283.659 92.0576 282.222C88.4448 280.558 85.1244 278.322 82.225 275.599C81.1817 274.604 80.3976 273.369 79.941 272.001L79.6212 271.019C77.833 265.595 77.1647 259.865 77.657 254.175C78.0449 249.218 78.9951 244.322 80.4891 239.58C81.8804 235.124 83.6059 230.78 85.651 226.584C86.6445 224.528 87.6609 222.496 88.8029 220.52C89.3625 219.526 89.9449 218.533 90.5387 217.551L91.4752 216.066L91.9662 215.312L92.5601 214.433C94.3947 211.657 97.2399 209.706 100.491 208.995C103.741 208.284 107.141 208.869 109.967 210.626C112.793 212.382 114.823 215.172 115.624 218.402C116.425 221.631 115.935 225.046 114.258 227.92L113.813 228.571Z" fill="#FFAC92"/>
<path d="M104.894 199.302C85.9599 209.42 78.9023 232.02 78.9023 232.02C82.6481 239.157 105.237 246.866 113.733 244.765C113.733 244.765 121.876 229.919 123.555 216.648C125.108 204.349 115.983 193.375 104.894 199.302Z" fill="#515870"/>
<path d="M118.141 277.506L118.529 284.883C121.658 291.987 130.086 286.379 130.086 286.379L135.236 285.329C136.13 285.082 136.907 284.527 137.43 283.762C137.952 282.997 138.187 282.071 138.091 281.149L137.863 275.998C137.891 274.926 137.498 273.886 136.768 273.1C136.038 272.315 135.029 271.846 133.957 271.796L129.389 271.979C128.054 272.04 126.755 272.432 125.609 273.121L118.141 277.506Z" fill="#FFAC92"/>
<path d="M181.088 282H192.019V272.212H199.179V262.995H192.019V227.042H175.794C164.521 243.647 158.541 253.283 153.742 262.424V272.212H181.088V282ZM163.835 263.033C168.291 254.426 173.09 246.923 181.088 235.192H181.316V263.338H163.835V263.033Z" fill="white"/>
<path d="M417.37 303.874L428.296 303.535L427.992 293.751L435.148 293.529L434.862 284.317L427.706 284.539L426.59 248.603L410.373 249.107C399.62 266.054 393.943 275.871 389.43 285.156L389.734 294.939L417.066 294.09L417.37 303.874ZM399.537 285.452C403.724 276.71 408.287 269.062 415.917 257.089L416.146 257.082L417.019 285.214L399.546 285.756L399.537 285.452Z" fill="white"/>
<path d="M270.784 291.526C283.088 297.831 295.599 291.79 303.694 275.996C311.789 260.201 309.215 246.685 296.98 240.414C284.744 234.143 272.218 239.963 264.123 255.757C256.01 271.586 258.481 285.22 270.784 291.526ZM274.988 283.323C269.158 280.336 268.83 272.207 274.528 261.09C280.174 250.075 287.014 245.663 292.776 248.616C298.572 251.587 298.934 259.647 293.271 270.696C287.556 281.848 280.818 286.311 274.988 283.323Z" fill="white"/>
</svg>
