<svg width="283" height="283" viewBox="0 0 283 283" fill="none" xmlns="http://www.w3.org/2000/svg">
<path d="M141.5 241.999C202.108 241.999 251.241 239.13 251.241 235.592C251.241 232.053 202.108 229.185 141.5 229.185C80.8909 229.185 31.7578 232.053 31.7578 235.592C31.7578 239.13 80.8909 241.999 141.5 241.999Z" fill="#E3E9FF"/>
<path d="M141.477 204.354H61.1048L56.707 75.0969H137.079L141.477 204.354Z" fill="#65C17E"/>
<path d="M145.49 200.341H65.1183L60.7148 71.084H141.087L145.49 200.341Z" fill="#65C17E"/>
<path opacity="0.3" d="M145.49 200.341H65.1183L60.7148 71.084H141.087L145.49 200.341Z" fill="white"/>
<path d="M118.56 124.273C127.166 115.519 126.8 101.205 117.743 92.3012C108.685 83.3976 94.367 83.2764 85.7614 92.0304C77.1559 100.784 77.522 115.099 86.5792 124.002C95.6364 132.906 109.955 133.027 118.56 124.273Z" fill="#65C17E"/>
<path d="M120.823 108.157C120.939 111.237 120.267 114.296 118.87 117.043C117.363 120.004 115.061 122.487 112.222 124.212C109.382 125.938 106.119 126.838 102.796 126.812C99.3956 126.794 96.0597 125.882 93.1231 124.167C90.1865 122.452 87.7525 119.996 86.0651 117.043C84.4918 114.338 83.6129 111.285 83.5068 108.157C83.4024 105.732 83.7922 103.311 84.6524 101.041C85.5127 98.7706 86.8254 96.6992 88.511 94.9523C90.1965 93.2053 92.2196 91.8193 94.4574 90.8784C96.6951 89.9375 99.1008 89.4614 101.528 89.479C106.529 89.5144 111.324 91.4748 114.917 94.953C118.51 98.4313 120.625 103.16 120.823 108.157Z" fill="white"/>
<path opacity="0.6" d="M118.86 117.043C117.353 120.004 115.051 122.487 112.211 124.212C109.372 125.938 106.108 126.838 102.786 126.812C99.3852 126.794 96.0493 125.882 93.1127 124.167C90.1761 122.452 87.742 119.996 86.0547 117.043C90.8414 113.78 96.5055 112.045 102.299 112.068C108.186 112.081 113.941 113.81 118.86 117.043Z" fill="#E3E9FF"/>
<path opacity="0.6" d="M107.976 107.692C111.14 104.473 111.005 99.2091 107.675 95.9352C104.345 92.6613 99.0795 92.6167 95.9151 95.8356C92.7508 99.0546 92.8854 104.318 96.2158 107.592C99.5462 110.866 104.811 110.911 107.976 107.692Z" fill="#E3E9FF"/>
<path d="M129.342 153.533H78.0738L77.7285 143.345H128.997L129.342 153.533Z" fill="white"/>
<path d="M129.965 171.741H78.691L78.3457 161.553H129.62L129.965 171.741Z" fill="white"/>
<path d="M110.177 162.957L97.8215 164.655C97.7036 164.669 97.5898 164.706 97.4871 164.766C97.3845 164.825 97.2953 164.905 97.2251 165.001C97.155 165.097 97.1054 165.206 97.0794 165.322C97.0535 165.438 97.0518 165.557 97.0744 165.674L98.6988 173.954C98.752 174.197 98.8941 174.412 99.0973 174.555C99.3005 174.699 99.55 174.761 99.7968 174.73L112.153 173.032C112.27 173.017 112.384 172.978 112.486 172.918C112.588 172.857 112.676 172.777 112.746 172.681C112.815 172.584 112.864 172.475 112.89 172.359C112.915 172.244 112.917 172.124 112.894 172.007L111.275 163.727C111.222 163.484 111.08 163.271 110.876 163.128C110.673 162.985 110.423 162.924 110.177 162.957ZM106.628 171.345L104.364 171.645L104.144 168.974C103.91 168.873 103.705 168.717 103.544 168.52C103.384 168.323 103.273 168.091 103.221 167.842C103.18 167.649 103.179 167.45 103.219 167.257C103.259 167.063 103.34 166.881 103.455 166.721C103.57 166.561 103.718 166.427 103.888 166.327C104.058 166.228 104.248 166.165 104.444 166.144C104.846 166.092 105.253 166.193 105.584 166.427C105.915 166.66 106.146 167.01 106.232 167.406C106.281 167.645 106.266 167.893 106.189 168.125C106.111 168.356 105.974 168.563 105.791 168.725L106.628 171.345Z" fill="#65C17E"/>
<path d="M108.954 162.51C108.735 162.538 108.514 162.483 108.334 162.356C108.154 162.23 108.028 162.04 107.98 161.825L107.822 161.016C107.596 159.911 106.977 158.926 106.079 158.243C105.182 157.561 104.068 157.226 102.943 157.303C102.375 157.335 101.821 157.489 101.318 157.755C100.816 158.02 100.376 158.391 100.029 158.841C99.6822 159.292 99.4364 159.812 99.3083 160.366C99.1801 160.92 99.1727 161.495 99.2865 162.052L99.4677 162.985C99.4888 163.089 99.488 163.196 99.4655 163.299C99.4429 163.402 99.3991 163.499 99.3367 163.585C99.2744 163.67 99.1949 163.741 99.1034 163.794C99.012 163.847 98.9105 163.88 98.8055 163.891C98.5866 163.922 98.3643 163.868 98.1836 163.741C98.0029 163.614 97.8772 163.423 97.8319 163.206L97.6791 162.419C97.5237 161.684 97.5185 160.925 97.664 160.188C97.8094 159.45 98.1024 158.75 98.5253 158.129C98.9483 157.508 99.4925 156.978 100.125 156.573C100.758 156.167 101.466 155.894 102.207 155.769C103.814 155.499 105.463 155.858 106.812 156.772C108.161 157.686 109.106 159.084 109.452 160.676L109.633 161.604C109.654 161.709 109.653 161.817 109.629 161.922C109.606 162.026 109.56 162.124 109.496 162.209C109.432 162.295 109.351 162.366 109.257 162.418C109.164 162.47 109.06 162.501 108.954 162.51Z" fill="#65C17E"/>
<path d="M121.502 186.01H88.125L87.9043 179.377H121.276L121.502 186.01Z" fill="#65C17E"/>
<path d="M105.399 148.439C105.409 148.681 105.37 148.923 105.284 149.149C105.198 149.375 105.067 149.582 104.898 149.756C104.73 149.93 104.528 150.068 104.305 150.162C104.082 150.256 103.842 150.303 103.6 150.301C103.1 150.297 102.622 150.102 102.263 149.756C101.904 149.409 101.691 148.938 101.669 148.439C101.66 148.197 101.699 147.956 101.785 147.729C101.871 147.503 102.002 147.297 102.171 147.123C102.339 146.948 102.541 146.81 102.764 146.717C102.987 146.623 103.227 146.575 103.469 146.577C103.969 146.58 104.448 146.774 104.808 147.121C105.167 147.468 105.379 147.94 105.399 148.439Z" fill="#263238"/>
<path d="M97.3508 148.439C97.3616 148.681 97.3229 148.923 97.2371 149.15C97.1512 149.377 97.0201 149.583 96.8516 149.758C96.6832 149.932 96.4809 150.07 96.2573 150.164C96.0337 150.257 95.7933 150.304 95.5509 150.301C95.0524 150.297 94.5745 150.102 94.2163 149.755C93.858 149.409 93.6468 148.937 93.6265 148.439C93.6165 148.197 93.6558 147.956 93.7419 147.729C93.8281 147.503 93.9592 147.297 94.1275 147.123C94.2958 146.948 94.4977 146.81 94.721 146.717C94.9443 146.623 95.1843 146.575 95.4264 146.577C95.9253 146.58 96.404 146.775 96.7626 147.122C97.1211 147.469 97.3318 147.941 97.3508 148.439Z" fill="#263238"/>
<path d="M89.3547 148.439C89.3647 148.681 89.3254 148.923 89.2393 149.149C89.1532 149.375 89.022 149.582 88.8537 149.756C88.6854 149.93 88.4835 150.068 88.2602 150.162C88.037 150.256 87.797 150.303 87.5548 150.301C87.0559 150.299 86.5772 150.104 86.2187 149.757C85.8601 149.41 85.6494 148.938 85.6304 148.439C85.6205 148.197 85.6597 147.956 85.7458 147.729C85.832 147.503 85.9632 147.297 86.1315 147.123C86.2997 146.948 86.5016 146.81 86.7249 146.717C86.9482 146.623 87.1882 146.575 87.4303 146.577C87.9292 146.58 88.4079 146.775 88.7665 147.122C89.125 147.469 89.3357 147.941 89.3547 148.439Z" fill="#263238"/>
<path d="M113.421 148.439C113.431 148.681 113.391 148.923 113.305 149.149C113.219 149.375 113.088 149.582 112.92 149.756C112.751 149.93 112.549 150.068 112.326 150.162C112.103 150.256 111.863 150.303 111.621 150.301C111.122 150.299 110.643 150.104 110.285 149.757C109.926 149.41 109.715 148.938 109.696 148.439C109.688 148.198 109.729 147.958 109.816 147.732C109.903 147.507 110.035 147.302 110.204 147.13C110.373 146.957 110.575 146.821 110.798 146.729C111.021 146.637 111.261 146.591 111.502 146.594C111.997 146.598 112.472 146.791 112.829 147.134C113.186 147.478 113.398 147.945 113.421 148.439Z" fill="#263238"/>
<path d="M121.441 148.439C121.451 148.681 121.413 148.923 121.327 149.15C121.241 149.377 121.11 149.583 120.941 149.758C120.773 149.932 120.571 150.07 120.347 150.164C120.123 150.257 119.883 150.304 119.641 150.301C119.142 150.297 118.664 150.102 118.306 149.755C117.948 149.409 117.737 148.937 117.716 148.439C117.706 148.197 117.746 147.956 117.832 147.729C117.918 147.503 118.049 147.297 118.217 147.123C118.386 146.948 118.588 146.81 118.811 146.717C119.034 146.623 119.274 146.575 119.516 146.577C120.015 146.58 120.494 146.775 120.852 147.122C121.211 147.469 121.422 147.941 121.441 148.439Z" fill="#263238"/>
<path d="M188.994 98.6426C189.747 99.8538 190.375 101.008 191.02 102.214C191.665 103.42 192.248 104.631 192.82 105.87C193.986 108.38 194.952 110.979 195.707 113.642C195.808 113.976 195.882 114.332 195.967 114.677L196.091 115.204L196.154 115.464L196.227 115.894C196.355 116.87 196.295 117.861 196.052 118.815C195.661 120.295 195.067 121.714 194.286 123.032C192.889 125.425 191.201 127.636 189.26 129.614L186.877 127.814C188.073 125.615 189.137 123.347 190.063 121.022C190.476 119.998 190.767 118.928 190.929 117.836C190.982 117.502 190.966 117.161 190.884 116.834L190.658 116.143C190.567 115.86 190.482 115.577 190.375 115.289C189.514 112.954 188.518 110.671 187.392 108.451C186.26 106.187 185.043 103.923 183.826 101.761L188.994 98.6426Z" fill="#FF8B7B"/>
<path d="M187.483 127.027L184.879 128.403L187.867 131.901C187.867 131.901 189.735 130.639 189.82 128.714L187.483 127.027Z" fill="#FF8B7B"/>
<path d="M181.387 130.559L184.585 133.101L187.867 131.901L184.879 128.403L181.387 130.559Z" fill="#FF8B7B"/>
<path d="M170.451 80.123C170.389 80.4399 170.168 80.6607 169.964 80.6211C169.761 80.5814 169.642 80.2871 169.704 79.9758C169.766 79.6645 169.987 79.4098 170.196 79.4777C170.406 79.5457 170.513 79.806 170.451 80.123Z" fill="#263238"/>
<path d="M170.197 80.6664C169.627 81.5529 168.938 82.3567 168.148 83.0549C168.335 83.2481 168.561 83.3988 168.811 83.4964C169.061 83.5941 169.329 83.6366 169.597 83.6209L170.197 80.6664Z" fill="#FF5652"/>
<path d="M169.178 91.7713V88.0583L174.091 88.6243C174.091 88.6243 174.011 91.8166 171.261 92.7561L169.178 91.7713Z" fill="#FF8B7B"/>
<path d="M170.594 85.3868L174.052 86.383L174.114 88.6527L169.201 88.0584L170.594 85.3868Z" fill="#FF8B7B"/>
<path opacity="0.2" d="M174.052 86.383L170.593 85.3868L169.92 86.6773C169.957 87.6942 170.274 88.6809 170.838 89.5282C171.401 90.3754 172.189 91.05 173.112 91.477C173.706 90.647 174.054 89.6659 174.114 88.647L174.052 86.383Z" fill="black"/>
<path d="M171.957 78.6118C171.994 78.6108 172.029 78.5996 172.059 78.5795C172.089 78.5593 172.113 78.531 172.128 78.4979C172.143 78.4647 172.148 78.4281 172.143 78.3922C172.137 78.3562 172.122 78.3225 172.099 78.2948C171.9 78.0703 171.65 77.8967 171.371 77.7883C171.091 77.68 170.79 77.6402 170.491 77.6722C170.443 77.6805 170.399 77.7079 170.37 77.7482C170.342 77.7885 170.33 77.8385 170.339 77.8873C170.347 77.9364 170.374 77.9804 170.414 78.01C170.454 78.0395 170.504 78.0524 170.554 78.0458C170.79 78.0226 171.028 78.0563 171.249 78.1439C171.469 78.2315 171.666 78.3706 171.821 78.5495C171.839 78.5685 171.86 78.5837 171.883 78.5944C171.906 78.6051 171.932 78.611 171.957 78.6118Z" fill="#263238"/>
<path d="M179.19 85.851C178.624 88.7659 178.273 92.8014 180.322 94.7428C180.322 94.7428 179.53 97.6973 174.096 97.6973C168.148 97.6973 171.238 95.1051 171.238 95.1051C173.711 94.3353 173.689 91.5223 173.123 89.2583L179.19 85.851Z" fill="#FF8B7B"/>
<path d="M181.427 96.6898C181.959 95.9427 181.936 93.5712 181.37 93.1523C180.459 92.4788 176.548 92.3203 171.29 93.5315C171.856 95.8295 170.639 97.0294 170.639 97.0294L181.427 96.6898Z" fill="#65C17E"/>
<path d="M199.119 231.064C198.957 231.121 198.786 231.145 198.615 231.135C198.444 231.126 198.277 231.082 198.123 231.007C198.064 230.953 198.024 230.882 198.008 230.804C197.992 230.726 198 230.645 198.032 230.571C198.05 230.51 198.081 230.454 198.123 230.406C198.165 230.358 198.217 230.32 198.276 230.294C198.813 230.034 200.047 230.537 200.104 230.56C200.121 230.567 200.135 230.579 200.145 230.594C200.155 230.609 200.161 230.627 200.16 230.645C200.16 230.663 200.155 230.681 200.147 230.697C200.138 230.713 200.125 230.726 200.109 230.736C199.79 230.876 199.459 230.986 199.119 231.064ZM198.468 230.424C198.431 230.433 198.395 230.446 198.36 230.464C198.325 230.477 198.293 230.498 198.268 230.525C198.242 230.553 198.224 230.586 198.213 230.622C198.162 230.792 198.213 230.849 198.247 230.866C198.462 231.047 199.255 230.866 199.815 230.656C199.389 230.48 198.929 230.401 198.468 230.424Z" fill="#65C17E"/>
<path d="M200.087 230.741H200.042C199.589 230.611 198.627 229.926 198.615 229.479C198.615 229.408 198.639 229.339 198.683 229.283C198.727 229.228 198.789 229.189 198.859 229.173C198.926 229.148 198.998 229.138 199.069 229.144C199.14 229.15 199.21 229.172 199.272 229.207C199.804 229.479 200.143 230.577 200.155 230.628C200.163 230.642 200.167 230.657 200.167 230.673C200.167 230.689 200.163 230.705 200.155 230.719C200.146 230.727 200.135 230.734 200.123 230.738C200.112 230.742 200.099 230.743 200.087 230.741ZM198.955 229.332H198.91C198.796 229.372 198.796 229.428 198.796 229.456C198.796 229.722 199.442 230.26 199.928 230.475C199.81 230.158 199.549 229.53 199.204 229.343C199.127 229.308 199.04 229.304 198.96 229.332H198.955Z" fill="#65C17E"/>
<path d="M169.722 231.732C169.213 231.732 168.72 231.658 168.556 231.432C168.513 231.371 168.49 231.299 168.49 231.225C168.49 231.151 168.513 231.079 168.556 231.019C168.588 230.963 168.632 230.915 168.683 230.877C168.735 230.839 168.794 230.812 168.856 230.798C169.518 230.617 170.911 231.409 170.967 231.443C170.985 231.452 170.999 231.466 171.007 231.483C171.015 231.501 171.017 231.521 171.013 231.539C171.011 231.559 171.002 231.577 170.989 231.591C170.976 231.605 170.958 231.615 170.939 231.619C170.538 231.692 170.13 231.73 169.722 231.732ZM169.094 230.956C169.034 230.947 168.973 230.947 168.913 230.956C168.874 230.964 168.838 230.98 168.806 231.002C168.774 231.025 168.747 231.053 168.726 231.087C168.658 231.205 168.686 231.262 168.726 231.296C168.913 231.556 169.915 231.562 170.656 231.454C170.172 231.19 169.642 231.021 169.094 230.956Z" fill="#65C17E"/>
<path d="M170.933 231.619H170.894C170.413 231.404 169.462 230.543 169.535 230.09C169.535 229.983 169.626 229.853 169.886 229.83C169.979 229.819 170.074 229.828 170.163 229.855C170.253 229.882 170.336 229.928 170.407 229.989C170.77 230.422 170.987 230.959 171.03 231.522C171.029 231.539 171.026 231.555 171.019 231.569C171.012 231.584 171.002 231.597 170.99 231.607C170.972 231.616 170.953 231.62 170.933 231.619ZM169.96 230.006H169.903C169.733 230.006 169.722 230.085 169.722 230.107C169.677 230.379 170.322 231.058 170.814 231.353C170.771 230.898 170.587 230.469 170.288 230.124C170.195 230.045 170.076 230.003 169.954 230.006H169.96Z" fill="#65C17E"/>
<path d="M175.303 231.528H171.324L170.928 222.308H174.907L175.303 231.528Z" fill="#FF8B7B"/>
<path d="M204.524 229.683L200.636 230.526L196.725 221.94L200.619 221.097L204.524 229.683Z" fill="#FF8B7B"/>
<path d="M200.257 230.136L204.633 229.19C204.709 229.174 204.789 229.184 204.859 229.219C204.929 229.254 204.985 229.312 205.017 229.383L206.534 232.677C206.575 232.757 206.596 232.845 206.595 232.934C206.595 233.024 206.574 233.112 206.533 233.191C206.492 233.271 206.433 233.339 206.36 233.392C206.288 233.444 206.204 233.478 206.115 233.492C204.587 233.792 203.823 233.866 201.904 234.279C200.721 234.539 198.05 235.19 196.414 235.541C194.778 235.892 194.218 234.324 194.858 234.035C197.716 232.728 198.905 231.579 199.68 230.509C199.82 230.318 200.026 230.185 200.257 230.136Z" fill="#263238"/>
<path d="M171.351 231.064H175.698C175.777 231.064 175.854 231.091 175.915 231.141C175.977 231.19 176.02 231.259 176.038 231.336L176.825 234.873C176.848 234.959 176.85 235.048 176.833 235.135C176.815 235.222 176.777 235.303 176.722 235.372C176.667 235.442 176.596 235.497 176.516 235.534C176.435 235.572 176.347 235.589 176.259 235.586C174.691 235.558 172.427 235.467 170.457 235.467C168.148 235.467 166.161 235.592 163.456 235.592C161.82 235.592 161.367 233.939 162.052 233.786C165.165 233.107 167.712 233.034 170.401 231.375C170.683 231.186 171.012 231.078 171.351 231.064Z" fill="#263238"/>
<path d="M187.444 95.654C191.174 96.5087 194.236 106.034 194.236 106.034L186.781 111.734C184.847 109.665 183.482 107.13 182.819 104.376C181.501 99.3839 183.629 94.771 187.444 95.654Z" fill="#65C17E"/>
<path opacity="0.4" d="M187.444 95.654C191.174 96.5087 194.236 106.034 194.236 106.034L186.781 111.734C184.847 109.665 183.482 107.13 182.819 104.376C181.501 99.3839 183.629 94.771 187.444 95.654Z" fill="black"/>
<path d="M167.82 107.014C166.892 108.016 165.963 108.91 164.99 109.844C164.509 110.297 164.022 110.749 163.524 111.185L162.771 111.847L162.584 112.011L162.262 112.272C161.93 112.537 161.562 112.754 161.169 112.917C160.733 113.103 160.263 113.199 159.788 113.2C159.383 113.202 158.98 113.131 158.6 112.991C158.178 112.83 157.793 112.585 157.468 112.272C157.053 111.867 156.749 111.362 156.585 110.806C156.499 110.532 156.444 110.249 156.421 109.963C156.391 109.627 156.391 109.29 156.421 108.955C156.449 108.683 156.483 108.446 156.528 108.225C156.683 107.453 156.903 106.696 157.185 105.961C157.439 105.262 157.732 104.578 158.062 103.912C158.424 103.193 158.77 102.667 159.115 102.067C160.517 99.7696 162.117 97.5992 163.898 95.5805C165.66 93.5737 167.602 91.7322 169.699 90.079L171.782 92.2241C170.322 94.1825 168.884 96.2823 167.554 98.3482C166.23 100.402 165.021 102.528 163.932 104.716C163.688 105.248 163.366 105.848 163.213 106.278C163.01 106.778 162.835 107.288 162.686 107.806C162.544 108.273 162.436 108.75 162.364 109.232C162.36 109.308 162.36 109.383 162.364 109.459C162.364 109.504 162.364 109.527 162.364 109.408C162.354 109.281 162.33 109.155 162.29 109.034C162.168 108.633 161.943 108.27 161.639 107.982C161.368 107.733 161.051 107.54 160.705 107.416C160.401 107.3 160.079 107.241 159.754 107.24C159.442 107.236 159.132 107.296 158.843 107.416C158.745 107.455 158.651 107.503 158.56 107.557L158.775 107.359L159.46 106.736L160.813 105.469C161.707 104.625 162.607 103.725 163.456 102.888L167.82 107.014Z" fill="#FF8B7B"/>
<path opacity="0.2" d="M184.245 102.65C186.271 104.653 186.933 108.31 187.075 111.479L186.746 111.734C184.811 109.665 183.446 107.13 182.784 104.376C182.711 104.082 182.643 103.81 182.592 103.487L184.245 102.65Z" fill="black"/>
<path d="M163.863 99.616C163.048 103.918 162.538 112.753 164.899 130.242H186.214C186.361 126.976 184.307 111.027 187.459 95.6257C185.104 95.1734 182.722 94.8728 180.328 94.7258C177.312 94.5528 174.288 94.5528 171.272 94.7258C170.276 94.8164 169.291 94.9635 168.442 95.1163C167.313 95.3144 166.27 95.8507 165.453 96.6542C164.635 97.4577 164.081 98.4905 163.863 99.616Z" fill="#65C17E"/>
<path opacity="0.4" d="M163.863 99.616C163.048 103.918 162.538 112.753 164.899 130.242H186.214C186.361 126.976 184.307 111.027 187.459 95.6257C185.104 95.1734 182.722 94.8728 180.328 94.7258C177.312 94.5528 174.288 94.5528 171.272 94.7258C170.276 94.8164 169.291 94.9635 168.442 95.1163C167.313 95.3144 166.27 95.8507 165.453 96.6542C164.635 97.4577 164.081 98.4905 163.863 99.616Z" fill="black"/>
<path opacity="0.2" d="M167.123 105.995L163.274 105.072C163.155 107.404 163.144 110.291 163.314 113.862C165.085 111.847 167.349 108.7 167.123 105.995Z" fill="black"/>
<path opacity="0.2" d="M170.928 222.308L171.132 227.062H175.116L174.912 222.308H170.928Z" fill="black"/>
<path opacity="0.2" d="M200.619 221.097L196.725 221.94L198.74 226.366L202.634 225.523L200.619 221.097Z" fill="black"/>
<path d="M181.081 81.5946C180.062 85.4094 179.655 87.6961 177.3 89.2809C173.763 91.692 169.348 88.9299 169.235 84.9C169.11 81.2606 170.803 75.6289 174.895 74.8592C175.794 74.6904 176.722 74.7534 177.59 75.0423C178.458 75.3311 179.238 75.8362 179.857 76.5101C180.476 77.184 180.913 78.0043 181.127 78.8939C181.342 79.7834 181.326 80.7129 181.081 81.5946Z" fill="#FF8B7B"/>
<path d="M172.15 81.7361C171.958 81.2267 171.081 77.2817 171.907 76.2573C172.733 75.2328 182.157 75.9743 183.55 77.344C185.865 79.608 184.257 81.6456 181.727 84.2662C179.825 86.2358 179.752 88.4546 178.79 88.7942C177.092 89.3602 174.499 88.8281 173.979 87.0339C173.458 85.2397 172.15 81.7361 172.15 81.7361Z" fill="#263238"/>
<path d="M182.406 72.8556C179.078 71.4406 172.835 73.0084 169.462 72.1934C169.419 73.4477 169.832 74.6752 170.623 75.649C171.415 76.6229 172.533 77.2772 173.769 77.4911C176.568 78.0244 179.411 78.2879 182.259 78.2779C185.961 78.1081 185.236 74.0612 182.406 72.8556Z" fill="#263238"/>
<path d="M182.926 77.4628C184.142 77.5825 185.366 77.3486 186.452 76.7893C187.075 78.2949 183.65 78.7081 182.926 77.4628Z" fill="#263238"/>
<path d="M173.961 81.8946C173.884 82.8761 173.487 83.8051 172.829 84.5378C171.957 85.4943 171.052 84.8943 170.899 83.734C170.763 82.6813 171.046 80.904 172.11 80.3946C173.174 79.8852 174.034 80.7116 173.961 81.8946Z" fill="#FF8B7B"/>
<path d="M172.455 130.259C172.455 130.259 176.983 160.682 179.456 172.081C182.168 184.561 196.736 225.851 196.736 225.851L203.862 224.306C203.862 224.306 193.674 190.651 191.41 173.202C189.656 159.799 186.209 130.248 186.209 130.248L172.455 130.259Z" fill="#65C17E"/>
<path d="M195.028 223.479C194.999 223.479 196.358 226.06 196.358 226.06L204.372 224.323L203.699 221.912L195.028 223.479Z" fill="#263238"/>
<path opacity="0.3" d="M175.314 141.098C180.538 142.123 179.983 161.604 179.355 171.628C177.85 164.542 175.642 150.913 174.137 141.24C174.502 141.06 174.917 141.01 175.314 141.098Z" fill="black"/>
<path d="M164.9 130.259C164.9 130.259 164.334 160.025 164.787 172.143C165.24 184.771 169.649 226.117 169.649 226.117H176.396C176.396 226.117 176.639 185.507 176.962 173.106C177.29 159.589 178.92 130.237 178.92 130.237L164.9 130.259Z" fill="#65C17E"/>
<path d="M168.352 223.457C168.318 223.457 168.731 226.253 168.731 226.253H176.932L177.159 223.757L168.352 223.457Z" fill="#263238"/>
<path d="M172.206 100.94C174.114 106.085 162.901 112.147 162.901 112.147L158.045 105.921C158.045 105.921 161.311 99.4575 165.273 96.5483C170.169 92.9599 170.752 97.0237 172.206 100.94Z" fill="#65C17E"/>
<path opacity="0.4" d="M172.206 100.94C174.114 106.085 162.901 112.147 162.901 112.147L158.045 105.921C158.045 105.921 161.311 99.4575 165.273 96.5483C170.169 92.9599 170.752 97.0237 172.206 100.94Z" fill="black"/>
<path d="M216.138 61.8807C227.419 61.8807 236.565 56.0524 236.565 48.8627C236.565 41.6731 227.419 35.8447 216.138 35.8447C204.856 35.8447 195.711 41.6731 195.711 48.8627C195.711 56.0524 204.856 61.8807 216.138 61.8807Z" fill="#65C17E"/>
<path d="M208.768 55.417C207.423 55.4127 206.122 54.9342 205.094 54.0658C204.066 53.1973 203.377 51.9943 203.148 50.6683C202.923 49.2319 203.247 47.7635 204.055 46.5552C204.864 45.3469 206.098 44.4875 207.512 44.148C208.672 43.8807 209.887 43.9837 210.985 44.4426C212.084 44.9015 213.011 45.6932 213.636 46.7063L226.75 44.0008C227.254 43.8904 227.781 43.9742 228.226 44.2355C228.671 44.4968 229.001 44.9163 229.15 45.4102C229.219 45.6698 229.234 45.9408 229.194 46.2064C229.154 46.4721 229.061 46.7268 228.919 46.9552C228.778 47.1835 228.591 47.3806 228.371 47.5344C228.151 47.6882 227.902 47.7954 227.639 47.8496L227.299 47.9175C227.249 47.9266 227.201 47.9471 227.16 47.9775C227.119 48.008 227.085 48.0475 227.061 48.093C227.04 48.1392 227.03 48.1894 227.03 48.2402C227.03 48.2909 227.04 48.3411 227.061 48.3873L227.293 48.9873C227.371 49.1817 227.379 49.3972 227.315 49.5966C227.251 49.796 227.119 49.9669 226.943 50.0797C226.803 50.1656 226.686 50.2822 226.598 50.4205C226.511 50.5588 226.457 50.7151 226.439 50.8777C226.422 51.0643 226.347 51.2408 226.224 51.3821C226.101 51.5234 225.936 51.6222 225.754 51.6645L225.488 51.7211C225.304 51.7551 225.113 51.7296 224.944 51.6482C224.775 51.5668 224.637 51.4337 224.548 51.2683C224.431 51.0708 224.255 50.915 224.044 50.8225C223.834 50.7299 223.6 50.7053 223.375 50.752C223.15 50.7988 222.946 50.9145 222.79 51.0832C222.634 51.2518 222.534 51.4649 222.505 51.6928C222.489 51.8781 222.415 52.0537 222.293 52.1941C222.171 52.3345 222.007 52.4325 221.826 52.4738L221.56 52.5304C221.376 52.5636 221.185 52.5377 221.017 52.4564C220.848 52.3751 220.709 52.2425 220.62 52.0776C220.536 51.9373 220.421 51.817 220.285 51.7251C220.15 51.6333 219.995 51.572 219.834 51.5456C219.616 51.5194 219.415 51.4147 219.269 51.2511C219.124 51.0874 219.042 50.8762 219.041 50.657V50.0117C219.039 49.9613 219.026 49.9119 219.003 49.867C218.979 49.822 218.947 49.7826 218.907 49.7515C218.867 49.7203 218.821 49.6981 218.772 49.6864C218.723 49.6746 218.672 49.6736 218.622 49.6835L214.44 50.5438C214.269 51.7026 213.746 52.7807 212.94 53.6314C212.135 54.4821 211.088 55.0641 209.94 55.2982C209.554 55.377 209.162 55.4168 208.768 55.417ZM207.636 44.663C206.353 44.9629 205.23 45.738 204.495 46.8324C203.76 47.9267 203.467 49.2589 203.674 50.5608C203.897 51.7719 204.546 52.8634 205.503 53.6378C206.461 54.4122 207.664 54.8184 208.895 54.7828C210.125 54.7473 211.303 54.2724 212.214 53.444C213.125 52.6156 213.71 51.4884 213.862 50.2664V50.0627L218.475 49.1288C218.608 49.0968 218.745 49.0946 218.879 49.1225C219.012 49.1504 219.137 49.2076 219.246 49.29C219.354 49.3723 219.443 49.4778 219.505 49.5988C219.568 49.7197 219.603 49.853 219.607 49.9891V50.6343C219.608 50.7112 219.636 50.7852 219.686 50.844C219.735 50.9027 219.803 50.9426 219.879 50.957C220.126 50.9924 220.362 51.0837 220.569 51.2239C220.776 51.3642 220.949 51.5496 221.073 51.7663C221.103 51.8274 221.151 51.8777 221.211 51.9101C221.271 51.9426 221.34 51.9556 221.407 51.9475L221.667 51.8909C221.733 51.8739 221.792 51.8361 221.835 51.7831C221.878 51.73 221.902 51.6646 221.905 51.5965C221.941 51.2442 222.088 50.9123 222.324 50.6489C222.561 50.3854 222.875 50.204 223.222 50.131C223.568 50.0579 223.929 50.0969 224.252 50.2423C224.575 50.3877 224.843 50.632 225.018 50.94C225.047 51.0006 225.094 51.0506 225.153 51.0831C225.212 51.1156 225.28 51.1289 225.346 51.1211L225.618 51.0645C225.683 51.0465 225.741 51.0082 225.782 50.9553C225.824 50.9024 225.848 50.8375 225.85 50.7702C225.878 50.5217 225.963 50.2829 226.097 50.0719C226.231 49.861 226.412 49.6836 226.626 49.5533C226.688 49.5083 226.734 49.4438 226.755 49.3699C226.777 49.2961 226.773 49.2172 226.744 49.1458L226.512 48.5458C226.464 48.4221 226.444 48.2894 226.453 48.157C226.461 48.0247 226.499 47.8958 226.562 47.7793C226.626 47.6629 226.714 47.5618 226.821 47.483C226.928 47.4042 227.05 47.3497 227.18 47.3232L227.526 47.2497C227.712 47.2098 227.889 47.1327 228.046 47.0229C228.202 46.9131 228.335 46.7729 228.436 46.6107C228.536 46.4485 228.604 46.2676 228.633 46.0788C228.662 45.89 228.653 45.6973 228.607 45.512C228.496 45.1558 228.255 44.8546 227.932 44.6688C227.608 44.483 227.227 44.4263 226.863 44.5102L213.381 47.3119L213.279 47.1365C212.738 46.1721 211.897 45.4103 210.884 44.9662C209.871 44.522 208.741 44.4196 207.665 44.6744L207.636 44.663ZM208.768 53.3115C208.065 53.3193 207.375 53.1227 206.782 52.7455C206.08 52.2847 205.559 51.5948 205.309 50.7933C205.059 49.9918 205.095 49.1284 205.41 48.3502C205.726 47.5721 206.301 46.9274 207.038 46.526C207.776 46.1246 208.63 45.9915 209.454 46.1492C210.279 46.3069 211.023 46.7458 211.561 47.391C212.098 48.0361 212.395 48.8477 212.401 49.6873C212.407 50.5269 212.121 51.3425 211.593 51.9951C211.065 52.6478 210.326 53.097 209.504 53.2662C209.263 53.3098 209.019 53.3288 208.774 53.3228L208.768 53.3115ZM208.768 46.6271C208.557 46.6283 208.347 46.6491 208.14 46.6893C207.746 46.7733 207.372 46.9341 207.04 47.1626C206.708 47.3911 206.424 47.6828 206.204 48.021C205.985 48.3592 205.834 48.7373 205.761 49.1338C205.687 49.5302 205.693 49.9372 205.777 50.3315C205.861 50.7258 206.022 51.0997 206.25 51.4319C206.479 51.764 206.77 52.0479 207.109 52.2674C207.447 52.4868 207.825 52.6375 208.221 52.7108C208.618 52.7841 209.025 52.7786 209.419 52.6946C210.011 52.5713 210.553 52.2756 210.977 51.8447C211.402 51.4138 211.689 50.8669 211.802 50.2731C211.916 49.6793 211.852 49.0651 211.617 48.5079C211.382 47.9507 210.988 47.4755 210.483 47.1421C209.982 46.8089 209.393 46.6334 208.791 46.6384L208.768 46.6271Z" fill="white"/>
<path opacity="0.6" d="M199.515 69.5161C203.223 69.5161 206.228 67.6003 206.228 65.2371C206.228 62.8739 203.223 60.9581 199.515 60.9581C195.808 60.9581 192.803 62.8739 192.803 65.2371C192.803 67.6003 195.808 69.5161 199.515 69.5161Z" fill="#65C17E"/>
<path opacity="0.3" d="M188.835 71.2707C190.357 71.2707 191.591 70.4851 191.591 69.5161C191.591 68.547 190.357 67.7615 188.835 67.7615C187.312 67.7615 186.078 68.547 186.078 69.5161C186.078 70.4851 187.312 71.2707 188.835 71.2707Z" fill="#65C17E"/>
</svg>
