<svg width="500" height="500" viewBox="0 0 500 500" fill="none" xmlns="http://www.w3.org/2000/svg">
<path d="M181.3 206.75C194.46 160.33 155.77 103.52 191.82 62.8002C220.54 30.3602 287.22 32.5202 319.24 55.5302C337.67 68.7802 350.01 89.3602 369.58 102.63C390.58 116.85 418.65 114.63 436.41 137.48C460.41 168.25 446.92 225.48 414.3 250.02C389.53 268.63 368.82 267.78 342.46 276.28C304.14 288.64 287.74 303.28 254.06 322.5C206.84 349.5 143.2 366.85 90.56 335.8C61.74 318.8 34.12 273.8 77.68 251.38C114.36 232.49 161.56 276.35 181.3 206.75Z" fill="white"/>
<path d="M249.999 427.56C357.082 427.56 443.889 422.492 443.889 416.24C443.889 409.988 357.082 404.92 249.999 404.92C142.917 404.92 56.1094 409.988 56.1094 416.24C56.1094 422.492 142.917 427.56 249.999 427.56Z" fill="#C8D4FF"/>
<path d="M351.939 189.79L352.469 190.24L353.099 190.74C353.519 191.08 353.969 191.42 354.409 191.74C355.309 192.39 356.229 193.03 357.189 193.61C359.092 194.814 361.073 195.89 363.119 196.83C365.176 197.753 367.283 198.561 369.429 199.25C370.519 199.54 371.589 199.9 372.699 200.12L374.359 200.48H374.559C374.559 200.48 374.559 200.48 374.509 200.48C374.459 200.48 374.409 200.59 374.509 200.48C374.714 200.261 374.876 200.007 374.989 199.73C375.376 198.848 375.648 197.921 375.799 196.97C376.155 194.737 376.339 192.481 376.349 190.22C376.349 187.89 376.349 185.52 376.209 183.15C376.069 180.78 375.919 178.37 375.719 176.02L379.219 175.39C380.43 180.202 381.246 185.105 381.659 190.05C381.894 192.625 381.894 195.215 381.659 197.79C381.521 199.246 381.205 200.68 380.719 202.06C380.408 202.919 379.966 203.725 379.409 204.45C378.685 205.407 377.699 206.134 376.569 206.54C375.705 206.848 374.783 206.964 373.869 206.88L373.459 206.83H373.219L371.309 206.52C370.029 206.33 368.779 205.99 367.509 205.72C365.004 205.082 362.551 204.257 360.169 203.25C357.786 202.237 355.479 201.051 353.269 199.7C352.159 199.03 351.089 198.29 350.029 197.52C349.499 197.13 348.979 196.73 348.459 196.31C348.199 196.1 347.949 195.88 347.689 195.65C347.429 195.42 347.199 195.22 346.859 194.9L351.939 189.79Z" fill="#EF9E96"/>
<path d="M341.909 185.59C352.039 184.21 360.219 192.4 360.219 192.4L352.659 205.26C352.659 205.26 340.999 200.35 339.239 196C337.419 191.5 336.709 186.29 341.909 185.59Z" fill="#32cd71"/>
<path opacity="0.3" d="M341.909 185.59C352.039 184.21 360.219 192.4 360.219 192.4L352.659 205.26C352.659 205.26 340.999 200.35 339.239 196C337.419 191.5 336.709 186.29 341.909 185.59Z" fill="black"/>
<path d="M376.669 177.91L371.119 172.79L379.349 169.58C379.349 169.58 381.959 173.98 379.849 178.38L376.669 177.91Z" fill="#EF9E96"/>
<path d="M370 165.45L376.55 164.2L379.35 169.58L371.12 172.79L370 165.45Z" fill="#EF9E96"/>
<path d="M306 408.57L314.16 409.37L322.66 389.94L314.5 389.14L306 408.57Z" fill="#EF9E96"/>
<path d="M253.43 379.85L259.56 385.61L272.79 371.06L266.66 365.31L253.43 379.85Z" fill="#EF9E96"/>
<path d="M262.389 382.85L257.779 374.55C257.702 374.406 257.576 374.295 257.423 374.238C257.27 374.181 257.102 374.182 256.949 374.24L249.859 376.94C249.683 377.013 249.524 377.123 249.393 377.262C249.262 377.401 249.162 377.566 249.099 377.746C249.037 377.927 249.014 378.119 249.031 378.309C249.048 378.499 249.105 378.684 249.199 378.85C250.859 381.72 251.799 383.02 253.819 386.67C255.069 388.91 257.499 394.06 259.219 397.16C260.939 400.26 264.099 398.73 263.659 397.28C261.659 390.8 262.059 387.19 262.659 384.33C262.744 383.82 262.649 383.297 262.389 382.85Z" fill="#263238"/>
<path d="M315.25 406.85H305.25C305.07 406.853 304.896 406.913 304.753 407.023C304.611 407.133 304.508 407.287 304.46 407.46L302.28 415.39C302.227 415.578 302.218 415.775 302.255 415.967C302.292 416.159 302.374 416.339 302.494 416.493C302.614 416.647 302.768 416.77 302.945 416.853C303.121 416.936 303.315 416.976 303.51 416.97C307.04 416.97 308.71 416.97 313.12 416.97H326.59C330.26 416.97 331.02 413.27 329.51 412.97C322.71 411.47 318.79 409.39 316.7 407.42C316.31 407.048 315.789 406.843 315.25 406.85Z" fill="#263238"/>
<path d="M322.65 389.95L318.28 399.96H309.76L314.49 389.15L322.65 389.95Z" fill="#A76A66"/>
<path d="M266.65 365.31L272.79 371.07L265.96 378.56L259.83 372.8L266.65 365.31Z" fill="#A76A66"/>
<path d="M350.58 186.53C350.58 186.53 354.24 188.15 341.94 236.85L307.75 233.85C309.53 219.98 310.29 211.4 306.1 182.27C310.974 181.701 315.884 181.484 320.79 181.62C325.989 181.709 331.176 182.17 336.31 183C341.122 183.937 345.885 185.115 350.58 186.53V186.53Z" fill="#32cd71"/>
<path opacity="0.3" d="M350.58 186.53C350.58 186.53 354.24 188.15 341.94 236.85L307.75 233.85C309.53 219.98 310.29 211.4 306.1 182.27C310.974 181.701 315.884 181.484 320.79 181.62C325.989 181.709 331.176 182.17 336.31 183C341.122 183.937 345.885 185.115 350.58 186.53V186.53Z" fill="black"/>
<path d="M320.79 181.66C320.79 181.66 318.85 181.45 316.56 181.45C315.18 183.58 319.37 191.67 326.77 197.75C328.428 194.953 330.532 192.447 333 190.33L320.79 181.66Z" fill="#FAFAFA"/>
<path d="M336.31 183C337.299 183.062 338.28 183.22 339.24 183.47C340.62 185.6 343.29 193.13 339.24 197.75C337.582 194.953 335.478 192.447 333.01 190.33L336.31 183Z" fill="#FAFAFA"/>
<path d="M334.109 195.75C334.109 196.36 333.939 196.86 333.649 196.88C333.359 196.9 333.109 196.41 333.069 195.81C333.029 195.21 333.239 194.69 333.529 194.68C333.819 194.67 334.079 195.14 334.109 195.75Z" fill="#FAFAFA"/>
<path d="M333.999 200.38C333.999 200.98 333.739 201.47 333.449 201.47C333.159 201.47 332.949 200.96 332.959 200.35C332.969 199.74 333.219 199.26 333.509 199.26C333.799 199.26 334.049 199.77 333.999 200.38Z" fill="#FAFAFA"/>
<path d="M323.84 164.31C324.39 169.39 324.57 178.63 320.84 181.66C324.5 185.065 328.588 187.979 333 190.33C338.94 186.23 336.31 183 336.31 183C330.86 181.19 331.36 177.07 332.66 173.27L323.84 164.31Z" fill="#EF9E96"/>
<path d="M327.44 168L332.66 173.3C332.344 174.182 332.103 175.088 331.94 176.01C329.84 175.52 326.8 173.34 326.77 171.09C326.804 170.028 327.031 168.981 327.44 168V168Z" fill="#A76A66"/>
<path d="M333.818 149.26C333.818 149.26 339.358 154.7 340.578 157.35C343.938 158.6 343.028 149.75 340.478 144.63C335.998 148.62 333.818 149.26 333.818 149.26Z" fill="#263238"/>
<path d="M319.37 156.37C321.49 164.49 322.21 167.97 327.19 171.37C334.67 176.48 344.19 172.1 344.52 163.52C344.84 155.79 341.32 143.82 332.64 142.14C330.728 141.757 328.749 141.869 326.893 142.466C325.036 143.063 323.364 144.125 322.034 145.552C320.704 146.978 319.761 148.721 319.294 150.614C318.828 152.508 318.854 154.489 319.37 156.37V156.37Z" fill="#EF9E96"/>
<path d="M337.778 146C341.498 146.55 345.208 143.07 339.188 139.34C341.118 139.14 343.188 132.34 336.188 132.71C335.848 129.48 328.918 126.6 325.188 131.71C320.878 128.87 314.758 131.77 316.128 136.18C311.178 136.49 308.598 143.25 312.688 144.35C307.768 147.35 306.908 152.2 311.688 153.08C312.348 158.69 323.338 156.18 322.488 150.96C324.488 152.03 330.768 149.73 329.488 146.96C331.518 149.57 337.778 148.38 337.778 146Z" fill="#263238"/>
<path d="M315 153.14C315 153.14 319.08 159.74 319.62 162.61C322.62 164.61 323.83 155.82 322.62 150.24C317.25 153 315 153.14 315 153.14Z" fill="#263238"/>
<path d="M318.7 163.7C319.458 165.135 320.752 166.213 322.3 166.7C324.36 167.31 325.43 165.48 324.9 163.52C324.41 161.75 322.76 159.3 320.68 159.52C320.224 159.582 319.792 159.756 319.421 160.028C319.05 160.299 318.753 160.658 318.557 161.074C318.36 161.489 318.27 161.946 318.295 162.405C318.32 162.864 318.459 163.309 318.7 163.7V163.7Z" fill="#EF9E96"/>
<path d="M341.939 236.85C341.939 236.85 353.509 288.02 345.779 324.09C340.609 348.25 321.959 397.09 321.959 397.09L307.379 396.71C307.379 396.71 321.499 345.49 324.379 325.35C329.379 290.89 316.859 234.71 316.859 234.71L341.939 236.85Z" fill="#DBE3FE"/>
<path d="M328.599 247.18L321.309 258.68C323.504 272.317 324.896 286.07 325.479 299.87C335.729 281.51 330.879 256.9 328.599 247.18Z" fill="#C4D1FF"/>
<path d="M324.02 397.81L306 397.36L307.05 391.82L326.71 392.75L324.02 397.81Z" fill="#C8D4FF"/>
<path opacity="0.3" d="M324.02 397.81L306 397.36L307.05 391.82L326.71 392.75L324.02 397.81Z" fill="black"/>
<path d="M334.459 236.3C334.459 236.3 327.679 290.57 312.969 320.19C301.089 344.12 269.379 378.19 269.379 378.19L261.279 369.84C261.279 369.84 282.689 332.84 291.519 316.92C313.169 277.92 295.519 248.2 307.749 233.92L334.459 236.3Z" fill="#DBE3FE"/>
<path d="M270.198 379.3L259.738 369.11L263.208 364.38L274.608 376.17L270.198 379.3Z" fill="#32cd71"/>
<path d="M270.198 379.3L259.738 369.11L263.208 364.38L274.608 376.17L270.198 379.3Z" fill="#8C94B3"/>
<path d="M307.41 231.84L305.6 234.76C305.46 234.99 305.73 235.26 306.12 235.29L341.97 238.39C342.28 238.39 342.55 238.29 342.59 238.1L343.16 235.1C343.16 234.89 342.95 234.68 342.61 234.65L307.99 231.65C307.885 231.63 307.777 231.637 307.675 231.67C307.574 231.703 307.483 231.762 307.41 231.84V231.84Z" fill="#263238"/>
<path d="M311.73 236.11L310.8 236.03C310.61 236.03 310.48 235.91 310.5 235.79L311.28 231.85C311.28 231.74 311.48 231.66 311.66 231.67L312.59 231.75C312.77 231.75 312.9 231.88 312.88 231.99L312.1 235.93C312.08 236.05 311.91 236.13 311.73 236.11Z" fill="#32cd71"/>
<path opacity="0.6" d="M311.73 236.11L310.8 236.03C310.61 236.03 310.48 235.91 310.5 235.79L311.28 231.85C311.28 231.74 311.48 231.66 311.66 231.67L312.59 231.75C312.77 231.75 312.9 231.88 312.88 231.99L312.1 235.93C312.08 236.05 311.91 236.13 311.73 236.11Z" fill="#FAFAFA"/>
<path d="M339.339 238.5L338.409 238.42C338.229 238.42 338.099 238.3 338.119 238.18L338.899 234.24C338.899 234.13 339.089 234.05 339.269 234.06L340.199 234.14C340.389 234.14 340.519 234.27 340.499 234.38L339.719 238.32C339.684 238.387 339.628 238.441 339.559 238.473C339.491 238.506 339.414 238.515 339.339 238.5Z" fill="#32cd71"/>
<path opacity="0.6" d="M339.339 238.5L338.409 238.42C338.229 238.42 338.099 238.3 338.119 238.18L338.899 234.24C338.899 234.13 339.089 234.05 339.269 234.06L340.199 234.14C340.389 234.14 340.519 234.27 340.499 234.38L339.719 238.32C339.684 238.387 339.628 238.441 339.559 238.473C339.491 238.506 339.414 238.515 339.339 238.5Z" fill="#FAFAFA"/>
<path d="M325.529 237.31L324.609 237.23C324.419 237.23 324.289 237.1 324.309 236.99L325.089 233.05C325.089 232.93 325.279 232.85 325.469 232.87L326.389 232.95C326.579 232.95 326.709 233.07 326.689 233.19L325.909 237.12C325.889 237.24 325.719 237.32 325.529 237.31Z" fill="#32cd71"/>
<path opacity="0.6" d="M325.529 237.31L324.609 237.23C324.419 237.23 324.289 237.1 324.309 236.99L325.089 233.05C325.089 232.93 325.279 232.85 325.469 232.87L326.389 232.95C326.579 232.95 326.709 233.07 326.689 233.19L325.909 237.12C325.889 237.24 325.719 237.32 325.529 237.31Z" fill="#FAFAFA"/>
<path d="M332.279 156.22C332.409 156.89 332.869 157.36 333.279 157.27C333.689 157.18 333.959 156.58 333.829 155.91C333.699 155.24 333.239 154.77 332.829 154.85C332.419 154.93 332.149 155.55 332.279 156.22Z" fill="#263238"/>
<path d="M339.839 154.73C339.969 155.4 340.429 155.87 340.839 155.79C341.249 155.71 341.519 155.09 341.389 154.42C341.259 153.75 340.799 153.28 340.389 153.42C339.979 153.56 339.699 154.06 339.839 154.73Z" fill="#263238"/>
<path d="M340.199 153.44L341.719 152.66C341.719 152.66 341.139 154.08 340.199 153.44Z" fill="#263238"/>
<path d="M338.059 156.28C338.958 157.685 340.045 158.96 341.289 160.07C340.995 160.382 340.637 160.625 340.24 160.784C339.843 160.943 339.416 161.014 338.989 160.99L338.059 156.28Z" fill="#B75D5B"/>
<path d="M335.899 164.18C334.491 164.198 333.128 163.68 332.089 162.73C332.059 162.697 332.043 162.654 332.043 162.61C332.043 162.566 332.059 162.523 332.089 162.49C332.121 162.458 332.164 162.44 332.209 162.44C332.254 162.44 332.297 162.458 332.329 162.49C332.97 163.051 333.733 163.455 334.558 163.669C335.383 163.882 336.246 163.9 337.079 163.72C337.123 163.711 337.168 163.72 337.205 163.744C337.243 163.768 337.269 163.806 337.279 163.85C337.283 163.871 337.283 163.893 337.279 163.914C337.275 163.935 337.266 163.955 337.254 163.973C337.242 163.99 337.226 164.005 337.208 164.017C337.19 164.029 337.17 164.036 337.149 164.04C336.738 164.129 336.319 164.175 335.899 164.18V164.18Z" fill="#263238"/>
<path d="M328.56 152C328.504 152.013 328.446 152.013 328.39 152C328.315 151.953 328.262 151.878 328.242 151.793C328.221 151.707 328.235 151.616 328.28 151.54C328.587 150.998 329.019 150.538 329.542 150.199C330.064 149.859 330.66 149.651 331.28 149.59C331.367 149.59 331.45 149.623 331.513 149.683C331.577 149.742 331.615 149.824 331.62 149.91C331.621 149.954 331.614 149.997 331.599 150.037C331.583 150.078 331.56 150.115 331.53 150.147C331.501 150.178 331.465 150.204 331.425 150.221C331.386 150.239 331.343 150.249 331.3 150.25C330.789 150.309 330.299 150.487 329.87 150.77C329.441 151.053 329.084 151.434 328.83 151.88C328.798 151.921 328.757 151.952 328.71 151.973C328.663 151.994 328.611 152.004 328.56 152Z" fill="#263238"/>
<path d="M342.759 150.82C342.707 150.834 342.652 150.834 342.599 150.82C342.152 150.549 341.645 150.389 341.123 150.356C340.6 150.323 340.077 150.417 339.599 150.63C339.521 150.67 339.43 150.677 339.346 150.651C339.262 150.625 339.192 150.567 339.149 150.49C339.11 150.412 339.103 150.321 339.129 150.237C339.155 150.153 339.212 150.083 339.289 150.04C339.858 149.783 340.48 149.667 341.104 149.702C341.727 149.737 342.333 149.921 342.869 150.24C342.907 150.261 342.941 150.289 342.968 150.323C342.996 150.357 343.016 150.396 343.028 150.438C343.04 150.48 343.044 150.524 343.039 150.567C343.034 150.61 343.02 150.652 342.999 150.69C342.971 150.728 342.935 150.76 342.894 150.782C342.852 150.805 342.806 150.818 342.759 150.82Z" fill="#263238"/>
<path d="M308.7 194.55C307.31 197.323 305.768 200.018 304.08 202.62C302.4 205.2 300.62 207.7 298.71 210.13C296.776 212.555 294.699 214.863 292.49 217.04C291.36 218.12 290.23 219.2 289.01 220.2L288.11 220.97C287.688 221.317 287.24 221.631 286.77 221.91C285.617 222.59 284.298 222.936 282.96 222.91C281.599 222.853 280.286 222.39 279.19 221.58C278.342 220.964 277.594 220.222 276.97 219.38C275.949 217.983 275.1 216.469 274.44 214.87C273.247 211.98 272.307 208.992 271.63 205.94C270.299 200.035 269.42 194.038 269 188L272.53 187.56C273.1 190.4 273.71 193.3 274.42 196.14C275.13 198.98 275.85 201.81 276.72 204.55C277.53 207.245 278.533 209.879 279.72 212.43C280.261 213.555 280.932 214.612 281.72 215.58C282.008 215.919 282.345 216.212 282.72 216.45C283 216.61 283.09 216.58 283.1 216.56C283.244 216.517 283.379 216.449 283.5 216.36C283.63 216.27 283.79 216.14 283.96 216L284.72 215.28C285.72 214.35 286.72 213.33 287.72 212.28C289.64 210.21 291.42 207.99 293.16 205.74C294.9 203.49 296.49 201.09 298.01 198.66C298.78 197.46 299.52 196.23 300.25 194.99C300.98 193.75 301.67 192.47 302.25 191.31L308.7 194.55Z" fill="#EF9E96"/>
<path d="M274.099 188.79L273.209 181.3L265.789 186.08C265.789 186.08 268.219 190.08 271.579 191.16L274.099 188.79Z" fill="#EF9E96"/>
<path d="M270.459 178.26L265.609 182.84L265.789 186.08L273.209 181.3L270.459 178.26Z" fill="#EF9E96"/>
<path d="M306.099 182.31C301.909 183.06 296.039 195.08 296.039 195.08L306.609 204.63C306.609 204.63 315.009 195.47 314.559 190.01C314.179 185.37 311.439 181.37 306.099 182.31Z" fill="#32cd71"/>
<path opacity="0.3" d="M306.099 182.31C301.909 183.06 296.039 195.08 296.039 195.08L306.609 204.63C306.609 204.63 315.009 195.47 314.559 190.01C314.179 185.37 311.439 181.37 306.099 182.31Z" fill="black"/>
<path d="M263.999 387.31C263.889 387.31 263.781 387.29 263.679 387.25C262.679 386.92 262.019 385.06 261.679 383.98C261.673 383.949 261.676 383.917 261.686 383.887C261.697 383.857 261.715 383.831 261.739 383.81C261.766 383.793 261.797 383.784 261.829 383.784C261.861 383.784 261.892 383.793 261.919 383.81C262.229 383.97 264.919 385.4 264.989 386.46C264.999 386.574 264.979 386.69 264.93 386.793C264.881 386.897 264.804 386.986 264.709 387.05C264.506 387.211 264.257 387.302 263.999 387.31V387.31ZM262.149 384.31C262.609 385.79 263.209 386.78 263.779 386.97C263.91 387.007 264.048 387.011 264.18 386.981C264.313 386.951 264.436 386.889 264.539 386.8C264.589 386.769 264.63 386.724 264.656 386.671C264.683 386.618 264.694 386.559 264.689 386.5C264.639 385.82 263.069 384.8 262.149 384.28V384.31Z" fill="#32cd71"/>
<path d="M264.419 384.7C263.507 384.696 262.607 384.484 261.789 384.08C261.764 384.066 261.744 384.046 261.73 384.021C261.716 383.996 261.709 383.969 261.709 383.94C261.709 383.911 261.716 383.881 261.73 383.855C261.744 383.829 261.764 383.807 261.789 383.79C261.879 383.74 263.999 382.58 265.139 382.98C265.282 383.026 265.414 383.104 265.523 383.208C265.632 383.312 265.716 383.439 265.769 383.58C265.839 383.714 265.862 383.867 265.834 384.016C265.807 384.164 265.731 384.3 265.619 384.4C265.261 384.625 264.841 384.73 264.419 384.7ZM262.239 383.94C263.149 384.33 264.909 384.57 265.399 384.14C265.479 384.07 265.569 383.96 265.459 383.7C265.423 383.605 265.366 383.519 265.291 383.45C265.216 383.38 265.127 383.329 265.029 383.3C264.259 383 262.839 383.64 262.239 383.94Z" fill="#32cd71"/>
<path d="M319.699 408.47C318.776 408.448 317.858 408.331 316.959 408.12C316.925 408.114 316.894 408.097 316.871 408.072C316.848 408.047 316.833 408.015 316.829 407.98C316.825 407.946 316.832 407.912 316.848 407.881C316.864 407.851 316.889 407.826 316.919 407.81C317.339 407.61 320.979 405.94 321.919 406.55C322.002 406.608 322.067 406.687 322.109 406.778C322.151 406.869 322.169 406.97 322.159 407.07C322.152 407.254 322.103 407.434 322.016 407.597C321.93 407.76 321.808 407.901 321.659 408.01C321.07 408.363 320.385 408.524 319.699 408.47V408.47ZM317.529 407.9C318.609 408.1 320.609 408.36 321.429 407.74C321.54 407.662 321.63 407.559 321.693 407.439C321.755 407.319 321.789 407.186 321.789 407.05C321.789 406.91 321.789 406.86 321.699 406.83C321.189 406.48 318.999 407.23 317.529 407.9V407.9Z" fill="#32cd71"/>
<path d="M316.999 408.13C316.963 408.14 316.925 408.14 316.889 408.13C316.865 408.109 316.847 408.083 316.836 408.053C316.826 408.023 316.823 407.991 316.829 407.96C316.829 407.81 317.719 404.21 319.669 404.45C320.159 404.51 320.299 404.76 320.319 404.95C320.449 405.87 318.149 407.71 317.059 408.15L316.999 408.13ZM319.489 404.73C318.229 404.73 317.489 406.82 317.249 407.66C318.429 407.04 320.069 405.54 319.989 404.96C319.989 404.96 319.989 404.78 319.629 404.74L319.489 404.73Z" fill="#32cd71"/>
<path d="M332.648 154.93L334.158 154.15C334.158 154.15 333.578 155.57 332.648 154.93Z" fill="#263238"/>
<path d="M123.53 157C132.395 148.109 142.93 141.059 154.53 136.254C166.129 131.448 178.564 128.983 191.12 129H204.65C204.65 129 268.48 145.71 268.48 214.09C268.48 280.93 224.29 340.09 204.66 359.75H191.14L123.53 292.14C105.619 274.214 95.5586 249.91 95.5586 224.57C95.5586 199.23 105.619 174.926 123.53 157V157ZM191.13 269C199.908 269 208.489 266.397 215.787 261.52C223.086 256.643 228.774 249.711 232.133 241.601C235.491 233.491 236.37 224.567 234.656 215.958C232.943 207.349 228.715 199.441 222.508 193.235C216.3 187.029 208.391 182.803 199.782 181.092C191.172 179.38 182.249 180.261 174.139 183.621C166.03 186.982 159.1 192.672 154.224 199.971C149.349 207.271 146.748 215.852 146.75 224.63C146.774 236.385 151.46 247.65 159.78 255.953C168.1 264.257 179.375 268.92 191.13 268.92V269Z" fill="#92DEA7"/>
<path d="M274 155.19C270.043 151.236 265.761 147.62 261.2 144.38L261.77 143.56C266.382 146.835 270.711 150.491 274.71 154.49L274 155.19ZM255.22 140.47C252.87 139.05 250.43 137.71 247.98 136.47L248.42 135.57C250.9 136.8 253.36 138.15 255.74 139.57L255.22 140.47Z" fill="#32cd71"/>
<path d="M137.05 157C155.086 139.636 179.214 130.04 204.248 130.276C229.283 130.511 253.226 140.559 270.932 158.259C288.637 175.959 298.692 199.9 298.935 224.934C299.178 249.969 289.589 274.099 272.23 292.14L204.66 359.72L137.05 292.11C119.144 274.188 109.086 249.89 109.086 224.555C109.086 199.22 119.144 174.922 137.05 157V157ZM204.65 269C213.428 269 222.009 266.397 229.308 261.52C236.606 256.643 242.294 249.711 245.653 241.601C249.012 233.491 249.89 224.567 248.177 215.958C246.464 207.349 242.236 199.441 236.028 193.235C229.821 187.029 221.912 182.803 213.302 181.091C204.693 179.38 195.769 180.261 187.66 183.621C179.551 186.982 172.62 192.671 167.745 199.971C162.87 207.271 160.268 215.852 160.27 224.63C160.294 236.385 164.981 247.65 173.301 255.953C181.621 264.257 192.896 268.92 204.65 268.92V269Z" fill="#62C07B"/>
<g style="mix-blend-mode:color-dodge" opacity="0.4">
<path d="M204.66 354.31C204.626 354.31 204.593 354.302 204.562 354.289C204.531 354.275 204.503 354.255 204.48 354.23L139.7 289.46C126.863 276.617 118.122 260.257 114.582 242.446C111.042 224.636 112.863 206.176 119.813 189.4C126.764 172.625 138.533 158.286 153.632 148.199C168.731 138.111 186.482 132.727 204.64 132.727C222.799 132.727 240.55 138.111 255.649 148.199C270.748 158.286 282.517 172.625 289.467 189.4C296.418 206.176 298.239 224.636 294.699 242.446C291.159 260.257 282.418 276.617 269.58 289.46L204.83 354.2C204.812 354.23 204.788 354.256 204.758 354.275C204.729 354.294 204.695 354.306 204.66 354.31V354.31ZM204.66 133.22C186.601 133.223 168.947 138.581 153.933 148.616C138.918 158.652 127.215 172.914 120.305 189.599C113.395 206.284 111.588 224.644 115.111 242.357C118.635 260.069 127.331 276.339 140.1 289.11L204.7 353.7L269.27 289.14L269.44 289.31L269.27 289.14C282.039 276.362 290.732 260.086 294.251 242.369C297.771 224.651 295.958 206.288 289.043 189.6C282.128 172.912 270.421 158.649 255.401 148.614C240.382 138.579 222.724 133.222 204.66 133.22V133.22ZM204.66 273.22C195.042 273.22 185.639 270.368 177.642 265.024C169.645 259.68 163.412 252.084 159.731 243.198C156.051 234.311 155.088 224.533 156.965 215.099C158.843 205.666 163.475 197.001 170.277 190.2C177.079 183.399 185.745 178.769 195.179 176.893C204.613 175.018 214.391 175.983 223.277 179.665C232.163 183.347 239.757 189.582 245.1 197.58C250.442 205.579 253.292 214.982 253.29 224.6C253.261 237.485 248.125 249.833 239.008 258.937C229.89 268.041 217.535 273.16 204.65 273.17L204.66 273.22ZM204.66 176.47C195.141 176.47 185.836 179.293 177.921 184.582C170.006 189.87 163.837 197.387 160.194 206.182C156.551 214.976 155.598 224.654 157.455 233.99C159.312 243.326 163.896 251.902 170.627 258.633C177.358 265.364 185.934 269.948 195.271 271.805C204.607 273.662 214.284 272.709 223.079 269.066C231.874 265.424 239.39 259.255 244.679 251.34C249.968 243.425 252.79 234.119 252.79 224.6C252.79 211.829 247.72 199.58 238.693 190.546C229.666 181.512 217.422 176.431 204.65 176.42L204.66 176.47Z" fill="#FAFAFA"/>
</g>
</svg>
