<svg width="460" height="460" viewBox="0 0 460 460" fill="none" xmlns="http://www.w3.org/2000/svg">
<path d="M381.616 308.761H405.977V298.466H381.616V308.761Z" fill="#EBEBEB"/>
<path d="M395.204 321.743H419.566V311.448H395.204V321.743Z" fill="#EBEBEB"/>
<path d="M368.018 321.743H392.38V311.448H368.018V321.743Z" fill="#EBEBEB"/>
<path d="M54.0222 321.743H78.3838V311.448H54.0222V321.743Z" fill="#EBEBEB"/>
<path d="M263.313 113.003H238.952V123.298H263.313V113.003Z" fill="#EBEBEB"/>
<path d="M249.725 100.022H225.363V110.317H249.725V100.022Z" fill="#EBEBEB"/>
<path d="M33.7729 377.117L82.8274 376.896L131.882 376.814L230 376.657L328.109 376.814L377.172 376.896L426.227 377.117L377.172 377.338L328.109 377.421L230 377.577L131.882 377.421L82.8274 377.338L33.7729 377.117Z" fill="#263238"/>
<path d="M149.196 433.863C212.943 433.863 264.619 425.835 264.619 415.932C264.619 406.029 212.943 398.001 149.196 398.001C85.4497 398.001 33.7729 406.029 33.7729 415.932C33.7729 425.835 85.4497 433.863 149.196 433.863Z" fill="#EBEBEB"/>
<path d="M377.816 427.469C402.815 427.469 423.08 422.303 423.08 415.932C423.08 409.56 402.815 404.395 377.816 404.395C352.818 404.395 332.552 409.56 332.552 415.932C332.552 422.303 352.818 427.469 377.816 427.469Z" fill="#EBEBEB"/>
<path d="M373.741 395.25H142.324L163.815 87.8599H395.241L373.741 395.25Z" fill="#65C17E"/>
<g opacity="0.1">
<path opacity="0.1" d="M373.741 395.25H142.324L163.815 87.8599H395.241L373.741 395.25Z" fill="black"/>
</g>
<path d="M368.074 395.25H136.648L158.148 87.8599H389.565L368.074 395.25Z" fill="#65C17E"/>
<path d="M357.54 377.053L153.079 379.656L168.912 102.736L373.382 100.133L357.54 377.053Z" fill="#EBEBEB"/>
<path d="M352.525 380.54L148.589 376.133L173.926 99.2588L377.862 103.656L352.525 380.54Z" fill="#DBDBDB"/>
<path d="M355.69 378.369H151.395L170.761 101.43H375.057L355.69 378.369Z" fill="white"/>
<path d="M213.366 188.775H192.97L194.396 168.378H214.792L213.366 188.775Z" fill="#EBEBEB"/>
<path d="M291.677 171.368H225.593L225.805 168.378H291.888L291.677 171.368Z" fill="#263238"/>
<path d="M341.449 177.164H225.188L225.4 174.174H341.651L341.449 177.164Z" fill="#EBEBEB"/>
<path d="M341.035 182.969H224.784L224.995 179.979H341.247L341.035 182.969Z" fill="#EBEBEB"/>
<path d="M340.63 188.775H224.379L224.591 185.785H340.842L340.63 188.775Z" fill="#EBEBEB"/>
<path d="M195.261 177.56C195.969 178.186 196.641 178.848 197.303 179.501C197.966 180.155 198.6 180.845 199.254 181.516C200.532 182.878 201.756 184.276 202.934 185.684L200.578 185.84C202.712 181.976 205.093 178.255 207.708 174.699C209.024 172.914 210.395 171.175 211.848 169.483C213.312 167.77 214.879 166.147 216.54 164.625C215.778 166.723 214.874 168.767 213.836 170.743C212.833 172.712 211.738 174.625 210.579 176.502C208.266 180.269 205.709 183.88 202.924 187.312L201.526 189.023L200.606 187.459C199.686 185.868 198.692 184.267 197.846 182.62C197.404 181.783 196.926 180.973 196.53 180.127C196.135 179.281 195.638 178.388 195.261 177.56Z" fill="#65C17E"/>
<path d="M210.698 226.909H190.302L191.728 206.513H212.124L210.698 226.909Z" fill="#EBEBEB"/>
<path d="M289.009 209.503H222.925L223.137 206.513H289.22L289.009 209.503Z" fill="#263238"/>
<path d="M338.781 215.308H222.521L222.732 212.318H338.983L338.781 215.308Z" fill="#EBEBEB"/>
<path d="M338.376 221.113H222.116L222.327 218.123H338.579L338.376 221.113Z" fill="#EBEBEB"/>
<path d="M337.971 226.909H221.711L221.923 223.928H338.174L337.971 226.909Z" fill="#EBEBEB"/>
<path d="M192.593 215.657C193.301 216.283 193.973 216.936 194.635 217.599C195.298 218.261 195.932 218.942 196.586 219.613C197.864 220.975 199.088 222.373 200.266 223.781L197.92 223.928C200.048 220.062 202.43 216.34 205.05 212.787C206.356 211.011 207.727 209.273 209.18 207.58C210.642 205.865 212.209 204.242 213.872 202.722C213.106 204.817 212.206 206.861 211.177 208.84C210.165 210.809 209.07 212.723 207.911 214.599C205.604 218.361 203.057 221.968 200.284 225.4L198.886 227.111L197.966 225.547C196.99 223.956 196.043 222.346 195.15 220.699C194.709 219.871 194.23 219.052 193.835 218.215C193.439 217.378 192.97 216.531 192.593 215.657Z" fill="#65C17E"/>
<path d="M208.03 265.052H187.634L189.06 244.656H209.456L208.03 265.052Z" fill="#EBEBEB"/>
<path d="M286.341 247.646H220.257L220.469 244.656H286.553L286.341 247.646Z" fill="#263238"/>
<path d="M336.113 253.451H219.853L220.064 250.461H336.325L336.113 253.451Z" fill="#EBEBEB"/>
<path d="M335.708 259.247H219.448L219.659 256.266H335.92L335.708 259.247Z" fill="#EBEBEB"/>
<path d="M335.303 265.052H219.043L219.255 262.062H335.506L335.303 265.052Z" fill="#EBEBEB"/>
<path d="M189.925 253.8C190.633 254.426 191.305 255.079 191.967 255.742C192.63 256.404 193.264 257.085 193.918 257.756C195.196 259.109 196.42 260.516 197.598 261.924L195.252 262.071C197.39 258.206 199.778 254.485 202.4 250.93C203.706 249.154 205.077 247.406 206.531 245.723C207.992 244.008 209.559 242.385 211.223 240.865C210.458 242.958 209.558 244.999 208.527 246.974C207.515 248.943 206.42 250.866 205.261 252.742C202.952 256.508 200.395 260.116 197.607 263.543L196.208 265.254L195.288 263.7C194.313 262.108 193.366 260.498 192.473 258.851C192.041 258.023 191.553 257.204 191.158 256.358C190.762 255.512 190.302 254.674 189.925 253.8Z" fill="#65C17E"/>
<path d="M205.362 303.195H184.966L186.392 282.799H206.788L205.362 303.195Z" fill="#EBEBEB"/>
<path d="M283.673 285.789H217.589L217.801 282.799H283.885L283.673 285.789Z" fill="#263238"/>
<path d="M333.445 291.585H217.185L217.396 288.595H333.657L333.445 291.585Z" fill="#EBEBEB"/>
<path d="M333.04 297.39H216.78L216.991 294.4H333.252L333.04 297.39Z" fill="#EBEBEB"/>
<path d="M332.635 303.195H216.375L216.586 300.205H332.847L332.635 303.195Z" fill="#EBEBEB"/>
<path d="M202.694 341.329H182.298L183.724 320.942H204.12L202.694 341.329Z" fill="#EBEBEB"/>
<path d="M281.005 323.923H214.931L215.133 320.942H281.217L281.005 323.923Z" fill="#263238"/>
<path d="M330.777 329.728H214.526L214.728 326.738H330.988L330.777 329.728Z" fill="#EBEBEB"/>
<path d="M330.372 335.533H214.112L214.323 332.543H330.584L330.372 335.533Z" fill="#EBEBEB"/>
<path d="M329.967 341.329H213.707L213.919 338.339H330.179L329.967 341.329Z" fill="#EBEBEB"/>
<path d="M234.895 133.805C236.075 133.797 237.222 134.196 238.142 134.936C238.181 134.968 238.213 135.007 238.237 135.05C238.26 135.094 238.275 135.142 238.28 135.192C238.285 135.241 238.281 135.291 238.267 135.339C238.252 135.387 238.229 135.431 238.197 135.47C238.166 135.509 238.127 135.541 238.083 135.564C238.04 135.588 237.992 135.603 237.942 135.608C237.892 135.613 237.842 135.609 237.795 135.594C237.747 135.58 237.702 135.557 237.664 135.525C236.867 134.873 235.869 134.519 234.839 134.522C233.597 134.522 232.399 134.988 231.483 135.828C230.566 136.667 229.998 137.82 229.89 139.058C229.85 139.643 229.933 140.231 230.134 140.782C230.335 141.334 230.649 141.837 231.056 142.259C231.464 142.681 231.956 143.013 232.499 143.234C233.043 143.454 233.627 143.558 234.214 143.538C235.274 143.544 236.306 143.191 237.139 142.536C237.177 142.505 237.22 142.482 237.267 142.469C237.314 142.457 237.363 142.454 237.411 142.462C237.459 142.47 237.505 142.488 237.545 142.515C237.586 142.542 237.62 142.577 237.645 142.618C237.677 142.656 237.7 142.7 237.714 142.747C237.727 142.794 237.73 142.844 237.724 142.892C237.717 142.941 237.7 142.988 237.673 143.029C237.647 143.071 237.613 143.106 237.572 143.134C236.583 143.862 235.387 144.255 234.159 144.256C233.479 144.277 232.804 144.155 232.174 143.899C231.545 143.642 230.977 143.257 230.506 142.767C230.035 142.277 229.673 141.694 229.441 141.055C229.21 140.416 229.115 139.736 229.163 139.058C229.293 137.626 229.953 136.295 231.013 135.323C232.073 134.352 233.457 133.81 234.895 133.805Z" fill="#263238"/>
<path d="M246.965 139.454H241.666L241.353 143.907C241.341 144.003 241.295 144.093 241.222 144.157C241.149 144.222 241.055 144.257 240.957 144.256C240.913 144.256 240.868 144.247 240.827 144.229C240.786 144.212 240.749 144.185 240.719 144.152C240.689 144.12 240.666 144.081 240.651 144.038C240.637 143.996 240.631 143.951 240.635 143.907L241.307 134.302C241.314 134.207 241.357 134.118 241.427 134.053C241.497 133.988 241.589 133.952 241.684 133.952C241.73 133.949 241.777 133.957 241.82 133.973C241.863 133.99 241.902 134.016 241.934 134.049C241.967 134.082 241.991 134.122 242.007 134.166C242.023 134.209 242.028 134.256 242.024 134.302L241.712 138.745H247.02L247.324 134.302C247.335 134.208 247.378 134.121 247.448 134.057C247.517 133.993 247.607 133.956 247.701 133.952C247.747 133.95 247.794 133.957 247.838 133.973C247.881 133.99 247.921 134.016 247.954 134.049C247.987 134.082 248.013 134.121 248.029 134.165C248.046 134.209 248.053 134.255 248.05 134.302L247.379 143.907C247.366 144.003 247.318 144.091 247.246 144.155C247.173 144.219 247.08 144.255 246.983 144.256C246.938 144.256 246.894 144.247 246.852 144.229C246.811 144.212 246.773 144.186 246.742 144.153C246.711 144.12 246.687 144.081 246.672 144.039C246.656 143.997 246.65 143.952 246.652 143.907L246.965 139.454Z" fill="#263238"/>
<path d="M251.74 134.32C251.749 134.226 251.792 134.138 251.862 134.073C251.931 134.009 252.022 133.972 252.117 133.97H257.416C257.462 133.967 257.508 133.974 257.551 133.991C257.594 134.008 257.632 134.034 257.664 134.067C257.695 134.101 257.719 134.141 257.734 134.184C257.748 134.228 257.753 134.274 257.747 134.32C257.743 134.418 257.701 134.51 257.631 134.578C257.561 134.647 257.468 134.686 257.37 134.688H252.439L252.154 138.764H256.468C256.514 138.765 256.56 138.775 256.601 138.795C256.643 138.814 256.68 138.842 256.711 138.877C256.741 138.911 256.764 138.952 256.777 138.996C256.791 139.04 256.796 139.086 256.79 139.132C256.784 139.228 256.741 139.318 256.671 139.384C256.602 139.45 256.51 139.488 256.413 139.49H252.08L251.795 143.557H256.735C256.782 143.556 256.828 143.566 256.87 143.585C256.912 143.604 256.95 143.632 256.981 143.667C257.011 143.702 257.034 143.743 257.047 143.787C257.06 143.832 257.064 143.879 257.057 143.925C257.05 144.02 257.007 144.109 256.937 144.174C256.867 144.239 256.775 144.275 256.68 144.274H251.353C251.267 144.267 251.187 144.227 251.13 144.161C251.073 144.096 251.045 144.011 251.05 143.925L251.74 134.32Z" fill="#263238"/>
<path d="M265.411 133.805C266.591 133.8 267.737 134.199 268.658 134.936C268.693 134.97 268.72 135.01 268.739 135.054C268.758 135.098 268.767 135.146 268.767 135.194C268.767 135.242 268.758 135.29 268.739 135.334C268.72 135.378 268.693 135.418 268.658 135.452C268.631 135.491 268.596 135.524 268.555 135.55C268.514 135.575 268.469 135.591 268.421 135.598C268.374 135.605 268.326 135.602 268.279 135.59C268.233 135.577 268.19 135.555 268.152 135.525C267.36 134.872 266.364 134.517 265.337 134.522C264.094 134.524 262.896 134.99 261.979 135.829C261.062 136.668 260.491 137.82 260.378 139.058C260.341 139.644 260.426 140.23 260.629 140.781C260.831 141.332 261.147 141.834 261.555 142.256C261.963 142.678 262.454 143.01 262.998 143.231C263.541 143.451 264.125 143.556 264.712 143.538C265.772 143.544 266.803 143.191 267.637 142.536C267.675 142.505 267.718 142.482 267.765 142.469C267.812 142.457 267.861 142.454 267.909 142.462C267.957 142.47 268.003 142.488 268.043 142.515C268.083 142.542 268.118 142.577 268.143 142.618C268.174 142.657 268.197 142.701 268.21 142.748C268.222 142.796 268.225 142.846 268.217 142.894C268.209 142.943 268.191 142.99 268.164 143.031C268.137 143.072 268.102 143.107 268.06 143.134C267.075 143.863 265.882 144.256 264.656 144.256C263.977 144.277 263.301 144.155 262.672 143.899C262.043 143.642 261.475 143.257 261.004 142.767C260.533 142.277 260.17 141.694 259.939 141.055C259.708 140.416 259.613 139.736 259.661 139.058C259.79 137.622 260.451 136.287 261.515 135.314C262.58 134.342 263.969 133.804 265.411 133.805Z" fill="#263238"/>
<path d="M271.814 134.32C271.819 134.222 271.86 134.13 271.93 134.062C272 133.993 272.094 133.954 272.191 133.952C272.239 133.95 272.287 133.959 272.331 133.977C272.376 133.995 272.415 134.023 272.448 134.058C272.481 134.092 272.507 134.134 272.523 134.179C272.539 134.224 272.545 134.272 272.541 134.32L272.118 140.281L278.788 134.053C278.856 133.991 278.944 133.957 279.036 133.957C279.128 133.957 279.217 133.991 279.285 134.053C279.319 134.086 279.346 134.126 279.365 134.171C279.384 134.215 279.394 134.263 279.394 134.311C279.394 134.359 279.384 134.406 279.365 134.45C279.346 134.495 279.319 134.535 279.285 134.568L275.062 138.515L278.742 143.639C278.791 143.723 278.808 143.821 278.789 143.916C278.77 144.011 278.717 144.096 278.641 144.155C278.572 144.206 278.487 144.232 278.401 144.228C278.351 144.232 278.3 144.221 278.255 144.199C278.21 144.176 278.171 144.142 278.144 144.099L274.464 139.03L272.035 141.303L271.86 143.879C271.849 143.975 271.802 144.065 271.729 144.129C271.656 144.194 271.562 144.229 271.465 144.228C271.419 144.228 271.375 144.219 271.333 144.201C271.292 144.184 271.255 144.158 271.224 144.125C271.193 144.092 271.169 144.053 271.153 144.011C271.138 143.969 271.131 143.924 271.133 143.879L271.814 134.32Z" fill="#263238"/>
<path d="M282.026 144.256C281.981 144.256 281.936 144.247 281.895 144.229C281.853 144.211 281.816 144.185 281.785 144.152C281.754 144.12 281.73 144.081 281.715 144.039C281.699 143.996 281.692 143.951 281.695 143.906L282.366 134.301C282.378 134.206 282.423 134.118 282.494 134.054C282.565 133.99 282.657 133.953 282.753 133.952C282.799 133.95 282.844 133.959 282.887 133.976C282.929 133.993 282.968 134.019 283 134.052C283.032 134.085 283.057 134.124 283.073 134.167C283.089 134.21 283.096 134.256 283.093 134.301L282.449 143.501H287.38C287.428 143.5 287.475 143.508 287.519 143.527C287.563 143.545 287.603 143.573 287.635 143.608C287.667 143.642 287.692 143.684 287.706 143.729C287.721 143.774 287.726 143.822 287.721 143.869C287.71 143.966 287.663 144.055 287.59 144.12C287.517 144.184 287.423 144.22 287.325 144.219L282.026 144.256Z" fill="#263238"/>
<path d="M290.803 134.32C290.814 134.226 290.858 134.14 290.927 134.075C290.996 134.011 291.086 133.974 291.18 133.97C291.227 133.968 291.273 133.975 291.317 133.991C291.361 134.008 291.4 134.034 291.433 134.067C291.466 134.1 291.492 134.139 291.509 134.183C291.525 134.227 291.532 134.273 291.53 134.32L290.858 143.925C290.847 144.021 290.8 144.111 290.727 144.175C290.654 144.24 290.56 144.275 290.463 144.274C290.417 144.274 290.373 144.265 290.331 144.247C290.29 144.23 290.253 144.204 290.222 144.171C290.191 144.138 290.167 144.099 290.151 144.057C290.136 144.015 290.129 143.97 290.131 143.925L290.803 134.32Z" fill="#263238"/>
<path d="M294.161 142.324C294.19 142.292 294.226 142.267 294.265 142.25C294.305 142.232 294.348 142.223 294.391 142.223C294.434 142.223 294.477 142.232 294.516 142.25C294.556 142.267 294.592 142.292 294.621 142.324C295.533 143.132 296.697 143.6 297.914 143.649C298.738 143.661 299.546 143.424 300.233 142.968C300.502 142.805 300.731 142.583 300.902 142.318C301.072 142.054 301.18 141.754 301.217 141.441C301.239 141.16 301.182 140.878 301.052 140.627C300.922 140.377 300.724 140.168 300.481 140.024C299.769 139.593 298.978 139.308 298.154 139.187C297.31 139.064 296.502 138.767 295.78 138.313C295.473 138.12 295.224 137.847 295.062 137.522C294.9 137.198 294.83 136.835 294.86 136.473C294.902 136.081 295.032 135.703 295.241 135.369C295.45 135.034 295.732 134.751 296.065 134.541C296.818 134.043 297.702 133.783 298.604 133.796C299.738 133.852 300.823 134.268 301.705 134.983C301.739 135.009 301.768 135.042 301.79 135.079C301.811 135.117 301.825 135.158 301.83 135.201C301.835 135.244 301.832 135.287 301.82 135.329C301.808 135.37 301.787 135.409 301.76 135.443C301.711 135.513 301.637 135.563 301.553 135.58C301.469 135.597 301.382 135.581 301.309 135.535C300.53 134.883 299.563 134.5 298.549 134.44C297.79 134.431 297.044 134.646 296.406 135.056C296.156 135.209 295.944 135.415 295.785 135.66C295.626 135.906 295.524 136.183 295.486 136.473C295.474 136.724 295.531 136.973 295.651 137.194C295.771 137.415 295.949 137.598 296.166 137.724C296.822 138.131 297.555 138.397 298.319 138.506C299.226 138.635 300.096 138.948 300.877 139.426C301.203 139.631 301.468 139.921 301.643 140.264C301.818 140.608 301.896 140.992 301.87 141.377C301.82 141.796 301.676 142.198 301.45 142.555C301.224 142.911 300.922 143.213 300.564 143.437C299.763 143.971 298.821 144.253 297.859 144.247C296.499 144.181 295.202 143.656 294.179 142.757C294.128 142.697 294.098 142.622 294.095 142.544C294.092 142.465 294.115 142.388 294.161 142.324Z" fill="#263238"/>
<path d="M307.427 134.669H304.327C304.28 134.67 304.234 134.66 304.191 134.641C304.148 134.622 304.11 134.595 304.079 134.56C304.047 134.525 304.024 134.484 304.01 134.439C303.995 134.395 303.991 134.348 303.996 134.301C304.003 134.206 304.046 134.117 304.116 134.052C304.185 133.987 304.277 133.952 304.373 133.952H311.291C311.337 133.95 311.382 133.959 311.424 133.976C311.466 133.993 311.504 134.019 311.535 134.052C311.567 134.085 311.591 134.125 311.606 134.167C311.621 134.21 311.626 134.256 311.622 134.301C311.618 134.399 311.576 134.491 311.506 134.56C311.436 134.628 311.343 134.667 311.245 134.669H308.136L307.492 143.869C307.483 143.964 307.439 144.052 307.37 144.116C307.3 144.181 307.209 144.217 307.115 144.219C307.069 144.219 307.025 144.21 306.983 144.192C306.942 144.174 306.905 144.148 306.874 144.116C306.843 144.083 306.819 144.044 306.803 144.002C306.788 143.96 306.781 143.914 306.783 143.869L307.427 134.669Z" fill="#263238"/>
<path d="M322.285 112.847H221.941L224.075 82.2573H324.42L322.285 112.847Z" fill="#C7C7C7"/>
<path d="M306.102 65.5225H243.8L239.89 82.2481H308.605L306.102 65.5225ZM274.574 77.5561C274.101 77.5631 273.631 77.4707 273.196 77.2846C272.761 77.0985 272.37 76.8231 272.048 76.4761C271.726 76.1291 271.481 75.7183 271.328 75.2704C271.175 74.8225 271.118 74.3474 271.161 73.8761C271.241 72.884 271.687 71.9573 272.414 71.2769C273.14 70.5965 274.094 70.2111 275.089 70.1961C275.562 70.189 276.032 70.2815 276.467 70.4675C276.902 70.6536 277.293 70.929 277.615 71.276C277.937 71.623 278.182 72.0338 278.335 72.4817C278.488 72.9297 278.545 73.4047 278.502 73.8761C278.426 74.8696 277.981 75.7987 277.254 76.4799C276.526 77.1612 275.57 77.5451 274.574 77.5561Z" fill="#C7C7C7"/>
<path d="M308.605 82.2478H239.89L240.773 78.5034H308.043L308.605 82.2478Z" fill="#A6A6A6"/>
<path d="M114.945 173.254C116.306 183.374 123.878 207.534 129.527 209.07C134.789 210.496 157.918 203.605 160.899 199.014C162.49 196.558 168.792 173.99 165.968 175.343C162.398 177.045 136.215 190.284 135.139 190.017C132.866 189.446 128.432 180.486 124.596 175.481C116.242 164.551 114.301 168.507 114.945 173.254Z" fill="#FBADAA"/>
<path d="M130.741 183.338L118.882 194.203C118.882 194.203 114.687 178.682 114.209 171.497C113.73 164.312 119.6 165.131 130.741 183.338Z" fill="#263238"/>
<path d="M82.1652 286.322C82.1652 286.322 69.6256 306.167 56.7916 296.516C43.9576 286.865 59.5516 269.312 59.5516 269.312L82.1652 286.322Z" fill="#F2994A"/>
<path d="M58.9641 270.042L81.6033 287.053L180.759 155.086L158.119 138.076L58.9641 270.042Z" fill="#65C17E"/>
<path opacity="0.1" d="M58.9641 270.042L81.6033 287.053L180.759 155.086L158.119 138.076L58.9641 270.042Z" fill="black"/>
<path d="M56.5267 269.327L82.9612 289.189L86.9015 283.945L60.467 264.083L56.5267 269.327Z" fill="#37474F"/>
<path d="M60.8839 263.531L87.3184 283.393L91.2587 278.148L64.8242 258.286L60.8839 263.531Z" fill="#37474F"/>
<path d="M158.111 138.083L178.876 128.193L185.702 124.909L184.497 132.425L180.817 155.112L176.051 156.676C176.051 156.676 176.29 151.791 176.281 151.708L171.516 153.272C171.516 153.272 171.764 148.387 171.746 148.295L167.035 149.905C167.035 149.905 167.228 144.983 167.219 144.891L162.5 146.501C162.5 146.501 162.693 141.579 162.684 141.487L157.973 143.088C157.973 143.088 158.13 138.166 158.111 138.083Z" fill="#EBEBEB"/>
<path d="M178.875 128.193L185.702 124.909L184.497 132.425L178.875 128.193Z" fill="#37474F"/>
<g opacity="0.1">
<path opacity="0.1" d="M91.3835 262.816C97.5199 254.325 103.739 245.907 109.977 237.489L128.8 212.308L147.752 187.257L157.256 174.8L166.87 162.38L157.614 175.076L148.286 187.68L129.499 212.86L110.538 237.912C104.19 246.235 97.8051 254.536 91.3835 262.816Z" fill="black"/>
<path opacity="0.1" d="M85.0999 258.842C91.2363 250.36 97.4554 241.932 103.684 233.514L122.479 208.334L141.431 183.282L150.972 170.807L160.586 158.378L151.331 171.12L142.002 183.752L123.206 208.932L104.254 233.984C97.8971 242.264 91.5399 250.59 85.0999 258.842Z" fill="black"/>
<path opacity="0.1" d="M78.8071 254.84C84.9527 246.348 91.1719 237.93 97.4003 229.512L116.187 204.332L135.148 179.28L144.688 166.796L154.302 154.376L145.047 167.072L135.709 179.704L116.923 204.884L97.9615 230C91.6135 238.28 85.2563 246.615 78.8071 254.84Z" fill="black"/>
</g>
<path d="M168.222 174.524C168.553 178.038 170.78 183.062 170.191 185.619C170.066 186.254 169.74 186.833 169.261 187.268C168.782 187.704 168.176 187.974 167.532 188.039C167.532 188.039 169.528 190.146 168.608 192.372C168.13 193.522 165.848 193.77 165.848 193.77C166.273 194.272 166.551 194.88 166.653 195.529C166.755 196.178 166.678 196.843 166.428 197.45C165.683 198.987 163.539 199.005 163.539 199.005C163.539 199.005 164.22 201.379 162.95 202.685C160.384 205.362 146.556 200.348 146.271 194.479C146.142 191.719 149.454 193.154 149.454 193.154C149.454 193.154 145.176 189.98 146.142 187.1C147.108 184.221 151.294 186.318 151.294 186.318C151.294 186.318 147.182 183.2 148.479 180.32C149.776 177.44 153.668 180.136 153.668 180.136C153.668 180.136 151.349 176.934 152.849 174.956C155.324 171.69 159.464 178.425 162.757 178.811L166.253 174.414L168.222 174.524Z" fill="#FBADAA"/>
<path d="M169.409 179.888C169.409 176.53 174.368 174.211 174.8 171.001C175.398 166.658 169.427 168.958 166.29 174.441L164.606 179.124L169.409 179.888Z" fill="#FBADAA"/>
<path d="M163.236 199.07C163.236 199.07 163.236 199.153 163.236 199.143C158.089 198.601 153.23 196.502 149.307 193.127C149.187 193.016 149.307 192.768 149.463 192.869C153.73 195.591 158.369 197.679 163.236 199.07Z" fill="#263238"/>
<path d="M165.94 193.826C165.996 193.826 165.94 193.927 165.94 193.927C160.27 193.267 155.023 190.601 151.147 186.411C151.018 186.263 151.055 185.997 151.22 186.153C153.953 188.876 161.35 192.584 165.94 193.826Z" fill="#263238"/>
<path d="M153.52 179.75C157.347 183.807 162.095 186.236 167.32 188.03C167.385 188.03 167.32 188.149 167.32 188.149C164.56 187.965 161.313 186.484 158.911 185.113C156.649 183.884 154.746 182.086 153.391 179.897C153.327 179.796 153.447 179.667 153.52 179.75Z" fill="#263238"/>
<path d="M167.173 414.533C165.407 415.122 114.945 414.975 113.022 413.751C112.295 413.301 111.89 405.941 111.642 397.044C111.642 395.121 111.55 393.143 111.522 391.129C111.522 388.737 111.458 386.326 111.439 383.98C111.375 373.437 111.522 364.154 111.522 364.154H144.375V383.98V391.129L144.21 397.044C144.21 397.044 163.53 405.747 165.462 407.311C167.394 408.875 168.93 414 167.173 414.533Z" fill="#FBADAA"/>
<path d="M167.173 414.534C165.407 415.122 114.945 414.975 113.022 413.752C112.295 413.301 111.89 405.941 111.642 397.044C111.642 395.122 111.55 393.144 111.522 391.129C111.522 388.737 111.458 386.326 111.439 383.98H144.357V391.129L144.191 397.044C144.191 397.044 163.511 405.748 165.443 407.312C167.375 408.876 168.93 414 167.173 414.534Z" fill="white"/>
<path d="M167.329 414.607C166.17 414.985 144.679 415.067 129.03 414.745C125.414 414.663 122.102 414.561 119.425 414.451C115.745 414.276 113.27 414.074 112.875 413.825C111.955 413.255 111.559 402.454 111.357 391.074H144.375L144.201 397.026C144.201 397.026 163.603 405.766 165.581 407.349C167.559 408.931 169.096 414 167.329 414.607Z" fill="#65C17E"/>
<path d="M166.603 412.574C158.093 412.344 123.767 412.206 115.34 412.62C115.276 412.62 115.276 412.675 115.34 412.675C123.767 413.089 158.093 412.951 166.603 412.721C166.777 412.712 166.777 412.583 166.603 412.574Z" fill="#263238"/>
<path d="M145.406 395.14C142.067 394.505 137.973 395.002 135.406 397.385C135.305 397.477 135.406 397.615 135.544 397.578C138.735 396.568 142.027 395.905 145.36 395.6C145.421 395.606 145.482 395.588 145.53 395.549C145.577 395.51 145.607 395.454 145.613 395.393C145.619 395.332 145.601 395.271 145.562 395.224C145.523 395.176 145.467 395.146 145.406 395.14Z" fill="#263238"/>
<path d="M147.816 396.603C144.477 395.968 140.383 396.465 137.816 398.848C137.715 398.94 137.816 399.078 137.954 399.041C141.157 398.021 144.46 397.346 147.807 397.026C147.863 397.027 147.918 397.006 147.958 396.967C147.999 396.929 148.022 396.875 148.023 396.819C148.025 396.763 148.003 396.709 147.965 396.668C147.926 396.628 147.872 396.604 147.816 396.603Z" fill="#263238"/>
<path d="M150.236 398.066C146.887 397.431 142.793 397.928 140.226 400.311C140.125 400.403 140.226 400.541 140.374 400.504C143.574 399.483 146.874 398.808 150.218 398.489C150.274 398.492 150.328 398.472 150.37 398.434C150.411 398.396 150.436 398.343 150.438 398.287C150.441 398.231 150.421 398.176 150.383 398.134C150.345 398.093 150.292 398.068 150.236 398.066Z" fill="#263238"/>
<path d="M152.646 399.528C149.298 398.893 145.204 399.39 142.637 401.773C142.536 401.865 142.637 402.003 142.784 401.966C145.984 400.946 149.284 400.27 152.628 399.952C152.684 399.954 152.739 399.934 152.78 399.896C152.822 399.858 152.846 399.805 152.849 399.749C152.851 399.693 152.831 399.638 152.793 399.597C152.755 399.555 152.703 399.531 152.646 399.528Z" fill="#263238"/>
<path d="M151.616 387.412C150.3 385.572 147.853 386.409 146.455 387.577C144.085 389.629 142.299 392.269 141.275 395.232C141.269 395.244 141.266 395.258 141.267 395.272C141.267 395.286 141.272 395.3 141.279 395.312C141.286 395.324 141.297 395.334 141.309 395.341C141.321 395.348 141.335 395.351 141.349 395.351C141.346 395.417 141.359 395.481 141.387 395.54C141.414 395.599 141.455 395.651 141.506 395.692C141.557 395.732 141.617 395.76 141.681 395.772C141.745 395.785 141.811 395.783 141.873 395.765C144.633 394.753 147.724 394.008 150.098 392.177C151.487 391.11 152.849 389.16 151.616 387.412ZM145.756 393.373C144.403 393.907 142.996 394.367 141.717 394.947C142.68 393.428 143.721 391.96 144.836 390.549C145.384 389.872 145.977 389.233 146.611 388.635C147.614 387.715 151.561 385.811 150.963 389.482C150.632 391.506 147.366 392.739 145.756 393.373Z" fill="#263238"/>
<path d="M132.765 394.331C135.525 395.517 138.699 395.462 141.625 395.757C141.69 395.758 141.755 395.744 141.814 395.715C141.873 395.687 141.924 395.645 141.963 395.593C142.003 395.541 142.029 395.48 142.041 395.416C142.052 395.352 142.049 395.286 142.03 395.223C142.043 395.218 142.055 395.211 142.065 395.201C142.075 395.191 142.082 395.179 142.087 395.165C142.091 395.152 142.092 395.138 142.09 395.124C142.089 395.11 142.084 395.097 142.076 395.085C140.347 392.474 137.961 390.363 135.157 388.967C133.501 388.185 130.925 388.047 130.116 390.099C129.306 392.15 131.164 393.641 132.765 394.331ZM131.266 391.939C129.766 388.535 134.026 389.409 135.259 390.034C136.026 390.447 136.761 390.918 137.457 391.442C138.891 392.528 140.267 393.689 141.579 394.919C140.153 394.689 138.709 394.579 137.273 394.404C135.562 394.193 132.094 393.815 131.266 391.92V391.939Z" fill="#263238"/>
<path d="M100.565 224.158C100.565 224.158 109.443 311.972 109.655 313.085C109.655 313.233 109.747 314.925 109.83 317.685C110.308 332.801 111.495 379.933 111.495 379.933H147.715C147.715 379.933 145.351 324.107 144.035 311.08C142.306 294.465 131.33 224.158 131.33 224.158H100.565Z" fill="#263238"/>
<path d="M113.97 316.186C112.859 297.172 111.182 278.19 108.937 259.238C107.658 248.566 106.177 237.94 104.613 227.304C104.613 227.212 104.448 227.212 104.466 227.304C107.226 246.238 109.25 265.31 110.961 284.344C112.672 303.379 113.868 322.451 114.641 341.55C115.092 352.369 115.423 362.149 115.773 372.977C115.783 373.022 115.808 373.063 115.844 373.092C115.88 373.121 115.924 373.137 115.971 373.137C116.017 373.137 116.062 373.121 116.098 373.092C116.134 373.063 116.159 373.022 116.168 372.977C115.662 353.694 115.101 335.441 113.97 316.186Z" fill="#455A64"/>
<path d="M145.231 373.925C128.671 373.4 114.43 373.778 113.197 373.87C112.176 373.953 112.746 374.054 113.252 374.091C127.273 374.928 144.679 374.137 145.231 374.091C145.36 374.054 145.36 373.925 145.231 373.925Z" fill="#455A64"/>
<path d="M100.565 224.158C100.565 224.158 109.443 311.972 109.655 313.085C109.655 313.233 109.747 314.925 109.83 317.685L126.905 224.158H100.565Z" fill="#455A64"/>
<path d="M112.056 421.71C110.216 422.161 59.947 418.26 58.1162 416.889C57.4262 416.383 57.5642 409.014 57.9966 400.136C58.0794 398.213 58.0978 396.217 58.3094 394.22C58.567 391.699 58.8522 389.188 59.165 386.759C60.4714 376.234 61.9894 367.439 61.9894 367.439L93.8398 369.84L91.8618 388.875L91.0798 396.658L90.4726 402.546C90.4726 402.546 109.066 412.666 110.906 414.368C112.746 416.07 113.859 421.25 112.056 421.71Z" fill="#FBADAA"/>
<path d="M112.056 421.71C110.216 422.16 59.947 418.26 58.1162 416.889C57.4262 416.383 57.5642 409.014 57.9966 400.136C58.0794 398.213 58.0978 396.216 58.3094 394.22C58.567 391.699 58.8522 389.188 59.165 386.759C68.9722 387.449 83.085 388.323 91.8526 388.856L91.0798 396.658L90.4726 402.546C90.4726 402.546 109.066 412.666 110.906 414.368C112.746 416.07 113.859 421.25 112.056 421.71Z" fill="white"/>
<path d="M112.24 421.783C110.4 422.243 59.7999 418.315 58.0059 416.953C57.1595 416.318 57.5367 405.527 58.1899 394.146L91.0799 396.603L90.4727 402.528C90.4727 402.528 109.167 412.694 111.016 414.414C112.866 416.134 114.016 421.36 112.24 421.783Z" fill="#65C17E"/>
<path d="M111.642 419.704C103.178 418.839 68.954 416.144 60.5176 415.932C60.4532 415.932 60.444 415.932 60.5176 415.987C68.8896 417.027 103.132 419.446 111.624 419.842C111.808 419.851 111.817 419.722 111.642 419.704Z" fill="#263238"/>
<path d="M91.7976 400.734C88.5132 399.86 84.4376 400.053 81.6776 402.233C81.5672 402.316 81.6776 402.463 81.7972 402.436C85.0592 401.645 88.3962 401.204 91.7516 401.12C91.7913 401.108 91.8268 401.085 91.8536 401.054C91.8803 401.022 91.8972 400.983 91.9021 400.942C91.907 400.901 91.8997 400.859 91.8811 400.822C91.8625 400.785 91.8335 400.754 91.7976 400.734Z" fill="#263238"/>
<path d="M94.0975 402.371C90.8039 401.497 86.7375 401.69 83.9775 403.871C83.8763 403.953 83.9775 404.101 84.1063 404.073C87.3756 403.293 90.7188 402.864 94.0791 402.794C94.1069 402.795 94.1347 402.791 94.1608 402.782C94.1869 402.772 94.2109 402.757 94.2314 402.739C94.252 402.72 94.2686 402.697 94.2803 402.672C94.2921 402.647 94.2987 402.62 94.2999 402.592C94.3011 402.564 94.2969 402.536 94.2873 402.51C94.2778 402.484 94.2633 402.46 94.2445 402.439C94.2257 402.419 94.203 402.402 94.1778 402.391C94.1526 402.379 94.1253 402.372 94.0975 402.371Z" fill="#263238"/>
<path d="M96.3977 404.018C93.1041 403.098 88.9825 403.328 86.2777 405.508C86.1673 405.591 86.2777 405.738 86.4065 405.72C89.6754 404.936 93.0186 404.505 96.3793 404.432C96.4273 404.424 96.4713 404.4 96.5036 404.364C96.536 404.328 96.5549 404.281 96.557 404.233C96.5592 404.184 96.5445 404.136 96.5155 404.097C96.4865 404.058 96.4449 404.03 96.3977 404.018Z" fill="#263238"/>
<path d="M98.6884 405.656C95.404 404.736 91.3284 404.966 88.5684 407.146C88.458 407.229 88.5685 407.376 88.6881 407.358C91.9571 406.575 95.3003 406.144 98.6608 406.07C98.7093 406.063 98.7541 406.04 98.7875 406.005C98.8209 405.969 98.841 405.923 98.8442 405.874C98.8475 405.825 98.8337 405.777 98.8053 405.737C98.7769 405.697 98.7356 405.668 98.6884 405.656Z" fill="#263238"/>
<path d="M98.5595 393.493C97.3911 391.589 94.8795 392.214 93.3983 393.272C90.8881 395.147 88.9121 397.647 87.6667 400.522C87.6667 400.586 87.6667 400.632 87.7403 400.651C87.7403 400.899 87.9335 401.184 88.2279 401.101C91.0615 400.301 94.1987 399.786 96.7011 398.13C98.1639 397.173 99.6727 395.305 98.5595 393.493ZM92.2759 399.013C90.8959 399.445 89.5159 399.804 88.1267 400.283C89.2491 398.875 90.3071 397.421 91.5675 396.124C92.1681 395.49 92.8105 394.897 93.4903 394.349C94.5483 393.53 98.6331 391.911 97.7591 395.526C97.2715 397.504 93.9319 398.489 92.2759 399.004V399.013Z" fill="#263238"/>
<path d="M79.2579 398.995C81.9167 400.375 85.0815 400.559 87.9887 401.074C88.2831 401.129 88.4671 400.817 88.4303 400.568C88.4431 400.564 88.4548 400.558 88.4647 400.549C88.4746 400.54 88.4825 400.529 88.4877 400.516C88.493 400.504 88.4955 400.491 88.4951 400.478C88.4947 400.464 88.4915 400.451 88.4855 400.439C86.956 397.705 84.7353 395.421 82.0455 393.815C80.4539 392.895 77.9056 392.555 76.9304 394.57C75.9552 396.585 77.7031 398.185 79.2579 398.995ZM77.9331 396.52C76.6911 393.015 80.9231 394.202 82.0639 394.919C82.793 395.395 83.4906 395.918 84.1523 396.483C85.4956 397.657 86.7791 398.898 87.9979 400.2C86.5903 399.86 85.1643 399.648 83.7383 399.363C82.0455 399.059 78.6139 398.434 77.9331 396.52Z" fill="#263238"/>
<path d="M131.293 224.158C131.293 224.158 130.226 233.101 125.092 239.55C123.859 241.095 120.097 242.531 118.146 243.947C118.146 243.947 110.86 310.905 108.643 318.467C106.177 326.913 96.5999 384.56 96.5999 384.56L58.7603 381.911C58.7603 381.911 70.1223 325.367 72.8179 311.365C73.4251 308.237 81.5211 249.311 81.3463 247.949C79.1659 231.721 87.0595 224.204 87.0595 224.204L131.293 224.158Z" fill="#263238"/>
<path d="M102.037 225.143C101.3 227.695 99.7412 229.933 97.6027 231.509C95.2429 233.189 92.4466 234.147 89.5527 234.269C89.0651 234.269 89.0283 235.042 89.5527 235.051C95.4591 235.051 101.43 231.307 102.295 225.179C102.295 225.041 102.12 225.014 102.037 225.143Z" fill="#455A64"/>
<path d="M125.792 239.283C123.648 240.141 121.604 241.227 119.692 242.521C117.668 243.773 115.791 245.281 113.832 246.597C113.758 246.652 113.832 246.772 113.905 246.726C115.957 245.548 118.091 244.518 120.124 243.303C122.156 242.191 124.083 240.897 125.884 239.439C125.948 239.384 125.884 239.246 125.792 239.283Z" fill="#455A64"/>
<path d="M126.629 226.964C126.307 228.317 125.92 229.66 125.562 231.003C125.203 232.346 124.964 233.551 124.568 234.793C124.242 236.002 123.57 237.089 122.636 237.921C122.121 238.363 121.55 238.74 120.998 239.145L120.078 239.789C120.124 239.605 120.17 239.421 120.207 239.237C120.327 238.731 120.437 238.216 120.548 237.701C120.787 236.56 121.026 235.419 121.256 234.269C121.707 232.024 122.176 229.752 122.7 227.535C122.695 227.521 122.686 227.508 122.673 227.5C122.661 227.491 122.646 227.487 122.631 227.487C122.616 227.487 122.602 227.491 122.589 227.5C122.577 227.508 122.568 227.521 122.562 227.535C121.9 229.733 121.173 231.905 120.584 234.122C120.29 235.207 119.186 240.562 119.131 240.976C119.076 241.39 119.02 241.767 118.984 242.163C118.915 242.564 118.896 242.972 118.928 243.377C118.936 243.395 118.949 243.41 118.966 243.42C118.982 243.431 119.001 243.436 119.02 243.436C119.04 243.436 119.059 243.431 119.075 243.42C119.091 243.41 119.104 243.395 119.112 243.377C119.296 243.01 119.429 242.62 119.508 242.218C119.628 241.831 119.729 241.445 119.821 241.059L119.904 240.626C120.456 240.323 120.971 239.918 121.486 239.577C122.001 239.237 122.608 238.86 123.133 238.455C124.112 237.705 124.84 236.675 125.221 235.502C125.608 234.238 125.882 232.941 126.04 231.629C126.279 230.101 126.482 228.556 126.767 227.029C126.785 226.918 126.647 226.872 126.629 226.964Z" fill="#455A64"/>
<path d="M94.7598 377.973C78.347 376.133 64.0778 375.36 62.845 375.351C61.8146 375.351 62.3758 375.498 62.845 375.572C76.7462 377.532 94.125 378.139 94.723 378.12C94.7327 378.123 94.7427 378.123 94.7526 378.122C94.7624 378.12 94.7719 378.117 94.7804 378.112C94.789 378.107 94.7964 378.1 94.8024 378.092C94.8083 378.084 94.8126 378.075 94.815 378.065C94.8174 378.055 94.8179 378.045 94.8164 378.036C94.815 378.026 94.8116 378.016 94.8065 378.008C94.8013 377.999 94.7946 377.992 94.7866 377.986C94.7786 377.98 94.7695 377.976 94.7598 377.973Z" fill="#455A64"/>
<path d="M130.382 205.832L133.464 231.26C133.464 231.26 92.1655 230.892 81.9443 229.926C81.9443 229.926 91.4203 182.758 102.727 171.046C108.376 165.195 114.834 165.793 118.864 170.08C119.885 171.157 131.946 187.91 133.106 194.23C134.108 199.815 130.382 205.832 130.382 205.832Z" fill="#65C17E"/>
<path d="M112.571 185.067C112.918 184.951 113.291 184.932 113.648 185.012C113.838 185.082 114.003 185.207 114.122 185.371C114.242 185.534 114.31 185.73 114.319 185.932C114.315 186.069 114.346 186.205 114.411 186.326C114.475 186.447 114.571 186.549 114.687 186.622C114.81 186.712 114.958 186.761 115.11 186.76C115.285 186.76 115.451 186.815 115.626 186.861C115.275 186.969 114.9 186.969 114.549 186.861C114.365 186.787 114.206 186.66 114.093 186.497C113.98 186.333 113.918 186.14 113.914 185.941C113.909 185.804 113.871 185.67 113.802 185.551C113.733 185.433 113.636 185.333 113.519 185.26C113.387 185.186 113.238 185.144 113.086 185.141C112.912 185.132 112.746 185.113 112.571 185.067Z" fill="white"/>
<path d="M122.001 218.785C122.349 218.669 122.721 218.65 123.078 218.73C123.267 218.801 123.431 218.926 123.548 219.089C123.666 219.253 123.733 219.448 123.74 219.65C123.738 219.787 123.771 219.922 123.835 220.042C123.9 220.163 123.994 220.265 124.108 220.34C124.239 220.421 124.387 220.469 124.541 220.478C124.706 220.478 124.881 220.533 125.047 220.579C124.696 220.686 124.321 220.686 123.97 220.579C123.781 220.498 123.621 220.363 123.508 220.191C123.395 220.02 123.335 219.819 123.335 219.613C123.335 219.477 123.299 219.344 123.231 219.226C123.164 219.108 123.066 219.01 122.949 218.941C122.815 218.862 122.663 218.817 122.507 218.813C122.338 218.812 122.17 218.803 122.001 218.785Z" fill="white"/>
<path d="M106.784 171.562C106.439 171.689 106.063 171.705 105.708 171.608C105.52 171.526 105.36 171.391 105.247 171.219C105.134 171.047 105.074 170.847 105.073 170.642C105.073 170.506 105.037 170.372 104.969 170.255C104.901 170.137 104.804 170.039 104.687 169.97C104.553 169.89 104.401 169.846 104.245 169.841H104.052L104.254 169.676C104.442 169.646 104.635 169.662 104.816 169.722C105.004 169.793 105.167 169.919 105.285 170.082C105.402 170.246 105.47 170.44 105.478 170.642C105.476 170.78 105.509 170.916 105.573 171.038C105.637 171.16 105.731 171.264 105.846 171.341C105.976 171.422 106.125 171.47 106.278 171.479C106.448 171.498 106.617 171.525 106.784 171.562Z" fill="white"/>
<path d="M99.2036 199.171C99.5516 199.059 99.9225 199.04 100.28 199.115C100.469 199.187 100.634 199.312 100.753 199.475C100.872 199.639 100.941 199.833 100.952 200.035C100.948 200.174 100.98 200.311 101.045 200.433C101.109 200.555 101.204 200.659 101.32 200.735C101.446 200.817 101.592 200.865 101.743 200.873L102.258 200.965C101.913 201.091 101.537 201.107 101.182 201.011C100.991 200.933 100.828 200.799 100.714 200.626C100.601 200.454 100.543 200.251 100.547 200.045C100.543 199.908 100.504 199.776 100.435 199.658C100.366 199.541 100.268 199.443 100.151 199.373C100.02 199.295 99.8714 199.251 99.7188 199.244C99.544 199.235 99.36 199.217 99.2036 199.171Z" fill="white"/>
<path d="M120.989 231.104H120.52C120.458 230.965 120.426 230.815 120.428 230.663C120.425 230.526 120.388 230.392 120.318 230.275C120.249 230.157 120.15 230.059 120.032 229.991C119.902 229.91 119.753 229.866 119.6 229.862C119.43 229.84 119.261 229.81 119.094 229.77C119.438 229.654 119.807 229.635 120.161 229.715C120.351 229.785 120.516 229.91 120.635 230.074C120.755 230.237 120.823 230.433 120.833 230.635C120.827 230.805 120.882 230.972 120.989 231.104Z" fill="white"/>
<path d="M109.425 213.44C109.772 213.324 110.144 213.305 110.501 213.385C110.691 213.455 110.855 213.58 110.973 213.744C111.091 213.908 111.158 214.103 111.164 214.305C111.164 214.443 111.198 214.578 111.264 214.698C111.33 214.819 111.425 214.921 111.541 214.995C111.665 215.082 111.812 215.13 111.964 215.133C112.13 215.133 112.304 215.188 112.47 215.234C112.122 215.34 111.751 215.34 111.403 215.234C111.219 215.159 111.061 215.032 110.948 214.869C110.836 214.705 110.773 214.513 110.768 214.314C110.763 214.177 110.724 214.043 110.655 213.925C110.586 213.806 110.489 213.706 110.372 213.634C110.24 213.559 110.092 213.517 109.94 213.514C109.765 213.532 109.6 213.514 109.425 213.44Z" fill="white"/>
<path d="M87.2068 211.159C86.9263 211.241 86.6335 211.272 86.342 211.251C86.342 211.168 86.388 211.085 86.4156 210.993C86.5064 211.031 86.6028 211.052 86.7008 211.058C86.8664 211.094 87.0412 211.113 87.2068 211.159Z" fill="white"/>
<path d="M91.0798 216.485C91.4269 216.369 91.7991 216.35 92.1562 216.43C92.3452 216.501 92.5089 216.626 92.6268 216.79C92.7447 216.953 92.8115 217.148 92.8186 217.35C92.8167 217.487 92.8495 217.622 92.9138 217.742C92.9782 217.863 93.072 217.965 93.1866 218.04C93.3151 218.125 93.4649 218.173 93.619 218.178C93.7846 218.178 93.9594 218.233 94.125 218.279C93.7743 218.387 93.3994 218.387 93.0486 218.279C92.8598 218.198 92.699 218.063 92.5861 217.892C92.4733 217.72 92.4134 217.519 92.4138 217.313C92.4133 217.177 92.3774 217.044 92.3097 216.926C92.2419 216.808 92.1446 216.71 92.0274 216.642C91.8944 216.561 91.7413 216.52 91.5858 216.522C91.4294 216.55 91.2546 216.531 91.0798 216.485Z" fill="white"/>
<path d="M117.87 199.585C118.216 199.464 118.59 199.445 118.947 199.53C119.135 199.601 119.299 199.726 119.417 199.89C119.535 200.053 119.602 200.248 119.609 200.45C119.607 200.588 119.64 200.724 119.704 200.846C119.768 200.968 119.862 201.072 119.977 201.149C120.107 201.231 120.256 201.278 120.409 201.287C120.575 201.287 120.75 201.342 120.915 201.388C120.565 201.496 120.19 201.496 119.839 201.388C119.65 201.307 119.489 201.172 119.376 201.001C119.264 200.829 119.204 200.628 119.204 200.422C119.204 200.286 119.168 200.153 119.1 200.035C119.032 199.918 118.935 199.819 118.818 199.751C118.684 199.671 118.532 199.627 118.376 199.622C118.207 199.618 118.038 199.606 117.87 199.585Z" fill="white"/>
<path d="M106.453 179.768C106.293 180.096 106.044 180.374 105.735 180.569C105.547 180.652 105.337 180.677 105.134 180.641C104.931 180.605 104.743 180.509 104.595 180.366C104.497 180.269 104.378 180.197 104.246 180.157C104.115 180.117 103.975 180.11 103.84 180.136C103.693 180.168 103.556 180.238 103.445 180.339C103.297 180.44 103.169 180.541 103.012 180.633C103.215 180.357 103.353 180.017 103.748 179.842C103.939 179.765 104.149 179.747 104.35 179.79C104.552 179.832 104.736 179.934 104.88 180.081C104.98 180.173 105.101 180.239 105.233 180.273C105.364 180.307 105.502 180.307 105.634 180.274C105.782 180.237 105.917 180.165 106.03 180.063C106.165 179.956 106.306 179.858 106.453 179.768Z" fill="white"/>
<path d="M132.876 199.152C132.673 199.428 132.535 199.76 132.158 199.944C131.971 200.032 131.761 200.061 131.557 200.026C131.353 199.992 131.165 199.895 131.017 199.75C130.863 199.601 130.657 199.518 130.442 199.518C130.228 199.518 130.022 199.601 129.867 199.75L129.435 200.045C129.593 199.715 129.846 199.439 130.162 199.254C130.352 199.177 130.561 199.158 130.762 199.199C130.963 199.24 131.148 199.339 131.293 199.484C131.391 199.579 131.512 199.648 131.644 199.683C131.776 199.718 131.915 199.719 132.048 199.686C132.196 199.646 132.332 199.571 132.443 199.465C132.59 199.346 132.719 199.235 132.876 199.152Z" fill="white"/>
<path d="M115 172.96C115.116 173.307 115.135 173.679 115.055 174.036C114.985 174.226 114.861 174.39 114.697 174.508C114.533 174.627 114.337 174.693 114.135 174.699C113.998 174.699 113.862 174.733 113.742 174.799C113.621 174.865 113.519 174.96 113.445 175.076C113.359 175.2 113.311 175.348 113.307 175.499C113.307 175.665 113.252 175.84 113.206 176.005C113.099 175.654 113.099 175.28 113.206 174.929C113.282 174.747 113.41 174.591 113.573 174.48C113.737 174.369 113.929 174.307 114.126 174.303C114.263 174.299 114.398 174.261 114.516 174.191C114.635 174.122 114.735 174.025 114.807 173.908C114.882 173.776 114.923 173.627 114.926 173.475C114.945 173.282 115 173.116 115 172.96Z" fill="white"/>
<path d="M110.952 202.906C111.068 203.25 111.087 203.619 111.007 203.973C110.937 204.163 110.812 204.328 110.648 204.448C110.485 204.567 110.29 204.636 110.087 204.645C109.95 204.642 109.815 204.675 109.694 204.739C109.573 204.803 109.471 204.898 109.397 205.013C109.308 205.136 109.26 205.284 109.259 205.436C109.259 205.611 109.204 205.777 109.158 205.951C109.036 205.605 109.02 205.23 109.112 204.875C109.193 204.686 109.328 204.525 109.5 204.413C109.671 204.3 109.872 204.24 110.078 204.24C110.215 204.24 110.349 204.203 110.467 204.133C110.585 204.064 110.683 203.964 110.75 203.845C110.83 203.715 110.875 203.565 110.878 203.412C110.888 203.247 110.906 203.072 110.952 202.906Z" fill="white"/>
<path d="M132.066 225.198C132.182 225.545 132.201 225.917 132.121 226.274C132.05 226.463 131.925 226.627 131.761 226.745C131.598 226.863 131.403 226.929 131.201 226.937C131.064 226.934 130.929 226.966 130.808 227.031C130.687 227.095 130.585 227.189 130.511 227.305C130.422 227.431 130.374 227.582 130.373 227.737C130.373 227.903 130.318 228.077 130.272 228.243C130.169 227.891 130.169 227.518 130.272 227.167C130.351 226.985 130.479 226.83 130.641 226.718C130.804 226.606 130.995 226.541 131.192 226.532C131.329 226.53 131.463 226.494 131.582 226.426C131.701 226.359 131.801 226.262 131.873 226.145C131.949 226.011 131.99 225.859 131.992 225.704C132.002 225.538 132.02 225.4 132.066 225.198Z" fill="white"/>
<path d="M94.4381 203.973C94.5495 204.321 94.5685 204.692 94.4933 205.05C94.4225 205.238 94.2974 205.402 94.1336 205.52C93.9699 205.638 93.7749 205.705 93.5733 205.712C93.4346 205.712 93.2981 205.746 93.1761 205.812C93.054 205.878 92.9503 205.973 92.8741 206.089C92.7915 206.216 92.7439 206.362 92.7361 206.512C92.7361 206.678 92.7361 206.853 92.6441 207.028C92.5327 206.677 92.5327 206.301 92.6441 205.951C92.7201 205.768 92.8473 205.611 93.0105 205.498C93.1737 205.386 93.3659 205.322 93.5641 205.316C93.7003 205.312 93.8332 205.274 93.9506 205.205C94.068 205.136 94.1661 205.038 94.2357 204.921C94.3138 204.79 94.3581 204.641 94.3645 204.488C94.3737 204.314 94.3921 204.148 94.4381 203.973Z" fill="white"/>
<path d="M102.516 186.631C102.635 186.978 102.657 187.35 102.58 187.708C102.508 187.896 102.382 188.06 102.219 188.179C102.056 188.298 101.862 188.368 101.66 188.379C101.522 188.376 101.385 188.408 101.262 188.472C101.14 188.537 101.036 188.631 100.961 188.747C100.878 188.874 100.831 189.02 100.823 189.171C100.823 189.345 100.768 189.511 100.722 189.686C100.614 189.335 100.614 188.96 100.722 188.609C100.797 188.426 100.924 188.268 101.087 188.155C101.25 188.042 101.443 187.979 101.642 187.975C101.778 187.97 101.911 187.932 102.028 187.863C102.146 187.794 102.244 187.696 102.313 187.579C102.391 187.448 102.436 187.299 102.442 187.147C102.458 186.974 102.482 186.802 102.516 186.631Z" fill="white"/>
<path d="M126.16 190.265C126.276 190.612 126.295 190.984 126.215 191.342C126.145 191.531 126.02 191.696 125.856 191.814C125.692 191.932 125.497 191.998 125.295 192.004C125.157 192.003 125.022 192.037 124.901 192.103C124.78 192.169 124.678 192.265 124.605 192.381C124.518 192.506 124.47 192.653 124.467 192.804C124.467 192.97 124.412 193.145 124.366 193.31C124.258 192.96 124.258 192.585 124.366 192.234C124.442 192.052 124.57 191.896 124.733 191.785C124.896 191.674 125.088 191.613 125.286 191.608C125.423 191.603 125.557 191.565 125.675 191.496C125.794 191.427 125.894 191.329 125.966 191.213C126.041 191.081 126.082 190.932 126.086 190.78C126.095 190.606 126.114 190.44 126.16 190.265Z" fill="white"/>
<path d="M104.31 220.607C104.426 220.954 104.445 221.326 104.365 221.683C104.294 221.872 104.169 222.036 104.005 222.154C103.842 222.272 103.647 222.339 103.445 222.346C103.308 222.344 103.173 222.377 103.053 222.441C102.932 222.505 102.83 222.599 102.755 222.714C102.67 222.842 102.622 222.992 102.617 223.146C102.617 223.312 102.562 223.487 102.516 223.652C102.408 223.301 102.408 222.927 102.516 222.576C102.594 222.394 102.721 222.238 102.884 222.126C103.047 222.013 103.238 221.949 103.436 221.941C103.573 221.941 103.708 221.906 103.827 221.838C103.947 221.77 104.046 221.672 104.117 221.555C104.193 221.42 104.234 221.268 104.236 221.113C104.245 220.947 104.264 220.8 104.31 220.607Z" fill="white"/>
<path d="M96.5999 225.198C96.7068 225.564 96.7068 225.954 96.5999 226.32C96.5282 226.508 96.4027 226.672 96.2392 226.789C96.0757 226.907 95.8813 226.974 95.6799 226.983C95.542 226.981 95.4057 227.014 95.2836 227.078C95.1615 227.142 95.0574 227.236 94.9807 227.351C94.8993 227.481 94.8519 227.63 94.8427 227.783C94.821 227.953 94.7903 228.122 94.7507 228.289C94.6388 227.939 94.6388 227.563 94.7507 227.213C94.8295 227.031 94.9575 226.876 95.1201 226.764C95.2827 226.652 95.4734 226.587 95.6707 226.578C95.8066 226.577 95.94 226.541 96.0578 226.474C96.1755 226.406 96.2736 226.309 96.3423 226.191C96.422 226.057 96.4663 225.905 96.4711 225.75C96.5079 225.538 96.5263 225.4 96.5999 225.198Z" fill="white"/>
<path d="M121.808 180.624C121.962 180.291 122.212 180.013 122.526 179.823C122.713 179.736 122.922 179.708 123.126 179.743C123.33 179.777 123.518 179.873 123.667 180.017C123.821 180.166 124.027 180.249 124.242 180.249C124.456 180.249 124.662 180.166 124.817 180.017C124.964 179.925 125.093 179.814 125.249 179.722C125.088 180.054 124.832 180.329 124.513 180.513C124.324 180.592 124.116 180.612 123.916 180.571C123.716 180.53 123.533 180.43 123.391 180.283C123.291 180.188 123.168 180.119 123.035 180.084C122.901 180.049 122.761 180.048 122.627 180.081C122.479 180.12 122.343 180.196 122.231 180.302C122.093 180.421 121.955 180.532 121.808 180.624Z" fill="white"/>
<path d="M108.321 194.184C108.475 193.852 108.725 193.573 109.038 193.384C109.226 193.297 109.435 193.269 109.639 193.303C109.842 193.338 110.031 193.433 110.179 193.577C110.334 193.726 110.54 193.809 110.754 193.809C110.969 193.809 111.175 193.726 111.329 193.577C111.476 193.485 111.605 193.375 111.762 193.283C111.604 193.616 111.347 193.893 111.026 194.074C110.837 194.152 110.629 194.172 110.429 194.131C110.229 194.09 110.046 193.99 109.903 193.844C109.805 193.749 109.684 193.68 109.552 193.644C109.42 193.609 109.281 193.608 109.149 193.642C108.997 193.68 108.858 193.756 108.744 193.862C108.606 193.982 108.468 194.12 108.321 194.184Z" fill="white"/>
<path d="M98.9736 212.584C99.1371 212.258 99.3849 211.982 99.6912 211.784C99.8789 211.698 100.088 211.671 100.291 211.705C100.495 211.74 100.683 211.835 100.832 211.977C100.927 212.077 101.047 212.151 101.179 212.192C101.311 212.232 101.452 212.237 101.586 212.207C101.736 212.175 101.875 212.105 101.991 212.005C102.129 211.913 102.267 211.802 102.414 211.72C102.221 211.996 102.083 212.336 101.688 212.502C101.497 212.579 101.288 212.599 101.087 212.558C100.886 212.517 100.701 212.418 100.556 212.272C100.458 212.176 100.337 212.108 100.205 212.072C100.073 212.037 99.9342 212.036 99.8016 212.069C99.6534 212.109 99.5174 212.185 99.406 212.29C99.2588 212.391 99.13 212.52 98.9736 212.584Z" fill="white"/>
<path d="M121.09 210.68C121.256 210.356 121.503 210.08 121.808 209.88C121.996 209.795 122.206 209.769 122.409 209.805C122.613 209.841 122.801 209.938 122.948 210.082C123.046 210.179 123.166 210.25 123.297 210.29C123.429 210.33 123.568 210.338 123.703 210.312C123.853 210.279 123.992 210.21 124.108 210.11C124.243 210.003 124.384 209.905 124.531 209.815C124.373 210.145 124.12 210.421 123.804 210.607C123.613 210.683 123.403 210.701 123.202 210.659C123.001 210.616 122.816 210.515 122.672 210.367C122.574 210.273 122.453 210.205 122.321 210.171C122.189 210.138 122.05 210.139 121.918 210.174C121.771 210.211 121.635 210.284 121.522 210.386C121.384 210.492 121.24 210.59 121.09 210.68Z" fill="white"/>
<path d="M112.608 224.085C112.768 223.756 113.017 223.479 113.326 223.284C113.514 223.201 113.724 223.176 113.927 223.212C114.13 223.248 114.318 223.344 114.466 223.487C114.562 223.586 114.682 223.659 114.814 223.7C114.946 223.74 115.086 223.746 115.221 223.717C115.368 223.685 115.505 223.615 115.616 223.514C115.764 223.413 115.892 223.312 116.049 223.22C115.888 223.551 115.632 223.827 115.313 224.011C115.122 224.088 114.912 224.106 114.711 224.063C114.509 224.021 114.325 223.919 114.181 223.772C114.081 223.68 113.96 223.614 113.828 223.58C113.697 223.546 113.559 223.546 113.427 223.579C113.278 223.616 113.141 223.692 113.031 223.799C112.893 223.891 112.755 224.002 112.608 224.085Z" fill="white"/>
<path d="M85.882 221.435C85.6888 221.72 85.5416 222.06 85.146 222.226C84.9573 222.304 84.7496 222.324 84.5495 222.283C84.3494 222.242 84.1662 222.142 84.0236 221.996C83.9396 221.912 83.8349 221.851 83.72 221.821C83.72 221.701 83.7844 221.573 83.812 221.444C83.994 221.486 84.1619 221.575 84.2996 221.701C84.3942 221.802 84.5137 221.877 84.6461 221.917C84.7784 221.957 84.9191 221.962 85.054 221.931C85.202 221.902 85.3389 221.832 85.4496 221.729C85.56 221.637 85.7256 221.527 85.882 221.435Z" fill="white"/>
<path d="M91.7979 194.617C91.9623 194.288 92.2137 194.011 92.5247 193.816C92.7123 193.731 92.9213 193.703 93.1247 193.738C93.3281 193.772 93.5165 193.867 93.6654 194.009C93.7601 194.11 93.8796 194.185 94.012 194.225C94.1443 194.266 94.285 194.27 94.4198 194.239C94.5672 194.208 94.7037 194.138 94.8154 194.037C94.9626 193.945 95.0914 193.835 95.2478 193.743C95.0454 194.028 94.9075 194.368 94.5119 194.534C94.3216 194.612 94.1126 194.631 93.9112 194.59C93.7098 194.549 93.525 194.45 93.3803 194.304C93.2823 194.208 93.1615 194.14 93.0294 194.104C92.8974 194.069 92.7584 194.068 92.6259 194.101C92.4776 194.141 92.3417 194.217 92.2303 194.322C92.0913 194.428 91.9469 194.526 91.7979 194.617Z" fill="white"/>
<path d="M131.992 219.374C131.588 217.047 131.293 215.225 130.953 212.934C130.612 210.643 130.263 208.27 129.959 205.933V205.777L130.06 205.629C131.229 203.853 132.067 201.88 132.535 199.806C132.78 198.778 132.897 197.725 132.885 196.669C132.897 195.614 132.754 194.563 132.462 193.55C131.823 191.486 131.004 189.481 130.014 187.561C129.039 185.619 128.239 183.991 127.153 182.096C126.969 181.801 127.089 181.737 127.254 181.967C128.349 183.522 129.545 185.647 130.484 187.312C131.601 189.218 132.526 191.231 133.244 193.32C133.592 194.399 133.772 195.525 133.777 196.659C133.799 197.786 133.682 198.911 133.428 200.008C132.935 202.205 132.023 204.285 130.741 206.135L130.815 205.832C131.082 208.178 131.302 210.524 131.523 212.87C131.735 214.977 131.974 217.258 132.121 219.374C132.121 219.567 132.13 220.23 131.992 219.374Z" fill="#263238"/>
<path d="M129.131 183.844C129.58 184.532 129.947 185.27 130.226 186.043C130.37 186.426 130.487 186.82 130.576 187.22C130.682 187.623 130.737 188.037 130.741 188.453C130.392 187.699 130.07 186.963 129.821 186.199C129.52 185.436 129.289 184.648 129.131 183.844Z" fill="#263238"/>
<path d="M104.705 176.355C101.347 181.424 85.4772 201.379 84.8884 203.293C84.2996 205.206 87.8968 209.181 87.86 209.963C87.722 213.137 79.7272 232.254 76.8936 230.203C73.2136 227.544 59.8644 210.772 61.64 201.931C63.4156 193.09 97.52 171.047 103.132 168.977C108.744 166.907 108.017 171.359 104.705 176.355Z" fill="#FBADAA"/>
<path d="M91.8159 237.084C93.9687 235.051 90.3347 233.68 90.3347 233.68C90.3347 233.68 96.0387 234.398 97.4463 231.444C98.8539 228.491 94.3459 227.093 94.0331 226.973C94.3367 226.973 99.5531 227.534 100.694 224.416C101.835 221.297 97.1243 220.441 96.8207 220.395C97.1151 220.331 101.007 219.521 101.31 216.964C101.826 212.575 90.4911 213.937 87.6391 211.775C87.6391 211.775 87.8231 206.052 87.8783 205.887C87.3518 207.248 86.3787 208.39 85.1183 209.125C82.7907 210.22 80.6655 210.965 79.8651 212.308C79.4895 212.894 79.3126 213.586 79.3606 214.28C79.4087 214.974 79.6791 215.635 80.1319 216.163C80.1319 216.163 76.9947 216.32 76.0471 218.739C75.5595 219.99 77.1235 221.867 77.1235 221.867C76.4158 221.939 75.7415 222.204 75.175 222.634C74.6084 223.064 74.1716 223.643 73.9127 224.305C73.3423 226.062 74.9983 227.672 74.9983 227.672C74.9983 227.672 72.6799 229.006 72.6799 230.994C72.6799 235.005 87.2067 241.436 91.8159 237.084Z" fill="#FBADAA"/>
<path d="M75.2281 227.976C75.2281 227.976 75.1361 227.976 75.2281 228.04C79.6299 231.456 84.9651 233.455 90.5278 233.772C90.7026 233.772 90.7854 233.496 90.5922 233.45C85.2323 232.381 80.0567 230.537 75.2281 227.976Z" fill="#263238"/>
<path d="M77.0499 221.867C76.9947 221.867 76.9487 221.922 76.9947 221.968C81.9003 225.694 87.9756 227.544 94.1251 227.185C94.3459 227.185 94.5207 226.927 94.2723 226.936C90.0863 226.982 81.5487 224.333 77.0499 221.867Z" fill="#263238"/>
<path d="M97.2439 220.202C91.2271 220.497 85.7255 218.841 80.3159 216.32C80.2423 216.32 80.2055 216.384 80.2515 216.43C82.5607 218.39 86.1763 219.632 89.0743 220.368C91.7499 221.096 94.5694 221.112 97.2531 220.414C97.3543 220.386 97.3727 220.193 97.2439 220.202Z" fill="#263238"/>
<path d="M74.842 227.691C74.2784 227.274 73.8403 226.71 73.5757 226.061C73.3112 225.412 73.2305 224.703 73.3425 224.011C73.5155 223.329 73.9351 222.736 74.52 222.345C75.2199 221.971 75.9989 221.769 76.7924 221.757C76.2622 221.218 75.9073 220.532 75.7743 219.788C75.6413 219.044 75.7364 218.278 76.0473 217.589C76.4089 216.978 76.9921 216.53 77.6756 216.338C78.466 216.135 79.2794 216.037 80.0952 216.043C79.6989 215.706 79.3869 215.281 79.184 214.802C78.9812 214.323 78.8931 213.803 78.9268 213.283C78.9829 212.715 79.1742 212.167 79.4846 211.687C79.7951 211.207 80.2158 210.808 80.7116 210.523C81.8741 209.874 83.1094 209.364 84.3916 209.005C85.0362 208.793 85.6537 208.506 86.2316 208.15C86.8469 207.724 87.3261 207.13 87.6116 206.439C87.6668 206.319 87.676 206.439 87.6116 206.54C87.4301 207.011 87.1721 207.45 86.848 207.837C86.5053 208.244 86.1092 208.603 85.6704 208.904C84.5649 209.544 83.4114 210.098 82.2204 210.56C81.1866 211.027 80.3337 211.818 79.7916 212.814C79.5581 213.335 79.474 213.91 79.5487 214.475C79.6235 215.041 79.8541 215.574 80.2148 216.016C80.223 216.028 80.2278 216.042 80.2287 216.057C80.2296 216.071 80.2267 216.086 80.2201 216.099C80.2136 216.112 80.2037 216.123 80.1915 216.131C80.1792 216.139 80.1651 216.144 80.1504 216.145C79.4248 216.25 78.7163 216.451 78.0436 216.743C77.4839 216.989 77.0123 217.4 76.6912 217.92C76.4176 218.553 76.3152 219.246 76.3943 219.931C76.4734 220.616 76.7313 221.268 77.142 221.821C76.3761 221.999 75.6474 222.311 74.9893 222.741C74.5563 223.092 74.2363 223.562 74.0693 224.093C73.8867 224.696 73.8761 225.337 74.0387 225.945C74.2012 226.553 74.5305 227.104 74.9893 227.534C74.9915 227.55 74.9915 227.565 74.9893 227.58C74.9893 227.58 74.9893 227.58 74.9893 227.626C74.9893 227.626 74.2624 228.077 74.2164 228.086C74.1704 228.095 74.2164 228.086 74.2164 228.086C74.4147 227.939 74.6238 227.807 74.842 227.691Z" fill="#263238"/>
<path d="M96.0939 188.664L82.0271 180.872C82.0271 180.872 96.3607 171.359 103.022 168.627C109.682 165.894 109.829 172.343 96.0939 188.664Z" fill="#263238"/>
<path d="M110.041 165.545C107.806 166.465 107.18 168.066 107.879 169.943C108.652 172.049 115.12 176.143 117.806 174.763C120.124 173.567 118.119 168.02 116.886 166.769C115.955 165.979 114.831 165.449 113.628 165.234C112.426 165.02 111.189 165.127 110.041 165.545Z" fill="#263238"/>
<path d="M108.56 169.455C108.9 170.218 113.712 174.643 117.318 173.76C118.496 173.466 117.199 166.989 117.199 166.989V166.483L117.383 159.482L108.56 155.967L107.29 155.526C107.29 155.526 107.364 157.439 107.483 159.831C107.483 159.942 107.483 160.052 107.483 160.172C107.483 160.291 107.483 160.429 107.483 160.558C107.483 160.917 107.483 161.285 107.529 161.644C107.575 162.003 107.529 162.187 107.594 162.481C107.658 162.775 107.594 163.051 107.658 163.346C107.816 165.401 108.117 167.442 108.56 169.455Z" fill="#FBADAA"/>
<path d="M107.447 159.831C108.489 161.59 109.902 163.099 111.588 164.254C113.274 165.41 115.192 166.183 117.208 166.52L117.392 159.519L108.56 155.967L107.29 155.526C107.29 155.526 107.327 157.439 107.447 159.831Z" fill="#263238"/>
<path d="M125.589 148.663C127.346 160.835 120.262 163.254 117.631 163.631C115.248 163.972 107.097 164.837 104.089 152.913C101.08 140.99 106.186 136.353 111.596 135.259C117.006 134.164 123.832 136.491 125.589 148.663Z" fill="#FBADAA"/>
<path d="M122.36 145.737C122.077 145.738 121.794 145.719 121.514 145.682C121.211 145.71 120.909 145.632 120.658 145.461C120.588 145.395 120.542 145.308 120.529 145.212C120.516 145.117 120.535 145.02 120.584 144.937C120.702 144.783 120.859 144.664 121.039 144.593C121.219 144.522 121.415 144.501 121.606 144.532C122.001 144.532 122.381 144.68 122.673 144.946C122.734 145.011 122.776 145.092 122.793 145.18C122.81 145.268 122.801 145.358 122.769 145.442C122.736 145.525 122.68 145.597 122.607 145.649C122.535 145.702 122.449 145.732 122.36 145.737Z" fill="#263238"/>
<path d="M114.19 147.246C114.459 147.161 114.723 147.063 114.982 146.951C115.278 146.889 115.547 146.73 115.745 146.501C115.791 146.415 115.807 146.316 115.792 146.22C115.778 146.124 115.732 146.035 115.662 145.967C115.504 145.856 115.32 145.789 115.127 145.772C114.935 145.756 114.742 145.792 114.567 145.875C114.185 145.986 113.857 146.235 113.647 146.574C113.604 146.656 113.586 146.748 113.595 146.839C113.603 146.931 113.639 147.018 113.697 147.09C113.755 147.161 113.832 147.214 113.92 147.242C114.008 147.27 114.102 147.271 114.19 147.246Z" fill="#263238"/>
<path d="M116.674 149.96C116.674 149.96 116.61 150.015 116.619 150.043C116.785 150.871 116.84 151.837 116.141 152.232C116.141 152.232 116.141 152.288 116.141 152.278C117.042 152.002 116.96 150.714 116.674 149.96Z" fill="#263238"/>
<path d="M115.791 149.224C114.448 149.353 114.788 152.03 116.04 151.91C117.291 151.791 116.914 149.123 115.791 149.224Z" fill="#263238"/>
<path d="M115.285 149.436C115.064 149.62 114.871 149.914 114.595 149.978C114.319 150.043 113.988 149.804 113.74 149.564C113.804 150.08 114.071 150.576 114.66 150.586C115.248 150.595 115.469 150.089 115.58 149.555C115.469 149.491 115.368 149.362 115.285 149.436Z" fill="#263238"/>
<path d="M121.219 149.04C121.219 149.04 121.293 149.04 121.293 149.104C121.367 149.942 121.597 150.88 122.379 151.073V151.119C121.44 151.064 121.155 149.804 121.219 149.04Z" fill="#263238"/>
<path d="M121.854 148.047C123.179 147.78 123.611 150.448 122.388 150.696C121.164 150.945 120.75 148.267 121.854 148.047Z" fill="#263238"/>
<path d="M122.443 148.12C122.673 148.231 122.93 148.451 123.179 148.433C123.427 148.415 123.648 148.074 123.786 147.771C123.887 148.277 123.786 148.829 123.326 149.013C122.866 149.197 122.498 148.783 122.296 148.295C122.296 148.24 122.36 148.12 122.443 148.12Z" fill="#263238"/>
<path d="M120.437 153.217C120.437 153.217 120.777 154.431 120.86 155.057C120.86 155.112 120.731 155.158 120.538 155.204C120.05 155.364 119.527 155.388 119.026 155.273C118.525 155.158 118.065 154.908 117.695 154.551C117.686 154.54 117.681 154.526 117.68 154.512C117.68 154.497 117.684 154.483 117.692 154.472C117.701 154.46 117.713 154.451 117.727 154.447C117.741 154.444 117.756 154.444 117.769 154.45C118.586 154.856 119.512 154.988 120.409 154.827C120.409 154.652 119.747 152.766 119.839 152.748C120.299 152.723 120.76 152.76 121.21 152.858C120.566 150.31 119.508 147.881 118.91 145.333C118.909 145.315 118.914 145.298 118.924 145.284C118.933 145.269 118.947 145.258 118.964 145.252C118.98 145.246 118.998 145.245 119.014 145.25C119.031 145.254 119.046 145.264 119.057 145.277C120.262 147.842 121.208 150.52 121.881 153.272C121.946 153.548 120.685 153.281 120.437 153.217Z" fill="#263238"/>
<path d="M104.08 151.92C106.968 151.717 106.591 147.172 106.591 147.172C106.591 147.172 109.848 146.62 109.673 141.321C110.393 142.332 111.338 143.163 112.433 143.747C113.528 144.331 114.744 144.654 115.984 144.688C116.904 144.753 113.602 142.563 113.602 142.563C113.602 142.563 117.64 145.691 124.54 143.851C125.028 143.722 123.887 135.654 118.192 133.566C112.498 131.477 107.152 134.044 104.052 137.77C104.052 137.77 100.17 139.932 100.013 143.787C99.8569 147.642 102.957 151.993 104.08 151.92Z" fill="#263238"/>
<path d="M115 154.698C114.261 154.74 113.525 154.575 112.876 154.22C112.226 153.865 111.69 153.335 111.326 152.69C110.963 152.045 110.788 151.311 110.821 150.572C110.854 149.832 111.094 149.117 111.513 148.507C111.933 147.897 112.515 147.417 113.193 147.122C113.872 146.826 114.62 146.727 115.352 146.835C116.084 146.943 116.771 147.255 117.335 147.734C117.899 148.213 118.317 148.841 118.542 149.546C118.728 150.121 118.778 150.73 118.691 151.328C118.604 151.926 118.38 152.495 118.038 152.993C117.696 153.491 117.244 153.903 116.717 154.199C116.191 154.494 115.603 154.665 115 154.698ZM114.568 147.338C113.854 147.381 113.172 147.645 112.616 148.094C112.06 148.544 111.659 149.155 111.467 149.844C111.275 150.532 111.304 151.263 111.548 151.935C111.792 152.607 112.24 153.186 112.828 153.591C113.417 153.996 114.118 154.207 114.832 154.194C115.547 154.182 116.24 153.947 116.814 153.522C117.389 153.097 117.816 152.503 118.037 151.823C118.258 151.143 118.261 150.411 118.045 149.73C117.82 149.004 117.36 148.373 116.737 147.937C116.114 147.5 115.364 147.283 114.605 147.32L114.568 147.338Z" fill="#65C17E"/>
<path d="M123.979 153.07C122.47 153.162 121.008 151.69 120.64 149.656C120.455 148.687 120.577 147.683 120.989 146.786C121.142 146.39 121.394 146.039 121.722 145.769C122.05 145.499 122.442 145.318 122.861 145.244C123.279 145.17 123.709 145.205 124.11 145.346C124.511 145.488 124.868 145.73 125.148 146.05C125.841 146.751 126.298 147.652 126.454 148.626C126.831 150.779 125.838 152.757 124.237 153.042C124.152 153.06 124.066 153.07 123.979 153.07ZM123.151 145.71H122.949C122.609 145.787 122.294 145.946 122.031 146.174C121.767 146.402 121.565 146.691 121.44 147.016C121.083 147.815 120.98 148.705 121.146 149.564C121.477 151.405 122.811 152.757 124.126 152.518C125.442 152.278 126.242 150.586 125.911 148.718C125.773 147.854 125.371 147.054 124.761 146.427C124.554 146.209 124.304 146.034 124.028 145.916C123.751 145.797 123.452 145.736 123.151 145.737V145.71Z" fill="#65C17E"/>
<path d="M118.533 150.025L118.128 149.684C118.625 149.077 119.876 148.176 121.008 149.022L120.695 149.445C119.683 148.682 118.579 149.96 118.533 150.025Z" fill="#65C17E"/>
<path d="M101.329 154.091L100.823 153.934C100.896 153.704 101.577 151.625 102.663 151.23C103.748 150.834 110.823 150.31 111.127 150.254V150.788C109.084 150.954 103.61 151.441 102.792 151.708C101.973 151.975 101.513 153.52 101.329 154.091Z" fill="#65C17E"/>
<path d="M106.159 153.567C106.159 153.567 103.261 149.887 101.559 150.945C99.8567 152.003 102.203 157.44 104.319 158.084C104.583 158.191 104.867 158.243 105.152 158.237C105.437 158.23 105.718 158.165 105.977 158.045C106.236 157.925 106.467 157.753 106.657 157.539C106.846 157.326 106.99 157.076 107.079 156.805L106.159 153.567Z" fill="#FBADAA"/>
<path d="M104.31 139.417C106.048 138.037 109.756 128.312 101.375 124.034C92.9936 119.756 83.72 130.64 89.9392 138.129C94.1252 143.152 100.63 142.342 104.31 139.417Z" fill="#263238"/>
<path d="M383.567 335.46C390.172 321.881 401.727 314.916 414.745 318.762C427.763 322.608 429.787 340.778 420.063 345.359C410.339 349.941 400.623 336.555 395.49 333.804C390.356 331.053 383.567 335.46 383.567 335.46Z" fill="#65C17E"/>
<path d="M377.2 371.588C377.2 369.95 377.301 368.313 377.357 366.675C377.476 363.409 377.587 360.143 377.706 356.877C377.927 350.906 378.571 345.037 381.046 339.526C383.232 334.532 386.887 330.321 391.525 327.456C393.249 326.42 395.106 325.621 397.045 325.082C398.803 323.304 401.041 322.077 403.485 321.549C406.514 320.935 409.628 320.857 412.685 321.319C412.795 321.319 412.795 321.512 412.685 321.494C409.783 321.127 406.838 321.336 404.018 322.11C402.81 322.444 401.638 322.9 400.522 323.472C399.822 323.852 399.149 324.279 398.507 324.751C401.135 324.205 403.849 324.23 406.465 324.824C407.408 325.057 408.331 325.365 409.225 325.744C409.939 325.592 410.668 325.53 411.397 325.56C412.347 325.594 413.291 325.73 414.212 325.965C416.097 326.499 417.901 327.285 419.575 328.302C419.667 328.357 419.575 328.504 419.483 328.449C417.839 327.552 416.077 326.89 414.249 326.48C413.365 326.279 412.467 326.147 411.562 326.085C411.066 326.057 410.568 326.057 410.072 326.085C413.784 327.795 416.767 330.769 418.49 334.475C418.536 334.576 418.379 334.659 418.343 334.558C417.316 332.408 415.818 330.518 413.959 329.028C412.1 327.539 409.928 326.489 407.606 325.956C407.321 325.882 407.027 325.846 406.741 325.781C406.843 326.204 406.824 326.701 406.879 327.097C406.962 327.759 407.073 328.412 407.211 329.066C407.476 330.412 407.829 331.74 408.269 333.04C408.71 334.357 409.236 335.645 409.842 336.895C410.434 338.202 411.175 339.437 412.05 340.575C412.123 340.667 411.976 340.777 411.912 340.676C411.13 339.452 410.219 338.321 409.501 336.996C408.817 335.783 408.226 334.519 407.735 333.215C407.239 331.89 406.851 330.527 406.576 329.139C406.429 328.412 406.318 327.676 406.235 326.931C406.144 326.49 406.116 326.037 406.153 325.588C404.63 325.357 403.083 325.326 401.553 325.496C402.132 328.734 402.758 332.102 404.57 334.917C404.625 335.009 404.469 335.101 404.414 335C403.565 333.519 402.818 331.982 402.178 330.4C401.549 328.891 401.131 327.303 400.936 325.68C398.249 326.041 395.654 326.909 393.291 328.238C388.841 330.828 385.288 334.715 383.107 339.379C380.814 344.4 379.532 349.824 379.335 355.341C378.902 362.278 378.81 369.251 378.12 376.17C378.074 376.62 377.357 376.777 377.274 376.262C377.1 374.71 377.075 373.145 377.2 371.588Z" fill="#263238"/>
<path d="M392.436 326.37C392.871 325.842 393.376 325.375 393.935 324.981C394.478 324.539 395.03 324.107 395.61 323.711C396.756 322.928 398.025 322.341 399.363 321.972C399.385 321.966 399.409 321.969 399.428 321.98C399.448 321.992 399.463 322.01 399.469 322.032C399.475 322.054 399.472 322.078 399.461 322.097C399.45 322.117 399.431 322.132 399.409 322.138C398.067 322.487 396.814 323.114 395.729 323.978C395.177 324.383 394.653 324.815 394.138 325.266C393.675 325.745 393.167 326.176 392.62 326.554C392.607 326.566 392.593 326.576 392.577 326.582C392.562 326.589 392.545 326.592 392.528 326.592C392.51 326.592 392.494 326.589 392.478 326.582C392.462 326.576 392.448 326.566 392.436 326.554C392.423 326.542 392.414 326.528 392.407 326.512C392.401 326.496 392.397 326.479 392.397 326.462C392.397 326.445 392.401 326.428 392.407 326.412C392.414 326.396 392.423 326.382 392.436 326.37Z" fill="#263238"/>
<path d="M413.513 331.292C414.604 332.562 415.615 333.898 416.539 335.294C417.441 336.704 418.197 338.202 418.793 339.766C418.793 339.812 418.738 339.839 418.711 339.766C417.199 336.812 415.416 334.006 413.384 331.384C413.31 331.32 413.439 331.2 413.513 331.292Z" fill="#263238"/>
<path d="M399.28 329.949C399.418 330.797 399.668 331.624 400.025 332.405C400.387 333.16 400.805 333.886 401.277 334.577C401.277 334.623 401.277 334.669 401.203 334.632C400.065 333.321 399.336 331.706 399.105 329.986C399.124 329.875 399.28 329.839 399.28 329.949Z" fill="#263238"/>
<path d="M378.12 335.8C378.12 335.8 368.773 324.052 350.732 328.21C333.574 332.175 325.662 363.621 342.995 367.384C360.327 371.147 357.273 342.047 363.584 337.107C368.193 333.473 374.854 334.255 378.12 335.8Z" fill="#65C17E"/>
<path opacity="0.1" d="M378.12 335.8C378.12 335.8 368.773 324.052 350.732 328.21C333.574 332.175 325.662 363.621 342.995 367.384C360.327 371.147 357.273 342.047 363.584 337.107C368.193 333.473 374.854 334.255 378.12 335.8Z" fill="black"/>
<path d="M336.766 345.377C337.93 344.351 339.159 343.401 340.446 342.534C341.67 341.694 343.004 341.028 344.412 340.556C346.393 337.52 349.067 334.998 352.213 333.196C352.035 333.187 351.857 333.187 351.68 333.196C350.723 333.146 349.765 333.146 348.809 333.196C346.884 333.315 344.998 333.785 343.243 334.586C343.142 334.586 343.068 334.466 343.17 334.429C344.938 333.657 346.791 333.092 348.69 332.746C349.619 332.583 350.561 332.503 351.505 332.506C352.011 332.506 352.526 332.506 353.023 332.598H353.317C354.972 331.767 356.716 331.125 358.515 330.685L358.018 330.556C357.136 330.354 356.242 330.207 355.341 330.114C353.545 329.907 351.73 329.935 349.941 330.197C349.922 330.191 349.906 330.179 349.895 330.164C349.884 330.148 349.877 330.129 349.877 330.11C349.877 330.09 349.884 330.071 349.895 330.056C349.906 330.04 349.922 330.028 349.941 330.022C351.751 329.806 353.575 329.732 355.396 329.802C356.924 329.852 358.442 330.049 359.932 330.39C361.021 330.195 362.121 330.069 363.226 330.013C369.518 329.756 376.372 332.102 380.246 337.272C384.119 342.442 384.846 349.361 385.563 355.598C386.62 364.3 386.851 373.082 386.253 381.828C386.253 382.343 385.489 382.251 385.471 381.763C385.241 374.348 384.974 366.933 384.266 359.536C383.935 356.114 383.576 352.682 383.006 349.287C382.592 346.369 381.755 343.527 380.521 340.851C379.176 338.118 377.059 335.841 374.431 334.3C371.787 332.788 368.839 331.883 365.802 331.651C363.079 331.425 360.339 331.68 357.706 332.405C357.799 332.934 357.814 333.473 357.752 334.006C357.694 334.675 357.562 335.335 357.356 335.975C357.158 336.579 356.905 337.164 356.602 337.723C356.261 338.348 355.847 338.9 355.47 339.489C355.415 339.59 355.258 339.489 355.332 339.397C356.095 338.331 356.591 337.098 356.776 335.8C356.887 335.192 356.96 334.577 356.997 333.96C356.997 333.491 356.997 333.04 356.997 332.562C354.134 333.441 351.462 334.851 349.122 336.72C348.68 337.079 348.257 337.447 347.843 337.833C348.437 338.371 348.951 338.99 349.37 339.673C349.988 340.575 350.527 341.53 350.98 342.525C351.814 344.536 352.375 346.649 352.646 348.809C352.646 348.919 352.489 348.947 352.48 348.809C352.146 346.724 351.452 344.712 350.428 342.866C349.95 341.95 349.415 341.065 348.828 340.216C348.524 339.784 348.202 339.351 347.908 338.937C347.733 338.716 347.53 338.486 347.365 338.247C345.235 340.357 343.5 342.831 342.24 345.552C343.09 346.453 343.8 347.477 344.347 348.588C344.997 349.751 345.562 350.96 346.04 352.204C346.914 354.608 347.634 357.067 348.193 359.564C348.193 359.665 348.046 359.702 348.027 359.564C347.48 357.05 346.62 354.615 345.47 352.314C344.93 351.179 344.359 350.066 343.758 348.974C343.135 347.955 342.569 346.902 342.066 345.819C340.858 348.452 340.159 351.289 340.005 354.182C340.005 354.292 339.821 354.274 339.83 354.182C340.161 349.649 341.547 345.258 343.878 341.357C342.783 341.826 341.67 342.277 340.612 342.847C339.255 343.567 337.994 344.454 336.858 345.488C336.794 345.589 336.72 345.451 336.766 345.377Z" fill="#263238"/>
<path d="M349.996 346.049C350.539 347.824 351.22 349.554 351.707 351.357C352.207 353.084 352.476 354.869 352.508 356.666C352.508 356.712 352.425 356.712 352.425 356.666C351.933 353.062 351.066 349.519 349.84 346.095C349.834 346.084 349.831 346.072 349.831 346.06C349.831 346.048 349.833 346.036 349.838 346.025C349.843 346.014 349.85 346.004 349.859 345.996C349.868 345.988 349.879 345.982 349.89 345.978C349.902 345.975 349.914 345.974 349.926 345.976C349.938 345.978 349.949 345.982 349.96 345.989C349.97 345.996 349.978 346.005 349.984 346.015C349.991 346.025 349.995 346.037 349.996 346.049Z" fill="#263238"/>
<path d="M338.56 341.624C339.269 340.942 340.075 340.368 340.952 339.922C341.842 339.515 342.765 339.185 343.712 338.938C343.823 338.938 343.859 339.085 343.712 339.112C342.778 339.355 341.88 339.724 341.044 340.207C340.193 340.65 339.375 341.154 338.597 341.716C338.587 341.715 338.577 341.711 338.568 341.705C338.56 341.699 338.554 341.691 338.55 341.681C338.546 341.672 338.545 341.661 338.547 341.651C338.549 341.641 338.553 341.632 338.56 341.624Z" fill="#263238"/>
<path d="M369.215 320.096C369.215 320.096 367.485 298.991 351.79 292.146C338.689 286.433 331.182 301.153 340.446 310.169C347.944 317.464 359.959 314.171 369.215 320.096Z" fill="#65C17E"/>
<path opacity="0.1" d="M369.215 320.096C369.215 320.096 367.485 298.991 351.79 292.146C338.689 286.433 331.182 301.153 340.446 310.169C347.944 317.464 359.959 314.171 369.215 320.096Z" fill="black"/>
<path d="M343.353 296.24C345.739 297.206 348.068 298.309 350.327 299.543C352.206 300.628 354.016 301.829 355.746 303.14C355.488 302.606 355.258 302.054 355.001 301.53C354.587 300.711 354.154 299.92 353.667 299.147C352.7 297.549 351.538 296.078 350.207 294.768C350.125 294.694 350.207 294.566 350.336 294.648C351.659 295.959 352.875 297.374 353.97 298.88C354.513 299.648 355.011 300.447 355.461 301.272C355.925 302.029 356.281 302.846 356.519 303.701L356.693 303.83C359.433 306.025 361.945 308.491 364.191 311.19C364.145 310.988 364.099 310.776 364.044 310.583C363.75 309.552 363.437 308.54 363.124 307.519C362.447 305.355 361.495 303.286 360.291 301.364C360.226 301.272 360.383 301.18 360.438 301.282C361.67 303.202 362.768 305.207 363.722 307.28C364.158 308.296 364.521 309.341 364.808 310.408C365.036 311.098 365.205 311.806 365.314 312.524C366.004 313.389 366.675 314.263 367.31 315.164C374.045 324.76 377.43 336.324 378.24 347.962C378.477 351.425 378.536 354.898 378.415 358.368C378.389 361.864 378.082 365.353 377.495 368.8C377.449 369.021 377.108 368.957 377.117 368.745C377.191 365.691 377.513 362.655 377.568 359.6C377.623 356.546 377.522 353.482 377.274 350.4C376.776 344.309 375.629 338.289 373.851 332.442C372.019 326.454 369.319 320.766 365.838 315.56C365.185 315.431 364.523 315.247 363.879 315.082L361.56 314.456C360.055 314.063 358.591 313.524 357.19 312.846C357.089 312.8 357.19 312.644 357.282 312.699C358.665 313.452 360.164 313.971 361.717 314.235C362.94 314.474 364.219 314.64 365.452 314.916C364.311 313.26 363.084 311.662 361.772 310.123C358.781 310.396 355.766 310.172 352.848 309.46C351.286 309.084 349.749 308.608 348.248 308.034C346.675 307.427 345.184 306.645 343.648 306.001C343.528 305.955 343.648 305.78 343.712 305.845C346.523 307.378 349.591 308.382 352.765 308.807C355.567 309.256 358.4 309.49 361.238 309.506C360.116 308.228 358.966 306.986 357.742 305.826C353.621 301.907 348.717 298.292 343.289 296.415C343.16 296.36 343.252 296.24 343.353 296.24Z" fill="#263238"/>
<path d="M356.123 296.295C356.829 297.188 357.471 298.129 358.046 299.111C358.633 300.144 359.097 301.243 359.426 302.386C359.426 302.386 359.38 302.441 359.371 302.386C358.846 301.346 358.405 300.27 357.871 299.239C357.364 298.224 356.747 297.267 356.031 296.387C355.93 296.332 356.04 296.24 356.123 296.295Z" fill="#263238"/>
<path d="M341.532 303.324C342.551 303.886 343.627 304.337 344.743 304.667C345.818 305.038 346.915 305.346 348.027 305.587V305.679C346.872 305.556 345.733 305.306 344.632 304.934C343.545 304.527 342.485 304.051 341.458 303.508C341.32 303.425 341.431 303.269 341.532 303.324Z" fill="#263238"/>
<path d="M381.414 316.296C381.506 317.216 383.787 308.632 397.054 301.015C409.106 294.106 423.485 276.12 411.672 264.758C402.132 255.585 377.007 275.577 381.414 316.296Z" fill="#65C17E"/>
<path d="M372.278 365.47C372.47 356.544 373.173 347.636 374.385 338.79C375.423 330.659 377.291 322.656 379.96 314.907C380.945 312.147 382.076 309.387 383.3 306.627C383.231 305.575 383.249 304.52 383.355 303.471C383.42 302.119 383.539 300.766 383.668 299.423C383.797 298.08 383.926 296.727 384.091 295.384C384.257 294.041 384.533 292.698 384.588 291.355C384.588 291.235 384.79 291.263 384.754 291.355C384.491 292.767 384.334 294.197 384.284 295.633C384.183 296.93 384.11 298.236 384.064 299.543C384.018 300.849 384.064 302.155 384.064 303.462C384.064 303.931 384.064 304.428 384.11 304.934C385.361 302.293 386.695 299.699 388.148 297.169C387.228 291.649 388.415 285.917 389.538 280.535C389.538 280.434 389.722 280.48 389.703 280.591C389.15 283.4 388.857 286.255 388.829 289.119C388.774 291.373 388.884 293.636 388.894 295.89C389.206 295.347 389.528 294.805 389.814 294.271C391.537 291.468 393.377 288.723 395.334 286.037C395.178 284.732 395.222 283.41 395.462 282.118C395.683 280.668 396.006 279.235 396.428 277.831C396.852 276.423 397.348 275.071 397.9 273.691C398.452 272.311 399.234 270.977 399.796 269.578C399.798 269.566 399.803 269.554 399.81 269.544C399.817 269.534 399.827 269.525 399.838 269.519C399.849 269.513 399.861 269.51 399.874 269.509C399.886 269.509 399.899 269.511 399.91 269.516C399.922 269.521 399.932 269.529 399.94 269.538C399.948 269.548 399.954 269.559 399.957 269.572C399.961 269.584 399.961 269.596 399.958 269.609C399.956 269.621 399.95 269.633 399.943 269.643C399.243 270.969 398.688 272.366 398.287 273.81C397.846 275.165 397.484 276.545 397.201 277.941C396.916 279.33 396.686 280.701 396.493 282.145C396.364 283.065 396.281 284.05 396.125 284.988C398.964 281.173 402.065 277.561 405.408 274.178C405.49 274.095 405.601 274.224 405.527 274.298C400.471 279.984 395.956 286.128 392.04 292.652C391.893 292.9 391.755 293.149 391.617 293.397C392.344 292.937 393.181 292.569 393.871 292.192C395.159 291.474 396.45 290.766 397.744 290.067L401.498 288.006C402.142 287.647 402.776 287.279 403.43 286.948C404.214 286.593 404.967 286.174 405.684 285.697C405.785 285.623 405.886 285.779 405.785 285.835C404.506 286.534 403.374 287.583 402.105 288.365C400.835 289.147 399.658 289.984 398.36 290.72C396.005 292.035 393.438 292.983 391.12 294.345C389.513 297.166 388.026 300.052 386.658 303.002C388.062 302.1 389.498 301.242 390.964 300.426C391.884 299.901 392.804 299.377 393.806 298.88C394.753 298.441 395.648 297.898 396.474 297.261C396.492 297.253 396.512 297.25 396.531 297.254C396.551 297.257 396.568 297.267 396.582 297.281C396.595 297.296 396.603 297.314 396.606 297.334C396.608 297.353 396.604 297.373 396.594 297.39C395.05 298.78 393.338 299.97 391.497 300.932C389.795 301.935 388.066 302.891 386.299 303.765C384.873 306.866 383.594 310.04 382.454 313.26C376.869 329.075 374.818 345.865 373.833 362.535C373.548 367.512 373.392 372.471 373.336 377.457C373.281 382.444 373.53 387.393 373.52 392.361C373.52 392.509 373.281 392.545 373.263 392.361C372.665 387.955 372.554 383.474 372.343 379.031C372.131 374.587 372.177 369.987 372.278 365.47Z" fill="#263238"/>
<path d="M396.382 293.866C398.809 292.788 401.165 291.558 403.439 290.186C405.743 288.886 407.978 287.467 410.136 285.936C410.136 285.936 410.21 285.936 410.182 286C408.141 287.642 405.989 289.142 403.742 290.49C401.389 291.806 398.955 292.974 396.456 293.986C396.364 294.06 396.281 293.912 396.382 293.866Z" fill="#263238"/>
<path d="M392.537 276C392.739 275.227 392.978 274.473 393.245 273.719C393.239 273.713 393.234 273.705 393.231 273.698C393.228 273.69 393.226 273.681 393.226 273.673C393.226 273.664 393.228 273.655 393.231 273.648C393.234 273.64 393.239 273.633 393.245 273.627C393.411 273.203 393.586 272.78 393.76 272.357L393.825 272.201L393.926 271.952C393.88 272.099 393.843 272.247 393.797 272.394C393.78 272.475 393.758 272.554 393.733 272.633C392.852 275.585 392.194 278.599 391.764 281.649C391.764 281.741 391.598 281.741 391.608 281.649C391.738 279.741 392.049 277.849 392.537 276Z" fill="#263238"/>
<path d="M358.257 368.672L359.205 379.896L362.103 414.129H393.153L396.051 379.896L396.998 368.672H358.257Z" fill="#455A64"/>
<path d="M358.257 368.672L359.205 379.896H396.051L396.998 368.672H358.257Z" fill="#263238"/>
<path d="M355.212 374.937H400.044V364.173H355.212V374.937Z" fill="#455A64"/>
</svg>
