<svg width="283" height="283" viewBox="0 0 283 283" fill="none" xmlns="http://www.w3.org/2000/svg">
<path d="M141.5 241.999C202.108 241.999 251.241 239.13 251.241 235.592C251.241 232.053 202.108 229.185 141.5 229.185C80.8909 229.185 31.7578 232.053 31.7578 235.592C31.7578 239.13 80.8909 241.999 141.5 241.999Z" fill="#C8D4FF" fill-opacity="0.51"/>
<path d="M135.504 73.3025H228.696C229.162 73.2965 229.625 73.3875 230.054 73.5698C230.483 73.752 230.869 74.0214 231.189 74.361C231.508 74.7006 231.753 75.1029 231.909 75.5423C232.064 75.9817 232.127 76.4487 232.092 76.9136L224.491 199.356C224.418 200.329 223.983 201.24 223.273 201.909C222.563 202.578 221.629 202.958 220.653 202.973H127.456C126.991 202.974 126.53 202.88 126.103 202.695C125.676 202.511 125.291 202.241 124.973 201.902C124.655 201.563 124.409 201.162 124.252 200.724C124.095 200.286 124.03 199.821 124.06 199.356L131.656 76.9136C131.732 75.9403 132.169 75.0305 132.881 74.3625C133.592 73.6945 134.528 73.3165 135.504 73.3025Z" fill="#65C17E"/>
<path opacity="0.4" d="M135.504 73.3025H228.696C229.162 73.2965 229.625 73.3875 230.054 73.5698C230.483 73.752 230.869 74.0214 231.189 74.361C231.508 74.7006 231.753 75.1029 231.909 75.5423C232.064 75.9817 232.127 76.4487 232.092 76.9136L224.491 199.356C224.418 200.329 223.983 201.24 223.273 201.909C222.563 202.578 221.629 202.958 220.653 202.973H127.456C126.991 202.974 126.53 202.88 126.103 202.695C125.676 202.511 125.291 202.241 124.973 201.902C124.655 201.563 124.409 201.162 124.252 200.724C124.095 200.286 124.03 199.821 124.06 199.356L131.656 76.9136C131.732 75.9403 132.169 75.0305 132.881 74.3625C133.592 73.6945 134.528 73.3165 135.504 73.3025Z" fill="black"/>
<path d="M133.366 73.3025H226.558C227.024 73.2965 227.486 73.3875 227.915 73.5698C228.344 73.752 228.731 74.0214 229.05 74.361C229.369 74.7006 229.615 75.1029 229.77 75.5423C229.926 75.9817 229.988 76.4487 229.954 76.9136L222.352 199.356C222.279 200.33 221.844 201.241 221.133 201.911C220.421 202.58 219.486 202.959 218.509 202.973H125.317C124.852 202.974 124.392 202.88 123.965 202.695C123.537 202.511 123.153 202.241 122.834 201.902C122.516 201.563 122.271 201.162 122.114 200.724C121.956 200.286 121.891 199.821 121.921 199.356L129.517 76.9136C129.592 75.9398 130.028 75.0293 130.74 74.361C131.453 73.6928 132.389 73.3152 133.366 73.3025Z" fill="#65C17E"/>
<path opacity="0.4" d="M126.977 196.362L217.689 197.449L225.047 78.8606H134.267L126.977 196.362Z" fill="black"/>
<path d="M124.326 195.162H216.211C221.271 148.801 222.827 123.773 223.518 77.4343H131.633C130.943 123.773 129.392 148.801 124.326 195.162Z" fill="white"/>
<path opacity="0.3" d="M212.527 109.662H196.707C196.547 109.664 196.389 109.633 196.243 109.569C196.097 109.506 195.965 109.412 195.858 109.294C195.749 109.178 195.664 109.041 195.61 108.891C195.555 108.741 195.532 108.582 195.541 108.423L196.52 92.6088C196.539 92.312 196.67 92.0333 196.886 91.8294C197.103 91.6255 197.389 91.5116 197.686 91.5107H213.534C213.693 91.5112 213.851 91.5442 213.997 91.6076C214.143 91.6711 214.275 91.7636 214.384 91.8796C214.493 91.9956 214.577 92.1327 214.632 92.2824C214.686 92.4321 214.709 92.5913 214.7 92.7503L213.715 108.57C213.71 108.72 213.675 108.868 213.612 109.004C213.55 109.141 213.46 109.264 213.35 109.365C213.239 109.467 213.109 109.546 212.968 109.597C212.827 109.648 212.677 109.67 212.527 109.662ZM197.952 107.33H211.429L212.249 93.8483H198.784L197.952 107.33Z" fill="#65C17E"/>
<path opacity="0.3" d="M211.027 133.757H195.213C195.054 133.756 194.897 133.724 194.751 133.66C194.605 133.597 194.473 133.505 194.364 133.389C194.254 133.273 194.169 133.136 194.115 132.986C194.06 132.836 194.037 132.677 194.047 132.517L195.026 116.698C195.045 116.401 195.176 116.123 195.393 115.92C195.609 115.717 195.895 115.605 196.192 115.605H212.012C212.171 115.603 212.33 115.635 212.476 115.699C212.622 115.762 212.753 115.856 212.861 115.973C212.97 116.089 213.054 116.227 213.109 116.377C213.163 116.526 213.187 116.686 213.178 116.845L212.193 132.659C212.176 132.956 212.045 133.236 211.829 133.44C211.612 133.644 211.325 133.757 211.027 133.757ZM196.453 131.419H209.929L210.767 117.937H197.29L196.453 131.419Z" fill="#65C17E"/>
<path opacity="0.3" d="M209.532 157.846H193.718C193.558 157.847 193.4 157.814 193.253 157.751C193.106 157.688 192.973 157.595 192.864 157.478C192.753 157.363 192.668 157.226 192.615 157.075C192.561 156.925 192.54 156.765 192.552 156.606L193.531 140.792C193.55 140.496 193.681 140.217 193.898 140.013C194.114 139.809 194.4 139.695 194.697 139.694H210.517C210.676 139.695 210.834 139.728 210.979 139.791C211.125 139.854 211.257 139.946 211.366 140.062C211.474 140.179 211.558 140.316 211.613 140.466C211.667 140.616 211.691 140.775 211.683 140.934L210.698 156.782C210.673 157.073 210.539 157.344 210.323 157.541C210.107 157.738 209.825 157.847 209.532 157.846ZM194.958 155.514H208.434L209.272 142.032H195.795L194.958 155.514Z" fill="#65C17E"/>
<path opacity="0.3" d="M208.038 181.941H192.224C192.064 181.94 191.906 181.907 191.759 181.844C191.612 181.78 191.48 181.688 191.369 181.573C191.259 181.457 191.174 181.32 191.121 181.17C191.067 181.02 191.046 180.86 191.058 180.701L192.037 164.881C192.057 164.585 192.189 164.308 192.405 164.106C192.622 163.903 192.907 163.79 193.203 163.789H209.023C209.182 163.787 209.341 163.819 209.487 163.882C209.633 163.946 209.764 164.039 209.872 164.157C209.981 164.273 210.065 164.41 210.12 164.56C210.174 164.71 210.198 164.869 210.189 165.028L209.204 180.842C209.185 181.139 209.055 181.418 208.838 181.622C208.622 181.826 208.336 181.94 208.038 181.941ZM193.464 179.603H206.94L207.778 166.121H194.301L193.464 179.603Z" fill="#65C17E"/>
<path opacity="0.3" d="M147.092 98.5179H182.914C183.448 98.5096 183.958 98.3025 184.347 97.9371C184.735 97.5717 184.973 97.0743 185.014 96.5426C185.033 96.2884 184.999 96.0331 184.914 95.7928C184.829 95.5526 184.695 95.3326 184.52 95.1469C184.346 94.9611 184.134 94.8137 183.9 94.7139C183.665 94.6142 183.413 94.5642 183.158 94.5673H147.341C146.807 94.573 146.295 94.7793 145.906 95.1452C145.517 95.5111 145.28 96.0099 145.241 96.5426C145.223 96.7963 145.257 97.0511 145.341 97.291C145.426 97.5309 145.56 97.7506 145.733 97.9362C145.907 98.1219 146.118 98.2694 146.352 98.3695C146.586 98.4697 146.838 98.5202 147.092 98.5179Z" fill="#65C17E"/>
<path opacity="0.3" d="M153.386 106.612H182.393C182.926 106.603 183.437 106.396 183.826 106.031C184.214 105.665 184.452 105.168 184.493 104.636C184.513 104.382 184.479 104.127 184.395 103.886C184.31 103.646 184.177 103.425 184.003 103.239C183.829 103.053 183.618 102.905 183.384 102.804C183.15 102.704 182.897 102.653 182.642 102.655H153.646C153.112 102.664 152.6 102.872 152.212 103.238C151.823 103.605 151.586 104.104 151.546 104.636C151.527 104.889 151.561 105.143 151.645 105.382C151.729 105.621 151.862 105.84 152.034 106.026C152.207 106.211 152.416 106.359 152.649 106.46C152.881 106.561 153.132 106.612 153.386 106.612Z" fill="#65C17E"/>
<path opacity="0.3" d="M145.343 126.75H181.165C181.42 126.748 181.672 126.798 181.906 126.898C182.14 126.998 182.35 127.146 182.524 127.332C182.698 127.517 182.832 127.737 182.916 127.977C183.001 128.217 183.035 128.471 183.016 128.725C182.975 129.257 182.737 129.754 182.349 130.12C181.96 130.485 181.45 130.692 180.916 130.701H145.094C144.84 130.703 144.588 130.652 144.354 130.552C144.12 130.452 143.909 130.304 143.735 130.119C143.561 129.933 143.428 129.713 143.343 129.474C143.259 129.234 143.225 128.979 143.243 128.725C143.284 128.193 143.522 127.696 143.911 127.331C144.299 126.965 144.81 126.758 145.343 126.75Z" fill="#65C17E"/>
<path opacity="0.3" d="M152.654 118.656H181.684C181.939 118.653 182.192 118.703 182.426 118.803C182.661 118.903 182.872 119.05 183.047 119.236C183.221 119.421 183.355 119.641 183.44 119.882C183.525 120.122 183.56 120.377 183.541 120.631C183.501 121.164 183.264 121.663 182.875 122.03C182.487 122.396 181.975 122.604 181.441 122.612H152.411C152.155 122.616 151.902 122.566 151.667 122.465C151.432 122.365 151.221 122.217 151.046 122.031C150.871 121.845 150.738 121.624 150.653 121.383C150.568 121.142 150.535 120.886 150.554 120.631C150.595 120.1 150.833 119.602 151.222 119.237C151.61 118.872 152.121 118.664 152.654 118.656Z" fill="#65C17E"/>
<path opacity="0.3" d="M144.103 146.702H179.925C180.459 146.693 180.969 146.486 181.358 146.121C181.746 145.755 181.984 145.258 182.025 144.726C182.044 144.472 182.01 144.217 181.925 143.976C181.84 143.736 181.706 143.516 181.531 143.33C181.357 143.145 181.145 142.997 180.911 142.898C180.676 142.798 180.424 142.748 180.169 142.751H144.33C143.796 142.759 143.285 142.966 142.897 143.332C142.508 143.697 142.271 144.194 142.23 144.726C142.211 144.982 142.245 145.239 142.331 145.48C142.417 145.722 142.553 145.942 142.729 146.128C142.906 146.314 143.119 146.461 143.356 146.56C143.592 146.659 143.847 146.707 144.103 146.702Z" fill="#65C17E"/>
<path opacity="0.3" d="M165.011 154.795H179.421C179.954 154.787 180.465 154.58 180.853 154.214C181.242 153.849 181.48 153.352 181.521 152.82C181.54 152.565 181.505 152.31 181.42 152.069C181.335 151.829 181.201 151.608 181.027 151.422C180.852 151.236 180.641 151.088 180.407 150.988C180.172 150.887 179.919 150.837 179.664 150.839H165.271C164.737 150.849 164.226 151.057 163.838 151.423C163.45 151.79 163.212 152.288 163.171 152.82C163.152 153.073 163.186 153.327 163.27 153.566C163.354 153.805 163.487 154.024 163.659 154.209C163.832 154.395 164.041 154.543 164.274 154.643C164.506 154.744 164.757 154.796 165.011 154.795Z" fill="#65C17E"/>
<path opacity="0.3" d="M150.414 154.795H158.016C158.549 154.787 159.06 154.58 159.448 154.214C159.837 153.849 160.075 153.352 160.116 152.82C160.134 152.565 160.1 152.31 160.015 152.069C159.93 151.829 159.796 151.608 159.622 151.422C159.447 151.236 159.236 151.088 159.002 150.988C158.767 150.887 158.514 150.837 158.259 150.839H150.658C150.124 150.849 149.613 151.057 149.225 151.423C148.836 151.79 148.599 152.288 148.558 152.82C148.539 153.074 148.573 153.329 148.658 153.57C148.743 153.81 148.877 154.03 149.052 154.216C149.226 154.401 149.438 154.549 149.672 154.649C149.907 154.748 150.159 154.798 150.414 154.795Z" fill="#65C17E"/>
<path opacity="0.3" d="M142.63 170.796H178.452C178.986 170.788 179.497 170.581 179.885 170.215C180.273 169.85 180.511 169.352 180.552 168.821C180.571 168.566 180.537 168.311 180.452 168.07C180.367 167.83 180.233 167.609 180.058 167.423C179.884 167.237 179.673 167.089 179.438 166.989C179.204 166.888 178.951 166.837 178.696 166.84H142.851C142.317 166.848 141.805 167.056 141.417 167.423C141.028 167.789 140.791 168.288 140.751 168.821C140.732 169.077 140.767 169.334 140.853 169.576C140.94 169.818 141.076 170.039 141.253 170.225C141.43 170.411 141.644 170.558 141.881 170.656C142.118 170.755 142.374 170.802 142.63 170.796Z" fill="#65C17E"/>
<path opacity="0.3" d="M148.92 178.89H177.928C178.461 178.88 178.972 178.672 179.361 178.305C179.749 177.939 179.987 177.441 180.027 176.909C180.046 176.655 180.012 176.399 179.927 176.159C179.842 175.919 179.708 175.699 179.533 175.513C179.359 175.327 179.148 175.18 178.913 175.08C178.679 174.98 178.426 174.93 178.171 174.933H149.163C148.63 174.942 148.119 175.149 147.731 175.514C147.342 175.88 147.104 176.377 147.064 176.909C147.045 177.163 147.079 177.419 147.164 177.659C147.249 177.9 147.383 178.12 147.557 178.306C147.732 178.493 147.943 178.641 148.178 178.741C148.412 178.841 148.665 178.892 148.92 178.89Z" fill="#65C17E"/>
<path d="M203.82 105.332C203.586 105.334 203.356 105.263 203.164 105.129L197.068 100.969C196.835 100.785 196.681 100.519 196.636 100.226C196.592 99.9327 196.66 99.6334 196.827 99.3885C196.995 99.1435 197.249 98.9712 197.538 98.9062C197.828 98.8413 198.131 98.8886 198.387 99.0385L203.594 102.599C205.496 100.306 210.918 94.1087 215.429 92.0767C215.569 92.0143 215.72 91.9801 215.874 91.976C216.027 91.9719 216.18 91.9981 216.323 92.053C216.466 92.108 216.597 92.1905 216.708 92.2961C216.82 92.4016 216.909 92.5281 216.972 92.6682C217.034 92.8083 217.068 92.9593 217.072 93.1127C217.076 93.266 217.05 93.4186 216.995 93.5619C216.94 93.7051 216.858 93.8361 216.752 93.9474C216.647 94.0587 216.52 94.1481 216.38 94.2105C211.456 96.401 204.805 104.806 204.743 104.891C204.632 105.029 204.492 105.141 204.332 105.217C204.173 105.294 203.998 105.333 203.82 105.332Z" fill="#65C17E"/>
<path d="M200.985 128.957C200.682 128.958 200.39 128.843 200.17 128.635L194.867 123.541C194.641 123.325 194.511 123.029 194.504 122.718C194.497 122.406 194.614 122.105 194.83 121.88C195.045 121.654 195.341 121.524 195.653 121.517C195.964 121.51 196.266 121.627 196.491 121.843L201.019 126.195C203.255 124.197 209.509 118.877 214.241 117.586C214.389 117.546 214.545 117.535 214.697 117.555C214.85 117.574 214.998 117.623 215.132 117.7C215.265 117.776 215.383 117.878 215.477 118C215.571 118.122 215.641 118.261 215.681 118.41C215.722 118.559 215.733 118.714 215.713 118.867C215.694 119.019 215.644 119.167 215.568 119.301C215.491 119.435 215.389 119.552 215.267 119.646C215.146 119.741 215.006 119.81 214.858 119.85C209.696 121.26 201.879 128.584 201.8 128.657C201.691 128.759 201.562 128.837 201.423 128.889C201.283 128.94 201.134 128.963 200.985 128.957Z" fill="#65C17E"/>
<path opacity="0.4" d="M191.064 80.2189H192.762C193.217 80.2234 193.668 80.1383 194.09 79.9683C194.512 79.7984 194.897 79.547 195.221 79.2285C195.546 78.91 195.805 78.5306 195.983 78.112C196.161 77.6935 196.255 77.2439 196.26 76.789V73.6307C196.26 73.5849 196.251 73.5395 196.233 73.4973C196.215 73.455 196.189 73.4167 196.157 73.3846C196.124 73.3524 196.085 73.3271 196.043 73.3101C196 73.2931 195.955 73.2847 195.909 73.2854H191.109C191.006 73.2869 190.908 73.3285 190.835 73.4015C190.762 73.4744 190.72 73.5729 190.719 73.676L190.741 79.8737C190.741 79.9615 190.774 80.046 190.834 80.1102C190.894 80.1743 190.976 80.2132 191.064 80.2189Z" fill="black"/>
<path d="M165.017 67.5746H193.917C194.33 67.5628 194.741 67.6428 195.119 67.8089C195.497 67.9749 195.833 68.2228 196.104 68.5347C196.375 68.8466 196.573 69.2147 196.684 69.6125C196.796 70.0102 196.817 70.4277 196.747 70.8348L195.881 77.2702C195.741 78.1597 195.294 78.9722 194.618 79.5674C193.942 80.1626 193.08 80.5032 192.18 80.5304H163.268C162.856 80.5422 162.445 80.4622 162.067 80.2961C161.689 80.1301 161.352 79.8822 161.082 79.5703C160.811 79.2584 160.613 78.8903 160.502 78.4925C160.39 78.0948 160.369 77.6773 160.438 77.2702L161.31 70.8348C161.451 69.9444 161.899 69.1312 162.576 68.5358C163.253 67.9405 164.116 67.6005 165.017 67.5746Z" fill="#65C17E"/>
<path opacity="0.6" d="M165.017 67.5746H193.917C194.33 67.5628 194.741 67.6428 195.119 67.8089C195.497 67.9749 195.833 68.2228 196.104 68.5347C196.375 68.8466 196.573 69.2147 196.684 69.6125C196.796 70.0102 196.817 70.4277 196.747 70.8348L195.881 77.2702C195.741 78.1597 195.294 78.9722 194.618 79.5674C193.942 80.1626 193.08 80.5032 192.18 80.5304H163.268C162.856 80.5422 162.445 80.4622 162.067 80.2961C161.689 80.1301 161.352 79.8822 161.082 79.5703C160.811 79.2584 160.613 78.8903 160.502 78.4925C160.39 78.0948 160.369 77.6773 160.438 77.2702L161.31 70.8348C161.451 69.9444 161.899 69.1312 162.576 68.5358C163.253 67.9405 164.116 67.6005 165.017 67.5746Z" fill="white"/>
<path opacity="0.5" d="M193.169 70.6876H180.151C180.03 70.6973 179.909 70.6819 179.794 70.6424C179.68 70.6028 179.575 70.54 179.486 70.4578C179.396 70.3757 179.325 70.276 179.277 70.165C179.228 70.0541 179.203 69.9342 179.203 69.8131C179.203 69.6919 179.228 69.5721 179.277 69.4612C179.325 69.3502 179.396 69.2505 179.486 69.1683C179.575 69.0862 179.68 69.0234 179.794 68.9838C179.909 68.9443 180.03 68.9289 180.151 68.9386H193.169C193.389 68.9563 193.594 69.0561 193.743 69.2182C193.893 69.3802 193.976 69.5926 193.976 69.8131C193.976 70.0336 193.893 70.246 193.743 70.408C193.594 70.5701 193.389 70.6699 193.169 70.6876Z" fill="white"/>
<path opacity="0.5" d="M175.821 70.6876H174.452C174.331 70.6973 174.209 70.6819 174.095 70.6424C173.98 70.6028 173.875 70.54 173.786 70.4578C173.697 70.3757 173.626 70.276 173.578 70.165C173.529 70.0541 173.504 69.9342 173.504 69.8131C173.504 69.6919 173.529 69.5721 173.578 69.4612C173.626 69.3502 173.697 69.2505 173.786 69.1683C173.875 69.0862 173.98 69.0234 174.095 68.9838C174.209 68.9443 174.331 68.9289 174.452 68.9386H175.821C175.942 68.9289 176.064 68.9443 176.178 68.9838C176.293 69.0234 176.398 69.0862 176.487 69.1683C176.576 69.2505 176.647 69.3502 176.695 69.4612C176.744 69.5721 176.769 69.6919 176.769 69.8131C176.769 69.9342 176.744 70.0541 176.695 70.165C176.647 70.276 176.576 70.3757 176.487 70.4578C176.398 70.54 176.293 70.6028 176.178 70.6424C176.064 70.6819 175.942 70.6973 175.821 70.6876Z" fill="white"/>
<path d="M95.9141 196.204L101.5 197.274L114.705 135.172L106.504 133.604L95.9141 196.204Z" fill="#65C17E"/>
<path d="M115.549 92.0543L122.239 89.8525L122.703 87.4244L116.471 87.2319L115.549 92.0543Z" fill="#263238"/>
<path d="M115.378 90.6392L122.996 88.1602L115.168 132.738L106.967 131.176L115.378 90.6392Z" fill="#65C17E"/>
<path d="M107.437 133.677L114.953 135.134L115.423 132.71L107.907 131.253L107.437 133.677Z" fill="#263238"/>
<path d="M96.9208 203.556C96.8472 203.924 97.0001 204.264 97.2604 204.315C97.5208 204.366 97.7925 204.105 97.8604 203.749C97.9283 203.392 97.7755 203.041 97.5151 202.99C97.2548 202.939 96.9887 203.194 96.9208 203.556Z" fill="#65C17E"/>
<path d="M96.5367 203.602L98.2007 203.919L101.5 197.274L95.9141 196.204L96.5367 203.602Z" fill="#263238"/>
<path d="M106.6 119.89C106.482 119.889 106.366 119.859 106.262 119.802C106.159 119.745 106.071 119.663 106.008 119.563C105.944 119.464 105.906 119.35 105.898 119.232C105.89 119.114 105.911 118.996 105.961 118.888C109.47 111.366 112.317 95.654 112.702 91.9184C112.757 91.3765 112.956 90.8593 113.278 90.4203C113.601 89.9814 114.035 89.6368 114.536 89.4223L116.386 88.6243C116.471 88.5871 116.562 88.567 116.655 88.5651C116.747 88.5632 116.839 88.5795 116.925 88.6132C117.012 88.6468 117.09 88.6971 117.157 88.7611C117.224 88.8252 117.277 88.9018 117.315 88.9865C117.352 89.0713 117.372 89.1625 117.374 89.255C117.376 89.3475 117.359 89.4395 117.326 89.5257C117.292 89.6119 117.242 89.6906 117.178 89.7573C117.114 89.8241 117.037 89.8776 116.952 89.9148L115.102 90.7128C114.831 90.83 114.597 91.017 114.423 91.2548C114.249 91.4926 114.141 91.7724 114.111 92.0656C113.709 95.9879 110.885 111.694 107.251 119.483C107.193 119.606 107.101 119.71 106.986 119.782C106.87 119.855 106.736 119.892 106.6 119.89Z" fill="#263238"/>
<path d="M80.5249 89.8752C79.1156 92.292 77.6949 94.856 76.3535 97.369C75.6913 98.6369 75.046 99.9047 74.4291 101.178C73.8122 102.452 73.2348 103.737 72.7311 105.016L72.6349 105.248C72.6145 105.285 72.6011 105.325 72.5953 105.367C72.5631 105.553 72.5499 105.743 72.5556 105.933C72.5802 106.494 72.6598 107.051 72.7934 107.597C73.1171 108.9 73.5332 110.179 74.0386 111.423C74.5423 112.725 75.1196 114.032 75.7366 115.345C76.3535 116.658 76.9818 117.971 77.5987 119.251L74.9102 121.084C72.9037 118.753 71.1206 116.238 69.5841 113.574C68.7677 112.173 68.0764 110.703 67.5182 109.181C67.2081 108.314 66.9807 107.42 66.839 106.51C66.763 105.961 66.7403 105.405 66.7711 104.852C66.794 104.524 66.8394 104.199 66.907 103.878C66.9409 103.714 66.9975 103.527 67.0485 103.352L67.139 103.063C68.0569 100.113 69.192 97.236 70.535 94.4541C71.8511 91.6955 73.3232 89.014 74.9442 86.4226L80.5249 89.8752Z" fill="#FFC3BD"/>
<path d="M77.1734 118.436L79.7034 120.405L75.8433 123.597C75.8433 123.597 74.083 121.899 74.3547 119.811L77.1734 118.436Z" fill="#FFC3BD"/>
<path d="M80.7338 123.281L78.1585 126.592L75.8379 123.598L79.7037 120.405L80.7338 123.281Z" fill="#FFC3BD"/>
<path d="M95.0864 66.2843C95.1599 66.6239 95.3977 66.8503 95.6184 66.8503C95.8391 66.8503 95.9693 66.4881 95.9014 66.1485C95.8335 65.8089 95.5901 65.5825 95.3694 65.6108C95.1486 65.6391 95.0411 65.9391 95.0864 66.2843Z" fill="#263238"/>
<path d="M95.3867 66.873C96.0099 67.837 96.7621 68.7111 97.6224 69.471C97.4217 69.6862 97.1763 69.8549 96.9036 69.9654C96.6308 70.0758 96.3372 70.1254 96.0433 70.1106L95.3867 66.873Z" fill="#ED847E"/>
<path d="M93.4678 64.6374C93.4171 64.6356 93.3689 64.6155 93.3319 64.5808C93.3122 64.5623 93.2965 64.5399 93.2858 64.5151C93.2751 64.4902 93.2695 64.4635 93.2695 64.4364C93.2695 64.4094 93.2751 64.3826 93.2858 64.3578C93.2965 64.333 93.3122 64.3106 93.3319 64.2921C93.5453 64.0456 93.8156 63.8549 94.1194 63.7365C94.4232 63.6182 94.7513 63.5757 95.0752 63.6129C95.1016 63.6174 95.1269 63.627 95.1495 63.6412C95.1722 63.6554 95.1919 63.674 95.2074 63.6958C95.2229 63.7176 95.2339 63.7422 95.2399 63.7683C95.2459 63.7944 95.2467 63.8214 95.2422 63.8478C95.2377 63.8742 95.2281 63.8994 95.2139 63.9221C95.1997 63.9448 95.1811 63.9644 95.1593 63.9799C95.1375 63.9954 95.1129 64.0065 95.0868 64.0125C95.0607 64.0185 95.0337 64.0192 95.0073 64.0148C94.7495 63.9923 94.4901 64.032 94.2508 64.1305C94.0115 64.2289 93.7992 64.3834 93.6319 64.5808C93.6104 64.6017 93.5846 64.6177 93.5562 64.6274C93.5278 64.6372 93.4976 64.6406 93.4678 64.6374Z" fill="#263238"/>
<path d="M85.3466 71.1011C85.9692 74.2763 86.5918 80.0892 84.373 82.206C84.373 82.206 85.239 85.4209 91.1311 85.4209C97.6118 85.4209 94.2328 82.206 94.2328 82.206C90.6953 81.357 90.7858 78.7364 91.4028 76.2687L85.3466 71.1011Z" fill="#FFC3BD"/>
<path d="M83.1164 82.4435C82.6466 81.3115 83.6824 77.9155 84.7295 77.5929C85.9124 77.2307 90.3895 77.4344 92.6535 78.3683C94.244 79.9758 94.7024 83.3095 94.7024 83.3095L83.1164 82.4435Z" fill="#263238"/>
<path d="M64.6084 230.656C64.7824 230.719 64.9671 230.746 65.1518 230.736C65.3364 230.727 65.5173 230.68 65.6838 230.6C65.7496 230.542 65.795 230.465 65.8134 230.379C65.8317 230.293 65.822 230.204 65.7856 230.124C65.7659 230.057 65.7319 229.995 65.6859 229.943C65.64 229.89 65.5833 229.848 65.5196 229.819C64.9536 229.541 63.5896 230.09 63.533 230.113C63.5146 230.12 63.4988 230.132 63.4876 230.149C63.4765 230.165 63.4706 230.184 63.4707 230.204C63.4704 230.223 63.4756 230.243 63.4856 230.26C63.4955 230.277 63.51 230.291 63.5273 230.3C63.8732 230.459 64.2358 230.578 64.6084 230.656ZM65.3102 229.966L65.4347 230.006C65.4714 230.022 65.504 230.046 65.5304 230.076C65.5568 230.107 65.5763 230.142 65.5875 230.181C65.6441 230.368 65.5875 230.424 65.5536 230.441C65.3215 230.639 64.4556 230.441 63.8556 230.215C64.3157 230.024 64.8128 229.939 65.3102 229.966Z" fill="#65C17E"/>
<path d="M63.5491 230.311H63.6C64.0925 230.17 65.1396 229.423 65.1509 228.93C65.1525 228.854 65.1274 228.779 65.0799 228.719C65.0324 228.659 64.9654 228.618 64.8905 228.602C64.816 228.575 64.7367 228.564 64.6577 228.57C64.5787 228.576 64.5019 228.598 64.4321 228.636C63.8661 228.93 63.4868 230.136 63.4755 230.187C63.466 230.202 63.4609 230.22 63.4609 230.238C63.4609 230.256 63.466 230.273 63.4755 230.288L63.5491 230.311ZM64.7773 228.777H64.8226C64.9471 228.823 64.9471 228.885 64.9471 228.907C64.9471 229.202 64.2453 229.785 63.7415 230.039C63.8751 229.562 64.1492 229.136 64.5283 228.817C64.6045 228.776 64.6922 228.762 64.7773 228.777Z" fill="#65C17E"/>
<path d="M95.9014 231.386C96.4674 231.386 96.9995 231.307 97.1749 231.058C97.2223 230.993 97.2479 230.915 97.2479 230.835C97.2479 230.754 97.2223 230.676 97.1749 230.611C97.1397 230.551 97.0923 230.499 97.0358 230.458C96.9793 230.417 96.9149 230.388 96.8467 230.373C96.1278 230.175 94.611 231.036 94.5487 231.075C94.53 231.086 94.515 231.101 94.5059 231.121C94.4968 231.14 94.4939 231.162 94.4978 231.183C94.501 231.203 94.5104 231.221 94.5247 231.235C94.5389 231.249 94.5572 231.259 94.577 231.262C95.0139 231.343 95.4571 231.384 95.9014 231.386ZM96.592 230.543C96.659 230.543 96.7256 230.553 96.7901 230.571C96.8317 230.578 96.8711 230.595 96.9055 230.619C96.9398 230.644 96.9681 230.676 96.9882 230.713C97.0617 230.837 97.0391 230.905 96.9882 230.939C96.7844 231.222 95.692 231.228 94.8826 231.115C95.409 230.813 95.99 230.619 96.592 230.543Z" fill="#65C17E"/>
<path d="M94.5953 231.268H94.6349C95.1613 231.036 96.1971 230.096 96.1178 229.604C96.1178 229.491 96.016 229.349 95.733 229.321C95.6316 229.308 95.5287 229.318 95.4312 229.348C95.3337 229.378 95.2436 229.429 95.167 229.496C94.601 229.949 94.4991 231.115 94.4934 231.166C94.4905 231.183 94.4927 231.201 94.4998 231.217C94.5068 231.233 94.5184 231.247 94.533 231.256C94.5516 231.268 94.5739 231.272 94.5953 231.268ZM95.6537 229.507H95.716C95.8971 229.507 95.9084 229.598 95.9141 229.621C95.965 229.915 95.2575 230.651 94.7255 230.973C94.7722 230.481 94.9698 230.014 95.2915 229.638C95.3933 229.553 95.5215 229.507 95.6537 229.507Z" fill="#65C17E"/>
<path d="M89.8281 231.166H94.1637L94.5938 221.125H90.2583L89.8281 231.166Z" fill="#FFC3BD"/>
<path d="M58.541 229.156L62.8936 230.073L65.9669 220.723L61.6087 219.806L58.541 229.156Z" fill="#FFC3BD"/>
<path d="M63.3912 229.649L58.6311 228.619C58.5471 228.6 58.4593 228.611 58.3822 228.649C58.3051 228.687 58.2432 228.75 58.2066 228.828L56.5539 232.417C56.5146 232.504 56.4956 232.6 56.4983 232.696C56.5009 232.792 56.5252 232.886 56.5692 232.971C56.6133 233.057 56.676 233.131 56.7527 233.189C56.8294 233.247 56.9182 233.287 57.0124 233.305C58.6821 233.634 59.5084 233.713 61.6026 234.166C62.8875 234.443 65.7967 235.151 67.5739 235.535C69.3512 235.92 69.9681 234.211 69.2719 233.894C66.1646 232.473 64.8628 231.222 64.0251 230.057C63.8706 229.848 63.6451 229.703 63.3912 229.649Z" fill="#263238"/>
<path d="M94.1369 230.662H89.4278C89.3422 230.662 89.2593 230.692 89.1926 230.745C89.1258 230.799 89.079 230.873 89.0599 230.956L88.2052 234.811C88.1825 234.904 88.1816 235.001 88.2026 235.094C88.2235 235.188 88.2658 235.275 88.326 235.35C88.3863 235.424 88.4629 235.484 88.5499 235.524C88.637 235.564 88.732 235.583 88.8278 235.581C90.5258 235.552 93.0049 235.456 95.15 235.456C97.6574 235.456 96.6839 235.592 99.6271 235.592C101.41 235.592 101.891 233.792 101.155 233.628C97.7593 232.886 98.1385 232.807 95.2066 231.002C94.8902 230.788 94.5188 230.67 94.1369 230.662Z" fill="#263238"/>
<path d="M76.6082 83.2021C72.5443 84.1303 69.1992 94.5221 69.1992 94.5221L77.3553 100.748C79.468 98.4964 80.96 95.7348 81.6852 92.7335C83.0832 87.2603 80.7626 82.2286 76.6082 83.2021Z" fill="#263238"/>
<path opacity="0.2" d="M80.0939 90.8147C77.8865 92.9938 77.1676 96.9728 76.9922 100.437L77.3544 100.714C79.4695 98.4641 80.9618 95.7018 81.6843 92.6995C81.7692 92.3769 81.8371 92.0486 81.8994 91.7316L80.0939 90.8147Z" fill="black"/>
<path d="M100.9 83.4059C100.9 83.4059 105.512 88.6187 101.154 120.881H77.9482C77.7898 117.321 80.0255 99.9387 76.5898 83.1851C79.1545 82.6913 81.7484 82.3642 84.3554 82.206C87.6391 82.0134 90.9313 82.0134 94.2151 82.206C96.4711 82.4313 98.706 82.8325 100.9 83.4059Z" fill="#263238"/>
<path opacity="0.2" d="M94.5952 221.125L94.3744 226.304H90.0332L90.2539 221.125H94.5952Z" fill="black"/>
<path opacity="0.2" d="M61.6082 219.806L65.9664 220.723L64.376 225.545L60.0234 224.628L61.6082 219.806Z" fill="black"/>
<path d="M83.536 67.8805C84.668 72.0349 85.0868 74.5253 87.6508 76.2516C91.5109 78.8552 96.3163 75.8724 96.4634 71.4632C96.5993 67.5012 94.7654 61.3715 90.294 60.5338C89.3117 60.3437 88.2972 60.4082 87.3468 60.721C86.3964 61.0338 85.5419 61.5846 84.8646 62.321C84.1872 63.0573 83.7095 63.9547 83.477 64.9279C83.2444 65.901 83.2648 66.9174 83.536 67.8805Z" fill="#FFC3BD"/>
<path d="M87.6773 75.7706H87.6207C86.9507 75.7743 86.2894 75.6181 85.6919 75.3149C85.0943 75.0117 84.5778 74.5703 84.1851 74.0273C82.8833 72.2105 81.0551 69.0578 80.8457 65.4185C82.4984 63.6752 88.7074 62.5262 91.4752 63.1545C93.7788 63.6808 93.4449 70.2408 91.2658 73.7896C90.8847 74.397 90.3554 74.8975 89.7277 75.244C89.0999 75.5906 88.3944 75.7718 87.6773 75.7706Z" fill="#FFC3BD"/>
<path opacity="0.8" d="M87.6773 75.7706H87.6207C86.9507 75.7743 86.2894 75.6181 85.6919 75.3149C85.0943 75.0117 84.5778 74.5703 84.1851 74.0273C82.8833 72.2105 81.0551 69.0578 80.8457 65.4185C82.4984 63.6752 88.7074 62.5262 91.4752 63.1545C93.7788 63.6808 93.4449 70.2408 91.2658 73.7896C90.8847 74.397 90.3554 74.8975 89.7277 75.244C89.0999 75.5906 88.3944 75.7718 87.6773 75.7706Z" fill="#263238"/>
<path d="M83.3656 66.8956C82.6237 66.8751 81.9046 66.6343 81.2999 66.204C80.6952 65.7736 80.2321 65.1731 79.9696 64.4788C79.4772 63.0072 79.9979 59.8999 82.9581 59.8093C85.9183 59.7187 86.2239 58.0321 85.3127 57.6868C87.2484 57.8283 86.6371 59.181 86.6371 59.181C87.1522 59.181 87.6389 57.7943 90.5991 57.9075C93.5593 58.0207 95.0026 57.3868 94.6234 56.7246C96.0214 57.0076 95.6308 58.7056 94.4479 59.1641C94.4479 59.1641 97.2496 61.2866 97.9118 60.1206C98.3816 60.9696 97.4534 61.9884 93.9159 61.5243C95.3252 63.4996 91.9858 63.0581 90.5651 63.9524C89.1445 64.8467 85.3183 67.0371 83.3656 66.8956Z" fill="#263238"/>
<path d="M90.6051 67.6881C90.8906 68.7179 91.5047 69.6262 92.3541 70.2747C93.4861 71.1124 94.3238 70.2747 94.2445 69.0069C94.1766 67.8749 93.4974 66.0354 92.2579 65.6958C91.0183 65.3562 90.2825 66.4372 90.6051 67.6881Z" fill="#FFC3BD"/>
<path d="M92.9299 120.881C92.9299 120.881 88.0057 154.014 85.3059 166.427C82.3514 180.011 66.4864 224.991 66.4864 224.991L58.7266 223.293C58.7266 223.293 69.8202 186.639 72.3106 167.638C74.218 153.041 77.9706 120.858 77.9706 120.858L92.9299 120.881Z" fill="#263238"/>
<path d="M68.3503 222.404L66.9013 225.234L58.168 223.344L58.9038 220.718L68.3503 222.404Z" fill="#65C17E"/>
<path opacity="0.3" d="M89.8187 132.687C84.1304 133.819 84.7247 155.016 85.4208 165.929C87.0566 158.214 89.4621 143.373 91.0808 132.84C90.6888 132.65 90.2447 132.597 89.8187 132.687Z" fill="black"/>
<path d="M101.154 120.881C101.154 120.881 101.754 153.295 101.279 166.517C100.792 180.271 95.9865 225.302 95.9865 225.302H88.6285C88.6285 225.302 88.3625 181.075 88.0342 167.57C87.6776 152.854 85.9004 120.881 85.9004 120.881H101.154Z" fill="#263238"/>
<path d="M97.4023 222.376C97.4362 222.376 96.9834 225.421 96.9834 225.421H88.052L87.8086 222.704L97.4023 222.376Z" fill="#65C17E"/>
<path d="M101.007 82.8343C102.139 83.3041 103.231 84.1474 103.559 86.9491C103.876 89.6376 103.265 113.2 102.529 120.722C102.519 120.98 102.417 121.227 102.242 121.416C102.066 121.606 101.829 121.727 101.573 121.758C96.9371 121.956 82.5777 120.02 77.7327 120.869C77.1667 120.971 76.6743 120.349 76.7083 119.783C77.0875 112.453 76.5385 100.624 75.6442 93.1128C75.0782 88.2056 75.0782 83.072 79.1704 82.2004C82.2154 81.5551 96.5805 80.9891 101.007 82.8343Z" fill="#65C17E"/>
<path d="M102.802 89.3433C103.062 90.5885 103.368 91.9412 103.651 93.2317C103.934 94.5222 104.285 95.8296 104.647 97.1031C105.009 98.3766 105.383 99.6275 105.813 100.822C106.199 101.954 106.684 103.051 107.262 104.099C107.473 104.501 107.725 104.881 108.015 105.231C108.122 105.35 108.207 105.429 108.23 105.452C108.252 105.474 108.23 105.503 108.337 105.537C108.702 105.657 109.086 105.707 109.469 105.684C110.039 105.659 110.606 105.598 111.167 105.503C113.723 104.964 116.232 104.226 118.672 103.295L120.32 106.125C117.98 108.003 115.36 109.501 112.554 110.563C111.771 110.85 110.964 111.068 110.143 111.213C109.149 111.401 108.131 111.417 107.132 111.259C106.489 111.15 105.869 110.94 105.292 110.636C104.773 110.346 104.29 109.994 103.855 109.589C103.164 108.944 102.554 108.218 102.038 107.427C100.439 104.799 99.1996 101.968 98.3531 99.0105C97.9286 97.6125 97.538 96.2145 97.2211 94.8052C96.9041 93.3958 96.5871 92.0261 96.3438 90.5262L102.802 89.3433Z" fill="#FFC3BD"/>
<path d="M93.2652 87.6451C89.7447 94.7258 98.1102 102.729 98.1102 102.729L107.438 97.8614C106.787 94.109 105.718 90.4412 104.251 86.9263C101.534 80.8814 95.2915 83.5756 93.2652 87.6451Z" fill="#263238"/>
<path d="M117.807 103.691L120.971 101.608L122.284 106.34C122.284 106.34 120.869 107.999 118.276 106.193L117.807 103.691Z" fill="#FFC3BD"/>
<path d="M123.727 103.521L123.625 104.518C123.574 104.996 123.343 105.437 122.98 105.752L122.284 106.318L120.971 101.586L121.373 101.484C121.669 101.407 121.98 101.403 122.278 101.473C122.577 101.542 122.854 101.684 123.085 101.884C123.317 102.085 123.496 102.338 123.608 102.624C123.72 102.909 123.761 103.217 123.727 103.521Z" fill="#FFC3BD"/>
</svg>
