<svg width="161" height="36" viewBox="0 0 161 36" fill="none" xmlns="http://www.w3.org/2000/svg">
<path d="M36.1182 29.4248C40.9814 29.4248 44.3799 26.7881 45.1855 22.4521H41.4355C40.7471 24.7812 38.7988 26.1436 36.1328 26.1436C32.4707 26.1436 30.1562 23.1699 30.1562 18.4238C30.1562 13.707 32.4854 10.7188 36.1182 10.7188C38.7256 10.7188 40.8057 12.2861 41.4355 14.7178H45.1709C44.541 10.3818 40.8936 7.4375 36.1182 7.4375C30.1123 7.4375 26.2891 11.6855 26.2891 18.4238C26.2891 25.2061 30.083 29.4248 36.1182 29.4248ZM49.2748 29H52.9223V20.0791C52.9223 17.7939 54.2553 16.2705 56.4525 16.2705C58.5619 16.2705 59.6459 17.5742 59.6459 19.7422V29H63.2934V18.9951C63.2934 15.4355 61.2865 13.1797 57.8588 13.1797C55.5004 13.1797 53.7865 14.249 52.9516 16.1387H52.8783V7.8623H49.2748V29ZM74.2674 15.9775C76.3621 15.9775 77.7684 17.5156 77.8416 19.7129H70.5906C70.7371 17.5449 72.2166 15.9775 74.2674 15.9775ZM77.8563 24.3564C77.4607 25.6455 76.1717 26.4951 74.4725 26.4951C72.0848 26.4951 70.5613 24.8252 70.5613 22.335V22.1152H81.4158V20.9287C81.4158 16.2119 78.6619 13.1504 74.2527 13.1504C69.7703 13.1504 66.9285 16.3877 66.9285 21.2949C66.9285 26.2461 69.741 29.3076 74.3992 29.3076C78.076 29.3076 80.8006 27.2861 81.2693 24.3564H77.8563ZM98.8059 19.0098C98.5568 15.7432 96.0227 13.1504 91.9211 13.1504C87.4094 13.1504 84.4797 16.2705 84.4797 21.2363C84.4797 26.2754 87.4094 29.3076 91.9504 29.3076C95.8469 29.3076 98.5275 27.0225 98.8205 23.5508H95.3781C95.0412 25.3086 93.84 26.3633 91.9943 26.3633C89.6799 26.3633 88.1857 24.4883 88.1857 21.2363C88.1857 18.043 89.6652 16.1094 91.965 16.1094C93.9133 16.1094 95.0705 17.3545 95.3635 19.0098H98.8059ZM106.147 19.9473H106.103V7.8623H102.456V29H106.103V23.6094L107.334 22.3643L112.241 29H116.46L109.985 20.1523L116.196 13.4727H111.992L106.147 19.9473ZM119.362 29H123.01V7.8623H119.362V29ZM127.553 29H131.201V13.4727H127.553V29ZM129.37 11.4365C130.512 11.4365 131.406 10.5576 131.406 9.45898C131.406 8.3457 130.512 7.4668 129.37 7.4668C128.242 7.4668 127.348 8.3457 127.348 9.45898C127.348 10.5576 128.242 11.4365 129.37 11.4365ZM135.334 17.9258C135.334 20.167 136.784 21.6611 139.655 22.335L142.482 22.9941C143.991 23.375 144.562 23.8584 144.562 24.7666C144.562 25.9238 143.464 26.6416 141.691 26.6416C139.846 26.6416 138.747 25.8506 138.527 24.4297H134.938C135.187 27.374 137.663 29.3076 141.559 29.3076C145.485 29.3076 148.195 27.3301 148.195 24.4004C148.195 22.1006 146.979 20.8994 143.874 20.167L141.105 19.5518C139.582 19.1855 138.879 18.5996 138.879 17.7207C138.879 16.5928 139.933 15.8311 141.545 15.8311C143.244 15.8311 144.313 16.6514 144.43 17.9844H147.829C147.741 15.1133 145.265 13.1504 141.618 13.1504C137.839 13.1504 135.334 15.084 135.334 17.9258ZM152.885 9.83984V13.4727H150.658V16.2852H152.885V24.8691C152.885 27.8867 154.203 29.0732 157.558 29.0732C158.334 29.0732 159.052 29.0146 159.447 28.9268V26.1436C159.213 26.1875 158.744 26.2168 158.407 26.2168C157.118 26.2168 156.532 25.6309 156.532 24.3564V16.2852H159.462V13.4727H156.532V9.83984H152.885Z" fill="#4F4F4F"/>
<circle cx="11" cy="18" r="11" fill="#4F4F4F"/>
</svg>
