<svg width="254" height="254" viewBox="0 0 254 254" fill="none" xmlns="http://www.w3.org/2000/svg">
<path d="M103.53 104.485C140.843 98.9582 205.262 156.86 221.112 102.814C232.359 64.4752 162.138 13.914 127.889 38.4758C107.152 53.3398 111.252 52.1156 81.0511 49.921C50.4238 47.696 37.5156 49.1387 32.5118 79.1665C29.926 94.7063 32.2527 125.146 54.752 133.411C82.9053 143.764 80.7362 107.863 103.53 104.485Z" fill="white"/>
<path d="M127 217.2C181.398 217.2 225.496 214.626 225.496 211.45C225.496 208.274 181.398 205.699 127 205.699C72.6021 205.699 28.5039 208.274 28.5039 211.45C28.5039 214.626 72.6021 217.2 127 217.2Z" fill="#C8D4FF"/>
<path d="M129.209 67.4774L128.854 67.198C130.454 65.166 132.135 63.2559 133.852 61.4678L134.172 61.7827C132.465 63.5557 130.794 65.4759 129.209 67.4774Z" fill="#65C17E"/>
<path d="M127.312 69.1463L125.674 71.2119L126.024 71.4897L127.662 69.4241L127.312 69.1463Z" fill="#65C17E"/>
<path d="M162.561 91.0436C173.6 73.2992 175.103 55.8138 167.067 50.1547C159.03 44.4955 143.074 51.8006 130.084 68.1734L92.9648 114.996L131.024 141.798L162.561 91.0436Z" fill="#65C17E"/>
<path opacity="0.1" d="M158.216 87.9857L125.907 138.212L121.955 130.658L154.045 84.8361C163.118 71.8771 168.203 60.0356 168.224 53.4417C168.223 53.3143 168.267 53.1906 168.349 53.0926C168.43 52.9947 168.544 52.9289 168.67 52.907C168.795 52.885 168.924 52.9083 169.034 52.9728C169.144 53.0372 169.228 53.1386 169.27 53.2589C171.556 59.8375 167.594 73.4112 158.216 87.9857Z" fill="white"/>
<path d="M131 141.786C136.138 134.489 131.783 122.574 121.271 115.173C110.76 107.771 98.0742 107.687 92.9361 114.985C87.7981 122.282 92.1537 134.197 102.665 141.598C113.176 148.999 125.862 149.083 131 141.786Z" fill="#65C17E"/>
<path opacity="0.5" d="M131 141.786C136.138 134.489 131.783 122.574 121.271 115.173C110.76 107.771 98.0742 107.687 92.9361 114.985C87.7981 122.282 92.1537 134.197 102.665 141.598C113.176 148.999 125.862 149.083 131 141.786Z" fill="white"/>
<path opacity="0.1" d="M127.051 106.903C118.7 101.021 109.226 99.3392 103.175 102.087L93.752 113.964C99.34 107.726 111.283 108.153 121.27 115.184C131.258 122.214 135.692 133.335 131.689 140.685L139.599 127.985C140.28 121.315 135.494 112.847 127.051 106.903Z" fill="black"/>
<path opacity="0.2" d="M140.427 68.6104C138.111 72.2781 136.363 79.1412 143.247 83.9824C150.13 88.8237 156.002 84.8765 158.669 81.4424L140.427 68.6104Z" fill="black"/>
<path d="M160.293 77.2161C159.506 83.7693 151.932 88.5496 143.981 82.9514C136.031 77.3533 137.977 68.6106 143.88 65.6794C147.517 63.8608 152.15 64.6634 155.32 66.8681C158.49 69.0729 160.781 73.1521 160.293 77.2161Z" fill="white"/>
<path d="M145.064 81.4017C141.97 79.2274 140.385 76.3826 140.609 73.4058C140.71 72.121 141.143 70.8843 141.864 69.8161C142.585 68.7478 143.57 67.8844 144.723 67.3098C147.487 65.928 151.399 66.3598 154.238 68.3562C157.078 70.3527 158.81 73.8985 158.429 76.9668C158.278 78.2431 157.8 79.4586 157.041 80.4955C156.281 81.5324 155.267 82.3556 154.096 82.885C151.383 84.1144 148.158 83.581 145.064 81.4017Z" fill="#65C17E"/>
<path opacity="0.3" d="M145.064 81.4017C141.97 79.2274 140.385 76.3826 140.609 73.4058C140.71 72.121 141.143 70.8843 141.864 69.8161C142.585 68.7478 143.57 67.8844 144.723 67.3098C147.487 65.928 151.399 66.3598 154.238 68.3562C157.078 70.3527 158.81 73.8985 158.429 76.9668C158.278 78.2431 157.8 79.4586 157.041 80.4955C156.281 81.5324 155.267 82.3556 154.096 82.885C151.383 84.1144 148.158 83.581 145.064 81.4017Z" fill="black"/>
<path d="M145.064 81.4019C141.971 79.2277 140.33 76.4642 140.452 73.6295C140.504 72.4244 140.889 71.2572 141.563 70.2568C142.237 69.2564 143.175 68.4617 144.272 67.9603C146.929 66.7309 150.764 67.2694 153.604 69.2709C156.443 71.2724 158.242 74.7014 157.978 77.6173C157.875 78.8211 157.441 79.9729 156.724 80.945C156.006 81.917 155.034 82.6713 153.914 83.1241C151.308 84.1959 148.158 83.5813 145.064 81.4019Z" fill="#65C17E"/>
<path opacity="0.2" d="M145.064 81.4019C141.971 79.2277 140.33 76.4642 140.452 73.6295C140.504 72.4244 140.889 71.2572 141.563 70.2568C142.237 69.2564 143.175 68.4617 144.272 67.9603C146.929 66.7309 150.764 67.2694 153.604 69.2709C156.443 71.2724 158.242 74.7014 157.978 77.6173C157.875 78.8211 157.441 79.9729 156.724 80.945C156.006 81.917 155.034 82.6713 153.914 83.1241C151.308 84.1959 148.158 83.5813 145.064 81.4019Z" fill="white"/>
<path opacity="0.3" d="M155.758 71.2775L141.457 77.5869C140.748 76.3917 140.396 75.0186 140.441 73.6296C140.469 72.9753 140.597 72.3292 140.822 71.7144L150.053 67.6504C152.293 68.2181 154.29 69.4938 155.747 71.2877L155.758 71.2775Z" fill="white"/>
<path opacity="0.3" d="M157.81 75.3464L144.689 81.1275C143.9 80.5487 143.18 79.8805 142.545 79.1361L156.82 72.8369C157.266 73.6229 157.599 74.4677 157.81 75.3464Z" fill="white"/>
<path opacity="0.1" d="M172.115 64.0333C171.678 60.5281 168.985 56.4743 164.728 53.4771C160.471 50.4799 155.752 49.3115 152.303 50.0786C158.17 47.6859 163.428 47.5944 167.065 50.1548C170.703 52.7151 172.389 57.7036 172.115 64.0333Z" fill="black"/>
<path opacity="0.5" d="M121.264 127.497C122.865 125.224 121.568 121.554 118.368 119.301C115.168 117.048 111.276 117.064 109.676 119.337C108.075 121.611 109.372 125.28 112.572 127.534C115.772 129.787 119.664 129.77 121.264 127.497Z" fill="#65C17E"/>
<path opacity="0.5" d="M106.172 125.364C104.572 127.635 100.68 127.655 97.48 125.399C94.2796 123.144 92.9791 119.476 94.5793 117.205C96.1795 114.935 100.076 114.914 103.276 117.17C106.477 119.425 107.752 123.093 106.172 125.364Z" fill="#65C17E"/>
<path opacity="0.5" d="M128.377 141.016C126.777 143.292 122.885 143.307 119.685 141.051C116.484 138.796 115.189 135.128 116.789 132.857C118.389 130.587 122.281 130.566 125.481 132.822C128.682 135.077 129.977 138.745 128.377 141.016Z" fill="#65C17E"/>
<path opacity="0.5" d="M113.283 138.877C111.683 141.148 107.792 141.163 104.591 138.912C101.391 136.662 100.095 132.989 101.696 130.713C103.296 128.437 107.187 128.427 110.387 130.678C113.588 132.928 114.863 136.601 113.283 138.877Z" fill="#65C17E"/>
<path opacity="0.5" d="M121.27 127.508C121.1 127.748 120.903 127.966 120.68 128.158C121.569 125.893 120.228 122.748 117.368 120.736C114.508 118.725 111.1 118.521 109.266 120.117C109.373 119.846 109.511 119.589 109.677 119.349C111.277 117.079 115.174 117.058 118.374 119.314C121.574 121.569 122.865 125.232 121.27 127.508Z" fill="#474C49"/>
<path opacity="0.5" d="M106.173 125.364C106.004 125.603 105.808 125.821 105.589 126.015C106.478 123.744 105.142 120.604 102.276 118.588C99.4113 116.571 96.0077 116.373 94.1738 117.973C94.2805 117.702 94.4186 117.445 94.5853 117.206C96.1855 114.93 100.077 114.915 103.277 117.17C106.478 119.426 107.753 123.089 106.173 125.364Z" fill="#474C49"/>
<path opacity="0.5" d="M128.376 141.021C128.207 141.258 128.011 141.475 127.792 141.666C128.681 139.395 127.34 136.256 124.48 134.244C121.62 132.232 118.211 132.024 116.377 133.629C116.482 133.356 116.621 133.097 116.788 132.857C118.389 130.581 122.28 130.566 125.48 132.822C128.681 135.077 129.981 138.745 128.376 141.021Z" fill="#474C49"/>
<path opacity="0.5" d="M113.284 138.877C113.118 139.116 112.922 139.333 112.7 139.522C113.589 137.256 112.248 134.112 109.388 132.1C106.528 130.088 103.119 129.885 101.285 131.485C101.39 131.212 101.528 130.953 101.697 130.713C103.297 128.437 107.188 128.427 110.389 130.678C113.589 132.928 114.864 136.601 113.284 138.877Z" fill="#474C49"/>
<path d="M118.152 85.4607C118.152 85.4607 111.294 94.3608 105.319 102.021C104.471 103.089 103.36 103.918 102.094 104.427C100.828 104.936 99.4522 105.106 98.1008 104.922C92.8836 104.277 84.3848 107.97 84.3848 107.97C84.3848 107.97 100.463 81.5592 118.152 85.4607Z" fill="#65C17E"/>
<path d="M118.152 85.4607C118.152 85.4607 111.294 94.3608 105.319 102.021C104.471 103.089 103.36 103.918 102.094 104.427C100.828 104.936 99.4522 105.106 98.1008 104.922C92.8836 104.277 84.3848 107.97 84.3848 107.97C84.3848 107.97 100.463 81.5592 118.152 85.4607Z" fill="#474C49"/>
<path d="M150.313 108.112C150.313 108.112 144.273 117.566 139.045 125.77C138.326 126.929 137.921 128.255 137.869 129.618C137.817 130.98 138.121 132.333 138.751 133.543C141.118 138.242 140.498 147.508 140.498 147.508C140.498 147.508 159.949 123.444 150.313 108.112Z" fill="#65C17E"/>
<path d="M150.313 108.112C150.313 108.112 144.273 117.566 139.045 125.77C138.326 126.929 137.921 128.255 137.869 129.618C137.817 130.98 138.121 132.333 138.751 133.543C141.118 138.242 140.498 147.508 140.498 147.508C140.498 147.508 159.949 123.444 150.313 108.112Z" fill="#474C49"/>
<path opacity="0.12" d="M172.472 176.078C178.817 160.553 151.385 156.154 140.529 160.05C129.673 163.947 118.604 166.842 118.177 156.454C117.75 146.065 126.112 139.624 122.124 137.226C119.914 135.895 119.284 138.242 118.192 141.666C114.849 152.156 95.9163 154.655 104.628 169.84C113.341 185.024 108.692 181.727 94.0367 187.818C79.3809 193.909 86.9247 211.45 101.103 211.45H186.488C225.624 211.45 188.57 136.54 172.472 176.078Z" fill="#65C17E"/>
<path opacity="0.13" d="M100.355 121.966C99.2174 118.014 93.0605 122.982 86.9949 129.002C80.9294 135.021 77.9373 148.763 72.0699 155.926C66.2025 163.088 49.4029 169.56 55.9714 180.34C65.6589 196.225 43.3933 211.465 69.7636 211.465H123.85C133.741 211.465 144.465 199.37 129.062 191.145C113.66 182.921 90.5865 202.098 84.3584 183.805C81.2698 174.727 92.4864 178.892 87.2896 164.028C82.0927 149.164 82.4382 145.115 85.0849 138.491C91.5263 122.347 102.108 127.97 100.355 121.966Z" fill="#65C17E"/>
<path opacity="0.19" d="M111.567 123.789C112.908 121.341 117.511 122.809 117.409 126.014C117.307 129.22 105.39 133.421 107.605 144.49C109.82 155.559 131.095 156.352 136.088 167.442C141.082 178.531 121.737 180.086 127.508 187.02C133.279 193.954 151.09 178.028 163.779 182.123C176.469 186.217 189.149 211.45 165.872 211.45H94.1478C78.5522 211.45 67.1628 179.248 82.1488 165.999C97.1348 152.75 85.0444 157.053 90.6375 148.564C96.2306 140.076 106.421 133.177 111.567 123.789Z" fill="#65C17E"/>
</svg>
