<svg width="313" height="313" viewBox="0 0 313 313" fill="none" xmlns="http://www.w3.org/2000/svg">
<path d="M156.5 267.653C223.534 267.653 277.875 264.48 277.875 260.566C277.875 256.653 223.534 253.48 156.5 253.48C89.4665 253.48 35.125 256.653 35.125 260.566C35.125 264.48 89.4665 267.653 156.5 267.653Z" fill="#C8D4FF"/>
<path d="M222.531 254.35C222.532 255.601 222.088 256.812 221.28 257.767C220.472 258.721 219.351 259.359 218.117 259.565C202.929 262.127 187.42 262.127 172.232 259.565C171.003 259.353 169.889 258.713 169.087 257.759C168.285 256.804 167.846 255.597 167.85 254.35V203.644H222.556L222.531 254.35Z" fill="#32cd71"/>
<path opacity="0.3" d="M167.818 204.558V211.676C171.111 212.896 181.922 213.792 195.175 213.792C208.427 213.792 219.257 212.896 222.531 211.676V204.558H167.818Z" fill="black"/>
<path d="M223.557 209.985C223.557 211.594 211.137 212.896 195.174 212.896C179.211 212.896 166.791 211.594 166.791 209.985L166.271 203.663H224.108L223.557 209.985Z" fill="#32cd71"/>
<path d="M195.174 206.568C211.136 206.568 224.076 205.267 224.076 203.663C224.076 202.059 211.136 200.758 195.174 200.758C179.212 200.758 166.271 202.059 166.271 203.663C166.271 205.267 179.212 206.568 195.174 206.568Z" fill="#32cd71"/>
<path opacity="0.3" d="M195.174 206.568C211.136 206.568 224.076 205.267 224.076 203.663C224.076 202.059 211.136 200.758 195.174 200.758C179.212 200.758 166.271 202.059 166.271 203.663C166.271 205.267 179.212 206.568 195.174 206.568Z" fill="black"/>
<path opacity="0.2" d="M175.155 250.782C174.593 250.78 174.054 250.556 173.657 250.159C173.259 249.761 173.035 249.222 173.033 248.66V219.588C173.035 219.026 173.259 218.487 173.657 218.09C174.054 217.692 174.593 217.468 175.155 217.466C175.717 217.47 176.255 217.694 176.652 218.091C177.05 218.489 177.274 219.027 177.277 219.588V248.66C177.274 249.222 177.05 249.76 176.652 250.157C176.255 250.554 175.717 250.779 175.155 250.782Z" fill="black"/>
<path opacity="0.2" d="M215.2 250.782C214.638 250.78 214.099 250.556 213.702 250.159C213.304 249.761 213.08 249.222 213.078 248.66V219.588C213.08 219.026 213.304 218.487 213.702 218.09C214.099 217.692 214.638 217.468 215.2 217.466C215.762 217.47 216.3 217.694 216.697 218.091C217.094 218.489 217.319 219.027 217.322 219.588V248.66C217.319 249.222 217.094 249.76 216.697 250.157C216.3 250.554 215.762 250.779 215.2 250.782Z" fill="black"/>
<path opacity="0.2" d="M201.847 250.782C201.285 250.779 200.747 250.554 200.35 250.157C199.953 249.76 199.728 249.222 199.725 248.66V219.588C199.728 219.027 199.953 218.489 200.35 218.091C200.747 217.694 201.285 217.47 201.847 217.466C202.409 217.468 202.948 217.692 203.346 218.09C203.743 218.487 203.967 219.026 203.969 219.588V248.66C203.967 249.222 203.743 249.761 203.346 250.159C202.948 250.556 202.409 250.78 201.847 250.782Z" fill="black"/>
<path opacity="0.2" d="M188.501 250.782C187.939 250.779 187.401 250.554 187.004 250.157C186.607 249.76 186.382 249.222 186.379 248.66V219.588C186.382 219.027 186.607 218.489 187.004 218.091C187.401 217.694 187.939 217.47 188.501 217.466C189.063 217.468 189.602 217.692 190 218.09C190.397 218.487 190.622 219.026 190.623 219.588V248.66C190.622 249.222 190.397 249.761 190 250.159C189.602 250.556 189.063 250.78 188.501 250.782Z" fill="black"/>
<path d="M120.743 87.1141C120.743 87.6886 120.573 88.2502 120.253 88.7278C119.934 89.2055 119.481 89.5778 118.95 89.7977C118.419 90.0175 117.835 90.075 117.272 89.9629C116.708 89.8509 116.191 89.5742 115.784 89.168C115.378 88.7618 115.101 88.2442 114.989 87.6808C114.877 87.1173 114.935 86.5333 115.155 86.0026C115.375 85.4718 115.747 85.0182 116.224 84.699C116.702 84.3798 117.264 84.2095 117.838 84.2095C118.609 84.2095 119.347 84.5155 119.892 85.0602C120.437 85.6049 120.743 86.3438 120.743 87.1141Z" fill="#263238"/>
<path d="M115.504 87.5335C115.476 87.5343 115.448 87.5271 115.423 87.5127C115.399 87.4983 115.379 87.4773 115.366 87.4521C115.174 87.0995 115.054 86.7124 115.011 86.3132C114.969 85.9139 115.006 85.5102 115.119 85.125C115.233 84.7399 115.421 84.381 115.674 84.0687C115.926 83.7564 116.237 83.4968 116.59 83.3049C116.943 83.1129 117.33 82.9923 117.729 82.9499C118.128 82.9076 118.532 82.9442 118.917 83.0579C119.302 83.1715 119.661 83.3599 119.973 83.6123C120.286 83.8646 120.545 84.176 120.737 84.5287C120.756 84.5655 120.759 84.608 120.748 84.6475C120.736 84.687 120.71 84.7206 120.675 84.7416C120.657 84.7515 120.637 84.7577 120.616 84.7599C120.596 84.7622 120.575 84.7603 120.555 84.7545C120.535 84.7487 120.517 84.739 120.501 84.726C120.485 84.7131 120.472 84.6971 120.462 84.679C120.114 84.0398 119.526 83.5649 118.829 83.3589C118.131 83.1528 117.379 83.2325 116.74 83.5803C116.101 83.9282 115.626 84.5156 115.42 85.2136C115.214 85.9115 115.294 86.6627 115.642 87.3019C115.652 87.32 115.658 87.3398 115.66 87.3603C115.662 87.3808 115.66 87.4016 115.655 87.4213C115.649 87.4411 115.639 87.4595 115.626 87.4756C115.613 87.4916 115.597 87.5049 115.579 87.5147C115.556 87.5267 115.53 87.5332 115.504 87.5335Z" fill="#263238"/>
<path d="M112.68 100.385C112.114 100.383 111.56 100.224 111.079 99.9258C110.598 99.6276 110.209 99.2019 109.955 98.6961C109.702 98.1902 109.593 97.624 109.642 97.0603C109.691 96.4965 109.895 95.9573 110.232 95.5026C110.472 95.1811 110.773 94.9101 111.118 94.7049C111.463 94.4998 111.844 94.3645 112.241 94.3069C112.262 94.3034 112.282 94.304 112.302 94.3088C112.322 94.3136 112.341 94.3224 112.357 94.3347C112.374 94.3471 112.388 94.3626 112.398 94.3804C112.408 94.3983 112.414 94.418 112.417 94.4384C112.422 94.479 112.411 94.5201 112.387 94.5529C112.362 94.5857 112.326 94.6075 112.285 94.6137C111.565 94.7191 110.917 95.1061 110.483 95.6896C110.048 96.2731 109.864 97.0052 109.969 97.7249C110.074 98.4446 110.461 99.093 111.045 99.5274C111.628 99.9617 112.36 100.147 113.08 100.041C113.122 100.034 113.164 100.045 113.198 100.069C113.232 100.094 113.255 100.131 113.262 100.173C113.268 100.214 113.258 100.257 113.234 100.291C113.209 100.325 113.172 100.347 113.13 100.354C112.981 100.374 112.83 100.384 112.68 100.385Z" fill="#263238"/>
<path d="M128.462 105.118C127.875 105.117 127.301 104.945 126.809 104.623C126.774 104.6 126.75 104.565 126.74 104.524C126.731 104.483 126.738 104.44 126.759 104.404C126.783 104.37 126.819 104.347 126.86 104.339C126.901 104.331 126.943 104.338 126.978 104.36C127.589 104.756 128.331 104.894 129.042 104.742C129.754 104.591 130.376 104.163 130.772 103.553C131.168 102.943 131.305 102.2 131.154 101.489C131.002 100.777 130.575 100.155 129.964 99.7594C129.929 99.7363 129.905 99.7007 129.895 99.6599C129.886 99.6191 129.893 99.5762 129.914 99.5403C129.938 99.5064 129.974 99.483 130.015 99.4748C130.056 99.4667 130.098 99.4744 130.133 99.4965C130.812 99.9383 131.288 100.631 131.457 101.423C131.626 102.215 131.474 103.042 131.035 103.722C130.818 104.06 130.536 104.352 130.205 104.58C129.874 104.808 129.5 104.967 129.107 105.049C128.895 105.094 128.679 105.117 128.462 105.118Z" fill="#263238"/>
<path d="M116.21 96.1723C118.478 96.1723 120.317 94.3338 120.317 92.0658C120.317 89.7978 118.478 87.9592 116.21 87.9592C113.942 87.9592 112.104 89.7978 112.104 92.0658C112.104 94.3338 113.942 96.1723 116.21 96.1723Z" fill="#263238"/>
<path d="M120.065 101.445C122.192 99.3179 122.192 95.8696 120.065 93.7427C117.938 91.6158 114.49 91.6158 112.363 93.7427C110.236 95.8696 110.236 99.3179 112.363 101.445C114.49 103.572 117.938 103.572 120.065 101.445Z" fill="#263238"/>
<path d="M116.788 110.539C120.114 110.539 122.81 107.843 122.81 104.517C122.81 101.191 120.114 98.4949 116.788 98.4949C113.462 98.4949 110.766 101.191 110.766 104.517C110.766 107.843 113.462 110.539 116.788 110.539Z" fill="#263238"/>
<path d="M128.672 106.309C129.436 103.072 127.431 99.8283 124.194 99.0643C120.957 98.3003 117.714 100.305 116.95 103.542C116.186 106.779 118.191 110.022 121.427 110.786C124.664 111.55 127.908 109.546 128.672 106.309Z" fill="#263238"/>
<path d="M142.784 117.35C142.784 117.838 142.784 118.458 142.828 119.021C142.872 119.585 142.872 120.186 142.909 120.768C142.991 121.932 143.072 123.109 143.197 124.28C143.423 126.629 143.738 128.969 144.143 131.297C144.249 131.873 144.343 132.462 144.462 133.038L144.737 134.459C144.806 134.684 144.737 134.64 144.65 134.634C144.562 134.628 144.65 134.746 145.019 134.746C145.964 134.652 146.885 134.387 147.736 133.964C148.237 133.739 148.75 133.494 149.263 133.232C149.777 132.969 150.296 132.668 150.766 132.405L152.594 134.515C152.157 135.014 151.694 135.489 151.204 135.936C150.722 136.395 150.212 136.823 149.676 137.219C149.116 137.641 148.523 138.02 147.905 138.352C147.201 138.736 146.447 139.019 145.664 139.191C145.181 139.296 144.686 139.338 144.193 139.316C143.59 139.281 143 139.133 142.452 138.878C141.87 138.605 141.352 138.212 140.931 137.726C140.57 137.304 140.274 136.829 140.055 136.318C139.885 135.927 139.747 135.523 139.642 135.11L139.398 134.196C139.222 133.57 139.078 132.975 138.928 132.361C138.342 129.9 137.891 127.409 137.576 124.9C137.419 123.648 137.294 122.396 137.219 121.112C137.181 120.486 137.15 119.86 137.131 119.197C137.113 118.533 137.131 117.945 137.131 117.2L142.784 117.35Z" fill="#FFC3BD"/>
<path d="M139.749 110.602C145.089 114.69 144.876 122.396 144.876 122.396L135.323 124.68C135.323 124.68 132.394 116.931 133.583 114.095C134.822 111.14 136.744 108.298 139.749 110.602Z" fill="#32cd71"/>
<path opacity="0.7" d="M139.749 110.602C145.089 114.69 144.876 122.396 144.876 122.396L135.323 124.68C135.323 124.68 132.394 116.931 133.583 114.095C134.822 111.14 136.744 108.298 139.749 110.602Z" fill="white"/>
<path d="M150.41 133.125L151.988 130.471L155.944 134.703C155.944 134.703 153.108 136.518 150.166 135.222L150.41 133.125Z" fill="#FFC3BD"/>
<path d="M153.933 129.2L159.01 132.192L155.943 134.703L151.986 130.471L153.933 129.2Z" fill="#FFC3BD"/>
<path d="M109.857 255.946L115.316 256.472L118.709 243.683L113.244 243.157L109.857 255.946Z" fill="#FFC3BD"/>
<path d="M81.875 245.198L86.7766 247.764L92.6046 236.208L87.7031 233.642L81.875 245.198Z" fill="#FFC3BD"/>
<path d="M88.0847 245.517L83.7027 241.066C83.6299 240.988 83.5307 240.94 83.4243 240.931C83.318 240.922 83.212 240.952 83.1268 241.016L79.1016 243.977C79.004 244.056 78.9239 244.154 78.8666 244.265C78.8093 244.377 78.7761 244.499 78.769 244.624C78.7619 244.749 78.7812 244.874 78.8255 244.992C78.8699 245.109 78.9383 245.215 79.0265 245.304C80.5789 246.832 81.4053 247.489 83.3333 249.449C84.5227 250.65 86.9641 253.486 88.6043 255.151C90.2444 256.817 91.9721 255.283 91.44 254.444C89.0487 250.688 88.6481 248.328 88.4978 246.419C88.4707 246.079 88.3244 245.76 88.0847 245.517Z" fill="#4F4F4F"/>
<path d="M116.167 254.813H109.55C109.432 254.815 109.317 254.854 109.223 254.927C109.129 254.999 109.062 255.1 109.03 255.214L107.616 260.416C107.58 260.54 107.574 260.67 107.599 260.796C107.623 260.922 107.676 261.041 107.755 261.143C107.834 261.245 107.935 261.326 108.051 261.382C108.167 261.437 108.295 261.464 108.423 261.461C110.746 261.461 111.847 261.461 114.746 261.461H123.616C126.026 261.461 126.533 259.026 125.532 258.801C121.062 257.812 118.483 256.447 117.106 255.145C116.845 254.922 116.51 254.804 116.167 254.813Z" fill="#4F4F4F"/>
<path opacity="0.2" d="M118.703 243.689L116.956 250.281H111.354L113.238 243.163L118.703 243.689Z" fill="black"/>
<path opacity="0.2" d="M87.6962 233.642L92.604 236.215L89.5993 242.168L84.6914 239.595L87.6962 233.642Z" fill="black"/>
<path d="M138.133 109.813C138.133 109.813 140.549 110.871 132.449 142.922L109.95 140.975C111.121 131.854 111.615 126.208 108.867 107.033C112.074 106.658 115.305 106.513 118.533 106.601C121.955 106.653 125.369 106.948 128.749 107.484C131.914 108.101 135.046 108.879 138.133 109.813Z" fill="#32cd71"/>
<path opacity="0.7" d="M138.133 109.813C138.133 109.813 140.549 110.871 132.449 142.922L109.95 140.975C111.121 131.854 111.615 126.208 108.867 107.033C112.074 106.658 115.305 106.513 118.533 106.601C121.955 106.653 125.369 106.948 128.749 107.484C131.914 108.101 135.046 108.879 138.133 109.813Z" fill="white"/>
<path d="M118.533 106.42C118.533 106.42 117.281 106.42 115.747 106.42C114.839 107.816 118.671 111.891 123.541 115.898C124.718 112.248 126.571 112.261 126.571 112.261L118.533 106.42Z" fill="white"/>
<path d="M128.744 107.403C128.744 107.403 129.314 107.484 130.678 107.797C131.58 109.193 132.087 112.686 129.426 115.729C128.381 111.973 126.578 112.311 126.578 112.311L128.744 107.403Z" fill="white"/>
<path d="M120.536 95.1833C120.899 98.5262 121.018 104.573 118.533 106.602C118.533 106.602 121.187 109.318 126.571 112.311C130.477 109.606 128.75 107.484 128.75 107.484C125.156 106.295 125.488 103.584 126.346 101.08L120.536 95.1833Z" fill="#FFC3BD"/>
<path opacity="0.2" d="M122.909 97.5933L126.346 101.08C126.135 101.66 125.976 102.257 125.87 102.864C124.493 102.545 122.49 101.105 122.465 99.6278C122.489 98.9283 122.639 98.239 122.909 97.5933Z" fill="black"/>
<path d="M133.444 84.2783C135.748 86.3191 136.424 91.2895 134.233 94.6637C133.575 91.2432 133.31 87.7588 133.444 84.2783Z" fill="#263238"/>
<path d="M119.834 88.1659C119.434 93.6684 119.152 95.9909 121.531 99.1647C125.112 103.941 131.96 103.221 133.995 97.9502C135.829 93.1989 136.173 84.9983 131.121 82.1062C130.011 81.4582 128.753 81.1059 127.468 81.083C126.183 81.0601 124.913 81.3673 123.781 81.9753C122.648 82.5833 121.691 83.4718 121 84.5557C120.309 85.6395 119.908 86.8826 119.834 88.1659Z" fill="#FFC3BD"/>
<path d="M119.104 92.5979C123.173 92.4414 125.426 87.1204 124.406 84.873C129.019 87.2769 136.006 89.1674 135.229 86.0749C134.184 81.8995 129.132 78.8384 122.916 81.0669C119.316 82.6319 116.237 86.0749 119.104 92.5979Z" fill="#263238"/>
<path d="M117.864 92.5916C118.038 93.6437 118.618 94.5856 119.479 95.2145C120.631 96.0345 121.683 95.1206 121.764 93.7872C121.839 92.579 121.332 90.701 119.98 90.4131C119.684 90.3543 119.378 90.3705 119.089 90.4603C118.801 90.5501 118.54 90.7105 118.33 90.9271C118.119 91.1436 117.967 91.4094 117.885 91.7001C117.804 91.9908 117.797 92.2973 117.864 92.5916Z" fill="#FFC3BD"/>
<path d="M132.45 142.922C132.45 142.922 137.539 176.131 134.703 197.465C132.556 213.585 118.703 248.365 118.703 248.365L109.707 248.121C109.707 248.121 118.997 214.411 120.919 201.171C124.205 178.498 115.973 141.52 115.973 141.52L132.45 142.922Z" fill="#676E88"/>
<path opacity="0.2" d="M123.673 149.727L118.871 157.295C120.317 166.269 121.235 175.319 121.619 184.401C128.368 172.319 125.2 156.118 123.673 149.727Z" fill="black"/>
<path d="M120.104 248.866L108.799 248.559L109.487 244.922L121.169 244.991L120.104 248.866Z" fill="#32cd71"/>
<path d="M127.529 142.565C127.529 142.565 123.773 179.336 115.19 199.343C108.248 215.494 91.6965 241.329 91.6965 241.329L85.0859 237.461C85.0859 237.461 95.7279 208.733 100.98 197.966C113.794 171.568 101.875 150.39 109.951 141L127.529 142.565Z" fill="#676E88"/>
<path d="M92.4166 241.893L83.9844 237.266L85.3553 233.661L94.3384 238.731L92.4166 241.893Z" fill="#32cd71"/>
<path d="M109.726 139.629L108.537 141.557C108.449 141.701 108.618 141.883 108.881 141.901L132.475 143.942C132.676 143.942 132.857 143.873 132.876 143.748L133.258 141.751C133.258 141.614 133.114 141.482 132.895 141.463L110.108 139.491C110.038 139.481 109.967 139.488 109.9 139.512C109.833 139.536 109.774 139.576 109.726 139.629Z" fill="#32cd71"/>
<path d="M112.567 142.44L111.941 142.39C111.822 142.39 111.735 142.309 111.747 142.233L112.261 139.642C112.261 139.56 112.392 139.51 112.511 139.523L113.137 139.573C113.262 139.573 113.35 139.654 113.331 139.729L112.824 142.321C112.799 142.396 112.68 142.453 112.567 142.44Z" fill="#676E88"/>
<path d="M130.741 144.011L130.115 143.961C129.989 143.961 129.902 143.88 129.921 143.805L130.434 141.213C130.434 141.138 130.559 141.082 130.678 141.094L131.304 141.144C131.423 141.144 131.511 141.225 131.498 141.301L130.985 143.892C130.972 143.98 130.834 144.024 130.741 144.011Z" fill="#676E88"/>
<path d="M121.651 143.229L121.025 143.172C120.906 143.172 120.819 143.091 120.831 143.016L121.345 140.424C121.345 140.349 121.47 140.293 121.595 140.305L122.221 140.362C122.34 140.362 122.428 140.443 122.415 140.518L121.902 143.11C121.889 143.185 121.777 143.235 121.651 143.229Z" fill="#676E88"/>
<path d="M128.455 90.9014C128.393 91.3459 128.581 91.7402 128.869 91.7778C129.157 91.8154 129.444 91.4898 129.495 91.0454C129.545 90.6009 129.363 90.2065 129.075 90.169C128.787 90.1314 128.512 90.4569 128.455 90.9014Z" fill="#263238"/>
<path d="M133.477 91.5774C133.42 92.0219 133.608 92.4163 133.896 92.4538C134.184 92.4914 134.472 92.1659 134.522 91.7214C134.572 91.2769 134.397 90.8825 134.109 90.845C133.821 90.8074 133.539 91.1329 133.477 91.5774Z" fill="#263238"/>
<path d="M133.965 90.8512L135.079 90.6885C135.079 90.6885 134.428 91.4459 133.965 90.8512Z" fill="#263238"/>
<path d="M131.503 92.0657C131.764 93.1316 132.169 94.1571 132.705 95.1143C132.458 95.2459 132.184 95.322 131.904 95.3371C131.624 95.3522 131.344 95.3061 131.084 95.2019L131.503 92.0657Z" fill="#E19A92"/>
<path d="M128.481 96.5291C127.601 96.2422 126.862 95.6312 126.416 94.8201C126.404 94.7942 126.403 94.765 126.413 94.7384C126.422 94.7117 126.441 94.6895 126.466 94.6761C126.492 94.663 126.523 94.661 126.551 94.6703C126.579 94.6797 126.602 94.6998 126.616 94.7262C126.894 95.2139 127.283 95.6291 127.752 95.938C128.221 96.247 128.756 96.4409 129.314 96.5041C129.342 96.5041 129.369 96.5153 129.389 96.5352C129.409 96.5552 129.42 96.5823 129.42 96.6105C129.42 96.6387 129.409 96.6658 129.389 96.6857C129.369 96.7057 129.342 96.7169 129.314 96.7169C129.03 96.6856 128.751 96.6226 128.481 96.5291Z" fill="#263238"/>
<path d="M126.171 88.3285C126.134 88.3135 126.102 88.2899 126.077 88.2597C126.056 88.2398 126.04 88.216 126.029 88.1896C126.017 88.1633 126.012 88.1349 126.012 88.1063C126.012 88.0777 126.017 88.0493 126.029 88.023C126.04 87.9966 126.056 87.9728 126.077 87.9529C126.384 87.6786 126.752 87.4829 127.152 87.3826C127.551 87.2823 127.968 87.2804 128.368 87.377C128.395 87.3849 128.421 87.3982 128.443 87.416C128.465 87.4339 128.484 87.4561 128.497 87.4812C128.51 87.5063 128.519 87.5338 128.521 87.5622C128.524 87.5905 128.521 87.6191 128.512 87.6462C128.496 87.7016 128.459 87.7485 128.408 87.7767C128.358 87.8048 128.299 87.8119 128.243 87.7964C127.914 87.7232 127.572 87.7292 127.245 87.8141C126.919 87.899 126.617 88.0603 126.365 88.2847C126.338 88.3056 126.306 88.3203 126.273 88.3279C126.239 88.3355 126.204 88.3357 126.171 88.3285Z" fill="#263238"/>
<path d="M135.585 89.6619C135.552 89.6492 135.522 89.63 135.497 89.6056C135.278 89.3481 135.001 89.1458 134.688 89.0153C134.376 88.8848 134.038 88.8297 133.7 88.8544C133.672 88.8607 133.642 88.861 133.614 88.855C133.585 88.8491 133.558 88.8371 133.534 88.82C133.511 88.8028 133.491 88.7808 133.476 88.7555C133.462 88.7301 133.453 88.702 133.45 88.6729C133.441 88.6156 133.455 88.5571 133.489 88.5102C133.523 88.4632 133.574 88.4317 133.631 88.4225C134.04 88.3857 134.452 88.4472 134.832 88.6018C135.212 88.7565 135.549 88.9997 135.816 89.3114C135.847 89.3476 135.865 89.3926 135.867 89.4398C135.87 89.4869 135.857 89.5337 135.831 89.5732C135.805 89.6126 135.767 89.6425 135.723 89.6585C135.678 89.6745 135.63 89.6757 135.585 89.6619Z" fill="#263238"/>
<path d="M140.536 136.894C140.942 135.631 141.592 134.46 142.449 133.449C143.307 132.437 144.355 131.605 145.535 130.999C146.714 130.392 148.002 130.024 149.323 129.915C150.645 129.807 151.975 129.959 153.238 130.364C154.501 130.77 155.671 131.42 156.683 132.277C157.694 133.135 158.527 134.184 159.133 135.363C159.739 136.542 160.107 137.83 160.216 139.151C160.325 140.473 160.172 141.803 159.767 143.066L155.873 155.248L136.643 149.069L140.536 136.894Z" fill="#ABBAF0"/>
<path opacity="0.3" d="M140.536 136.894C140.942 135.631 141.592 134.46 142.449 133.449C143.307 132.437 144.355 131.605 145.535 130.999C146.714 130.392 148.002 130.024 149.323 129.915C150.645 129.807 151.975 129.959 153.238 130.364C154.501 130.77 155.671 131.42 156.683 132.277C157.694 133.135 158.527 134.184 159.133 135.363C159.739 136.542 160.107 137.83 160.216 139.151C160.325 140.473 160.172 141.803 159.767 143.066L155.873 155.248L136.643 149.069L140.536 136.894Z" fill="black"/>
<path d="M121.563 130.797L118.045 141.752C117.993 141.909 117.973 142.075 117.986 142.24C117.999 142.405 118.045 142.566 118.121 142.713C118.197 142.861 118.301 142.991 118.427 143.098C118.554 143.205 118.7 143.286 118.858 143.335L136.637 149.044L140.543 136.887C141.363 134.34 143.16 132.222 145.541 130.999C147.921 129.775 150.69 129.547 153.238 130.365L134.264 124.267C131.714 123.452 128.945 123.681 126.563 124.906C124.182 126.13 122.384 128.248 121.563 130.797Z" fill="#AEC0FF"/>
<path d="M131.104 139.103L136.006 123.848C136.022 123.793 136.027 123.735 136.02 123.678C136.013 123.622 135.993 123.567 135.963 123.518C135.933 123.47 135.892 123.428 135.845 123.396C135.797 123.365 135.743 123.343 135.686 123.334L130.678 122.596L130.052 124.574L133.702 125.744L129.57 138.603L131.104 139.103Z" fill="#4F4F4F"/>
<path d="M128.5 138.264C128.386 138.618 128.381 138.997 128.483 139.354C128.585 139.711 128.791 140.029 129.074 140.269C129.357 140.51 129.705 140.66 130.074 140.703C130.442 140.745 130.815 140.677 131.146 140.508C131.476 140.338 131.749 140.075 131.929 139.75C132.11 139.426 132.19 139.055 132.16 138.686C132.13 138.316 131.991 137.963 131.761 137.672C131.53 137.381 131.219 137.164 130.866 137.05C130.631 136.974 130.383 136.945 130.137 136.965C129.89 136.985 129.65 137.053 129.431 137.166C129.211 137.279 129.015 137.434 128.856 137.623C128.696 137.811 128.575 138.029 128.5 138.264Z" fill="#4F4F4F"/>
<path d="M137.563 150.866L162.228 158.785C162.317 158.814 162.412 158.825 162.506 158.818C162.6 158.81 162.691 158.784 162.775 158.741C162.859 158.698 162.933 158.639 162.994 158.567C163.055 158.495 163.101 158.411 163.129 158.322C163.159 158.232 163.171 158.137 163.164 158.043C163.157 157.949 163.131 157.857 163.088 157.773C163.045 157.689 162.985 157.615 162.913 157.554C162.84 157.493 162.756 157.448 162.666 157.42L136.637 149.063C136.521 149.425 136.553 149.818 136.727 150.156C136.901 150.494 137.202 150.75 137.563 150.866Z" fill="#C8D4FF"/>
<path opacity="0.2" d="M137.563 150.866L147.642 154.102C147.732 154.132 147.827 154.143 147.921 154.135C148.016 154.128 148.108 154.102 148.192 154.059C148.276 154.016 148.351 153.957 148.413 153.885C148.474 153.813 148.521 153.729 148.55 153.639C148.607 153.458 148.59 153.262 148.504 153.093C148.417 152.924 148.267 152.796 148.086 152.738L136.637 149.063C136.521 149.425 136.553 149.818 136.727 150.156C136.901 150.494 137.202 150.75 137.563 150.866Z" fill="black"/>
<path d="M111.516 115.873L111.171 116.254L110.783 116.699C110.52 116.999 110.257 117.325 110.007 117.632C109.494 118.258 109.005 118.927 108.548 119.604C106.657 122.281 105.168 125.221 104.129 128.33C103.878 129.106 103.647 129.882 103.465 130.678C103.403 130.909 103.396 131.003 103.365 131.109C103.36 131.201 103.36 131.293 103.365 131.385C103.355 131.483 103.355 131.581 103.365 131.679C103.365 131.792 103.578 132.055 104.091 132.305C104.708 132.583 105.358 132.78 106.026 132.894C107.636 133.15 109.266 133.256 110.896 133.213C112.599 133.213 114.326 133.063 116.054 132.881C117.782 132.699 119.535 132.474 121.231 132.217L121.913 134.928C118.419 136.065 114.824 136.864 111.178 137.313C109.257 137.563 107.316 137.605 105.387 137.438C104.284 137.335 103.201 137.078 102.169 136.675C101.55 136.426 100.969 136.094 100.442 135.686C99.8205 135.198 99.3086 134.586 98.9392 133.889C98.3033 132.58 98.1333 131.094 98.4572 129.676C98.6074 128.718 98.8265 127.798 99.0832 126.834C99.5745 124.983 100.228 123.18 101.036 121.444C101.847 119.704 102.791 118.03 103.86 116.436C104.398 115.641 104.974 114.871 105.575 114.114C105.882 113.738 106.201 113.369 106.514 112.999L107.021 112.455C107.202 112.261 107.346 112.104 107.597 111.866L111.516 115.873Z" fill="#FFC3BD"/>
<path d="M119.866 132.793L124.248 130.471L124.442 135.178C124.442 135.178 121.312 136.474 119.521 135.047L119.866 132.793Z" fill="#FFC3BD"/>
<path d="M127.862 130.114L127.204 134.452L124.45 135.178L124.256 130.471L127.862 130.114Z" fill="#FFC3BD"/>
<path d="M108.867 107.046C106.107 107.534 102.244 115.447 102.244 115.447L109.199 121.707C109.199 121.707 114.727 115.672 114.432 112.079C114.182 109.043 112.379 106.42 108.867 107.046Z" fill="#32cd71"/>
<path opacity="0.7" d="M108.867 107.046C106.107 107.534 102.244 115.447 102.244 115.447L109.199 121.707C109.199 121.707 114.727 115.672 114.432 112.079C114.182 109.043 112.379 106.42 108.867 107.046Z" fill="white"/>
<path d="M90.2382 247.933C90.1655 247.943 90.0918 247.943 90.0191 247.933C89.3243 247.896 88.5856 246.832 88.2037 246.206C88.1919 246.188 88.1855 246.167 88.1855 246.146C88.1855 246.125 88.1919 246.104 88.2037 246.087C88.2152 246.068 88.2324 246.054 88.2527 246.046C88.273 246.038 88.2954 246.037 88.3164 246.043C88.5418 246.087 90.4886 246.525 90.7328 247.182C90.7581 247.254 90.7645 247.33 90.7513 247.405C90.7382 247.48 90.7059 247.549 90.6576 247.608C90.5574 247.76 90.41 247.874 90.2382 247.933ZM88.5292 246.343C89.0864 247.201 89.6373 247.714 90.0316 247.739C90.1215 247.741 90.2102 247.72 90.2892 247.677C90.3682 247.634 90.4347 247.571 90.4824 247.495C90.5094 247.468 90.5279 247.433 90.5356 247.395C90.5434 247.357 90.5401 247.318 90.5262 247.282C90.3759 246.882 89.2053 246.506 88.5292 246.343Z" fill="#32cd71"/>
<path d="M90.0378 246.206C89.4605 246.365 88.8548 246.39 88.2662 246.281C88.2477 246.275 88.2311 246.264 88.218 246.25C88.2048 246.236 88.1955 246.218 88.1911 246.2C88.1823 246.183 88.1777 246.165 88.1777 246.146C88.1777 246.128 88.1823 246.109 88.1911 246.093C88.2412 246.049 89.3805 244.935 90.1755 244.991C90.2738 244.993 90.3703 245.017 90.4573 245.063C90.5443 245.109 90.6193 245.174 90.6763 245.254C90.7447 245.327 90.7867 245.421 90.7958 245.521C90.8049 245.621 90.7804 245.721 90.7264 245.805C90.5466 246.01 90.3048 246.151 90.0378 246.206ZM88.5291 246.106C89.1551 246.193 90.3257 246.037 90.5699 245.68C90.6074 245.624 90.6387 245.536 90.5261 245.392C90.4882 245.337 90.4378 245.292 90.379 245.26C90.3202 245.229 90.2547 245.212 90.188 245.21C89.6434 245.173 88.8546 245.811 88.5291 246.106Z" fill="#32cd71"/>
<path d="M118.502 255.652C117.897 255.638 117.294 255.56 116.705 255.42C116.685 255.413 116.667 255.399 116.654 255.382C116.642 255.364 116.635 255.342 116.635 255.32C116.635 255.298 116.642 255.277 116.654 255.259C116.667 255.241 116.685 255.228 116.705 255.22C116.974 255.089 119.372 253.968 119.973 254.394C120.027 254.431 120.07 254.482 120.098 254.541C120.125 254.601 120.136 254.667 120.129 254.732C120.127 254.854 120.096 254.974 120.039 255.083C119.983 255.191 119.902 255.285 119.804 255.358C119.411 255.589 118.956 255.692 118.502 255.652ZM117.081 255.276C117.788 255.408 119.103 255.583 119.647 255.176C119.717 255.121 119.775 255.052 119.816 254.973C119.857 254.895 119.88 254.808 119.885 254.719C119.891 254.692 119.888 254.663 119.877 254.638C119.865 254.612 119.847 254.59 119.823 254.575C119.485 254.344 118.07 254.838 117.062 255.276H117.081Z" fill="#32cd71"/>
<path d="M116.724 255.408C116.701 255.414 116.677 255.414 116.655 255.408C116.64 255.394 116.628 255.376 116.622 255.356C116.615 255.337 116.614 255.316 116.617 255.295C116.617 255.195 117.187 252.835 118.495 252.985C118.821 253.029 118.908 253.186 118.927 253.317C119.008 253.943 117.5 255.126 116.78 255.427L116.724 255.408ZM118.364 253.173C117.537 253.173 117.055 254.55 116.893 255.101C117.675 254.688 118.771 253.705 118.702 253.323C118.702 253.292 118.702 253.204 118.458 253.179L118.364 253.173Z" fill="#32cd71"/>
<path d="M128.957 90.1752L130.065 90.0125C130.065 90.0125 129.408 90.7699 128.957 90.1752Z" fill="#263238"/>
<path d="M167.473 142.547L143.234 147.555C142.82 147.632 142.391 147.545 142.04 147.311C141.689 147.077 141.444 146.715 141.356 146.303L140.223 141.044L139.816 139.104L140.53 136.888C140.629 136.569 140.749 136.258 140.887 135.955C140.902 135.907 140.923 135.86 140.949 135.817C141.349 134.905 141.888 134.06 142.546 133.313L143.798 133.05L164.581 128.737C164.995 128.659 165.424 128.747 165.775 128.98C166.126 129.214 166.371 129.576 166.459 129.989L168.669 140.631C168.759 141.043 168.685 141.474 168.461 141.832C168.238 142.19 167.883 142.447 167.473 142.547Z" fill="#32cd71"/>
<path opacity="0.3" d="M166.272 129.426L154.578 141.32L152.074 140.305L142.334 136.355L140.963 135.798C141.363 134.886 141.901 134.042 142.559 133.294L143.811 133.031L164.594 128.718C164.913 128.655 165.243 128.688 165.542 128.814C165.841 128.94 166.095 129.153 166.272 129.426Z" fill="black"/>
<path d="M166.27 129.426L152.073 140.324L151.146 141.038L142.226 136.612L140.898 135.986C140.914 135.938 140.935 135.892 140.961 135.848C141.361 134.936 141.899 134.092 142.557 133.344L143.809 133.081L164.593 128.768C164.906 128.7 165.232 128.725 165.531 128.842C165.83 128.959 166.087 129.162 166.27 129.426Z" fill="#32cd71"/>
<path opacity="0.2" d="M166.27 129.426L152.073 140.324L151.146 141.038L142.226 136.612L140.898 135.986C140.914 135.938 140.935 135.892 140.961 135.848C141.361 134.936 141.899 134.092 142.557 133.344L143.809 133.081L164.593 128.768C164.906 128.7 165.232 128.725 165.531 128.842C165.83 128.959 166.087 129.162 166.27 129.426Z" fill="white"/>
<path d="M197.065 164.5L189.678 172.463C189.387 172.773 188.984 172.956 188.559 172.971C188.133 172.987 187.719 172.833 187.406 172.544L169.289 155.674C168.977 155.383 168.794 154.98 168.778 154.554C168.763 154.128 168.918 153.714 169.208 153.401L176.62 145.439C176.763 145.282 176.936 145.156 177.129 145.068C177.322 144.979 177.53 144.929 177.742 144.922C177.954 144.914 178.165 144.949 178.364 145.024C178.562 145.098 178.744 145.212 178.898 145.357L197.009 162.228C197.243 162.446 197.407 162.73 197.48 163.042C197.552 163.354 197.53 163.681 197.415 163.981C197.337 164.177 197.218 164.354 197.065 164.5Z" fill="#32cd71"/>
<path opacity="0.3" d="M197.389 164.012L180.913 161.327L177.088 145.051C177.38 144.916 177.705 144.871 178.023 144.921C178.34 144.971 178.636 145.114 178.872 145.332L196.982 162.203C197.228 162.426 197.4 162.719 197.472 163.043C197.545 163.367 197.516 163.705 197.389 164.012Z" fill="black"/>
<path d="M197.389 164.012L181.345 159.229L177.088 145.107C177.38 144.972 177.705 144.927 178.023 144.977C178.34 145.028 178.636 145.171 178.872 145.388L196.982 162.259C197.217 162.478 197.381 162.761 197.454 163.073C197.526 163.386 197.504 163.713 197.389 164.012Z" fill="#32cd71"/>
<path opacity="0.2" d="M197.389 164.012L181.345 159.229L177.088 145.107C177.38 144.972 177.705 144.927 178.023 144.977C178.34 145.028 178.636 145.171 178.872 145.388L196.982 162.259C197.217 162.478 197.381 162.761 197.454 163.073C197.526 163.386 197.504 163.713 197.389 164.012Z" fill="white"/>
<path d="M203.506 177.615L211.644 187.118C211.799 187.3 211.916 187.511 211.987 187.74C212.058 187.968 212.082 188.209 212.056 188.447C212.031 188.684 211.958 188.915 211.841 189.123C211.723 189.332 211.565 189.514 211.375 189.659L193.696 203.431C193.399 203.61 193.046 203.672 192.706 203.605C192.366 203.538 192.063 203.347 191.856 203.068L185.49 195.807C185.37 195.667 185.271 195.511 185.195 195.343C185.077 195.113 185.028 194.854 185.053 194.596C185.079 194.338 185.178 194.094 185.339 193.891L200.989 177.546C201.234 177.282 201.557 177.102 201.91 177.035C202.264 176.967 202.63 177.015 202.955 177.171C203.165 177.283 203.352 177.433 203.506 177.615Z" fill="#AEC0FF"/>
<path opacity="0.3" d="M202.955 177.189L199.068 194.479L185.221 195.362C185.103 195.132 185.053 194.872 185.079 194.615C185.104 194.357 185.204 194.112 185.365 193.91L201.015 177.565C201.257 177.306 201.576 177.13 201.924 177.062C202.273 176.995 202.634 177.039 202.955 177.189Z" fill="black"/>
<path d="M202.954 177.189L196.438 195.538L185.207 195.362C185.089 195.132 185.04 194.872 185.065 194.615C185.091 194.357 185.19 194.113 185.351 193.91L201.001 177.565C201.245 177.303 201.565 177.126 201.916 177.058C202.267 176.991 202.631 177.037 202.954 177.189Z" fill="#C8D4FF"/>
<path opacity="0.2" d="M202.954 177.189L196.438 195.538L185.207 195.362C185.089 195.132 185.04 194.872 185.065 194.615C185.091 194.357 185.19 194.113 185.351 193.91L201.001 177.565C201.245 177.303 201.565 177.126 201.916 177.058C202.267 176.991 202.631 177.037 202.954 177.189Z" fill="white"/>
</svg>
