<svg width="291" height="291" viewBox="0 0 291 291" fill="none" xmlns="http://www.w3.org/2000/svg">
<path d="M145.5 248.84C207.822 248.84 258.344 245.89 258.344 242.252C258.344 238.613 207.822 235.664 145.5 235.664C83.1782 235.664 32.6562 238.613 32.6562 242.252C32.6562 245.89 83.1782 248.84 145.5 248.84Z" fill="#C8D4FF"/>
<path d="M184.372 74.5425H183.767V78.372H184.372V74.5425Z" fill="#32cd71"/>
<path d="M184.372 71.4289H183.79C183.787 69.1984 182.899 67.0602 181.321 65.4836C179.743 63.9069 177.605 63.0206 175.374 63.019V62.437C177.757 62.4447 180.04 63.3943 181.726 65.0788C183.411 66.7633 184.363 69.0459 184.372 71.4289Z" fill="#32cd71"/>
<path d="M175.351 64.5322H95.0231C91.211 64.5322 88.1206 67.6226 88.1206 71.4347V235.268C88.1206 239.08 91.211 242.17 95.0231 242.17H175.351C179.163 242.17 182.253 239.08 182.253 235.268V71.4347C182.253 67.6226 179.163 64.5322 175.351 64.5322Z" fill="#32cd71"/>
<path opacity="0.95" d="M179.122 235.268V71.4288C179.122 69.0856 177.223 67.186 174.879 67.186H94.5517C92.2084 67.186 90.3089 69.0856 90.3089 71.4288L90.3089 235.268C90.3089 237.611 92.2084 239.51 94.5517 239.51H174.879C177.223 239.51 179.122 237.611 179.122 235.268Z" fill="white"/>
<path d="M134.721 232.934C137.373 232.934 139.523 230.784 139.523 228.133C139.523 225.481 137.373 223.331 134.721 223.331C132.07 223.331 129.92 225.481 129.92 228.133C129.92 230.784 132.07 232.934 134.721 232.934Z" fill="#32cd71"/>
<path d="M131.049 66.7031C131.049 67.7543 131.466 68.7624 132.21 69.5057C132.953 70.249 133.961 70.6665 135.012 70.6665C136.063 70.6665 137.072 70.249 137.815 69.5057C138.558 68.7624 138.976 67.7543 138.976 66.7031H131.049Z" fill="#32cd71"/>
<path opacity="0.7" d="M160.929 83.9014H109.131C107.018 83.9075 104.993 84.7495 103.499 86.2435C102.005 87.7375 101.163 89.762 101.157 91.8748V97.1942C101.163 99.307 102.005 101.332 103.499 102.826C104.993 104.319 107.018 105.161 109.131 105.168H160.929L168.902 109.893V91.8515C168.888 89.7432 168.043 87.7256 166.55 86.2369C165.057 84.7483 163.037 83.909 160.929 83.9014Z" fill="#32cd71"/>
<path d="M159.485 91.5195H110.545V92.8465H159.485V91.5195Z" fill="white"/>
<path d="M159.486 96.2222H119.962V97.5491H159.486V96.2222Z" fill="white"/>
<path opacity="0.5" d="M109.102 119.31H160.9C163.013 119.316 165.037 120.158 166.531 121.652C168.025 123.146 168.867 125.171 168.873 127.283V132.597C168.867 134.71 168.025 136.734 166.531 138.228C165.037 139.722 163.013 140.564 160.9 140.571H109.102L101.128 145.296V127.254C101.141 125.146 101.986 123.128 103.479 121.64C104.973 120.152 106.994 119.315 109.102 119.31Z" fill="#C8D4FF"/>
<path d="M159.485 126.923H110.545V128.25H159.485V126.923Z" fill="#C8D4FF"/>
<path d="M133.243 131.631H110.545V132.958H133.243V131.631Z" fill="#C8D4FF"/>
<path d="M146.018 131.631H136.788V132.958H146.018V131.631Z" fill="#C8D4FF"/>
<path opacity="0.7" d="M160.929 154.713H109.131C107.018 154.719 104.993 155.561 103.499 157.055C102.005 158.549 101.163 160.574 101.157 162.686V168C101.162 170.113 102.003 172.139 103.498 173.633C104.992 175.127 107.017 175.969 109.131 175.973H160.929L168.902 180.699V162.657C168.887 160.55 168.041 158.534 166.548 157.046C165.055 155.559 163.036 154.72 160.929 154.713Z" fill="#32cd71"/>
<path d="M159.485 162.326H110.545V163.653H159.485V162.326Z" fill="white"/>
<path d="M159.486 167.034H119.962V168.361H159.486V167.034Z" fill="white"/>
<path opacity="0.5" d="M109.102 190.116H129.256C131.369 190.124 133.392 190.966 134.886 192.46C136.38 193.954 137.222 195.977 137.23 198.09V203.409C137.222 205.521 136.38 207.545 134.886 209.039C133.392 210.532 131.369 211.375 129.256 211.382H109.102L101.128 216.103V198.09C101.135 195.977 101.977 193.952 103.471 192.458C104.965 190.964 106.989 190.122 109.102 190.116Z" fill="#C8D4FF"/>
<path d="M113.141 200.749C113.141 201.21 113.004 201.66 112.749 202.043C112.493 202.426 112.129 202.724 111.704 202.9C111.278 203.076 110.81 203.123 110.359 203.033C109.907 202.943 109.492 202.721 109.167 202.396C108.841 202.07 108.619 201.655 108.53 201.204C108.44 200.752 108.486 200.284 108.662 199.859C108.838 199.433 109.137 199.07 109.52 198.814C109.902 198.558 110.352 198.421 110.813 198.421C111.428 198.429 112.016 198.677 112.451 199.112C112.886 199.547 113.133 200.134 113.141 200.749Z" fill="#C8D4FF"/>
<path d="M117.849 201.221C119.151 201.221 120.206 200.165 120.206 198.863C120.206 197.562 119.151 196.506 117.849 196.506C116.547 196.506 115.492 197.562 115.492 198.863C115.492 200.165 116.547 201.221 117.849 201.221Z" fill="#C8D4FF"/>
<path d="M127.266 203.572C127.266 204.033 127.129 204.483 126.874 204.866C126.618 205.248 126.254 205.547 125.829 205.723C125.403 205.899 124.935 205.945 124.484 205.855C124.032 205.766 123.617 205.544 123.292 205.218C122.966 204.893 122.744 204.478 122.655 204.026C122.565 203.575 122.611 203.107 122.787 202.681C122.963 202.256 123.262 201.892 123.644 201.636C124.027 201.381 124.477 201.244 124.938 201.244C125.555 201.244 126.147 201.489 126.584 201.926C127.021 202.363 127.266 202.955 127.266 203.572Z" fill="#C8D4FF"/>
<path d="M200.4 195.086C201.04 196.361 201.611 197.641 202.21 198.922C202.809 200.202 203.374 201.506 203.909 202.81C204.445 204.113 205.004 205.423 205.516 206.756C206.028 208.088 206.546 209.421 207.017 210.83L204.934 208.868C206.149 209.283 207.422 209.503 208.705 209.52C210.194 209.56 211.684 209.492 213.163 209.316C214.7 209.153 216.248 208.897 217.819 208.606C219.391 208.315 220.962 207.954 222.475 207.599L223.855 210.952C222.34 211.784 220.773 212.517 219.164 213.146C217.552 213.793 215.901 214.341 214.222 214.787C212.477 215.258 210.693 215.569 208.891 215.718C206.882 215.913 204.854 215.748 202.903 215.229L201.535 214.851L200.79 213.251C199.673 210.8 198.462 208.286 197.298 205.778C196.716 204.521 196.105 203.258 195.523 201.995C194.941 200.732 194.359 199.463 193.777 198.194L200.4 195.086Z" fill="#FFC3BD"/>
<path d="M220.578 208.624L222.865 206.389L226.497 210.317C226.497 210.317 225.182 212.616 221.911 211.277L220.578 208.624Z" fill="#FFC3BD"/>
<path d="M226.317 204.911L228.319 208.176L226.503 210.317L222.871 206.389L226.317 204.911Z" fill="#FFC3BD"/>
<path d="M190.122 189.854C194.778 188.056 198.386 190.739 204.27 198.165L197.379 205.248C197.379 205.248 181.043 193.334 190.122 189.854Z" fill="#647291"/>
<path opacity="0.2" d="M198.864 197.537C196.664 196.111 194.749 196.512 193.131 197.839C193.742 200.103 195.308 202.699 196.815 204.823C197.17 205.103 197.397 205.254 197.397 205.254L201.238 201.302C201.138 200.54 200.874 199.809 200.464 199.159C200.054 198.509 199.508 197.956 198.864 197.537Z" fill="black"/>
<path d="M225.583 239.225L231.159 238.579L230.693 227.149L225.124 227.789L225.583 239.225Z" fill="#FFC3BD"/>
<path d="M231.205 236.175L224.925 236.263C224.823 236.268 224.727 236.31 224.653 236.38C224.579 236.451 224.533 236.545 224.524 236.647L223.814 241.588C223.793 241.705 223.797 241.825 223.827 241.939C223.856 242.054 223.91 242.161 223.985 242.254C224.059 242.346 224.153 242.421 224.259 242.474C224.365 242.527 224.481 242.556 224.599 242.56C226.549 242.496 227.445 242.35 229.907 242.31C231.426 242.31 236.001 242.397 238.096 242.368C240.191 242.339 240.331 240.04 239.464 239.836C235.57 238.963 233.329 237.712 232.032 236.501C231.81 236.288 231.513 236.171 231.205 236.175Z" fill="#263238"/>
<path d="M232.538 234.72C232.626 234.687 232.721 234.676 232.814 234.687C232.907 234.698 232.996 234.731 233.074 234.785C233.135 234.815 233.188 234.86 233.228 234.916C233.267 234.972 233.292 235.037 233.301 235.105C233.37 235.687 232.137 236.734 231.968 236.851C231.951 236.863 231.931 236.87 231.91 236.87C231.889 236.87 231.868 236.863 231.851 236.851C231.832 236.84 231.816 236.824 231.805 236.804C231.795 236.785 231.791 236.762 231.793 236.74C231.834 236.111 231.979 234.994 232.474 234.744L232.538 234.72ZM232.032 236.501C232.521 236.077 233.126 235.436 233.085 235.116C233.085 235.081 233.085 235.029 232.986 234.982C232.929 234.941 232.861 234.915 232.79 234.909C232.72 234.903 232.649 234.916 232.585 234.947C232.317 235.093 232.113 235.669 232.032 236.501Z" fill="#32cd71"/>
<path d="M232.48 236.292C232.686 236.183 232.912 236.117 233.143 236.097C233.375 236.077 233.609 236.104 233.83 236.175C233.906 236.223 233.965 236.295 233.997 236.378C234.03 236.462 234.035 236.554 234.011 236.641C233.999 236.723 233.968 236.801 233.92 236.868C233.873 236.936 233.81 236.992 233.737 237.031C233.155 237.351 231.921 236.874 231.869 236.856C231.851 236.848 231.835 236.836 231.822 236.821C231.809 236.806 231.799 236.788 231.793 236.769C231.789 236.75 231.791 236.73 231.797 236.712C231.803 236.694 231.814 236.677 231.828 236.664C232.022 236.504 232.243 236.378 232.48 236.292ZM233.563 236.874L233.627 236.845C233.672 236.818 233.711 236.782 233.742 236.739C233.772 236.696 233.792 236.646 233.801 236.594C233.801 236.455 233.772 236.402 233.726 236.379C233.446 236.199 232.591 236.432 232.131 236.728C232.585 236.909 233.081 236.959 233.563 236.874Z" fill="#32cd71"/>
<path opacity="0.2" d="M225.124 227.795L230.693 227.149L230.932 233.045L225.333 233.068L225.124 227.795Z" fill="black"/>
<path d="M197.787 221.16C197.787 221.16 212.256 207.704 221.649 207.501C228.505 207.355 233.405 230.03 233.405 230.03L225.257 230.187C225.257 230.187 223.826 222.167 218.5 219.955C210.806 231.502 179.442 254.323 182.416 229.582C187.072 227.83 197.787 221.16 197.787 221.16Z" fill="#32cd71"/>
<path opacity="0.2" d="M197.787 221.16C197.787 221.16 212.256 207.704 221.649 207.501C228.505 207.355 233.405 230.03 233.405 230.03L225.257 230.187C225.257 230.187 223.826 222.167 218.5 219.955C210.806 231.502 179.442 254.323 182.416 229.582C187.072 227.83 197.787 221.16 197.787 221.16Z" fill="black"/>
<path d="M233.376 231.153L223.796 232.073L223.825 228.581L233.958 227.376L233.376 231.153Z" fill="#263238"/>
<path d="M178.791 230.437C178.791 230.437 172.569 218.285 171.807 198.712C171.632 194.103 175.782 189.755 180.537 189.511C184.529 189.302 188.754 189.249 192.177 189.261C195.599 189.272 198.218 191.542 198.608 194.836C199.469 202.1 199.62 213.129 204.073 226.264L178.791 230.437Z" fill="#647291"/>
<path opacity="0.2" d="M174.722 198.812C178.15 194.941 179.332 196.175 179.844 196.641C184.593 200.942 177.621 214.333 176.224 216.306C175.242 211.305 174.659 206.233 174.478 201.14C174.442 200.356 174.524 199.571 174.722 198.812Z" fill="black"/>
<path d="M185.169 177.877C184.785 181.445 183.842 186.921 181.415 189.465C183.324 191.263 186.432 193.032 190.849 193.771C193.131 192.829 193.433 190.728 192.328 189.267C188.428 188.586 188.475 187.48 189.947 184.995L185.169 177.877Z" fill="#FFC3BD"/>
<path opacity="0.2" d="M187.119 180.781L189.947 184.989C189.572 185.568 189.28 186.197 189.08 186.857C187.695 186.275 186.17 184.156 186.473 182.597C186.579 181.958 186.797 181.343 187.119 180.781Z" fill="black"/>
<path d="M195.389 171.3C197.676 173.727 202.483 173.739 200.417 170.864C198.351 167.989 193.608 169.409 195.389 171.3Z" fill="#263238"/>
<path d="M186.118 171.038C184.843 175.694 183.865 178.302 185.314 181.514C185.755 182.562 186.474 183.468 187.395 184.134C188.316 184.8 189.403 185.2 190.536 185.289C191.669 185.379 192.804 185.155 193.818 184.642C194.832 184.129 195.686 183.347 196.285 182.381C198.613 178.703 200.324 171.748 196.594 168.216C195.821 167.426 194.852 166.857 193.786 166.566C192.72 166.275 191.596 166.274 190.529 166.561C189.463 166.848 188.492 167.415 187.716 168.201C186.941 168.988 186.389 169.967 186.118 171.038Z" fill="#FFC3BD"/>
<path d="M185.076 175.357C185.658 175.252 188.533 174.379 189.936 173.029C191.513 171.51 191.524 170.037 191.1 169.368C190.675 168.699 187.346 167.412 185.792 167.709C183.336 168.181 183.941 172.528 183.976 173.704C183.994 174.053 184.106 174.39 184.3 174.681C184.493 174.972 184.761 175.205 185.076 175.357Z" fill="#FFC3BD"/>
<path opacity="0.7" d="M185.076 175.357C185.658 175.252 188.533 174.379 189.936 173.029C191.513 171.51 191.524 170.037 191.1 169.368C190.675 168.699 187.346 167.412 185.792 167.709C183.336 168.181 183.941 172.528 183.976 173.704C183.994 174.053 184.106 174.39 184.3 174.681C184.493 174.972 184.761 175.205 185.076 175.357Z" fill="#263238"/>
<path d="M182.638 175.677C183.09 176.677 183.903 177.47 184.913 177.9C186.252 178.441 187.014 177.318 186.723 175.95C186.461 174.745 185.449 173.005 184.069 173.04C182.69 173.075 182.091 174.443 182.638 175.677Z" fill="#FFC3BD"/>
<path d="M187.014 169.1C192.951 170.369 197.17 173.71 199.975 171.702C201.96 170.282 200.656 167.692 198.381 165.818C196.437 164.217 193.725 163.723 192.91 162.413C192.815 162.849 192.852 163.302 193.015 163.717C193.179 164.132 193.463 164.488 193.829 164.741C193.829 164.741 188.469 163.915 186.985 162.518C186.63 163.35 188.004 164.956 188.004 164.956C188.004 164.956 186.49 166.394 182.184 164.77C182.44 166.161 183.639 168.379 187.014 169.1Z" fill="#263238"/>
<path d="M198.806 172.173H198.573V171.87C199.086 171.934 199.605 171.828 200.052 171.569C200.499 171.309 200.848 170.91 201.046 170.433C201.269 169.795 201.285 169.103 201.093 168.456C200.901 167.808 200.51 167.238 199.975 166.825C199.461 166.424 198.9 166.088 198.305 165.823C196.926 165.131 195.36 164.345 194.604 162.058L194.889 161.965C195.605 164.13 197.048 164.875 198.445 165.55C199.067 165.827 199.653 166.179 200.191 166.598C200.779 167.048 201.208 167.673 201.418 168.384C201.627 169.094 201.605 169.852 201.355 170.549C201.15 171.051 200.795 171.476 200.339 171.767C199.882 172.058 199.346 172.2 198.806 172.173Z" fill="#263238"/>
<path d="M192.846 175.56C192.718 175.927 192.811 176.305 193.044 176.398C193.277 176.491 193.573 176.27 193.701 175.904C193.829 175.537 193.736 175.159 193.503 175.065C193.271 174.972 192.968 175.182 192.846 175.56Z" fill="#263238"/>
<path d="M197.234 176.887C197.112 177.254 197.199 177.627 197.438 177.72C197.677 177.813 197.967 177.598 198.09 177.225C198.212 176.853 198.13 176.486 197.892 176.387C197.653 176.288 197.362 176.515 197.234 176.887Z" fill="#263238"/>
<path d="M195.622 176.439C195.667 177.743 195.887 179.034 196.274 180.28C195.424 180.629 194.429 179.919 194.429 179.919L195.622 176.439Z" fill="#ED847E"/>
<path d="M192.06 180.804C191.272 180.37 190.686 179.642 190.43 178.779C190.426 178.765 190.425 178.75 190.427 178.735C190.428 178.72 190.433 178.706 190.441 178.694C190.449 178.681 190.459 178.67 190.471 178.662C190.483 178.653 190.497 178.648 190.512 178.645C190.526 178.642 190.542 178.641 190.556 178.644C190.571 178.646 190.585 178.652 190.597 178.66C190.61 178.668 190.621 178.679 190.629 178.691C190.637 178.704 190.643 178.718 190.646 178.732C190.795 179.202 191.047 179.631 191.385 179.99C191.722 180.349 192.136 180.627 192.595 180.804C192.624 180.816 192.647 180.838 192.659 180.867C192.671 180.895 192.671 180.927 192.659 180.956C192.656 180.97 192.649 180.983 192.64 180.994C192.63 181.006 192.618 181.015 192.605 181.021C192.591 181.027 192.577 181.03 192.562 181.03C192.547 181.03 192.533 181.026 192.52 181.02C192.362 180.958 192.208 180.886 192.06 180.804Z" fill="#263238"/>
<path d="M191.653 173.151C191.617 173.132 191.587 173.104 191.565 173.069C191.532 173.019 191.52 172.958 191.532 172.899C191.544 172.84 191.579 172.788 191.629 172.755C191.925 172.555 192.265 172.432 192.619 172.396C192.974 172.361 193.332 172.414 193.661 172.551C193.689 172.564 193.714 172.582 193.735 172.604C193.756 172.627 193.772 172.653 193.783 172.681C193.794 172.71 193.799 172.741 193.798 172.771C193.797 172.802 193.79 172.832 193.777 172.86C193.766 172.887 193.749 172.911 193.728 172.931C193.707 172.951 193.682 172.967 193.655 172.977C193.628 172.988 193.599 172.992 193.57 172.991C193.541 172.99 193.512 172.983 193.486 172.97C193.224 172.869 192.94 172.832 192.661 172.864C192.381 172.895 192.113 172.994 191.88 173.151C191.845 173.171 191.806 173.181 191.766 173.181C191.726 173.181 191.687 173.171 191.653 173.151Z" fill="#263238"/>
<path d="M198.73 175.799C198.694 175.787 198.661 175.766 198.635 175.739C198.609 175.711 198.589 175.678 198.578 175.642C198.504 175.358 198.365 175.096 198.173 174.874C197.982 174.652 197.742 174.477 197.472 174.361C197.415 174.341 197.367 174.3 197.339 174.246C197.311 174.192 197.304 174.129 197.321 174.07C197.328 174.042 197.341 174.016 197.359 173.993C197.377 173.97 197.4 173.951 197.426 173.937C197.452 173.923 197.48 173.915 197.509 173.913C197.538 173.911 197.567 173.915 197.595 173.925C197.937 174.063 198.243 174.279 198.488 174.556C198.732 174.832 198.909 175.162 199.003 175.519C199.013 175.548 199.017 175.578 199.015 175.608C199.013 175.637 199.005 175.667 198.991 175.693C198.978 175.72 198.959 175.744 198.936 175.763C198.913 175.782 198.886 175.796 198.858 175.805C198.815 175.814 198.771 175.812 198.73 175.799Z" fill="#263238"/>
<path d="M244.923 241.943L248.24 237.118L239.307 229.337L235.989 234.162L244.923 241.943Z" fill="#FFC3BD"/>
<path d="M245.947 234.837L242.054 239.685C241.986 239.767 241.948 239.87 241.948 239.976C241.948 240.083 241.986 240.185 242.054 240.267L245.086 244.039C245.158 244.128 245.249 244.201 245.353 244.251C245.457 244.3 245.57 244.326 245.685 244.326C245.801 244.326 245.914 244.3 246.018 244.251C246.122 244.201 246.213 244.128 246.285 244.039C247.513 242.455 248.334 241.239 249.911 239.272C250.883 238.061 253.938 234.523 255.283 232.87C256.627 231.217 255.091 229.587 254.386 230.146C251.226 232.643 248.415 234.174 246.716 234.406C246.415 234.45 246.141 234.603 245.947 234.837Z" fill="#263238"/>
<path d="M245.691 232.847C245.719 232.757 245.767 232.675 245.832 232.606C245.896 232.538 245.976 232.485 246.064 232.451C246.125 232.419 246.193 232.403 246.261 232.403C246.33 232.403 246.398 232.419 246.459 232.451C246.989 232.759 247.041 234.377 247.041 234.564C247.041 234.585 247.034 234.606 247.021 234.624C247.009 234.641 246.991 234.655 246.971 234.663C246.953 234.674 246.932 234.68 246.91 234.68C246.889 234.68 246.868 234.674 246.849 234.663C246.372 234.255 245.58 233.499 245.685 232.917C245.684 232.893 245.686 232.87 245.691 232.847ZM246.814 234.319C246.768 233.667 246.622 232.806 246.343 232.643C246.316 232.63 246.286 232.623 246.256 232.623C246.225 232.623 246.195 232.63 246.168 232.643C246.101 232.666 246.042 232.706 245.995 232.759C245.948 232.812 245.916 232.877 245.901 232.946C245.86 233.248 246.186 233.755 246.814 234.319Z" fill="#32cd71"/>
<path d="M246.925 233.836C247.059 233.341 247.315 232.806 247.635 232.672C247.719 232.639 247.812 232.635 247.899 232.659C247.986 232.683 248.063 232.735 248.118 232.806C248.176 232.865 248.22 232.937 248.246 233.015C248.272 233.094 248.28 233.178 248.269 233.26C248.188 233.9 247.059 234.622 247.006 234.651C246.99 234.661 246.971 234.667 246.951 234.667C246.932 234.667 246.912 234.661 246.896 234.651C246.877 234.645 246.861 234.633 246.85 234.617C246.838 234.602 246.832 234.583 246.832 234.564C246.822 234.318 246.854 234.072 246.925 233.836ZM248.031 233.306C248.031 233.306 248.031 233.266 248.031 233.242C248.038 233.19 248.033 233.137 248.016 233.088C247.998 233.038 247.97 232.994 247.932 232.957C247.839 232.852 247.769 232.858 247.716 232.882C247.408 232.998 247.082 233.824 247.041 234.366C247.462 234.11 247.804 233.743 248.031 233.306Z" fill="#32cd71"/>
<path opacity="0.2" d="M235.989 234.162L239.307 229.337L243.916 233.347L240.11 237.753L235.989 234.162Z" fill="black"/>
<path d="M187.875 228.662C187.875 228.662 213.309 202.821 224.757 213.879C231.886 220.77 242.362 230.262 242.362 230.262L236.292 236.17C236.292 236.17 220.916 227.993 216.911 223.476C195.901 246.966 177.126 248.572 178.814 230.46C181.792 229.665 184.819 229.064 187.875 228.662Z" fill="#32cd71"/>
<path d="M244.172 230.315L237.502 238.696L234.674 236.798L241.489 227.899L244.172 230.315Z" fill="#263238"/>
<path d="M178.878 197.071L179.378 207.664C179.471 209.41 179.582 211.156 179.716 212.902C179.786 213.757 179.879 214.601 179.972 215.41C180.024 215.818 180.077 216.213 180.141 216.574C180.205 216.935 180.274 217.273 180.321 217.476C180.324 217.507 180.324 217.538 180.321 217.569C180.225 217.396 180.09 217.249 179.925 217.139C179.83 217.07 179.724 217.019 179.611 216.987C179.547 216.987 179.512 216.987 179.541 216.987C180.018 217.061 180.504 217.029 180.967 216.894C182.507 216.51 184.005 215.978 185.443 215.305C186.997 214.624 188.545 213.839 190.099 213.024C191.653 212.209 193.207 211.342 194.714 210.498L196.891 213.408C194.162 215.948 191.198 218.222 188.038 220.2C187.229 220.695 186.391 221.172 185.507 221.62C184.583 222.097 183.623 222.501 182.637 222.831C182.076 223.016 181.503 223.16 180.92 223.261C180.205 223.395 179.475 223.43 178.75 223.366C178.281 223.322 177.82 223.221 177.376 223.063C176.842 222.875 176.339 222.606 175.886 222.266C175.414 221.9 175.007 221.457 174.681 220.957C174.533 220.728 174.401 220.488 174.286 220.241L174.065 219.705C173.86 219.151 173.687 218.586 173.547 218.012C173.419 217.494 173.314 217.011 173.221 216.528C173.029 215.567 172.883 214.63 172.755 213.705C172.487 211.854 172.295 210.027 172.132 208.205C171.806 204.562 171.614 200.959 171.55 197.298L178.878 197.071Z" fill="#FFC3BD"/>
<path d="M177.091 190.244C174.35 190.553 170.247 193.154 170.107 205.248L181.863 204.323C181.863 204.323 187.404 189.063 177.091 190.244Z" fill="#647291"/>
<path d="M204.602 204.369L200.237 204.654C199.979 204.69 199.738 204.803 199.545 204.977C199.352 205.151 199.216 205.38 199.154 205.632L197.112 215.224C197.077 215.328 197.069 215.439 197.089 215.547C197.108 215.656 197.154 215.757 197.223 215.843C197.292 215.929 197.381 215.996 197.483 216.038C197.584 216.08 197.695 216.096 197.804 216.085L202.169 215.8C202.427 215.766 202.669 215.654 202.862 215.479C203.056 215.305 203.192 215.075 203.252 214.822L205.295 205.231C205.329 205.126 205.337 205.015 205.318 204.907C205.298 204.799 205.252 204.697 205.183 204.611C205.114 204.526 205.025 204.459 204.923 204.416C204.822 204.374 204.711 204.358 204.602 204.369Z" fill="#32cd71"/>
<path d="M195.069 210.271L198.683 209.014L197.793 214.677C197.793 214.677 193.765 215.561 193.434 213.396L194.016 211.47C194.089 211.203 194.222 210.957 194.405 210.749C194.587 210.542 194.814 210.378 195.069 210.271Z" fill="#FFC3BD"/>
<path d="M202.815 209.491L201.25 214.531L197.792 214.677L198.683 209.014L202.815 209.491Z" fill="#FFC3BD"/>
<path d="M77.6271 90.7921C74.7869 84.198 90.2739 77.2955 94.6506 87.5619C102.083 90.792 92.5845 104.527 94.732 106.855C96.8796 109.183 98.4976 106.361 98.4976 106.361C98.4976 106.361 100.668 112.146 95.1336 116.778C90.175 120.94 75.2583 122.069 75.2234 113.868C75.1768 103.206 81.3519 99.4348 77.6271 90.7921Z" fill="#263238"/>
<path d="M91.869 229.227L87.7018 231.654L77.6973 220.217L82.8887 215.532L91.869 229.227Z" fill="#EBB6AE"/>
<path d="M87.2246 230.606L91.5255 227.306C91.5928 227.246 91.6798 227.212 91.77 227.212C91.8602 227.212 91.9472 227.246 92.0144 227.306L94.8662 230.123C94.9359 230.201 94.9881 230.294 95.0194 230.395C95.0507 230.495 95.0603 230.601 95.0477 230.706C95.035 230.81 95.0004 230.911 94.946 231.001C94.8917 231.091 94.8189 231.169 94.7324 231.228C93.2192 232.352 92.4335 232.823 90.542 234.278C89.378 235.169 87.05 237.124 85.4553 238.352C83.8606 239.58 82.65 238.166 83.2146 237.52C85.7637 234.61 86.3166 232.864 86.7066 231.31C86.7947 231.023 86.9773 230.775 87.2246 230.606Z" fill="#263238"/>
<path d="M86.2585 232.329C85.9592 232.608 85.5771 232.781 85.1701 232.823C85.0731 232.819 84.9786 232.791 84.8952 232.741C84.8119 232.692 84.7423 232.622 84.6929 232.538C84.6644 232.485 84.6494 232.426 84.6494 232.366C84.6494 232.306 84.6644 232.247 84.6929 232.195C84.9839 231.613 87.0558 231.153 87.2886 231.101C87.311 231.097 87.3339 231.1 87.3546 231.109C87.3753 231.119 87.3928 231.134 87.405 231.153C87.4162 231.172 87.4221 231.194 87.4221 231.217C87.4221 231.239 87.4162 231.262 87.405 231.281C87.0555 231.664 86.6718 232.015 86.2585 232.329ZM85.0246 232.113C84.9637 232.155 84.9138 232.211 84.8791 232.276C84.8661 232.296 84.8592 232.319 84.8592 232.343C84.8592 232.367 84.8661 232.39 84.8791 232.41C84.9094 232.466 84.9538 232.513 85.0079 232.547C85.062 232.581 85.1239 232.6 85.1876 232.602C85.5659 232.602 86.2235 232.171 86.9685 231.392C86.2853 231.524 85.6286 231.768 85.0246 232.113Z" fill="#32cd71"/>
<path d="M87.3523 231.293H87.3058C86.7238 231.45 85.228 231.368 84.9778 230.909C84.9254 230.804 84.9079 230.623 85.1407 230.408C85.3066 230.254 85.5252 230.168 85.7518 230.169C86.5143 230.169 87.3291 231.072 87.3582 231.112C87.368 231.128 87.3732 231.146 87.3732 231.165C87.3732 231.183 87.368 231.201 87.3582 231.217C87.3639 231.242 87.3619 231.269 87.3523 231.293ZM85.3503 230.542L85.2979 230.588C85.1466 230.728 85.1815 230.798 85.1931 230.821C85.3328 231.101 86.3979 231.234 87.0613 231.141C86.714 230.762 86.2521 230.506 85.746 230.414C85.6035 230.411 85.464 230.456 85.3503 230.542Z" fill="#32cd71"/>
<path d="M76.7195 114.7C76.4459 115.952 76.1375 117.081 75.7883 118.251C75.4391 119.42 75.0782 120.579 74.6592 121.696C73.854 123.992 72.9094 126.237 71.8307 128.418L70.9751 130.048C70.6667 130.583 70.3931 131.119 70.0439 131.648L69.5434 132.434C69.3688 132.702 69.2349 132.94 68.9963 133.255C68.8799 133.406 68.7635 133.557 68.6064 133.738C68.4087 133.971 68.1862 134.181 67.9429 134.366C67.6487 134.591 67.3091 134.75 66.9477 134.832C66.7795 134.87 66.6078 134.889 66.4355 134.89C66.2247 134.892 66.0148 134.863 65.8128 134.803C65.4352 134.701 65.0917 134.5 64.8176 134.221C64.5428 133.946 64.3425 133.605 64.2356 133.231C64.1816 133.059 64.1445 132.881 64.125 132.702C64.0794 132.282 64.0794 131.859 64.125 131.439C64.1657 131.09 64.2239 130.764 64.2821 130.449C64.3985 129.815 64.5498 129.221 64.707 128.628C65.0337 127.459 65.4223 126.309 65.871 125.182L68.199 125.694L68.0418 129.186C68.0418 129.768 68.0069 130.316 68.0011 130.851C68.0011 131.119 68.0011 131.381 68.0011 131.613C68 131.781 68.0235 131.948 68.0709 132.108C68.0709 132.108 68.0709 132.108 68.0709 132.003C67.9991 131.783 67.8753 131.584 67.7101 131.421C67.4845 131.192 67.2041 131.023 66.8953 130.932C66.7281 130.887 66.5562 130.862 66.3831 130.857C66.2461 130.859 66.1097 130.875 65.9757 130.903C65.7673 130.954 65.57 131.043 65.3937 131.165C65.2715 131.253 65.3181 131.206 65.3414 131.165L65.4752 130.938L66.2551 129.541C66.517 129.053 66.7556 128.552 67.0117 128.057L67.7276 126.544C68.6355 124.49 69.4736 122.377 70.172 120.224C70.5328 119.147 70.8645 118.059 71.1963 116.97C71.528 115.882 71.8248 114.759 72.0867 113.729L76.7195 114.7Z" fill="#EBB6AE"/>
<path d="M74.7288 108.642C73.041 108.916 70.3638 119.642 70.3638 119.642L74.2573 122.639C74.2573 122.639 78.1626 114.887 78.3314 111.401C78.4478 108.875 76.0033 108.438 74.7288 108.642Z" fill="#EBB6AE"/>
<path d="M68.6238 126.212L67.9661 120.881L64.9106 125.363C65.0407 125.903 65.3251 126.394 65.7292 126.775C66.1332 127.156 66.6395 127.412 67.1863 127.51L68.6238 126.212Z" fill="#EBB6AE"/>
<path d="M89.9771 238.277L85.3211 238.434L84.4307 222.185L90.8909 222.278L89.9771 238.277Z" fill="#EBB6AE"/>
<path d="M85.0068 236.95L90.2448 236.915C90.3324 236.912 90.4178 236.943 90.483 237.001C90.5482 237.06 90.588 237.142 90.594 237.229L90.9083 241.355C90.9114 241.572 90.8287 241.781 90.6782 241.937C90.5278 242.093 90.3217 242.183 90.1051 242.188C88.2893 242.188 87.4162 242.065 85.1232 242.083C83.7089 242.083 81.6312 242.252 79.6873 242.269C77.7434 242.287 77.7609 240.354 78.5873 240.174C82.283 239.365 82.929 238.282 84.2269 237.264C84.4459 237.077 84.7196 236.967 85.0068 236.95Z" fill="#263238"/>
<path d="M74.4437 108.607C74.4437 108.607 72.1157 109.189 72.1157 136.735L90.7921 138.388C91.7291 130.711 92.4857 125.991 98.6724 110.615C96.1342 109.838 93.5407 109.254 90.9143 108.869C88.1117 108.413 85.2795 108.162 82.4404 108.118C78.7156 108.124 74.4437 108.607 74.4437 108.607Z" fill="#32cd71"/>
<path opacity="0.2" d="M94.9649 114.13L95.9601 117.523C95.1802 119.624 94.5342 121.481 93.9929 123.151C93.5805 120.11 93.914 117.014 94.9649 114.13Z" fill="black"/>
<path d="M67.9661 120.881L64.9106 125.363L68.6238 125.147L70.6026 121.05L67.9661 120.881Z" fill="#EBB6AE"/>
<path d="M69.9043 131.189L73.3963 131.136C73.5113 131.134 73.6245 131.108 73.7286 131.059C73.8326 131.009 73.925 130.939 73.9998 130.851C74.0745 130.764 74.13 130.662 74.1624 130.551C74.1948 130.441 74.2035 130.325 74.1878 130.211L73.0995 122.383C73.0737 122.187 72.9762 122.007 72.8258 121.878C72.6754 121.749 72.4827 121.68 72.2847 121.685L68.7927 121.737C68.6776 121.738 68.564 121.763 68.4596 121.811C68.3551 121.859 68.2622 121.929 68.1871 122.016C68.1121 122.104 68.0566 122.206 68.0245 122.316C67.9925 122.427 67.9845 122.543 68.0012 122.657L69.0895 130.485C69.1152 130.682 69.2124 130.862 69.3627 130.992C69.5129 131.122 69.7057 131.192 69.9043 131.189Z" fill="#263238"/>
<path d="M91.6126 99.1787C90.629 101.879 89.2846 106.861 90.8851 108.863C88.101 111.191 84.9812 113.084 81.6313 114.479C79.6816 109.928 82.4112 108.112 82.4112 108.112C85.5715 107.653 85.8625 105.371 85.6762 103.189L91.6126 99.1787Z" fill="#EBB6AE"/>
<path d="M78.8202 96.0825C78.3313 104.167 73.4716 106.483 74.6123 110.633C76.2245 116.453 82.8011 111.895 82.8011 111.895C82.8011 111.895 79.2218 113.059 78.9948 110.231C78.8085 107.903 87.0729 108.264 84.7799 102.787C83.3074 99.2602 78.8202 96.0825 78.8202 96.0825Z" fill="#263238"/>
<path opacity="0.2" d="M89.9191 101.222L85.6821 103.189C85.7286 103.7 85.7286 104.214 85.6821 104.725C86.5668 104.807 88.8598 104.143 89.727 102.712C89.9673 102.254 90.0355 101.725 89.9191 101.222Z" fill="black"/>
<path d="M92.3459 91.5779C92.7707 96.164 93.0501 98.1021 91.112 100.791C88.202 104.836 82.4693 104.359 80.6826 99.9819C79.0704 96.0476 78.6456 89.2033 82.8185 86.7065C83.7353 86.1499 84.7793 85.8372 85.8511 85.7981C86.9229 85.759 87.9869 85.9948 88.9418 86.4831C89.8967 86.9713 90.7109 87.6958 91.3067 88.5876C91.9025 89.4794 92.2603 90.5088 92.3459 91.5779Z" fill="#EBB6AE"/>
<path d="M91.3331 86.9742C87.7131 84.4891 84.7042 89.2615 91.1294 93.9C97.5547 98.5385 95.4479 89.7969 91.3331 86.9742Z" fill="#263238"/>
<path d="M89.4071 85.6413C90.9028 86.9857 81.9982 91.9444 77.156 90.2973C72.3137 88.6503 76.2015 84.9546 77.965 84.4773C76.4518 85.9381 79.0999 88.1556 80.3803 86.7704C81.6607 85.3853 86.404 82.9467 89.4071 85.6413Z" fill="#263238"/>
<path d="M72.0924 136.735C72.0924 136.735 62.2391 178.459 63.1063 188.993C64.1132 201.308 77.5806 221.16 77.5806 221.16L83.7673 215.544C83.7673 215.544 77.6272 199.283 73.0818 188.69C74.5368 178.098 87.399 148.172 87.399 138.091L72.0924 136.735Z" fill="#676E88"/>
<path d="M84.9081 216.382L77.5982 221.829L75.7241 220.404L83.7441 214.077L84.9081 216.382Z" fill="#32cd71"/>
<path opacity="0.2" d="M79.3848 155.085C73.9547 162.605 73.6928 176.433 74.0304 184.185C75.8928 177.05 79.798 166.394 82.9117 156.791C82.836 153.112 81.9223 151.564 79.3848 155.085Z" fill="black"/>
<path d="M75.5962 136.77C75.5962 136.77 79.2046 172.802 80.4093 184.965C81.841 199.405 83.9421 222.563 83.9421 222.563L90.8911 222.272C90.8911 222.272 92.416 202.641 91.2869 189.68C91.4906 172.511 94.0223 149.167 90.7631 138.365L75.5962 136.77Z" fill="#676E88"/>
<path d="M91.4208 223.546L83.4474 223.319L82.8887 220.811L91.9097 220.561L91.4208 223.546Z" fill="#32cd71"/>
<path d="M85.2106 94.1093C85.2688 94.4759 85.1175 94.8077 84.8731 94.8484C84.6286 94.8892 84.39 94.6156 84.3318 94.2664C84.2736 93.9172 84.4249 93.568 84.6694 93.5273C84.9138 93.4865 85.1524 93.7368 85.2106 94.1093Z" fill="#263238"/>
<path d="M81.0261 94.7557C81.0843 95.1281 80.9329 95.4599 80.6885 95.4948C80.444 95.5297 80.2054 95.262 80.1472 94.9128C80.089 94.5636 80.2403 94.2086 80.4848 94.1737C80.7292 94.1387 80.9679 94.389 81.0261 94.7557Z" fill="#263238"/>
<path d="M80.5894 94.1559L79.6641 94.0396C79.6641 94.0396 80.2286 94.6623 80.5894 94.1559Z" fill="#263238"/>
<path d="M82.3998 95.1221C82.1992 96.0168 81.8781 96.8802 81.4453 97.6887C81.6548 97.7936 81.8846 97.8516 82.1188 97.8586C82.353 97.8657 82.586 97.8216 82.8014 97.7294L82.3998 95.1221Z" fill="#FF5652"/>
<path d="M85.2106 98.7482C85.0217 98.8152 84.8269 98.864 84.6286 98.8937C84.6001 98.8988 84.5707 98.8926 84.5468 98.8762C84.5228 98.8599 84.5062 98.8348 84.5006 98.8064C84.4981 98.7919 84.4986 98.777 84.5019 98.7626C84.5053 98.7482 84.5115 98.7347 84.5202 98.7228C84.5289 98.7108 84.5398 98.7008 84.5525 98.6931C84.5651 98.6855 84.5791 98.6805 84.5937 98.6784C85.0563 98.6184 85.4981 98.4495 85.8826 98.1854C86.2671 97.9213 86.5833 97.5696 86.8053 97.1594C86.8189 97.1343 86.8413 97.1152 86.8681 97.1055C86.8949 97.0959 86.9244 97.0964 86.9508 97.107C86.9642 97.1127 86.9764 97.121 86.9865 97.1314C86.9967 97.1418 87.0047 97.1541 87.0101 97.1676C87.0155 97.1812 87.0182 97.1956 87.018 97.2102C87.0178 97.2247 87.0148 97.2391 87.009 97.2525C86.6277 97.9666 85.9823 98.5034 85.2106 98.7482Z" fill="#263238"/>
<path d="M93.6205 94.7087C93.5893 95.1543 93.4704 95.5893 93.2706 95.9888C93.0709 96.3883 92.7942 96.7444 92.4565 97.0367C91.5603 97.805 90.6116 97.1299 90.4428 96.0182C90.2857 95.023 90.5709 93.4225 91.6708 93.1082C91.9096 93.0349 92.1628 93.0218 92.4079 93.0701C92.653 93.1184 92.8822 93.2266 93.0753 93.3851C93.2684 93.5436 93.4192 93.7474 93.5143 93.9784C93.6095 94.2093 93.646 94.4602 93.6205 94.7087Z" fill="#EBB6AE"/>
<path d="M87.1138 91.8163C87.0847 91.8221 87.0548 91.822 87.0258 91.816C86.9968 91.81 86.9694 91.7982 86.945 91.7814C86.7226 91.6162 86.4641 91.5063 86.1909 91.4608C85.9177 91.4152 85.6375 91.4354 85.3736 91.5195C85.3469 91.5308 85.3182 91.5365 85.2893 91.5364C85.2603 91.5364 85.2316 91.5304 85.205 91.519C85.1784 91.5076 85.1543 91.491 85.1343 91.47C85.1143 91.4491 85.0987 91.4244 85.0884 91.3973C85.0673 91.3432 85.0683 91.283 85.0911 91.2297C85.114 91.1763 85.1569 91.1341 85.2106 91.1121C85.5417 90.9994 85.8952 90.9685 86.2409 91.0223C86.5865 91.076 86.914 91.2126 87.1953 91.4205C87.2424 91.4535 87.2749 91.5036 87.2857 91.5601C87.2966 91.6166 87.285 91.6751 87.2534 91.7232C87.219 91.7694 87.1697 91.8023 87.1138 91.8163Z" fill="#263238"/>
<path d="M79.2101 93.1492C79.1845 93.1608 79.1567 93.1668 79.1286 93.1668C79.1005 93.1668 79.0727 93.1608 79.0471 93.1492C79.0208 93.1374 78.9972 93.1203 78.9776 93.0991C78.958 93.0779 78.9429 93.053 78.9331 93.0259C78.9234 92.9988 78.9191 92.9699 78.9207 92.9411C78.9223 92.9123 78.9297 92.8841 78.9424 92.8582C79.0802 92.5373 79.2935 92.2545 79.564 92.0336C79.8345 91.8127 80.1543 91.6604 80.4963 91.5895C80.552 91.5854 80.6073 91.6025 80.6509 91.6375C80.6945 91.6724 80.7233 91.7226 80.7314 91.7779C80.7395 91.8332 80.7263 91.8896 80.6946 91.9356C80.6629 91.9816 80.6149 92.0139 80.5603 92.026C80.2905 92.0868 80.039 92.2108 79.8265 92.3879C79.614 92.565 79.4466 92.79 79.3381 93.0445C79.325 93.0697 79.3069 93.092 79.2849 93.11C79.2629 93.128 79.2374 93.1414 79.2101 93.1492Z" fill="#263238"/>
<path d="M99.9005 116.202C99.9878 117.046 100.034 117.785 100.058 118.571C100.081 119.357 100.098 120.113 100.093 120.899C100.069 122.451 99.9704 124.003 99.7958 125.555C99.6173 127.126 99.3256 128.682 98.9228 130.211C98.715 131.001 98.4624 131.778 98.1662 132.539C98.0207 132.923 97.8577 133.307 97.6889 133.703C97.6889 133.703 97.6016 133.889 97.5434 133.994C97.482 134.115 97.4099 134.229 97.3281 134.337C97.1843 134.55 97.0163 134.745 96.8276 134.919C96.5213 135.181 96.1781 135.397 95.8091 135.559C95.2819 135.78 94.7248 135.921 94.1562 135.978C93.7021 136.029 93.2452 136.048 92.7885 136.037C91.9662 136.015 91.1461 135.943 90.3325 135.821C88.808 135.58 87.2982 135.254 85.8103 134.844C84.3495 134.442 82.9003 134 81.4861 133.528C80.0718 133.057 78.6634 132.533 77.2607 131.945L77.9882 129.71C79.4025 130.019 80.84 130.345 82.2718 130.618C83.7035 130.892 85.1294 131.2 86.5495 131.41C87.9695 131.619 89.3896 131.835 90.7631 131.922C91.4195 131.974 92.0784 131.985 92.7361 131.957C93.0172 131.943 93.2971 131.912 93.5742 131.864C93.7418 131.838 93.9046 131.787 94.0573 131.712C94.0573 131.712 94.0573 131.712 93.97 131.759C93.9164 131.8 93.8693 131.849 93.8303 131.905L93.7604 132.009C93.7604 132.009 93.7081 132.126 93.7604 132.05C93.871 131.747 93.9816 131.468 94.0747 131.13C94.2726 130.502 94.4356 129.856 94.5811 129.198C94.8535 127.853 95.0478 126.492 95.1631 125.124C95.2911 123.739 95.3318 122.331 95.3318 120.922C95.3318 120.218 95.3318 119.514 95.3318 118.81C95.3318 118.105 95.2678 117.378 95.2271 116.749L99.9005 116.202Z" fill="#EBB6AE"/>
<path d="M98.6257 110.615C100.634 111.925 99.9527 123.338 99.9527 123.338L95.2268 124.286C95.2268 124.286 95.1861 118.466 94.6798 114.689C94.3364 112.122 97.194 109.678 98.6257 110.615Z" fill="#EBB6AE"/>
<path d="M82.4463 237.491C82.3895 237.416 82.3511 237.328 82.3339 237.235C82.3167 237.142 82.3213 237.047 82.3474 236.956C82.3582 236.888 82.3857 236.825 82.4274 236.771C82.469 236.717 82.5236 236.675 82.586 236.647C83.168 236.397 84.4949 237.299 84.6463 237.398C84.6634 237.41 84.6764 237.427 84.6836 237.447C84.6909 237.467 84.6921 237.488 84.687 237.509C84.6819 237.53 84.6711 237.55 84.6558 237.567C84.6405 237.583 84.6211 237.595 84.5997 237.602C83.9886 237.747 82.9003 237.933 82.4929 237.538L82.4463 237.491ZM84.2971 237.445C83.7151 237.101 82.9585 236.711 82.6616 236.863C82.6345 236.875 82.6112 236.895 82.5939 236.919C82.5766 236.944 82.5658 236.972 82.5627 237.002C82.5414 237.069 82.5382 237.141 82.5535 237.209C82.5689 237.278 82.6022 237.341 82.65 237.392C82.8712 237.59 83.4764 237.613 84.2971 237.456V237.445Z" fill="#32cd71"/>
<path d="M83.9711 237.078C83.8064 236.913 83.6759 236.717 83.587 236.501C83.4981 236.285 83.4526 236.054 83.4531 235.821C83.4786 235.735 83.5305 235.658 83.6015 235.603C83.6724 235.548 83.759 235.516 83.8489 235.512C83.9302 235.5 84.0133 235.506 84.092 235.53C84.1707 235.554 84.2428 235.596 84.3028 235.652C84.7743 236.094 84.6928 237.433 84.687 237.491C84.6861 237.511 84.6803 237.531 84.6702 237.548C84.66 237.565 84.6458 237.58 84.6288 237.59C84.6116 237.599 84.5927 237.603 84.5735 237.603C84.5543 237.603 84.5353 237.599 84.5182 237.59C84.31 237.449 84.1254 237.276 83.9711 237.078ZM84.1923 235.867C84.1782 235.85 84.1627 235.835 84.1457 235.821C84.1083 235.785 84.0632 235.758 84.0138 235.742C83.9644 235.725 83.912 235.721 83.8605 235.728C83.715 235.728 83.6859 235.809 83.6685 235.862C83.5812 236.182 84.0584 236.932 84.4774 237.282C84.516 236.793 84.4173 236.303 84.1923 235.867Z" fill="#32cd71"/>
<path d="M91.2228 137.305L91.4265 139.051C91.4731 139.185 91.2985 139.307 91.0831 139.284L71.8771 137.585C71.7083 137.585 71.5803 137.474 71.5861 137.369L71.6967 135.67C71.6967 135.554 71.8655 135.466 72.0459 135.484L90.9551 137.16C91.0085 137.159 91.0612 137.172 91.1082 137.197C91.1551 137.223 91.1946 137.26 91.2228 137.305Z" fill="white"/>
<path d="M88.3362 139.214L88.8425 139.255C88.9473 139.255 89.0288 139.22 89.0346 139.156L89.151 136.95C89.151 136.886 89.0753 136.822 88.9764 136.817L88.4642 136.77C88.3653 136.77 88.278 136.805 88.2722 136.869L88.1558 139.081C88.1558 139.145 88.2372 139.203 88.3362 139.214Z" fill="#32cd71"/>
<path opacity="0.6" d="M88.3362 139.214L88.8425 139.255C88.9473 139.255 89.0288 139.22 89.0346 139.156L89.151 136.95C89.151 136.886 89.0753 136.822 88.9764 136.817L88.4642 136.77C88.3653 136.77 88.278 136.805 88.2722 136.869L88.1558 139.081C88.1558 139.145 88.2372 139.203 88.3362 139.214Z" fill="black"/>
<path d="M73.2564 137.876L73.7628 137.923C73.8675 137.923 73.949 137.888 73.9548 137.824L74.0712 135.612C74.0712 135.548 73.9956 135.49 73.8966 135.478L73.3903 135.438C73.2855 135.438 73.2041 135.472 73.1982 135.536L73.0818 137.742C73.076 137.806 73.1575 137.87 73.2564 137.876Z" fill="#32cd71"/>
<path opacity="0.6" d="M73.2564 137.876L73.7628 137.923C73.8675 137.923 73.949 137.888 73.9548 137.824L74.0712 135.612C74.0712 135.548 73.9956 135.49 73.8966 135.478L73.3903 135.438C73.2855 135.438 73.2041 135.472 73.1982 135.536L73.0818 137.742C73.076 137.806 73.1575 137.87 73.2564 137.876Z" fill="black"/>
<path d="M80.7991 138.545L81.3054 138.592C81.4043 138.592 81.4917 138.551 81.4917 138.487L81.6139 136.281C81.6139 136.217 81.5382 136.159 81.4334 136.147L80.9271 136.101C80.8282 136.101 80.7409 136.141 80.7409 136.205L80.6187 138.411C80.6187 138.475 80.7001 138.516 80.7991 138.545Z" fill="#32cd71"/>
<path opacity="0.6" d="M80.7991 138.545L81.3054 138.592C81.4043 138.592 81.4917 138.551 81.4917 138.487L81.6139 136.281C81.6139 136.217 81.5382 136.159 81.4334 136.147L80.9271 136.101C80.8282 136.101 80.7409 136.141 80.7409 136.205L80.6187 138.411C80.6187 138.475 80.7001 138.516 80.7991 138.545Z" fill="black"/>
<path d="M78.7158 129.85L75.8058 125.968L74.5952 130.624C74.5952 130.624 76.7603 132.516 78.5994 131.788L78.7158 129.85Z" fill="#EBB6AE"/>
<path d="M72.081 125.113L71.272 129.041L75.2005 131.049L75.8232 125.968L72.081 125.113Z" fill="#EBB6AE"/>
<path d="M84.7798 93.51L83.8486 93.3936C83.8486 93.3936 84.3899 94.0163 84.7798 93.51Z" fill="#263238"/>
</svg>
