<svg width="251" height="251" viewBox="0 0 251 251" fill="none" xmlns="http://www.w3.org/2000/svg">
<path d="M216.182 191.965H218.802V184.505H213.431L216.182 191.965Z" fill="#C8D4FF"/>
<path d="M140.028 161.83H126.223V191.965H140.028V161.83Z" fill="#C8D4FF"/>
<path d="M218.801 161.83H137.738V187.386H218.801V161.83Z" fill="#C8D4FF"/>
<path d="M140.359 191.965H137.738V184.505H143.11L140.359 191.965Z" fill="#C8D4FF"/>
<path d="M157.367 37.1431H32.75V103.638H157.367V37.1431Z" fill="#C8D4FF"/>
<path d="M153.798 100.068V40.7119L36.3198 40.7119V100.068H153.798Z" fill="#FAFAFA"/>
<path d="M43.1465 100.068L64.1 40.7119H73.9894L53.0359 100.068H43.1465Z" fill="white"/>
<path d="M55.165 100.068L76.1135 40.7119H79.9689L59.0204 100.068H55.165Z" fill="white"/>
<path d="M158.21 45.2803H34.9544L34.623 42.0977H157.884L158.21 45.2803Z" fill="#C8D4FF"/>
<path d="M158.21 47.6044H34.9544L34.623 44.4268H157.884L158.21 47.6044Z" fill="#C8D4FF"/>
<path d="M158.21 50.4005H34.9544L34.623 47.2178H157.884L158.21 50.4005Z" fill="#C8D4FF"/>
<path d="M158.21 53.5079H34.9544L34.623 50.3252H157.884L158.21 53.5079Z" fill="#C8D4FF"/>
<path d="M188.998 65.2598H171.805V85.0687H188.998V65.2598Z" fill="#C8D4FF"/>
<path d="M192.477 65.2598H173.843V85.0687H192.477V65.2598Z" fill="#C8D4FF"/>
<path d="M190.916 83.5078V66.8213H175.404V83.5078H190.916Z" fill="white"/>
<path d="M187.155 78.096V72.2377C187.155 71.4808 186.542 70.8672 185.785 70.8672H180.534C179.777 70.8672 179.163 71.4808 179.163 72.2377V78.096C179.163 78.8529 179.777 79.4664 180.534 79.4664H185.785C186.542 79.4664 187.155 78.8529 187.155 78.096Z" fill="#FAFAFA"/>
<path d="M214.946 56.5503H197.753V76.3592H214.946V56.5503Z" fill="#C8D4FF"/>
<path d="M218.425 56.5503H199.791V76.3592H218.425V56.5503Z" fill="#C8D4FF"/>
<path d="M216.859 74.7978V58.1113H201.348V74.7978H216.859Z" fill="white"/>
<path d="M213.099 69.3815V63.5282C213.099 62.7713 212.485 62.1577 211.728 62.1577H206.477C205.72 62.1577 205.107 62.7713 205.107 63.5282V69.3815C205.107 70.1384 205.72 70.7519 206.477 70.7519H211.728C212.485 70.7519 213.099 70.1384 213.099 69.3815Z" fill="#FAFAFA"/>
<path d="M130.686 133.366H59.6279V187.07H130.686V133.366Z" fill="#C8D4FF"/>
<path d="M98.3064 140.324H92.0063C89.2704 140.324 86.655 138.506 84.7725 135.304H105.545C103.663 138.506 101.047 140.324 98.3064 140.324Z" fill="#C8D4FF"/>
<path d="M98.3064 157.427H92.0063C89.2704 157.427 86.655 155.61 84.7725 152.407H105.545C103.663 155.62 101.047 157.427 98.3064 157.427Z" fill="#C8D4FF"/>
<path d="M98.3064 174.535H92.0063C89.2704 174.535 86.655 172.718 84.7725 169.515H105.545C103.663 172.718 101.047 174.535 98.3064 174.535Z" fill="#C8D4FF"/>
<path d="M199.485 153.612H186.026L185.64 148.09H199.871L199.485 153.612Z" fill="#C8D4FF"/>
<path d="M125.5 214.635C179.255 214.635 222.833 212.091 222.833 208.953C222.833 205.814 179.255 203.27 125.5 203.27C71.7444 203.27 28.167 205.814 28.167 208.953C28.167 212.091 71.7444 214.635 125.5 214.635Z" fill="#C8D4FF"/>
<path d="M123.221 71.6907C123.903 80.2247 133.763 91.3089 136.915 94.6622C137.039 94.7951 137.189 94.901 137.356 94.9735C137.523 95.0459 137.702 95.0833 137.884 95.0833C138.066 95.0833 138.246 95.0459 138.412 94.9735C138.579 94.901 138.729 94.7951 138.853 94.6622C142.016 91.3089 151.865 80.2197 152.547 71.6907C152.571 71.4289 152.517 71.1659 152.393 70.934C152.269 70.7022 152.08 70.5115 151.85 70.3855L138.517 63.1919C138.323 63.0855 138.105 63.0298 137.884 63.0298C137.663 63.0298 137.445 63.0855 137.252 63.1919L123.918 70.3855C123.689 70.5125 123.5 70.7033 123.377 70.9349C123.253 71.1665 123.199 71.429 123.221 71.6907Z" fill="#32cd71"/>
<path opacity="0.3" d="M136.895 91.4294C132.879 86.9114 127.056 79.3161 125.666 73.272C125.603 72.9911 125.631 72.6974 125.746 72.4336C125.862 72.1699 126.059 71.9501 126.308 71.8062L137.222 65.5312C137.424 65.4154 137.654 65.3545 137.887 65.3545C138.12 65.3545 138.349 65.4154 138.552 65.5312L149.466 71.7861C149.722 71.933 149.922 72.16 150.036 72.4321C150.151 72.7043 150.172 73.0065 150.098 73.2921C148.713 79.3462 142.909 86.9114 138.873 91.4494C138.748 91.5883 138.595 91.6989 138.423 91.774C138.252 91.8491 138.067 91.8869 137.88 91.885C137.693 91.8831 137.508 91.8415 137.339 91.763C137.169 91.6844 137.018 91.5707 136.895 91.4294Z" fill="#32cd71"/>
<path opacity="0.3" d="M136.895 91.4294C132.879 86.9114 127.056 79.3161 125.666 73.272C125.603 72.9911 125.631 72.6974 125.746 72.4336C125.862 72.1699 126.059 71.9501 126.308 71.8062L137.222 65.5312C137.424 65.4154 137.654 65.3545 137.887 65.3545C138.12 65.3545 138.349 65.4154 138.552 65.5312L149.466 71.7861C149.722 71.933 149.922 72.16 150.036 72.4321C150.151 72.7043 150.172 73.0065 150.098 73.2921C148.713 79.3462 142.909 86.9114 138.873 91.4494C138.748 91.5883 138.595 91.6989 138.423 91.774C138.252 91.8491 138.067 91.8869 137.88 91.885C137.693 91.8831 137.508 91.8415 137.339 91.763C137.169 91.6844 137.018 91.5707 136.895 91.4294Z" fill="white"/>
<path d="M136.398 82.2679C136.299 82.2681 136.202 82.2487 136.11 82.2108C136.019 82.1728 135.936 82.1172 135.866 82.047L132.146 78.3121C132.013 78.1694 131.941 77.9806 131.944 77.7855C131.948 77.5905 132.027 77.4043 132.165 77.2664C132.303 77.1284 132.489 77.0494 132.684 77.0459C132.879 77.0425 133.068 77.1149 133.211 77.2479L136.398 80.4306L143.928 72.9257C144.07 72.7859 144.261 72.7075 144.46 72.7075C144.66 72.7075 144.851 72.7859 144.993 72.9257C145.063 72.9953 145.119 73.0781 145.157 73.1695C145.195 73.2608 145.215 73.3588 145.215 73.4578C145.215 73.5568 145.195 73.6548 145.157 73.7462C145.119 73.8375 145.063 73.9204 144.993 73.9899L136.961 82.0219C136.889 82.0994 136.802 82.1612 136.705 82.2035C136.608 82.2458 136.504 82.2678 136.398 82.2679Z" fill="white"/>
<path d="M168.005 102.574H98.3922C95.0652 102.574 92.3682 105.271 92.3682 108.598V199.912C92.3682 203.239 95.0652 205.936 98.3922 205.936H168.005C171.331 205.936 174.028 203.239 174.028 199.912V108.598C174.028 105.271 171.331 102.574 168.005 102.574Z" fill="#263238"/>
<path d="M172.693 102.574H103.081C99.7537 102.574 97.0566 105.271 97.0566 108.598V199.912C97.0566 203.239 99.7537 205.936 103.081 205.936H172.693C176.02 205.936 178.717 203.239 178.717 199.912V108.598C178.717 105.271 176.02 102.574 172.693 102.574Z" fill="#32cd71"/>
<path d="M111.323 205.94H104.546C104.338 205.94 104.17 206.109 104.17 206.317V207.406C104.17 207.614 104.338 207.783 104.546 207.783H111.323C111.531 207.783 111.7 207.614 111.7 207.406V206.317C111.7 206.109 111.531 205.94 111.323 205.94Z" fill="#263238"/>
<path d="M171.222 205.94H164.445C164.237 205.94 164.068 206.109 164.068 206.317V207.406C164.068 207.614 164.237 207.783 164.445 207.783H171.222C171.43 207.783 171.598 207.614 171.598 207.406V206.317C171.598 206.109 171.43 205.94 171.222 205.94Z" fill="#263238"/>
<path opacity="0.2" d="M172.693 102.574H103.081C99.7537 102.574 97.0566 105.271 97.0566 108.598V199.912C97.0566 203.239 99.7537 205.936 103.081 205.936H172.693C176.02 205.936 178.717 203.239 178.717 199.912V108.598C178.717 105.271 176.02 102.574 172.693 102.574Z" fill="black"/>
<path d="M165.665 191.719V116.796C165.665 116.15 165.141 115.626 164.495 115.626H111.278C110.632 115.626 110.109 116.15 110.109 116.796V191.719C110.109 192.365 110.632 192.889 111.278 192.889H164.495C165.141 192.889 165.665 192.365 165.665 191.719Z" fill="#32cd71"/>
<path opacity="0.1" d="M165.665 191.719V116.796C165.665 116.15 165.141 115.626 164.495 115.626H111.278C110.632 115.626 110.109 116.15 110.109 116.796V191.719C110.109 192.365 110.632 192.889 111.278 192.889H164.495C165.141 192.889 165.665 192.365 165.665 191.719Z" fill="white"/>
<path d="M180.469 123.884H179.967V128.121H180.469V123.884Z" fill="#32cd71"/>
<path d="M180.469 108.598H179.967V119.421H180.469V108.598Z" fill="#32cd71"/>
<path opacity="0.1" d="M137.885 172.838C147.339 172.838 155.003 165.174 155.003 155.72C155.003 146.266 147.339 138.602 137.885 138.602C128.431 138.602 120.767 146.266 120.767 155.72C120.767 165.174 128.431 172.838 137.885 172.838Z" fill="black"/>
<path d="M137.885 130.299C140.194 130.299 142.066 128.427 142.066 126.118C142.066 123.808 140.194 121.936 137.885 121.936C135.575 121.936 133.703 123.808 133.703 126.118C133.703 128.427 135.575 130.299 137.885 130.299Z" fill="#32cd71"/>
<path opacity="0.6" d="M137.859 130.289C140.169 130.289 142.041 128.417 142.041 126.107C142.041 123.798 140.169 121.926 137.859 121.926C135.55 121.926 133.678 123.798 133.678 126.107C133.678 128.417 135.55 130.289 137.859 130.289Z" fill="white"/>
<path d="M137.884 129.421C137.231 129.421 136.592 129.227 136.049 128.864C135.506 128.501 135.083 127.985 134.832 127.382C134.582 126.778 134.517 126.114 134.645 125.473C134.772 124.832 135.087 124.244 135.549 123.782C136.01 123.32 136.599 123.005 137.24 122.878C137.881 122.75 138.545 122.816 139.148 123.066C139.752 123.316 140.268 123.739 140.631 124.282C140.994 124.826 141.187 125.464 141.187 126.118C141.186 126.993 140.838 127.833 140.218 128.452C139.599 129.071 138.76 129.419 137.884 129.421ZM137.884 123.065C137.281 123.065 136.69 123.244 136.189 123.58C135.687 123.915 135.295 124.392 135.064 124.95C134.833 125.507 134.773 126.121 134.891 126.713C135.008 127.305 135.299 127.849 135.726 128.276C136.153 128.703 136.697 128.993 137.289 129.111C137.881 129.229 138.495 129.168 139.052 128.937C139.61 128.706 140.087 128.315 140.422 127.813C140.757 127.311 140.936 126.721 140.936 126.118C140.935 125.309 140.613 124.533 140.041 123.961C139.469 123.389 138.693 123.067 137.884 123.065Z" fill="#32cd71"/>
<path d="M110.039 125.465H108.177C107.766 125.465 107.434 125.797 107.434 126.208V136.398C107.434 136.809 107.766 137.141 108.177 137.141H110.039C110.449 137.141 110.782 136.809 110.782 136.398V126.208C110.782 125.797 110.449 125.465 110.039 125.465Z" fill="#32cd71"/>
<path opacity="0.6" d="M110.039 125.465H108.177C107.766 125.465 107.434 125.797 107.434 126.208V136.398C107.434 136.809 107.766 137.141 108.177 137.141H110.039C110.449 137.141 110.782 136.809 110.782 136.398V126.208C110.782 125.797 110.449 125.465 110.039 125.465Z" fill="white"/>
<path d="M110.039 171.373H108.177C107.766 171.373 107.434 171.706 107.434 172.116V182.307C107.434 182.717 107.766 183.05 108.177 183.05H110.039C110.449 183.05 110.782 182.717 110.782 182.307V172.116C110.782 171.706 110.449 171.373 110.039 171.373Z" fill="#32cd71"/>
<path opacity="0.6" d="M110.039 171.373H108.177C107.766 171.373 107.434 171.706 107.434 172.116V182.307C107.434 182.717 107.766 183.05 108.177 183.05H110.039C110.449 183.05 110.782 182.717 110.782 182.307V172.116C110.782 171.706 110.449 171.373 110.039 171.373Z" fill="white"/>
<path d="M137.885 171.378C147.339 171.378 155.003 163.714 155.003 154.26C155.003 144.806 147.339 137.142 137.885 137.142C128.431 137.142 120.767 144.806 120.767 154.26C120.767 163.714 128.431 171.378 137.885 171.378Z" fill="#32cd71"/>
<path opacity="0.6" d="M137.885 171.378C147.339 171.378 155.003 163.714 155.003 154.26C155.003 144.806 147.339 137.142 137.885 137.142C128.431 137.142 120.767 144.806 120.767 154.26C120.767 163.714 128.431 171.378 137.885 171.378Z" fill="white"/>
<path d="M129.415 145.075L128.705 145.785L146.361 163.441L147.071 162.731L129.415 145.075Z" fill="#32cd71"/>
<path d="M146.361 145.074L128.705 162.73L129.415 163.44L147.071 145.784L146.361 145.074Z" fill="#32cd71"/>
<path opacity="0.2" d="M146.304 145.017L128.647 162.673L129.357 163.383L147.014 145.727L146.304 145.017Z" fill="black"/>
<path opacity="0.2" d="M129.361 145.021L128.651 145.731L146.307 163.387L147.017 162.677L129.361 145.021Z" fill="black"/>
<path d="M137.834 167.196C135.263 167.197 132.75 166.436 130.612 165.008C128.474 163.581 126.807 161.551 125.823 159.177C124.838 156.802 124.58 154.188 125.081 151.667C125.582 149.145 126.82 146.829 128.637 145.011C130.454 143.193 132.77 141.955 135.291 141.453C137.813 140.951 140.426 141.208 142.801 142.191C145.176 143.175 147.207 144.841 148.635 146.978C150.063 149.116 150.826 151.629 150.826 154.199C150.823 157.645 149.453 160.948 147.018 163.385C144.582 165.821 141.279 167.192 137.834 167.196ZM137.834 142.207C135.462 142.206 133.143 142.908 131.17 144.225C129.197 145.543 127.659 147.415 126.75 149.607C125.842 151.798 125.604 154.209 126.066 156.536C126.528 158.863 127.67 161 129.347 162.678C131.024 164.356 133.161 165.498 135.487 165.961C137.814 166.425 140.225 166.187 142.417 165.28C144.609 164.372 146.482 162.835 147.8 160.863C149.118 158.89 149.822 156.572 149.822 154.199C149.819 151.02 148.555 147.972 146.308 145.724C144.06 143.476 141.013 142.211 137.834 142.207Z" fill="#32cd71"/>
<path d="M141.675 158.044C143.798 155.921 143.798 152.479 141.675 150.356C139.551 148.233 136.109 148.233 133.986 150.356C131.863 152.479 131.863 155.921 133.986 158.044C136.109 160.168 139.551 160.168 141.675 158.044Z" fill="#32cd71"/>
<path opacity="0.2" d="M137.834 167.196C135.263 167.197 132.75 166.436 130.612 165.008C128.474 163.581 126.807 161.551 125.823 159.177C124.838 156.802 124.58 154.188 125.081 151.667C125.582 149.145 126.82 146.829 128.637 145.011C130.454 143.193 132.77 141.955 135.291 141.453C137.813 140.951 140.426 141.208 142.801 142.191C145.176 143.175 147.207 144.841 148.635 146.978C150.063 149.116 150.826 151.629 150.826 154.199C150.823 157.645 149.453 160.948 147.018 163.385C144.582 165.821 141.279 167.192 137.834 167.196ZM137.834 142.207C135.462 142.206 133.143 142.908 131.17 144.225C129.197 145.543 127.659 147.415 126.75 149.607C125.842 151.798 125.604 154.209 126.066 156.536C126.528 158.863 127.67 161 129.347 162.678C131.024 164.356 133.161 165.498 135.487 165.961C137.814 166.425 140.225 166.187 142.417 165.28C144.609 164.372 146.482 162.835 147.8 160.863C149.118 158.89 149.822 156.572 149.822 154.199C149.819 151.02 148.555 147.972 146.308 145.724C144.06 143.476 141.013 142.211 137.834 142.207Z" fill="black"/>
<path opacity="0.2" d="M141.675 158.044C143.798 155.921 143.798 152.479 141.675 150.356C139.551 148.233 136.109 148.233 133.986 150.356C131.863 152.479 131.863 155.921 133.986 158.044C136.109 160.168 139.551 160.168 141.675 158.044Z" fill="black"/>
<path d="M95.8821 81.7056C97.0919 84.5117 98.3419 87.3531 99.6069 90.1492C100.872 92.9453 102.167 95.7365 103.553 98.4021C103.909 99.0547 104.25 99.7324 104.622 100.35L104.893 100.822L105.034 101.058C105.019 101.038 105.003 101.022 104.983 101.007C104.923 100.972 104.983 101.043 105.104 101.128C105.564 101.376 106.063 101.546 106.58 101.63C107.244 101.754 107.914 101.841 108.588 101.891C110.008 101.986 111.509 101.986 113.015 101.941L115.294 101.846L117.563 101.695L118.151 104.426C115.05 105.462 111.833 106.106 108.573 106.344C107.693 106.4 106.81 106.392 105.932 106.319C104.896 106.249 103.878 106.008 102.92 105.606C102.257 105.316 101.66 104.892 101.168 104.361C101.021 104.203 100.885 104.036 100.762 103.859L100.586 103.598L100.244 103.096C99.7676 102.403 99.366 101.71 98.9342 101.012C97.3078 98.2264 95.852 95.4052 94.4865 92.5588C93.1211 89.7125 91.851 86.841 90.6562 83.8943L95.8821 81.7056Z" fill="#DC9A97"/>
<path d="M89.2155 81.324C88.0759 84.6573 94.7726 94.4614 94.7726 94.4614L101.188 90.9072C100.099 87.8487 98.8127 84.864 97.3378 81.9716C95.0738 77.7297 90.4655 77.6644 89.2155 81.324Z" fill="#32cd71"/>
<path opacity="0.5" d="M89.2155 81.324C88.0759 84.6573 94.7726 94.4614 94.7726 94.4614L101.188 90.9072C100.099 87.8487 98.8127 84.864 97.3378 81.9716C95.0738 77.7297 90.4655 77.6644 89.2155 81.324Z" fill="white"/>
<path d="M89.1204 81.7405C90.5561 81.0527 92.2127 81.63 93.9496 84.381C95.6865 87.132 97.1724 91.7253 97.3381 93.0355L94.7729 94.4562C94.7729 94.4562 88.5882 85.4001 89.1204 81.7405Z" fill="#32cd71"/>
<path opacity="0.4" d="M89.1204 81.7405C90.5561 81.0527 92.2127 81.63 93.9496 84.381C95.6865 87.132 97.1724 91.7253 97.3381 93.0355L94.7729 94.4562C94.7729 94.4562 88.5882 85.4001 89.1204 81.7405Z" fill="white"/>
<path d="M93.5476 78.7738C93.5476 78.7738 98.3266 90.0136 94.8778 110.942H74.9786C74.7326 107.885 76.1382 92.9804 72.6895 78.5831C74.8774 78.1569 77.0909 77.8752 79.3159 77.7397C82.1331 77.579 84.9573 77.579 87.7746 77.7397C89.7224 77.9366 91.6524 78.2824 93.5476 78.7738Z" fill="#32cd71"/>
<path opacity="0.5" d="M93.5476 78.7738C93.5476 78.7738 98.3266 90.0136 94.8778 110.942H74.9786C74.7326 107.885 76.1382 92.9804 72.6895 78.5831C74.8774 78.1569 77.0909 77.8752 79.3159 77.7397C82.1331 77.579 84.9573 77.579 87.7746 77.7397C89.7224 77.9366 91.6524 78.2824 93.5476 78.7738Z" fill="white"/>
<path d="M77.138 82.1374C77.5497 84.5068 77.0025 90.1694 74.9694 96.7255C74.8102 91.1084 74.1568 85.5163 73.0166 80.0139V79.9838C74.3218 79.8533 76.7415 79.9135 77.138 82.1374Z" fill="#32cd71"/>
<path opacity="0.4" d="M77.138 82.1374C77.5497 84.5068 77.0025 90.1694 74.9694 96.7255C74.8102 91.1084 74.1568 85.5163 73.0166 80.0139V79.9838C74.3218 79.8533 76.7415 79.9135 77.138 82.1374Z" fill="white"/>
<path d="M67.9258 200.112L70.8775 202.753L76.4949 196.905L73.5432 194.264L67.9258 200.112Z" fill="#DC9A97"/>
<path d="M71.6909 201.693L68.1066 199.294C68.0481 199.247 67.9755 199.222 67.9008 199.222C67.8261 199.222 67.7535 199.247 67.695 199.294L64.9541 202.06C64.9006 202.121 64.8611 202.192 64.8385 202.27C64.8158 202.348 64.8105 202.43 64.823 202.51C64.8354 202.59 64.8653 202.666 64.9105 202.733C64.9557 202.8 65.0151 202.857 65.0846 202.898C67.3737 204.66 69.0253 205.991 70.3305 207.456C71.8365 209.168 72.6497 209.414 76.1637 209.414C77.7902 209.414 78.7089 208.044 78.0462 207.833C72.1929 205.98 73.7591 205.172 72.3335 202.456C72.1889 202.151 71.9675 201.888 71.6909 201.693Z" fill="#263238"/>
<path d="M76.4898 196.905L73.5982 199.922L70.6465 197.276L73.538 194.264L76.4898 196.905Z" fill="#D98989"/>
<path d="M78.5186 196.99H82.2384L81.9874 201.432H78.2676L78.5186 196.99Z" fill="#D98989"/>
<path d="M94.8786 110.942C94.8786 110.942 98.7992 138.08 100.135 152.849C101.209 164.701 75.5817 200.037 75.5817 200.037L70.627 195.373C70.627 195.373 89.3415 163.692 87.9008 150.499C86.5102 137.724 81.7764 110.927 81.7764 110.927L94.8786 110.942Z" fill="#32cd71"/>
<path opacity="0.5" d="M94.8786 110.942C94.8786 110.942 98.7992 138.08 100.135 152.849C101.209 164.701 75.5817 200.037 75.5817 200.037L70.627 195.373C70.627 195.373 89.3415 163.692 87.9008 150.499C86.5102 137.724 81.7764 110.927 81.7764 110.927L94.8786 110.942Z" fill="black"/>
<path d="M78.0312 205.604H81.7561L82.238 196.99H78.5182L78.0312 205.604Z" fill="#DC9A97"/>
<path d="M81.9517 205.177H77.77C77.7003 205.175 77.6322 205.199 77.5806 205.246C77.529 205.293 77.4978 205.359 77.4939 205.428L77.2881 208.737C77.2874 208.823 77.3038 208.909 77.3362 208.989C77.3687 209.069 77.4166 209.142 77.4772 209.203C77.5378 209.265 77.6099 209.314 77.6894 209.347C77.769 209.381 77.8543 209.399 77.9407 209.399C79.3965 209.374 80.0943 209.289 81.9567 209.289C83.0862 209.289 87.8954 209.409 89.4616 209.409C91.0278 209.409 90.9676 207.863 90.315 207.723C87.3482 207.095 83.6685 206.217 82.6143 205.403C82.4258 205.254 82.1919 205.175 81.9517 205.177Z" fill="#263238"/>
<path d="M116.781 101.866L120.199 100.51L121.033 104.024C121.033 104.024 117.132 105.189 116.515 104.064L116.781 101.866Z" fill="#DC9A97"/>
<path d="M123.096 101.218L124.1 103.141L121.033 104.014L120.199 100.51L123.096 101.218Z" fill="#DC9A97"/>
<path d="M79.8184 68.2119C80.4459 70.9328 81.1537 75.9226 79.3164 77.7499C79.3164 77.7499 80.1096 80.0039 85.1697 80.0039C90.7319 80.0039 87.7751 77.7499 87.7751 77.7499C84.7129 77.027 84.7179 74.7731 85.1697 72.6596L79.8184 68.2119Z" fill="#DC9A97"/>
<path d="M82.0116 70.0239L85.1792 72.6444C85.0651 73.1393 84.9946 73.6432 84.9684 74.1504C83.8037 73.9847 82.1672 72.7096 82.0015 71.4948C81.9129 71.0082 81.9163 70.5093 82.0116 70.0239Z" fill="#D98989"/>
<path d="M87.7695 60.1146C89.4612 61.209 89.7022 66.4699 87.2273 67.2229C84.7525 67.9759 84.5667 58.0464 87.7695 60.1146Z" fill="#263238"/>
<path d="M78.644 65.3603C79.7785 68.8743 80.2605 70.9978 82.5496 72.4385C83.288 72.9131 84.1422 73.1768 85.0197 73.201C85.8972 73.2252 86.7647 73.009 87.5282 72.5759C88.2917 72.1427 88.9222 71.509 89.3516 70.7433C89.7809 69.9776 89.9927 69.1091 89.9641 68.2317C89.9189 64.8533 88.0716 59.6526 84.1811 59C83.3426 58.8381 82.4763 58.8994 81.6689 59.1776C80.8616 59.4559 80.1415 59.9414 79.5808 60.5855C79.0201 61.2296 78.6384 62.0097 78.474 62.8476C78.3096 63.6856 78.3682 64.5521 78.644 65.3603Z" fill="#DC9A97"/>
<path d="M74.5876 62.0523C75.8024 64.256 78.8546 69.276 80.3204 68.774C81.7862 68.272 81.7913 64.256 79.9088 61.7109C79.9088 61.7109 94.8232 63.2169 95.1244 54.7431C95.4306 46.0736 88.247 54.462 81.9268 56.8867C75.0494 59.5473 71.7312 56.8666 74.5876 62.0523Z" fill="#263238"/>
<path d="M75.2246 58.9799C75.1962 58.9741 75.1707 58.9587 75.1523 58.9363C75.134 58.9139 75.124 58.8858 75.124 58.8569C75.124 58.8279 75.134 58.7999 75.1523 58.7775C75.1707 58.755 75.1962 58.7397 75.2246 58.7339C75.4505 58.6837 75.6964 58.6385 75.9625 58.5883C77.9624 58.2619 79.9126 57.6816 81.7656 56.8614C83.6481 56.0181 85.621 54.5723 87.3679 53.2972C88.4777 52.45 89.6341 51.6656 90.8317 50.9479C90.8612 50.9331 90.8953 50.9301 90.9269 50.9394C90.9586 50.9487 90.9856 50.9697 91.0024 50.9981C91.0104 51.0126 91.0154 51.0285 91.0171 51.0449C91.0189 51.0614 91.0174 51.078 91.0128 51.0938C91.0081 51.1097 91.0004 51.1245 90.99 51.1373C90.9796 51.1502 90.9667 51.1609 90.9522 51.1688C89.763 51.8816 88.6149 52.6609 87.5135 53.5031C85.7615 54.7832 83.7736 56.2339 81.866 57.0924C79.9971 57.9201 78.0301 58.5055 76.0127 58.8343C75.7466 58.8845 75.5107 58.9297 75.2747 58.9799H75.2246Z" fill="#263238"/>
<path d="M78.0209 69.6527C78.6942 70.307 79.5923 70.6788 80.5309 70.6919C81.7759 70.6919 82.0369 69.5172 81.3693 68.5333C80.7769 67.6497 79.4215 66.5855 78.3272 67.0624C77.2328 67.5393 77.1977 68.8445 78.0209 69.6527Z" fill="#DC9A97"/>
<path opacity="0.2" d="M87.9051 150.514C87.1872 143.933 85.5808 133.622 84.2003 125.179C84.9232 123.763 86.9513 120.896 86.9513 120.896C88.7685 127.177 92.7193 150.851 87.0818 182.823C81.2084 192.291 75.586 200.052 75.586 200.052L74.7979 187.843C80.2446 177.633 88.9041 159.636 87.9051 150.514Z" fill="black"/>
<path d="M84.3615 65.1644C84.4368 65.4556 84.6526 65.6664 84.8635 65.6162C85.0743 65.566 85.1496 65.3 85.0743 65.0088C84.999 64.7177 84.7832 64.5068 84.5723 64.562C84.3615 64.6173 84.2862 64.8733 84.3615 65.1644Z" fill="#263238"/>
<path d="M87.6747 64.437C87.75 64.7281 87.9659 64.939 88.1767 64.8888C88.3876 64.8386 88.4629 64.5775 88.3876 64.2864C88.3123 63.9952 88.1014 63.7844 87.8856 63.8346C87.6697 63.8848 87.5994 64.1458 87.6747 64.437Z" fill="#263238"/>
<path d="M86.6602 64.8135C87.2386 65.6278 87.9223 66.3621 88.6933 66.9972C88.5256 67.1835 88.3191 67.3308 88.0885 67.4288C87.8578 67.5268 87.6084 67.5731 87.3579 67.5644L86.6602 64.8135Z" fill="#B08181"/>
<path d="M86.0929 68.6232C85.4815 68.6293 84.8883 68.4156 84.4213 68.0208C84.413 68.0129 84.4064 68.0035 84.4018 67.993C84.3973 67.9825 84.3948 67.9713 84.3945 67.9599C84.3943 67.9484 84.3963 67.9371 84.4005 67.9264C84.4046 67.9158 84.4109 67.9061 84.4188 67.8978C84.4267 67.8896 84.4361 67.883 84.4466 67.8784C84.4571 67.8738 84.4683 67.8713 84.4797 67.8711C84.4912 67.8709 84.5025 67.8729 84.5132 67.8771C84.5238 67.8812 84.5335 67.8874 84.5418 67.8953C84.8357 68.1342 85.1798 68.3034 85.5485 68.3903C85.9171 68.4773 86.3006 68.4797 86.6702 68.3973C86.6814 68.3947 86.6931 68.3943 86.7044 68.3962C86.7158 68.398 86.7267 68.4021 86.7365 68.4081C86.7463 68.4142 86.7548 68.4221 86.7615 68.4315C86.7682 68.4408 86.773 68.4514 86.7757 68.4626C86.7783 68.4738 86.7787 68.4854 86.7768 68.4968C86.775 68.5082 86.7709 68.519 86.7649 68.5288C86.7588 68.5386 86.7509 68.5471 86.7415 68.5538C86.7322 68.5606 86.7216 68.5654 86.7104 68.568C86.5073 68.6094 86.3002 68.6279 86.0929 68.6232Z" fill="#263238"/>
<path d="M83.046 64.3262C83.0229 64.3309 82.999 64.3309 82.9758 64.3262C82.9543 64.3175 82.9347 64.3044 82.9184 64.2879C82.9021 64.2714 82.8893 64.2518 82.8809 64.2302C82.8724 64.2085 82.8685 64.1854 82.8692 64.1622C82.87 64.139 82.8755 64.1162 82.8854 64.0952C82.9925 63.8409 83.1601 63.6165 83.3735 63.4416C83.587 63.2666 83.8399 63.1463 84.1103 63.0912C84.1565 63.0867 84.2028 63.0996 84.24 63.1275C84.2771 63.1554 84.3025 63.1962 84.3111 63.2418C84.3146 63.2649 84.3135 63.2885 84.3078 63.3112C84.3022 63.3339 84.292 63.3552 84.278 63.3739C84.264 63.3926 84.2463 63.4083 84.2262 63.4201C84.206 63.4319 84.1837 63.4396 84.1605 63.4426C83.9481 63.4905 83.7505 63.589 83.5844 63.7297C83.4183 63.8704 83.2888 64.0492 83.2067 64.2509C83.1894 64.2769 83.1653 64.2977 83.1369 64.311C83.1086 64.3243 83.0771 64.3295 83.046 64.3262Z" fill="#263238"/>
<path d="M88.7943 62.9959C88.7682 62.9961 88.7424 62.9903 88.7189 62.979C88.6954 62.9677 88.6749 62.9511 88.6588 62.9306C88.5175 62.755 88.3386 62.6133 88.1353 62.516C87.932 62.4187 87.7095 62.3682 87.4841 62.3684C87.4377 62.3712 87.3921 62.3561 87.3565 62.3262C87.321 62.2963 87.2984 62.2539 87.2933 62.2077C87.2905 62.1614 87.3055 62.1157 87.3355 62.0802C87.3654 62.0447 87.4078 62.0221 87.454 62.017C87.7362 62.0113 88.0159 62.0703 88.2717 62.1895C88.5276 62.3087 88.7527 62.485 88.9298 62.7047C88.9592 62.7416 88.973 62.7884 88.9683 62.8353C88.9636 62.8822 88.9408 62.9254 88.9047 62.9557C88.8736 62.9814 88.8346 62.9956 88.7943 62.9959Z" fill="#263238"/>
<path d="M75.2698 98.7335C74.2699 98.3968 73.3103 97.9507 72.4084 97.4032C72.212 97.2783 72.0301 97.1318 71.8662 96.9665C72.0971 95.8872 72.3983 94.8029 72.7246 93.7135C73.0509 92.6242 73.4525 91.5098 73.8692 90.4104C74.2858 89.311 74.7276 88.2166 75.1894 87.1323C75.4204 86.5902 75.6563 86.048 75.8973 85.5109L76.6201 83.9496L71.6001 81.3794C71.2688 82.0069 70.9977 82.5591 70.7267 83.1565C70.4556 83.7539 70.2247 84.3312 69.9536 84.9235C69.4583 86.1149 69.0065 87.3214 68.5982 88.5429C67.7472 91.0367 67.1502 93.6099 66.8161 96.2235V96.3591V96.6201C66.8035 96.8006 66.8035 96.9818 66.8161 97.1623C66.8363 97.5267 66.9004 97.8874 67.0068 98.2366C67.2047 98.852 67.5258 99.4208 67.9506 99.9082C68.5754 100.589 69.3253 101.143 70.1594 101.54C71.4442 102.146 72.8028 102.581 74.2005 102.835C76.7459 103.319 79.3367 103.521 81.9263 103.437L82.1572 100.651C79.8263 100.145 77.5267 99.505 75.2698 98.7335Z" fill="#DC9A97"/>
<path d="M83.2724 205.82C82.934 205.812 82.5975 205.768 82.2684 205.689C82.2532 205.684 82.2395 205.676 82.2282 205.664C82.2169 205.653 82.2083 205.639 82.2031 205.624C82.2007 205.608 82.2028 205.592 82.209 205.577C82.2151 205.562 82.2253 205.548 82.2382 205.539C82.3587 205.453 83.4129 204.736 83.8647 204.916C83.916 204.936 83.9614 204.968 83.9965 205.011C84.0317 205.053 84.0554 205.103 84.0655 205.157C84.0875 205.238 84.089 205.323 84.0697 205.405C84.0504 205.486 84.011 205.562 83.9551 205.624C83.759 205.77 83.5162 205.84 83.2724 205.82ZM82.5093 205.569C83.177 205.699 83.674 205.679 83.8497 205.509C83.8858 205.465 83.9102 205.414 83.9208 205.358C83.9313 205.303 83.9276 205.246 83.9099 205.192C83.9053 205.166 83.8942 205.141 83.8775 205.12C83.8609 205.099 83.8392 205.082 83.8145 205.072C83.5485 204.966 82.8858 205.318 82.5093 205.569Z" fill="#32cd71"/>
<path d="M82.2977 205.689C82.2848 205.694 82.2706 205.694 82.2576 205.689C82.245 205.683 82.2343 205.674 82.2264 205.663C82.2184 205.651 82.2136 205.638 82.2124 205.624C82.2124 205.579 82.1271 204.51 82.5036 204.148C82.5506 204.102 82.6076 204.067 82.6703 204.046C82.7329 204.025 82.7996 204.019 82.865 204.028C82.9385 204.031 83.009 204.058 83.0653 204.105C83.1217 204.152 83.1607 204.217 83.1763 204.289C83.2616 204.696 82.7094 205.469 82.3379 205.689H82.2977ZM82.7998 204.183C82.7653 204.183 82.7311 204.189 82.6992 204.202C82.6673 204.215 82.6383 204.234 82.614 204.259C82.4073 204.619 82.3211 205.036 82.368 205.449C82.6743 205.187 83.0708 204.595 83.0106 204.314C83.0106 204.259 82.9704 204.199 82.8399 204.183H82.7998Z" fill="#32cd71"/>
<path d="M74.106 203.707C73.4421 203.605 72.8083 203.36 72.2486 202.989C72.2321 202.981 72.219 202.968 72.2116 202.951C72.2042 202.935 72.2031 202.916 72.2084 202.899C72.2132 202.881 72.2229 202.866 72.2362 202.855C72.2496 202.843 72.2661 202.836 72.2837 202.833C72.4845 202.833 74.2465 202.703 74.5778 203.104C74.6075 203.137 74.6281 203.177 74.6378 203.22C74.6475 203.263 74.6459 203.308 74.6331 203.35C74.6176 203.419 74.5859 203.484 74.5404 203.538C74.495 203.592 74.4373 203.634 74.372 203.662C74.2867 203.692 74.1966 203.708 74.106 203.707ZM72.5749 202.984C73.3831 203.431 74.0206 203.626 74.3068 203.486C74.3482 203.469 74.3849 203.442 74.4137 203.408C74.4426 203.374 74.4627 203.334 74.4724 203.29C74.4812 203.275 74.4859 203.257 74.4859 203.24C74.4859 203.222 74.4812 203.205 74.4724 203.19C74.2666 202.989 73.2927 202.954 72.5749 202.984Z" fill="#32cd71"/>
<path d="M72.2887 203.004C72.2746 203.004 72.2607 203 72.2485 202.993C72.2362 202.986 72.2259 202.976 72.2184 202.964C72.2122 202.951 72.209 202.938 72.209 202.924C72.209 202.91 72.2122 202.896 72.2184 202.883C72.2485 202.823 72.9162 201.463 73.7746 201.879C74.0105 201.995 74.0306 202.13 74.0105 202.226C73.9252 202.632 72.8108 202.999 72.2987 203.014L72.2887 203.004ZM73.4483 201.965C72.9865 201.965 72.5899 202.552 72.4443 202.823C72.9814 202.758 73.8047 202.422 73.8549 202.181C73.8549 202.13 73.8148 202.075 73.7043 202.02C73.6247 201.981 73.5369 201.962 73.4483 201.965Z" fill="#32cd71"/>
<path d="M81.5801 100.611L84.6373 99.7725L85.0539 103.633C85.0539 103.633 82.0419 104.536 81.2939 102.955L81.5801 100.611Z" fill="#DC9A97"/>
<path d="M81.5205 100.691C82.1607 99.9971 82.5357 99.0995 82.5797 98.1562L83.3629 98.583C83.3629 98.583 83.5185 100.315 83.2123 100.812C82.906 101.309 81.5205 100.691 81.5205 100.691Z" fill="#DC9A97"/>
<path d="M86.0685 100.154L85.8828 103.633H85.0545L84.6328 99.7725L86.0685 100.154Z" fill="#DC9A97"/>
<path d="M70.3301 195.107L75.8872 200.338L77.6794 198.416L71.319 192.623L70.3301 195.107Z" fill="#32cd71"/>
<path opacity="0.1" d="M70.3301 195.107L75.8872 200.338L77.6794 198.416L71.319 192.623L70.3301 195.107Z" fill="black"/>
<path d="M87.8052 110.942C87.8052 110.942 88.1566 139.38 87.5542 150.038C86.8965 161.704 83.5833 200.363 83.5833 200.363H76.7662C76.7662 200.363 76.972 162.648 76.5604 151.097C76.1136 138.547 74.959 110.937 74.959 110.937L87.8052 110.942Z" fill="#32cd71"/>
<path opacity="0.5" d="M87.8052 110.942C87.8052 110.942 88.1566 139.38 87.5542 150.038C86.8965 161.704 83.5833 200.363 83.5833 200.363H76.7662C76.7662 200.363 76.972 162.648 76.5604 151.097C76.1136 138.547 74.959 110.937 74.959 110.937L87.8052 110.942Z" fill="black"/>
<path d="M76.4951 200.363H83.8594L84.2661 197.773L76.1387 198.18L76.4951 200.363Z" fill="#32cd71"/>
<path opacity="0.1" d="M76.4951 200.363H83.8594L84.2661 197.773L76.1387 198.18L76.4951 200.363Z" fill="black"/>
<path d="M72.6895 78.583C69.1755 79.085 65.5762 91.9914 65.5762 91.9914L74.0449 95.2143C74.0449 95.2143 76.1734 89.6923 77.6292 85.36C79.1553 80.847 76.4495 78.0308 72.6895 78.583Z" fill="#32cd71"/>
<path opacity="0.5" d="M72.6895 78.583C69.1755 79.085 65.5762 91.9914 65.5762 91.9914L74.0449 95.2143C74.0449 95.2143 76.1734 89.6923 77.6292 85.36C79.1553 80.847 76.4495 78.0308 72.6895 78.583Z" fill="white"/>
</svg>
