<svg width="437" height="437" viewBox="0 0 437 437" fill="none" xmlns="http://www.w3.org/2000/svg">
<path d="M178.12 179.765C242.316 170.255 353.148 269.874 380.416 176.889C399.767 110.928 278.954 23.9391 220.029 66.197C184.352 91.7702 191.405 89.6639 139.446 85.8882C86.7525 82.0601 64.5441 84.5423 55.9352 136.204C51.4866 162.94 55.4895 215.31 94.1989 229.53C142.636 247.342 138.904 185.577 178.12 179.765Z" fill="white"/>
<path d="M218.501 373.687C312.091 373.687 387.961 369.258 387.961 363.794C387.961 358.329 312.091 353.9 218.501 353.9C124.911 353.9 49.041 358.329 49.041 363.794C49.041 369.258 124.911 373.687 218.501 373.687Z" fill="#C8D4FF"/>
<path d="M222.301 116.093L221.689 115.613C224.443 112.117 227.335 108.83 230.29 105.754L230.84 106.296C227.904 109.346 225.028 112.65 222.301 116.093Z" fill="#65C17E"/>
<path d="M219.038 118.964L216.219 122.518L216.821 122.996L219.64 119.442L219.038 118.964Z" fill="#65C17E"/>
<path d="M279.679 156.638C298.671 126.109 301.258 96.0261 287.432 86.2898C273.605 76.5534 246.153 89.1215 223.805 117.291L159.941 197.847L225.421 243.959L279.679 156.638Z" fill="#65C17E"/>
<path opacity="0.1" d="M272.206 151.377L216.62 237.789L209.82 224.793L265.031 145.958C280.641 123.662 289.389 103.289 289.424 91.9446C289.422 91.7253 289.499 91.5125 289.639 91.344C289.779 91.1755 289.975 91.0623 290.191 91.0246C290.407 90.9868 290.63 91.0269 290.819 91.1378C291.008 91.2487 291.152 91.4231 291.225 91.63C295.158 102.948 288.341 126.302 272.206 151.377Z" fill="white"/>
<path d="M225.383 243.939C234.223 231.385 226.729 210.885 208.645 198.151C190.561 185.418 168.735 185.273 159.895 197.828C151.055 210.383 158.549 230.882 176.633 243.616C194.717 256.349 216.543 256.494 225.383 243.939Z" fill="#65C17E"/>
<path opacity="0.5" d="M225.383 243.939C234.223 231.385 226.729 210.885 208.645 198.151C190.561 185.418 168.735 185.273 159.895 197.828C151.055 210.383 158.549 230.882 176.633 243.616C194.717 256.349 216.543 256.494 225.383 243.939Z" fill="white"/>
<path opacity="0.1" d="M218.588 183.924C204.219 173.803 187.919 170.91 177.51 175.639L161.297 196.073C170.911 185.34 191.459 186.074 208.641 198.17C225.824 210.267 233.454 229.398 226.567 242.045L240.175 220.195C241.347 208.72 233.113 194.15 218.588 183.924Z" fill="black"/>
<path opacity="0.2" d="M241.599 118.042C237.614 124.353 234.607 136.161 246.45 144.49C258.292 152.819 268.396 146.028 272.984 140.12L241.599 118.042Z" fill="black"/>
<path d="M275.783 132.848C274.428 144.123 261.397 152.347 247.719 142.715C234.041 133.084 237.388 118.042 247.544 112.999C253.802 109.87 261.773 111.251 267.226 115.045C272.68 118.838 276.622 125.856 275.783 132.848Z" fill="white"/>
<path d="M249.58 140.05C244.257 136.309 241.53 131.415 241.915 126.293C242.089 124.083 242.833 121.955 244.074 120.117C245.314 118.279 247.009 116.794 248.994 115.805C253.749 113.428 260.478 114.171 265.364 117.605C270.25 121.04 273.23 127.141 272.575 132.42C272.315 134.615 271.492 136.707 270.185 138.491C268.879 140.275 267.134 141.691 265.119 142.602C260.452 144.717 254.902 143.799 249.58 140.05Z" fill="#65C17E"/>
<path opacity="0.3" d="M249.58 140.05C244.257 136.309 241.53 131.415 241.915 126.293C242.089 124.083 242.833 121.955 244.074 120.117C245.314 118.279 247.009 116.794 248.994 115.805C253.749 113.428 260.478 114.171 265.364 117.605C270.25 121.04 273.23 127.141 272.575 132.42C272.315 134.615 271.492 136.707 270.185 138.491C268.879 140.275 267.134 141.691 265.119 142.602C260.452 144.717 254.902 143.799 249.58 140.05Z" fill="black"/>
<path d="M249.58 140.05C244.257 136.309 241.434 131.554 241.644 126.677C241.734 124.604 242.396 122.596 243.556 120.875C244.716 119.154 246.329 117.786 248.216 116.924C252.787 114.809 259.386 115.735 264.272 119.179C269.157 122.622 272.251 128.522 271.797 133.538C271.62 135.609 270.874 137.591 269.639 139.263C268.405 140.936 266.732 142.233 264.805 143.012C260.321 144.857 254.902 143.799 249.58 140.05Z" fill="#65C17E"/>
<path opacity="0.2" d="M249.58 140.05C244.257 136.309 241.434 131.554 241.644 126.677C241.734 124.604 242.396 122.596 243.556 120.875C244.716 119.154 246.329 117.786 248.216 116.924C252.787 114.809 259.386 115.735 264.272 119.179C269.157 122.622 272.251 128.522 271.797 133.538C271.62 135.609 270.874 137.591 269.639 139.263C268.405 140.936 266.732 142.233 264.805 143.012C260.321 144.857 254.902 143.799 249.58 140.05Z" fill="white"/>
<path opacity="0.3" d="M267.977 122.631L243.374 133.486C242.154 131.43 241.547 129.067 241.626 126.678C241.673 125.552 241.894 124.44 242.281 123.383L258.162 116.391C262.016 117.367 265.453 119.562 267.96 122.648L267.977 122.631Z" fill="white"/>
<path opacity="0.3" d="M271.508 129.632L248.932 139.578C247.575 138.582 246.337 137.432 245.244 136.152L269.804 125.314C270.571 126.666 271.145 128.12 271.508 129.632V129.632Z" fill="white"/>
<path opacity="0.1" d="M296.119 110.168C295.368 104.137 290.735 97.1625 283.411 92.0059C276.087 86.8493 267.968 84.8391 262.033 86.1588C272.128 82.0423 281.174 81.885 287.432 86.2899C293.69 90.6949 296.591 99.2776 296.119 110.168Z" fill="black"/>
<path opacity="0.5" d="M208.632 219.355C211.386 215.444 209.155 209.131 203.649 205.254C198.143 201.377 191.447 201.405 188.694 205.317C185.94 209.228 188.17 215.541 193.676 219.418C199.182 223.294 205.878 223.266 208.632 219.355Z" fill="#65C17E"/>
<path opacity="0.5" d="M182.666 215.686C179.913 219.592 173.218 219.627 167.712 215.747C162.205 211.866 159.968 205.556 162.721 201.649C165.474 197.742 172.178 197.707 177.684 201.588C183.19 205.469 185.384 211.779 182.666 215.686Z" fill="#65C17E"/>
<path opacity="0.5" d="M220.868 242.613C218.115 246.529 211.42 246.555 205.914 242.675C200.407 238.794 198.179 232.484 200.932 228.577C203.685 224.67 210.38 224.635 215.886 228.516C221.392 232.396 223.621 238.707 220.868 242.613Z" fill="#65C17E"/>
<path opacity="0.5" d="M194.901 238.934C192.148 242.841 185.453 242.867 179.947 238.995C174.441 235.123 172.212 228.804 174.965 224.889C177.718 220.973 184.413 220.956 189.919 224.828C195.425 228.7 197.619 235.019 194.901 238.934Z" fill="#65C17E"/>
<path opacity="0.5" d="M208.641 219.374C208.35 219.787 208.009 220.163 207.627 220.493C209.157 216.595 206.849 211.185 201.929 207.724C197.008 204.263 191.143 203.913 187.988 206.657C188.174 206.192 188.411 205.749 188.696 205.338C191.449 201.431 198.153 201.396 203.659 205.276C209.165 209.157 211.385 215.459 208.641 219.374Z" fill="#474C49"/>
<path opacity="0.5" d="M182.665 215.685C182.375 216.096 182.038 216.472 181.66 216.804C183.19 212.897 180.891 207.496 175.962 204.026C171.032 200.557 165.177 200.216 162.021 202.969C162.205 202.503 162.443 202.06 162.729 201.649C165.483 197.734 172.177 197.707 177.684 201.588C183.19 205.468 185.383 211.77 182.665 215.685Z" fill="#474C49"/>
<path opacity="0.5" d="M220.869 242.622C220.578 243.031 220.241 243.403 219.863 243.732C221.393 239.826 219.086 234.424 214.165 230.963C209.244 227.502 203.38 227.144 200.225 229.906C200.406 229.436 200.644 228.99 200.933 228.577C203.686 224.662 210.38 224.636 215.887 228.516C221.393 232.397 223.63 238.707 220.869 242.622Z" fill="#474C49"/>
<path opacity="0.5" d="M194.902 238.934C194.616 239.346 194.278 239.719 193.897 240.044C195.426 236.146 193.119 230.736 188.198 227.275C183.277 223.814 177.413 223.464 174.258 226.217C174.438 225.747 174.676 225.301 174.966 224.889C177.719 220.973 184.414 220.956 189.92 224.828C195.426 228.7 197.62 235.019 194.902 238.934Z" fill="#474C49"/>
<path d="M203.274 147.033C203.274 147.033 191.475 162.346 181.197 175.525C179.738 177.363 177.825 178.789 175.648 179.664C173.47 180.539 171.103 180.833 168.778 180.516C159.802 179.406 145.18 185.76 145.18 185.76C145.18 185.76 172.842 140.321 203.274 147.033Z" fill="#65C17E"/>
<path d="M203.274 147.033C203.274 147.033 191.475 162.346 181.197 175.525C179.738 177.363 177.825 178.789 175.648 179.664C173.47 180.539 171.103 180.833 168.778 180.516C159.802 179.406 145.18 185.76 145.18 185.76C145.18 185.76 172.842 140.321 203.274 147.033Z" fill="#474C49"/>
<path d="M258.608 186.004C258.608 186.004 248.216 202.27 239.223 216.385C237.985 218.378 237.288 220.659 237.199 223.004C237.11 225.348 237.633 227.675 238.716 229.757C242.789 237.841 241.723 253.783 241.723 253.783C241.723 253.783 275.188 212.382 258.608 186.004Z" fill="#65C17E"/>
<path d="M258.608 186.004C258.608 186.004 248.216 202.27 239.223 216.385C237.985 218.378 237.288 220.659 237.199 223.004C237.11 225.348 237.633 227.675 238.716 229.757C242.789 237.841 241.723 253.783 241.723 253.783C241.723 253.783 275.188 212.382 258.608 186.004Z" fill="#474C49"/>
<path opacity="0.12" d="M296.732 302.937C307.648 276.227 260.452 268.659 241.775 275.362C223.097 282.066 204.053 287.048 203.319 269.174C202.584 251.301 216.97 240.219 210.11 236.093C206.308 233.803 205.224 237.841 203.345 243.732C197.594 261.78 165.02 266.08 180.009 292.204C194.998 318.328 187.001 312.656 161.786 323.135C136.571 333.614 149.55 363.793 173.943 363.793H320.845C388.178 363.793 324.429 234.913 296.732 302.937Z" fill="#65C17E"/>
<path opacity="0.13" d="M172.659 209.839C170.701 203.039 160.108 211.587 149.672 221.943C139.237 232.3 134.089 255.942 123.994 268.265C113.9 280.589 84.9964 291.724 96.2973 310.27C112.964 337.6 74.657 363.82 120.026 363.82H213.081C230.098 363.82 248.548 343.01 222.048 328.86C195.549 314.71 155.852 347.703 145.136 316.231C139.822 300.612 159.12 307.779 150.179 282.206C141.238 256.632 141.833 249.667 146.386 238.27C157.469 210.494 175.674 220.169 172.659 209.839Z" fill="#65C17E"/>
<path opacity="0.19" d="M191.948 212.976C194.255 208.763 202.174 211.289 201.999 216.804C201.824 222.319 181.32 229.547 185.131 248.592C188.941 267.636 225.544 268.999 234.136 288.079C242.727 307.158 209.445 309.833 219.374 321.763C229.303 333.693 259.945 306.293 281.778 313.338C303.61 320.382 325.425 363.794 285.378 363.794H161.978C135.147 363.794 115.552 308.391 141.335 285.597C167.118 262.803 146.316 270.206 155.939 255.601C165.562 240.997 183.094 229.128 191.948 212.976Z" fill="#65C17E"/>
</svg>
