<svg width="549" height="514" viewBox="0 0 549 514" fill="none" xmlns="http://www.w3.org/2000/svg">
<path d="M199.581 230.915C236.896 192.934 229.362 117.413 285.888 97.0828C330.92 80.8867 394.518 118.316 413.443 157.569C424.332 180.168 425.434 206.638 437.42 229.86C450.292 254.76 478.719 267.486 483.883 299.027C490.919 341.545 447.569 389.82 402.927 396.298C369.04 401.194 349.382 389.396 319.296 383.658C275.558 375.32 251.896 380.807 209.036 381.572C148.918 382.695 77.9587 365.772 43.264 307.805C24.2692 276.068 21.2405 217.851 75.3843 219.223C120.982 220.368 143.624 287.857 199.581 230.915Z" fill="white"/>
<path d="M219.022 138.219C231.629 138.219 240.236 130.297 240.236 118.643C240.236 107.94 232.695 100.209 222.184 100.209C216.585 100.209 212.205 102.532 209.958 106.227H209.729L210.986 91.1826H236.923V82.042H201.96L199.256 113.653H209.539C211.443 110.492 215.023 108.588 219.175 108.588C225.116 108.588 229.268 112.854 229.268 118.947C229.268 124.927 225.116 129.116 219.099 129.116C213.767 129.116 209.653 125.917 209.006 121.271H198.38C198.723 131.211 207.216 138.219 219.022 138.219ZM274.353 138.219C288.179 138.219 296.557 127.136 296.557 109.388C296.557 91.6396 288.102 80.7852 274.353 80.7852C260.604 80.7852 252.111 91.6777 252.111 109.426C252.111 127.212 260.528 138.219 274.353 138.219ZM274.353 129.002C267.803 129.002 263.804 121.918 263.804 109.426C263.804 97.0479 267.879 90.002 274.353 90.002C280.866 90.002 284.865 97.0098 284.865 109.426C284.865 121.956 280.904 129.002 274.353 129.002ZM331.36 138.219C345.185 138.219 353.564 127.136 353.564 109.388C353.564 91.6396 345.109 80.7852 331.36 80.7852C317.611 80.7852 309.118 91.6777 309.118 109.426C309.118 127.212 317.535 138.219 331.36 138.219ZM331.36 129.002C324.809 129.002 320.81 121.918 320.81 109.426C320.81 97.0479 324.885 90.002 331.36 90.002C337.873 90.002 341.872 97.0098 341.872 109.426C341.872 121.956 337.911 129.002 331.36 129.002Z" fill="#4F4F4F"/>
<path d="M90.1397 454.542C82.2461 465.536 71.3154 470.119 58.0186 469.945C47.6794 469.811 37.3402 469.915 26.9961 469.91C26.9961 467.927 26.9961 465.939 26.9961 463.956C38.1555 463.951 49.3198 464.045 60.4791 463.906C69.0984 463.797 76.6739 460.988 82.5692 454.413C82.9519 453.99 83.2552 453.493 83.5932 453.031C88.7478 446.828 91.3128 439.547 92.5008 431.689C93.5049 428.418 93.5844 425.023 93.8031 421.653C94.4443 411.857 95.011 402.051 95.5826 392.249C95.6274 391.519 95.4882 390.773 95.4335 390.032C95.4783 389.699 95.523 389.361 95.5628 389.028C96.3978 384.64 96.2139 380.176 96.3979 375.758C97.2926 354.147 98.2519 332.536 100.116 310.985C101.682 292.903 103.541 274.836 108.904 257.37C109.918 254.07 111.27 250.869 112.463 247.618C114.293 243.911 116.828 240.65 119.03 237.181C120.7 237.106 121.48 235.6 122.713 234.83C126.938 232.191 131.566 232.723 136.179 232.618C138.301 232.568 138.943 233.478 139.082 235.272C139.122 235.764 139.077 236.301 139.256 236.739C139.857 238.22 139.305 238.637 137.839 238.607C135.279 238.553 132.714 238.573 130.154 238.657C128.519 238.712 126.849 238.856 125.77 240.392C124.816 240.471 124.115 240.993 123.479 241.669C121.112 244.184 119.129 246.938 118.006 250.243C117.578 250.665 117.409 251.182 117.424 251.774C114.785 257.042 113.298 262.664 112.359 268.454C112.205 268.822 111.981 269.175 111.902 269.552C108.015 288.087 106.255 306.889 104.962 325.742C104.222 336.527 103.64 347.328 103.128 358.128C102.636 368.432 102.328 378.745 101.94 389.053C101.93 389.342 101.925 389.63 101.915 389.918C101.816 390.226 101.642 390.534 101.632 390.843C101.125 403.979 100.25 417.096 99.0373 430.187C97.2976 438.761 95.0756 447.146 90.1397 454.542Z" fill="#3AC277"/>
<path d="M205.274 389.078C244.479 389.068 283.683 389.029 322.887 389.113C325.229 389.118 325.895 388.472 326.198 386.245C328.549 368.894 331.263 351.607 334.574 334.4C337.079 321.388 342.706 309.896 349.496 298.748C355.64 288.653 362.057 278.743 368.494 268.842C374.857 264.319 381.284 259.885 387.368 254.985C400.69 253.27 413.529 249.582 426.294 245.571C426.637 246.028 427.045 246.451 427.323 246.943C431.787 254.895 433.894 263.608 435.535 272.47C434.381 274.458 433.253 276.461 432.065 278.429C424.674 290.671 417.441 303.013 409.791 315.085C406.66 320.026 406.6 324.33 408.961 329.619C416.85 347.273 425.369 364.619 433.924 381.951C435.162 384.456 436.136 387.105 437.851 389.366C437.931 389.59 438.015 389.819 438.095 390.042C440.6 395.177 443.11 400.306 445.615 405.44C446.058 406.385 446.103 407.384 445.998 408.403C444.795 408.741 443.592 409.079 442.389 409.417C441.032 409.74 439.665 410.033 438.318 410.391C427.581 413.239 416.845 416.097 406.113 418.95C404.825 419.367 403.97 419.084 403.553 417.647C403.255 416.629 402.698 415.689 402.246 414.715C398.458 406.489 394.67 398.263 390.877 390.037C390.693 389.699 390.51 389.362 390.326 389.029C390.49 388.129 389.903 387.463 389.585 386.727C387.1 380.967 384.555 375.231 382.094 369.455C380.523 365.768 379.062 362.03 377.551 358.312C376.407 364.023 375.637 369.634 375.006 375.256C374.489 379.838 373.455 384.366 373.544 389.009C373.524 389.332 373.505 389.66 373.485 389.983C372.848 390.341 373.032 390.992 372.968 391.529C372.003 399.292 371.044 407.061 370.105 414.829C369.652 418.562 369.672 418.562 366.088 418.786C365.855 418.711 365.626 418.577 365.392 418.572C352.881 418.358 340.369 418.159 327.858 417.956C326.685 417.956 325.512 417.956 323.867 417.956C325.895 419.591 326.586 421.688 327.754 423.493C328.241 425.088 328.305 426.857 329.662 428.09C329.822 428.443 329.916 429.059 330.145 429.114C333.45 429.904 336.781 430.809 340.176 429.626C341.06 429.318 341.677 428.662 341.702 427.628C342.109 426.042 340.951 425.863 339.892 425.665C337.327 425.182 335.076 426.092 332.903 427.31C332.347 427.33 331.795 427.35 331.238 427.369C333.709 424.979 336.761 424.178 340.056 424.432C341.577 424.546 342.815 425.456 342.939 427.255C342.845 427.369 342.825 427.494 342.88 427.633C342.681 430.307 340.678 430.908 338.575 431.187C337.198 431.37 335.776 431.246 334.375 431.216C333.525 431.197 333.649 431.604 333.912 432.116C333.828 432.196 333.743 432.28 333.664 432.365C331.596 432.3 330.045 430.521 327.923 430.64C327.679 430.237 327.291 430.193 326.879 430.212C326.377 429.531 325.626 429.705 324.94 429.651C324.717 429.253 324.334 429.189 323.926 429.179C324.985 428.125 324.433 427.608 323.419 426.857C320.894 424.999 318.478 422.976 318.588 419.377C319.269 418.343 319.89 417.225 321.371 417.225C322.321 417.22 322.311 416.529 322.395 415.858C323.379 407.911 324.329 399.958 325.403 392.021C325.631 390.321 325.144 389.983 323.529 389.983C284.095 390.028 244.667 390.023 205.234 390.023C205.244 389.695 205.259 389.386 205.274 389.078ZM319.925 420.694C319.945 420.848 319.9 421.306 320.074 421.649C321.535 424.487 324.21 426.022 326.764 427.643C327.351 428.016 327.982 427.499 327.699 426.763C326.581 423.87 325.736 420.789 322.997 418.87C322.326 418.403 321.54 417.98 320.71 418.478C319.999 418.905 319.91 419.675 319.925 420.694Z" fill="#334750"/>
<path d="M205.271 389.078C205.257 389.387 205.242 389.695 205.227 390.003C205.396 391.057 205.53 392.12 205.734 393.169C206.792 398.562 207.299 404.059 208.716 409.382C208.711 409.815 208.706 410.247 208.706 410.679C208.492 412.841 206.927 411.748 205.863 411.862C205.306 412.021 204.749 412.185 204.188 412.344C200.738 412.508 197.254 411.823 193.839 412.802C191.676 412.141 189.524 412.016 187.377 412.861C186.626 412.076 185.662 412.429 184.797 412.444C178.037 412.558 171.271 412.663 164.516 412.896C162.533 412.966 161.633 412.578 161.385 410.312C160.853 405.411 159.873 400.56 159.103 395.684C158.213 390.033 158.223 390.127 152.581 390.013C150.563 389.973 150.121 390.619 150.136 392.518C150.21 401.261 150.136 410.003 150.111 418.746C150.111 419.124 150.116 419.507 150.116 419.884C149.957 421.455 148.769 420.59 148.018 420.774C147.392 420.938 146.761 421.102 146.134 421.266C141.546 420.381 136.943 420.635 132.34 421.132C131.784 421.142 131.232 421.152 130.675 421.157C129.855 420.56 128.916 420.834 128.031 420.834C121.176 420.809 114.316 420.724 107.462 420.873C105.061 420.928 104.111 420.486 104.34 417.797C105.021 409.914 105.464 402.011 105.926 394.113C106.159 390.092 106.085 390.087 101.895 389.918C101.904 389.63 101.909 389.342 101.919 389.054C102.496 389.049 103.088 388.969 103.654 389.054C105.737 389.357 106.512 388.671 106.527 386.409C106.542 382.876 107.084 379.352 107.313 375.818C108.332 360.112 109.366 344.4 110.295 328.689C110.931 317.909 111.384 307.113 111.935 296.328C112.179 291.556 112.611 286.785 112.706 282.008C112.795 277.49 113.342 272.942 112.353 268.449C113.297 262.664 114.779 257.042 117.418 251.774C117.493 255.159 117.185 258.544 117.677 261.928C118.89 270.318 118.726 278.758 118.228 287.177C117.349 302.098 116.285 317.014 115.345 331.93C114.774 341.001 114.307 350.077 113.765 359.147C112.83 374.898 111.871 390.644 110.941 406.395C110.897 407.15 110.728 407.971 111.135 408.681C111.891 408.577 111.856 408.105 111.886 407.727C112.229 403.199 112.602 398.671 112.88 394.138C113.437 385.067 113.919 375.997 114.466 366.926C115.42 351.095 116.389 335.26 117.378 319.43C117.945 310.359 118.656 301.303 119.123 292.227C119.471 285.463 120.142 278.698 119.645 271.914C119.113 264.692 117.403 257.559 118.005 250.248C119.128 246.943 121.111 244.189 123.478 241.674C124.114 240.998 124.815 240.481 125.769 240.397C127.688 241.157 129.572 242.047 131.54 242.644C133.141 243.126 133.255 243.886 132.897 245.367C131.948 249.304 129.413 251.635 125.789 252.992C124.283 253.558 122.742 254.031 120.58 254.766C128.279 254.851 132.191 251.938 133.936 245.283C134.19 244.319 134.523 243.737 135.596 244.085C138.797 245.119 142.371 245.149 144.524 248.593C146.065 251.058 148.933 252.39 151.045 254.383C150.21 255.502 148.828 255.596 148.232 256.739C150.205 256.491 149.713 257.902 149.718 258.906C149.847 282.973 149.952 307.034 150.081 331.1C150.101 334.554 149.867 338.024 150.528 341.448C149.803 342.223 150.141 343.183 150.141 344.048C150.131 357.1 150.156 370.157 150.176 383.209C150.185 389.705 150.18 389.67 156.737 388.984C157.915 388.86 158.074 388.412 157.91 387.408C156.846 380.823 155.842 374.227 154.773 367.642C153.426 359.361 152.04 351.09 150.673 342.815C151.826 342.353 151.493 341.304 151.538 340.459C151.786 335.424 151.975 330.389 152.214 325.354C152.253 324.494 152.045 323.545 153.014 322.66C158.845 348.869 162.707 375.251 166.49 401.658C166.783 400.962 166.753 400.321 166.688 399.68C165.595 389.247 164.213 378.855 162.548 368.496C159.864 351.791 157.443 335.036 153.029 318.669C152.721 317.516 152.671 316.398 152.73 315.245C153.377 303.038 154.028 290.831 154.669 278.624C155.012 272.107 155.365 265.591 155.628 259.07C155.693 257.495 156.195 257.41 157.378 258.136C158.854 259.046 160.39 259.861 161.867 260.77C162.761 261.317 163.522 261.501 164.109 260.397C166.937 261.441 169.76 262.48 172.589 263.524C175.755 273.415 178.902 283.311 182.083 293.191C187.516 310.051 193.307 326.801 196.518 344.291C199.177 358.789 202.006 373.253 204.745 387.736C204.829 388.229 204.859 388.726 205.271 389.078ZM204.059 405.157C191.274 404.665 178.494 404.66 165.724 405.475C178.514 406.037 191.284 405.257 204.059 405.157ZM109.574 413.015C119.789 413.98 129.93 413.845 140.075 413.801C140.075 413.537 140.075 413.279 140.075 413.015C129.91 413.015 119.745 413.015 109.574 413.015ZM147.442 257.142L147.332 257.276L147.506 257.301L147.442 257.142Z" fill="#A5A5A5"/>
<path d="M318.58 419.358C318.476 422.956 320.887 424.979 323.412 426.838C324.431 427.589 324.982 428.105 323.919 429.159C323.7 429.303 323.476 429.447 323.258 429.587C322.557 430.004 321.418 428.926 320.991 430.253C320.822 430.427 320.648 430.596 320.474 430.769C319.813 430.755 319.152 430.705 318.491 430.735C317.412 430.784 318.123 431.271 318.292 431.624C318.138 431.769 317.989 431.913 317.834 432.057C317.104 432.032 316.348 431.883 315.642 432.007C314.434 432.221 315.379 432.668 315.608 433.026C312.66 434.244 309.697 435.427 307.013 437.186L307.043 437.171C303.35 438.26 300.859 440.526 300.104 444.408C299.617 446.898 300.144 447.49 302.624 447.668C311.527 448.32 320.439 448.051 329.347 448.081C339.741 448.116 350.139 448.111 360.528 447.549C364.222 447.35 364.251 447.321 364.629 443.792C365.206 438.459 365.569 433.115 365.564 427.753C365.708 420.839 364.535 421.868 371.618 421.783C372.11 421.778 372.612 421.753 373.099 421.813C380.65 422.772 388.3 422.598 395.836 423.737C396.631 423.856 397.516 423.886 398.028 423.001C399.206 425.799 401.597 427.231 404.246 428.19C405.588 428.677 406.031 429.308 405.648 430.61C405.379 430.774 405.116 430.938 404.848 431.102C404.196 431.45 402.994 430.874 402.954 432.236C402.914 432.405 402.879 432.574 402.839 432.743C402.258 433.26 401.169 432.708 400.811 433.702C400.757 434.01 400.707 434.313 400.652 434.621C399.772 434.815 398.788 434.825 398.038 435.248C396.84 435.919 398.227 435.844 398.405 436.137C395.353 438.792 392.321 441.475 389.234 444.095C387.246 445.785 386.53 447.992 386.461 450.472C386.371 453.668 387.186 454.364 390.239 453.653C409.47 449.165 428.538 444.05 447.387 438.15C448.923 437.668 449.639 437.599 450.121 439.482C451.483 444.791 453.695 449.771 456.668 454.398C444.942 456.953 433.096 458.713 421.172 460.045C412.846 460.974 404.529 461.948 396.164 462.53C389.274 463.007 382.4 463.653 375.5 464.041C366.458 464.553 357.427 465.129 348.38 465.537C338.99 465.959 329.585 466.088 320.206 466.576C310.617 467.073 301.028 466.441 291.47 467.018C281.14 467.644 270.806 467.669 260.502 467.316C250.585 466.978 240.673 467.291 230.777 466.884C221.387 466.496 211.992 466.203 202.602 465.905C193.143 465.606 183.689 465.03 174.239 464.428C165.461 463.872 156.672 463.33 147.929 462.415C138.137 461.387 128.334 460.437 118.567 459.12C109.043 457.838 99.6081 456.078 90.1289 454.552C95.0649 447.157 97.2868 438.772 99.0266 430.208C101.606 429.711 104.191 429.214 106.771 428.712C107.074 434.721 107.064 440.75 107.78 446.739C108.267 450.83 108.312 450.79 112.383 451.033C125.993 451.858 139.618 451.595 153.238 451.709C158.85 451.754 164.467 451.57 170.079 451.575C172.112 451.58 172.713 450.596 172.465 448.782C172.017 445.541 170.427 443.101 167.459 441.62C172.489 441.799 177.52 442.057 182.55 442.146C197.741 442.41 212.927 442.952 228.122 442.221C230.98 442.082 231.562 441.331 230.836 438.498C230.12 435.71 228.579 433.627 225.905 432.355C221.143 430.084 216.426 427.713 211.694 425.382C212.131 425.218 212.693 425.387 213.031 424.84C211.793 423.831 210.213 424.636 208.91 424.104C208.9 423.354 210.039 423.776 209.934 422.648C208.373 422.648 206.788 422.648 205.197 422.648C205.222 422.489 205.162 422.37 205.023 422.29C205.833 422.062 206.648 421.838 207.687 421.55C207.021 421.281 206.604 421.107 206.186 420.938C206.504 420.312 207.096 420.362 207.672 420.282C215.293 419.233 222.977 419.959 230.632 419.407C240.007 418.736 249.432 419.263 258.851 418.915C278.506 418.19 298.165 419.482 317.829 419.318C318.083 419.313 318.332 419.343 318.58 419.358Z" fill="#E9EAEA"/>
<path d="M185.935 205.938C191.368 206.644 196.821 206.072 202.259 206.181C203.889 206.211 203.477 204.795 203.377 203.96C203.129 201.837 203.989 201.38 206.002 201.395C218.156 201.479 230.304 201.395 242.458 201.445C244.133 201.45 245.221 201.281 244.873 199.233C244.684 198.11 245.346 197.841 246.35 197.861C248.746 197.901 251.151 197.97 253.537 197.841C255.257 197.747 255.799 198.298 255.784 200.053C255.7 208.731 255.749 217.409 255.749 226.087C255.749 241.048 255.685 256.004 255.814 270.964C255.834 273.429 255.113 274.135 252.772 273.887C250.893 273.688 248.964 273.743 247.075 273.877C245.37 274.001 244.56 273.474 244.868 271.7C245.196 269.801 244.366 269.374 242.547 269.389C233.371 269.463 224.195 269.389 215.024 269.369C215.491 268.35 216.679 267.664 216.456 266.332C216.247 265.094 214.865 264.801 214.129 263.767C215.948 263.126 217.803 262.574 217.912 260.507C218.006 258.618 216.132 258.25 214.651 257.584C215.968 256.352 218.121 255.77 217.315 253.697C216.575 251.794 214.611 252.415 213.155 252.495C209.695 252.678 206.439 252.017 203.273 250.705C202.025 250.188 199.669 249.915 199.987 248.767C200.435 247.161 202.522 248.24 203.894 248.339C206.42 248.523 208.91 249.408 211.48 248.667C212.225 248.454 212.926 248.195 213.1 247.345C213.274 246.5 212.762 245.889 212.126 245.491C211.152 244.885 210.143 244.294 209.079 243.871C204.352 242.012 199.48 240.978 194.36 241.56C194.341 234.452 194.331 227.35 194.276 220.247C194.271 219.537 194.689 218.378 193.297 218.458C192.168 218.523 192.457 219.507 192.457 220.188C192.432 227.365 192.521 234.547 191.965 241.714C189.897 242.067 187.839 242.922 185.726 242.236C181.591 240.884 177.495 239.418 173.384 237.996C173.722 236.51 172.877 236.023 171.614 235.66C168.781 234.845 165.938 234.06 163.258 232.777C162.115 232.231 161.698 231.192 161.822 230.163C161.971 228.915 163.204 229.303 164.044 229.273C165.605 229.219 167.165 229.239 168.721 229.229C170.849 229.974 171.719 229.318 171.54 226.992C171.361 224.621 171.455 222.23 171.435 219.85C171.455 217.538 171.505 215.227 171.495 212.916C171.475 208.89 173.881 206.445 177.853 206.296C180.537 206.186 183.271 206.763 185.935 205.938Z" fill="#3AC277"/>
<path d="M293.037 246.073C293.042 239.283 293.042 232.494 293.047 225.704C293.067 223.875 293.082 222.041 293.102 220.212C294.036 220.511 294.951 220.988 295.905 221.067C297.108 221.167 297.297 219.83 297.824 218.935C299.385 221.077 300.513 223.463 303.441 223.13C305.529 222.896 305.563 220.968 305.827 219.039C307.696 220.853 308.929 223.204 311.702 222.369C313.969 221.688 313.283 219.601 313.566 217.881C313.929 218.035 314.237 218.125 314.506 218.284C315.957 219.178 317.528 220.028 319.064 218.751C320.635 217.449 319.889 215.689 319.352 214.158C318.567 211.907 317.617 209.71 316.733 207.493C316.146 206.032 316.509 205.391 318.204 205.426C321.828 205.505 325.451 205.441 329.075 205.436C332.48 205.431 332.48 205.436 332.207 201.862C332.187 200.614 332.589 199.934 334.051 200.033C335.915 200.162 337.814 200.227 339.668 200.023C341.944 199.769 343.048 200.46 342.755 202.851C342.715 203.915 342.71 204.978 342.63 206.037C342.536 207.25 342.934 207.816 344.271 207.801C351.071 207.717 357.876 207.702 364.676 207.667C365.615 207.682 366.55 207.697 367.489 207.717C369.393 207.896 370.685 209.094 371.933 210.371C372.778 211.842 373.071 213.413 373.027 215.118C372.947 218.339 373.002 221.559 373.002 224.78C373.002 230.029 373.002 230.029 378.256 229.994C377.237 232.693 376.258 235.491 373.603 237.027C366.788 240.968 359.904 244.8 353.049 248.677C353.089 240.422 353.134 232.166 353.173 223.915C353.178 222.678 353.183 221.44 353.163 220.202C353.153 219.631 353.188 218.95 352.358 218.945C351.662 218.94 351.334 219.437 351.279 220.068C351.22 220.724 351.235 221.385 351.23 222.046C351.21 231.127 351.2 240.208 351.18 249.289C342.953 248.245 335.234 249.661 328.205 254.159C326.709 255.119 324.219 256.023 325.188 258.3C326.048 260.313 328.374 259.507 330.104 259.145C332.763 258.583 335.383 257.828 338.027 257.196C338.559 257.067 339.28 256.853 339.623 257.445C340.06 258.195 339.245 258.419 338.818 258.697C333.345 262.201 327.957 265.914 321.152 266.357C312.637 266.327 304.127 266.227 295.612 266.322C293.504 266.347 292.923 265.696 293.037 263.678C293.191 260.959 293.057 258.225 293.047 255.501C293.037 252.355 293.037 249.214 293.037 246.073Z" fill="#3AC277"/>
<path d="M168.717 229.219C167.157 229.229 165.596 229.209 164.04 229.263C163.2 229.293 161.967 228.911 161.818 230.153C161.694 231.177 162.116 232.221 163.255 232.768C165.929 234.05 168.777 234.835 171.61 235.65C172.873 236.013 173.718 236.5 173.38 237.986C169.9 245.298 166.928 252.818 164.1 260.392C163.513 261.491 162.752 261.312 161.858 260.765C160.381 259.861 158.845 259.041 157.369 258.131C156.186 257.4 155.684 257.49 155.619 259.065C155.356 265.586 154.998 272.102 154.66 278.619C154.019 290.826 153.368 303.033 152.722 315.24C152.662 316.393 152.712 317.511 153.02 318.664C157.434 335.036 159.855 351.791 162.539 368.491C164.204 378.85 165.586 389.242 166.679 399.675C166.749 400.316 166.779 400.962 166.481 401.653C162.693 375.246 158.831 348.864 153.005 322.655C152.036 323.54 152.244 324.489 152.205 325.349C151.966 330.384 151.777 335.419 151.529 340.454C151.489 341.299 151.817 342.343 150.664 342.81C150.619 342.353 150.574 341.9 150.524 341.443C149.863 338.014 150.097 334.549 150.077 331.095C149.953 307.029 149.843 282.968 149.714 258.901C149.709 257.902 150.201 256.486 148.228 256.734C148.824 255.591 150.206 255.497 151.041 254.378C148.929 252.385 146.056 251.058 144.52 248.588C142.367 245.144 138.793 245.114 135.592 244.08C134.519 243.732 134.186 244.318 133.932 245.278C132.182 251.933 128.275 254.846 120.576 254.761C122.743 254.025 124.279 253.553 125.785 252.987C129.409 251.63 131.949 249.299 132.893 245.362C133.251 243.876 133.137 243.121 131.536 242.639C129.568 242.042 127.684 241.157 125.765 240.392C126.844 238.856 128.514 238.712 130.149 238.657C132.709 238.573 135.274 238.553 137.834 238.608C139.3 238.637 139.852 238.225 139.251 236.739C139.072 236.296 139.117 235.765 139.077 235.273C138.938 233.478 138.296 232.574 136.174 232.618C131.561 232.723 126.928 232.186 122.708 234.83C121.475 235.601 120.69 237.107 119.02 237.181C118.165 236.808 117.315 236.436 116.46 236.068C114.332 235.128 114.382 233.851 115.247 231.808C121.833 216.241 129.18 201.122 140.15 188.055C142.382 185.396 144.843 182.945 147.646 180.868C148.68 185.455 151.459 188.77 155.396 191.111C157.25 192.215 158.895 191.549 159.924 189.645C160.958 187.737 161.256 185.624 161.525 183.507C162.792 183.855 163.513 184.943 164.393 185.758C171.595 192.448 178.748 199.198 185.916 205.928C183.252 206.753 180.523 206.176 177.824 206.281C173.852 206.43 171.446 208.88 171.466 212.901C171.481 215.212 171.431 217.524 171.407 219.835C170.383 218.731 169.354 217.623 168.017 216.187C168.28 220.824 168.499 225.024 168.717 229.219Z" fill="#334750"/>
<path d="M400.668 434.616C400.722 434.308 400.772 434.005 400.827 433.697C404.321 434.219 407.816 434.74 411.31 435.262C408.835 432.976 405.907 432.623 402.855 432.737C402.895 432.568 402.93 432.399 402.964 432.23C406.623 431.967 410.207 432.926 413.86 433.021C411.504 430.968 408.551 431.177 405.788 430.705C407.045 429.765 408.417 430.347 409.734 430.456C412.071 430.645 414.342 431.4 416.723 431.187C416.778 431.261 416.838 431.336 416.892 431.41C416.882 431.371 416.892 431.311 416.868 431.286C416.823 431.246 416.758 431.231 416.703 431.207C416.356 430.789 416.003 430.372 415.595 429.884C416.858 429.621 418.056 429.447 419.209 429.114C422.43 428.19 423.593 426.783 423.717 423.816C429.851 422.3 436 420.829 442.114 419.233C444.167 418.696 446.125 417.891 447.12 420.853C446.747 416.698 446.374 412.538 446.001 408.383C446.106 407.364 446.061 406.37 445.618 405.421C446.115 400.232 445.449 395.092 445.037 389.938C445.032 389.64 445.022 389.342 445.017 389.049C444.734 382.04 444.455 375.027 444.162 368.019C443.143 343.526 442.064 319.032 439.057 294.673C438.137 287.227 437.258 279.772 435.533 272.455C433.887 263.593 431.78 254.88 427.321 246.928C427.043 246.436 426.64 246.008 426.292 245.556C424.358 241.982 421.694 239.105 417.489 238.732C413.393 238.364 409.237 238.632 405.112 238.617C404.406 238.617 403.64 238.707 403.794 239.626C404.247 242.385 402.517 242.281 400.663 242.171C399.261 242.087 397.859 242.117 396.453 242.097C397.626 238.13 398.719 234.144 399.44 230.069C400.429 230.064 401.418 230.059 402.408 230.049C403.148 230.039 403.78 230.233 403.72 231.117C403.62 232.628 404.59 232.589 405.644 232.589C409.108 232.584 412.573 232.653 416.037 232.618C419.93 232.584 423.215 234 426.267 236.346C428.887 238.359 430.448 241.192 432.511 243.633C434.593 248.717 437.094 253.643 438.58 258.966C443.054 274.776 444.977 291.014 446.463 307.307C448.894 333.988 449.883 360.753 451.022 387.508C451.042 388 451.156 388.482 451.225 388.974C451.28 389.342 451.335 389.705 451.389 390.072C451.166 395.937 451.777 401.772 452.11 407.608C452.533 415.028 453.318 422.429 453.925 429.84C453.979 430.506 453.949 431.167 454.456 431.689C454.506 434.114 455.267 436.401 455.958 438.672C457.618 444.149 459.894 449.333 463.821 453.633C469.647 460.884 477.526 463.742 486.498 463.891C496.832 464.065 507.171 464.075 517.501 463.871C520.413 463.812 519.906 465.367 519.981 467.072C520.061 468.906 520.026 470.049 517.471 469.995C508.051 469.806 498.622 469.796 489.197 469.95C475.726 470.164 464.646 465.576 456.678 454.393C453.706 449.771 451.499 444.785 450.132 439.477C449.645 437.588 448.934 437.663 447.398 438.145C428.549 444.05 409.486 449.159 390.249 453.647C387.197 454.358 386.382 453.662 386.471 450.466C386.541 447.981 387.257 445.779 389.245 444.09C392.327 441.47 395.359 438.786 398.416 436.132C401.93 435.874 405.35 436.828 409.501 437.246C406.479 434.909 403.606 434.661 400.668 434.616ZM399.351 445.581C399.375 445.65 399.395 445.725 399.435 445.779C399.46 445.809 399.53 445.799 399.579 445.809C399.495 445.74 399.405 445.675 399.321 445.606C399.351 444.93 399.067 444.552 398.351 444.592C398.356 444.269 398.172 444.119 397.874 444.08C397.412 442.792 396.448 442.574 394.718 442.792C396.07 443.374 396.945 443.752 397.825 444.129C397.994 444.288 398.163 444.452 398.332 444.611C398.535 445.079 398.858 445.417 399.351 445.581ZM389.499 451.421C407.259 447.305 424.94 442.877 442.467 437.837C424.657 441.764 407.011 446.341 389.499 451.421ZM445.072 432.573C445.126 430.158 443.63 428.408 441.905 428.329C440.195 428.249 438.6 429.75 438.51 431.515C438.401 433.682 439.773 435.238 441.811 435.218C443.894 435.198 444.932 434.069 445.072 432.573Z" fill="#3AC277"/>
<path d="M399.444 230.069C398.723 234.144 397.63 238.131 396.451 242.097C395.577 243.936 394.945 245.874 393.757 247.574C391.883 250.268 389.502 252.515 387.365 254.97C381.276 259.871 374.853 264.304 368.491 268.827C366.408 269.016 364.857 270.398 363.187 271.387C356.994 275.04 350.149 275.935 343.195 276.278C339.825 276.442 336.42 276.621 333.064 275.895C332.179 275.701 331.265 275.622 330.629 274.866C335.132 274.916 339.491 274.334 343.483 272.068C339.163 273.41 334.72 274.16 330.246 274.742C329.098 275.025 328.059 274.513 327.219 273.957C325.31 272.689 323.446 271.541 321.159 270.88C318.903 270.224 319.007 268.489 321.144 266.357C327.949 265.915 333.338 262.197 338.815 258.698C339.243 258.424 340.058 258.201 339.621 257.445C339.278 256.854 338.562 257.067 338.025 257.197C335.381 257.828 332.761 258.588 330.102 259.145C328.372 259.508 326.046 260.313 325.186 258.3C324.216 256.024 326.702 255.119 328.203 254.16C335.232 249.662 342.951 248.24 351.173 249.289C351.983 249.662 352.5 249.145 353.042 248.683C359.896 244.806 366.781 240.979 373.596 237.032C376.25 235.496 377.23 232.698 378.249 229.999C379.516 227.504 381.171 225.173 381.609 222.31C381.907 222.251 382.21 222.196 382.508 222.136C387.34 223.473 392.132 225.009 397.023 226.078C399.628 226.644 400.378 227.678 399.444 230.069ZM345.228 271.407C345.069 271.601 344.572 271.188 344.616 271.745C344.825 271.625 345.034 271.511 345.238 271.392L345.287 271.327L345.228 271.407ZM340.302 267.46C336.608 268.166 333.368 270.149 329.729 271.014C333.512 270.582 337.011 269.349 340.262 267.426C340.312 267.311 340.799 267.416 340.426 267.093C340.386 267.212 340.341 267.336 340.302 267.46Z" fill="#FDA49C"/>
<path d="M381.609 222.31C381.176 225.173 379.516 227.499 378.248 229.999C372.994 230.029 372.994 230.029 372.994 224.78C372.994 221.56 372.94 218.339 373.019 215.118C373.059 213.413 372.771 211.843 371.926 210.371C372.328 206.982 374.341 204.069 374.585 200.486C372.219 202.896 369.848 205.307 367.482 207.717C366.542 207.702 365.608 207.687 364.668 207.668C363.197 204.442 361.447 201.365 359.598 198.348C359.265 197.608 358.674 196.887 359.981 196.395C367.059 193.721 374.068 190.858 381.415 188.974C380.997 190.147 379.581 190.624 379.407 192.001C379.088 194.506 381.628 196.335 384.646 195.838C389.82 194.978 394.165 192.359 398.415 189.506C399.389 190.167 400.363 190.828 401.338 191.484C401.81 191.832 401.79 192.787 402.69 192.608C402.456 189.919 402.222 187.255 401.989 184.591C402.227 184.431 402.466 184.272 402.705 184.108C403.42 190.207 404.429 196.156 409.385 200.585C410.712 201.773 411.572 203.463 412.745 204.844C414.44 206.838 415.614 209.263 417.716 210.923C419.486 214.487 421.842 217.673 424.084 220.943C428.19 226.923 431.823 233.205 435.526 239.438C436.535 241.138 436.739 242.39 434.562 243.151C433.787 242.937 433.16 243.334 432.514 243.638C430.446 241.197 428.885 238.369 426.271 236.351C423.219 234.005 419.933 232.584 416.041 232.623C412.576 232.653 409.112 232.584 405.647 232.594C404.588 232.594 403.624 232.633 403.724 231.122C403.783 230.238 403.152 230.044 402.411 230.054C401.422 230.064 400.433 230.069 399.444 230.074C400.378 227.683 399.623 226.649 397.023 226.083C392.132 225.014 387.34 223.483 382.508 222.141C382.21 221.962 381.912 221.783 381.614 221.604C380.346 220.357 382.295 219.427 381.942 218.264C383.721 215.083 385.361 211.843 386.405 208.329C384.442 211.485 382.737 214.765 381.494 218.274C380.992 219.457 378.701 220.571 381.365 221.868C381.45 222.017 381.529 222.161 381.609 222.31ZM393.852 221.778C391.331 221.222 388.98 219.944 386.291 220.093C388.846 220.913 391.401 221.739 393.956 222.559C395.392 223.384 396.938 223.667 398.569 223.573C397.083 222.668 395.552 221.992 393.852 221.778ZM402.192 227.618C403.301 222.713 403.331 217.713 403.167 212.698C402.227 217.613 402.272 222.618 402.192 227.618ZM399.523 224.03C399.682 224.085 399.812 224.149 399.951 224.174C400 224.179 400.065 224.08 400.12 224.025C400.015 223.945 399.916 223.816 399.807 223.806C399.727 223.801 399.628 223.94 399.523 224.03Z" fill="#E9EAEA"/>
<path d="M417.717 210.923C415.614 209.263 414.441 206.842 412.746 204.844C411.573 203.468 410.713 201.773 409.386 200.585C404.43 196.156 403.426 190.207 402.705 184.108C402.521 181.767 402.337 179.431 402.153 177.09C401.855 179.595 401.582 182.09 401.994 184.59C402.228 187.254 402.461 189.924 402.695 192.608C401.795 192.786 401.81 191.832 401.343 191.484C400.448 184.064 401.094 176.688 401.751 169.287C402.287 163.273 401.303 157.418 398.177 152.144C396.208 148.824 394.424 148.615 391.337 150.922C388.966 149.908 386.595 148.889 384.219 147.875C385.914 143.71 388.354 140.116 392.495 138.083C397.849 135.459 404.927 137.775 408.854 143.213C412.433 148.168 413.705 153.944 415.057 159.744C416.673 166.672 418.974 173.333 423.508 179.049C427.435 183.999 430.576 189.412 431.824 195.719C432.047 196.847 432.192 198 432.241 199.148C432.564 206.798 427.837 211.46 420.182 211.077C419.362 211.037 418.537 210.973 417.717 210.923ZM412.065 152.92C412.304 153.228 412.04 154.043 412.607 153.859C412.97 153.74 412.711 153.034 412.373 152.661C410.688 147.318 408.118 142.661 402.869 140.042C407.422 143.262 409.545 148.233 412.065 152.92ZM401.418 139.614C401.547 139.699 401.666 139.823 401.8 139.838C401.925 139.853 402.163 139.773 402.178 139.699C402.248 139.415 402.039 139.336 401.805 139.391C401.671 139.42 401.552 139.535 401.418 139.614Z" fill="#334750"/>
<path d="M164.102 260.397C166.93 252.818 169.907 245.303 173.382 237.991C177.493 239.408 181.589 240.879 185.724 242.231C187.832 242.922 189.895 242.062 191.963 241.709C192.763 241.659 193.563 241.61 194.364 241.56C199.483 240.978 204.355 242.012 209.082 243.871C210.146 244.289 211.155 244.88 212.129 245.491C212.765 245.889 213.277 246.5 213.103 247.345C212.929 248.19 212.228 248.454 211.483 248.667C208.913 249.408 206.423 248.523 203.897 248.339C202.526 248.24 200.438 247.161 199.99 248.767C199.667 249.92 202.023 250.188 203.276 250.705C206.442 252.012 209.698 252.673 213.158 252.495C214.614 252.42 216.583 251.794 217.319 253.697C218.119 255.765 215.971 256.351 214.654 257.584C216.135 258.25 218.014 258.613 217.915 260.507C217.811 262.569 215.952 263.126 214.132 263.767C214.868 264.801 216.245 265.094 216.459 266.332C216.687 267.664 215.499 268.355 215.027 269.369C213.208 269.751 211.781 270.214 211.05 272.455C210.345 274.627 207.755 274.662 205.727 274.846C201.795 275.204 198.032 274.433 194.463 272.729C191.346 271.238 188.085 269.985 185.148 268.201C181.226 265.815 176.573 265.611 172.587 263.534C169.753 262.48 166.925 261.441 164.102 260.397ZM198.047 268.096C201.76 270.477 205.762 271.357 210.111 270.417C205.97 270.273 201.944 269.528 198.047 268.096ZM199.344 262.157C203.42 264.403 207.69 265.174 212.204 263.896C207.819 264.1 203.564 263.32 199.344 262.157ZM209.251 258.807C206.84 257.728 204.141 257.281 201.487 256.655C203.828 258.359 206.557 258.633 209.251 258.807ZM200.398 256.237L200.562 256.327L200.577 256.192L200.398 256.237ZM197.043 267.758L197.132 267.649L196.983 267.634L197.043 267.758Z" fill="#FDA49C"/>
<path d="M332.206 201.867C332.479 205.436 332.479 205.436 329.074 205.441C325.45 205.446 321.827 205.505 318.203 205.431C316.508 205.396 316.15 206.037 316.732 207.499C317.617 209.715 318.566 211.912 319.351 214.164C319.888 215.695 320.629 217.454 319.063 218.756C317.527 220.029 315.956 219.184 314.505 218.289C314.241 218.125 313.928 218.036 313.565 217.886C313.282 219.606 313.968 221.694 311.701 222.375C308.928 223.21 307.695 220.859 305.826 219.045C305.562 220.973 305.523 222.902 303.44 223.135C300.512 223.463 299.384 221.077 297.823 218.94C297.296 219.84 297.107 221.177 295.904 221.072C294.955 220.993 294.035 220.516 293.101 220.218C292.266 218.91 291.431 217.598 290.595 216.291C289.159 212.061 288.1 207.807 289.079 203.279C289.711 200.366 290.6 199.596 293.479 200.038C294.234 200.157 294.711 200.331 295.367 199.586C297.48 197.195 298.941 197.26 301.258 199.586C300.661 204.432 300.979 209.144 303.405 213.537C302.669 208.895 301.471 204.318 301.327 199.586C303.007 196.41 304.24 196.107 307.079 198.174C307.521 198.497 307.973 199.208 308.52 198.572C310.777 195.962 313.282 197.091 315.454 198.363C318.104 199.919 320.415 199.621 322.881 198.199C324.163 197.464 325.515 196.822 326.882 196.256C327.981 195.798 329.164 195.704 330.163 196.529C331.241 197.424 331.072 198.656 330.615 199.72C329.85 201.499 330.565 201.972 332.206 201.867ZM311.97 215.545C310.091 210.709 308.709 205.754 308.033 200.62C307.73 205.998 308.644 211.072 311.97 215.545ZM294.736 202.26C293.826 207.603 294.91 212.603 297.4 217.365C296.178 212.384 295.049 207.394 294.736 202.26Z" fill="#FDA49C"/>
<path d="M398.416 189.506C394.166 192.354 389.821 194.978 384.647 195.838C381.63 196.34 379.09 194.511 379.408 192.001C379.582 190.624 380.998 190.147 381.416 188.974C381.426 188.244 381.436 187.508 381.446 186.777C383.936 186.077 385.636 184.466 386.894 182.225C384.702 182.861 382.574 183.278 380.427 183.606C373.94 183.214 370.619 180.381 368.924 174.063C367.92 170.316 367.99 166.583 368.502 162.811C369.943 161.717 370.023 159.823 371.067 158.288C372.245 159.316 373.249 160.395 374.611 160.991C375.516 161.384 375.58 160.937 375.486 160.241L375.575 160.156C375.729 160.196 375.913 160.201 376.037 160.291C378.911 162.279 381.575 164.436 385.576 163.959C386.685 163.825 388.773 164.749 389.742 166.081C390.413 167.005 390.174 169.058 391.377 169.068C392.317 169.073 393.266 167.483 394.201 166.598C394.32 166.489 394.399 166.335 394.499 166.2C396.159 166.18 396.855 167.03 396.885 168.661C396.935 171.33 395.364 174.769 393.564 175.062C391.074 175.465 390.855 177.234 390.9 179.044C390.945 180.753 391.472 182.448 391.666 184.163C391.81 185.47 392.386 186.131 393.664 186.584C395.428 187.195 397.292 187.791 398.416 189.506ZM393.813 169.093C394.037 169.078 394.255 169.058 394.479 169.043C394.469 168.969 394.454 168.889 394.444 168.815C394.25 168.919 394.052 169.023 393.858 169.128C393.823 169.262 393.291 169.351 393.823 169.535C393.818 169.386 393.818 169.237 393.813 169.093ZM373.264 164.441C373.234 167.155 371.961 168.72 369.287 168.606C369.406 170.813 372.702 170.693 371.927 173.174C373.632 173.84 374.273 176.906 377.116 175.286C370.192 173.611 373.835 168.427 373.264 164.441ZM380.332 168.372C379.318 168.651 378.071 166.737 377.36 168.71C377.086 169.466 377.106 170.475 377.777 170.723C379.751 171.459 379.234 168.984 380.332 168.372ZM392.267 173.725C392.496 172.841 393.738 172.667 393.564 171.678C393.525 171.459 392.655 171.141 392.615 171.195C392.088 171.926 391.81 172.746 392.267 173.725ZM393.271 170.355C393.226 170.301 393.182 170.246 393.137 170.191C393.087 170.241 393.037 170.291 392.993 170.346C393.062 170.4 393.132 170.455 393.197 170.51C393.221 170.455 393.246 170.405 393.271 170.355Z" fill="#FDA49C"/>
<path d="M161.541 183.517C161.273 185.634 160.974 187.747 159.941 189.655C158.912 191.559 157.266 192.225 155.412 191.122C151.475 188.781 148.697 185.46 147.663 180.878C148.1 179.466 148.612 178.075 148.95 176.638C149.552 174.068 150.725 171.708 147.896 169.198C146.112 167.617 145.172 164.63 147.041 161.966C148.831 162.08 150.054 163.134 151.152 164.411C151.585 164.918 152.474 165.584 152.499 164.471C152.569 161.419 154.776 160.41 156.844 159.098C157.763 158.516 158.305 157.403 158.424 156.369C158.663 154.331 159.598 154.436 161.094 155.082C164.439 156.528 167.779 156.871 170.986 154.645C173.004 160.688 173.456 166.842 172.223 173.104C171.423 177.165 167.352 181.201 161.79 180.664C158.395 180.594 155.83 178.258 152.554 176.837C154.388 181.27 157.565 183 161.566 183.557L161.541 183.517ZM168.122 160.803C169.002 160.957 169.713 161.156 170.439 161.185C171.244 161.22 171.831 160.813 171.269 159.988C170.643 159.058 169.544 158.854 168.634 159.371C168.008 159.724 166.671 159.65 167.198 161.26C167.755 162.955 167.864 164.809 168.103 166.598C168.167 167.065 168.54 167.488 167.879 168.089C166.75 169.113 166.065 170.629 164.28 170.907C167.894 171.056 168.982 170.023 169.002 166.608C169.007 165.892 168.943 165.336 169.957 165.341C170.881 165.346 171.194 164.685 171.14 163.815C171.1 163.203 170.916 162.647 170.344 162.373C169.395 161.926 169.176 162.915 168.61 163.382C168.277 162.587 167.884 161.866 168.122 160.803ZM163.196 164.809C163.057 164.148 163.042 163.203 161.929 163.208C161.094 163.213 160.94 163.919 160.945 164.605C160.95 165.395 161.193 166.081 162.098 166.191C163.008 166.295 163.132 165.629 163.196 164.809ZM163.027 159.341C163.032 158.626 162.555 158.382 162.078 158.402C161.044 158.447 160.169 158.864 159.955 159.998C159.871 160.45 160.229 160.808 160.686 160.718C161.631 160.539 162.565 160.261 163.027 159.341Z" fill="#FDA49C"/>
<path d="M463.822 453.633C459.895 449.334 457.618 444.149 455.958 438.672C455.267 436.401 454.507 434.114 454.457 431.689C462.758 432.723 470.826 434.602 478.028 439.055C482.303 441.699 482.239 444.348 478.128 447.152C474.529 449.607 470.413 450.81 466.312 452.062C465.368 452.355 464.075 452.196 463.822 453.633Z" fill="#E9EAEA"/>
<path d="M170.994 154.644C167.788 156.871 164.447 156.528 161.102 155.082C159.606 154.436 158.671 154.331 158.433 156.369C158.313 157.403 157.772 158.516 156.852 159.098C154.784 160.41 152.572 161.419 152.508 164.471C152.483 165.584 151.593 164.918 151.16 164.411C150.062 163.134 148.839 162.075 147.05 161.966C145.588 159.948 144.52 157.811 144.52 155.216C144.525 152.254 145.389 151.016 148.213 150.196C148.973 149.977 149.833 150.012 150.355 149.167C152.503 145.693 155.898 145.375 159.506 145.648C160.709 145.738 161.788 145.966 162.941 144.957C165.357 142.845 168.881 142.795 171.163 144.51C173.037 145.917 173.613 149.495 172.356 152.294C171.983 153.119 171.451 153.864 170.994 154.644Z" fill="#334750"/>
<path d="M92.4999 431.689C91.3169 439.547 88.747 446.828 83.5923 453.031C80.3613 451.873 77.1303 450.715 73.8943 449.562C72.0949 448.921 70.4397 448.001 68.8987 446.898C65.4242 444.408 65.444 441.744 68.9981 439.279C70.2756 438.394 71.6476 437.579 73.0841 436.992C79.3324 434.433 85.7446 432.43 92.4999 431.689Z" fill="#E9EAEA"/>
<path d="M394.503 166.195C394.404 166.329 394.324 166.479 394.205 166.588C393.265 167.473 392.316 169.063 391.381 169.058C390.173 169.053 390.417 167 389.746 166.071C388.777 164.739 386.689 163.819 385.58 163.949C381.579 164.426 378.915 162.269 376.042 160.281C375.917 160.196 375.733 160.191 375.574 160.151C375.515 160.037 375.455 159.918 375.395 159.798C375.321 159.868 375.246 159.938 375.172 160.002C375.276 160.077 375.38 160.156 375.485 160.231C375.579 160.932 375.515 161.379 374.61 160.981C373.248 160.385 372.244 159.301 371.066 158.278C370.027 159.818 369.947 161.712 368.501 162.8C367.706 159.972 367.76 157.124 368.69 154.381C370.156 150.057 374.709 147.75 379.72 148.62C380.769 148.804 381.808 149.023 382.851 149.227C385.367 151.081 388.414 151.717 391.232 152.87C395.487 156.543 396.133 161.091 394.503 166.195Z" fill="#334750"/>
<path d="M282.785 255.422C276.497 255.452 270.214 255.532 263.926 255.487C260.685 255.462 258.791 253.568 258.841 250.686C258.886 247.937 260.764 246.123 263.891 246.098C270.179 246.048 276.462 246.113 282.75 246.133C282.502 249.229 282.452 252.326 282.785 255.422Z" fill="#E9EAEA"/>
<path d="M282.66 225.422C278.405 226.102 274.121 225.63 269.851 225.695C267.48 225.73 265.099 225.963 262.718 225.357C259.944 224.651 258.597 223.076 258.851 220.352C259.064 218.066 261.067 216.316 263.642 216.306C269.995 216.281 276.348 216.311 282.705 216.321C282.69 219.348 282.675 222.385 282.66 225.422Z" fill="#E9EAEA"/>
<path d="M359.598 198.348C361.447 201.365 363.197 204.442 364.668 207.667C357.868 207.707 351.063 207.717 344.263 207.802C342.921 207.817 342.528 207.255 342.623 206.037C342.702 204.979 342.707 203.915 342.747 202.851C348.299 203.393 353.022 200.659 358.007 198.969C358.544 198.786 359.066 198.557 359.598 198.348Z" fill="#FDA49C"/>
<path d="M282.788 255.422C282.455 252.325 282.5 249.229 282.753 246.132C286.183 246.113 289.608 246.093 293.033 246.073C293.033 249.214 293.033 252.355 293.038 255.496C289.623 255.472 286.208 255.447 282.788 255.422Z" fill="#A5A5A5"/>
<path d="M282.664 225.421C282.679 222.384 282.694 219.352 282.709 216.316C285.338 216.306 287.968 216.296 290.597 216.281C291.432 217.588 292.268 218.9 293.103 220.207C293.083 222.036 293.068 223.87 293.048 225.699C289.593 225.277 286.134 225.237 282.664 225.421Z" fill="#A5A5A5"/>
<path d="M432.516 243.637C433.167 243.334 433.793 242.932 434.564 243.15C436.776 248.205 438.863 253.29 438.585 258.976C437.099 253.648 434.598 248.722 432.516 243.637Z" fill="#334750"/>
<path d="M161.574 183.557C157.568 183.005 154.392 181.27 152.562 176.837C155.838 178.253 158.403 180.589 161.798 180.664C161.719 181.628 161.649 182.593 161.574 183.557Z" fill="#334750"/>
<path d="M116.471 236.073C117.326 236.446 118.176 236.813 119.031 237.186C116.829 240.655 114.294 243.921 112.465 247.624C112.907 243.464 114.324 239.641 116.471 236.073Z" fill="#A5A5A5"/>
<path d="M95.5626 389.034C95.5179 389.367 95.4732 389.705 95.4334 390.038C86.5308 390.038 77.6331 390.038 68.7305 390.038C77.6729 389.307 86.6053 388.731 95.5626 389.034Z" fill="#E9EAEA"/>
<path d="M273.621 184.983C273.621 180.117 273.621 175.246 273.621 170.38C273.8 170.38 273.979 170.38 274.158 170.38C274.158 175.226 274.158 180.077 274.158 184.923C273.979 184.943 273.8 184.963 273.621 184.983Z" fill="#334750"/>
<path d="M273.865 284.856C273.865 289.668 273.865 294.479 273.865 299.29C273.686 299.29 273.507 299.285 273.328 299.285C273.328 294.459 273.328 289.633 273.328 284.807C273.507 284.822 273.686 284.841 273.865 284.856Z" fill="#334750"/>
<path d="M248.876 191.584C246.147 187.538 243.388 183.507 241.648 178.899C244.611 182.811 247.032 187.036 248.876 191.584Z" fill="#334750"/>
<path d="M240.934 290.358C243.354 286.163 245.78 281.963 248.201 277.769C248.489 277.933 248.782 278.092 249.071 278.256C246.665 282.461 244.259 286.67 241.853 290.875C241.55 290.701 241.242 290.532 240.934 290.358Z" fill="#334750"/>
<path d="M299.042 277.913C301.448 282.088 303.849 286.263 306.255 290.438C306.001 290.582 305.753 290.731 305.499 290.875C302.775 286.889 300.533 282.624 298.207 278.405C298.49 278.241 298.764 278.077 299.042 277.913Z" fill="#334750"/>
<path d="M298.363 191.514C300.764 187.324 303.165 183.134 305.566 178.944C305.864 179.108 306.162 179.272 306.461 179.436C304.065 183.611 301.664 187.791 299.268 191.967C298.965 191.817 298.662 191.668 298.363 191.514Z" fill="#334750"/>
<path d="M451.395 390.073C451.34 389.705 451.285 389.342 451.23 388.974C459.402 388.691 467.535 389.596 475.697 390.073C467.594 390.073 459.497 390.073 451.395 390.073Z" fill="#E9EAEA"/>
<path d="M391.232 152.88C388.414 151.727 385.367 151.091 382.852 149.237C383.309 148.785 383.766 148.327 384.219 147.875C386.59 148.894 388.961 149.908 391.337 150.922C391.302 151.573 391.267 152.229 391.232 152.88Z" fill="#3AC277"/>
<path d="M380.426 183.606C382.573 183.273 384.701 182.861 386.893 182.225C385.64 184.471 383.935 186.082 381.445 186.777C381.107 185.719 380.769 184.665 380.426 183.606Z" fill="#334750"/>
<path d="M301.322 199.576C301.466 204.307 302.664 208.88 303.399 213.527C300.974 209.134 300.655 204.427 301.252 199.576C301.257 199.576 301.322 199.576 301.322 199.576Z" fill="#334750"/>
<path d="M330.242 274.741C334.716 274.16 339.16 273.414 343.479 272.067C339.488 274.334 335.123 274.915 330.625 274.866C330.516 274.766 330.386 274.722 330.242 274.741Z" fill="#334750"/>
<path d="M118.009 250.253C117.408 257.564 119.118 264.697 119.65 271.918C120.147 278.703 119.481 285.467 119.128 292.232C118.66 301.308 117.95 310.364 117.383 319.435C116.394 335.265 115.424 351.095 114.47 366.931C113.923 376.001 113.441 385.077 112.884 394.143C112.606 398.676 112.233 403.204 111.89 407.732C111.86 408.11 111.895 408.582 111.14 408.686C110.727 407.98 110.901 407.16 110.946 406.4C111.875 390.649 112.835 374.903 113.769 359.152C114.306 350.081 114.778 341.006 115.35 331.935C116.289 317.014 117.348 302.103 118.233 287.182C118.73 278.763 118.894 270.323 117.681 261.933C117.194 258.548 117.497 255.164 117.423 251.779C117.413 251.192 117.582 250.67 118.009 250.253Z" fill="#334750"/>
<path d="M318.583 419.358C318.334 419.343 318.086 419.313 317.842 419.313C298.178 419.477 278.514 418.185 258.864 418.91C249.45 419.258 240.02 418.731 230.645 419.402C222.99 419.949 215.305 419.223 207.685 420.277C207.109 420.357 206.517 420.302 206.199 420.933C205.876 420.884 205.558 420.839 205.235 420.789C205.026 420.605 204.822 420.421 204.613 420.232C204.638 419.919 204.663 419.601 204.688 419.288C204.872 419.144 205.056 418.995 205.235 418.851C207.293 417.817 209.519 417.066 211.13 415.307C212.159 414.179 213.009 412.986 212.333 411.316C211.662 409.646 210.345 409.248 208.724 409.387C207.307 404.059 206.8 398.567 205.742 393.174C205.538 392.125 205.404 391.062 205.235 390.008C244.668 390.003 284.096 390.013 323.529 389.968C325.144 389.968 325.631 390.306 325.403 392.006C324.329 399.944 323.38 407.896 322.395 415.844C322.311 416.515 322.321 417.21 321.371 417.21C319.885 417.21 319.264 418.324 318.583 419.358Z" fill="#FEFEFE"/>
<path d="M343.22 427.444C350.672 427.544 358.123 427.648 365.569 427.748C365.569 433.11 365.211 438.459 364.634 443.787C364.252 447.316 364.222 447.34 360.534 447.544C350.145 448.111 339.746 448.111 329.352 448.076C320.444 448.046 311.527 448.315 302.629 447.664C300.154 447.485 299.622 446.893 300.109 444.403C300.865 440.521 303.35 438.255 307.048 437.166C307.496 437.489 307.948 437.773 308.654 437.32C308.013 437.266 307.515 437.226 307.018 437.186C309.703 435.427 312.665 434.244 315.613 433.031C316.642 433.284 317.681 433.523 318.705 433.796C320.991 434.408 322.965 435.909 325.38 436.152C325.435 436.197 325.49 436.247 325.544 436.291C325.48 436.252 325.415 436.217 325.351 436.177C324.759 434.766 323.203 434.373 322.289 433.299C322.348 433.23 322.408 433.16 322.468 433.091C324.515 433.2 326.136 434.666 328.646 435.138C326.31 432.151 323.228 431.769 320.469 430.774C320.643 430.6 320.812 430.432 320.981 430.258C324.416 430.938 327.503 432.604 330.779 433.742C330.968 433.851 331.146 433.965 331.34 434.06C331.36 434.07 331.445 433.96 331.494 433.906C331.306 433.791 331.117 433.677 330.928 433.558C330.545 431.893 328.76 431.783 327.811 430.75L327.906 430.625C330.028 430.506 331.579 432.285 333.647 432.35C333.865 432.464 334.079 432.579 334.293 432.693C334.318 432.753 334.333 432.822 334.372 432.867C334.397 432.897 334.462 432.887 334.507 432.897C334.432 432.827 334.363 432.763 334.293 432.693C334.159 432.494 334.03 432.3 333.895 432.102C333.632 431.585 333.508 431.182 334.358 431.202C335.759 431.232 337.181 431.356 338.558 431.172C340.665 430.894 342.664 430.292 342.863 427.618C343.017 427.608 343.131 427.554 343.22 427.444ZM312.392 439.711C312.476 439.88 312.506 440.188 312.794 439.88C312.695 439.786 312.601 439.696 312.501 439.602C312.332 439.438 312.163 439.279 311.994 439.115C311.785 438.687 311.427 438.573 310.985 438.628C310.816 438.468 310.647 438.304 310.478 438.145C310.314 438.021 310.15 437.897 309.986 437.768C309.936 437.857 309.892 437.942 309.842 438.031C310.056 438.066 310.269 438.101 310.483 438.14C310.483 438.463 310.682 438.598 310.965 438.647C311.139 439.08 311.492 439.204 311.92 439.184C312.074 439.363 312.233 439.542 312.392 439.711ZM354.027 446.028C354.032 445.829 354.032 445.631 354.037 445.432C339.025 445.432 324.018 445.432 308.316 445.432C324.003 446.267 339.015 445.993 354.027 446.028ZM362.03 439.711C362.045 437.927 360.335 436.197 358.58 436.227C356.796 436.257 355.21 437.917 355.19 439.786C355.165 441.749 356.597 443.15 358.625 443.155C360.539 443.155 362.015 441.669 362.03 439.711ZM313.351 441.485C313.55 441.406 313.674 441.356 313.803 441.307C313.739 441.167 313.709 440.983 313.6 440.894C313.52 440.829 313.341 440.879 313.207 440.879C313.252 441.078 313.301 441.277 313.351 441.485ZM314.266 442.375C314.206 442.39 314.122 442.385 314.097 442.42C314.062 442.479 314.032 442.584 314.062 442.639C314.166 442.832 314.276 442.813 314.33 442.584C314.35 442.524 314.291 442.45 314.266 442.375Z" fill="#3AC277"/>
<path d="M387.371 254.975C389.513 252.52 391.89 250.273 393.764 247.579C394.947 245.874 395.583 243.936 396.458 242.102C397.859 242.122 399.266 242.097 400.668 242.176C402.522 242.286 404.252 242.39 403.799 239.632C403.65 238.717 404.411 238.623 405.117 238.623C409.247 238.638 413.398 238.369 417.494 238.737C421.694 239.11 424.363 241.988 426.297 245.561C413.532 249.572 400.688 253.255 387.371 254.975Z" fill="#E9EAEA"/>
<path d="M373.548 388.994C373.459 384.347 374.493 379.824 375.01 375.241C375.641 369.62 376.417 364.008 377.555 358.297C379.066 362.015 380.527 365.748 382.098 369.441C384.559 375.211 387.104 380.947 389.589 386.713C389.907 387.448 390.494 388.114 390.33 389.014C384.738 389.004 379.145 388.999 373.548 388.994Z" fill="#FEFEFE"/>
<path d="M366.093 418.771C366.327 420.704 365.169 420.809 363.668 420.799C351.738 420.724 339.808 420.709 327.878 420.675C327.873 419.765 327.868 418.85 327.863 417.941C340.375 418.145 352.886 418.344 365.397 418.557C365.626 418.562 365.86 418.696 366.093 418.771Z" fill="#FDA49C"/>
<path d="M442.394 409.402C442.796 410.818 442.205 411.445 440.808 411.827C430.245 414.695 419.697 417.613 409.154 420.56C407.529 421.012 406.371 420.908 406.117 418.94C416.849 416.087 427.586 413.224 438.323 410.381C439.675 410.018 441.037 409.725 442.394 409.402Z" fill="#FDA49C"/>
<path d="M319.923 420.694C319.908 419.676 319.998 418.905 320.709 418.483C321.539 417.986 322.324 418.403 322.995 418.875C325.739 420.794 326.584 423.875 327.698 426.768C327.981 427.504 327.355 428.021 326.763 427.648C324.208 426.028 321.534 424.492 320.072 421.654C319.898 421.306 319.948 420.849 319.923 420.694Z" fill="#E9EAEA"/>
<path d="M329.66 428.075C330.187 427.837 330.709 427.593 331.236 427.355C331.793 427.335 332.349 427.315 332.901 427.295C335.814 427.901 338.772 427.449 341.699 427.613C341.674 428.647 341.053 429.303 340.173 429.611C336.773 430.789 333.448 429.889 330.142 429.099C329.914 429.049 329.819 428.433 329.66 428.075Z" fill="#3AC277"/>
<path d="M373.547 388.994C379.144 388.999 384.736 389.004 390.333 389.009C390.517 389.347 390.701 389.685 390.885 390.018C385.089 390.003 379.288 389.983 373.492 389.968C373.507 389.645 373.527 389.322 373.547 388.994Z" fill="#A5A5A5"/>
<path d="M341.705 427.618C338.772 427.454 335.819 427.907 332.906 427.3C335.078 426.082 337.33 425.173 339.895 425.655C340.954 425.849 342.117 426.033 341.705 427.618Z" fill="#E9EAEA"/>
<path d="M327.858 417.941C327.863 418.85 327.868 419.765 327.873 420.675C327.833 421.609 327.793 422.543 327.758 423.478C326.585 421.679 325.894 419.576 323.871 417.941C325.511 417.941 326.685 417.941 327.858 417.941Z" fill="#E9EAEA"/>
<path d="M445.043 389.948C442.727 389.978 440.415 390.008 438.099 390.032C438.02 389.809 437.935 389.58 437.855 389.357C440.222 388.695 442.637 389.237 445.023 389.053C445.028 389.352 445.033 389.65 445.043 389.948Z" fill="#A5A5A5"/>
<path d="M324.933 429.631C325.614 429.691 326.37 429.512 326.872 430.193L326.847 430.222C326.146 430.212 325.405 430.357 324.844 429.755L324.933 429.631Z" fill="#3AC277"/>
<path d="M323.258 429.586C323.477 429.442 323.7 429.298 323.919 429.159C324.327 429.169 324.709 429.233 324.933 429.631L324.843 429.755C324.317 429.7 323.785 429.646 323.258 429.586Z" fill="#3AC277"/>
<path d="M326.871 430.193C327.284 430.173 327.672 430.218 327.915 430.62C327.915 430.62 327.826 430.745 327.826 430.74C327.423 430.71 327.026 430.675 326.852 430.218L326.871 430.193Z" fill="#3AC277"/>
<path d="M343.221 427.444C343.131 427.553 343.017 427.608 342.878 427.618C342.823 427.479 342.843 427.355 342.937 427.24C343.072 427.255 343.166 427.325 343.221 427.444Z" fill="#E9EAEA"/>
<path d="M186.758 414.775C186.837 414.094 186.872 413.403 187.384 412.866C189.531 412.021 191.684 412.146 193.846 412.807C194.865 413.488 195.884 414.173 196.903 414.854C197.654 415.873 199.125 416.316 199.279 417.812C197.336 417.399 196.426 415.411 194.636 414.765C193.468 413.517 191.947 413 190.322 412.916C189.109 412.856 187.787 413 188.279 414.869C188.299 415.55 188.508 416.142 189.005 416.649C190.282 417.941 197.251 419.407 198.906 418.652C199.11 418.557 199.145 418.09 199.259 417.797C201.501 418.075 201.188 415.794 202.212 414.849C202.873 414.014 203.529 413.179 204.19 412.344C204.747 412.185 205.304 412.021 205.865 411.862C205.319 413.562 203.231 414.412 203.345 416.505C203.39 417.31 203.32 418.15 204.484 417.722C206.636 416.927 208.803 416.107 210.448 414.407C211.264 413.562 211.462 412.494 211.045 411.44C210.612 410.351 209.603 410.575 208.704 410.689C208.709 410.257 208.714 409.824 208.714 409.392C210.334 409.253 211.651 409.646 212.322 411.321C212.993 412.991 212.143 414.188 211.119 415.312C209.514 417.076 207.282 417.827 205.224 418.856C204.941 418.875 204.563 418.781 204.677 419.293C204.653 419.606 204.628 419.924 204.603 420.237C204.18 420.282 203.758 420.327 203.33 420.371C202.759 420.357 202.142 420.178 201.735 420.789L201.765 420.774C198.941 420.486 196.396 421.932 193.155 422.235C194.313 421.326 195.104 420.709 195.969 420.028C194.577 419.78 193.369 419.631 192.201 419.338C189.676 418.687 187.3 417.812 186.758 414.775Z" fill="#334750"/>
<path d="M150.121 418.756C153.188 418.776 153.963 419.546 154.023 422.658C152.765 424.994 150.732 426.41 148.336 427.354C146.954 427.901 145.567 428.403 144.827 429.84C143.848 429.666 142.903 429.869 141.929 429.994C139.672 430.282 137.569 431.361 135.243 431.221L135.208 431.187C135.502 430.183 136.839 430.267 137.271 429.412C133.697 428.408 129.522 428.746 128.18 424.149C128.408 422.648 129.154 421.579 130.685 421.166C131.242 421.157 131.793 421.147 132.35 421.142C134.845 421.41 136.59 423.169 138.663 424.288C139.165 425.391 140.766 425.744 140.696 427.24C138.822 426.738 137.972 424.725 136.143 424.164C134.915 422.747 133.295 422.25 131.5 422.275C130.282 422.29 129.318 422.643 129.78 424.208C129.765 425.247 130.402 425.943 131.192 426.38C134.085 427.981 137.321 428.016 140.502 428.194C141.153 428.229 140.636 427.568 140.681 427.23C142.794 427.354 142.819 425.396 143.649 424.248C144.484 423.259 145.314 422.27 146.149 421.281C146.775 421.117 147.407 420.953 148.033 420.789C147.228 421.758 146.422 422.727 145.617 423.701C144.817 424.342 144.822 425.277 144.767 426.162C144.707 427.041 145.12 427.409 145.98 427.021C147.983 426.127 150.215 425.625 151.701 423.806C152.864 423.065 152.85 421.917 152.551 420.823C152.203 419.551 151.05 419.924 150.131 419.899C150.126 419.511 150.126 419.134 150.121 418.756Z" fill="#334750"/>
<path d="M138.664 424.288C136.597 423.175 134.847 421.41 132.352 421.142C136.954 420.645 141.552 420.386 146.145 421.276C145.31 422.265 144.48 423.254 143.645 424.243C141.985 424.253 140.325 424.268 138.664 424.288Z" fill="#E9EAEA"/>
<path d="M204.061 405.157C191.281 405.257 178.516 406.037 165.727 405.475C178.496 404.66 191.276 404.665 204.061 405.157Z" fill="#334750"/>
<path d="M109.574 413.015C119.739 413.015 129.91 413.015 140.075 413.015C140.075 413.279 140.075 413.537 140.075 413.8C129.934 413.845 119.789 413.979 109.574 413.015Z" fill="#334750"/>
<path d="M147.442 257.142L147.507 257.302L147.332 257.277L147.442 257.142Z" fill="#334750"/>
<path d="M186.758 414.775C187.299 417.812 189.68 418.687 192.205 419.333C193.374 419.631 194.586 419.775 195.973 420.024C195.103 420.704 194.318 421.321 193.16 422.23C196.401 421.927 198.946 420.486 201.769 420.769C200.188 421.947 197.882 421.793 196.386 423.687C198.891 423.751 200.959 422.32 203.255 422.752C202.003 423.866 199.96 423.796 198.871 425.784C201.511 425.193 203.812 424.184 206.854 424.318C204.866 425.277 203.166 425.66 201.66 427.33C205.338 426.689 208.44 425.59 211.701 425.372C216.433 427.703 221.15 430.073 225.912 432.345C228.586 433.617 230.127 435.7 230.843 438.488C231.574 441.321 230.987 442.072 228.129 442.211C212.938 442.942 197.748 442.4 182.557 442.136C177.527 442.052 172.496 441.788 167.466 441.61L167.521 441.644C167.173 441.465 166.825 441.291 166.472 441.113L166.512 441.142C166.139 435.009 165.766 428.871 165.393 422.737C165.398 420.759 165.512 418.776 165.363 416.813C165.234 415.118 165.9 414.765 167.461 414.78C173.893 414.844 180.325 414.79 186.758 414.775ZM228.477 440.039C228.477 439.944 228.477 439.85 228.477 439.756C211.472 439.756 194.467 439.756 177.457 439.756C177.457 439.85 177.457 439.944 177.457 440.039C194.467 440.039 211.472 440.039 228.477 440.039Z" fill="#3AC277"/>
<path d="M135.249 431.226C137.575 431.366 139.678 430.287 141.934 429.999C142.909 429.875 143.853 429.671 144.832 429.845C144.857 429.939 144.852 430.034 144.822 430.123C142.362 430.58 139.916 431.067 137.451 433.269C140.846 432.633 143.465 431.684 146.244 431.624C146.398 431.763 146.552 431.902 146.701 432.037C144.589 432.36 142.556 432.872 140.533 434.661C143.943 434.547 146.687 432.941 150.156 433.334C147.527 434.229 145.076 434.442 143.122 436.719C146.726 435.879 149.873 434.944 153.139 434.641C157.597 436.813 162.056 438.98 166.515 441.152L166.475 441.122C166.823 441.301 167.171 441.475 167.524 441.654L167.469 441.619C170.437 443.096 172.032 445.541 172.475 448.782C172.723 450.596 172.127 451.58 170.089 451.575C164.477 451.565 158.86 451.754 153.248 451.709C139.628 451.6 126.003 451.863 112.393 451.033C108.322 450.785 108.282 450.824 107.79 446.739C107.075 440.755 107.084 434.726 106.781 428.711C106.985 424.179 106.985 424.184 111.578 424.179C117.115 424.174 122.648 424.164 128.185 424.159C129.527 428.756 133.708 428.418 137.277 429.422C136.844 430.277 135.507 430.193 135.214 431.202C135.144 431.286 135.08 431.366 135.01 431.45C135.09 431.366 135.169 431.296 135.249 431.226ZM166.903 449.423C149.749 448.458 132.594 448.359 115.44 449.423C132.594 449.423 149.749 449.423 166.903 449.423Z" fill="#3AC277"/>
<path d="M398.039 422.995C398.496 419.372 400.823 418.224 403.885 420.207C406.131 421.668 407.866 423.686 409.059 426.072C410.063 428.075 411.062 427.563 412.201 426.326C413.846 424.541 415.765 423.13 417.997 422.215C420.636 421.132 422.137 421.604 423.718 423.816C423.594 426.783 422.431 428.194 419.21 429.119C418.056 429.452 416.853 429.626 415.596 429.889C416.003 430.376 416.356 430.794 416.704 431.211L416.729 431.187C414.353 431.4 412.076 430.645 409.74 430.456C408.423 430.351 407.051 429.765 405.793 430.704L405.798 430.699L405.659 430.6C406.042 429.298 405.595 428.667 404.253 428.179C401.603 427.22 399.217 425.789 398.039 422.995ZM400.296 424.273C401.315 425.809 402.975 426.435 404.571 427.011C405.893 427.489 407.722 429.094 408.532 427.871C409.268 426.753 407.334 425.327 406.335 424.188C405.54 422.812 404.397 421.803 402.97 421.132C401.951 420.654 400.768 419.974 399.853 421.062C398.949 422.131 399.222 423.328 400.296 424.273ZM414.199 426.49C413.235 426.604 412.603 427.275 411.972 427.901C411.793 428.08 411.709 428.557 411.823 428.771C411.932 428.98 412.395 429.178 412.623 429.114C415.064 428.408 417.679 428.527 420.045 427.533C421.496 426.922 422.545 425.963 422.55 424.233C422.465 423.174 421.675 422.851 420.845 422.891C418.086 423.025 415.715 423.994 414.199 426.49Z" fill="#334750"/>
<path d="M211.701 425.376C208.44 425.595 205.338 426.693 201.66 427.335C203.166 425.665 204.866 425.277 206.854 424.323C203.812 424.188 201.506 425.197 198.871 425.789C199.96 423.801 202.003 423.875 203.255 422.757L203.23 422.772C203.887 422.727 204.548 422.682 205.204 422.643C206.794 422.643 208.38 422.643 209.941 422.643C210.045 423.771 208.907 423.348 208.917 424.099C210.219 424.631 211.8 423.825 213.038 424.834C212.7 425.381 212.138 425.212 211.701 425.376ZM207.699 424.198C207.823 424.144 207.948 424.089 208.072 424.039C208.022 423.99 207.973 423.9 207.923 423.895C207.794 423.89 207.669 423.925 207.54 423.945C207.585 424.029 207.64 424.114 207.699 424.198Z" fill="#334750"/>
<path d="M320.475 430.769C323.228 431.763 326.31 432.146 328.651 435.133C326.141 434.661 324.516 433.195 322.473 433.085C322.269 432.837 321.891 432.583 321.742 432.877C321.548 433.264 322.075 433.185 322.294 433.294C323.208 434.368 324.764 434.76 325.356 436.172L325.386 436.147C322.97 435.904 320.996 434.407 318.71 433.791C317.686 433.518 316.647 433.279 315.618 433.026C315.389 432.668 314.445 432.226 315.653 432.007C316.359 431.883 317.114 432.032 317.845 432.057C318.258 432.081 318.695 432.464 319.068 431.962C318.814 431.848 318.556 431.738 318.302 431.624C318.128 431.271 317.418 430.779 318.501 430.734C319.152 430.71 319.813 430.759 320.475 430.769ZM320.688 432.454C320.559 432.399 320.435 432.33 320.306 432.3C320.261 432.29 320.196 432.385 320.141 432.434C320.266 432.489 320.39 432.563 320.519 432.598C320.554 432.608 320.624 432.509 320.688 432.454Z" fill="#334750"/>
<path d="M400.668 434.616C403.601 434.661 406.479 434.914 409.506 437.246C405.351 436.823 401.936 435.874 398.422 436.132C398.248 435.839 396.861 435.913 398.054 435.242C398.809 434.82 399.789 434.81 400.668 434.616Z" fill="#334750"/>
<path d="M402.856 432.738C405.908 432.623 408.841 432.976 411.311 435.263C407.817 434.741 404.323 434.219 400.828 433.697C401.186 432.703 402.275 433.255 402.856 432.738Z" fill="#334750"/>
<path d="M203.249 422.757C200.952 422.325 198.884 423.756 196.379 423.691C197.875 421.798 200.182 421.947 201.762 420.774L201.732 420.789C202.254 420.789 202.781 420.789 203.303 420.789C203.944 420.789 204.581 420.789 205.222 420.789C205.545 420.839 205.863 420.883 206.186 420.933C206.604 421.102 207.026 421.276 207.687 421.544C206.644 421.833 205.833 422.061 205.023 422.285C204.377 422.275 203.661 422.021 203.219 422.772L203.249 422.757Z" fill="#334750"/>
<path d="M405.792 430.709C408.556 431.182 411.509 430.973 413.865 433.026C410.211 432.926 406.627 431.972 402.969 432.235C403.009 430.869 404.211 431.445 404.863 431.102C405.255 431.162 405.613 431.142 405.802 430.709H405.792Z" fill="#334750"/>
<path d="M326.849 430.223C327.023 430.675 327.425 430.715 327.823 430.745C328.772 431.778 330.557 431.893 330.94 433.553L330.786 433.737C327.51 432.604 324.423 430.934 320.988 430.253C321.421 428.926 322.559 430.004 323.26 429.587C323.787 429.641 324.319 429.696 324.846 429.756C325.407 430.357 326.148 430.213 326.849 430.223Z" fill="#334750"/>
<path d="M203.23 422.772C203.673 422.021 204.389 422.275 205.035 422.285C205.174 422.364 205.234 422.484 205.209 422.643C204.548 422.688 203.887 422.727 203.23 422.772Z" fill="#3AC277"/>
<path d="M318.297 431.624C318.551 431.738 318.809 431.848 319.063 431.962C318.69 432.464 318.252 432.081 317.84 432.056C317.989 431.912 318.143 431.768 318.297 431.624Z" fill="#3AC277"/>
<path d="M405.799 430.704C405.61 431.137 405.252 431.157 404.859 431.097C405.128 430.933 405.391 430.769 405.66 430.605C405.66 430.605 405.799 430.704 405.799 430.704Z" fill="#3AC277"/>
<path d="M194.362 241.56C193.562 241.61 192.761 241.659 191.961 241.709C192.523 234.542 192.428 227.365 192.453 220.183C192.458 219.502 192.165 218.518 193.293 218.453C194.69 218.374 194.267 219.537 194.272 220.242C194.327 227.35 194.337 234.452 194.362 241.56Z" fill="#334750"/>
<path d="M168.716 229.219C168.497 225.019 168.279 220.824 168.035 216.187C169.372 217.628 170.401 218.731 171.425 219.835C171.45 222.215 171.351 224.606 171.53 226.977C171.714 229.313 170.844 229.964 168.716 229.219Z" fill="#FEFEFE"/>
<path d="M353.045 248.677C352.503 249.139 351.986 249.656 351.176 249.284C351.191 240.203 351.206 231.122 351.226 222.046C351.226 221.385 351.216 220.724 351.275 220.068C351.335 219.437 351.663 218.94 352.354 218.945C353.189 218.95 353.154 219.631 353.159 220.202C353.179 221.44 353.174 222.678 353.169 223.915C353.129 232.171 353.085 240.422 353.045 248.677Z" fill="#334750"/>
<path d="M367.484 207.717C369.85 205.307 372.222 202.896 374.588 200.485C374.344 204.069 372.331 206.982 371.928 210.371C370.681 209.094 369.388 207.896 367.484 207.717Z" fill="#A5A5A5"/>
<path d="M389.5 451.421C407.017 446.336 424.658 441.763 442.468 437.837C424.942 442.877 407.261 447.31 389.5 451.421Z" fill="#334750"/>
<path d="M445.07 432.573C444.931 434.069 443.892 435.198 441.815 435.222C439.772 435.242 438.405 433.687 438.514 431.52C438.603 429.755 440.199 428.254 441.909 428.334C443.629 428.408 445.125 430.158 445.07 432.573Z" fill="#334750"/>
<path d="M397.829 444.129C396.95 443.752 396.07 443.374 394.723 442.792C396.452 442.574 397.417 442.792 397.879 444.08L397.829 444.129Z" fill="#334750"/>
<path d="M398.359 444.592C399.074 444.557 399.358 444.93 399.328 445.606L399.353 445.581C398.861 445.417 398.543 445.074 398.344 444.607C398.344 444.607 398.359 444.592 398.359 444.592Z" fill="#334750"/>
<path d="M416.703 431.211C416.758 431.236 416.822 431.251 416.867 431.291C416.892 431.311 416.887 431.37 416.892 431.415C416.837 431.341 416.778 431.266 416.723 431.192C416.728 431.187 416.703 431.211 416.703 431.211Z" fill="#334750"/>
<path d="M397.881 444.08C398.179 444.124 398.358 444.273 398.358 444.592L398.343 444.606C398.174 444.447 398.005 444.283 397.836 444.124C397.831 444.129 397.881 444.08 397.881 444.08Z" fill="#334750"/>
<path d="M399.324 445.61C399.409 445.68 399.498 445.745 399.583 445.814C399.533 445.804 399.458 445.814 399.439 445.784C399.394 445.73 399.379 445.65 399.354 445.586C399.349 445.581 399.324 445.61 399.324 445.61Z" fill="#334750"/>
<path d="M340.264 267.425C337.008 269.349 333.508 270.581 329.73 271.014C333.364 270.149 336.61 268.166 340.303 267.46L340.264 267.425Z" fill="#334750"/>
<path d="M345.242 271.392C345.034 271.511 344.825 271.625 344.616 271.744C344.571 271.188 345.068 271.595 345.228 271.407L345.242 271.392Z" fill="#334750"/>
<path d="M381.62 221.599C381.918 221.778 382.211 221.957 382.509 222.136C382.206 222.191 381.908 222.25 381.61 222.31C381.53 222.161 381.451 222.017 381.371 221.868C381.451 221.773 381.535 221.684 381.62 221.599Z" fill="#A5A5A5"/>
<path d="M340.305 267.46C340.349 267.336 340.389 267.217 340.434 267.092C340.807 267.415 340.315 267.311 340.27 267.425C340.265 267.425 340.305 267.46 340.305 267.46Z" fill="#334750"/>
<path d="M345.23 271.407L345.295 271.327L345.245 271.392L345.23 271.407Z" fill="#334750"/>
<path d="M391.234 152.88C391.269 152.229 391.304 151.573 391.339 150.922C394.425 148.615 396.21 148.824 398.178 152.144C401.305 157.418 402.289 163.273 401.752 169.287C401.091 176.688 400.45 184.063 401.345 191.484C400.37 190.823 399.396 190.162 398.422 189.506C397.299 187.791 395.434 187.195 393.675 186.573C392.402 186.121 391.826 185.46 391.677 184.153C391.488 182.438 390.956 180.743 390.911 179.034C390.866 177.224 391.085 175.46 393.575 175.052C395.375 174.759 396.941 171.32 396.896 168.651C396.866 167.025 396.175 166.17 394.51 166.19C396.135 161.091 395.489 156.543 391.234 152.88Z" fill="#FEFEFE"/>
<path d="M402.195 227.618C402.275 222.623 402.235 217.613 403.17 212.697C403.334 217.712 403.304 222.712 402.195 227.618Z" fill="#334750"/>
<path d="M381.5 218.274C382.743 214.765 384.448 211.485 386.411 208.329C385.367 211.843 383.727 215.083 381.947 218.264C381.798 218.249 381.649 218.254 381.5 218.274Z" fill="#334750"/>
<path d="M393.958 222.554C391.403 221.734 388.848 220.909 386.293 220.088C388.977 219.944 391.333 221.217 393.854 221.773C393.888 222.037 393.923 222.295 393.958 222.554Z" fill="#334750"/>
<path d="M401.991 184.591C401.584 182.09 401.857 179.595 402.151 177.09C402.334 179.431 402.518 181.767 402.702 184.108C402.469 184.272 402.23 184.431 401.991 184.591Z" fill="#A5A5A5"/>
<path d="M393.956 222.553C393.921 222.295 393.886 222.036 393.852 221.773C395.552 221.987 397.083 222.668 398.569 223.567C396.938 223.667 395.392 223.383 393.956 222.553Z" fill="#A5A5A5"/>
<path d="M381.501 218.274C381.65 218.254 381.799 218.249 381.954 218.259C382.306 219.417 380.358 220.347 381.625 221.599C381.541 221.684 381.456 221.773 381.377 221.868C378.703 220.576 380.999 219.457 381.501 218.274Z" fill="#A5A5A5"/>
<path d="M399.523 224.03C399.628 223.94 399.727 223.796 399.812 223.806C399.921 223.816 400.021 223.945 400.125 224.025C400.07 224.08 400.006 224.179 399.956 224.174C399.812 224.154 399.678 224.089 399.523 224.03Z" fill="#A5A5A5"/>
<path d="M412.061 152.92C409.546 148.233 407.423 143.262 402.875 140.037C408.119 142.656 410.694 147.313 412.379 152.656C412.275 152.746 412.17 152.835 412.061 152.92Z" fill="#A5A5A5"/>
<path d="M412.376 152.656C412.709 153.029 412.972 153.74 412.609 153.854C412.043 154.038 412.301 153.223 412.062 152.915C412.172 152.835 412.276 152.746 412.376 152.656Z" fill="#A5A5A5"/>
<path d="M401.418 139.614C401.552 139.535 401.671 139.425 401.806 139.391C402.039 139.336 402.248 139.416 402.179 139.699C402.159 139.778 401.925 139.853 401.801 139.838C401.671 139.823 401.552 139.694 401.418 139.614Z" fill="#A5A5A5"/>
<path d="M198.047 268.096C201.944 269.528 205.97 270.273 210.111 270.417C205.761 271.357 201.76 270.477 198.047 268.096Z" fill="#334750"/>
<path d="M199.344 262.157C203.564 263.315 207.819 264.1 212.203 263.896C207.69 265.174 203.42 264.403 199.344 262.157Z" fill="#334750"/>
<path d="M209.249 258.807C206.555 258.633 203.826 258.36 201.484 256.655C204.134 257.281 206.838 257.728 209.249 258.807Z" fill="#334750"/>
<path d="M200.395 256.238L200.58 256.192L200.565 256.328L200.395 256.238Z" fill="#334750"/>
<path d="M197.042 267.759L196.977 267.629L197.132 267.649L197.042 267.759Z" fill="#334750"/>
<path d="M311.969 215.545C308.639 211.072 307.724 205.997 308.033 200.62C308.709 205.754 310.091 210.709 311.969 215.545Z" fill="#334750"/>
<path d="M294.737 202.26C295.05 207.394 296.183 212.389 297.401 217.365C294.911 212.603 293.827 207.598 294.737 202.26Z" fill="#334750"/>
<path d="M373.266 164.441C373.842 168.427 370.194 173.611 377.118 175.281C374.275 176.901 373.634 173.835 371.929 173.169C372.704 170.689 369.408 170.808 369.289 168.601C371.963 168.72 373.236 167.155 373.266 164.441Z" fill="#334750"/>
<path d="M380.334 168.373C379.236 168.984 379.753 171.464 377.774 170.723C377.108 170.475 377.088 169.466 377.357 168.711C378.073 166.732 379.32 168.651 380.334 168.373Z" fill="#334750"/>
<path d="M392.266 173.725C391.809 172.746 392.087 171.926 392.614 171.195C392.654 171.141 393.523 171.454 393.563 171.677C393.732 172.666 392.495 172.84 392.266 173.725Z" fill="#334750"/>
<path d="M393.853 169.123C394.047 169.018 394.246 168.914 394.44 168.81C394.45 168.884 394.465 168.964 394.475 169.038C394.251 169.053 394.032 169.073 393.809 169.088C393.814 169.093 393.853 169.123 393.853 169.123Z" fill="#334750"/>
<path d="M393.812 169.093C393.812 169.237 393.817 169.386 393.817 169.53C393.285 169.346 393.817 169.257 393.852 169.123L393.812 169.093Z" fill="#334750"/>
<path d="M393.271 170.355C393.246 170.405 393.221 170.46 393.196 170.51C393.126 170.455 393.057 170.4 392.992 170.345C393.042 170.296 393.092 170.246 393.136 170.191C393.181 170.246 393.226 170.301 393.271 170.355Z" fill="#334750"/>
<path d="M168.12 160.803C167.886 161.866 168.274 162.587 168.607 163.382C169.169 162.915 169.387 161.926 170.342 162.373C170.913 162.642 171.097 163.203 171.137 163.815C171.197 164.679 170.879 165.34 169.954 165.34C168.945 165.335 169.005 165.892 169 166.608C168.98 170.022 167.891 171.061 164.277 170.907C166.062 170.634 166.748 169.113 167.876 168.089C168.542 167.488 168.164 167.065 168.1 166.598C167.861 164.809 167.752 162.955 167.195 161.26C166.668 159.649 168.005 159.724 168.632 159.371C169.541 158.854 170.64 159.058 171.266 159.987C171.823 160.812 171.236 161.22 170.436 161.185C169.71 161.155 168.995 160.957 168.12 160.803Z" fill="#334750"/>
<path d="M163.193 164.809C163.124 165.624 162.999 166.295 162.095 166.185C161.195 166.076 160.946 165.39 160.942 164.6C160.937 163.914 161.091 163.208 161.926 163.203C163.039 163.203 163.054 164.147 163.193 164.809Z" fill="#334750"/>
<path d="M163.027 159.341C162.565 160.261 161.63 160.539 160.686 160.723C160.228 160.813 159.866 160.455 159.955 160.002C160.169 158.869 161.044 158.452 162.078 158.407C162.555 158.382 163.032 158.626 163.027 159.341Z" fill="#334750"/>
<path d="M375.485 160.236C375.381 160.162 375.276 160.082 375.172 160.007C375.246 159.938 375.321 159.868 375.396 159.804C375.455 159.923 375.515 160.037 375.575 160.157C375.575 160.152 375.485 160.236 375.485 160.236Z" fill="#FDA49C"/>
<path d="M205.227 420.789C204.586 420.789 203.95 420.789 203.309 420.789C203.338 420.65 203.343 420.511 203.333 420.372C203.756 420.327 204.178 420.282 204.606 420.237C204.81 420.416 205.019 420.6 205.227 420.789Z" fill="#E9EAEA"/>
<path d="M204.681 419.288C204.567 418.771 204.945 418.87 205.228 418.851C205.049 418.995 204.865 419.139 204.681 419.288Z" fill="#E9EAEA"/>
<path d="M354.029 446.028C339.017 445.993 324.005 446.262 308.312 445.432C324.015 445.432 339.027 445.432 354.034 445.432C354.034 445.63 354.034 445.829 354.029 446.028Z" fill="#334750"/>
<path d="M362.029 439.711C362.014 441.664 360.537 443.155 358.619 443.15C356.596 443.145 355.164 441.744 355.184 439.781C355.209 437.912 356.789 436.252 358.574 436.222C360.334 436.202 362.043 437.927 362.029 439.711Z" fill="#334750"/>
<path d="M307.02 437.186C307.517 437.226 308.014 437.27 308.655 437.32C307.949 437.772 307.497 437.489 307.049 437.166C307.049 437.166 307.02 437.186 307.02 437.186Z" fill="#334750"/>
<path d="M313.352 441.485C313.303 441.271 313.253 441.077 313.203 440.879C313.337 440.879 313.516 440.829 313.596 440.894C313.705 440.983 313.735 441.162 313.8 441.306C313.68 441.356 313.551 441.405 313.352 441.485Z" fill="#334750"/>
<path d="M314.266 442.375C314.291 442.445 314.35 442.524 314.335 442.584C314.281 442.812 314.166 442.832 314.067 442.638C314.037 442.584 314.067 442.479 314.102 442.42C314.122 442.39 314.211 442.39 314.266 442.375Z" fill="#334750"/>
<path d="M310.981 438.637C311.423 438.583 311.781 438.697 311.99 439.124L311.915 439.194C311.488 439.214 311.135 439.09 310.961 438.657C310.961 438.652 310.981 438.637 310.981 438.637Z" fill="#334750"/>
<path d="M310.477 438.145C310.263 438.11 310.05 438.076 309.836 438.036C309.886 437.946 309.93 437.862 309.98 437.772C310.144 437.897 310.308 438.021 310.472 438.15L310.477 438.145Z" fill="#334750"/>
<path d="M330.938 433.553C331.127 433.667 331.316 433.781 331.505 433.901C331.45 433.955 331.371 434.065 331.351 434.055C331.157 433.96 330.973 433.846 330.789 433.737C330.789 433.737 330.938 433.553 330.938 433.553Z" fill="#334750"/>
<path d="M334.305 432.693C334.374 432.762 334.449 432.827 334.518 432.897C334.474 432.887 334.404 432.897 334.384 432.867C334.344 432.817 334.33 432.748 334.305 432.693Z" fill="#334750"/>
<path d="M333.908 432.101C334.042 432.3 334.171 432.494 334.305 432.693L334.31 432.688C334.097 432.573 333.878 432.459 333.664 432.345C333.744 432.265 333.828 432.181 333.908 432.101Z" fill="#334750"/>
<path d="M325.355 436.177C325.42 436.217 325.486 436.252 325.551 436.292C325.496 436.247 325.441 436.197 325.386 436.152C325.381 436.147 325.355 436.177 325.355 436.177Z" fill="#334750"/>
<path d="M310.473 438.155C310.642 438.314 310.811 438.478 310.985 438.637L310.965 438.657C310.676 438.608 310.478 438.473 310.483 438.15C310.478 438.145 310.473 438.155 310.473 438.155Z" fill="#334750"/>
<path d="M312.386 439.716C312.227 439.542 312.073 439.368 311.914 439.194L311.984 439.125C312.153 439.289 312.322 439.448 312.491 439.612L312.386 439.716Z" fill="#334750"/>
<path d="M312.496 439.606C312.595 439.701 312.69 439.79 312.789 439.885C312.501 440.188 312.476 439.88 312.387 439.716C312.387 439.716 312.496 439.606 312.496 439.606Z" fill="#334750"/>
<path d="M144.816 430.118C144.846 430.029 144.851 429.934 144.826 429.84C145.567 428.403 146.954 427.901 148.336 427.355C150.732 426.405 152.76 424.989 154.022 422.658C155.041 423.756 156.433 423.413 157.517 423.17C160.146 422.578 162.771 422.881 165.395 422.742C165.768 428.876 166.141 435.014 166.514 441.147C162.055 438.975 157.596 436.808 153.137 434.636C152.099 433.309 151.234 431.733 149.121 431.987C148.321 432.081 147.506 432.022 146.695 432.032C146.541 431.893 146.387 431.753 146.238 431.619C147.133 431.4 148.028 431.182 149.126 430.913C147.69 429.88 146.168 430.461 144.816 430.118Z" fill="#E9EAEA"/>
<path d="M194.634 414.76C196.423 415.406 197.328 417.399 199.277 417.807L199.262 417.792C199.147 418.085 199.113 418.552 198.909 418.647C197.258 419.402 190.284 417.936 189.007 416.643C188.51 416.141 188.301 415.55 188.281 414.864C190.399 414.829 192.516 414.795 194.634 414.76Z" fill="#3AC277"/>
<path d="M196.902 414.85C198.677 414.85 200.446 414.85 202.216 414.85C201.187 415.789 201.505 418.075 199.263 417.797L199.278 417.812C199.124 416.311 197.653 415.869 196.902 414.85Z" fill="#3AC277"/>
<path d="M203.334 420.366C203.344 420.505 203.339 420.645 203.309 420.784C202.787 420.784 202.26 420.784 201.738 420.784C202.146 420.172 202.762 420.351 203.334 420.366Z" fill="#3AC277"/>
<path d="M140.678 427.225C140.629 427.563 141.146 428.224 140.5 428.19C137.318 428.011 134.082 427.976 131.189 426.375C130.404 425.943 129.763 425.242 129.778 424.203C131.9 424.188 134.018 424.174 136.14 424.164C137.969 424.73 138.824 426.738 140.693 427.24C140.698 427.24 140.678 427.225 140.678 427.225Z" fill="#3AC277"/>
<path d="M145.614 423.692C147.622 424.81 149.68 423.145 151.698 423.796C150.211 425.62 147.985 426.117 145.976 427.012C145.111 427.399 144.704 427.027 144.764 426.152C144.823 425.267 144.813 424.333 145.614 423.692Z" fill="#E9EAEA"/>
<path d="M138.664 424.288C140.324 424.273 141.985 424.258 143.645 424.243C142.815 425.396 142.79 427.35 140.677 427.225L140.692 427.24C140.767 425.744 139.166 425.391 138.664 424.288Z" fill="#3AC277"/>
<path d="M202.972 440.093C222.898 440.093 239.05 440.004 239.05 439.895C239.05 439.785 222.898 439.696 202.972 439.696C183.047 439.696 166.895 439.785 166.895 439.895C166.895 440.004 183.047 440.093 202.972 440.093Z" fill="#334750"/>
<path d="M167.525 441.649C167.177 441.47 166.829 441.296 166.477 441.117C166.825 441.296 167.177 441.47 167.525 441.649Z" fill="#E9EAEA"/>
<path d="M166.904 449.423C149.75 449.423 132.596 449.423 115.441 449.423C132.596 448.359 149.75 448.459 166.904 449.423Z" fill="#334750"/>
<path d="M146.703 432.032C147.513 432.022 148.328 432.082 149.129 431.987C151.241 431.734 152.101 433.304 153.145 434.636C149.879 434.939 146.733 435.874 143.129 436.714C145.082 434.442 147.533 434.229 150.162 433.329C146.693 432.931 143.949 434.537 140.539 434.656C142.557 432.867 144.59 432.355 146.703 432.032Z" fill="#334750"/>
<path d="M144.818 430.118C146.165 430.456 147.691 429.875 149.128 430.908C148.024 431.177 147.134 431.396 146.24 431.614C143.461 431.679 140.836 432.628 137.441 433.259C139.917 431.067 142.362 430.575 144.818 430.118Z" fill="#334750"/>
<path d="M135.25 431.227C135.171 431.296 135.091 431.371 135.012 431.44C135.081 431.356 135.146 431.276 135.216 431.192L135.25 431.227Z" fill="#334750"/>
<path d="M422.56 424.238C422.55 425.968 421.506 426.927 420.055 427.539C417.684 428.533 415.069 428.413 412.634 429.119C412.405 429.184 411.938 428.985 411.833 428.776C411.719 428.562 411.804 428.085 411.982 427.906C412.609 427.275 413.24 426.609 414.209 426.495C416.988 425.739 419.772 424.989 422.56 424.238Z" fill="#3AC277"/>
<path d="M400.297 424.273C399.223 423.329 398.95 422.136 399.849 421.062C400.764 419.974 401.947 420.655 402.966 421.132C404.393 421.798 405.531 422.812 406.331 424.189C404.338 425.302 402.3 423.657 400.297 424.273Z" fill="#FEFEFE"/>
<path d="M400.297 424.273C402.3 423.657 404.338 425.307 406.336 424.188C407.335 425.327 409.274 426.758 408.533 427.871C407.728 429.094 405.894 427.489 404.572 427.012C402.976 426.435 401.316 425.809 400.297 424.273Z" fill="#E9EAEA"/>
<path d="M422.559 424.238C419.775 424.989 416.987 425.74 414.203 426.495C415.719 424 418.085 423.031 420.859 422.897C421.684 422.852 422.474 423.18 422.559 424.238Z" fill="#E9EAEA"/>
<path d="M207.691 424.199C207.637 424.114 207.582 424.035 207.527 423.95C207.657 423.93 207.786 423.895 207.91 423.9C207.96 423.9 208.01 423.995 208.059 424.045C207.94 424.094 207.816 424.149 207.691 424.199Z" fill="#3AC277"/>
<path d="M320.688 432.454C320.624 432.509 320.554 432.603 320.515 432.593C320.385 432.559 320.261 432.489 320.137 432.429C320.191 432.38 320.261 432.285 320.301 432.295C320.435 432.33 320.554 432.4 320.688 432.454Z" fill="#3AC277"/>
<path d="M322.293 433.299C322.07 433.19 321.548 433.269 321.742 432.882C321.886 432.588 322.268 432.842 322.472 433.09C322.413 433.16 322.353 433.23 322.293 433.299Z" fill="#3AC277"/>
</svg>
