<svg width="249" height="249" viewBox="0 0 249 249" fill="none" xmlns="http://www.w3.org/2000/svg">
<path d="M176.237 45.0418C156.547 33.5729 124.194 32.1903 105.816 45.685C85.5216 60.5801 88.6365 88.8617 67.8744 102.29C46.759 115.953 21.4205 110.147 24.2119 145.317C26.3624 172.426 49.3707 179.669 71.5345 186.876C111.285 199.806 188.218 214.178 216.234 171.146C248.12 122.132 220.385 70.7447 176.237 45.0418Z" fill="white"/>
<path d="M124.501 212.925C177.828 212.925 221.058 210.401 221.058 207.288C221.058 204.174 177.828 201.65 124.501 201.65C71.1735 201.65 27.9434 204.174 27.9434 207.288C27.9434 210.401 71.1735 212.925 124.501 212.925Z" fill="#C8D4FF"/>
<path d="M201.83 158.528H47.166V176.038H201.83V158.528Z" fill="#65C17E"/>
<path opacity="0.3" d="M201.835 158.528H168.658V176.038H201.835V158.528Z" fill="black"/>
<path d="M64.2424 176.038H47.166V207.288H64.2424V176.038Z" fill="#65C17E"/>
<path opacity="0.3" d="M47.1719 176.038V177.786L59.2633 181.436V207.288H64.2433V176.038H47.1719Z" fill="black"/>
<path d="M201.834 176.038H184.758V207.288H201.834V176.038Z" fill="#65C17E"/>
<path opacity="0.2" d="M201.834 176.038H184.758V207.288H201.834V176.038Z" fill="black"/>
<path opacity="0.3" d="M184.758 176.038V177.786L196.854 181.436V207.288H201.834V176.038H184.758Z" fill="black"/>
<path d="M168.658 176.038H151.582V207.288H168.658V176.038Z" fill="#65C17E"/>
<path opacity="0.3" d="M151.582 176.038V177.786L163.678 181.436V207.288H168.658V176.038H151.582Z" fill="black"/>
<path d="M97.4202 176.038H80.3438V207.288H97.4202V176.038Z" fill="#65C17E"/>
<path opacity="0.2" d="M97.4202 176.038H80.3438V207.288H97.4202V176.038Z" fill="black"/>
<path opacity="0.3" d="M80.3438 176.038V177.786L92.4402 181.436V207.288H97.4202V176.038H80.3438Z" fill="black"/>
<path d="M180.516 155.087H85.956C85.6613 155.089 85.3694 155.03 85.0986 154.914C84.8279 154.798 84.5842 154.626 84.383 154.411C84.1817 154.196 84.0273 153.941 83.9295 153.663C83.8317 153.385 83.7925 153.09 83.8146 152.796L87.7089 90.9994C87.7582 90.3834 88.0348 89.8078 88.4849 89.3845C88.9349 88.9611 89.5263 88.7202 90.1441 88.7086H184.699C184.994 88.7064 185.286 88.7653 185.557 88.8816C185.827 88.9979 186.071 89.1691 186.272 89.3844C186.474 89.5997 186.628 89.8543 186.726 90.1323C186.824 90.4103 186.863 90.7055 186.841 90.9994L182.946 152.796C182.897 153.411 182.621 153.986 182.172 154.409C181.723 154.833 181.133 155.074 180.516 155.087Z" fill="#474C49"/>
<path opacity="0.6" d="M180.516 155.087H85.956C85.6613 155.089 85.3694 155.03 85.0986 154.914C84.8279 154.798 84.5842 154.626 84.383 154.411C84.1817 154.196 84.0273 153.941 83.9295 153.663C83.8317 153.385 83.7925 153.09 83.8146 152.796L87.7089 90.9994C87.7582 90.3834 88.0348 89.8078 88.4849 89.3845C88.9349 88.9611 89.5263 88.7202 90.1441 88.7086H184.699C184.994 88.7064 185.286 88.7653 185.557 88.8816C185.827 88.9979 186.071 89.1691 186.272 89.3844C186.474 89.5997 186.628 89.8543 186.726 90.1323C186.824 90.4103 186.863 90.7055 186.841 90.9994L182.946 152.796C182.897 153.411 182.621 153.986 182.172 154.409C181.723 154.833 181.133 155.074 180.516 155.087Z" fill="black"/>
<path d="M179.809 155.087H85.2539C84.9588 155.09 84.6664 155.032 84.395 154.915C84.1237 154.799 83.8794 154.628 83.6776 154.413C83.4758 154.198 83.321 153.943 83.2229 153.664C83.1247 153.386 83.0855 153.091 83.1075 152.796L87.0019 90.9994C87.0512 90.3835 87.3278 89.8079 87.7779 89.3845C88.2279 88.9611 88.8193 88.7202 89.4371 88.7086H183.992C184.287 88.7056 184.58 88.7641 184.851 88.8801C185.122 88.9962 185.366 89.1674 185.567 89.3828C185.769 89.5983 185.923 89.8532 186.02 90.1315C186.118 90.4098 186.157 90.7054 186.134 90.9994L182.239 152.796C182.19 153.411 181.914 153.986 181.465 154.409C181.016 154.833 180.426 155.074 179.809 155.087Z" fill="#474C49"/>
<path d="M179.689 155.874H67.176C66.6581 155.869 66.1493 156.011 65.7087 156.284C65.2681 156.556 64.9135 156.948 64.686 157.413C64.6284 157.534 64.6025 157.667 64.6109 157.801C64.6193 157.935 64.6617 158.064 64.734 158.177C64.8063 158.289 64.9061 158.382 65.0241 158.445C65.1421 158.508 65.2742 158.54 65.4081 158.538H181.432C181.566 158.54 181.698 158.508 181.816 158.445C181.934 158.382 182.034 158.289 182.106 158.177C182.179 158.064 182.221 157.935 182.229 157.801C182.238 157.667 182.212 157.534 182.154 157.413C181.93 156.951 181.579 156.561 181.143 156.289C180.707 156.017 180.203 155.873 179.689 155.874Z" fill="#474C49"/>
<path opacity="0.6" d="M179.689 155.874H163.688C163.174 155.872 162.67 156.016 162.234 156.288C161.798 156.56 161.447 156.95 161.223 157.413C161.166 157.533 161.14 157.666 161.148 157.8C161.156 157.933 161.198 158.062 161.27 158.174C161.341 158.287 161.441 158.379 161.558 158.443C161.675 158.507 161.807 158.54 161.94 158.538H181.432C181.566 158.54 181.698 158.508 181.816 158.445C181.934 158.382 182.034 158.289 182.106 158.176C182.178 158.064 182.221 157.935 182.229 157.801C182.238 157.667 182.212 157.534 182.154 157.413C181.929 156.951 181.579 156.561 181.143 156.289C180.707 156.017 180.203 155.873 179.689 155.874Z" fill="black"/>
<path d="M169.769 157.816H165.636C165.54 157.815 165.449 157.776 165.382 157.708C165.315 157.64 165.277 157.548 165.277 157.453C165.277 157.357 165.315 157.266 165.382 157.198C165.449 157.13 165.54 157.091 165.636 157.089H169.769C169.817 157.089 169.864 157.099 169.908 157.117C169.953 157.135 169.993 157.162 170.026 157.196C170.06 157.23 170.087 157.27 170.105 157.314C170.123 157.358 170.133 157.405 170.133 157.453C170.133 157.501 170.123 157.548 170.105 157.592C170.087 157.636 170.06 157.676 170.026 157.71C169.993 157.744 169.953 157.77 169.908 157.789C169.864 157.807 169.817 157.816 169.769 157.816Z" fill="#65C17E"/>
<path opacity="0.7" d="M116.617 157.816H112.489C112.392 157.816 112.3 157.778 112.231 157.71C112.163 157.642 112.125 157.549 112.125 157.453C112.125 157.405 112.134 157.358 112.153 157.314C112.171 157.27 112.198 157.23 112.231 157.196C112.265 157.162 112.305 157.135 112.349 157.117C112.394 157.099 112.441 157.089 112.489 157.089H116.617C116.665 157.089 116.712 157.099 116.756 157.117C116.8 157.135 116.84 157.162 116.874 157.196C116.908 157.23 116.935 157.27 116.953 157.314C116.971 157.358 116.981 157.405 116.981 157.453C116.981 157.549 116.942 157.642 116.874 157.71C116.806 157.778 116.713 157.816 116.617 157.816Z" fill="white"/>
<path d="M174.046 157.089H171.342C171.177 157.089 171.043 157.223 171.043 157.388V157.518C171.043 157.683 171.177 157.816 171.342 157.816H174.046C174.211 157.816 174.345 157.683 174.345 157.518V157.388C174.345 157.223 174.211 157.089 174.046 157.089Z" fill="#65C17E"/>
<path d="M85.2381 150.566L88.8536 93.2308C88.8722 92.9916 88.9797 92.768 89.1547 92.604C89.3298 92.44 89.5599 92.3473 89.7998 92.3443H183.17C183.284 92.3426 183.398 92.3648 183.503 92.4094C183.608 92.4541 183.703 92.5203 183.782 92.6037C183.86 92.6872 183.92 92.786 183.958 92.894C183.996 93.002 184.011 93.1167 184.002 93.2308L180.391 150.566C180.371 150.805 180.263 151.029 180.087 151.193C179.911 151.357 179.68 151.449 179.44 151.452H86.0748C85.9604 151.453 85.847 151.43 85.7418 151.385C85.6365 151.34 85.5417 151.274 85.4632 151.191C85.3846 151.108 85.3241 151.009 85.2854 150.902C85.2467 150.794 85.2306 150.68 85.2381 150.566Z" fill="white"/>
<path opacity="0.1" d="M138.355 90.5762L107.255 149.689H84.3118C84.1968 149.69 84.0826 149.668 83.9767 149.623C83.8707 149.578 83.7753 149.512 83.6966 149.428C83.6178 149.344 83.5574 149.245 83.5193 149.136C83.4812 149.027 83.4662 148.912 83.4752 148.797L87.0907 91.4676C87.1092 91.2279 87.2165 91.0038 87.3914 90.8389C87.5664 90.6741 87.7965 90.5804 88.0369 90.5762H138.355Z" fill="#65C17E"/>
<path opacity="0.1" d="M165.591 90.5762L134.491 149.689H127.24L158.34 90.5762H165.591Z" fill="#65C17E"/>
<path opacity="0.1" d="M182.238 91.4679L178.623 148.798C178.605 149.038 178.498 149.263 178.323 149.428C178.148 149.593 177.917 149.686 177.676 149.689H142.318L173.418 90.5765H181.386C181.503 90.5734 181.618 90.5946 181.725 90.6389C181.833 90.6831 181.93 90.7494 182.01 90.8333C182.09 90.9173 182.152 91.0172 182.191 91.1265C182.23 91.2357 182.246 91.352 182.238 91.4679Z" fill="#65C17E"/>
<path opacity="0.4" d="M137.265 90.6362C137.252 90.8168 137.171 90.9859 137.04 91.1102C136.908 91.2346 136.734 91.3053 136.553 91.3085C136.467 91.3095 136.381 91.2924 136.301 91.2584C136.222 91.2243 136.15 91.1741 136.091 91.1108C136.032 91.0475 135.987 90.9727 135.959 90.8909C135.93 90.8092 135.919 90.7225 135.926 90.6362C135.938 90.4552 136.019 90.2855 136.151 90.1609C136.282 90.0363 136.456 89.966 136.638 89.9639C136.724 89.9629 136.81 89.98 136.89 90.0141C136.969 90.0481 137.041 90.0984 137.1 90.1616C137.159 90.2249 137.204 90.2998 137.233 90.3815C137.261 90.4632 137.272 90.55 137.265 90.6362Z" fill="white"/>
<path d="M121.836 76.8863C119.112 80.0037 117.539 89.5604 119.556 94.2615C121.573 98.9626 98.1715 103.669 117.479 111.308C136.786 118.947 152.229 110.088 146.642 102.175C141.054 94.2615 147.244 81.0844 140.775 77.7727C134.929 74.7548 127.295 70.6364 121.836 76.8863Z" fill="#474C49"/>
<path d="M116.064 115.367C115.043 118.853 113.958 122.339 112.832 125.825C111.707 129.311 110.536 132.757 109.296 136.218L108.823 137.523L108.584 138.175L108.509 138.369L108.39 138.663C108.315 138.853 108.201 139.057 108.101 139.251C107.614 140.14 106.888 140.875 106.005 141.372C105.203 141.808 104.307 142.044 103.395 142.06C102.115 142.066 100.847 141.817 99.665 141.328C98.6972 140.935 97.76 140.47 96.8613 139.938C93.5961 137.93 90.6034 135.51 87.957 132.737L90.1034 130.207C90.8255 130.67 91.5974 131.163 92.3444 131.627C93.0914 132.09 93.8733 132.538 94.6302 132.981C96.1135 133.849 97.6448 134.632 99.2168 135.327C99.9331 135.643 100.672 135.904 101.428 136.109C101.95 136.282 102.503 136.346 103.051 136.298C103.191 136.298 103.166 136.218 103.051 136.263C102.937 136.308 102.812 136.437 102.807 136.422C102.802 136.407 102.807 136.422 102.807 136.392C102.81 136.383 102.81 136.372 102.807 136.363L102.847 136.238L103.036 135.596L103.42 134.301L106.463 123.843C107.499 120.357 108.564 116.871 109.66 113.385L116.064 115.367Z" fill="#EF9E96"/>
<path d="M89.9489 130.127L84.1621 127.986L86.4579 134.101C86.4579 134.101 90.5415 134.689 92.1251 132.543L90.8353 130.814C90.6117 130.505 90.3041 130.267 89.9489 130.127Z" fill="#EF9E96"/>
<path d="M79.0586 129.764L81.2598 134.779L86.4838 134.092L84.183 127.976L79.0586 129.764Z" fill="#EF9E96"/>
<path d="M111.841 106.348C109.192 107.02 107.359 117.912 107.359 117.912L114.655 122.892C114.655 122.892 121.627 111.906 119.61 108.997C117.469 105.945 115.701 105.367 111.841 106.348Z" fill="#65C17E"/>
<path opacity="0.5" d="M111.841 106.348C109.192 107.02 107.359 117.912 107.359 117.912L114.655 122.892C114.655 122.892 121.627 111.906 119.61 108.997C117.469 105.945 115.701 105.367 111.841 106.348Z" fill="white"/>
<path opacity="0.2" d="M111.603 110.307L117.266 111.617L117.808 117.16C116.849 119.116 115.79 121.023 114.636 122.872L110.209 119.884C110.403 117.319 110.881 112.05 111.603 110.307Z" fill="black"/>
<path d="M111.841 106.348C111.841 106.348 108.779 107.424 114.909 145.103H140.984C140.546 134.49 140.536 127.941 145.606 106.164C141.956 105.409 138.256 104.922 134.535 104.705C130.148 104.491 126.567 104.351 122.693 104.705C117.608 105.168 111.841 106.348 111.841 106.348Z" fill="#65C17E"/>
<path opacity="0.5" d="M111.841 106.348C111.841 106.348 108.779 107.424 114.909 145.103H140.984C140.546 134.49 140.536 127.941 145.606 106.164C141.956 105.409 138.256 104.922 134.535 104.705C130.148 104.491 126.567 104.351 122.693 104.705C117.608 105.168 111.841 106.348 111.841 106.348Z" fill="white"/>
<path opacity="0.2" d="M139.47 116.273L142.836 119.141C142.119 122.951 141.636 126.113 141.342 128.947C140.7 126.118 139.096 118.439 139.47 116.273Z" fill="black"/>
<path d="M133.361 91.3682C132.614 95.1779 131.867 102.16 134.536 104.705C134.536 104.705 132.046 110.412 125.447 110.412C118.849 110.412 122.694 104.705 122.694 104.705C126.941 103.709 126.832 100.536 126.095 97.5782L133.361 91.3682Z" fill="#EF9E96"/>
<path d="M133.69 103.28C133.062 104.55 131.04 107.453 125.393 108.489C125.236 108.518 125.074 108.486 124.94 108.4C123.884 107.663 123.227 106.104 123.69 104.296C123.721 104.185 123.72 104.068 123.687 103.957C123.654 103.847 123.592 103.747 123.506 103.671C123.42 103.594 123.314 103.543 123.2 103.523C123.087 103.503 122.97 103.516 122.863 103.559C122.429 103.741 122.013 103.961 121.618 104.216C121.531 104.274 121.461 104.353 121.414 104.446C121.001 105.222 119.327 109.027 124.377 111.373C124.458 111.407 124.544 111.427 124.631 111.432C127.619 111.492 132.843 110.905 136.145 104.958C136.204 104.851 136.23 104.729 136.22 104.607C136.211 104.485 136.165 104.368 136.09 104.271C135.646 103.785 135.131 103.371 134.561 103.041C134.489 102.995 134.409 102.965 134.325 102.952C134.24 102.939 134.154 102.944 134.072 102.966C133.99 102.989 133.913 103.029 133.848 103.083C133.782 103.137 133.728 103.204 133.69 103.28Z" fill="#FAFAFA"/>
<path d="M135.074 118.957L128.351 118.763C128.28 118.763 128.211 118.749 128.146 118.72C128.082 118.692 128.025 118.65 127.978 118.598C127.931 118.546 127.895 118.484 127.874 118.418C127.852 118.351 127.845 118.28 127.853 118.21L127.917 117.378C127.937 117.239 128.007 117.111 128.114 117.019C128.222 116.927 128.359 116.878 128.5 116.88L135.223 117.075C135.294 117.074 135.364 117.089 135.428 117.117C135.493 117.146 135.551 117.188 135.598 117.241C135.645 117.294 135.681 117.356 135.702 117.423C135.723 117.491 135.73 117.562 135.721 117.632L135.656 118.459C135.637 118.599 135.567 118.727 135.459 118.819C135.352 118.91 135.215 118.96 135.074 118.957Z" fill="#FAFAFA"/>
<path opacity="0.2" d="M130.396 93.9028L126.094 97.5731C126.278 98.2614 126.402 98.9646 126.462 99.6747C128.081 99.4406 130.312 97.6578 130.486 95.9596C130.581 95.2742 130.551 94.5773 130.396 93.9028Z" fill="black"/>
<path d="M138.381 84.1621C137.181 90.422 136.807 93.0962 133.202 95.9199C127.778 100.173 120.353 97.3243 119.666 90.8353C119.044 84.9938 121.11 75.7409 127.634 74.0278C129.064 73.6479 130.567 73.6392 132 74.0026C133.434 74.3659 134.752 75.0892 135.828 76.1041C136.904 77.1189 137.703 78.3916 138.15 79.8018C138.597 81.2119 138.676 82.7127 138.381 84.1621Z" fill="#EF9E96"/>
<path d="M134.819 79.5305C134.042 83.4498 133.858 88.6439 137.449 88.6439C141.039 88.6439 143.853 82.5335 140.755 77.7477C137.658 72.9619 135.272 77.2198 134.819 79.5305Z" fill="#474C49"/>
<path d="M141.024 80.0137C141.024 84.2766 135.656 82.17 133.28 80.3324C130.905 78.4948 130.79 78.694 126.388 78.689C121.986 78.684 121.104 78.3803 119.805 76.2787C118.505 74.1771 118.624 72.7927 121.552 73.2359C124.481 73.6791 122.021 70.6911 124.202 69.0328C126.383 67.3745 128.968 67.7928 131.951 71.5776C134.934 75.3624 141.024 72.6284 141.024 80.0137Z" fill="#474C49"/>
<path d="M139.448 89.7319C140.013 87.8052 139.459 85.9466 138.21 85.5806C136.962 85.2146 135.492 86.4798 134.927 88.4065C134.362 90.3331 134.916 92.1917 136.165 92.5577C137.413 92.9237 138.883 91.6585 139.448 89.7319Z" fill="white"/>
<path d="M129.48 94.5503C128.324 94.5501 127.181 94.3146 126.119 93.8581C126.096 93.8489 126.075 93.8352 126.058 93.8178C126.041 93.8004 126.027 93.7798 126.018 93.7571C126.008 93.7343 126.004 93.71 126.004 93.6854C126.004 93.6609 126.009 93.6366 126.019 93.6141C126.04 93.5687 126.077 93.533 126.124 93.5144C126.17 93.4959 126.222 93.4959 126.268 93.5145C127.269 93.9439 128.345 94.1683 129.434 94.1743C130.523 94.1802 131.602 93.9678 132.608 93.5494C133.585 93.1492 134.473 92.5576 135.219 91.8093C135.965 91.0609 136.553 90.171 136.95 89.1919C138.444 84.914 139.968 79.5755 138.205 76.2439C137.851 75.5954 137.36 75.0314 136.767 74.5904C136.174 74.1494 135.492 73.842 134.769 73.6891C134.721 73.6762 134.68 73.645 134.655 73.6021C134.63 73.5593 134.622 73.5082 134.635 73.46C134.647 73.412 134.679 73.371 134.722 73.3459C134.764 73.3207 134.815 73.3134 134.864 73.3256C135.636 73.4918 136.364 73.8225 136.997 74.2951C137.631 74.7678 138.155 75.3713 138.534 76.0646C140.367 79.5058 138.838 84.9489 137.299 89.3064C136.881 90.3347 136.262 91.269 135.478 92.0542C134.694 92.8393 133.76 93.4595 132.732 93.878C131.702 94.3109 130.598 94.5392 129.48 94.5503Z" fill="white"/>
<path opacity="0.6" d="M139.266 89.7495C138.823 91.2435 137.807 92.2943 136.995 92.0603C136.184 91.8262 135.885 90.4019 136.328 88.888C136.771 87.3741 137.787 86.3382 138.599 86.5773C139.411 86.8163 139.71 88.2356 139.266 89.7495Z" fill="#65C17E"/>
<path d="M126.637 93.0343L124.685 92.6579C124.342 92.5917 124.011 92.8161 123.945 93.1591L123.923 93.2716C123.857 93.6145 124.081 93.9462 124.424 94.0124L126.375 94.3888C126.718 94.455 127.05 94.2306 127.116 93.8876L127.138 93.7751C127.204 93.4322 126.979 93.1005 126.637 93.0343Z" fill="white"/>
<path d="M124.087 84.6851C124.087 84.6851 122.932 86.7816 121.836 87.7228C122.429 88.4449 123.624 88.3055 123.624 88.3055L124.087 84.6851Z" fill="#C07C75"/>
<path d="M125.187 90.9845H125.232C126.361 91.0736 127.482 90.732 128.37 90.0283C128.388 90.0097 128.398 89.9847 128.398 89.9586C128.398 89.9325 128.388 89.9075 128.37 89.8889C128.361 89.88 128.35 89.8729 128.339 89.8681C128.327 89.8633 128.315 89.8608 128.302 89.8608C128.29 89.8608 128.277 89.8633 128.266 89.8681C128.254 89.8729 128.244 89.88 128.235 89.8889C127.388 90.555 126.322 90.88 125.247 90.8002C125.234 90.7981 125.221 90.7987 125.209 90.8019C125.196 90.805 125.184 90.8108 125.174 90.8187C125.164 90.8267 125.155 90.8366 125.149 90.848C125.143 90.8594 125.139 90.872 125.138 90.8849C125.135 90.9046 125.138 90.9245 125.147 90.9423C125.156 90.96 125.17 90.9747 125.187 90.9845Z" fill="#474C49"/>
<path d="M130.885 82.2199C130.913 82.2356 130.945 82.2438 130.977 82.2438C131.01 82.2438 131.041 82.2356 131.069 82.2199C131.112 82.1914 131.142 82.1475 131.153 82.0974C131.164 82.0473 131.156 81.9948 131.129 81.9509C130.891 81.5521 130.561 81.2158 130.167 80.9698C129.773 80.7239 129.326 80.5754 128.863 80.5366C128.811 80.5366 128.761 80.5569 128.724 80.5932C128.687 80.6295 128.665 80.6789 128.664 80.7308C128.664 80.7815 128.684 80.8302 128.719 80.8664C128.755 80.9027 128.803 80.9238 128.853 80.9251C129.252 80.9631 129.636 81.0948 129.975 81.3094C130.313 81.524 130.596 81.8155 130.8 82.1601C130.823 82.1873 130.852 82.208 130.885 82.2199Z" fill="#474C49"/>
<path d="M128.032 84.7696C127.947 85.2676 127.603 85.651 127.265 85.5963C126.926 85.5415 126.732 85.0983 126.817 84.5604C126.901 84.0226 127.25 83.679 127.584 83.7337C127.917 83.7885 128.121 84.2566 128.032 84.7696Z" fill="#474C49"/>
<path d="M122.225 83.7833C122.14 84.2813 121.797 84.6648 121.458 84.61C121.12 84.5552 120.925 84.0871 121.01 83.5742C121.095 83.0612 121.443 82.6877 121.777 82.7475C122.111 82.8073 122.315 83.2654 122.225 83.7833Z" fill="#474C49"/>
<path d="M121.921 82.8026L120.746 82.2349C120.746 82.2349 121.214 83.3056 121.921 82.8026Z" fill="#474C49"/>
<path d="M127.728 83.7883L126.553 83.2256C126.553 83.2256 127.021 84.2963 127.728 83.7883Z" fill="#474C49"/>
<path d="M120.253 80.3124C120.284 80.3304 120.318 80.3399 120.353 80.3399C120.388 80.3399 120.423 80.3304 120.453 80.3124C120.76 80.0541 121.125 79.8739 121.517 79.7872C121.909 79.7005 122.316 79.7098 122.704 79.8144C122.752 79.8316 122.806 79.8286 122.853 79.8062C122.9 79.7838 122.935 79.7438 122.953 79.6949C122.97 79.646 122.967 79.5923 122.944 79.5457C122.922 79.499 122.882 79.4631 122.833 79.4459C122.386 79.3186 121.915 79.3011 121.46 79.3947C121.005 79.4883 120.579 79.6904 120.219 79.9837C120.198 79.9984 120.18 80.0173 120.167 80.0391C120.154 80.061 120.145 80.0853 120.142 80.1106C120.139 80.1358 120.141 80.1615 120.148 80.186C120.155 80.2104 120.167 80.2331 120.184 80.2527C120.2 80.2792 120.225 80.3 120.253 80.3124Z" fill="#474C49"/>
<path d="M113.919 151.452C113.919 151.452 113.849 147.886 114.915 145.103H140.985C140.985 145.103 143.331 148.887 143.938 151.452H113.919Z" fill="#65C17E"/>
<path d="M141.377 143.574L141.582 145.904C141.676 146.088 141.462 146.273 141.158 146.273H114.764C114.53 146.273 114.336 146.158 114.321 146.009L114.082 143.673C114.082 143.514 114.271 143.374 114.53 143.374H140.924C141.011 143.365 141.098 143.379 141.177 143.414C141.257 143.449 141.326 143.504 141.377 143.574Z" fill="#65C17E"/>
<path opacity="0.3" d="M141.377 143.574L141.582 145.904C141.676 146.088 141.462 146.273 141.158 146.273H114.764C114.53 146.273 114.336 146.158 114.321 146.009L114.082 143.673C114.082 143.514 114.271 143.374 114.53 143.374H140.924C141.011 143.365 141.098 143.379 141.177 143.414C141.257 143.449 141.326 143.504 141.377 143.574Z" fill="#FAFAFA"/>
<path d="M137.827 146.521H138.534C138.679 146.521 138.783 146.452 138.773 146.362L138.445 143.329C138.445 143.24 138.31 143.17 138.171 143.17H137.449C137.304 143.17 137.2 143.24 137.21 143.329L137.538 146.362C137.563 146.452 137.688 146.521 137.827 146.521Z" fill="#65C17E"/>
<path d="M116.766 146.521H117.474C117.613 146.521 117.723 146.452 117.713 146.362L117.379 143.329C117.379 143.24 117.249 143.17 117.105 143.17H116.398C116.258 143.17 116.149 143.24 116.159 143.329L116.492 146.362C116.502 146.452 116.627 146.521 116.766 146.521Z" fill="#65C17E"/>
<path d="M127.3 146.521H127.987C128.127 146.521 128.236 146.452 128.226 146.362L127.893 143.329C127.893 143.24 127.758 143.17 127.619 143.17H126.912C126.772 143.17 126.663 143.24 126.673 143.329L127.006 146.362C127.036 146.452 127.156 146.521 127.3 146.521Z" fill="#65C17E"/>
<path d="M147.837 113.544C148.983 117.262 150.083 121.001 151.139 124.759L152.728 130.366L153.52 133.155L153.719 133.842L153.818 134.186L153.843 134.266L153.764 134.141C153.638 133.961 153.483 133.803 153.305 133.673C152.916 133.39 152.452 133.225 151.971 133.2C151.607 133.183 151.245 133.255 150.915 133.409C150.556 133.603 150.591 133.648 150.621 133.613C150.706 133.54 150.782 133.458 150.85 133.369C151.085 133.076 151.301 132.768 151.498 132.448C151.936 131.731 152.369 130.924 152.778 130.097C153.624 128.444 154.386 126.691 155.158 124.928C155.93 123.165 156.652 121.382 157.399 119.585C158.146 117.787 158.858 115.979 159.595 114.196L162.777 115.143C161.951 119.027 160.985 122.842 159.789 126.641C159.202 128.549 158.549 130.436 157.797 132.348C157.409 133.305 156.996 134.261 156.483 135.252C156.209 135.788 155.903 136.307 155.566 136.806C155.357 137.118 155.124 137.415 154.869 137.692C154.465 138.15 153.974 138.524 153.425 138.793C152.877 139.059 152.271 139.186 151.662 139.161C150.94 139.121 150.246 138.866 149.67 138.429C149.303 138.152 148.985 137.815 148.729 137.433C148.567 137.188 148.425 136.929 148.305 136.661C148.261 136.552 148.211 136.437 148.176 136.337L148.081 136.093L147.952 135.74L147.693 135.038C147.354 134.106 147.011 133.175 146.697 132.244C146.06 130.381 145.422 128.524 144.824 126.656C143.603 122.925 142.464 119.175 141.408 115.406L147.837 113.544Z" fill="#EF9E96"/>
<path d="M145.605 106.164C148.22 106.956 152.219 117.209 152.219 117.209L142.084 124.455C142.084 124.455 137.528 115.69 138.623 112.314C139.769 108.798 142.627 105.257 145.605 106.164Z" fill="#65C17E"/>
<path opacity="0.5" d="M145.605 106.164C148.22 106.956 152.219 117.209 152.219 117.209L142.084 124.455C142.084 124.455 137.528 115.69 138.623 112.314C139.769 108.798 142.627 105.257 145.605 106.164Z" fill="white"/>
<path d="M159.71 115.561L158.32 109.436L164.097 112.483C164.097 112.483 164.167 116.607 161.836 117.907L159.71 115.561Z" fill="#EF9E96"/>
<path d="M160.741 104.575L164.426 107.19L164.097 112.483L158.32 109.436L160.741 104.575Z" fill="#EF9E96"/>
<path d="M57.2709 73.7493H97.6089C98.379 73.7417 99.1424 73.894 99.8507 74.1965C100.559 74.4991 101.197 74.9453 101.724 75.5069C102.251 76.0686 102.656 76.7335 102.913 77.4596C103.169 78.1857 103.273 78.9572 103.216 79.7253L102.091 97.982C101.967 99.5891 101.248 101.092 100.075 102.198C98.9015 103.303 97.358 103.93 95.7463 103.958H91.0751L92.9824 110.228L83.8591 103.958H55.4233C54.6531 103.966 53.8898 103.813 53.1815 103.511C52.4732 103.208 51.8353 102.762 51.3083 102.2C50.7813 101.639 50.3765 100.974 50.1196 100.248C49.8627 99.5216 49.7593 98.7501 49.8158 97.982L50.9313 79.7253C51.055 78.119 51.7731 76.6165 52.9455 75.5114C54.1178 74.4063 55.66 73.778 57.2709 73.7493Z" fill="#65C17E"/>
<path d="M93.9129 83.3108H59.7999C59.6551 83.31 59.512 83.2792 59.3797 83.2202C59.2474 83.1612 59.1288 83.0754 59.0314 82.9682C58.934 82.861 58.86 82.7347 58.814 82.5974C58.7679 82.46 58.7509 82.3146 58.7641 82.1704C58.7864 81.8682 58.9208 81.5852 59.141 81.377C59.3612 81.1687 59.6513 81.0503 59.9543 81.0449H94.0723C94.2163 81.0452 94.3588 81.0752 94.4908 81.1329C94.6229 81.1906 94.7416 81.2749 94.8397 81.3804C94.9378 81.486 95.0131 81.6106 95.061 81.7465C95.1089 81.8824 95.1283 82.0267 95.1181 82.1704C95.1003 82.4783 94.9657 82.7677 94.7417 82.9797C94.5177 83.1916 94.2213 83.3101 93.9129 83.3108Z" fill="white"/>
<path d="M73.7049 89.9791H59.3924C59.2475 89.9801 59.1039 89.9512 58.9707 89.8941C58.8375 89.837 58.7175 89.7529 58.6184 89.6472C58.5192 89.5415 58.443 89.4164 58.3945 89.2799C58.346 89.1433 58.3263 88.9981 58.3366 88.8536C58.359 88.5505 58.4942 88.2668 58.7154 88.0585C58.9367 87.8501 59.228 87.7323 59.5318 87.7281H73.8593C74.0047 87.7264 74.1488 87.7548 74.2826 87.8116C74.4164 87.8684 74.5369 87.9523 74.6366 88.0581C74.7363 88.1639 74.813 88.2892 74.8618 88.4261C74.9105 88.563 74.9304 88.7086 74.92 88.8536C74.8962 89.1596 74.7579 89.4455 74.5327 89.6541C74.3075 89.8627 74.0119 89.9787 73.7049 89.9791Z" fill="white"/>
<path d="M85.9708 96.647H58.9842C58.8393 96.6481 58.6957 96.6192 58.5625 96.562C58.4293 96.5049 58.3093 96.4209 58.2102 96.3152C58.111 96.2095 58.0348 96.0844 57.9863 95.9478C57.9378 95.8113 57.9181 95.6661 57.9284 95.5216C57.9497 95.2181 58.0845 94.9337 58.306 94.7251C58.5275 94.5166 58.8194 94.3991 59.1236 94.3961H86.1103C86.2554 94.3943 86.3993 94.4227 86.5329 94.4796C86.6664 94.5364 86.7867 94.6204 86.886 94.7263C86.9853 94.8322 87.0615 94.9575 87.1097 95.0945C87.1579 95.2314 87.1771 95.3768 87.166 95.5216C87.1436 95.8246 87.0085 96.1083 86.7872 96.3167C86.566 96.525 86.2747 96.6429 85.9708 96.647Z" fill="white"/>
<path d="M84.2183 89.9791H78.576C78.4311 89.9801 78.2875 89.9512 78.1543 89.8941C78.0211 89.837 77.9011 89.7529 77.802 89.6472C77.7028 89.5415 77.6266 89.4164 77.5781 89.2799C77.5296 89.1433 77.5099 88.9982 77.5202 88.8536C77.5437 88.5509 77.6792 88.2679 77.9002 88.0598C78.1212 87.8516 78.4119 87.7334 78.7154 87.7281H84.3528C84.4979 87.7263 84.6419 87.7547 84.7754 87.8116C84.909 87.8684 85.0292 87.9525 85.1285 88.0583C85.2279 88.1642 85.304 88.2896 85.3522 88.4265C85.4005 88.5634 85.4196 88.7089 85.4086 88.8536C85.3863 89.1558 85.2518 89.4388 85.0316 89.647C84.8114 89.8553 84.5213 89.9737 84.2183 89.9791Z" fill="white"/>
<path d="M113.441 40.9309H91.4492C90.1952 40.9497 88.9934 41.4368 88.0802 42.2966C87.167 43.1563 86.6084 44.3265 86.5141 45.5772L85.6575 59.7901C85.6148 60.3877 85.6964 60.9876 85.8971 61.5521C86.0978 62.1166 86.4132 62.6334 86.8235 63.0699C87.2339 63.5064 87.7302 63.8532 88.2812 64.0884C88.8322 64.3236 89.4259 64.4421 90.025 64.4365H93.6255L91.5439 69.3169L99.2429 64.4365H112.002C113.256 64.4176 114.458 63.9305 115.371 63.0707C116.284 62.211 116.843 61.0408 116.937 59.7901L117.808 45.5772C117.851 44.9796 117.769 44.3797 117.569 43.8152C117.368 43.2507 117.053 42.7339 116.642 42.2974C116.232 41.8609 115.736 41.5141 115.185 41.2789C114.634 41.0437 114.04 40.9252 113.441 40.9309Z" fill="#C8D4FF"/>
<path d="M102.837 55.0091C102.761 55.3221 102.583 55.6006 102.33 55.8002C102.077 55.9997 101.765 56.1087 101.443 56.1097H100.143C100.143 55.7411 100.173 55.517 100.178 55.4374C100.197 54.7196 100.381 54.0158 100.716 53.3806C101.186 52.6726 101.784 52.058 102.479 51.5679C103.033 51.1665 103.555 50.7236 104.042 50.2432C104.301 49.9375 104.454 49.557 104.481 49.1576C104.5 48.893 104.459 48.6274 104.359 48.3813C104.26 48.1352 104.106 47.9152 103.908 47.7383C103.425 47.3244 102.8 47.1138 102.165 47.1506C101.497 47.1324 100.844 47.3512 100.322 47.7682C100.012 48.0241 99.7577 48.3411 99.5752 48.6994C99.4407 48.9612 99.2319 49.1774 98.975 49.3209C98.718 49.4645 98.4244 49.5289 98.131 49.5062C97.9199 49.4801 97.7188 49.4011 97.5462 49.2766C97.3737 49.1521 97.2354 48.9861 97.144 48.794C97.0527 48.6019 97.0113 48.3898 97.0236 48.1774C97.036 47.965 97.1017 47.7592 97.2147 47.5789C97.5152 47.0746 97.9011 46.6264 98.3551 46.2542C99.4344 45.3867 100.791 44.9391 102.175 44.9943C103.803 44.9943 105.068 45.4176 105.979 46.2692C106.406 46.636 106.742 47.0967 106.961 47.6151C107.179 48.1336 107.275 48.6956 107.239 49.2572C107.194 49.8954 106.973 50.5088 106.602 51.0301C105.902 51.8914 105.094 52.6581 104.197 53.3109C103.732 53.6355 103.33 54.0422 103.011 54.5111C102.93 54.6682 102.872 54.8358 102.837 55.0091ZM99.9935 58.5847V58.4254C100.02 58.0655 100.18 57.7286 100.443 57.4814C100.706 57.2342 101.052 57.0948 101.413 57.0907H101.592C101.765 57.0882 101.936 57.1216 102.095 57.1888C102.254 57.2559 102.397 57.3554 102.516 57.4809C102.634 57.6064 102.725 57.7552 102.783 57.9178C102.841 58.0804 102.865 58.2532 102.852 58.4254V58.5847C102.826 58.9451 102.666 59.2826 102.403 59.5306C102.14 59.7786 101.794 59.9191 101.433 59.9243H101.273C101.099 59.9297 100.925 59.8983 100.763 59.8321C100.601 59.7659 100.455 59.6663 100.335 59.54C100.214 59.4136 100.121 59.2632 100.062 59.0987C100.004 58.9341 99.9802 58.759 99.9935 58.5847Z" fill="white"/>
</svg>
