<svg width="299" height="299" viewBox="0 0 299 299" fill="none" xmlns="http://www.w3.org/2000/svg">
<path d="M149.501 255.681C213.536 255.681 265.447 252.65 265.447 248.911C265.447 245.173 213.536 242.142 149.501 242.142C85.4656 242.142 33.5547 245.173 33.5547 248.911C33.5547 252.65 85.4656 255.681 149.501 255.681Z" fill="#C8D4FF"/>
<path d="M29.2188 90.0349L165.545 109.661L183.838 128.122L29.2188 90.0349Z" fill="#8E98BD"/>
<path d="M29.2188 90.0349L165.545 109.661L159.218 136.356L29.2188 90.0349Z" fill="#A8B5E3"/>
<path d="M156.42 59.1302L164.331 96.2062C164.537 97.1744 164.35 98.1846 163.812 99.0154C163.274 99.8461 162.428 100.429 161.461 100.637L90.849 115.707C89.881 115.911 88.8715 115.724 88.0412 115.186C87.2109 114.648 86.6272 113.803 86.4178 112.837L78.5003 75.7606C78.2963 74.7918 78.4844 73.7816 79.0235 72.9511C79.5625 72.1206 80.4087 71.5375 81.3766 71.3294L151.988 56.2598C152.957 56.0558 153.968 56.244 154.798 56.783C155.628 57.3221 156.212 58.1682 156.42 59.1362V59.1302Z" fill="#32cd71"/>
<path d="M154.679 56.7024L131.088 85.6635C128.9 88.3486 125.861 90.2064 122.474 90.9295C119.086 91.6526 115.554 91.1978 112.46 89.6402L79.0977 72.8364C79.6374 72.0611 80.452 71.5201 81.376 71.3235L151.988 56.2539C152.909 56.0578 153.871 56.218 154.679 56.7024Z" fill="#9CE2AF"/>
<path d="M29.2188 90.0349L141.661 116.76L159.218 136.356L29.2188 90.0349Z" fill="#8E98BD"/>
<path d="M70.2358 115.794L69.9336 116.31L82.4465 123.639L82.7487 123.123L70.2358 115.794Z" fill="#32cd71"/>
<path d="M88.273 126.355L87.9707 126.871L92.4702 129.506L92.7724 128.99L88.273 126.355Z" fill="#32cd71"/>
<path d="M29.2188 90.0349L141.661 116.76L119.804 143.101L29.2188 90.0349Z" fill="#C8D4FF"/>
<path d="M179.616 152.645C179.464 152.646 179.314 152.617 179.173 152.562L160.862 145.314C160.569 145.196 160.335 144.967 160.21 144.677C160.086 144.387 160.081 144.059 160.197 143.765C160.313 143.471 160.541 143.235 160.83 143.109C161.119 142.982 161.447 142.975 161.741 143.089L180.058 150.337C180.317 150.44 180.533 150.629 180.667 150.873C180.801 151.118 180.846 151.401 180.793 151.675C180.741 151.948 180.594 152.195 180.379 152.372C180.164 152.55 179.894 152.646 179.616 152.645Z" fill="#32cd71"/>
<path d="M178.534 142.145C178.384 142.144 178.235 142.113 178.097 142.055L168.26 138.138C168.113 138.081 167.979 137.996 167.865 137.886C167.751 137.777 167.66 137.647 167.596 137.502C167.533 137.358 167.499 137.202 167.496 137.044C167.493 136.887 167.522 136.73 167.58 136.583C167.638 136.437 167.724 136.303 167.834 136.19C167.944 136.077 168.075 135.986 168.22 135.924C168.365 135.862 168.521 135.829 168.678 135.827C168.836 135.825 168.993 135.855 169.139 135.913L178.976 139.812C179.271 139.928 179.508 140.157 179.634 140.447C179.761 140.737 179.767 141.066 179.652 141.361C179.568 141.59 179.415 141.788 179.215 141.928C179.016 142.068 178.778 142.144 178.534 142.145Z" fill="#32cd71"/>
<path opacity="0.5" d="M178.534 142.145C178.384 142.144 178.235 142.113 178.097 142.055L168.26 138.138C168.113 138.081 167.979 137.996 167.865 137.886C167.751 137.777 167.66 137.647 167.596 137.502C167.533 137.358 167.499 137.202 167.496 137.044C167.493 136.887 167.522 136.73 167.58 136.583C167.638 136.437 167.724 136.303 167.834 136.19C167.944 136.077 168.075 135.986 168.22 135.924C168.365 135.862 168.521 135.829 168.678 135.827C168.836 135.825 168.993 135.855 169.139 135.913L178.976 139.812C179.271 139.928 179.508 140.157 179.634 140.447C179.761 140.737 179.767 141.066 179.652 141.361C179.568 141.59 179.415 141.788 179.215 141.928C179.016 142.068 178.778 142.144 178.534 142.145Z" fill="white"/>
<path d="M157.969 152.49C157.82 152.488 157.672 152.46 157.532 152.406L139.67 145.314C139.523 145.257 139.389 145.171 139.275 145.062C139.161 144.953 139.07 144.823 139.007 144.678C138.943 144.534 138.909 144.378 138.906 144.22C138.904 144.063 138.932 143.906 138.99 143.759C139.048 143.613 139.134 143.479 139.244 143.366C139.354 143.252 139.485 143.162 139.63 143.1C139.775 143.038 139.931 143.005 140.089 143.003C140.246 143.001 140.403 143.03 140.549 143.089L158.411 150.158C158.671 150.26 158.886 150.45 159.02 150.694C159.154 150.938 159.199 151.222 159.146 151.495C159.094 151.769 158.948 152.016 158.733 152.193C158.518 152.37 158.248 152.467 157.969 152.466V152.49Z" fill="#C8D4FF"/>
<path d="M222.636 98.5623C224.22 101.654 225.674 104.752 227.055 107.921C228.436 111.09 229.722 114.302 230.846 117.668L231.253 118.942C231.325 119.169 231.426 119.54 231.486 119.803C231.546 120.066 231.6 120.365 231.63 120.617C231.767 121.581 231.837 122.554 231.839 123.529C231.848 125.326 231.764 127.122 231.588 128.911C231.254 132.373 230.711 135.812 229.961 139.208L226.678 138.844C226.636 135.477 226.606 132.074 226.487 128.755C226.433 127.105 226.337 125.448 226.17 123.894C226.094 123.163 225.974 122.439 225.811 121.723C225.781 121.555 225.733 121.43 225.698 121.292C225.662 121.155 225.626 121.107 225.566 120.928L225.111 119.797C223.862 116.771 222.456 113.722 221.021 110.684L216.68 101.57L222.636 98.5623Z" fill="#FBB7AC"/>
<path d="M226.726 137.791L225.195 140.656L230.087 142.019C230.087 142.019 231.02 139.717 229.908 137.899L226.726 137.791Z" fill="#FBB7AC"/>
<path d="M223.324 144.782L227.821 145.141L230.088 142.019L225.196 140.656L223.324 144.782Z" fill="#FBB7AC"/>
<path d="M202.046 77.8955C201.981 78.2483 201.736 78.4935 201.508 78.4456C201.281 78.3978 201.155 78.0809 201.227 77.734C201.299 77.3872 201.538 77.136 201.765 77.1839C201.993 77.2317 202.124 77.5486 202.046 77.8955Z" fill="#263238"/>
<path d="M201.772 78.4935C201.141 79.4718 200.378 80.3591 199.506 81.1306C199.71 81.3473 199.958 81.5172 200.233 81.6287C200.509 81.7402 200.806 81.7906 201.103 81.7765L201.772 78.4935Z" fill="#DE5753"/>
<path d="M203.709 76.2271C203.653 76.2256 203.599 76.202 203.56 76.1613C203.388 75.9648 203.172 75.8115 202.93 75.7138C202.688 75.6162 202.427 75.5769 202.166 75.5992C202.117 75.5996 202.069 75.5825 202.031 75.5509C201.993 75.5192 201.967 75.475 201.958 75.4262C201.95 75.3774 201.959 75.3272 201.984 75.2844C202.009 75.2416 202.048 75.209 202.095 75.1925C202.427 75.1504 202.765 75.1911 203.078 75.3111C203.391 75.4311 203.67 75.6266 203.889 75.8802C203.927 75.9193 203.949 75.972 203.949 76.0267C203.949 76.0815 203.927 76.1341 203.889 76.1732C203.865 76.1951 203.836 76.2114 203.805 76.2207C203.774 76.23 203.741 76.2322 203.709 76.2271Z" fill="#263238"/>
<path d="M211.938 82.7811C211.31 85.9984 210.682 91.8827 212.931 94.0295C212.931 94.0295 212.052 97.2886 206.078 97.2886C199.5 97.2886 202.944 94.0295 202.944 94.0295C206.532 93.1744 206.431 90.5133 205.809 88.0196L211.938 82.7811Z" fill="#FBB7AC"/>
<path d="M213.833 96.0568C214.305 94.484 214.825 92.684 213.749 92.1159C212.553 91.5179 206.053 90.8601 203.81 92.0262C201.568 93.1923 202.208 96.3916 202.208 96.3916L213.833 96.0568Z" fill="#263238"/>
<path d="M227.623 245.18C227.437 245.205 227.248 245.192 227.068 245.143C226.887 245.093 226.718 245.009 226.57 244.893C226.518 244.821 226.49 244.734 226.49 244.645C226.49 244.556 226.518 244.469 226.57 244.397C226.604 244.335 226.652 244.281 226.708 244.238C226.765 244.196 226.83 244.166 226.899 244.151C227.545 244.008 228.753 244.833 228.807 244.869C228.822 244.882 228.834 244.899 228.842 244.917C228.849 244.936 228.851 244.957 228.849 244.977C228.845 244.996 228.836 245.014 228.822 245.028C228.808 245.042 228.79 245.051 228.771 245.054C228.394 245.136 228.009 245.178 227.623 245.18ZM227.073 244.343H226.947C226.907 244.351 226.868 244.368 226.835 244.393C226.802 244.418 226.775 244.45 226.756 244.486C226.66 244.654 226.72 244.726 226.756 244.749C226.941 245.001 227.838 245.001 228.496 244.893C228.067 244.61 227.581 244.426 227.073 244.355V244.343Z" fill="#32cd71"/>
<path d="M228.747 245.072H228.699C228.245 244.821 227.366 243.876 227.456 243.374C227.471 243.296 227.513 243.227 227.574 243.176C227.635 243.126 227.711 243.099 227.79 243.099C227.869 243.09 227.949 243.098 228.025 243.12C228.101 243.143 228.172 243.18 228.233 243.231C228.741 243.649 228.831 244.917 228.831 244.971C228.833 244.99 228.83 245.009 228.822 245.026C228.813 245.043 228.8 245.057 228.783 245.066C228.772 245.071 228.76 245.073 228.747 245.072ZM227.862 243.278H227.838C227.701 243.278 227.689 243.362 227.683 243.386C227.629 243.679 228.191 244.403 228.64 244.743C228.609 244.244 228.43 243.765 228.125 243.368C228.085 243.337 228.039 243.314 227.99 243.3C227.94 243.287 227.889 243.283 227.838 243.29L227.862 243.278Z" fill="#32cd71"/>
<path d="M201.245 245.18C200.682 245.18 200.138 245.102 199.953 244.851C199.906 244.785 199.881 244.705 199.881 244.624C199.881 244.543 199.906 244.463 199.953 244.397C199.989 244.335 200.038 244.282 200.095 244.24C200.153 244.197 200.218 244.167 200.288 244.151C201.011 243.954 202.554 244.827 202.62 244.863C202.637 244.874 202.651 244.891 202.66 244.91C202.668 244.929 202.671 244.95 202.668 244.971C202.664 244.992 202.654 245.011 202.639 245.026C202.624 245.041 202.605 245.051 202.584 245.054C202.142 245.138 201.694 245.18 201.245 245.18ZM200.545 244.331C200.479 244.321 200.413 244.321 200.348 244.331C200.305 244.339 200.266 244.356 200.231 244.381C200.196 244.406 200.166 244.437 200.144 244.474C200.066 244.606 200.096 244.666 200.144 244.702C200.342 244.977 201.454 244.995 202.279 244.881C201.741 244.591 201.152 244.408 200.545 244.343V244.331Z" fill="#32cd71"/>
<path d="M202.572 245.072H202.53C201.998 244.839 200.952 243.876 201.029 243.392C201.029 243.272 201.131 243.129 201.418 243.099C201.525 243.083 201.634 243.09 201.737 243.121C201.841 243.152 201.936 243.206 202.016 243.278C202.578 243.733 202.692 244.917 202.698 244.971C202.7 244.989 202.698 245.007 202.69 245.024C202.683 245.041 202.671 245.056 202.656 245.066C202.643 245.073 202.629 245.077 202.615 245.078C202.6 245.079 202.586 245.077 202.572 245.072ZM201.502 243.278H201.436C201.251 243.278 201.239 243.374 201.233 243.398C201.185 243.697 201.903 244.444 202.429 244.767C202.377 244.265 202.168 243.792 201.831 243.416C201.745 243.342 201.638 243.298 201.526 243.29L201.502 243.278Z" fill="#32cd71"/>
<path d="M207.404 244.965H203.009L202.572 234.793H206.968L207.404 244.965Z" fill="#FBB7AC"/>
<path d="M233.782 244.965H229.386L227.18 234.793H231.569L233.782 244.965Z" fill="#FBB7AC"/>
<path d="M229.077 244.456H234.01C234.098 244.457 234.184 244.488 234.252 244.543C234.321 244.598 234.368 244.675 234.387 244.761L235.254 248.666C235.274 248.761 235.272 248.86 235.249 248.954C235.225 249.048 235.181 249.136 235.119 249.211C235.057 249.285 234.979 249.345 234.89 249.386C234.802 249.426 234.706 249.446 234.608 249.444C232.886 249.414 232.049 249.312 229.878 249.312C228.545 249.312 225.794 249.456 223.946 249.456C222.098 249.456 221.865 247.662 222.619 247.464C226.003 246.723 227.277 245.7 228.359 244.732C228.556 244.554 228.812 244.456 229.077 244.456Z" fill="#263238"/>
<path d="M203.038 244.456H207.822C207.911 244.457 207.996 244.488 208.064 244.543C208.133 244.598 208.18 244.675 208.199 244.761L209.066 248.666C209.087 248.761 209.086 248.858 209.064 248.952C209.042 249.046 208.998 249.134 208.937 249.208C208.876 249.283 208.799 249.343 208.712 249.384C208.624 249.425 208.529 249.445 208.432 249.444C206.704 249.414 204.205 249.312 202.028 249.312C199.486 249.312 197.286 249.456 194.302 249.456C192.508 249.456 191.999 247.662 192.753 247.464C196.191 246.711 198.996 246.633 201.968 244.803C202.285 244.588 202.656 244.468 203.038 244.456Z" fill="#263238"/>
<path d="M200.928 101.744C197.254 101.459 193.599 100.974 189.978 100.291C188.184 99.9437 186.355 99.555 184.537 99.0647C182.673 98.5878 180.843 97.9885 179.059 97.2707C178.599 97.0793 178.132 96.87 177.672 96.6727C177.153 96.4173 176.654 96.1255 176.177 95.7996C175.316 95.2315 174.574 94.6395 173.838 94.0534C172.373 92.8574 171.016 91.6614 169.652 90.4355C166.979 87.9598 164.444 85.4004 161.998 82.7094L164.199 80.2516L172.876 86.4887C174.305 87.5173 175.752 88.5279 177.175 89.4787C177.881 89.9512 178.605 90.3937 179.268 90.7704C179.546 90.9287 179.833 91.0686 180.129 91.189C180.482 91.3266 180.841 91.4641 181.218 91.5957C184.45 92.5908 187.755 93.3306 191.103 93.8082C194.517 94.3464 198.046 94.789 201.454 95.1478L200.928 101.744Z" fill="#FBB7AC"/>
<path d="M220.794 95.0222C224.914 95.967 229.076 108.005 229.076 108.005L220.603 114.086C220.603 114.086 218.211 108.477 215.902 103.574C213.486 98.4368 216.584 94.0594 220.794 95.0222Z" fill="#32cd71"/>
<path opacity="0.4" d="M220.794 95.0222C224.914 95.967 229.076 108.005 229.076 108.005L220.603 114.086C220.603 114.086 218.211 108.477 215.902 103.574C213.486 98.4368 216.584 94.0594 220.794 95.0222Z" fill="black"/>
<path d="M218.421 101.6L216.74 105.362C218.48 109.117 220.071 112.837 220.496 113.829C220.436 109.386 219.593 103.873 218.421 101.6Z" fill="#32cd71"/>
<path opacity="0.6" d="M218.421 101.6L216.74 105.362C218.48 109.117 220.071 112.837 220.496 113.829C220.436 109.386 219.593 103.873 218.421 101.6Z" fill="black"/>
<path d="M196.186 95.2494C196.186 95.2494 191.51 100.53 195.923 133.222H219.418C219.586 129.634 217.319 112.017 220.794 95.0222C218.197 94.5221 215.57 94.1905 212.93 94.0295C209.604 93.838 206.269 93.838 202.943 94.0295C200.662 94.2593 198.403 94.6672 196.186 95.2494Z" fill="#32cd71"/>
<path opacity="0.4" d="M196.186 95.2494C196.186 95.2494 191.51 100.53 195.923 133.222H219.418C219.586 129.634 217.319 112.017 220.794 95.0222C218.197 94.5221 215.57 94.1905 212.93 94.0295C209.604 93.838 206.269 93.838 202.943 94.0295C200.662 94.2593 198.403 94.6672 196.186 95.2494Z" fill="black"/>
<path d="M194.447 101.6C194.291 102.838 194.171 104.303 194.094 106.031C196.414 105.335 198.619 104.299 200.636 102.958L194.447 101.6Z" fill="#32cd71"/>
<path opacity="0.6" d="M194.447 101.6C194.291 102.838 194.171 104.303 194.094 106.031C196.414 105.335 198.619 104.299 200.636 102.958L194.447 101.6Z" fill="black"/>
<path d="M204.517 102.258C201.371 105.045 189.363 104.764 189.363 104.764L188.969 93.1385C193.024 93.7161 197.114 94.0118 201.21 94.0235C207.901 93.886 207.949 99.1843 204.517 102.258Z" fill="#32cd71"/>
<path opacity="0.4" d="M204.517 102.258C201.371 105.045 189.363 104.764 189.363 104.764L188.969 93.1385C193.024 93.7161 197.114 94.0118 201.21 94.0235C207.901 93.886 207.949 99.1843 204.517 102.258Z" fill="black"/>
<path d="M164.313 80.2755L161.323 76.7533L158.1 80.3413C158.1 80.3413 160.085 83.6781 163.236 83.1519L164.313 80.2755Z" fill="#FBB7AC"/>
<path d="M157.041 72.645L155.881 77.2436L158.076 80.3174L161.299 76.7533L157.041 72.645Z" fill="#FBB7AC"/>
<path d="M202.572 234.799L202.8 240.037H207.195L206.968 234.799H202.572Z" fill="#CE6F64"/>
<path d="M231.575 234.799H227.18L228.316 240.037H232.711L231.575 234.799Z" fill="#CE6F64"/>
<path d="M205.217 73.554C201.276 71.76 200.032 63.7887 211.37 65.78C211.37 65.78 209.66 67.6697 213.128 68.8657C216.596 70.0617 213.696 77.447 205.217 73.554Z" fill="#263238"/>
<path d="M213.779 79.534C212.649 83.72 212.207 86.2675 209.593 88.0196C205.682 90.6508 200.821 87.6309 200.665 83.1639C200.528 79.1513 202.399 72.9381 206.914 72.0889C207.911 71.8935 208.941 71.9567 209.906 72.2724C210.871 72.5882 211.74 73.1459 212.428 73.8925C213.116 74.6391 213.602 75.5496 213.839 76.5372C214.075 77.5248 214.055 78.5565 213.779 79.534Z" fill="#FBB7AC"/>
<path d="M211.215 67.873C213.9 69.368 217.535 70.265 217.195 72.3939C216.746 74.9952 219.389 73.3686 218.773 77.2377C218.373 79.7672 213.708 87.4336 210.401 87.0628C205.462 86.4648 206.09 78.9539 206.072 74.9952C206.06 72.657 205.952 64.9248 211.215 67.873Z" fill="#263238"/>
<path d="M205.479 71.2278C204.283 71.5088 202.699 78.4038 207.333 79.0377C212.661 79.7612 205.479 71.2278 205.479 71.2278Z" fill="#263238"/>
<path d="M205.599 73.6736C204.134 73.8052 200.815 72.0411 201.222 69.3859C201.222 69.368 203.321 72.4896 205.599 73.6736Z" fill="#263238"/>
<path d="M207.776 79.5878C207.326 80.5738 206.563 81.3833 205.605 81.8901C204.343 82.5479 203.632 81.5911 203.919 80.3233C204.176 79.1871 205.145 77.4709 206.442 77.3333C207.74 77.1958 208.296 78.3918 207.776 79.5878Z" fill="#FBB7AC"/>
<path d="M214.354 74.75C215.247 74.3622 216.031 73.7587 216.634 72.9938C217.237 72.2288 217.641 71.3261 217.81 70.3666C217.81 70.3666 219.783 75.8503 214.354 74.75Z" fill="#263238"/>
<path d="M219.341 74.6603C218.925 74.3808 218.446 74.2089 217.947 74.1598C217.448 74.1108 216.945 74.1861 216.482 74.3792C216.482 74.3792 218.324 71.9932 219.341 74.6603Z" fill="#263238"/>
<path d="M204.26 133.222C204.26 133.222 209.247 166.794 211.98 179.37C214.97 193.124 226.272 239.027 226.272 239.027H234.315C234.315 239.027 226.87 194.254 225.16 180.596C223.306 165.795 219.419 133.199 219.419 133.199L204.26 133.222Z" fill="#32cd71"/>
<path opacity="0.5" d="M204.26 133.222C204.26 133.222 209.247 166.794 211.98 179.37C214.97 193.124 226.272 239.027 226.272 239.027H234.315C234.315 239.027 226.87 194.254 225.16 180.596C223.306 165.795 219.419 133.199 219.419 133.199L204.26 133.222Z" fill="white"/>
<path d="M224.985 236.06C224.95 236.06 225.817 239.152 225.817 239.152H234.87L234.703 236.395L224.985 236.06Z" fill="#32cd71"/>
<path opacity="0.1" d="M224.985 236.06C224.95 236.06 225.817 239.152 225.817 239.152H234.87L234.703 236.395L224.985 236.06Z" fill="black"/>
<path d="M207.411 145.182C213.176 146.313 212.566 167.811 211.872 178.868C210.21 171.052 207.776 156.012 206.113 145.338C206.515 145.14 206.973 145.085 207.411 145.182Z" fill="#32cd71"/>
<path opacity="0.4" d="M207.411 145.182C213.176 146.313 212.566 167.811 211.872 178.868C210.21 171.052 207.776 156.012 206.113 145.338C206.515 145.14 206.973 145.085 207.411 145.182Z" fill="white"/>
<path d="M195.923 133.222C195.923 133.222 195.325 166.065 195.797 179.466C196.293 193.399 201.179 239.027 201.179 239.027H208.618C208.618 239.027 208.893 194.212 209.216 180.53C209.581 165.61 211.381 133.222 211.381 133.222H195.923Z" fill="#32cd71"/>
<path opacity="0.5" d="M195.923 133.222C195.923 133.222 195.325 166.065 195.797 179.466C196.293 193.399 201.179 239.027 201.179 239.027H208.618C208.618 239.027 208.893 194.212 209.216 180.53C209.581 165.61 211.381 133.222 211.381 133.222H195.923Z" fill="white"/>
<path d="M202.722 233.68C202.704 233.68 202.687 233.674 202.674 233.662C202.66 233.649 202.652 233.633 202.651 233.615C201.335 220.985 198.243 190.427 197.867 179.466C197.466 168.277 197.831 143.173 197.95 135.746C197.95 135.727 197.958 135.709 197.971 135.695C197.985 135.682 198.003 135.674 198.022 135.674C198.042 135.674 198.061 135.682 198.075 135.695C198.089 135.708 198.098 135.726 198.1 135.746C197.98 143.173 197.615 168.277 198.016 179.46C198.405 190.421 201.496 220.967 202.8 233.597C202.8 233.617 202.793 233.637 202.78 233.652C202.767 233.667 202.748 233.678 202.728 233.68H202.722Z" fill="#32cd71"/>
<path opacity="0.4" d="M202.722 233.68C202.704 233.68 202.687 233.674 202.674 233.662C202.66 233.649 202.652 233.633 202.651 233.615C201.335 220.985 198.243 190.427 197.867 179.466C197.466 168.277 197.831 143.173 197.95 135.746C197.95 135.727 197.958 135.709 197.971 135.695C197.985 135.682 198.003 135.674 198.022 135.674C198.042 135.674 198.061 135.682 198.075 135.695C198.089 135.708 198.098 135.726 198.1 135.746C197.98 143.173 197.615 168.277 198.016 179.46C198.405 190.421 201.496 220.967 202.8 233.597C202.8 233.617 202.793 233.637 202.78 233.652C202.767 233.667 202.748 233.678 202.728 233.68H202.722Z" fill="white"/>
<path d="M199.732 236.06C199.702 236.06 200.156 239.152 200.156 239.152H209.204L209.449 236.395L199.732 236.06Z" fill="#32cd71"/>
<path opacity="0.1" d="M199.732 236.06C199.702 236.06 200.156 239.152 200.156 239.152H209.204L209.449 236.395L199.732 236.06Z" fill="black"/>
</svg>
