<svg width="253" height="253" viewBox="0 0 253 253" fill="none" xmlns="http://www.w3.org/2000/svg">
<path d="M253 193.495H0V193.621H253V193.495Z" fill="#E7EBF6"/>
<path d="M162.688 200.548H145.93V200.675H162.688V200.548Z" fill="#E7EBF6"/>
<path d="M210.38 199.177H205.982V199.303H210.38V199.177Z" fill="#E7EBF6"/>
<path d="M200.674 196.94H165.801V197.067H200.674V196.94Z" fill="#E7EBF6"/>
<path d="M113.922 199.926H98.5898V200.052H113.922V199.926Z" fill="#E7EBF6"/>
<path d="M94.0847 199.926H84.3594V200.052H94.0847V199.926Z" fill="#E7EBF6"/>
<path d="M50.246 197.791H26.5449V197.917H50.246V197.791Z" fill="#E7EBF6"/>
<path d="M119.922 170.927H22.2182C21.4528 170.926 20.7192 170.621 20.1784 170.079C19.6377 169.537 19.334 168.803 19.334 168.038V30.694C19.3406 29.933 19.6473 29.2054 20.1873 28.6691C20.7274 28.1329 21.4571 27.8314 22.2182 27.8301H119.922C120.688 27.8301 121.423 28.1345 121.965 28.6763C122.507 29.2182 122.811 29.9531 122.811 30.7193V168.038C122.811 168.804 122.507 169.539 121.965 170.081C121.423 170.622 120.688 170.927 119.922 170.927ZM22.2182 27.9313C21.4863 27.9326 20.7849 28.2243 20.2679 28.7423C19.7509 29.2602 19.4605 29.9622 19.4605 30.694V168.038C19.4605 168.769 19.7509 169.471 20.2679 169.989C20.7849 170.507 21.4863 170.799 22.2182 170.8H119.922C120.654 170.799 121.356 170.508 121.874 169.99C122.392 169.472 122.683 168.77 122.685 168.038V30.694C122.683 29.9617 122.392 29.2598 121.874 28.7419C121.356 28.2241 120.654 27.9326 119.922 27.9313H22.2182Z" fill="#E7EBF6"/>
<path d="M229.375 170.927H131.667C130.901 170.926 130.167 170.621 129.625 170.079C129.084 169.538 128.779 168.803 128.777 168.038V30.694C128.785 29.9326 129.093 29.2049 129.634 28.6688C130.175 28.1327 130.905 27.8314 131.667 27.8301H229.375C230.135 27.8327 230.864 28.1348 231.403 28.6709C231.942 29.207 232.248 29.9339 232.254 30.694V168.038C232.254 168.802 231.951 169.536 231.412 170.077C230.872 170.619 230.14 170.924 229.375 170.927ZM131.667 27.9313C130.934 27.9326 130.232 28.2241 129.715 28.7419C129.197 29.2598 128.905 29.9617 128.904 30.694V168.038C128.905 168.77 129.197 169.472 129.715 169.99C130.232 170.508 130.934 170.799 131.667 170.8H229.375C230.108 170.799 230.809 170.508 231.327 169.99C231.845 169.472 232.137 168.77 232.138 168.038V30.694C232.137 29.9617 231.845 29.2598 231.327 28.7419C230.809 28.2241 230.108 27.9326 229.375 27.9313H131.667Z" fill="#E7EBF6"/>
<path d="M221.973 85.5696C221.971 85.0171 221.751 84.4876 221.361 84.0969C220.97 83.7063 220.441 83.4862 219.888 83.4849H154.948C154.396 83.4862 153.866 83.7063 153.475 84.0969C153.085 84.4876 152.865 85.0171 152.863 85.5696V92.2791H221.973V85.5696Z" fill="#E7EBF6"/>
<path d="M206.691 87.8823C206.692 88.1949 206.6 88.5009 206.427 88.7612C206.254 89.0216 206.007 89.2248 205.718 89.3449C205.43 89.465 205.112 89.4967 204.805 89.4359C204.498 89.3752 204.217 89.2247 203.996 89.0036C203.775 88.7825 203.624 88.5008 203.563 88.1941C203.503 87.8874 203.534 87.5695 203.654 87.2808C203.774 86.9921 203.978 86.7456 204.238 86.5726C204.498 86.3995 204.804 86.3076 205.117 86.3086C205.534 86.3099 205.933 86.4762 206.228 86.771C206.523 87.0658 206.689 87.4653 206.691 87.8823Z" fill="white"/>
<path d="M212.277 87.8823C212.278 88.1947 212.186 88.5004 212.013 88.7607C211.84 89.021 211.594 89.2241 211.306 89.3444C211.017 89.4647 210.7 89.4967 210.393 89.4363C210.086 89.376 209.805 89.226 209.583 89.0054C209.362 88.7848 209.211 88.5036 209.15 88.1972C209.089 87.8908 209.119 87.5731 209.239 87.2843C209.358 86.9956 209.561 86.7487 209.82 86.575C210.08 86.4013 210.385 86.3086 210.698 86.3086C211.116 86.3086 211.516 86.4742 211.812 86.7692C212.108 87.0642 212.275 87.4644 212.277 87.8823Z" fill="white"/>
<path d="M216.284 89.4607C217.156 89.4607 217.863 88.7538 217.863 87.8819C217.863 87.01 217.156 86.3032 216.284 86.3032C215.412 86.3032 214.705 87.01 214.705 87.8819C214.705 88.7538 215.412 89.4607 216.284 89.4607Z" fill="white"/>
<path d="M154.948 137.475H219.888C220.441 137.474 220.97 137.254 221.361 136.863C221.751 136.472 221.971 135.943 221.973 135.391V92.2793H152.863V135.391C152.865 135.943 153.085 136.472 153.475 136.863C153.866 137.254 154.396 137.474 154.948 137.475Z" fill="#E7EBF6"/>
<path d="M227.244 101.352C227.243 100.799 227.023 100.27 226.632 99.8792C226.242 99.4885 225.712 99.2684 225.16 99.2671H160.219C159.667 99.2684 159.138 99.4885 158.747 99.8792C158.356 100.27 158.136 100.799 158.135 101.352V108.061H227.244V101.352Z" fill="#E7EBF6"/>
<path d="M211.968 103.664C211.968 103.976 211.875 104.282 211.702 104.541C211.528 104.801 211.282 105.003 210.993 105.123C210.705 105.242 210.388 105.273 210.081 105.213C209.775 105.152 209.494 105.001 209.273 104.78C209.052 104.56 208.902 104.278 208.841 103.972C208.78 103.666 208.811 103.348 208.931 103.06C209.05 102.772 209.253 102.525 209.512 102.352C209.772 102.178 210.077 102.085 210.389 102.085C210.808 102.085 211.21 102.252 211.506 102.548C211.802 102.844 211.968 103.245 211.968 103.664Z" fill="#E7EBF6"/>
<path d="M217.55 103.664C217.55 103.977 217.457 104.282 217.284 104.542C217.11 104.802 216.863 105.004 216.574 105.123C216.286 105.243 215.968 105.274 215.661 105.212C215.355 105.151 215.074 105 214.853 104.779C214.633 104.557 214.483 104.276 214.422 103.969C214.362 103.662 214.394 103.345 214.514 103.057C214.634 102.768 214.838 102.522 215.098 102.349C215.358 102.176 215.664 102.084 215.976 102.085C216.394 102.087 216.794 102.254 217.089 102.55C217.384 102.846 217.55 103.246 217.55 103.664Z" fill="#E7EBF6"/>
<path d="M223.146 103.664C223.146 103.977 223.053 104.282 222.879 104.542C222.706 104.802 222.459 105.004 222.17 105.123C221.881 105.243 221.564 105.274 221.257 105.212C220.951 105.151 220.669 105 220.449 104.779C220.228 104.557 220.078 104.276 220.018 103.969C219.958 103.662 219.99 103.345 220.11 103.057C220.23 102.768 220.433 102.522 220.694 102.349C220.954 102.176 221.26 102.084 221.572 102.085C221.99 102.087 222.39 102.254 222.685 102.55C222.98 102.846 223.146 103.246 223.146 103.664Z" fill="#E7EBF6"/>
<path d="M160.219 153.257H225.17C225.722 153.256 226.252 153.036 226.642 152.645C227.033 152.255 227.253 151.725 227.254 151.173V108.062H158.135V151.173C158.136 151.725 158.356 152.255 158.747 152.645C159.138 153.036 159.667 153.256 160.219 153.257Z" fill="#D3DBF2"/>
<path d="M25.1289 37.1458C25.1316 36.6223 25.341 36.1212 25.7116 35.7515C26.0822 35.3819 26.5839 35.1737 27.1074 35.1724H112.333C112.856 35.1737 113.358 35.3819 113.729 35.7515C114.099 36.1212 114.309 36.6223 114.311 37.1458V43.5163H25.1289V37.1458Z" fill="#C1C8DC"/>
<path d="M41.1184 40.9863C40.7972 40.9863 40.4831 40.8911 40.216 40.7126C39.9489 40.5341 39.7407 40.2804 39.6178 39.9836C39.4948 39.6868 39.4627 39.3603 39.5254 39.0452C39.588 38.7301 39.7427 38.4407 39.9699 38.2135C40.197 37.9864 40.4864 37.8317 40.8015 37.769C41.1166 37.7063 41.4432 37.7385 41.74 37.8614C42.0368 37.9844 42.2904 38.1926 42.4689 38.4597C42.6474 38.7268 42.7427 39.0408 42.7427 39.3621C42.7427 39.7928 42.5715 40.206 42.2669 40.5106C41.9623 40.8152 41.5492 40.9863 41.1184 40.9863ZM41.1184 37.9959C40.8482 37.9959 40.5841 38.076 40.3594 38.2261C40.1347 38.3762 39.9596 38.5896 39.8562 38.8392C39.7528 39.0889 39.7257 39.3636 39.7785 39.6286C39.8312 39.8936 39.9613 40.137 40.1524 40.3281C40.3434 40.5192 40.5869 40.6493 40.8519 40.702C41.1169 40.7547 41.3916 40.7277 41.6412 40.6243C41.8909 40.5209 42.1042 40.3457 42.2544 40.1211C42.4045 39.8964 42.4846 39.6323 42.4846 39.3621C42.4873 39.1809 42.4539 39.0011 42.3865 38.833C42.319 38.6649 42.2188 38.5119 42.0917 38.3829C41.9645 38.2539 41.813 38.1514 41.6459 38.0815C41.4789 38.0116 41.2995 37.9756 41.1184 37.9756V37.9959Z" fill="white"/>
<path d="M35.8195 40.9863C35.4991 40.9863 35.1859 40.8915 34.9192 40.7139C34.6525 40.5363 34.4444 40.2838 34.3209 39.9882C34.1973 39.6926 34.164 39.3671 34.2251 39.0526C34.2861 38.738 34.4388 38.4486 34.664 38.2207C34.8891 37.9927 35.1766 37.8364 35.4903 37.7715C35.8041 37.7066 36.13 37.7359 36.4271 37.8557C36.7243 37.9755 36.9793 38.1806 37.1602 38.445C37.3411 38.7094 37.4397 39.0215 37.4437 39.3418C37.4464 39.5568 37.4064 39.7702 37.3259 39.9696C37.2455 40.169 37.1263 40.3505 36.9752 40.5034C36.8241 40.6564 36.6441 40.7779 36.4457 40.8608C36.2473 40.9437 36.0345 40.9863 35.8195 40.9863ZM35.8195 37.9959C35.5492 37.9959 35.2851 38.076 35.0604 38.2261C34.8358 38.3762 34.6606 38.5896 34.5572 38.8392C34.4538 39.0889 34.4268 39.3636 34.4795 39.6286C34.5322 39.8936 34.6623 40.137 34.8534 40.3281C35.0445 40.5192 35.2879 40.6493 35.5529 40.702C35.8179 40.7547 36.0926 40.7277 36.3423 40.6243C36.5919 40.5209 36.8053 40.3457 36.9554 40.1211C37.1055 39.8964 37.1857 39.6323 37.1857 39.3621C37.1883 39.1809 37.155 39.0011 37.0875 38.833C37.0201 38.6649 36.9199 38.5119 36.7927 38.3829C36.6656 38.2539 36.5141 38.1514 36.347 38.0815C36.1799 38.0116 36.0006 37.9756 35.8195 37.9756V37.9959Z" fill="white"/>
<path d="M30.5227 40.9863C30.2014 40.9863 29.8874 40.8911 29.6203 40.7126C29.3532 40.5341 29.145 40.2804 29.0221 39.9836C28.8991 39.6868 28.867 39.3603 28.9296 39.0452C28.9923 38.7301 29.147 38.4407 29.3742 38.2135C29.6013 37.9864 29.8907 37.8317 30.2058 37.769C30.5209 37.7063 30.8475 37.7385 31.1443 37.8614C31.4411 37.9844 31.6947 38.1926 31.8732 38.4597C32.0517 38.7268 32.147 39.0408 32.147 39.3621C32.147 39.7928 31.9758 40.206 31.6712 40.5106C31.3666 40.8152 30.9535 40.9863 30.5227 40.9863ZM30.5227 37.9959C30.2525 37.9959 29.9883 38.076 29.7637 38.2261C29.539 38.3762 29.3639 38.5896 29.2605 38.8392C29.1571 39.0889 29.13 39.3636 29.1827 39.6286C29.2355 39.8936 29.3656 40.137 29.5566 40.3281C29.7477 40.5192 29.9911 40.6493 30.2562 40.702C30.5212 40.7547 30.7959 40.7277 31.0455 40.6243C31.2952 40.5209 31.5085 40.3457 31.6587 40.1211C31.8088 39.8964 31.8889 39.6323 31.8889 39.3621C31.8916 39.1809 31.8582 39.0011 31.7908 38.833C31.7233 38.6649 31.6231 38.5119 31.496 38.3829C31.3688 38.2539 31.2173 38.1514 31.0502 38.0815C30.8831 38.0116 30.7038 37.9756 30.5227 37.9756V37.9959Z" fill="white"/>
<path d="M27.1074 96.4235H112.333C112.857 96.4221 113.36 96.2133 113.73 95.8425C114.101 95.4718 114.31 94.9693 114.311 94.445V43.5161H25.1289V94.445C25.1302 94.9693 25.3391 95.4718 25.7099 95.8425C26.0806 96.2133 26.5831 96.4221 27.1074 96.4235Z" fill="#E7EBF6"/>
<path d="M46.5059 50.5042C46.5085 49.9807 46.718 49.4796 47.0886 49.1099C47.4592 48.7403 47.9609 48.5321 48.4843 48.5308H133.695C134.218 48.5321 134.72 48.7403 135.09 49.1099C135.461 49.4796 135.671 49.9807 135.673 50.5042V56.8696H46.5059V50.5042Z" fill="#D3DBF2"/>
<path d="M62.4954 54.3242C62.1741 54.3242 61.8601 54.2289 61.593 54.0505C61.3259 53.872 61.1177 53.6183 60.9947 53.3215C60.8718 53.0247 60.8396 52.6981 60.9023 52.3831C60.965 52.068 61.1197 51.7786 61.3468 51.5514C61.574 51.3243 61.8634 51.1696 62.1785 51.1069C62.4936 51.0442 62.8201 51.0764 63.1169 51.1993C63.4137 51.3223 63.6674 51.5304 63.8459 51.7976C64.0244 52.0647 64.1196 52.3787 64.1196 52.6999C64.1196 53.1307 63.9485 53.5439 63.6439 53.8485C63.3393 54.1531 62.9261 54.3242 62.4954 54.3242ZM62.4954 51.3337C62.2251 51.3337 61.961 51.4139 61.7363 51.564C61.5117 51.7141 61.3366 51.9275 61.2332 52.1771C61.1297 52.4268 61.1027 52.7015 61.1554 52.9665C61.2081 53.2315 61.3382 53.4749 61.5293 53.666C61.7204 53.8571 61.9638 53.9872 62.2288 54.0399C62.4938 54.0926 62.7685 54.0655 63.0182 53.9621C63.2678 53.8587 63.4812 53.6836 63.6313 53.459C63.7814 53.2343 63.8616 52.9702 63.8616 52.6999C63.8616 52.3376 63.7176 51.9901 63.4614 51.7339C63.2052 51.4777 62.8577 51.3337 62.4954 51.3337Z" fill="#E7EBF6"/>
<path d="M57.1789 54.3242C56.8577 54.3242 56.5437 54.2289 56.2766 54.0505C56.0095 53.872 55.8013 53.6183 55.6783 53.3215C55.5554 53.0247 55.5232 52.6981 55.5859 52.3831C55.6486 52.068 55.8033 51.7786 56.0304 51.5514C56.2576 51.3243 56.547 51.1696 56.8621 51.1069C57.1771 51.0442 57.5037 51.0764 57.8005 51.1993C58.0973 51.3223 58.351 51.5304 58.5295 51.7976C58.7079 52.0647 58.8032 52.3787 58.8032 52.6999C58.8032 53.1307 58.6321 53.5439 58.3275 53.8485C58.0229 54.1531 57.6097 54.3242 57.1789 54.3242ZM57.1789 51.3337C56.9087 51.3337 56.6446 51.4139 56.4199 51.564C56.1953 51.7141 56.0201 51.9275 55.9167 52.1771C55.8133 52.4268 55.7863 52.7015 55.839 52.9665C55.8917 53.2315 56.0218 53.4749 56.2129 53.666C56.404 53.8571 56.6474 53.9872 56.9124 54.0399C57.1774 54.0926 57.4521 54.0655 57.7018 53.9621C57.9514 53.8587 58.1648 53.6836 58.3149 53.459C58.465 53.2343 58.5451 52.9702 58.5451 52.6999C58.5451 52.3376 58.4012 51.9901 58.145 51.7339C57.8888 51.4777 57.5413 51.3337 57.1789 51.3337Z" fill="#E7EBF6"/>
<path d="M51.8996 54.3242C51.5784 54.3242 51.2644 54.2289 50.9973 54.0505C50.7302 53.872 50.522 53.6183 50.399 53.3215C50.2761 53.0247 50.2439 52.6981 50.3066 52.3831C50.3693 52.068 50.524 51.7786 50.7511 51.5514C50.9783 51.3243 51.2677 51.1696 51.5828 51.1069C51.8978 51.0442 52.2244 51.0764 52.5212 51.1993C52.818 51.3223 53.0717 51.5304 53.2502 51.7976C53.4286 52.0647 53.5239 52.3787 53.5239 52.6999C53.5239 53.1307 53.3528 53.5439 53.0482 53.8485C52.7436 54.1531 52.3304 54.3242 51.8996 54.3242ZM51.8996 51.3337C51.6294 51.3337 51.3653 51.4139 51.1406 51.564C50.916 51.7141 50.7409 51.9275 50.6374 52.1771C50.534 52.4268 50.507 52.7015 50.5597 52.9665C50.6124 53.2315 50.7425 53.4749 50.9336 53.666C51.1247 53.8571 51.3681 53.9872 51.6331 54.0399C51.8981 54.0926 52.1728 54.0655 52.4225 53.9621C52.6721 53.8587 52.8855 53.6836 53.0356 53.459C53.1857 53.2343 53.2658 52.9702 53.2658 52.6999C53.2658 52.3376 53.1219 51.9901 52.8657 51.7339C52.6095 51.4777 52.262 51.3337 51.8996 51.3337Z" fill="#E7EBF6"/>
<path d="M48.4843 119.826H133.695C134.219 119.825 134.721 119.616 135.092 119.245C135.463 118.874 135.672 118.372 135.673 117.848V56.8696H46.5059V117.848C46.5072 118.372 46.7161 118.874 47.0868 119.245C47.4576 119.616 47.96 119.825 48.4843 119.826Z" fill="#C8D4FF"/>
<path d="M176.644 61.373H146.587C146.224 61.373 145.93 61.6676 145.93 62.0308V66.9643C145.93 67.3276 146.224 67.6222 146.587 67.6222H176.644C177.007 67.6222 177.302 67.3276 177.302 66.9643V62.0308C177.302 61.6676 177.007 61.373 176.644 61.373Z" fill="#E7EBF6"/>
<path d="M198.979 50.7774L146.587 51.1063C146.413 51.1063 146.246 51.1756 146.122 51.2989C145.999 51.4223 145.93 51.5896 145.93 51.7641V56.7026C145.932 56.8767 146.003 57.0427 146.127 57.1648C146.251 57.2869 146.418 57.3554 146.593 57.3554L198.984 57.0265C199.157 57.0251 199.323 56.9552 199.446 56.832C199.568 56.7088 199.637 56.5422 199.637 56.3687V51.4301C199.637 51.344 199.619 51.2587 199.586 51.1791C199.553 51.0996 199.505 51.0274 199.444 50.9668C199.382 50.9061 199.31 50.8581 199.23 50.8256C199.15 50.7931 199.065 50.7767 198.979 50.7774Z" fill="#E7EBF6"/>
<path d="M187.493 40.5054H146.587C146.224 40.5054 145.93 40.7999 145.93 41.1632V46.0967C145.93 46.46 146.224 46.7545 146.587 46.7545H187.493C187.856 46.7545 188.15 46.46 188.15 46.0967V41.1632C188.15 40.7999 187.856 40.5054 187.493 40.5054Z" fill="#E7EBF6"/>
<path d="M41.5029 141.736H31.0844C30.9083 141.736 30.7656 141.879 30.7656 142.055V145.566C30.7656 145.742 30.9083 145.885 31.0844 145.885H41.5029C41.679 145.885 41.8217 145.742 41.8217 145.566V142.055C41.8217 141.879 41.679 141.736 41.5029 141.736Z" fill="#E7EBF6"/>
<path d="M49.4623 134.884L30.9984 135.102C30.8668 135.102 30.7656 135.299 30.7656 135.537V138.816C30.7656 139.054 30.8719 139.251 30.9984 139.251L49.4674 139.028C49.5939 139.028 49.7001 138.831 49.7001 138.593V135.314C49.6951 135.102 49.5888 134.884 49.4623 134.884Z" fill="#E7EBF6"/>
<path d="M45.3283 128.256H31.0844C30.9083 128.256 30.7656 128.399 30.7656 128.575V132.086C30.7656 132.262 30.9083 132.405 31.0844 132.405H45.3283C45.5044 132.405 45.6471 132.262 45.6471 132.086V128.575C45.6471 128.399 45.5044 128.256 45.3283 128.256Z" fill="#E7EBF6"/>
<path d="M49.4623 155.109L30.9984 155.342C30.8668 155.342 30.7656 155.539 30.7656 155.777V159.056C30.7656 159.294 30.8719 159.491 30.9984 159.491L49.4674 159.269C49.5939 159.269 49.7001 159.071 49.7001 158.834V155.555C49.6951 155.307 49.5888 155.109 49.4623 155.109Z" fill="#E7EBF6"/>
<path d="M45.3283 148.481H31.0844C30.9083 148.481 30.7656 148.624 30.7656 148.8V152.311C30.7656 152.487 30.9083 152.63 31.0844 152.63H45.3283C45.5044 152.63 45.6471 152.487 45.6471 152.311V148.8C45.6471 148.624 45.5044 148.481 45.3283 148.481Z" fill="#E7EBF6"/>
<path d="M126.501 216.345C180.685 216.345 224.609 213.781 224.609 210.618C224.609 207.454 180.685 204.89 126.501 204.89C72.3172 204.89 28.3926 207.454 28.3926 210.618C28.3926 213.781 72.3172 216.345 126.501 216.345Z" fill="#C8D4FF"/>
<path d="M222.337 42.0537H126.773V137.141H222.337V42.0537Z" fill="#65C17E"/>
<path opacity="0.1" d="M157.968 46.7847H126.773V64.6819H157.968V46.7847Z" fill="black"/>
<path opacity="0.2" d="M157.968 82.5791H126.773V100.476H157.968V82.5791Z" fill="black"/>
<path opacity="0.1" d="M157.968 100.477H126.773V118.374H157.968V100.477Z" fill="black"/>
<path d="M157.969 46.7847H220.753V133.584C220.753 134.199 220.509 134.788 220.074 135.223C219.64 135.657 219.05 135.901 218.436 135.901H160.286C159.672 135.901 159.082 135.657 158.648 135.223C158.213 134.788 157.969 134.199 157.969 133.584V46.7847Z" fill="white"/>
<path opacity="0.3" d="M222.337 42.0537H126.773V46.7848H222.337V42.0537Z" fill="black"/>
<path opacity="0.8" d="M130.498 45.3832C131.029 45.3832 131.46 44.9528 131.46 44.4218C131.46 43.8909 131.029 43.4604 130.498 43.4604C129.968 43.4604 129.537 43.8909 129.537 44.4218C129.537 44.9528 129.968 45.3832 130.498 45.3832Z" fill="#65C17E"/>
<path opacity="0.8" d="M134.885 45.3832C135.416 45.3832 135.847 44.9528 135.847 44.4218C135.847 43.8909 135.416 43.4604 134.885 43.4604C134.354 43.4604 133.924 43.8909 133.924 44.4218C133.924 44.9528 134.354 45.3832 134.885 45.3832Z" fill="#65C17E"/>
<path opacity="0.8" d="M139.268 45.3832C139.799 45.3832 140.229 44.9528 140.229 44.4218C140.229 43.8909 139.799 43.4604 139.268 43.4604C138.737 43.4604 138.307 43.8909 138.307 44.4218C138.307 44.9528 138.737 45.3832 139.268 45.3832Z" fill="#65C17E"/>
<path opacity="0.2" d="M200.847 55.7056H164.259C163.462 55.7056 162.816 56.3512 162.816 57.1477V85.9087C162.816 86.7052 163.462 87.3508 164.259 87.3508H200.847C201.644 87.3508 202.289 86.7052 202.289 85.9087V57.1477C202.289 56.3512 201.644 55.7056 200.847 55.7056Z" fill="#65C17E"/>
<path opacity="0.2" d="M215.875 53.1909H187.772C187.16 53.1909 186.664 53.687 186.664 54.2991V76.391C186.664 77.003 187.16 77.4992 187.772 77.4992H215.875C216.487 77.4992 216.984 77.003 216.984 76.391V54.2991C216.984 53.687 216.487 53.1909 215.875 53.1909Z" fill="#65C17E"/>
<path opacity="0.2" d="M200.155 97.562H172.052C171.439 97.562 170.943 98.0581 170.943 98.6702V120.762C170.943 121.374 171.439 121.87 172.052 121.87H200.155C200.767 121.87 201.263 121.374 201.263 120.762V98.6702C201.263 98.0581 200.767 97.562 200.155 97.562Z" fill="#65C17E"/>
<path opacity="0.7" d="M222.337 42.0537H126.773V137.141H222.337V42.0537Z" fill="white"/>
<path d="M213.563 50.8276H118V145.915H213.563V50.8276Z" fill="#65C17E"/>
<path opacity="0.1" d="M149.195 55.5591H118V73.4563H149.195V55.5591Z" fill="black"/>
<path opacity="0.2" d="M149.195 91.3481H118V109.245H149.195V91.3481Z" fill="black"/>
<path opacity="0.1" d="M149.195 109.246H118V127.143H149.195V109.246Z" fill="black"/>
<path d="M149.195 55.5591H211.98V142.353C211.98 142.968 211.736 143.557 211.301 143.992C210.866 144.427 210.277 144.671 209.662 144.671H151.518C150.903 144.671 150.314 144.427 149.879 143.992C149.445 143.557 149.2 142.968 149.2 142.353V55.5591H149.195Z" fill="white"/>
<path opacity="0.3" d="M213.563 50.8276H118V55.5587H213.563V50.8276Z" fill="black"/>
<path opacity="0.8" d="M121.725 54.1523C122.256 54.1523 122.686 53.7219 122.686 53.1909C122.686 52.6599 122.256 52.2295 121.725 52.2295C121.194 52.2295 120.764 52.6599 120.764 53.1909C120.764 53.7219 121.194 54.1523 121.725 54.1523Z" fill="#65C17E"/>
<path opacity="0.8" d="M126.112 54.1523C126.643 54.1523 127.073 53.7219 127.073 53.1909C127.073 52.6599 126.643 52.2295 126.112 52.2295C125.581 52.2295 125.15 52.6599 125.15 53.1909C125.15 53.7219 125.581 54.1523 126.112 54.1523Z" fill="#65C17E"/>
<path opacity="0.8" d="M130.498 54.1523C131.029 54.1523 131.46 53.7219 131.46 53.1909C131.46 52.6599 131.029 52.2295 130.498 52.2295C129.968 52.2295 129.537 52.6599 129.537 53.1909C129.537 53.7219 129.968 54.1523 130.498 54.1523Z" fill="#65C17E"/>
<path opacity="0.2" d="M192.078 64.4795H155.489C154.693 64.4795 154.047 65.1251 154.047 65.9216V94.6826C154.047 95.4791 154.693 96.1247 155.489 96.1247H192.078C192.874 96.1247 193.52 95.4791 193.52 94.6826V65.9216C193.52 65.1251 192.874 64.4795 192.078 64.4795Z" fill="#65C17E"/>
<path opacity="0.2" d="M207.567 89.481H179.464C178.852 89.481 178.355 89.9771 178.355 90.5891V112.681C178.355 113.293 178.852 113.789 179.464 113.789H207.567C208.179 113.789 208.675 113.293 208.675 112.681V90.5891C208.675 89.9771 208.179 89.481 207.567 89.481Z" fill="#65C17E"/>
<path opacity="0.2" d="M191.385 106.336H163.282C162.67 106.336 162.174 106.832 162.174 107.444V129.536C162.174 130.148 162.67 130.644 163.282 130.644H191.385C191.997 130.644 192.493 130.148 192.493 129.536V107.444C192.493 106.832 191.997 106.336 191.385 106.336Z" fill="#65C17E"/>
<path opacity="0.5" d="M213.563 50.8276H118V145.915H213.563V50.8276Z" fill="white"/>
<path d="M204.794 59.5967H109.23V154.684H204.794V59.5967Z" fill="#65C17E"/>
<path opacity="0.1" d="M140.425 64.3276H109.23V82.2249H140.425V64.3276Z" fill="black"/>
<path opacity="0.2" d="M140.425 100.122H109.23V118.019H140.425V100.122Z" fill="black"/>
<path opacity="0.1" d="M140.425 118.02H109.23V135.917H140.425V118.02Z" fill="black"/>
<path d="M140.426 64.3276H203.21V151.127C203.21 151.742 202.966 152.331 202.531 152.766C202.097 153.2 201.507 153.444 200.893 153.444H142.743C142.129 153.444 141.539 153.2 141.105 152.766C140.67 152.331 140.426 151.742 140.426 151.127V64.3276Z" fill="white"/>
<path opacity="0.3" d="M204.794 59.5967H109.23V64.3278H204.794V59.5967Z" fill="black"/>
<path opacity="0.8" d="M112.956 62.9262C113.487 62.9262 113.917 62.4958 113.917 61.9648C113.917 61.4339 113.487 61.0034 112.956 61.0034C112.425 61.0034 111.994 61.4339 111.994 61.9648C111.994 62.4958 112.425 62.9262 112.956 62.9262Z" fill="#65C17E"/>
<path opacity="0.8" d="M118.304 61.9648C118.305 62.1562 118.249 62.3435 118.144 62.5031C118.038 62.6627 117.887 62.7874 117.711 62.8613C117.534 62.9352 117.34 62.9551 117.152 62.9184C116.964 62.8817 116.792 62.79 116.656 62.6551C116.52 62.5201 116.428 62.3479 116.39 62.1603C116.352 61.9727 116.371 61.7781 116.444 61.6012C116.517 61.4243 116.641 61.2731 116.8 61.1667C116.959 61.0602 117.146 61.0034 117.338 61.0034C117.464 61.0028 117.59 61.0271 117.707 61.0752C117.824 61.1232 117.931 61.1939 118.021 61.2832C118.11 61.3726 118.182 61.4788 118.23 61.5957C118.279 61.7127 118.304 61.8382 118.304 61.9648Z" fill="#65C17E"/>
<path opacity="0.8" d="M121.725 62.9262C122.256 62.9262 122.686 62.4958 122.686 61.9648C122.686 61.4339 122.256 61.0034 121.725 61.0034C121.194 61.0034 120.764 61.4339 120.764 61.9648C120.764 62.4958 121.194 62.9262 121.725 62.9262Z" fill="#65C17E"/>
<path opacity="0.2" d="M161.086 57.2642H106.109C104.913 57.2642 103.943 58.2338 103.943 59.4298V102.647C103.943 103.843 104.913 104.813 106.109 104.813H161.086C162.282 104.813 163.252 103.843 163.252 102.647V59.4298C163.252 58.2338 162.282 57.2642 161.086 57.2642Z" fill="#65C17E"/>
<path opacity="0.2" d="M190.824 80.4946H148.598C147.679 80.4946 146.934 81.24 146.934 82.1594V115.353C146.934 116.272 147.679 117.018 148.598 117.018H190.824C191.743 117.018 192.489 116.272 192.489 115.353V82.1594C192.489 81.24 191.743 80.4946 190.824 80.4946Z" fill="#65C17E"/>
<path opacity="0.2" d="M206.064 125.604H163.839C162.919 125.604 162.174 126.35 162.174 127.269V160.463C162.174 161.382 162.919 162.128 163.839 162.128H206.064C206.984 162.128 207.729 161.382 207.729 160.463V127.269C207.729 126.35 206.984 125.604 206.064 125.604Z" fill="#65C17E"/>
<path d="M81.1375 85.0891L77.4639 92.7955C76.2495 95.366 75.0604 97.9516 74.0029 100.512L73.6234 101.468C73.5677 101.615 73.5526 101.645 73.5121 101.772C73.4716 101.898 73.4412 102 73.4109 102.141C73.2775 102.746 73.1778 103.357 73.1123 103.973C72.9707 105.294 72.8897 106.69 72.8391 108.092C72.7379 110.9 72.7126 113.779 72.6772 116.628L69.9043 116.937C69.2702 114.061 68.8105 111.15 68.528 108.218C68.376 106.705 68.3051 105.185 68.3155 103.664C68.3183 102.842 68.3758 102.02 68.4875 101.205C68.5128 100.993 68.5634 100.75 68.614 100.517C68.6646 100.284 68.7506 99.9756 68.8063 99.7834L69.1554 98.7056C70.1016 95.8568 71.2047 93.1396 72.3635 90.4628C73.5222 87.7861 74.7619 85.16 76.0977 82.5439L81.1375 85.0891Z" fill="#FFC3BD"/>
<path d="M72.6361 115.758L73.9314 118.182L69.7974 119.335C69.7974 119.335 69.008 117.387 69.9441 115.854L72.6361 115.758Z" fill="#FFC3BD"/>
<path d="M75.5217 121.678L71.7166 121.977L69.7988 119.335L73.9328 118.182L75.5217 121.678Z" fill="#FFC3BD"/>
<path d="M93.5186 65.0819C93.5793 65.3754 93.7817 65.5879 93.974 65.5424C94.1662 65.4968 94.2725 65.2337 94.2168 64.9402C94.1612 64.6468 93.9537 64.4342 93.7614 64.4798C93.5692 64.5253 93.4578 64.7682 93.5186 65.0819Z" fill="#263238"/>
<path d="M93.7578 65.5879C94.2904 66.4141 94.934 67.1633 95.6705 67.8143C95.5 67.9989 95.2912 68.144 95.0587 68.2393C94.8261 68.3346 94.5756 68.3778 94.3245 68.3658L93.7578 65.5879Z" fill="#ED847E"/>
<path d="M92.0934 63.6702C92.1428 63.6692 92.1899 63.6493 92.2249 63.6145C92.3695 63.4473 92.5519 63.3169 92.7569 63.2342C92.962 63.1515 93.1838 63.1188 93.4039 63.1389C93.4502 63.1469 93.4978 63.1363 93.5363 63.1092C93.5747 63.0822 93.6008 63.041 93.6089 62.9947C93.6169 62.9484 93.6062 62.9008 93.5792 62.8624C93.5522 62.8239 93.511 62.7978 93.4647 62.7898C93.1834 62.7568 92.8984 62.7925 92.634 62.8938C92.3696 62.9952 92.1338 63.1591 91.9466 63.3717C91.9231 63.3967 91.9073 63.428 91.9012 63.4618C91.8952 63.4957 91.8991 63.5306 91.9125 63.5622C91.9259 63.5939 91.9482 63.6209 91.9767 63.6401C92.0053 63.6593 92.0388 63.6697 92.0732 63.6702H92.0934Z" fill="#263238"/>
<path d="M85.1494 69.2158C85.6807 71.933 86.217 76.9171 84.3145 78.7286C84.3145 78.7286 85.0583 81.4914 90.1082 81.4914C95.6742 81.4914 92.7647 78.7337 92.7647 78.7337C89.7287 78.005 89.8096 75.7584 90.3359 73.6433L85.1494 69.2158Z" fill="#FFC3BD"/>
<path d="M83.0496 79.6952C82.6094 78.9058 82.1186 78.0051 83.1306 77.7268C84.2387 77.4131 90.3259 77.0994 92.4258 77.6813C94.5257 78.2632 93.9438 79.8571 93.9438 79.8571L83.0496 79.6952Z" fill="#263238"/>
<path d="M67.3539 203.098C67.6666 203.172 67.9958 203.119 68.2698 202.951C68.3186 202.894 68.3487 202.823 68.3559 202.748C68.3631 202.673 68.3472 202.597 68.3103 202.532C68.2872 202.477 68.2527 202.428 68.209 202.388C68.1654 202.348 68.1136 202.317 68.0573 202.299C67.5513 202.112 66.4381 202.704 66.3875 202.729C66.3729 202.737 66.3609 202.748 66.3528 202.763C66.3448 202.777 66.341 202.793 66.3419 202.81C66.3432 202.827 66.3497 202.844 66.3606 202.857C66.3714 202.871 66.3861 202.881 66.4027 202.886C66.712 202.988 67.0306 203.059 67.3539 203.098ZM67.8954 202.44L68.0016 202.466C68.0347 202.476 68.0651 202.494 68.0905 202.517C68.1159 202.541 68.1356 202.57 68.1484 202.602C68.2141 202.754 68.1484 202.81 68.1484 202.83C67.9662 203.017 67.2123 202.941 66.6708 202.785C67.0485 202.58 67.4667 202.463 67.8954 202.44Z" fill="#65C17E"/>
<path d="M66.4228 202.906C66.4358 202.911 66.4503 202.911 66.4633 202.906C66.8681 202.739 67.6979 202.01 67.6625 201.59C67.657 201.525 67.6287 201.463 67.5825 201.416C67.5363 201.369 67.4751 201.339 67.4095 201.332C67.3441 201.315 67.2758 201.313 67.2093 201.325C67.1429 201.337 67.0799 201.364 67.025 201.403C66.5594 201.707 66.352 202.764 66.3469 202.81C66.3444 202.825 66.3458 202.84 66.3512 202.855C66.3565 202.869 66.3655 202.881 66.3773 202.891C66.3832 202.897 66.3904 202.901 66.3983 202.904C66.4062 202.906 66.4146 202.907 66.4228 202.906ZM67.2678 201.606H67.3033C67.4146 201.641 67.4146 201.692 67.4146 201.717C67.4146 201.965 66.8377 202.486 66.4026 202.699C66.5042 202.287 66.7283 201.917 67.0452 201.636C67.0774 201.614 67.1137 201.599 67.1519 201.591C67.1902 201.583 67.2296 201.583 67.2678 201.59V201.606Z" fill="#65C17E"/>
<path d="M94.2032 206.64C94.6788 206.64 95.1393 206.575 95.2911 206.357C95.3322 206.301 95.3543 206.234 95.3543 206.165C95.3543 206.096 95.3322 206.028 95.2911 205.973C95.2293 205.869 95.1293 205.795 95.0128 205.765C94.3955 205.598 93.095 206.342 93.0394 206.372C93.0227 206.378 93.0083 206.389 92.9981 206.404C92.9879 206.418 92.9824 206.436 92.9824 206.453C92.9824 206.471 92.9879 206.488 92.9981 206.503C93.0083 206.517 93.0227 206.528 93.0394 206.534C93.4235 206.603 93.8129 206.639 94.2032 206.64ZM94.7901 205.917C94.8472 205.909 94.9051 205.909 94.9622 205.917C94.9978 205.924 95.0315 205.938 95.0612 205.959C95.0908 205.98 95.1157 206.007 95.1342 206.038C95.1949 206.15 95.1747 206.205 95.1342 206.236C94.9622 206.474 94.021 206.479 93.3329 206.382C93.7855 206.143 94.2805 205.993 94.7901 205.942V205.917Z" fill="#65C17E"/>
<path d="M93.1046 206.534C93.5499 206.332 94.4405 205.522 94.3747 205.107C94.3747 205.011 94.2887 204.884 94.0458 204.859C93.9556 204.849 93.8643 204.857 93.7773 204.883C93.6903 204.909 93.6096 204.953 93.5398 205.011C93.0692 205.401 92.968 206.403 92.963 206.443C92.9624 206.458 92.9652 206.474 92.9714 206.488C92.9775 206.502 92.9867 206.514 92.9984 206.524C93.014 206.534 93.0318 206.54 93.0503 206.542C93.0688 206.544 93.0874 206.541 93.1046 206.534ZM94.0104 205.016H94.061C94.2229 205.016 94.233 205.097 94.233 205.117C94.2735 205.365 93.6714 205.998 93.221 206.276C93.2687 205.851 93.4452 205.45 93.727 205.127C93.802 205.07 93.8913 205.035 93.9851 205.026L94.0104 205.016Z" fill="#65C17E"/>
<path d="M88.9902 206.448H92.7093L93.0787 197.841H89.3596L88.9902 206.448Z" fill="#FFC3BD"/>
<path d="M62.1973 202.344L65.8911 202.744L68.6791 194.39L64.9853 193.99L62.1973 202.344Z" fill="#FFC3BD"/>
<path d="M66.2006 202.345L62.0514 201.894C61.9779 201.887 61.904 201.904 61.8416 201.943C61.7792 201.983 61.7319 202.042 61.7073 202.112L60.6245 205.32C60.5981 205.398 60.5897 205.48 60.6 205.562C60.6102 205.643 60.6388 205.721 60.6837 205.79C60.7285 205.859 60.7884 205.916 60.8588 205.958C60.9292 206.001 61.0082 206.026 61.09 206.033C62.5422 206.17 63.2557 206.16 65.0823 206.357C66.2056 206.479 68.5079 206.863 70.0614 207.015C71.6148 207.167 71.9791 205.674 71.3618 205.467C68.5788 204.536 67.6022 203.559 66.7774 202.638C66.627 202.474 66.422 202.369 66.2006 202.345Z" fill="#263238"/>
<path d="M92.6854 206.018H88.6374C88.564 206.018 88.4926 206.043 88.4355 206.089C88.3783 206.135 88.3388 206.199 88.3237 206.271L87.59 209.575C87.5716 209.655 87.5716 209.738 87.5898 209.817C87.608 209.897 87.644 209.972 87.6951 210.035C87.7462 210.099 87.8111 210.15 87.8849 210.186C87.9587 210.221 88.0395 210.239 88.1213 210.238C89.5887 210.213 91.7037 210.127 93.5456 210.127C95.6961 210.127 97.5531 210.243 100.078 210.243C101.596 210.243 102.026 208.7 101.389 208.558C98.4791 207.926 96.106 207.855 93.5962 206.306C93.3254 206.127 93.0099 206.027 92.6854 206.018Z" fill="#263238"/>
<path d="M98.2254 80.6311C99.2779 80.96 100.457 81.3193 101.585 81.6431C102.714 81.967 103.872 82.2453 105.021 82.4932C107.257 83.0197 109.534 83.3532 111.827 83.49C112.373 83.49 112.915 83.5254 113.436 83.49H113.755C113.82 83.49 113.932 83.49 114.023 83.4647C114.225 83.4344 114.458 83.3838 114.701 83.323C115.778 83.0269 116.834 82.6601 117.863 82.225C120.039 81.3345 122.271 80.2921 124.477 79.2852L126.02 81.6077C124.102 83.3023 122.04 84.8261 119.857 86.1617C118.704 86.8809 117.49 87.4972 116.229 88.0035C115.869 88.1469 115.5 88.2685 115.126 88.3679C114.913 88.4185 114.721 88.4691 114.483 88.5095L114.144 88.5652L113.881 88.5956C113.173 88.6866 112.479 88.7221 111.791 88.7423C109.139 88.7649 106.492 88.5106 103.893 87.9833C102.623 87.7303 101.363 87.4773 100.123 87.113C98.8832 86.7487 97.679 86.4299 96.3887 85.9644L98.2254 80.6311Z" fill="#FFC3BD"/>
<path d="M77.6573 79.5735C74.1761 80.3679 70.6543 90.5587 70.6543 90.5587L77.8243 95.6997C77.8243 95.6997 79.8483 90.9585 81.7964 86.8093C83.8609 82.4779 81.2196 78.7537 77.6573 79.5735Z" fill="#65C17E"/>
<path opacity="0.3" d="M77.6573 79.5735C74.1761 80.3679 70.6543 90.5587 70.6543 90.5587L77.8243 95.6997C77.8243 95.6997 79.8483 90.9585 81.7964 86.8093C83.8609 82.4779 81.2196 78.7537 77.6573 79.5735Z" fill="black"/>
<path d="M98.4832 79.7607C98.4832 79.7607 102.44 84.2337 98.7008 111.892H78.8201C78.6834 108.856 80.6012 93.954 77.6562 79.5735C79.8552 79.1475 82.0796 78.8652 84.3152 78.7284C87.1295 78.5638 89.9511 78.5638 92.7654 78.7284C94.6952 78.9243 96.6068 79.2694 98.4832 79.7607Z" fill="#65C17E"/>
<path opacity="0.3" d="M98.4832 79.7607C98.4832 79.7607 102.44 84.2337 98.7008 111.892H78.8201C78.6834 108.856 80.6012 93.954 77.6562 79.5735C79.8552 79.1475 82.0796 78.8652 84.3152 78.7284C87.1295 78.5638 89.9511 78.5638 92.7654 78.7284C94.6952 78.9243 96.6068 79.2694 98.4832 79.7607Z" fill="black"/>
<path opacity="0.3" d="M98.4843 79.7611C98.4843 79.7611 98.039 79.6396 97.3155 79.4727C95.1295 79.7004 94.0669 82.2152 94.6539 84.8261C95.089 86.7692 97.9125 89.4257 100.311 91.4041C100.255 81.7648 98.4843 79.7611 98.4843 79.7611Z" fill="black"/>
<path d="M93.6107 85.4687C95.3867 88.5452 105.097 91.5407 105.097 91.5407L108.356 82.8071C108.356 82.8071 102.79 81.2891 98.4733 79.7711C93.135 77.8534 91.6727 82.0886 93.6107 85.4687Z" fill="#65C17E"/>
<path opacity="0.3" d="M93.6107 85.4687C95.3867 88.5452 105.097 91.5407 105.097 91.5407L108.356 82.8071C108.356 82.8071 102.79 81.2891 98.4733 79.7711C93.135 77.8534 91.6727 82.0886 93.6107 85.4687Z" fill="black"/>
<path d="M123.844 80.1302L124.461 76.2593L127.892 77.2409C127.892 77.2409 128.398 80.6868 125.898 81.7038L123.844 80.1302Z" fill="#FFC3BD"/>
<path d="M125.938 72.8438L128.833 75.2776L127.892 77.2409L124.461 76.2592L125.938 72.8438Z" fill="#FFC3BD"/>
<path opacity="0.2" d="M93.0743 197.841L92.8871 202.278H89.168L89.3552 197.841H93.0743Z" fill="black"/>
<path opacity="0.2" d="M64.987 193.99L68.6808 194.395L67.2438 198.701L63.5449 198.296L64.987 193.99Z" fill="black"/>
<path d="M83.5926 66.448C84.5489 70.0153 84.9284 72.1507 87.1346 73.6282C90.4438 75.8596 94.5627 73.2993 94.6892 69.5245C94.8056 66.1242 93.2268 60.8669 89.4015 60.1483C88.5597 59.9917 87.692 60.0513 86.8796 60.3214C86.0671 60.5916 85.3365 61.0634 84.7561 61.6929C84.1757 62.3223 83.7645 63.0887 83.561 63.9204C83.3575 64.752 83.3684 65.6217 83.5926 66.448Z" fill="#FFC3BD"/>
<path d="M91.9772 55.7309C91.9542 55.971 91.8777 56.2029 91.7534 56.4096C91.6291 56.6162 91.46 56.7924 91.2586 56.9251C91.0917 55.0529 90.3478 53.2515 88.6831 52.3711C88.9563 53.1655 88.1771 54.4255 87.0335 55.7107C86.9064 55.2401 86.6835 54.8008 86.3787 54.4203C86.074 54.0398 85.694 53.7263 85.2625 53.4995C84.5035 56.4393 82.0747 56.9251 80.1469 58.7366C79.7296 59.1468 79.4452 59.673 79.3306 60.2468C79.216 60.8207 79.2765 61.4157 79.5042 61.9547C78.9982 61.727 78.3961 61.7827 77.9609 62.9161C78.3785 62.652 78.8587 62.5036 79.3524 62.486C79.0084 62.8099 78.7402 63.3715 78.9375 64.6365C79.2816 66.7769 83.6787 73.1373 86.4567 72.8186C89.4927 72.4694 90.0493 68.9527 90.1201 65.7801L90.2365 65.7194C92.3415 64.6011 94.9423 58.6202 91.9772 55.7309Z" fill="#263238"/>
<path d="M88.6771 66.5089C89.0572 67.343 89.7008 68.0292 90.5088 68.4621C91.5815 69.0187 92.1786 68.204 91.9408 67.1364C91.7232 66.1699 90.9288 64.7228 89.8004 64.6064C88.672 64.49 88.2318 65.4969 88.6771 66.5089Z" fill="#FFC3BD"/>
<path d="M91.652 111.892C91.652 111.892 87.432 140.299 85.1145 150.945C82.5845 162.583 69.2413 198.281 69.2413 198.281L62.5469 197.052C62.5469 197.052 72.5151 163.54 73.9622 152.018C75.5359 139.494 78.8198 111.912 78.8198 111.912L91.652 111.892Z" fill="#65C17E"/>
<path opacity="0.2" d="M88.9858 122.012C84.108 122.968 84.6241 141.159 85.211 150.515C86.6177 143.902 88.6772 131.176 90.0838 122.144C89.7435 121.976 89.3561 121.93 88.9858 122.012Z" fill="black"/>
<path d="M98.7016 111.892C98.7016 111.892 99.2076 139.687 98.813 151.021C98.393 162.811 94.259 201.419 94.259 201.419H87.9744C87.9744 201.419 87.7417 163.499 87.4684 151.922C87.1648 139.297 85.6367 111.892 85.6367 111.892H98.7016Z" fill="#65C17E"/>
<path opacity="0.2" d="M93.2107 196.86L92.9375 196.829C94.0456 186.148 96.6667 160.301 96.9855 151.036C97.3245 141.544 97.0159 120.332 96.9147 114.058L97.1879 114.027C97.2891 120.302 97.5978 141.523 97.2587 151.031C96.94 160.311 94.3189 186.173 93.2107 196.86Z" fill="black"/>
<path d="M70.7646 196.014C70.7949 196.014 69.6008 198.458 69.6008 198.458L62.0664 197.072L62.6281 194.8L70.7646 196.014Z" fill="#65C17E"/>
<path opacity="0.5" d="M70.7646 196.014C70.7949 196.014 69.6008 198.458 69.6008 198.458L62.0664 197.072L62.6281 194.8L70.7646 196.014Z" fill="black"/>
<path d="M95.4823 198.909C95.5126 198.909 95.1281 201.525 95.1281 201.525H87.4672L87.2598 199.192L95.4823 198.909Z" fill="#65C17E"/>
<path opacity="0.5" d="M95.4823 198.909C95.5126 198.909 95.1281 201.525 95.1281 201.525H87.4672L87.2598 199.192L95.4823 198.909Z" fill="black"/>
</svg>
